ISO-10303-21;
HEADER;
FILE_DESCRIPTION (( 'STEP AP203' ),
    '1' );
FILE_NAME ('4177-35-CHAIN_REV_1.step',
    '2025-08-17T04:52:52',
    ( '' ),
    ( '' ),
    'SwSTEP 2.0',
    'SolidWorks 2024',
    '' );
FILE_SCHEMA (( 'CONFIG_CONTROL_DESIGN' ));
ENDSEC;

DATA;
#1 = EDGE_LOOP ( 'NONE', ( #153, #346, #229, #282 ) ) ;
#2 = CONTEXT_DEPENDENT_SHAPE_REPRESENTATION ( #248, #584 ) ;
#3 = CC_DESIGN_DATE_AND_TIME_ASSIGNMENT ( #698, #262, ( #729 ) ) ;
#4 = AXIS2_PLACEMENT_3D ( 'NONE', #203, #556, #251 ) ;
#5 = AXIS2_PLACEMENT_3D ( 'NONE', #51, #287, #527 ) ;
#6 = LOCAL_TIME ( 14, 52, 52.00000000000000000, #111 ) ;
#7 = ORIENTED_EDGE ( 'NONE', *, *, #206, .T. ) ;
#8 = APPROVAL_DATE_TIME ( #732, #394 ) ;
#9 = APPROVAL_ROLE ( '' ) ;
#10 = EDGE_CURVE ( 'NONE', #122, #585, #736, .T. ) ;
#11 = PERSON_AND_ORGANIZATION ( #427, #434 ) ;
#12 = DIRECTION ( 'NONE',  ( -2.081668171172174035E-15, 0.000000000000000000, 1.000000000000000000 ) ) ;
#13 = ITEM_DEFINED_TRANSFORMATION ( 'NONE', 'NONE', #30,  #761 ) ;
#14 = CC_DESIGN_PERSON_AND_ORGANIZATION_ASSIGNMENT ( #535, #662, ( #327 ) ) ;
#15 = DATE_AND_TIME ( #383, #340 ) ;
#16 = DIRECTION ( 'NONE',  ( 1.000000000000000000, 0.000000000000000000, -1.051347561198047209E-16 ) ) ;
#17 = EDGE_CURVE ( 'NONE', #585, #721, #657, .T. ) ;
#18 = SECURITY_CLASSIFICATION ( '', '', #167 ) ;
#19 = APPROVAL_PERSON_ORGANIZATION ( #618, #23, #430 ) ;
#20 = DATE_AND_TIME ( #242, #492 ) ;
#21 = ORGANIZATION ( 'NAUO-ORG4', 'UNSPECIFIED', 'UNSPECIFIED' ) ;
#22 = DIRECTION ( 'NONE',  ( -8.326672684688696141E-15, 0.000000000000000000, 1.000000000000000000 ) ) ;
#23 = APPROVAL ( #240, 'UNSPECIFIED' ) ;
#24 = PERSON_AND_ORGANIZATION ( #427, #434 ) ;
#25 = CARTESIAN_POINT ( 'NONE',  ( 16.50000000000028422, -6.123233995736749519E-16, 1.179611963664228824E-13 ) ) ;
#26 = APPROVAL_STATUS ( 'not_yet_approved' ) ;
#27 = DIRECTION ( 'NONE',  ( 0.000000000000000000, 0.000000000000000000, -1.000000000000000000 ) ) ;
#28 = CC_DESIGN_SECURITY_CLASSIFICATION ( #512, ( #778 ) ) ;
#29 = PERSON_AND_ORGANIZATION ( #427, #434 ) ;
#30 = AXIS2_PLACEMENT_3D ( 'NONE', #118, #180, #664 ) ;
#31 = DIRECTION ( 'NONE',  ( 1.000000000000000000, 0.000000000000000000, 0.000000000000000000 ) ) ;
#32 = SECURITY_CLASSIFICATION ( '', '', #683 ) ;
#33 = APPROVAL_PERSON_ORGANIZATION ( #617, #531, #196 ) ;
#34 = CONTEXT_DEPENDENT_SHAPE_REPRESENTATION ( #124, #724 ) ;
#35 = DIRECTION ( 'NONE',  ( 0.4999999999999981126, -7.979727989493312634E-17, 0.8660254037844397068 ) ) ;
#36 = DATE_AND_TIME ( #577, #656 ) ;
#37 = APPROVAL_STATUS ( 'not_yet_approved' ) ;
#38 = CC_DESIGN_PERSON_AND_ORGANIZATION_ASSIGNMENT ( #574, #54, ( #324 ) ) ;
#39 = CARTESIAN_POINT ( 'NONE',  ( 16.50000000000028422, 0.000000000000000000, 14.49999999999983658 ) ) ;
#40 = COORDINATED_UNIVERSAL_TIME_OFFSET ( 10, 0, .AHEAD. ) ;
#41 = ORGANIZATION ( 'NAUO-ORG9', 'UNSPECIFIED', 'UNSPECIFIED' ) ;
#42 = CIRCLE ( 'NONE', #687, 4.999999999999986677 ) ;
#43 = SECURITY_CLASSIFICATION_LEVEL ( 'unclassified' ) ;
#44 = APPROVAL_PERSON_ORGANIZATION ( #726, #125, #62 ) ;
#45 = COORDINATED_UNIVERSAL_TIME_OFFSET ( 10, 0, .AHEAD. ) ;
#46 = CC_DESIGN_DATE_AND_TIME_ASSIGNMENT ( #36, #396, ( #324 ) ) ;
#47 = CC_DESIGN_PERSON_AND_ORGANIZATION_ASSIGNMENT ( #269, #465, ( #289 ) ) ;
#48 = ORIENTED_EDGE ( 'NONE', *, *, #316, .F. ) ;
#49 = APPROVAL_DATE_TIME ( #344, #320 ) ;
#50 = PERSON_AND_ORGANIZATION ( #427, #434 ) ;
#51 = CARTESIAN_POINT ( 'NONE',  ( 0.000000000000000000, 0.000000000000000000, 0.000000000000000000 ) ) ;
#52 = ORIENTED_EDGE ( 'NONE', *, *, #519, .F. ) ;
#53 = PRODUCT_DEFINITION_SHAPE ( 'NONE', 'NONE',  #779 ) ;
#54 = PERSON_AND_ORGANIZATION_ROLE ( 'classification_officer' ) ;
#55 = AXIS2_PLACEMENT_3D ( 'NONE', #226, #169, #113 ) ;
#56 = SECURITY_CLASSIFICATION ( '', '', #559 ) ;
#57 = APPROVAL_STATUS ( 'not_yet_approved' ) ;
#58 = LOCAL_TIME ( 14, 52, 52.00000000000000000, #515 ) ;
#59 = LOCAL_TIME ( 14, 52, 52.00000000000000000, #420 ) ;
#60 = DATE_AND_TIME ( #186, #174 ) ;
#61 = PRODUCT ( '4177-35-CHAIN_REV_1', '4177-35-CHAIN_REV_1', '', ( #112 ) ) ;
#62 = APPROVAL_ROLE ( '' ) ;
#63 = APPROVAL ( #271, 'UNKNOWN' ) ;
#64 = ORIENTED_EDGE ( 'NONE', *, *, #17, .T. ) ;
#65 = CALENDAR_DATE ( 2025, 17, 8 ) ;
#66 = ORIENTED_EDGE ( 'NONE', *, *, #388, .F. ) ;
#67 = SECURITY_CLASSIFICATION_LEVEL ( 'unclassified' ) ;
#68 = CC_DESIGN_DATE_AND_TIME_ASSIGNMENT ( #20, #614, ( #56 ) ) ;
#69 = AXIS2_PLACEMENT_3D ( 'NONE', #458, #637, #99 ) ;
#70 = LOCAL_TIME ( 14, 52, 52.00000000000000000, #387 ) ;
#71 = PERSON_AND_ORGANIZATION_ROLE ( 'design_owner' ) ;
#72 = CYLINDRICAL_SURFACE ( 'NONE', #82, 4.999999999999986677 ) ;
#73 = DATE_TIME_ROLE ( 'classification_date' ) ;
#74 = DATE_TIME_ROLE ( 'classification_date' ) ;
#75 = DIRECTION ( 'NONE',  ( 0.000000000000000000, 1.000000000000000000, 0.000000000000000000 ) ) ;
#76 = DATE_TIME_ROLE ( 'classification_date' ) ;
#77 = PERSON_AND_ORGANIZATION ( #427, #434 ) ;
#78 = ADVANCED_FACE ( 'NONE', ( #140 ), #478, .T. ) ;
#79 = DIRECTION ( 'NONE',  ( -1.000000000000000000, 0.000000000000000000, -8.154418042268790825E-15 ) ) ;
#80 = CC_DESIGN_PERSON_AND_ORGANIZATION_ASSIGNMENT ( #319, #442, ( #437 ) ) ;
#81 = ORGANIZATION ( 'NAUO-ORG7', 'UNSPECIFIED', 'UNSPECIFIED' ) ;
#82 = AXIS2_PLACEMENT_3D ( 'NONE', #304, #546, #12 ) ;
#83 = PERSON_AND_ORGANIZATION ( #427, #434 ) ;
#84 = APPROVAL_PERSON_ORGANIZATION ( #207, #184, #630 ) ;
#85 = CARTESIAN_POINT ( 'NONE',  ( -16.50000000000032685, 0.000000000000000000, 19.49999999999975131 ) ) ;
#86 = PERSON_AND_ORGANIZATION ( #427, #434 ) ;
#87 = APPLICATION_CONTEXT ( 'configuration controlled 3d designs of mechanical parts and assemblies' ) ;
#88 = LINE ( 'NONE', #682, #727 ) ;
#89 = CALENDAR_DATE ( 2025, 17, 8 ) ;
#90 = CARTESIAN_POINT ( 'NONE',  ( 0.000000000000000000, 0.000000000000000000, 0.000000000000000000 ) ) ;
#91 = EDGE_CURVE ( 'NONE', #721, #288, #495, .T. ) ;
#92 = LOCAL_TIME ( 14, 52, 52.00000000000000000, #268 ) ;
#93 = DATE_AND_TIME ( #204, #481 ) ;
#94 = PRODUCT_DEFINITION_FORMATION_WITH_SPECIFIED_SOURCE ( 'ANY', '', #61, .NOT_KNOWN. ) ;
#95 = CC_DESIGN_SECURITY_CLASSIFICATION ( #327, ( #770 ) ) ;
#96 = SECURITY_CLASSIFICATION_LEVEL ( 'unclassified' ) ;
#97 = CC_DESIGN_PERSON_AND_ORGANIZATION_ASSIGNMENT ( #210, #464, ( #249 ) ) ;
#98 = ADVANCED_FACE ( 'NONE', ( #310 ), #134, .T. ) ;
#99 = DIRECTION ( 'NONE',  ( 0.000000000000000000, 0.000000000000000000, -1.000000000000000000 ) ) ;
#100 = APPROVAL_DATE_TIME ( #639, #170 ) ;
#101 = CARTESIAN_POINT ( 'NONE',  ( -16.50000000000028422, 0.000000000000000000, 14.49999999999976374 ) ) ;
#102 = CLOSED_SHELL ( 'NONE', ( #471, #78, #460, #743, #98, #508, #697, #399 ) ) ;
#103 = PERSON_AND_ORGANIZATION ( #152, #558 ) ;
#104 = CC_DESIGN_APPROVAL ( #361, ( #729 ) ) ;
#105 = PERSON ( 'NAUO-PER4', 'UNSPECIFIED', 'UNSPECIFIED', ('UNSPECIFIED'), ('UNSPECIFIED'), ('UNSPECIFIED') ) ;
#106 = ORIENTED_EDGE ( 'NONE', *, *, #483, .F. ) ;
#107 = DATE_AND_TIME ( #157, #742 ) ;
#108 = SECURITY_CLASSIFICATION_LEVEL ( 'unclassified' ) ;
#109 = ORIENTED_EDGE ( 'NONE', *, *, #187, .F. ) ;
#110 = ITEM_DEFINED_TRANSFORMATION ( 'NONE', 'NONE', #467,  #761 ) ;
#111 = COORDINATED_UNIVERSAL_TIME_OFFSET ( 10, 0, .AHEAD. ) ;
#112 = MECHANICAL_CONTEXT ( 'NONE', #87, 'mechanical' ) ;
#113 = DIRECTION ( 'NONE',  ( 0.000000000000000000, 0.000000000000000000, -1.000000000000000000 ) ) ;
#114 = PERSON_AND_ORGANIZATION ( #463, #466 ) ;
#115 = LOCAL_TIME ( 14, 52, 52.00000000000000000, #40 ) ;
#116 = CIRCLE ( 'NONE', #701, 9.499999999999729994 ) ;
#117 = LOCAL_TIME ( 14, 52, 52.00000000000000000, #45 ) ;
#118 = CARTESIAN_POINT ( 'NONE',  ( 185.6414284285415874, -24.99999999999932498, 392.2832284727221008 ) ) ;
#119 = ORIENTED_EDGE ( 'NONE', *, *, #483, .T. ) ;
#120 = CONTEXT_DEPENDENT_SHAPE_REPRESENTATION ( #494, #538 ) ;
#121 = DIRECTION ( 'NONE',  ( 0.8660254037844397068, -1.491862189340054101E-16, -0.4999999999999979461 ) ) ;
#122 = VERTEX_POINT ( 'NONE', #384 ) ;
#123 = PRODUCT_RELATED_PRODUCT_CATEGORY ( 'detail', '', ( #61 ) ) ;
#124 =( REPRESENTATION_RELATIONSHIP ('NONE','NONE', #500, #307 ) REPRESENTATION_RELATIONSHIP_WITH_TRANSFORMATION ( #648 )SHAPE_REPRESENTATION_RELATIONSHIP( ) );
#125 = APPROVAL ( #613, 'UNKNOWN' ) ;
#126 = CARTESIAN_POINT ( 'NONE',  ( -16.50000000000027711, 0.000000000000000000, -14.49999999999965361 ) ) ;
#127 = ORGANIZATION ( 'NAUO-ORG12', 'UNSPECIFIED', 'UNSPECIFIED' ) ;
#128 = SECURITY_CLASSIFICATION ( '', '', #644 ) ;
#129 = CC_DESIGN_APPROVAL ( #412, ( #18 ) ) ;
#130 = COORDINATED_UNIVERSAL_TIME_OFFSET ( 10, 0, .AHEAD. ) ;
#131 = APPROVAL_STATUS ( 'not_yet_approved' ) ;
#132 = DIRECTION ( 'NONE',  ( -1.000000000000000000, 0.000000000000000000, -2.207829878515898078E-15 ) ) ;
#133 = CALENDAR_DATE ( 2025, 17, 8 ) ;
#134 = CYLINDRICAL_SURFACE ( 'NONE', #259, 4.999999999999985789 ) ;
#135 = LOCAL_TIME ( 14, 52, 52.00000000000000000, #670 ) ;
#136 = AXIS2_PLACEMENT_3D ( 'NONE', #255, #674, #560 ) ;
#137 = VECTOR ( 'NONE', #132, 1000.000000000000000 ) ;
#138 = COORDINATED_UNIVERSAL_TIME_OFFSET ( 10, 0, .AHEAD. ) ;
#139 = ORGANIZATION ( 'NAUO-ORG6', 'UNSPECIFIED', 'UNSPECIFIED' ) ;
#140 = FACE_OUTER_BOUND ( 'NONE', #665, .T. ) ;
#141 = COORDINATED_UNIVERSAL_TIME_OFFSET ( 10, 0, .AHEAD. ) ;
#142 = DIRECTION ( 'NONE',  ( -1.000000000000000000, 0.000000000000000000, -8.154418042268790825E-15 ) ) ;
#143 = APPROVAL_DATE_TIME ( #323, #461 ) ;
#144 = APPROVAL_DATE_TIME ( #284, #184 ) ;
#145 = DIRECTION ( 'NONE',  ( -8.326672684688696141E-15, 0.000000000000000000, 1.000000000000000000 ) ) ;
#146 = CC_DESIGN_PERSON_AND_ORGANIZATION_ASSIGNMENT ( #617, #746, ( #32 ) ) ;
#147 = ITEM_DEFINED_TRANSFORMATION ( 'NONE', 'NONE', #566,  #761 ) ;
#148 = DATE_AND_TIME ( #453, #435 ) ;
#149 = CIRCLE ( 'NONE', #591, 4.999999999999985789 ) ;
#150 = CARTESIAN_POINT ( 'NONE',  ( 16.50000000000027711, 0.000000000000000000, -14.49999999999965716 ) ) ;
#151 = ORGANIZATION ( 'NAUO-ORG2', 'UNSPECIFIED', 'UNSPECIFIED' ) ;
#152 = PERSON ( 'NAUO-PER5', 'UNSPECIFIED', 'UNSPECIFIED', ('UNSPECIFIED'), ('UNSPECIFIED'), ('UNSPECIFIED') ) ;
#153 = ORIENTED_EDGE ( 'NONE', *, *, #601, .F. ) ;
#154 = DATE_AND_TIME ( #703, #58 ) ;
#155 = CC_DESIGN_PERSON_AND_ORGANIZATION_ASSIGNMENT ( #86, #303, ( #56 ) ) ;
#156 = DIRECTION ( 'NONE',  ( -0.000000000000000000, -1.000000000000000000, -0.000000000000000000 ) ) ;
#157 = CALENDAR_DATE ( 2025, 17, 8 ) ;
#158 = CARTESIAN_POINT ( 'NONE',  ( 16.50000000000024514, 6.123233995736750505E-16, -9.499999999999671374 ) ) ;
#159 = PERSON_AND_ORGANIZATION_ROLE ( 'classification_officer' ) ;
#160 = DIRECTION ( 'NONE',  ( -1.895741069380449915E-17, 1.000000000000000000, -5.079622885990048556E-18 ) ) ;
#161 = AXIS2_PLACEMENT_3D ( 'NONE', #330, #570, #35 ) ;
#162 = CONTEXT_DEPENDENT_SHAPE_REPRESENTATION ( #677, #188 ) ;
#163 = LOCAL_TIME ( 14, 52, 52.00000000000000000, #496 ) ;
#164 = DATE_AND_TIME ( #502, #449 ) ;
#165 =( NAMED_UNIT ( * ) SI_UNIT ( $, .STERADIAN. ) SOLID_ANGLE_UNIT ( ) );
#166 = EDGE_LOOP ( 'NONE', ( #725, #7, #408, #716 ) ) ;
#167 = SECURITY_CLASSIFICATION_LEVEL ( 'unclassified' ) ;
#168 = DIRECTION ( 'NONE',  ( 0.4999999999999981126, -7.979727989493312634E-17, 0.8660254037844397068 ) ) ;
#169 = DIRECTION ( 'NONE',  ( -0.000000000000000000, -1.000000000000000000, -0.000000000000000000 ) ) ;
#170 = APPROVAL ( #331, 'UNKNOWN' ) ;
#171 = COORDINATED_UNIVERSAL_TIME_OFFSET ( 10, 0, .AHEAD. ) ;
#172 = ORIENTED_EDGE ( 'NONE', *, *, #519, .T. ) ;
#173 = APPROVAL_STATUS ( 'not_yet_approved' ) ;
#174 = LOCAL_TIME ( 14, 52, 52.00000000000000000, #363 ) ;
#175 = AXIS2_PLACEMENT_3D ( 'NONE', #366, #616, #488 ) ;
#176 = AXIS2_PLACEMENT_3D ( 'NONE', #231, #411, #604 ) ;
#177 = DATE_TIME_ROLE ( 'classification_date' ) ;
#178 = LOCAL_TIME ( 14, 52, 52.00000000000000000, #225 ) ;
#179 = PRODUCT_DEFINITION ( 'UNKNOWN', '', #94, #243 ) ;
#180 = DIRECTION ( 'NONE',  ( -1.895741069380449915E-17, 1.000000000000000000, -5.079622885990048556E-18 ) ) ;
#181 = SECURITY_CLASSIFICATION_LEVEL ( 'unclassified' ) ;
#182 = CC_DESIGN_PERSON_AND_ORGANIZATION_ASSIGNMENT ( #521, #675, ( #415 ) ) ;
#183 = APPROVAL_DATE_TIME ( #15, #23 ) ;
#184 = APPROVAL ( #37, 'UNSPECIFIED' ) ;
#185 = EDGE_LOOP ( 'NONE', ( #296, #172, #537, #106 ) ) ;
#186 = CALENDAR_DATE ( 2025, 17, 8 ) ;
#187 = EDGE_CURVE ( 'NONE', #721, #585, #149, .T. ) ;
#188 = PRODUCT_DEFINITION_SHAPE ( 'NONE', 'NONE',  #773 ) ;
#189 = CARTESIAN_POINT ( 'NONE',  ( 16.50000000000028422, 0.000000000000000000, 1.179611963664228824E-13 ) ) ;
#190 = CC_DESIGN_SECURITY_CLASSIFICATION ( #18, ( #779 ) ) ;
#191 = COORDINATED_UNIVERSAL_TIME_OFFSET ( 10, 0, .AHEAD. ) ;
#192 = CC_DESIGN_SECURITY_CLASSIFICATION ( #437, ( #780 ) ) ;
#193 = DIRECTION ( 'NONE',  ( 0.000000000000000000, 0.000000000000000000, -1.000000000000000000 ) ) ;
#194 = CC_DESIGN_PERSON_AND_ORGANIZATION_ASSIGNMENT ( #693, #569, ( #688 ) ) ;
#195 = FACE_OUTER_BOUND ( 'NONE', #533, .T. ) ;
#196 = APPROVAL_ROLE ( '' ) ;
#197 = CALENDAR_DATE ( 2025, 17, 8 ) ;
#198 = FACE_OUTER_BOUND ( 'NONE', #185, .T. ) ;
#199 =( REPRESENTATION_RELATIONSHIP ('NONE','NONE', #500, #307 ) REPRESENTATION_RELATIONSHIP_WITH_TRANSFORMATION ( #216 )SHAPE_REPRESENTATION_RELATIONSHIP( ) );
#200 = CIRCLE ( 'NONE', #350, 19.49999999999969447 ) ;
#201 = CC_DESIGN_PERSON_AND_ORGANIZATION_ASSIGNMENT ( #24, #254, ( #94 ) ) ;
#202 = CC_DESIGN_APPROVAL ( #531, ( #32 ) ) ;
#203 = CARTESIAN_POINT ( 'NONE',  ( 16.50000000000028422, 0.000000000000000000, 1.179611963664228824E-13 ) ) ;
#204 = CALENDAR_DATE ( 2025, 17, 8 ) ;
#205 = CARTESIAN_POINT ( 'NONE',  ( 16.50000000000024514, 0.000000000000000000, 19.49999999999982236 ) ) ;
#206 = EDGE_CURVE ( 'NONE', #585, #739, #88, .T. ) ;
#207 = PERSON_AND_ORGANIZATION ( #427, #434 ) ;
#208 = CARTESIAN_POINT ( 'NONE',  ( 55.64142842854179349, -24.99999999999980105, 167.1166234887679423 ) ) ;
#209 = APPLICATION_CONTEXT ( 'configuration controlled 3d designs of mechanical parts and assemblies' ) ;
#210 = PERSON_AND_ORGANIZATION ( #536, #139 ) ;
#211 = CC_DESIGN_APPROVAL ( #394, ( #512 ) ) ;
#212 = CYLINDRICAL_SURFACE ( 'NONE', #69, 4.999999999999985789 ) ;
#213 = APPROVAL_PERSON_ORGANIZATION ( #693, #397, #451 ) ;
#214 = ITEM_DEFINED_TRANSFORMATION ( 'NONE', 'NONE', #176,  #761 ) ;
#215 = DIRECTION ( 'NONE',  ( 0.000000000000000000, 0.000000000000000000, 1.000000000000000000 ) ) ;
#216 = ITEM_DEFINED_TRANSFORMATION ( 'NONE', 'NONE', #368,  #761 ) ;
#217 = CALENDAR_DATE ( 2025, 17, 8 ) ;
#218 = DIRECTION ( 'NONE',  ( 0.8660254037844397068, -1.491862189340054101E-16, -0.4999999999999979461 ) ) ;
#219 = AXIS2_PLACEMENT_3D ( 'NONE', #491, #741, #193 ) ;
#220 = ORIENTED_EDGE ( 'NONE', *, *, #718, .F. ) ;
#221 = CC_DESIGN_SECURITY_CLASSIFICATION ( #249, ( #774 ) ) ;
#222 = PERSON ( 'NAUO-PER7', 'UNSPECIFIED', 'UNSPECIFIED', ('UNSPECIFIED'), ('UNSPECIFIED'), ('UNSPECIFIED') ) ;
#223 = APPROVAL_STATUS ( 'not_yet_approved' ) ;
#224 = SECURITY_CLASSIFICATION ( '', '', #347 ) ;
#225 = COORDINATED_UNIVERSAL_TIME_OFFSET ( 10, 0, .AHEAD. ) ;
#226 = CARTESIAN_POINT ( 'NONE',  ( -16.50000000000027356, 6.123233995736749519E-16, 5.551115123125782702E-14 ) ) ;
#227 = CALENDAR_DATE ( 2025, 17, 8 ) ;
#228 = CALENDAR_DATE ( 2025, 17, 8 ) ;
#229 = ORIENTED_EDGE ( 'NONE', *, *, #316, .T. ) ;
#230 = ITEM_DEFINED_TRANSFORMATION ( 'NONE', 'NONE', #737,  #761 ) ;
#231 = CARTESIAN_POINT ( 'NONE',  ( 211.6414284285417580, -24.99999999999919353, 437.3165494695128359 ) ) ;
#232 = ORIENTED_EDGE ( 'NONE', *, *, #17, .F. ) ;
#233 = APPROVAL_ROLE ( '' ) ;
#234 = CC_DESIGN_APPROVAL ( #426, ( #179 ) ) ;
#235 = CC_DESIGN_DATE_AND_TIME_ASSIGNMENT ( #252, #76, ( #32 ) ) ;
#236 = EDGE_CURVE ( 'NONE', #288, #739, #311, .T. ) ;
#237 =( REPRESENTATION_RELATIONSHIP ('NONE','NONE', #500, #307 ) REPRESENTATION_RELATIONSHIP_WITH_TRANSFORMATION ( #13 )SHAPE_REPRESENTATION_RELATIONSHIP( ) );
#238 = APPROVAL_ROLE ( '' ) ;
#239 = UNCERTAINTY_MEASURE_WITH_UNIT (LENGTH_MEASURE( 1.000000000000000082E-05 ), #503, 'distance_accuracy_value', 'NONE');
#240 = APPROVAL_STATUS ( 'not_yet_approved' ) ;
#241 = LINE ( 'NONE', #623, #417 ) ;
#242 = CALENDAR_DATE ( 2025, 17, 8 ) ;
#243 = DESIGN_CONTEXT ( 'detailed design', #588, 'design' ) ;
#244 = PRODUCT_DEFINITION_SHAPE ( 'NONE', 'NONE',  #775 ) ;
#245 = FACE_OUTER_BOUND ( 'NONE', #351, .T. ) ;
#246 = AXIS2_PLACEMENT_3D ( 'NONE', #445, #79, #22 ) ;
#247 = TOROIDAL_SURFACE ( 'NONE', #219, 14.49999999999970690, 4.999999999999985789 ) ;
#248 =( REPRESENTATION_RELATIONSHIP ('NONE','NONE', #500, #307 ) REPRESENTATION_RELATIONSHIP_WITH_TRANSFORMATION ( #147 )SHAPE_REPRESENTATION_RELATIONSHIP( ) );
#249 = SECURITY_CLASSIFICATION ( '', '', #43 ) ;
#250 = CC_DESIGN_PERSON_AND_ORGANIZATION_ASSIGNMENT ( #486, #305, ( #512 ) ) ;
#251 = DIRECTION ( 'NONE',  ( 0.000000000000000000, 0.000000000000000000, 1.000000000000000000 ) ) ;
#252 = DATE_AND_TIME ( #627, #70 ) ;
#253 =( REPRESENTATION_RELATIONSHIP ('NONE','NONE', #500, #307 ) REPRESENTATION_RELATIONSHIP_WITH_TRANSFORMATION ( #266 )SHAPE_REPRESENTATION_RELATIONSHIP( ) );
#254 = PERSON_AND_ORGANIZATION_ROLE ( 'design_supplier' ) ;
#255 = CARTESIAN_POINT ( 'NONE',  ( -16.50000000000028422, 0.000000000000000000, 14.49999999999976374 ) ) ;
#256 = EDGE_CURVE ( 'NONE', #418, #606, #712, .T. ) ;
#257 = CARTESIAN_POINT ( 'NONE',  ( 16.50000000000031264, 0.000000000000000000, -19.49999999999964118 ) ) ;
#258 = APPROVAL_STATUS ( 'not_yet_approved' ) ;
#259 = AXIS2_PLACEMENT_3D ( 'NONE', #126, #734, #27 ) ;
#260 = AXIS2_PLACEMENT_3D ( 'NONE', #596, #562, #619 ) ;
#261 = AXIS2_PLACEMENT_3D ( 'NONE', #709, #121, #168 ) ;
#262 = DATE_TIME_ROLE ( 'classification_date' ) ;
#263 = SECURITY_CLASSIFICATION ( '', '', #723 ) ;
#264 = DESIGN_CONTEXT ( 'detailed design', #209, 'design' ) ;
#265 = CARTESIAN_POINT ( 'NONE',  ( -12.92928578572924891, -12.50000000000007994, 32.01666049839541728 ) ) ;
#266 = ITEM_DEFINED_TRANSFORMATION ( 'NONE', 'NONE', #513,  #761 ) ;
#267 = DIRECTION ( 'NONE',  ( -2.081668171172174035E-15, 0.000000000000000000, 1.000000000000000000 ) ) ;
#268 = COORDINATED_UNIVERSAL_TIME_OFFSET ( 10, 0, .AHEAD. ) ;
#269 = PERSON_AND_ORGANIZATION ( #427, #434 ) ;
#270 = FACE_OUTER_BOUND ( 'NONE', #654, .T. ) ;
#271 = APPROVAL_STATUS ( 'not_yet_approved' ) ;
#272 = EDGE_LOOP ( 'NONE', ( #529, #64, #731, #66 ) ) ;
#273 = LOCAL_TIME ( 14, 52, 52.00000000000000000, #608 ) ;
#274 =( NAMED_UNIT ( * ) SI_UNIT ( $, .STERADIAN. ) SOLID_ANGLE_UNIT ( ) );
#275 = CC_DESIGN_APPROVAL ( #749, ( #249 ) ) ;
#276 = APPROVAL_ROLE ( '' ) ;
#277 = CARTESIAN_POINT ( 'NONE',  ( 0.000000000000000000, 0.000000000000000000, 0.000000000000000000 ) ) ;
#278 = APPROVAL_STATUS ( 'not_yet_approved' ) ;
#279 = PRODUCT_DEFINITION ( 'UNKNOWN', '', #289, #264 ) ;
#280 = CARTESIAN_POINT ( 'NONE',  ( 81.64142842854163007, -24.99999999999972999, 212.1499444855588479 ) ) ;
#281 = CC_DESIGN_DATE_AND_TIME_ASSIGNMENT ( #661, #353, ( #18 ) ) ;
#282 = ORIENTED_EDGE ( 'NONE', *, *, #388, .T. ) ;
#283 = APPROVAL_ROLE ( '' ) ;
#284 = DATE_AND_TIME ( #522, #6 ) ;
#285 = CC_DESIGN_DATE_AND_TIME_ASSIGNMENT ( #476, #177, ( #263 ) ) ;
#286 = LOCAL_TIME ( 14, 52, 52.00000000000000000, #489 ) ;
#287 = DIRECTION ( 'NONE',  ( 0.000000000000000000, 0.000000000000000000, 1.000000000000000000 ) ) ;
#288 = VERTEX_POINT ( 'NONE', #257 ) ;
#289 = PRODUCT_DEFINITION_FORMATION_WITH_SPECIFIED_SOURCE ( 'ANY', '', #545, .NOT_KNOWN. ) ;
#290 = APPROVAL_STATUS ( 'not_yet_approved' ) ;
#291 = CC_DESIGN_PERSON_AND_ORGANIZATION_ASSIGNMENT ( #365, #313, ( #94 ) ) ;
#292 = DATE_AND_TIME ( #227, #590 ) ;
#293 = DATE_AND_TIME ( #667, #457 ) ;
#294 =( REPRESENTATION_RELATIONSHIP ('NONE','NONE', #500, #307 ) REPRESENTATION_RELATIONSHIP_WITH_TRANSFORMATION ( #230 )SHAPE_REPRESENTATION_RELATIONSHIP( ) );
#295 =( NAMED_UNIT ( * ) PLANE_ANGLE_UNIT ( ) SI_UNIT ( $, .RADIAN. ) );
#296 = ORIENTED_EDGE ( 'NONE', *, *, #692, .T. ) ;
#297 = DATE_AND_TIME ( #65, #59 ) ;
#298 = ORIENTED_EDGE ( 'NONE', *, *, #692, .F. ) ;
#299 = COORDINATED_UNIVERSAL_TIME_OFFSET ( 10, 0, .AHEAD. ) ;
#300 = TOROIDAL_SURFACE ( 'NONE', #592, 14.49999999999971756, 4.999999999999985789 ) ;
#301 = COORDINATED_UNIVERSAL_TIME_OFFSET ( 10, 0, .AHEAD. ) ;
#302 = CC_DESIGN_SECURITY_CLASSIFICATION ( #729, ( #289 ) ) ;
#303 = PERSON_AND_ORGANIZATION_ROLE ( 'classification_officer' ) ;
#304 = CARTESIAN_POINT ( 'NONE',  ( 16.50000000000028422, 0.000000000000000000, 14.49999999999983658 ) ) ;
#305 = PERSON_AND_ORGANIZATION_ROLE ( 'classification_officer' ) ;
#306 = PRODUCT_DEFINITION_SHAPE ( 'NONE', 'NONE',  #772 ) ;
#307 = SHAPE_REPRESENTATION ( 'chain link', ( #761 ), #391 ) ;
#308 = DIRECTION ( 'NONE',  ( 0.000000000000000000, 0.000000000000000000, 1.000000000000000000 ) ) ;
#309 = CALENDAR_DATE ( 2025, 17, 8 ) ;
#310 = FACE_OUTER_BOUND ( 'NONE', #272, .T. ) ;
#311 = CIRCLE ( 'NONE', #381, 4.999999999999985789 ) ;
#312 = APPROVAL_PERSON_ORGANIZATION ( #321, #361, #650 ) ;
#313 = PERSON_AND_ORGANIZATION_ROLE ( 'creator' ) ;
#314 = DIRECTION ( 'NONE',  ( 1.000000000000000000, 0.000000000000000000, 7.143774942653930445E-15 ) ) ;
#315 = APPROVAL_ROLE ( '' ) ;
#316 = EDGE_CURVE ( 'NONE', #418, #739, #116, .T. ) ;
#317 = PERSON_AND_ORGANIZATION_ROLE ( 'design_owner' ) ;
#318 = DIRECTION ( 'NONE',  ( 1.000000000000000000, 0.000000000000000000, -1.051347561198047209E-16 ) ) ;
#319 = PERSON_AND_ORGANIZATION ( #564, #127 ) ;
#320 = APPROVAL ( #278, 'UNKNOWN' ) ;
#321 = PERSON_AND_ORGANIZATION ( #427, #434 ) ;
#322 = DIRECTION ( 'NONE',  ( -1.000000000000000000, 0.000000000000000000, -8.154418042268790825E-15 ) ) ;
#323 = DATE_AND_TIME ( #309, #286 ) ;
#324 = SECURITY_CLASSIFICATION ( '', '', #96 ) ;
#325 =( GEOMETRIC_REPRESENTATION_CONTEXT ( 3 ) GLOBAL_UNCERTAINTY_ASSIGNED_CONTEXT ( ( #551 ) ) GLOBAL_UNIT_ASSIGNED_CONTEXT ( ( #356, #295, #165 ) ) REPRESENTATION_CONTEXT ( 'NONE', 'WORKASPACE' ) );
#326 = CC_DESIGN_DATE_AND_TIME_ASSIGNMENT ( #440, #678, ( #179 ) ) ;
#327 = SECURITY_CLASSIFICATION ( '', '', #181 ) ;
#328 = APPROVAL_DATE_TIME ( #93, #397 ) ;
#329 = APPROVAL_PERSON_ORGANIZATION ( #574, #170, #334 ) ;
#330 = CARTESIAN_POINT ( 'NONE',  ( 3.641428428541805040, -25.00000000000000000, 77.04998149518631578 ) ) ;
#331 = APPROVAL_STATUS ( 'not_yet_approved' ) ;
#332 = PERSON_AND_ORGANIZATION_ROLE ( 'creator' ) ;
#333 =( REPRESENTATION_RELATIONSHIP ('NONE','NONE', #500, #307 ) REPRESENTATION_RELATIONSHIP_WITH_TRANSFORMATION ( #666 )SHAPE_REPRESENTATION_RELATIONSHIP( ) );
#334 = APPROVAL_ROLE ( '' ) ;
#335 = CYLINDRICAL_SURFACE ( 'NONE', #557, 4.999999999999986677 ) ;
#336 = APPROVAL_ROLE ( '' ) ;
#337 = TOROIDAL_SURFACE ( 'NONE', #4, 14.49999999999971756, 4.999999999999985789 ) ;
#338 = LOCAL_TIME ( 14, 52, 52.00000000000000000, #299 ) ;
#339 = CARTESIAN_POINT ( 'NONE',  ( 0.000000000000000000, 0.000000000000000000, 0.000000000000000000 ) ) ;
#340 = LOCAL_TIME ( 14, 52, 52.00000000000000000, #138 ) ;
#341 = DATE_AND_TIME ( #647, #526 ) ;
#342 = APPROVAL ( #131, 'UNSPECIFIED' ) ;
#343 = ORIENTED_EDGE ( 'NONE', *, *, #718, .T. ) ;
#344 = DATE_AND_TIME ( #459, #115 ) ;
#345 = COORDINATED_UNIVERSAL_TIME_OFFSET ( 10, 0, .AHEAD. ) ;
#346 = ORIENTED_EDGE ( 'NONE', *, *, #256, .F. ) ;
#347 = SECURITY_CLASSIFICATION_LEVEL ( 'unclassified' ) ;
#348 = EDGE_CURVE ( 'NONE', #122, #600, #379, .T. ) ;
#349 = CC_DESIGN_SECURITY_CLASSIFICATION ( #324, ( #776 ) ) ;
#350 = AXIS2_PLACEMENT_3D ( 'NONE', #758, #156, #699 ) ;
#351 = EDGE_LOOP ( 'NONE', ( #220, #520, #425, #109 ) ) ;
#352 = ORGANIZATION ( 'NAUO-ORG1', 'UNSPECIFIED', 'UNSPECIFIED' ) ;
#353 = DATE_TIME_ROLE ( 'classification_date' ) ;
#354 = LOCAL_TIME ( 14, 52, 52.00000000000000000, #400 ) ;
#355 = DATE_AND_TIME ( #414, #704 ) ;
#356 =( LENGTH_UNIT ( ) NAMED_UNIT ( * ) SI_UNIT ( .MILLI., .METRE. ) );
#357 = CC_DESIGN_PERSON_AND_ORGANIZATION_ASSIGNMENT ( #29, #332, ( #279 ) ) ;
#358 = ORIENTED_EDGE ( 'NONE', *, *, #601, .T. ) ;
#359 = CALENDAR_DATE ( 2025, 17, 8 ) ;
#360 = ITEM_DEFINED_TRANSFORMATION ( 'NONE', 'NONE', #609,  #761 ) ;
#361 = APPROVAL ( #26, 'UNSPECIFIED' ) ;
#362 = ORIENTED_EDGE ( 'NONE', *, *, #236, .T. ) ;
#363 = COORDINATED_UNIVERSAL_TIME_OFFSET ( 10, 0, .AHEAD. ) ;
#364 = APPROVAL_DATE_TIME ( #544, #432 ) ;
#365 = PERSON_AND_ORGANIZATION ( #427, #434 ) ;
#366 = CARTESIAN_POINT ( 'NONE',  ( -16.50000000000027356, 0.000000000000000000, 5.551115123125782702E-14 ) ) ;
#367 = DATE_TIME_ROLE ( 'classification_date' ) ;
#368 = AXIS2_PLACEMENT_3D ( 'NONE', #403, #218, #539 ) ;
#369 = AXIS2_PLACEMENT_3D ( 'NONE', #477, #653, #474 ) ;
#370 = COORDINATED_UNIVERSAL_TIME_OFFSET ( 10, 0, .AHEAD. ) ;
#371 = LOCAL_TIME ( 14, 52, 52.00000000000000000, #141 ) ;
#372 = PERSON ( 'NAUO-PER9', 'UNSPECIFIED', 'UNSPECIFIED', ('UNSPECIFIED'), ('UNSPECIFIED'), ('UNSPECIFIED') ) ;
#373 = PRODUCT_DEFINITION_SHAPE ( 'NONE', 'NONE',  #770 ) ;
#374 = CALENDAR_DATE ( 2025, 17, 8 ) ;
#375 = COORDINATED_UNIVERSAL_TIME_OFFSET ( 10, 0, .AHEAD. ) ;
#376 = CARTESIAN_POINT ( 'NONE',  ( -16.50000000000031264, 6.123233995736752477E-16, -9.499999999999667821 ) ) ;
#377 = DATE_AND_TIME ( #484, #633 ) ;
#378 = DIRECTION ( 'NONE',  ( 6.938893903907248099E-15, 0.000000000000000000, -1.000000000000000000 ) ) ;
#379 = CIRCLE ( 'NONE', #136, 4.999999999999986677 ) ;
#380 = ITEM_DEFINED_TRANSFORMATION ( 'NONE', 'NONE', #261,  #761 ) ;
#381 = AXIS2_PLACEMENT_3D ( 'NONE', #150, #510, #575 ) ;
#382 = APPROVAL_PERSON_ORGANIZATION ( #535, #432, #9 ) ;
#383 = CALENDAR_DATE ( 2025, 17, 8 ) ;
#384 = CARTESIAN_POINT ( 'NONE',  ( -16.50000000000024514, 6.123233995736792906E-16, 9.499999999999776179 ) ) ;
#385 = PERSON_AND_ORGANIZATION ( #427, #434 ) ;
#386 = DIRECTION ( 'NONE',  ( 1.000000000000000000, 0.000000000000000000, 0.000000000000000000 ) ) ;
#387 = COORDINATED_UNIVERSAL_TIME_OFFSET ( 10, 0, .AHEAD. ) ;
#388 = EDGE_CURVE ( 'NONE', #739, #288, #685, .T. ) ;
#389 = DIRECTION ( 'NONE',  ( -0.1373351620873480283, 0.4807692307692297273, -0.8660254037844414832 ) ) ;
#390 = APPROVAL_PERSON_ORGANIZATION ( #319, #461, #315 ) ;
#391 =( GEOMETRIC_REPRESENTATION_CONTEXT ( 3 ) GLOBAL_UNCERTAINTY_ASSIGNED_CONTEXT ( ( #239 ) ) GLOBAL_UNIT_ASSIGNED_CONTEXT ( ( #503, #395, #274 ) ) REPRESENTATION_CONTEXT ( 'NONE', 'WORKASPACE' ) );
#392 = CC_DESIGN_SECURITY_CLASSIFICATION ( #32, ( #772 ) ) ;
#393 = CC_DESIGN_APPROVAL ( #461, ( #437 ) ) ;
#394 = APPROVAL ( #290, 'UNKNOWN' ) ;
#395 =( NAMED_UNIT ( * ) PLANE_ANGLE_UNIT ( ) SI_UNIT ( $, .RADIAN. ) );
#396 = DATE_TIME_ROLE ( 'classification_date' ) ;
#397 = APPROVAL ( #563, 'UNKNOWN' ) ;
#398 = CARTESIAN_POINT ( 'NONE',  ( 16.50000000000028422, 0.000000000000000000, 1.179611963664228824E-13 ) ) ;
#399 = ADVANCED_FACE ( 'NONE', ( #748 ), #337, .T. ) ;
#400 = COORDINATED_UNIVERSAL_TIME_OFFSET ( 10, 0, .AHEAD. ) ;
#401 = PRODUCT_DEFINITION_SHAPE ( 'NONE', 'NONE',  #778 ) ;
#402 = CC_DESIGN_PERSON_AND_ORGANIZATION_ASSIGNMENT ( #589, #612, ( #224 ) ) ;
#403 = CARTESIAN_POINT ( 'NONE',  ( 159.6414284285417580, -24.99999999999939249, 347.2499074759311952 ) ) ;
#404 = LOCAL_TIME ( 14, 52, 52.00000000000000000, #406 ) ;
#405 = SECURITY_CLASSIFICATION_LEVEL ( 'unclassified' ) ;
#406 = COORDINATED_UNIVERSAL_TIME_OFFSET ( 10, 0, .AHEAD. ) ;
#407 = DIRECTION ( 'NONE',  ( 0.4999999999999981126, -7.979727989493312634E-17, 0.8660254037844397068 ) ) ;
#408 = ORIENTED_EDGE ( 'NONE', *, *, #236, .F. ) ;
#409 = COORDINATED_UNIVERSAL_TIME_OFFSET ( 10, 0, .AHEAD. ) ;
#410 = CALENDAR_DATE ( 2025, 17, 8 ) ;
#411 = DIRECTION ( 'NONE',  ( 0.8660254037844397068, -1.491862189340054101E-16, -0.4999999999999979461 ) ) ;
#412 = APPROVAL ( #530, 'UNKNOWN' ) ;
#413 = CALENDAR_DATE ( 2025, 17, 8 ) ;
#414 = CALENDAR_DATE ( 2025, 17, 8 ) ;
#415 = SECURITY_CLASSIFICATION ( '', '', #405 ) ;
#416 = CARTESIAN_POINT ( 'NONE',  ( 29.64142842854165494, -24.99999999999993250, 122.0833024919772072 ) ) ;
#417 = VECTOR ( 'NONE', #552, 1000.000000000000000 ) ;
#418 = VERTEX_POINT ( 'NONE', #669 ) ;
#419 = CC_DESIGN_SECURITY_CLASSIFICATION ( #263, ( #771 ) ) ;
#420 = COORDINATED_UNIVERSAL_TIME_OFFSET ( 10, 0, .AHEAD. ) ;
#421 = PERSON_AND_ORGANIZATION_ROLE ( 'classification_officer' ) ;
#422 =( REPRESENTATION_RELATIONSHIP ('NONE','NONE', #500, #307 ) REPRESENTATION_RELATIONSHIP_WITH_TRANSFORMATION ( #214 )SHAPE_REPRESENTATION_RELATIONSHIP( ) );
#423 = ORIENTED_EDGE ( 'NONE', *, *, #348, .T. ) ;
#424 = SHAPE_DEFINITION_REPRESENTATION ( #679, #500 ) ;
#425 = ORIENTED_EDGE ( 'NONE', *, *, #10, .T. ) ;
#426 = APPROVAL ( #738, 'UNSPECIFIED' ) ;
#427 = PERSON ( 'UNSPECIFIED', 'UNSPECIFIED', 'UNSPECIFIED', ('UNSPECIFIED'), ('UNSPECIFIED'), ('UNSPECIFIED') ) ;
#428 = CONTEXT_DEPENDENT_SHAPE_REPRESENTATION ( #719, #523 ) ;
#429 = PRODUCT_DEFINITION_SHAPE ( 'NONE', 'NONE',  #279 ) ;
#430 = APPROVAL_ROLE ( '' ) ;
#431 = ORGANIZATION ( 'NAUO-ORG8', 'UNSPECIFIED', 'UNSPECIFIED' ) ;
#432 = APPROVAL ( #57, 'UNKNOWN' ) ;
#433 = CARTESIAN_POINT ( 'NONE',  ( -16.50000000000027711, 0.000000000000000000, -19.49999999999963762 ) ) ;
#434 = ORGANIZATION ( 'UNSPECIFIED', 'UNSPECIFIED', '' ) ;
#435 = LOCAL_TIME ( 14, 52, 52.00000000000000000, #345 ) ;
#436 = CONTEXT_DEPENDENT_SHAPE_REPRESENTATION ( #253, #373 ) ;
#437 = SECURITY_CLASSIFICATION ( '', '', #602 ) ;
#438 = CARTESIAN_POINT ( 'NONE',  ( 16.50000000000029488, 6.123233995736749519E-16, 9.499999999999849010 ) ) ;
#439 = PERSON ( 'NAUO-PER10', 'UNSPECIFIED', 'UNSPECIFIED', ('UNSPECIFIED'), ('UNSPECIFIED'), ('UNSPECIFIED') ) ;
#440 = DATE_AND_TIME ( #133, #448 ) ;
#441 = LINE ( 'NONE', #438, #137 ) ;
#442 = PERSON_AND_ORGANIZATION_ROLE ( 'classification_officer' ) ;
#443 = CONTEXT_DEPENDENT_SHAPE_REPRESENTATION ( #472, #306 ) ;
#444 = PERSON_AND_ORGANIZATION ( #427, #434 ) ;
#445 = CARTESIAN_POINT ( 'NONE',  ( 16.50000000000028422, 0.000000000000000000, 14.49999999999983658 ) ) ;
#446 = DATE_TIME_ROLE ( 'classification_date' ) ;
#447 = DATE_AND_TIME ( #374, #163 ) ;
#448 = LOCAL_TIME ( 14, 52, 52.00000000000000000, #130 ) ;
#449 = LOCAL_TIME ( 14, 52, 52.00000000000000000, #504 ) ;
#450 = DATE_TIME_ROLE ( 'creation_date' ) ;
#451 = APPROVAL_ROLE ( '' ) ;
#452 = DIRECTION ( 'NONE',  ( 0.000000000000000000, 1.000000000000000000, 0.000000000000000000 ) ) ;
#453 = CALENDAR_DATE ( 2025, 17, 8 ) ;
#454 = DIRECTION ( 'NONE',  ( -1.000000000000000000, 0.000000000000000000, -2.207829878515898078E-15 ) ) ;
#455 = CC_DESIGN_PERSON_AND_ORGANIZATION_ASSIGNMENT ( #103, #159, ( #128 ) ) ;
#456 = CALENDAR_DATE ( 2025, 17, 8 ) ;
#457 = LOCAL_TIME ( 14, 52, 52.00000000000000000, #370 ) ;
#458 = CARTESIAN_POINT ( 'NONE',  ( -16.50000000000027711, 0.000000000000000000, -14.49999999999965361 ) ) ;
#459 = CALENDAR_DATE ( 2025, 17, 8 ) ;
#460 = ADVANCED_FACE ( 'NONE', ( #198 ), #72, .T. ) ;
#461 = APPROVAL ( #173, 'UNKNOWN' ) ;
#462 = DATE_AND_TIME ( #764, #354 ) ;
#463 = PERSON ( 'NAUO-PER11', 'UNSPECIFIED', 'UNSPECIFIED', ('UNSPECIFIED'), ('UNSPECIFIED'), ('UNSPECIFIED') ) ;
#464 = PERSON_AND_ORGANIZATION_ROLE ( 'classification_officer' ) ;
#465 = PERSON_AND_ORGANIZATION_ROLE ( 'design_supplier' ) ;
#466 = ORGANIZATION ( 'NAUO-ORG11', 'UNSPECIFIED', 'UNSPECIFIED' ) ;
#467 = AXIS2_PLACEMENT_3D ( 'NONE', #280, #160, #660 ) ;
#468 = SECURITY_CLASSIFICATION_LEVEL ( 'unclassified' ) ;
#469 = CC_DESIGN_APPROVAL ( #397, ( #688 ) ) ;
#470 = ORIENTED_EDGE ( 'NONE', *, *, #10, .F. ) ;
#471 = ADVANCED_FACE ( 'NONE', ( #195 ), #300, .T. ) ;
#472 =( REPRESENTATION_RELATIONSHIP ('NONE','NONE', #500, #307 ) REPRESENTATION_RELATIONSHIP_WITH_TRANSFORMATION ( #360 )SHAPE_REPRESENTATION_RELATIONSHIP( ) );
#473 = SHAPE_DEFINITION_REPRESENTATION ( #429, #307 ) ;
#474 = DIRECTION ( 'NONE',  ( 0.4999999999999998335, 1.387778780781445521E-17, 0.8660254037844387076 ) ) ;
#475 = ORIENTED_EDGE ( 'NONE', *, *, #256, .T. ) ;
#476 = DATE_AND_TIME ( #228, #624 ) ;
#477 = CARTESIAN_POINT ( 'NONE',  ( 133.6414284285416159, -24.99999999999952749, 302.2165864791404601 ) ) ;
#478 = TOROIDAL_SURFACE ( 'NONE', #175, 14.49999999999970690, 4.999999999999985789 ) ;
#479 = DIRECTION ( 'NONE',  ( -1.895741069380449915E-17, 1.000000000000000000, -5.079622885990048556E-18 ) ) ;
#480 = AXIS2_PLACEMENT_3D ( 'NONE', #277, #766, #386 ) ;
#481 = LOCAL_TIME ( 14, 52, 52.00000000000000000, #690 ) ;
#482 = DATE_AND_TIME ( #717, #338 ) ;
#483 = EDGE_CURVE ( 'NONE', #606, #600, #241, .T. ) ;
#484 = CALENDAR_DATE ( 2025, 17, 8 ) ;
#485 = ORIENTED_EDGE ( 'NONE', *, *, #348, .F. ) ;
#486 = PERSON_AND_ORGANIZATION ( #439, #595 ) ;
#487 = PERSON_AND_ORGANIZATION_ROLE ( 'creator' ) ;
#488 = DIRECTION ( 'NONE',  ( 0.000000000000000000, 0.000000000000000000, -1.000000000000000000 ) ) ;
#489 = COORDINATED_UNIVERSAL_TIME_OFFSET ( 10, 0, .AHEAD. ) ;
#490 = APPLICATION_PROTOCOL_DEFINITION ( 'international standard', 'config_control_design', 1994, #209 ) ;
#491 = CARTESIAN_POINT ( 'NONE',  ( -16.50000000000027356, 0.000000000000000000, 5.551115123125782702E-14 ) ) ;
#492 = LOCAL_TIME ( 14, 52, 52.00000000000000000, #684 ) ;
#493 = CC_DESIGN_APPROVAL ( #755, ( #279 ) ) ;
#494 =( REPRESENTATION_RELATIONSHIP ('NONE','NONE', #500, #307 ) REPRESENTATION_RELATIONSHIP_WITH_TRANSFORMATION ( #733 )SHAPE_REPRESENTATION_RELATIONSHIP( ) );
#495 = LINE ( 'NONE', #433, #622 ) ;
#496 = COORDINATED_UNIVERSAL_TIME_OFFSET ( 10, 0, .AHEAD. ) ;
#497 = DATE_AND_TIME ( #217, #178 ) ;
#498 = DIRECTION ( 'NONE',  ( 0.000000000000000000, 1.000000000000000000, 0.000000000000000000 ) ) ;
#499 = AXIS2_PLACEMENT_3D ( 'NONE', #90, #565, #31 ) ;
#500 = SHAPE_REPRESENTATION ( '4177-35-CHAIN_REV_1', ( #5, #499, #513, #161, #609, #261, #368, #176, #566, #467, #369, #30, #737 ), #325 ) ;
#501 = CC_DESIGN_APPROVAL ( #184, ( #289 ) ) ;
#502 = CALENDAR_DATE ( 2025, 17, 8 ) ;
#503 =( LENGTH_UNIT ( ) NAMED_UNIT ( * ) SI_UNIT ( .MILLI., .METRE. ) );
#504 = COORDINATED_UNIVERSAL_TIME_OFFSET ( 10, 0, .AHEAD. ) ;
#505 = CC_DESIGN_DATE_AND_TIME_ASSIGNMENT ( #107, #706, ( #415 ) ) ;
#506 = DIRECTION ( 'NONE',  ( 0.8660254037844397068, -1.491862189340054101E-16, -0.4999999999999979461 ) ) ;
#507 = CC_DESIGN_PERSON_AND_ORGANIZATION_ASSIGNMENT ( #50, #518, ( #729 ) ) ;
#508 = ADVANCED_FACE ( 'NONE', ( #245 ), #247, .T. ) ;
#509 = APPROVAL_DATE_TIME ( #341, #749 ) ;
#510 = DIRECTION ( 'NONE',  ( 1.000000000000000000, 0.000000000000000000, 7.143774942653930445E-15 ) ) ;
#511 = CONTEXT_DEPENDENT_SHAPE_REPRESENTATION ( #199, #615 ) ;
#512 = SECURITY_CLASSIFICATION ( '', '', #67 ) ;
#513 = AXIS2_PLACEMENT_3D ( 'NONE', #265, #753, #389 ) ;
#514 = CC_DESIGN_SECURITY_CLASSIFICATION ( #128, ( #773 ) ) ;
#515 = COORDINATED_UNIVERSAL_TIME_OFFSET ( 10, 0, .AHEAD. ) ;
#516 = CARTESIAN_POINT ( 'NONE',  ( 16.50000000000028422, 0.000000000000000000, 14.49999999999983658 ) ) ;
#517 = COORDINATED_UNIVERSAL_TIME_OFFSET ( 10, 0, .AHEAD. ) ;
#518 = PERSON_AND_ORGANIZATION_ROLE ( 'classification_officer' ) ;
#519 = EDGE_CURVE ( 'NONE', #418, #122, #441, .T. ) ;
#520 = ORIENTED_EDGE ( 'NONE', *, *, #652, .T. ) ;
#521 = PERSON_AND_ORGANIZATION ( #222, #81 ) ;
#522 = CALENDAR_DATE ( 2025, 17, 8 ) ;
#523 = PRODUCT_DEFINITION_SHAPE ( 'NONE', 'NONE',  #777 ) ;
#524 = APPROVAL_PERSON_ORGANIZATION ( #521, #320, #283 ) ;
#525 = APPROVAL_PERSON_ORGANIZATION ( #83, #342, #681 ) ;
#526 = LOCAL_TIME ( 14, 52, 52.00000000000000000, #640 ) ;
#527 = DIRECTION ( 'NONE',  ( 1.000000000000000000, 0.000000000000000000, 0.000000000000000000 ) ) ;
#528 = LOCAL_TIME ( 14, 52, 52.00000000000000000, #409 ) ;
#529 = ORIENTED_EDGE ( 'NONE', *, *, #206, .F. ) ;
#530 = APPROVAL_STATUS ( 'not_yet_approved' ) ;
#531 = APPROVAL ( #258, 'UNKNOWN' ) ;
#532 = DIRECTION ( 'NONE',  ( -1.895741069380449915E-17, 1.000000000000000000, -5.079622885990048556E-18 ) ) ;
#533 = EDGE_LOOP ( 'NONE', ( #298, #358, #362, #48 ) ) ;
#534 = CONTEXT_DEPENDENT_SHAPE_REPRESENTATION ( #237, #53 ) ;
#535 = PERSON_AND_ORGANIZATION ( #757, #151 ) ;
#536 = PERSON ( 'NAUO-PER6', 'UNSPECIFIED', 'UNSPECIFIED', ('UNSPECIFIED'), ('UNSPECIFIED'), ('UNSPECIFIED') ) ;
#537 = ORIENTED_EDGE ( 'NONE', *, *, #652, .F. ) ;
#538 = PRODUCT_DEFINITION_SHAPE ( 'NONE', 'NONE',  #771 ) ;
#539 = DIRECTION ( 'NONE',  ( 0.4999999999999981126, -7.979727989493312634E-17, 0.8660254037844397068 ) ) ;
#540 = AXIS2_PLACEMENT_3D ( 'NONE', #39, #322, #629 ) ;
#541 = LOCAL_TIME ( 14, 52, 52.00000000000000000, #301 ) ;
#542 = CALENDAR_DATE ( 2025, 17, 8 ) ;
#543 = CC_DESIGN_DATE_AND_TIME_ASSIGNMENT ( #482, #73, ( #512 ) ) ;
#544 = DATE_AND_TIME ( #603, #541 ) ;
#545 = PRODUCT ( 'chain link', 'chain link', '', ( #549 ) ) ;
#546 = DIRECTION ( 'NONE',  ( -1.000000000000000000, 0.000000000000000000, -2.207829878515898078E-15 ) ) ;
#547 = CONTEXT_DEPENDENT_SHAPE_REPRESENTATION ( #333, #401 ) ;
#548 = PERSON ( 'NAUO-PER3', 'UNSPECIFIED', 'UNSPECIFIED', ('UNSPECIFIED'), ('UNSPECIFIED'), ('UNSPECIFIED') ) ;
#549 = MECHANICAL_CONTEXT ( 'NONE', #634, 'mechanical' ) ;
#550 = CC_DESIGN_PERSON_AND_ORGANIZATION_ASSIGNMENT ( #444, #487, ( #179 ) ) ;
#551 = UNCERTAINTY_MEASURE_WITH_UNIT (LENGTH_MEASURE( 1.000000000000000082E-05 ), #356, 'distance_accuracy_value', 'NONE');
#552 = DIRECTION ( 'NONE',  ( -1.000000000000000000, 0.000000000000000000, -2.207829878515898078E-15 ) ) ;
#553 = CC_DESIGN_DATE_AND_TIME_ASSIGNMENT ( #297, #446, ( #437 ) ) ;
#554 = APPROVAL_DATE_TIME ( #620, #426 ) ;
#555 = CC_DESIGN_SECURITY_CLASSIFICATION ( #415, ( #775 ) ) ;
#556 = DIRECTION ( 'NONE',  ( 0.000000000000000000, 1.000000000000000000, 0.000000000000000000 ) ) ;
#557 = AXIS2_PLACEMENT_3D ( 'NONE', #516, #454, #267 ) ;
#558 = ORGANIZATION ( 'NAUO-ORG5', 'UNSPECIFIED', 'UNSPECIFIED' ) ;
#559 = SECURITY_CLASSIFICATION_LEVEL ( 'unclassified' ) ;
#560 = DIRECTION ( 'NONE',  ( -8.326672684688696141E-15, 0.000000000000000000, 1.000000000000000000 ) ) ;
#561 = APPROVAL_STATUS ( 'not_yet_approved' ) ;
#562 = DIRECTION ( 'NONE',  ( 1.000000000000000000, 0.000000000000000000, 7.143774942653930445E-15 ) ) ;
#563 = APPROVAL_STATUS ( 'not_yet_approved' ) ;
#564 = PERSON ( 'NAUO-PER12', 'UNSPECIFIED', 'UNSPECIFIED', ('UNSPECIFIED'), ('UNSPECIFIED'), ('UNSPECIFIED') ) ;
#565 = DIRECTION ( 'NONE',  ( 0.000000000000000000, 0.000000000000000000, 1.000000000000000000 ) ) ;
#566 = AXIS2_PLACEMENT_3D ( 'NONE', #416, #479, #594 ) ;
#567 = CC_DESIGN_APPROVAL ( #23, ( #56 ) ) ;
#568 = CC_DESIGN_SECURITY_CLASSIFICATION ( #224, ( #777 ) ) ;
#569 = PERSON_AND_ORGANIZATION_ROLE ( 'classification_officer' ) ;
#570 = DIRECTION ( 'NONE',  ( 0.8660254037844397068, -1.491862189340054101E-16, -0.4999999999999979461 ) ) ;
#571 = COORDINATED_UNIVERSAL_TIME_OFFSET ( 10, 0, .AHEAD. ) ;
#572 = PERSON_AND_ORGANIZATION_ROLE ( 'creator' ) ;
#573 = CC_DESIGN_PERSON_AND_ORGANIZATION_ASSIGNMENT ( #11, #317, ( #61 ) ) ;
#574 = PERSON_AND_ORGANIZATION ( #695, #431 ) ;
#575 = DIRECTION ( 'NONE',  ( 6.938893903907248099E-15, 0.000000000000000000, -1.000000000000000000 ) ) ;
#576 = CC_DESIGN_DATE_AND_TIME_ASSIGNMENT ( #497, #450, ( #279 ) ) ;
#577 = CALENDAR_DATE ( 2025, 17, 8 ) ;
#578 = APPROVAL_PERSON_ORGANIZATION ( #385, #755, #628 ) ;
#579 = AXIS2_PLACEMENT_3D ( 'NONE', #745, #686, #378 ) ;
#580 = CIRCLE ( 'NONE', #713, 19.49999999999970512 ) ;
#581 = APPROVAL_PERSON_ORGANIZATION ( #210, #749, #276 ) ;
#582 = PRODUCT_RELATED_PRODUCT_CATEGORY ( 'detail', '', ( #545 ) ) ;
#583 = ADVANCED_BREP_SHAPE_REPRESENTATION ( '', ( #765, #761 ), #391 ) ;
#584 = PRODUCT_DEFINITION_SHAPE ( 'NONE', 'NONE',  #776 ) ;
#585 = VERTEX_POINT ( 'NONE', #376 ) ;
#586 = DATE_AND_TIME ( #767, #117 ) ;
#587 = APPROVAL_DATE_TIME ( #754, #755 ) ;
#588 = APPLICATION_CONTEXT ( 'configuration controlled 3d designs of mechanical parts and assemblies' ) ;
#589 = PERSON_AND_ORGANIZATION ( #372, #41 ) ;
#590 = LOCAL_TIME ( 14, 52, 52.00000000000000000, #191 ) ;
#591 = AXIS2_PLACEMENT_3D ( 'NONE', #610, #314, #626 ) ;
#592 = AXIS2_PLACEMENT_3D ( 'NONE', #189, #75, #308 ) ;
#593 = APPROVAL_PERSON_ORGANIZATION ( #103, #63, #336 ) ;
#594 = DIRECTION ( 'NONE',  ( 0.4999999999999998335, 1.387778780781445521E-17, 0.8660254037844387076 ) ) ;
#595 = ORGANIZATION ( 'NAUO-ORG10', 'UNSPECIFIED', 'UNSPECIFIED' ) ;
#596 = CARTESIAN_POINT ( 'NONE',  ( -16.50000000000027711, 0.000000000000000000, -14.49999999999965361 ) ) ;
#597 = PERSON_AND_ORGANIZATION_ROLE ( 'classification_officer' ) ;
#598 = APPROVAL_DATE_TIME ( #355, #125 ) ;
#599 = DIRECTION ( 'NONE',  ( 0.4999999999999998335, 1.387778780781445521E-17, 0.8660254037844387076 ) ) ;
#600 = VERTEX_POINT ( 'NONE', #85 ) ;
#601 = EDGE_CURVE ( 'NONE', #606, #288, #580, .T. ) ;
#602 = SECURITY_CLASSIFICATION_LEVEL ( 'unclassified' ) ;
#603 = CALENDAR_DATE ( 2025, 17, 8 ) ;
#604 = DIRECTION ( 'NONE',  ( 0.4999999999999981126, -7.979727989493312634E-17, 0.8660254037844397068 ) ) ;
#605 = CC_DESIGN_DATE_AND_TIME_ASSIGNMENT ( #586, #756, ( #128 ) ) ;
#606 = VERTEX_POINT ( 'NONE', #205 ) ;
#607 = APPROVAL_DATE_TIME ( #649, #680 ) ;
#608 = COORDINATED_UNIVERSAL_TIME_OFFSET ( 10, 0, .AHEAD. ) ;
#609 = AXIS2_PLACEMENT_3D ( 'NONE', #208, #506, #407 ) ;
#610 = CARTESIAN_POINT ( 'NONE',  ( -16.50000000000027711, 0.000000000000000000, -14.49999999999965361 ) ) ;
#611 = CC_DESIGN_APPROVAL ( #432, ( #327 ) ) ;
#612 = PERSON_AND_ORGANIZATION_ROLE ( 'classification_officer' ) ;
#613 = APPROVAL_STATUS ( 'not_yet_approved' ) ;
#614 = DATE_TIME_ROLE ( 'classification_date' ) ;
#615 = PRODUCT_DEFINITION_SHAPE ( 'NONE', 'NONE',  #774 ) ;
#616 = DIRECTION ( 'NONE',  ( -0.000000000000000000, -1.000000000000000000, -0.000000000000000000 ) ) ;
#617 = PERSON_AND_ORGANIZATION ( #105, #21 ) ;
#618 = PERSON_AND_ORGANIZATION ( #427, #434 ) ;
#619 = DIRECTION ( 'NONE',  ( 6.938893903907248099E-15, 0.000000000000000000, -1.000000000000000000 ) ) ;
#620 = DATE_AND_TIME ( #197, #273 ) ;
#621 = LOCAL_TIME ( 14, 52, 52.00000000000000000, #722 ) ;
#622 = VECTOR ( 'NONE', #16, 1000.000000000000000 ) ;
#623 = CARTESIAN_POINT ( 'NONE',  ( 16.50000000000027356, 0.000000000000000000, 19.49999999999982236 ) ) ;
#624 = LOCAL_TIME ( 14, 52, 52.00000000000000000, #676 ) ;
#625 = APPROVAL_DATE_TIME ( #377, #342 ) ;
#626 = DIRECTION ( 'NONE',  ( 6.938893903907248099E-15, 0.000000000000000000, -1.000000000000000000 ) ) ;
#627 = CALENDAR_DATE ( 2025, 17, 8 ) ;
#628 = APPROVAL_ROLE ( '' ) ;
#629 = DIRECTION ( 'NONE',  ( -8.326672684688696141E-15, 0.000000000000000000, 1.000000000000000000 ) ) ;
#630 = APPROVAL_ROLE ( '' ) ;
#631 = CARTESIAN_POINT ( 'NONE',  ( -16.50000000000024514, 0.000000000000000000, -19.49999999999963762 ) ) ;
#632 = APPROVAL_PERSON_ORGANIZATION ( #114, #412, #655 ) ;
#633 = LOCAL_TIME ( 14, 52, 52.00000000000000000, #375 ) ;
#634 = APPLICATION_CONTEXT ( 'configuration controlled 3d designs of mechanical parts and assemblies' ) ;
#635 = CC_DESIGN_APPROVAL ( #63, ( #128 ) ) ;
#636 = DATE_TIME_ROLE ( 'classification_date' ) ;
#637 = DIRECTION ( 'NONE',  ( 1.000000000000000000, 0.000000000000000000, -1.051347561198047209E-16 ) ) ;
#638 = CC_DESIGN_PERSON_AND_ORGANIZATION_ASSIGNMENT ( #114, #597, ( #18 ) ) ;
#639 = DATE_AND_TIME ( #456, #92 ) ;
#640 = COORDINATED_UNIVERSAL_TIME_OFFSET ( 10, 0, .AHEAD. ) ;
#641 = SHAPE_REPRESENTATION_RELATIONSHIP ( 'NONE' , 'NONE' ,  #307, #583 ) ;
#642 = PERSON ( 'NAUO-PER1', 'UNSPECIFIED', 'UNSPECIFIED', ('UNSPECIFIED'), ('UNSPECIFIED'), ('UNSPECIFIED') ) ;
#643 = PRODUCT_DEFINITION_SHAPE ( 'NONE', 'NONE',  #780 ) ;
#644 = SECURITY_CLASSIFICATION_LEVEL ( 'unclassified' ) ;
#645 = CC_DESIGN_SECURITY_CLASSIFICATION ( #56, ( #94 ) ) ;
#646 = CARTESIAN_POINT ( 'NONE',  ( 237.6414284285415874, -24.99999999999912248, 482.3498704663037415 ) ) ;
#647 = CALENDAR_DATE ( 2025, 17, 8 ) ;
#648 = ITEM_DEFINED_TRANSFORMATION ( 'NONE', 'NONE', #499,  #761 ) ;
#649 = DATE_AND_TIME ( #413, #135 ) ;
#650 = APPROVAL_ROLE ( '' ) ;
#651 = CC_DESIGN_PERSON_AND_ORGANIZATION_ASSIGNMENT ( #714, #572, ( #289 ) ) ;
#652 = EDGE_CURVE ( 'NONE', #600, #122, #42, .T. ) ;
#653 = DIRECTION ( 'NONE',  ( -1.895741069380449915E-17, 1.000000000000000000, -5.079622885990048556E-18 ) ) ;
#654 = EDGE_LOOP ( 'NONE', ( #52, #475, #119, #485 ) ) ;
#655 = APPROVAL_ROLE ( '' ) ;
#656 = LOCAL_TIME ( 14, 52, 52.00000000000000000, #571 ) ;
#657 = CIRCLE ( 'NONE', #260, 4.999999999999985789 ) ;
#658 = CIRCLE ( 'NONE', #540, 4.999999999999986677 ) ;
#659 = CC_DESIGN_APPROVAL ( #680, ( #224 ) ) ;
#660 = DIRECTION ( 'NONE',  ( 0.4999999999999998335, 1.387778780781445521E-17, 0.8660254037844387076 ) ) ;
#661 = DATE_AND_TIME ( #359, #528 ) ;
#662 = PERSON_AND_ORGANIZATION_ROLE ( 'classification_officer' ) ;
#663 = CC_DESIGN_DATE_AND_TIME_ASSIGNMENT ( #293, #74, ( #327 ) ) ;
#664 = DIRECTION ( 'NONE',  ( 0.4999999999999998335, 1.387778780781445521E-17, 0.8660254037844387076 ) ) ;
#665 = EDGE_LOOP ( 'NONE', ( #423, #343, #232, #470 ) ) ;
#666 = ITEM_DEFINED_TRANSFORMATION ( 'NONE', 'NONE', #369,  #761 ) ;
#667 = CALENDAR_DATE ( 2025, 17, 8 ) ;
#668 = PERSON_AND_ORGANIZATION ( #427, #434 ) ;
#669 = CARTESIAN_POINT ( 'NONE',  ( 16.50000000000032685, 6.123233995736748533E-16, 9.499999999999849010 ) ) ;
#670 = COORDINATED_UNIVERSAL_TIME_OFFSET ( 10, 0, .AHEAD. ) ;
#671 = CC_DESIGN_APPROVAL ( #320, ( #415 ) ) ;
#672 = APPLICATION_PROTOCOL_DEFINITION ( 'international standard', 'config_control_design', 1994, #634 ) ;
#673 = CC_DESIGN_APPROVAL ( #125, ( #263 ) ) ;
#674 = DIRECTION ( 'NONE',  ( -1.000000000000000000, 0.000000000000000000, -8.154418042268790825E-15 ) ) ;
#675 = PERSON_AND_ORGANIZATION_ROLE ( 'classification_officer' ) ;
#676 = COORDINATED_UNIVERSAL_TIME_OFFSET ( 10, 0, .AHEAD. ) ;
#677 =( REPRESENTATION_RELATIONSHIP ('NONE','NONE', #500, #307 ) REPRESENTATION_RELATIONSHIP_WITH_TRANSFORMATION ( #380 )SHAPE_REPRESENTATION_RELATIONSHIP( ) );
#678 = DATE_TIME_ROLE ( 'creation_date' ) ;
#679 = PRODUCT_DEFINITION_SHAPE ( 'NONE', 'NONE',  #179 ) ;
#680 = APPROVAL ( #730, 'UNKNOWN' ) ;
#681 = APPROVAL_ROLE ( '' ) ;
#682 = CARTESIAN_POINT ( 'NONE',  ( -16.50000000000027711, 6.123233995736749519E-16, -9.499999999999667821 ) ) ;
#683 = SECURITY_CLASSIFICATION_LEVEL ( 'unclassified' ) ;
#684 = COORDINATED_UNIVERSAL_TIME_OFFSET ( 10, 0, .AHEAD. ) ;
#685 = CIRCLE ( 'NONE', #579, 4.999999999999985789 ) ;
#686 = DIRECTION ( 'NONE',  ( 1.000000000000000000, 0.000000000000000000, 7.143774942653930445E-15 ) ) ;
#687 = AXIS2_PLACEMENT_3D ( 'NONE', #101, #142, #145 ) ;
#688 = SECURITY_CLASSIFICATION ( '', '', #108 ) ;
#689 = APPROVAL_DATE_TIME ( #447, #531 ) ;
#690 = COORDINATED_UNIVERSAL_TIME_OFFSET ( 10, 0, .AHEAD. ) ;
#691 = CC_DESIGN_DATE_AND_TIME_ASSIGNMENT ( #60, #367, ( #224 ) ) ;
#692 = EDGE_CURVE ( 'NONE', #606, #418, #658, .T. ) ;
#693 = PERSON_AND_ORGANIZATION ( #642, #352 ) ;
#694 = FACE_OUTER_BOUND ( 'NONE', #166, .T. ) ;
#695 = PERSON ( 'NAUO-PER8', 'UNSPECIFIED', 'UNSPECIFIED', ('UNSPECIFIED'), ('UNSPECIFIED'), ('UNSPECIFIED') ) ;
#696 = CONTEXT_DEPENDENT_SHAPE_REPRESENTATION ( #422, #244 ) ;
#697 = ADVANCED_FACE ( 'NONE', ( #270 ), #335, .T. ) ;
#698 = DATE_AND_TIME ( #89, #404 ) ;
#699 = DIRECTION ( 'NONE',  ( 0.000000000000000000, 0.000000000000000000, -1.000000000000000000 ) ) ;
#700 = APPROVAL_PERSON_ORGANIZATION ( #589, #680, #233 ) ;
#701 = AXIS2_PLACEMENT_3D ( 'NONE', #25, #498, #750 ) ;
#702 = CC_DESIGN_APPROVAL ( #342, ( #94 ) ) ;
#703 = CALENDAR_DATE ( 2025, 17, 8 ) ;
#704 = LOCAL_TIME ( 14, 52, 52.00000000000000000, #171 ) ;
#705 = DIRECTION ( 'NONE',  ( 0.000000000000000000, 0.000000000000000000, 1.000000000000000000 ) ) ;
#706 = DATE_TIME_ROLE ( 'classification_date' ) ;
#707 = DIRECTION ( 'NONE',  ( 1.000000000000000000, 0.000000000000000000, 0.000000000000000000 ) ) ;
#708 = CC_DESIGN_DATE_AND_TIME_ASSIGNMENT ( #148, #636, ( #688 ) ) ;
#709 = CARTESIAN_POINT ( 'NONE',  ( 107.6414284285417722, -24.99999999999959499, 257.1832654823495545 ) ) ;
#710 = CC_DESIGN_PERSON_AND_ORGANIZATION_ASSIGNMENT ( #668, #71, ( #545 ) ) ;
#711 = APPROVAL_DATE_TIME ( #154, #63 ) ;
#712 = CIRCLE ( 'NONE', #246, 4.999999999999986677 ) ;
#713 = AXIS2_PLACEMENT_3D ( 'NONE', #398, #452, #705 ) ;
#714 = PERSON_AND_ORGANIZATION ( #427, #434 ) ;
#715 = ORGANIZATION ( 'NAUO-ORG3', 'UNSPECIFIED', 'UNSPECIFIED' ) ;
#716 = ORIENTED_EDGE ( 'NONE', *, *, #91, .F. ) ;
#717 = CALENDAR_DATE ( 2025, 17, 8 ) ;
#718 = EDGE_CURVE ( 'NONE', #600, #721, #200, .T. ) ;
#719 =( REPRESENTATION_RELATIONSHIP ('NONE','NONE', #500, #307 ) REPRESENTATION_RELATIONSHIP_WITH_TRANSFORMATION ( #110 )SHAPE_REPRESENTATION_RELATIONSHIP( ) );
#720 = APPLICATION_PROTOCOL_DEFINITION ( 'international standard', 'config_control_design', 1994, #87 ) ;
#721 = VERTEX_POINT ( 'NONE', #631 ) ;
#722 = COORDINATED_UNIVERSAL_TIME_OFFSET ( 10, 0, .AHEAD. ) ;
#723 = SECURITY_CLASSIFICATION_LEVEL ( 'unclassified' ) ;
#724 = PRODUCT_DEFINITION_SHAPE ( 'NONE', 'NONE',  #769 ) ;
#725 = ORIENTED_EDGE ( 'NONE', *, *, #187, .T. ) ;
#726 = PERSON_AND_ORGANIZATION ( #548, #715 ) ;
#727 = VECTOR ( 'NONE', #318, 1000.000000000000000 ) ;
#728 = APPROVAL_PERSON_ORGANIZATION ( #77, #426, #747 ) ;
#729 = SECURITY_CLASSIFICATION ( '', '', #468 ) ;
#730 = APPROVAL_STATUS ( 'not_yet_approved' ) ;
#731 = ORIENTED_EDGE ( 'NONE', *, *, #91, .T. ) ;
#732 = DATE_AND_TIME ( #542, #621 ) ;
#733 = ITEM_DEFINED_TRANSFORMATION ( 'NONE', 'NONE', #161,  #761 ) ;
#734 = DIRECTION ( 'NONE',  ( 1.000000000000000000, 0.000000000000000000, -1.051347561198047209E-16 ) ) ;
#735 = APPROVAL_PERSON_ORGANIZATION ( #486, #394, #238 ) ;
#736 = CIRCLE ( 'NONE', #55, 9.499999999999721112 ) ;
#737 = AXIS2_PLACEMENT_3D ( 'NONE', #646, #532, #599 ) ;
#738 = APPROVAL_STATUS ( 'not_yet_approved' ) ;
#739 = VERTEX_POINT ( 'NONE', #158 ) ;
#740 = CC_DESIGN_PERSON_AND_ORGANIZATION_ASSIGNMENT ( #726, #421, ( #263 ) ) ;
#741 = DIRECTION ( 'NONE',  ( -0.000000000000000000, -1.000000000000000000, -0.000000000000000000 ) ) ;
#742 = LOCAL_TIME ( 14, 52, 52.00000000000000000, #517 ) ;
#743 = ADVANCED_FACE ( 'NONE', ( #694 ), #212, .T. ) ;
#744 = APPLICATION_PROTOCOL_DEFINITION ( 'international standard', 'config_control_design', 1994, #588 ) ;
#745 = CARTESIAN_POINT ( 'NONE',  ( 16.50000000000027711, 0.000000000000000000, -14.49999999999965716 ) ) ;
#746 = PERSON_AND_ORGANIZATION_ROLE ( 'classification_officer' ) ;
#747 = APPROVAL_ROLE ( '' ) ;
#748 = FACE_OUTER_BOUND ( 'NONE', #1, .T. ) ;
#749 = APPROVAL ( #223, 'UNKNOWN' ) ;
#750 = DIRECTION ( 'NONE',  ( 0.000000000000000000, 0.000000000000000000, 1.000000000000000000 ) ) ;
#751 = CONTEXT_DEPENDENT_SHAPE_REPRESENTATION ( #294, #643 ) ;
#752 = APPROVAL_DATE_TIME ( #164, #361 ) ;
#753 = DIRECTION ( 'NONE',  ( -0.07529991889412068762, -0.8768471627060006046, -0.4748357352484917637 ) ) ;
#754 = DATE_AND_TIME ( #410, #371 ) ;
#755 = APPROVAL ( #561, 'UNSPECIFIED' ) ;
#756 = DATE_TIME_ROLE ( 'classification_date' ) ;
#757 = PERSON ( 'NAUO-PER2', 'UNSPECIFIED', 'UNSPECIFIED', ('UNSPECIFIED'), ('UNSPECIFIED'), ('UNSPECIFIED') ) ;
#758 = CARTESIAN_POINT ( 'NONE',  ( -16.50000000000027356, 0.000000000000000000, 5.551115123125782702E-14 ) ) ;
#759 = CC_DESIGN_APPROVAL ( #170, ( #324 ) ) ;
#760 = CC_DESIGN_DATE_AND_TIME_ASSIGNMENT ( #462, #762, ( #249 ) ) ;
#761 = AXIS2_PLACEMENT_3D ( 'NONE', #339, #215, #707 ) ;
#762 = DATE_TIME_ROLE ( 'classification_date' ) ;
#763 = CC_DESIGN_SECURITY_CLASSIFICATION ( #688, ( #769 ) ) ;
#764 = CALENDAR_DATE ( 2025, 17, 8 ) ;
#765 = MANIFOLD_SOLID_BREP ( 'Sweep1', #102 ) ;
#766 = DIRECTION ( 'NONE',  ( 0.000000000000000000, 0.000000000000000000, 1.000000000000000000 ) ) ;
#767 = CALENDAR_DATE ( 2025, 17, 8 ) ;
#768 = APPROVAL_DATE_TIME ( #292, #412 ) ;
#769 = NEXT_ASSEMBLY_USAGE_OCCURRENCE ( 'NAUO1', ' ', ' ', #179, #279, $ ) ;
#770 = NEXT_ASSEMBLY_USAGE_OCCURRENCE ( 'NAUO2', ' ', ' ', #179, #279, $ ) ;
#771 = NEXT_ASSEMBLY_USAGE_OCCURRENCE ( 'NAUO3', ' ', ' ', #179, #279, $ ) ;
#772 = NEXT_ASSEMBLY_USAGE_OCCURRENCE ( 'NAUO4', ' ', ' ', #179, #279, $ ) ;
#773 = NEXT_ASSEMBLY_USAGE_OCCURRENCE ( 'NAUO5', ' ', ' ', #179, #279, $ ) ;
#774 = NEXT_ASSEMBLY_USAGE_OCCURRENCE ( 'NAUO6', ' ', ' ', #179, #279, $ ) ;
#775 = NEXT_ASSEMBLY_USAGE_OCCURRENCE ( 'NAUO7', ' ', ' ', #179, #279, $ ) ;
#776 = NEXT_ASSEMBLY_USAGE_OCCURRENCE ( 'NAUO8', ' ', ' ', #179, #279, $ ) ;
#777 = NEXT_ASSEMBLY_USAGE_OCCURRENCE ( 'NAUO9', ' ', ' ', #179, #279, $ ) ;
#778 = NEXT_ASSEMBLY_USAGE_OCCURRENCE ( 'NAUO10', ' ', ' ', #179, #279, $ ) ;
#779 = NEXT_ASSEMBLY_USAGE_OCCURRENCE ( 'NAUO11', ' ', ' ', #179, #279, $ ) ;
#780 = NEXT_ASSEMBLY_USAGE_OCCURRENCE ( 'NAUO12', ' ', ' ', #179, #279, $ ) ;
ENDSEC;
END-ISO-10303-21;
