ISO-10303-21;
HEADER;
FILE_DESCRIPTION (( 'STEP AP203' ),
    '1' );
FILE_NAME ('ADR-VIN-PLATE_REV_A.step',
    '2025-08-17T04:49:50',
    ( '' ),
    ( '' ),
    'SwSTEP 2.0',
    'SolidWorks 2024',
    '' );
FILE_SCHEMA (( 'CONFIG_CONTROL_DESIGN' ));
ENDSEC;

DATA;
#1 = VECTOR ( 'NONE', #467, 1000.000000000000000 ) ;
#2 = CC_DESIGN_DATE_AND_TIME_ASSIGNMENT ( #159, #119, ( #471 ) ) ;
#3 = DIRECTION ( 'NONE',  ( 0.000000000000000000, -0.000000000000000000, -1.000000000000000000 ) ) ;
#4 = DIRECTION ( 'NONE',  ( 0.000000000000000000, -0.000000000000000000, -1.000000000000000000 ) ) ;
#5 = VERTEX_POINT ( 'NONE', #419 ) ;
#6 = CARTESIAN_POINT ( 'NONE',  ( 7.835620682842908913, 1.000000000000000000, 12.53699309254865568 ) ) ;
#7 = EDGE_CURVE ( 'NONE', #114, #217, #601, .T. ) ;
#8 = FACE_BOUND ( 'NONE', #192, .T. ) ;
#9 = DIRECTION ( 'NONE',  ( -1.000000000000000000, 0.000000000000000000, 0.000000000000000000 ) ) ;
#10 = APPROVAL_STATUS ( 'not_yet_approved' ) ;
#11 = ORIENTED_EDGE ( 'NONE', *, *, #248, .F. ) ;
#12 = VECTOR ( 'NONE', #286, 1000.000000000000000 ) ;
#13 = DIRECTION ( 'NONE',  ( 1.000000000000000000, 0.000000000000000000, 0.000000000000000000 ) ) ;
#14 = FACE_OUTER_BOUND ( 'NONE', #451, .T. ) ;
#15 = COORDINATED_UNIVERSAL_TIME_OFFSET ( 10, 0, .AHEAD. ) ;
#16 = ORIENTED_EDGE ( 'NONE', *, *, #205, .T. ) ;
#17 = CARTESIAN_POINT ( 'NONE',  ( 84.99999999999998579, 1.000000000000000000, 20.00000000000000711 ) ) ;
#18 = CARTESIAN_POINT ( 'NONE',  ( 0.7494941522719310578, 1.000000000000000000, -15.80751302973524730 ) ) ;
#19 = EDGE_LOOP ( 'NONE', ( #170, #239, #555, #128 ) ) ;
#20 = CARTESIAN_POINT ( 'NONE',  ( -85.00000000000001421, 1.000000000000000000, 20.00000000000000711 ) ) ;
#21 = DIRECTION ( 'NONE',  ( -1.000000000000000000, -0.000000000000000000, -0.000000000000000000 ) ) ;
#22 = EDGE_CURVE ( 'NONE', #433, #595, #43, .T. ) ;
#23 = APPROVAL_STATUS ( 'not_yet_approved' ) ;
#24 = VERTEX_POINT ( 'NONE', #371 ) ;
#25 = VECTOR ( 'NONE', #305, 1000.000000000000000 ) ;
#26 = APPROVAL_PERSON_ORGANIZATION ( #441, #480, #28 ) ;
#27 = DIRECTION ( 'NONE',  ( 1.000000000000000000, 0.000000000000000000, 0.000000000000000000 ) ) ;
#28 = APPROVAL_ROLE ( '' ) ;
#29 = ORIENTED_EDGE ( 'NONE', *, *, #205, .F. ) ;
#30 = CARTESIAN_POINT ( 'NONE',  ( -22.82550372828148610, 1.000000000000000000, 0.000000000000000000 ) ) ;
#31 = ORIENTED_EDGE ( 'NONE', *, *, #56, .F. ) ;
#32 = EDGE_CURVE ( 'NONE', #24, #196, #180, .T. ) ;
#33 = LINE ( 'NONE', #408, #479 ) ;
#34 = ORIENTED_EDGE ( 'NONE', *, *, #329, .F. ) ;
#35 = VECTOR ( 'NONE', #13, 1000.000000000000000 ) ;
#36 = DIRECTION ( 'NONE',  ( 1.000000000000000000, 0.000000000000000000, 0.000000000000000000 ) ) ;
#37 = LOCAL_TIME ( 14, 49, 50.00000000000000000, #15 ) ;
#38 = VERTEX_POINT ( 'NONE', #323 ) ;
#39 = EDGE_CURVE ( 'NONE', #242, #605, #49, .T. ) ;
#40 = ORIENTED_EDGE ( 'NONE', *, *, #366, .F. ) ;
#41 = VERTEX_POINT ( 'NONE', #91 ) ;
#42 = VECTOR ( 'NONE', #597, 1000.000000000000000 ) ;
#43 = LINE ( 'NONE', #187, #42 ) ;
#44 = VECTOR ( 'NONE', #256, 1000.000000000000000 ) ;
#45 = EDGE_LOOP ( 'NONE', ( #190, #586, #107, #63 ) ) ;
#46 = CARTESIAN_POINT ( 'NONE',  ( 7.835620682842901807, 1.000000000000000000, -3.836407687256400123E-15 ) ) ;
#47 = ORIENTED_EDGE ( 'NONE', *, *, #158, .F. ) ;
#48 = EDGE_CURVE ( 'NONE', #196, #430, #556, .T. ) ;
#49 = LINE ( 'NONE', #554, #125 ) ;
#50 = CARTESIAN_POINT ( 'NONE',  ( 84.99999999999998579, 0.000000000000000000, -19.99999999999999289 ) ) ;
#51 = APPROVAL ( #23, 'UNSPECIFIED' ) ;
#52 = CARTESIAN_POINT ( 'NONE',  ( -38.22420176586840768, 1.000000000000000000, 0.000000000000000000 ) ) ;
#53 = EDGE_LOOP ( 'NONE', ( #393, #89, #31, #590 ) ) ;
#54 = VECTOR ( 'NONE', #210, 1000.000000000000000 ) ;
#55 = CARTESIAN_POINT ( 'NONE',  ( -85.00000000000001421, 0.000000000000000000, 20.00000000000000711 ) ) ;
#56 = EDGE_CURVE ( 'NONE', #172, #217, #281, .T. ) ;
#57 = ORIENTED_EDGE ( 'NONE', *, *, #470, .F. ) ;
#58 = CARTESIAN_POINT ( 'NONE',  ( -79.37824430879986437, 1.000000000000000000, 0.000000000000000000 ) ) ;
#59 = CARTESIAN_POINT ( 'NONE',  ( 0.000000000000000000, 1.000000000000000000, 0.000000000000000000 ) ) ;
#60 = CARTESIAN_POINT ( 'NONE',  ( -20.50888543944098785, 1.000000000000000000, -12.26444976444976120 ) ) ;
#61 = CARTESIAN_POINT ( 'NONE',  ( 0.000000000000000000, 1.000000000000000000, -6.268496546274317183 ) ) ;
#62 = APPROVAL_DATE_TIME ( #348, #150 ) ;
#63 = ORIENTED_EDGE ( 'NONE', *, *, #309, .T. ) ;
#64 = AXIS2_PLACEMENT_3D ( 'NONE', #102, #533, #3 ) ;
#65 = DIRECTION ( 'NONE',  ( 0.000000000000000000, -0.000000000000000000, -1.000000000000000000 ) ) ;
#66 = DIRECTION ( 'NONE',  ( -1.000000000000000000, 0.000000000000000000, 0.000000000000000000 ) ) ;
#67 = PERSON_AND_ORGANIZATION ( #499, #88 ) ;
#68 = ORIENTED_EDGE ( 'NONE', *, *, #543, .F. ) ;
#69 = CARTESIAN_POINT ( 'NONE',  ( -79.37824430879986437, 1.000000000000000000, 0.000000000000000000 ) ) ;
#70 = EDGE_CURVE ( 'NONE', #149, #531, #440, .T. ) ;
#71 = DIRECTION ( 'NONE',  ( -1.000000000000000000, 0.000000000000000000, 0.000000000000000000 ) ) ;
#72 = ORIENTED_EDGE ( 'NONE', *, *, #22, .T. ) ;
#73 = FACE_OUTER_BOUND ( 'NONE', #45, .T. ) ;
#74 = CARTESIAN_POINT ( 'NONE',  ( -79.37824430879986437, 1.000000000000000000, 16.08005635783414178 ) ) ;
#75 = APPLICATION_CONTEXT ( 'configuration controlled 3d designs of mechanical parts and assemblies' ) ;
#76 = ORIENTED_EDGE ( 'NONE', *, *, #373, .F. ) ;
#77 = VECTOR ( 'NONE', #520, 1000.000000000000000 ) ;
#78 = AXIS2_PLACEMENT_3D ( 'NONE', #565, #148, #334 ) ;
#79 = CARTESIAN_POINT ( 'NONE',  ( 0.7494941522719323901, 1.000000000000000000, -6.625679942966978663E-17 ) ) ;
#80 = PERSON_AND_ORGANIZATION_ROLE ( 'design_owner' ) ;
#81 = ORIENTED_EDGE ( 'NONE', *, *, #548, .F. ) ;
#82 = DIRECTION ( 'NONE',  ( 8.840202318967580639E-17, 0.000000000000000000, 1.000000000000000000 ) ) ;
#83 = VERTEX_POINT ( 'NONE', #486 ) ;
#84 = DIRECTION ( 'NONE',  ( -1.000000000000000000, 0.000000000000000000, 0.000000000000000000 ) ) ;
#85 = VERTEX_POINT ( 'NONE', #477 ) ;
#86 = VECTOR ( 'NONE', #82, 1000.000000000000000 ) ;
#87 = CARTESIAN_POINT ( 'NONE',  ( 1.703395800618040523, 1.000000000000000000, -2.725433280988832419 ) ) ;
#88 = ORGANIZATION ( 'UNSPECIFIED', 'UNSPECIFIED', '' ) ;
#89 = ORIENTED_EDGE ( 'NONE', *, *, #285, .F. ) ;
#90 = DIRECTION ( 'NONE',  ( 0.000000000000000000, -1.000000000000000000, 0.000000000000000000 ) ) ;
#91 = CARTESIAN_POINT ( 'NONE',  ( 16.82955051010609537, 1.000000000000000000, 9.402744819411498867 ) ) ;
#92 = CARTESIAN_POINT ( 'NONE',  ( 79.92333096499764622, 1.000000000000000000, 0.000000000000000000 ) ) ;
#93 = VERTEX_POINT ( 'NONE', #18 ) ;
#94 = VECTOR ( 'NONE', #481, 1000.000000000000000 ) ;
#95 = DIRECTION ( 'NONE',  ( 0.000000000000000000, 0.000000000000000000, -1.000000000000000000 ) ) ;
#96 = CC_DESIGN_SECURITY_CLASSIFICATION ( #471, ( #174 ) ) ;
#97 = EDGE_CURVE ( 'NONE', #38, #41, #197, .T. ) ;
#98 = ORIENTED_EDGE ( 'NONE', *, *, #429, .F. ) ;
#99 = LINE ( 'NONE', #46, #524 ) ;
#100 = PLANE ( 'NONE',  #64 ) ;
#101 = EDGE_CURVE ( 'NONE', #476, #137, #525, .T. ) ;
#102 = CARTESIAN_POINT ( 'NONE',  ( 0.000000000000000000, 1.000000000000000000, 0.000000000000000000 ) ) ;
#103 = VERTEX_POINT ( 'NONE', #431 ) ;
#104 = VECTOR ( 'NONE', #340, 1000.000000000000000 ) ;
#105 = LINE ( 'NONE', #575, #173 ) ;
#106 = DIRECTION ( 'NONE',  ( 0.000000000000000000, -1.000000000000000000, 0.000000000000000000 ) ) ;
#107 = ORIENTED_EDGE ( 'NONE', *, *, #277, .T. ) ;
#108 = DIRECTION ( 'NONE',  ( 0.000000000000000000, -0.000000000000000000, -1.000000000000000000 ) ) ;
#109 = FACE_OUTER_BOUND ( 'NONE', #493, .T. ) ;
#110 = CALENDAR_DATE ( 2025, 17, 8 ) ;
#111 = PLANE ( 'NONE',  #388 ) ;
#112 = LINE ( 'NONE', #301, #593 ) ;
#113 = PERSON_AND_ORGANIZATION ( #499, #88 ) ;
#114 = VERTEX_POINT ( 'NONE', #344 ) ;
#115 = ADVANCED_FACE ( 'NONE', ( #14 ), #392, .F. ) ;
#116 = VECTOR ( 'NONE', #512, 1000.000000000000000 ) ;
#117 = CARTESIAN_POINT ( 'NONE',  ( 0.000000000000000000, 1.000000000000000000, 0.000000000000000000 ) ) ;
#118 = LINE ( 'NONE', #79, #86 ) ;
#119 = DATE_TIME_ROLE ( 'classification_date' ) ;
#120 = PLANE ( 'NONE',  #454 ) ;
#121 = CARTESIAN_POINT ( 'NONE',  ( 0.000000000000000000, 1.000000000000000000, 16.08005635783414178 ) ) ;
#122 = EDGE_CURVE ( 'NONE', #292, #83, #200, .T. ) ;
#123 = DIRECTION ( 'NONE',  ( -0.000000000000000000, -0.000000000000000000, 1.000000000000000000 ) ) ;
#124 = VERTEX_POINT ( 'NONE', #6 ) ;
#125 = VECTOR ( 'NONE', #511, 1000.000000000000000 ) ;
#126 = DIRECTION ( 'NONE',  ( -0.000000000000000000, -1.000000000000000000, -0.000000000000000000 ) ) ;
#127 = CC_DESIGN_PERSON_AND_ORGANIZATION_ASSIGNMENT ( #355, #252, ( #174 ) ) ;
#128 = ORIENTED_EDGE ( 'NONE', *, *, #228, .F. ) ;
#129 = LINE ( 'NONE', #166, #439 ) ;
#130 = EDGE_LOOP ( 'NONE', ( #40, #372, #523, #176 ) ) ;
#131 = CARTESIAN_POINT ( 'NONE',  ( 79.92333096499764622, 1.000000000000000000, -2.725433280988832419 ) ) ;
#132 = EDGE_LOOP ( 'NONE', ( #403, #424, #376, #270 ) ) ;
#133 = EDGE_CURVE ( 'NONE', #531, #476, #294, .T. ) ;
#134 = AXIS2_PLACEMENT_3D ( 'NONE', #229, #224, #495 ) ;
#135 = ORIENTED_EDGE ( 'NONE', *, *, #70, .T. ) ;
#136 = LINE ( 'NONE', #324, #116 ) ;
#137 = VERTEX_POINT ( 'NONE', #246 ) ;
#138 = CARTESIAN_POINT ( 'NONE',  ( 0.000000000000000000, 1.000000000000000000, 0.000000000000000000 ) ) ;
#139 = EDGE_CURVE ( 'NONE', #515, #93, #389, .T. ) ;
#140 = DIRECTION ( 'NONE',  ( -0.000000000000000000, -1.000000000000000000, -0.000000000000000000 ) ) ;
#141 = AXIS2_PLACEMENT_3D ( 'NONE', #138, #90, #319 ) ;
#142 = ORIENTED_EDGE ( 'NONE', *, *, #309, .F. ) ;
#143 =( GEOMETRIC_REPRESENTATION_CONTEXT ( 3 ) GLOBAL_UNCERTAINTY_ASSIGNED_CONTEXT ( ( #417 ) ) GLOBAL_UNIT_ASSIGNED_CONTEXT ( ( #426, #478, #291 ) ) REPRESENTATION_CONTEXT ( 'NONE', 'WORKASPACE' ) );
#144 = DIRECTION ( 'NONE',  ( 0.000000000000000000, 0.000000000000000000, 1.000000000000000000 ) ) ;
#145 = FACE_OUTER_BOUND ( 'NONE', #163, .T. ) ;
#146 = EDGE_CURVE ( 'NONE', #463, #283, #384, .T. ) ;
#147 = DIRECTION ( 'NONE',  ( 1.000000000000000000, 0.000000000000000000, -0.000000000000000000 ) ) ;
#148 = DIRECTION ( 'NONE',  ( 0.000000000000000000, 0.000000000000000000, 1.000000000000000000 ) ) ;
#149 = VERTEX_POINT ( 'NONE', #483 ) ;
#150 = APPROVAL ( #10, 'UNSPECIFIED' ) ;
#151 = FACE_OUTER_BOUND ( 'NONE', #279, .T. ) ;
#152 = CARTESIAN_POINT ( 'NONE',  ( 84.99999999999998579, 1.000000000000000000, 20.00000000000000711 ) ) ;
#153 = ORIENTED_EDGE ( 'NONE', *, *, #97, .T. ) ;
#154 = FACE_BOUND ( 'NONE', #235, .T. ) ;
#155 = CARTESIAN_POINT ( 'NONE',  ( -85.00000000000001421, 0.000000000000000000, -19.99999999999999289 ) ) ;
#156 = FACE_OUTER_BOUND ( 'NONE', #549, .T. ) ;
#157 = DIRECTION ( 'NONE',  ( -1.000000000000000000, 0.000000000000000000, 0.000000000000000000 ) ) ;
#158 = EDGE_CURVE ( 'NONE', #359, #311, #428, .T. ) ;
#159 = DATE_AND_TIME ( #580, #404 ) ;
#160 = ORIENTED_EDGE ( 'NONE', *, *, #322, .T. ) ;
#161 = DIRECTION ( 'NONE',  ( -1.000000000000000000, 0.000000000000000000, -0.000000000000000000 ) ) ;
#162 = CARTESIAN_POINT ( 'NONE',  ( -85.00000000000001421, 1.000000000000000000, 20.00000000000000711 ) ) ;
#163 = EDGE_LOOP ( 'NONE', ( #409, #325, #202, #506 ) ) ;
#164 = VECTOR ( 'NONE', #261, 1000.000000000000000 ) ;
#165 = FACE_BOUND ( 'NONE', #238, .T. ) ;
#166 = CARTESIAN_POINT ( 'NONE',  ( 84.99999999999998579, 0.000000000000000000, 20.00000000000000711 ) ) ;
#167 = EDGE_LOOP ( 'NONE', ( #563, #484, #265, #342 ) ) ;
#168 = ADVANCED_FACE ( 'NONE', ( #568 ), #250, .F. ) ;
#169 = LINE ( 'NONE', #541, #251 ) ;
#170 = ORIENTED_EDGE ( 'NONE', *, *, #122, .F. ) ;
#171 = CARTESIAN_POINT ( 'NONE',  ( 0.000000000000000000, 1.000000000000000000, 8.585114835114840304 ) ) ;
#172 = VERTEX_POINT ( 'NONE', #155 ) ;
#173 = VECTOR ( 'NONE', #157, 1000.000000000000000 ) ;
#174 = PRODUCT_DEFINITION_FORMATION_WITH_SPECIFIED_SOURCE ( 'ANY', '', #582, .NOT_KNOWN. ) ;
#175 = CARTESIAN_POINT ( 'NONE',  ( 0.000000000000000000, 1.000000000000000000, 0.000000000000000000 ) ) ;
#176 = ORIENTED_EDGE ( 'NONE', *, *, #32, .F. ) ;
#177 = CARTESIAN_POINT ( 'NONE',  ( 0.000000000000000000, 1.000000000000000000, 0.000000000000000000 ) ) ;
#178 = ADVANCED_FACE ( 'NONE', ( #109 ), #100, .F. ) ;
#179 = ORIENTED_EDGE ( 'NONE', *, *, #316, .F. ) ;
#180 = LINE ( 'NONE', #551, #1 ) ;
#181 = AXIS2_PLACEMENT_3D ( 'NONE', #59, #106, #4 ) ;
#182 = DIRECTION ( 'NONE',  ( 0.000000000000000000, -0.000000000000000000, -1.000000000000000000 ) ) ;
#183 = VERTEX_POINT ( 'NONE', #528 ) ;
#184 = EDGE_CURVE ( 'NONE', #469, #433, #193, .T. ) ;
#185 = MANIFOLD_SOLID_BREP ( 'Split Line1', #571 ) ;
#186 = CARTESIAN_POINT ( 'NONE',  ( -79.37824430879986437, 1.000000000000000000, 0.000000000000000000 ) ) ;
#187 = CARTESIAN_POINT ( 'NONE',  ( 84.99999999999998579, 1.000000000000000000, -19.99999999999999289 ) ) ;
#188 = ORIENTED_EDGE ( 'NONE', *, *, #277, .F. ) ;
#189 = VECTOR ( 'NONE', #494, 1000.000000000000000 ) ;
#190 = ORIENTED_EDGE ( 'NONE', *, *, #184, .T. ) ;
#191 = CC_DESIGN_APPROVAL ( #480, ( #471 ) ) ;
#192 = EDGE_LOOP ( 'NONE', ( #244, #356, #526, #11 ) ) ;
#193 = LINE ( 'NONE', #381, #12 ) ;
#194 = EDGE_CURVE ( 'NONE', #411, #359, #333, .T. ) ;
#195 = LINE ( 'NONE', #562, #274 ) ;
#196 = VERTEX_POINT ( 'NONE', #289 ) ;
#197 = LINE ( 'NONE', #243, #337 ) ;
#198 = DIRECTION ( 'NONE',  ( 1.000000000000000000, 0.000000000000000000, 0.000000000000000000 ) ) ;
#199 = DIRECTION ( 'NONE',  ( 0.000000000000000000, -1.000000000000000000, 0.000000000000000000 ) ) ;
#200 = LINE ( 'NONE', #58, #94 ) ;
#201 = VECTOR ( 'NONE', #95, 1000.000000000000000 ) ;
#202 = ORIENTED_EDGE ( 'NONE', *, *, #158, .T. ) ;
#203 = LOCAL_TIME ( 14, 49, 50.00000000000000000, #534 ) ;
#204 = LINE ( 'NONE', #438, #35 ) ;
#205 = EDGE_CURVE ( 'NONE', #414, #5, #105, .T. ) ;
#206 = DIRECTION ( 'NONE',  ( 0.000000000000000000, 0.000000000000000000, -1.000000000000000000 ) ) ;
#207 = PERSON_AND_ORGANIZATION_ROLE ( 'creator' ) ;
#208 = ORIENTED_EDGE ( 'NONE', *, *, #233, .T. ) ;
#209 = CARTESIAN_POINT ( 'NONE',  ( 0.000000000000000000, 1.000000000000000000, 0.000000000000000000 ) ) ;
#210 = DIRECTION ( 'NONE',  ( 1.000000000000000000, 0.000000000000000000, 0.000000000000000000 ) ) ;
#211 = CALENDAR_DATE ( 2025, 17, 8 ) ;
#212 = ORIENTED_EDGE ( 'NONE', *, *, #429, .T. ) ;
#213 = LINE ( 'NONE', #399, #369 ) ;
#214 = DIRECTION ( 'NONE',  ( 0.000000000000000000, -1.000000000000000000, 0.000000000000000000 ) ) ;
#215 = PERSON_AND_ORGANIZATION ( #499, #88 ) ;
#216 = EDGE_CURVE ( 'NONE', #41, #535, #112, .T. ) ;
#217 = VERTEX_POINT ( 'NONE', #505 ) ;
#218 = AXIS2_PLACEMENT_3D ( 'NONE', #564, #144, #147 ) ;
#219 = DIRECTION ( 'NONE',  ( 0.000000000000000000, 0.000000000000000000, -1.000000000000000000 ) ) ;
#220 = SHAPE_DEFINITION_REPRESENTATION ( #327, #380 ) ;
#221 = ORIENTED_EDGE ( 'NONE', *, *, #357, .F. ) ;
#222 = DIRECTION ( 'NONE',  ( -0.000000000000000000, 0.000000000000000000, 1.000000000000000000 ) ) ;
#223 = EDGE_LOOP ( 'NONE', ( #16, #212, #550, #230 ) ) ;
#224 = DIRECTION ( 'NONE',  ( 1.000000000000000000, -0.000000000000000000, 0.000000000000000000 ) ) ;
#225 = ORIENTED_EDGE ( 'NONE', *, *, #598, .F. ) ;
#226 = VECTOR ( 'NONE', #222, 1000.000000000000000 ) ;
#227 = CC_DESIGN_APPROVAL ( #150, ( #263 ) ) ;
#228 = EDGE_CURVE ( 'NONE', #83, #463, #405, .T. ) ;
#229 = CARTESIAN_POINT ( 'NONE',  ( -85.00000000000001421, 1.000000000000000000, 20.00000000000000711 ) ) ;
#230 = ORIENTED_EDGE ( 'NONE', *, *, #598, .T. ) ;
#231 = ORIENTED_EDGE ( 'NONE', *, *, #216, .T. ) ;
#232 = ORIENTED_EDGE ( 'NONE', *, *, #508, .T. ) ;
#233 = EDGE_CURVE ( 'NONE', #456, #595, #129, .T. ) ;
#234 = VECTOR ( 'NONE', #579, 1000.000000000000000 ) ;
#235 = EDGE_LOOP ( 'NONE', ( #57, #577, #353, #374 ) ) ;
#236 = ORIENTED_EDGE ( 'NONE', *, *, #184, .F. ) ;
#237 = CARTESIAN_POINT ( 'NONE',  ( 79.92333096499764622, 1.000000000000000000, 2.997976609087734445 ) ) ;
#238 = EDGE_LOOP ( 'NONE', ( #363, #34, #268, #47 ) ) ;
#239 = ORIENTED_EDGE ( 'NONE', *, *, #322, .F. ) ;
#240 = VECTOR ( 'NONE', #519, 1000.000000000000000 ) ;
#241 = CARTESIAN_POINT ( 'NONE',  ( -42.17608002330224082, 1.000000000000000000, 0.000000000000000000 ) ) ;
#242 = VERTEX_POINT ( 'NONE', #501 ) ;
#243 = CARTESIAN_POINT ( 'NONE',  ( 0.000000000000000000, 1.000000000000000000, 9.402744819411498867 ) ) ;
#244 = ORIENTED_EDGE ( 'NONE', *, *, #216, .F. ) ;
#245 = DIRECTION ( 'NONE',  ( 0.000000000000000000, -0.000000000000000000, -1.000000000000000000 ) ) ;
#246 = CARTESIAN_POINT ( 'NONE',  ( -79.37824430879986437, 1.000000000000000000, -6.268496546274317183 ) ) ;
#247 = PLANE ( 'NONE',  #510 ) ;
#248 = EDGE_CURVE ( 'NONE', #535, #335, #588, .T. ) ;
#249 = DIRECTION ( 'NONE',  ( 0.000000000000000000, 0.000000000000000000, -1.000000000000000000 ) ) ;
#250 = PLANE ( 'NONE',  #280 ) ;
#251 = VECTOR ( 'NONE', #269, 1000.000000000000000 ) ;
#252 = PERSON_AND_ORGANIZATION_ROLE ( 'design_supplier' ) ;
#253 = ORIENTED_EDGE ( 'NONE', *, *, #122, .T. ) ;
#254 = LOCAL_TIME ( 14, 49, 50.00000000000000000, #303 ) ;
#255 = CARTESIAN_POINT ( 'NONE',  ( 79.92333096499764622, 1.000000000000000000, 0.000000000000000000 ) ) ;
#256 = DIRECTION ( 'NONE',  ( 0.000000000000000000, 0.000000000000000000, -1.000000000000000000 ) ) ;
#257 = CARTESIAN_POINT ( 'NONE',  ( -38.22420176586840768, 1.000000000000000000, -2.725433280988830642 ) ) ;
#258 = ADVANCED_FACE ( 'NONE', ( #547 ), #410, .F. ) ;
#259 = DIRECTION ( 'NONE',  ( 0.000000000000000000, -0.000000000000000000, -1.000000000000000000 ) ) ;
#260 = ORIENTED_EDGE ( 'NONE', *, *, #139, .F. ) ;
#261 = DIRECTION ( 'NONE',  ( -0.000000000000000000, 0.000000000000000000, 1.000000000000000000 ) ) ;
#262 = CARTESIAN_POINT ( 'NONE',  ( -22.82550372828148610, 1.000000000000000000, 4.905779905779918515 ) ) ;
#263 = PRODUCT_DEFINITION ( 'UNKNOWN', '', #174, #468 ) ;
#264 = APPROVAL_ROLE ( '' ) ;
#265 = ORIENTED_EDGE ( 'NONE', *, *, #39, .T. ) ;
#266 = LINE ( 'NONE', #310, #326 ) ;
#267 = APPLICATION_PROTOCOL_DEFINITION ( 'international standard', 'config_control_design', 1994, #330 ) ;
#268 = ORIENTED_EDGE ( 'NONE', *, *, #604, .F. ) ;
#269 = DIRECTION ( 'NONE',  ( -0.000000000000000000, 0.000000000000000000, 1.000000000000000000 ) ) ;
#270 = ORIENTED_EDGE ( 'NONE', *, *, #39, .F. ) ;
#271 = EDGE_CURVE ( 'NONE', #422, #242, #169, .T. ) ;
#272 = CARTESIAN_POINT ( 'NONE',  ( 79.92333096499764622, 1.000000000000000000, 16.08005635783414178 ) ) ;
#273 = ORIENTED_EDGE ( 'NONE', *, *, #366, .T. ) ;
#274 = VECTOR ( 'NONE', #198, 1000.000000000000000 ) ;
#275 = LINE ( 'NONE', #92, #314 ) ;
#276 = ORIENTED_EDGE ( 'NONE', *, *, #373, .T. ) ;
#277 = EDGE_CURVE ( 'NONE', #278, #114, #306, .T. ) ;
#278 = VERTEX_POINT ( 'NONE', #317 ) ;
#279 = EDGE_LOOP ( 'NONE', ( #153, #231, #385, #497 ) ) ;
#280 = AXIS2_PLACEMENT_3D ( 'NONE', #152, #9, #338 ) ;
#281 = LINE ( 'NONE', #55, #599 ) ;
#282 = FACE_OUTER_BOUND ( 'NONE', #167, .T. ) ;
#283 = VERTEX_POINT ( 'NONE', #358 ) ;
#284 = LINE ( 'NONE', #475, #240 ) ;
#285 = EDGE_CURVE ( 'NONE', #217, #456, #460, .T. ) ;
#286 = DIRECTION ( 'NONE',  ( 0.000000000000000000, 0.000000000000000000, -1.000000000000000000 ) ) ;
#287 = DIRECTION ( 'NONE',  ( 0.000000000000000000, -1.000000000000000000, 0.000000000000000000 ) ) ;
#288 = VECTOR ( 'NONE', #206, 1000.000000000000000 ) ;
#289 = CARTESIAN_POINT ( 'NONE',  ( -8.516979003090090927, 1.000000000000000000, 8.585114835114840304 ) ) ;
#290 = APPROVAL_PERSON_ORGANIZATION ( #341, #150, #492 ) ;
#291 =( NAMED_UNIT ( * ) SI_UNIT ( $, .STERADIAN. ) SOLID_ANGLE_UNIT ( ) );
#292 = VERTEX_POINT ( 'NONE', #312 ) ;
#293 = PLANE ( 'NONE',  #558 ) ;
#294 = LINE ( 'NONE', #52, #44 ) ;
#295 = ADVANCED_FACE ( 'NONE', ( #354 ), #361, .F. ) ;
#296 = ORIENTED_EDGE ( 'NONE', *, *, #228, .T. ) ;
#297 = CARTESIAN_POINT ( 'NONE',  ( 84.99999999999998579, 0.000000000000000000, 20.00000000000000711 ) ) ;
#298 = DIRECTION ( 'NONE',  ( -0.000000000000000000, 0.000000000000000000, 1.000000000000000000 ) ) ;
#299 = SECURITY_CLASSIFICATION_LEVEL ( 'unclassified' ) ;
#300 = CARTESIAN_POINT ( 'NONE',  ( -8.516979003090090927, 1.000000000000000000, 4.905779905779918515 ) ) ;
#301 = CARTESIAN_POINT ( 'NONE',  ( 16.82955051010609182, 1.000000000000000000, -8.744422419719843705E-15 ) ) ;
#302 = AXIS2_PLACEMENT_3D ( 'NONE', #20, #249, #161 ) ;
#303 = COORDINATED_UNIVERSAL_TIME_OFFSET ( 10, 0, .AHEAD. ) ;
#304 = APPROVAL_PERSON_ORGANIZATION ( #113, #51, #264 ) ;
#305 = DIRECTION ( 'NONE',  ( -0.000000000000000000, 0.000000000000000000, 1.000000000000000000 ) ) ;
#306 = LINE ( 'NONE', #162, #502 ) ;
#307 = APPROVAL_STATUS ( 'not_yet_approved' ) ;
#308 = CARTESIAN_POINT ( 'NONE',  ( 79.92333096499764622, 1.000000000000000000, 0.000000000000000000 ) ) ;
#309 = EDGE_CURVE ( 'NONE', #114, #469, #544, .T. ) ;
#310 = CARTESIAN_POINT ( 'NONE',  ( 0.000000000000000000, 1.000000000000000000, 12.53699309254865568 ) ) ;
#311 = VERTEX_POINT ( 'NONE', #400 ) ;
#312 = CARTESIAN_POINT ( 'NONE',  ( -79.37824430879986437, 1.000000000000000000, 5.042051569829352431 ) ) ;
#313 = APPROVAL_DATE_TIME ( #496, #480 ) ;
#314 = VECTOR ( 'NONE', #421, 1000.000000000000000 ) ;
#315 = DIRECTION ( 'NONE',  ( 1.000000000000000000, 0.000000000000000000, 0.000000000000000000 ) ) ;
#316 = EDGE_CURVE ( 'NONE', #93, #183, #118, .T. ) ;
#317 = CARTESIAN_POINT ( 'NONE',  ( -85.00000000000001421, 1.000000000000000000, -19.99999999999999289 ) ) ;
#318 = ORIENTED_EDGE ( 'NONE', *, *, #22, .F. ) ;
#319 = DIRECTION ( 'NONE',  ( 0.000000000000000000, -0.000000000000000000, -1.000000000000000000 ) ) ;
#320 = ORIENTED_EDGE ( 'NONE', *, *, #7, .F. ) ;
#321 = VECTOR ( 'NONE', #126, 1000.000000000000000 ) ;
#322 = EDGE_CURVE ( 'NONE', #283, #292, #33, .T. ) ;
#323 = CARTESIAN_POINT ( 'NONE',  ( 79.92333096499764622, 1.000000000000000000, 9.402744819411498867 ) ) ;
#324 = CARTESIAN_POINT ( 'NONE',  ( 84.99999999999998579, 1.000000000000000000, 20.00000000000000711 ) ) ;
#325 = ORIENTED_EDGE ( 'NONE', *, *, #194, .T. ) ;
#326 = VECTOR ( 'NONE', #84, 1000.000000000000000 ) ;
#327 = PRODUCT_DEFINITION_SHAPE ( 'NONE', 'NONE',  #263 ) ;
#328 = CARTESIAN_POINT ( 'NONE',  ( -8.516979003090090927, 1.000000000000000000, 0.000000000000000000 ) ) ;
#329 = EDGE_CURVE ( 'NONE', #124, #411, #266, .T. ) ;
#330 = APPLICATION_CONTEXT ( 'configuration controlled 3d designs of mechanical parts and assemblies' ) ;
#331 = CARTESIAN_POINT ( 'NONE',  ( 0.000000000000000000, 1.000000000000000000, -15.80751302973524730 ) ) ;
#332 = LINE ( 'NONE', #521, #584 ) ;
#333 = LINE ( 'NONE', #522, #552 ) ;
#334 = DIRECTION ( 'NONE',  ( 1.000000000000000000, 0.000000000000000000, 0.000000000000000000 ) ) ;
#335 = VERTEX_POINT ( 'NONE', #272 ) ;
#336 = PLANE ( 'NONE',  #141 ) ;
#337 = VECTOR ( 'NONE', #395, 1000.000000000000000 ) ;
#338 = DIRECTION ( 'NONE',  ( 0.000000000000000000, 0.000000000000000000, 1.000000000000000000 ) ) ;
#339 = FACE_BOUND ( 'NONE', #425, .T. ) ;
#340 = DIRECTION ( 'NONE',  ( 1.000000000000000000, 0.000000000000000000, 0.000000000000000000 ) ) ;
#341 = PERSON_AND_ORGANIZATION ( #499, #88 ) ;
#342 = ORIENTED_EDGE ( 'NONE', *, *, #529, .T. ) ;
#343 = DIRECTION ( 'NONE',  ( 0.000000000000000000, -1.000000000000000000, 0.000000000000000000 ) ) ;
#344 = CARTESIAN_POINT ( 'NONE',  ( -85.00000000000001421, 1.000000000000000000, 20.00000000000000711 ) ) ;
#345 = FACE_OUTER_BOUND ( 'NONE', #602, .T. ) ;
#346 = CARTESIAN_POINT ( 'NONE',  ( -85.00000000000001421, 0.000000000000000000, 20.00000000000000711 ) ) ;
#347 = VECTOR ( 'NONE', #27, 1000.000000000000000 ) ;
#348 = DATE_AND_TIME ( #487, #203 ) ;
#349 = ORIENTED_EDGE ( 'NONE', *, *, #396, .T. ) ;
#350 = ADVANCED_FACE ( 'NONE', ( #462 ), #585, .T. ) ;
#351 = LINE ( 'NONE', #308, #537 ) ;
#352 = DIRECTION ( 'NONE',  ( 0.000000000000000000, -1.000000000000000000, 0.000000000000000000 ) ) ;
#353 = ORIENTED_EDGE ( 'NONE', *, *, #133, .F. ) ;
#354 = FACE_OUTER_BOUND ( 'NONE', #465, .T. ) ;
#355 = PERSON_AND_ORGANIZATION ( #499, #88 ) ;
#356 = ORIENTED_EDGE ( 'NONE', *, *, #97, .F. ) ;
#357 = EDGE_CURVE ( 'NONE', #433, #278, #450, .T. ) ;
#358 = CARTESIAN_POINT ( 'NONE',  ( -42.17608002330224082, 1.000000000000000000, 5.042051569829352431 ) ) ;
#359 = VERTEX_POINT ( 'NONE', #74 ) ;
#360 = VECTOR ( 'NONE', #315, 1000.000000000000000 ) ;
#361 = PLANE ( 'NONE',  #134 ) ;
#362 = CC_DESIGN_PERSON_AND_ORGANIZATION_ASSIGNMENT ( #573, #390, ( #471 ) ) ;
#363 = ORIENTED_EDGE ( 'NONE', *, *, #194, .F. ) ;
#364 = CARTESIAN_POINT ( 'NONE',  ( -20.50888543944098785, 1.000000000000000000, -15.80751302973524730 ) ) ;
#365 = VERTEX_POINT ( 'NONE', #262 ) ;
#366 = EDGE_CURVE ( 'NONE', #365, #24, #453, .T. ) ;
#367 = EDGE_LOOP ( 'NONE', ( #349, #273, #461, #557 ) ) ;
#368 = CC_DESIGN_PERSON_AND_ORGANIZATION_ASSIGNMENT ( #67, #207, ( #263 ) ) ;
#369 = VECTOR ( 'NONE', #583, 1000.000000000000000 ) ;
#370 = CARTESIAN_POINT ( 'NONE',  ( -79.37824430879986437, 1.000000000000000000, 12.53699309254865568 ) ) ;
#371 = CARTESIAN_POINT ( 'NONE',  ( -22.82550372828148610, 1.000000000000000000, 8.585114835114840304 ) ) ;
#372 = ORIENTED_EDGE ( 'NONE', *, *, #396, .F. ) ;
#373 = EDGE_CURVE ( 'NONE', #278, #172, #591, .T. ) ;
#374 = ORIENTED_EDGE ( 'NONE', *, *, #70, .F. ) ;
#375 = PLANE ( 'NONE',  #181 ) ;
#376 = ORIENTED_EDGE ( 'NONE', *, *, #529, .F. ) ;
#377 = AXIS2_PLACEMENT_3D ( 'NONE', #117, #343, #65 ) ;
#378 = APPLICATION_PROTOCOL_DEFINITION ( 'international standard', 'config_control_design', 1994, #75 ) ;
#379 = VERTEX_POINT ( 'NONE', #131 ) ;
#380 = ADVANCED_BREP_SHAPE_REPRESENTATION ( 'ADR-VIN-PLATE_REV_A', ( #185, #78 ), #143 ) ;
#381 = CARTESIAN_POINT ( 'NONE',  ( 84.99999999999998579, 1.000000000000000000, 20.00000000000000711 ) ) ;
#382 = ADVANCED_FACE ( 'NONE', ( #413 ), #336, .F. ) ;
#383 = LINE ( 'NONE', #567, #490 ) ;
#384 = LINE ( 'NONE', #241, #288 ) ;
#385 = ORIENTED_EDGE ( 'NONE', *, *, #248, .T. ) ;
#386 = PRODUCT_RELATED_PRODUCT_CATEGORY ( 'detail', '', ( #582 ) ) ;
#387 = FACE_BOUND ( 'NONE', #132, .T. ) ;
#388 = AXIS2_PLACEMENT_3D ( 'NONE', #452, #199, #245 ) ;
#389 = LINE ( 'NONE', #331, #77 ) ;
#390 = PERSON_AND_ORGANIZATION_ROLE ( 'classification_officer' ) ;
#391 = CARTESIAN_POINT ( 'NONE',  ( -38.22420176586840768, 1.000000000000000000, -6.268496546274317183 ) ) ;
#392 = PLANE ( 'NONE',  #218 ) ;
#393 = ORIENTED_EDGE ( 'NONE', *, *, #233, .F. ) ;
#394 = FACE_OUTER_BOUND ( 'NONE', #504, .T. ) ;
#395 = DIRECTION ( 'NONE',  ( -1.000000000000000000, 0.000000000000000000, 0.000000000000000000 ) ) ;
#396 = EDGE_CURVE ( 'NONE', #430, #365, #383, .T. ) ;
#397 = PERSON_AND_ORGANIZATION_ROLE ( 'creator' ) ;
#398 = ORIENTED_EDGE ( 'NONE', *, *, #7, .T. ) ;
#399 = CARTESIAN_POINT ( 'NONE',  ( 0.000000000000000000, 1.000000000000000000, -2.725433280988832419 ) ) ;
#400 = CARTESIAN_POINT ( 'NONE',  ( 7.835620682842910689, 1.000000000000000000, 16.08005635783414178 ) ) ;
#401 = VECTOR ( 'NONE', #66, 1000.000000000000000 ) ;
#402 = COORDINATED_UNIVERSAL_TIME_OFFSET ( 10, 0, .AHEAD. ) ;
#403 = ORIENTED_EDGE ( 'NONE', *, *, #271, .F. ) ;
#404 = LOCAL_TIME ( 14, 49, 50.00000000000000000, #530 ) ;
#405 = LINE ( 'NONE', #171, #360 ) ;
#406 = ORIENTED_EDGE ( 'NONE', *, *, #133, .T. ) ;
#407 = ADVANCED_FACE ( 'NONE', ( #151 ), #293, .F. ) ;
#408 = CARTESIAN_POINT ( 'NONE',  ( 0.000000000000000000, 1.000000000000000000, 5.042051569829352431 ) ) ;
#409 = ORIENTED_EDGE ( 'NONE', *, *, #329, .T. ) ;
#410 = PLANE ( 'NONE',  #516 ) ;
#411 = VERTEX_POINT ( 'NONE', #370 ) ;
#412 = VECTOR ( 'NONE', #140, 1000.000000000000000 ) ;
#413 = FACE_OUTER_BOUND ( 'NONE', #367, .T. ) ;
#414 = VERTEX_POINT ( 'NONE', #364 ) ;
#415 = EDGE_CURVE ( 'NONE', #469, #456, #136, .T. ) ;
#416 = ORIENTED_EDGE ( 'NONE', *, *, #415, .F. ) ;
#417 = UNCERTAINTY_MEASURE_WITH_UNIT (LENGTH_MEASURE( 1.000000000000000082E-05 ), #426, 'distance_accuracy_value', 'NONE');
#418 = DIRECTION ( 'NONE',  ( -1.000000000000000000, 0.000000000000000000, 0.000000000000000000 ) ) ;
#419 = CARTESIAN_POINT ( 'NONE',  ( -79.37824430879986437, 1.000000000000000000, -15.80751302973524730 ) ) ;
#420 = VECTOR ( 'NONE', #36, 1000.000000000000000 ) ;
#421 = DIRECTION ( 'NONE',  ( 0.000000000000000000, 0.000000000000000000, -1.000000000000000000 ) ) ;
#422 = VERTEX_POINT ( 'NONE', #87 ) ;
#423 = EDGE_CURVE ( 'NONE', #335, #38, #275, .T. ) ;
#424 = ORIENTED_EDGE ( 'NONE', *, *, #540, .F. ) ;
#425 = EDGE_LOOP ( 'NONE', ( #179, #260, #68, #509 ) ) ;
#426 =( LENGTH_UNIT ( ) NAMED_UNIT ( * ) SI_UNIT ( .MILLI., .METRE. ) );
#427 = VECTOR ( 'NONE', #21, 1000.000000000000000 ) ;
#428 = LINE ( 'NONE', #435, #104 ) ;
#429 = EDGE_CURVE ( 'NONE', #5, #85, #600, .T. ) ;
#430 = VERTEX_POINT ( 'NONE', #300 ) ;
#431 = CARTESIAN_POINT ( 'NONE',  ( 79.92333096499764622, 1.000000000000000000, -9.675288147510352488 ) ) ;
#432 = MECHANICAL_CONTEXT ( 'NONE', #75, 'mechanical' ) ;
#433 = VERTEX_POINT ( 'NONE', #434 ) ;
#434 = CARTESIAN_POINT ( 'NONE',  ( 84.99999999999998579, 1.000000000000000000, -19.99999999999999289 ) ) ;
#435 = CARTESIAN_POINT ( 'NONE',  ( 0.000000000000000000, 1.000000000000000000, 16.08005635783414178 ) ) ;
#436 = DIRECTION ( 'NONE',  ( 0.000000000000000000, 0.000000000000000000, -1.000000000000000000 ) ) ;
#437 = ORIENTED_EDGE ( 'NONE', *, *, #316, .T. ) ;
#438 = CARTESIAN_POINT ( 'NONE',  ( 0.000000000000000000, 1.000000000000000000, -9.675288147510352488 ) ) ;
#439 = VECTOR ( 'NONE', #219, 1000.000000000000000 ) ;
#440 = LINE ( 'NONE', #572, #54 ) ;
#441 = PERSON_AND_ORGANIZATION ( #499, #88 ) ;
#442 = ORIENTED_EDGE ( 'NONE', *, *, #415, .T. ) ;
#443 = FACE_BOUND ( 'NONE', #19, .T. ) ;
#444 = ADVANCED_FACE ( 'NONE', ( #156 ), #111, .F. ) ;
#445 = DIRECTION ( 'NONE',  ( -0.000000000000000000, -0.000000000000000000, 1.000000000000000000 ) ) ;
#446 = APPROVAL_DATE_TIME ( #576, #51 ) ;
#447 = ORIENTED_EDGE ( 'NONE', *, *, #592, .T. ) ;
#448 = CARTESIAN_POINT ( 'NONE',  ( 16.82955051010609893, 1.000000000000000000, 16.08005635783414178 ) ) ;
#449 = CC_DESIGN_DATE_AND_TIME_ASSIGNMENT ( #542, #503, ( #263 ) ) ;
#450 = LINE ( 'NONE', #457, #427 ) ;
#451 = EDGE_LOOP ( 'NONE', ( #447, #76, #221, #72 ) ) ;
#452 = CARTESIAN_POINT ( 'NONE',  ( 0.000000000000000000, 1.000000000000000000, 0.000000000000000000 ) ) ;
#453 = LINE ( 'NONE', #30, #226 ) ;
#454 = AXIS2_PLACEMENT_3D ( 'NONE', #209, #578, #108 ) ;
#455 = ADVANCED_FACE ( 'NONE', ( #8, #387, #443, #570, #73, #154, #339, #165, #527 ), #120, .F. ) ;
#456 = VERTEX_POINT ( 'NONE', #297 ) ;
#457 = CARTESIAN_POINT ( 'NONE',  ( -85.00000000000001421, 1.000000000000000000, -19.99999999999999289 ) ) ;
#458 = EDGE_LOOP ( 'NONE', ( #98, #29, #225, #81 ) ) ;
#459 = CC_DESIGN_PERSON_AND_ORGANIZATION_ASSIGNMENT ( #538, #397, ( #174 ) ) ;
#460 = LINE ( 'NONE', #346, #347 ) ;
#461 = ORIENTED_EDGE ( 'NONE', *, *, #32, .T. ) ;
#462 = FACE_OUTER_BOUND ( 'NONE', #53, .T. ) ;
#463 = VERTEX_POINT ( 'NONE', #539 ) ;
#464 = AXIS2_PLACEMENT_3D ( 'NONE', #500, #214, #259 ) ;
#465 = EDGE_LOOP ( 'NONE', ( #566, #320, #188, #276 ) ) ;
#466 = DIRECTION ( 'NONE',  ( 0.000000000000000000, -1.000000000000000000, 0.000000000000000000 ) ) ;
#467 = DIRECTION ( 'NONE',  ( 1.000000000000000000, 0.000000000000000000, 0.000000000000000000 ) ) ;
#468 = DESIGN_CONTEXT ( 'detailed design', #330, 'design' ) ;
#469 = VERTEX_POINT ( 'NONE', #17 ) ;
#470 = EDGE_CURVE ( 'NONE', #137, #149, #485, .T. ) ;
#471 = SECURITY_CLASSIFICATION ( '', '', #299 ) ;
#472 = CARTESIAN_POINT ( 'NONE',  ( -85.00000000000001421, 1.000000000000000000, 20.00000000000000711 ) ) ;
#473 = DIRECTION ( 'NONE',  ( 0.000000000000000000, -0.000000000000000000, -1.000000000000000000 ) ) ;
#474 = VERTEX_POINT ( 'NONE', #60 ) ;
#475 = CARTESIAN_POINT ( 'NONE',  ( -85.00000000000001421, 0.000000000000000000, -19.99999999999999289 ) ) ;
#476 = VERTEX_POINT ( 'NONE', #391 ) ;
#477 = CARTESIAN_POINT ( 'NONE',  ( -79.37824430879986437, 1.000000000000000000, -12.26444976444976120 ) ) ;
#478 =( NAMED_UNIT ( * ) PLANE_ANGLE_UNIT ( ) SI_UNIT ( $, .RADIAN. ) );
#479 = VECTOR ( 'NONE', #71, 1000.000000000000000 ) ;
#480 = APPROVAL ( #307, 'UNSPECIFIED' ) ;
#481 = DIRECTION ( 'NONE',  ( -0.000000000000000000, 0.000000000000000000, 1.000000000000000000 ) ) ;
#482 = DIRECTION ( 'NONE',  ( -4.896112053582057253E-16, 0.000000000000000000, -1.000000000000000000 ) ) ;
#483 = CARTESIAN_POINT ( 'NONE',  ( -79.37824430879986437, 1.000000000000000000, -2.725433280988830642 ) ) ;
#484 = ORIENTED_EDGE ( 'NONE', *, *, #271, .T. ) ;
#485 = LINE ( 'NONE', #69, #164 ) ;
#486 = CARTESIAN_POINT ( 'NONE',  ( -79.37824430879986437, 1.000000000000000000, 8.585114835114840304 ) ) ;
#487 = CALENDAR_DATE ( 2025, 17, 8 ) ;
#488 = ADVANCED_FACE ( 'NONE', ( #394 ), #536, .F. ) ;
#489 = LINE ( 'NONE', #255, #189 ) ;
#490 = VECTOR ( 'NONE', #418, 1000.000000000000000 ) ;
#491 = DIRECTION ( 'NONE',  ( 5.195874016046267034E-16, 0.000000000000000000, 1.000000000000000000 ) ) ;
#492 = APPROVAL_ROLE ( '' ) ;
#493 = EDGE_LOOP ( 'NONE', ( #160, #253, #296, #545 ) ) ;
#494 = DIRECTION ( 'NONE',  ( 0.000000000000000000, 0.000000000000000000, -1.000000000000000000 ) ) ;
#495 = DIRECTION ( 'NONE',  ( 0.000000000000000000, 0.000000000000000000, -1.000000000000000000 ) ) ;
#496 = DATE_AND_TIME ( #589, #37 ) ;
#497 = ORIENTED_EDGE ( 'NONE', *, *, #423, .T. ) ;
#498 = DIRECTION ( 'NONE',  ( 0.000000000000000000, 0.000000000000000000, -1.000000000000000000 ) ) ;
#499 = PERSON ( 'UNSPECIFIED', 'UNSPECIFIED', 'UNSPECIFIED', ('UNSPECIFIED'), ('UNSPECIFIED'), ('UNSPECIFIED') ) ;
#500 = CARTESIAN_POINT ( 'NONE',  ( 0.000000000000000000, 0.000000000000000000, 0.000000000000000000 ) ) ;
#501 = CARTESIAN_POINT ( 'NONE',  ( 1.703395800618040523, 1.000000000000000000, 2.997976609087734445 ) ) ;
#502 = VECTOR ( 'NONE', #123, 1000.000000000000000 ) ;
#503 = DATE_TIME_ROLE ( 'creation_date' ) ;
#504 = EDGE_LOOP ( 'NONE', ( #581, #416, #142, #398 ) ) ;
#505 = CARTESIAN_POINT ( 'NONE',  ( -85.00000000000001421, 0.000000000000000000, 20.00000000000000711 ) ) ;
#506 = ORIENTED_EDGE ( 'NONE', *, *, #604, .T. ) ;
#507 = CARTESIAN_POINT ( 'NONE',  ( -85.00000000000001421, 1.000000000000000000, 20.00000000000000711 ) ) ;
#508 = EDGE_CURVE ( 'NONE', #183, #103, #204, .T. ) ;
#509 = ORIENTED_EDGE ( 'NONE', *, *, #508, .F. ) ;
#510 = AXIS2_PLACEMENT_3D ( 'NONE', #603, #287, #473 ) ;
#511 = DIRECTION ( 'NONE',  ( 1.000000000000000000, 0.000000000000000000, 0.000000000000000000 ) ) ;
#512 = DIRECTION ( 'NONE',  ( -0.000000000000000000, -1.000000000000000000, -0.000000000000000000 ) ) ;
#513 = ADVANCED_FACE ( 'NONE', ( #345 ), #574, .F. ) ;
#514 = ORIENTED_EDGE ( 'NONE', *, *, #470, .T. ) ;
#515 = VERTEX_POINT ( 'NONE', #532 ) ;
#516 = AXIS2_PLACEMENT_3D ( 'NONE', #175, #352, #594 ) ;
#517 = CC_DESIGN_APPROVAL ( #51, ( #174 ) ) ;
#518 = ORIENTED_EDGE ( 'NONE', *, *, #139, .T. ) ;
#519 = DIRECTION ( 'NONE',  ( -1.000000000000000000, -0.000000000000000000, -0.000000000000000000 ) ) ;
#520 = DIRECTION ( 'NONE',  ( -1.000000000000000000, 0.000000000000000000, 0.000000000000000000 ) ) ;
#521 = CARTESIAN_POINT ( 'NONE',  ( -20.50888543944098785, 1.000000000000000000, 0.000000000000000000 ) ) ;
#522 = CARTESIAN_POINT ( 'NONE',  ( -79.37824430879986437, 1.000000000000000000, 0.000000000000000000 ) ) ;
#523 = ORIENTED_EDGE ( 'NONE', *, *, #48, .F. ) ;
#524 = VECTOR ( 'NONE', #482, 1000.000000000000000 ) ;
#525 = LINE ( 'NONE', #61, #401 ) ;
#526 = ORIENTED_EDGE ( 'NONE', *, *, #423, .F. ) ;
#527 = FACE_BOUND ( 'NONE', #130, .T. ) ;
#528 = CARTESIAN_POINT ( 'NONE',  ( 0.7494941522719316129, 1.000000000000000000, -9.675288147510352488 ) ) ;
#529 = EDGE_CURVE ( 'NONE', #605, #379, #489, .T. ) ;
#530 = COORDINATED_UNIVERSAL_TIME_OFFSET ( 10, 0, .AHEAD. ) ;
#531 = VERTEX_POINT ( 'NONE', #257 ) ;
#532 = CARTESIAN_POINT ( 'NONE',  ( 79.92333096499764622, 1.000000000000000000, -15.80751302973524730 ) ) ;
#533 = DIRECTION ( 'NONE',  ( 0.000000000000000000, -1.000000000000000000, 0.000000000000000000 ) ) ;
#534 = COORDINATED_UNIVERSAL_TIME_OFFSET ( 10, 0, .AHEAD. ) ;
#535 = VERTEX_POINT ( 'NONE', #448 ) ;
#536 = PLANE ( 'NONE',  #302 ) ;
#537 = VECTOR ( 'NONE', #498, 1000.000000000000000 ) ;
#538 = PERSON_AND_ORGANIZATION ( #499, #88 ) ;
#539 = CARTESIAN_POINT ( 'NONE',  ( -42.17608002330224082, 1.000000000000000000, 8.585114835114840304 ) ) ;
#540 = EDGE_CURVE ( 'NONE', #379, #422, #213, .T. ) ;
#541 = CARTESIAN_POINT ( 'NONE',  ( 1.703395800618040523, 1.000000000000000000, 0.000000000000000000 ) ) ;
#542 = DATE_AND_TIME ( #110, #559 ) ;
#543 = EDGE_CURVE ( 'NONE', #103, #515, #351, .T. ) ;
#544 = LINE ( 'NONE', #507, #234 ) ;
#545 = ORIENTED_EDGE ( 'NONE', *, *, #146, .T. ) ;
#546 = CARTESIAN_POINT ( 'NONE',  ( -85.00000000000001421, 1.000000000000000000, -19.99999999999999289 ) ) ;
#547 = FACE_OUTER_BOUND ( 'NONE', #223, .T. ) ;
#548 = EDGE_CURVE ( 'NONE', #85, #474, #195, .T. ) ;
#549 = EDGE_LOOP ( 'NONE', ( #596, #514, #135, #406 ) ) ;
#550 = ORIENTED_EDGE ( 'NONE', *, *, #548, .T. ) ;
#551 = CARTESIAN_POINT ( 'NONE',  ( 0.000000000000000000, 1.000000000000000000, 8.585114835114840304 ) ) ;
#552 = VECTOR ( 'NONE', #298, 1000.000000000000000 ) ;
#553 = ADVANCED_FACE ( 'NONE', ( #282 ), #375, .F. ) ;
#554 = CARTESIAN_POINT ( 'NONE',  ( 0.000000000000000000, 1.000000000000000000, 2.997976609087734445 ) ) ;
#555 = ORIENTED_EDGE ( 'NONE', *, *, #146, .F. ) ;
#556 = LINE ( 'NONE', #328, #201 ) ;
#557 = ORIENTED_EDGE ( 'NONE', *, *, #48, .T. ) ;
#558 = AXIS2_PLACEMENT_3D ( 'NONE', #177, #466, #182 ) ;
#559 = LOCAL_TIME ( 14, 49, 50.00000000000000000, #402 ) ;
#560 = EDGE_LOOP ( 'NONE', ( #208, #318, #236, #442 ) ) ;
#561 = ADVANCED_FACE ( 'NONE', ( #145 ), #247, .F. ) ;
#562 = CARTESIAN_POINT ( 'NONE',  ( 0.000000000000000000, 1.000000000000000000, -12.26444976444976120 ) ) ;
#563 = ORIENTED_EDGE ( 'NONE', *, *, #540, .T. ) ;
#564 = CARTESIAN_POINT ( 'NONE',  ( -85.00000000000001421, 1.000000000000000000, -19.99999999999999289 ) ) ;
#565 = CARTESIAN_POINT ( 'NONE',  ( 0.000000000000000000, 0.000000000000000000, 0.000000000000000000 ) ) ;
#566 = ORIENTED_EDGE ( 'NONE', *, *, #56, .T. ) ;
#567 = CARTESIAN_POINT ( 'NONE',  ( 0.000000000000000000, 1.000000000000000000, 4.905779905779918515 ) ) ;
#568 = FACE_OUTER_BOUND ( 'NONE', #560, .T. ) ;
#569 = ORIENTED_EDGE ( 'NONE', *, *, #543, .T. ) ;
#570 = FACE_BOUND ( 'NONE', #458, .T. ) ;
#571 = CLOSED_SHELL ( 'NONE', ( #455, #382, #407, #561, #553, #513, #178, #444, #168, #115, #295, #488, #258, #350 ) ) ;
#572 = CARTESIAN_POINT ( 'NONE',  ( 0.000000000000000000, 1.000000000000000000, -2.725433280988830642 ) ) ;
#573 = PERSON_AND_ORGANIZATION ( #499, #88 ) ;
#574 = PLANE ( 'NONE',  #377 ) ;
#575 = CARTESIAN_POINT ( 'NONE',  ( 0.000000000000000000, 1.000000000000000000, -15.80751302973524730 ) ) ;
#576 = DATE_AND_TIME ( #211, #254 ) ;
#577 = ORIENTED_EDGE ( 'NONE', *, *, #101, .F. ) ;
#578 = DIRECTION ( 'NONE',  ( 0.000000000000000000, -1.000000000000000000, 0.000000000000000000 ) ) ;
#579 = DIRECTION ( 'NONE',  ( 1.000000000000000000, 0.000000000000000000, 0.000000000000000000 ) ) ;
#580 = CALENDAR_DATE ( 2025, 17, 8 ) ;
#581 = ORIENTED_EDGE ( 'NONE', *, *, #285, .T. ) ;
#582 = PRODUCT ( 'ADR-VIN-PLATE_REV_A', 'ADR-VIN-PLATE_REV_A', '', ( #432 ) ) ;
#583 = DIRECTION ( 'NONE',  ( -1.000000000000000000, 0.000000000000000000, 0.000000000000000000 ) ) ;
#584 = VECTOR ( 'NONE', #436, 1000.000000000000000 ) ;
#585 = PLANE ( 'NONE',  #464 ) ;
#586 = ORIENTED_EDGE ( 'NONE', *, *, #357, .T. ) ;
#587 = CC_DESIGN_PERSON_AND_ORGANIZATION_ASSIGNMENT ( #215, #80, ( #582 ) ) ;
#588 = LINE ( 'NONE', #121, #420 ) ;
#589 = CALENDAR_DATE ( 2025, 17, 8 ) ;
#590 = ORIENTED_EDGE ( 'NONE', *, *, #592, .F. ) ;
#591 = LINE ( 'NONE', #546, #321 ) ;
#592 = EDGE_CURVE ( 'NONE', #595, #172, #284, .T. ) ;
#593 = VECTOR ( 'NONE', #491, 1000.000000000000000 ) ;
#594 = DIRECTION ( 'NONE',  ( 0.000000000000000000, -0.000000000000000000, -1.000000000000000000 ) ) ;
#595 = VERTEX_POINT ( 'NONE', #50 ) ;
#596 = ORIENTED_EDGE ( 'NONE', *, *, #101, .T. ) ;
#597 = DIRECTION ( 'NONE',  ( -0.000000000000000000, -1.000000000000000000, -0.000000000000000000 ) ) ;
#598 = EDGE_CURVE ( 'NONE', #474, #414, #332, .T. ) ;
#599 = VECTOR ( 'NONE', #445, 1000.000000000000000 ) ;
#600 = LINE ( 'NONE', #186, #25 ) ;
#601 = LINE ( 'NONE', #472, #412 ) ;
#602 = EDGE_LOOP ( 'NONE', ( #518, #437, #232, #569 ) ) ;
#603 = CARTESIAN_POINT ( 'NONE',  ( 0.000000000000000000, 1.000000000000000000, 0.000000000000000000 ) ) ;
#604 = EDGE_CURVE ( 'NONE', #311, #124, #99, .T. ) ;
#605 = VERTEX_POINT ( 'NONE', #237 ) ;
ENDSEC;
END-ISO-10303-21;
