ISO-10303-21;
HEADER;
FILE_DESCRIPTION (( 'STEP AP203' ),
    '1' );
FILE_NAME ('CV03-TR-26_REV_B_d1075722e63945cb89ba80d04bb2098c.tmp.step',
    '2026-07-11T06:48:05',
    ( '' ),
    ( '' ),
    'SwSTEP 2.0',
    'SolidWorks 2025',
    '' );
FILE_SCHEMA (( 'CONFIG_CONTROL_DESIGN' ));
ENDSEC;

DATA;
#1 = ADVANCED_BREP_SHAPE_REPRESENTATION ( 'CV03-TR-26_REV_B_d1075722e63945cb89ba80d04bb2098c.tmp', ( #184, #677 ), #587 ) ;
#2 = FACE_BOUND ( 'NONE', #594, .T. ) ;
#3 = EDGE_CURVE ( 'NONE', #335, #220, #679, .T. ) ;
#4 = ORIENTED_EDGE ( 'NONE', *, *, #642, .T. ) ;
#5 = CIRCLE ( 'NONE', #32, 3.000000000000002665 ) ;
#6 = DIRECTION ( 'NONE',  ( -4.690670291524295911E-16, 0.000000000000000000, 1.000000000000000000 ) ) ;
#7 = EDGE_LOOP ( 'NONE', ( #86, #551, #591, #308 ) ) ;
#8 = CIRCLE ( 'NONE', #309, 4.000000000000003553 ) ;
#9 = APPROVAL_ROLE ( '' ) ;
#10 = CARTESIAN_POINT ( 'NONE',  ( -1175.000000000000000, -1174.305262667903889, -333.9999999999998295 ) ) ;
#11 = DIRECTION ( 'NONE',  ( 0.000000000000000000, 1.000000000000000000, 0.000000000000000000 ) ) ;
#12 = CC_DESIGN_PERSON_AND_ORGANIZATION_ASSIGNMENT ( #196, #205, ( #345 ) ) ;
#13 = APPROVAL_DATE_TIME ( #757, #221 ) ;
#14 = DIRECTION ( 'NONE',  ( 0.000000000000000000, 0.000000000000000000, 1.000000000000000000 ) ) ;
#15 = AXIS2_PLACEMENT_3D ( 'NONE', #61, #435, #669 ) ;
#16 = DIRECTION ( 'NONE',  ( 4.690670291524295911E-16, -0.000000000000000000, -1.000000000000000000 ) ) ;
#17 = VECTOR ( 'NONE', #665, 1000.000000000000000 ) ;
#18 = AXIS2_PLACEMENT_3D ( 'NONE', #109, #164, #411 ) ;
#19 = AXIS2_PLACEMENT_3D ( 'NONE', #689, #397, #632 ) ;
#20 = DIRECTION ( 'NONE',  ( -4.690670291524295911E-16, -0.000000000000000000, 1.000000000000000000 ) ) ;
#21 = VECTOR ( 'NONE', #648, 1000.000000000000000 ) ;
#22 = CARTESIAN_POINT ( 'NONE',  ( -1196.999999999999545, -1174.305262667903889, -354.9999999999993179 ) ) ;
#23 = ORIENTED_EDGE ( 'NONE', *, *, #262, .T. ) ;
#24 = VECTOR ( 'NONE', #321, 1000.000000000000000 ) ;
#25 = APPROVAL_ROLE ( '' ) ;
#26 = DIRECTION ( 'NONE',  ( 0.000000000000000000, 1.000000000000000000, 0.000000000000000000 ) ) ;
#27 = DIRECTION ( 'NONE',  ( 0.000000000000000000, 0.000000000000000000, 1.000000000000000000 ) ) ;
#28 = DIRECTION ( 'NONE',  ( -4.690670291524295911E-16, 0.000000000000000000, 1.000000000000000000 ) ) ;
#29 = CC_DESIGN_DATE_AND_TIME_ASSIGNMENT ( #614, #753, ( #157 ) ) ;
#30 = EDGE_LOOP ( 'NONE', ( #93, #273, #82, #160, #655, #270 ) ) ;
#31 = ADVANCED_FACE ( 'NONE', ( #334, #215, #634, #328 ), #393, .F. ) ;
#32 = AXIS2_PLACEMENT_3D ( 'NONE', #706, #653, #37 ) ;
#33 = LOCAL_TIME ( 16, 48, 5.000000000000000000, #91 ) ;
#34 = APPLICATION_CONTEXT ( 'configuration controlled 3d designs of mechanical parts and assemblies' ) ;
#35 = CARTESIAN_POINT ( 'NONE',  ( -1199.999999999999545, -1180.305262667903889, -320.9999999999993179 ) ) ;
#36 = AXIS2_PLACEMENT_3D ( 'NONE', #570, #457, #27 ) ;
#37 = DIRECTION ( 'NONE',  ( 0.000000000000000000, 0.000000000000000000, 1.000000000000000000 ) ) ;
#38 = VERTEX_POINT ( 'NONE', #203 ) ;
#39 = EDGE_CURVE ( 'NONE', #772, #365, #207, .T. ) ;
#40 = AXIS2_PLACEMENT_3D ( 'NONE', #422, #660, #504 ) ;
#41 = LINE ( 'NONE', #456, #83 ) ;
#42 = LINE ( 'NONE', #287, #698 ) ;
#43 = EDGE_LOOP ( 'NONE', ( #490, #690, #119, #381 ) ) ;
#44 = APPROVAL ( #199, 'UNSPECIFIED' ) ;
#45 = CARTESIAN_POINT ( 'NONE',  ( -940.0000000000000000, -1177.305262667903662, -354.9999999999991473 ) ) ;
#46 = CARTESIAN_POINT ( 'NONE',  ( -1199.999999999999545, -1180.305262667903889, -320.9999999999993179 ) ) ;
#47 = ORIENTED_EDGE ( 'NONE', *, *, #439, .F. ) ;
#48 = CARTESIAN_POINT ( 'NONE',  ( -940.0000000000000000, -1177.305262667903662, -320.9999999999991473 ) ) ;
#49 = DIRECTION ( 'NONE',  ( 0.000000000000000000, 0.000000000000000000, 1.000000000000000000 ) ) ;
#50 = EDGE_CURVE ( 'NONE', #759, #749, #549, .T. ) ;
#51 = VERTEX_POINT ( 'NONE', #763 ) ;
#52 = CARTESIAN_POINT ( 'NONE',  ( -1075.000000000000000, -1174.305262667903889, -333.9999999999998295 ) ) ;
#53 = AXIS2_PLACEMENT_3D ( 'NONE', #144, #279, #264 ) ;
#54 = DIRECTION ( 'NONE',  ( -1.000000000000000000, 0.000000000000000000, -4.690670291524295911E-16 ) ) ;
#55 = ORIENTED_EDGE ( 'NONE', *, *, #631, .F. ) ;
#56 = CARTESIAN_POINT ( 'NONE',  ( -940.0000000000000000, -1177.305262667903662, -354.9999999999991473 ) ) ;
#57 = DIRECTION ( 'NONE',  ( 1.000000000000000000, -0.000000000000000000, 4.690670291524295911E-16 ) ) ;
#58 = EDGE_CURVE ( 'NONE', #64, #329, #702, .T. ) ;
#59 = EDGE_LOOP ( 'NONE', ( #496, #136, #212, #521 ) ) ;
#60 = EDGE_CURVE ( 'NONE', #113, #412, #686, .T. ) ;
#61 = CARTESIAN_POINT ( 'NONE',  ( -940.0000000000000000, -1180.305262667903889, -320.9999999999991473 ) ) ;
#62 = AXIS2_PLACEMENT_3D ( 'NONE', #46, #650, #49 ) ;
#63 = DIRECTION ( 'NONE',  ( 0.000000000000000000, 0.000000000000000000, 1.000000000000000000 ) ) ;
#64 = VERTEX_POINT ( 'NONE', #22 ) ;
#65 = CLOSED_SHELL ( 'NONE', ( #773, #351, #524, #533, #405, #202, #770, #71, #566, #462, #560, #332, #743, #740, #756, #443, #730, #427, #571, #66, #31, #681, #461, #301 ) ) ;
#66 = ADVANCED_FACE ( 'NONE', ( #628 ), #277, .F. ) ;
#67 = CARTESIAN_POINT ( 'NONE',  ( -1199.999999999999545, -1174.305262667903889, -354.9999999999993179 ) ) ;
#68 = DIRECTION ( 'NONE',  ( 0.000000000000000000, 0.000000000000000000, 1.000000000000000000 ) ) ;
#69 = ORIENTED_EDGE ( 'NONE', *, *, #432, .T. ) ;
#70 = CIRCLE ( 'NONE', #274, 4.000000000000003553 ) ;
#71 = ADVANCED_FACE ( 'NONE', ( #696 ), #512, .F. ) ;
#72 = DIRECTION ( 'NONE',  ( 1.000000000000000000, 0.000000000000000000, 0.000000000000000000 ) ) ;
#73 = EDGE_CURVE ( 'NONE', #727, #288, #142, .T. ) ;
#74 = DIRECTION ( 'NONE',  ( 0.000000000000000000, 1.000000000000000000, 0.000000000000000000 ) ) ;
#75 = ORIENTED_EDGE ( 'NONE', *, *, #642, .F. ) ;
#76 = LINE ( 'NONE', #186, #17 ) ;
#77 = PLANE ( 'NONE',  #434 ) ;
#78 = SECURITY_CLASSIFICATION ( '', '', #336 ) ;
#79 = EDGE_CURVE ( 'NONE', #362, #64, #5, .T. ) ;
#80 = VERTEX_POINT ( 'NONE', #768 ) ;
#81 = LINE ( 'NONE', #391, #297 ) ;
#82 = ORIENTED_EDGE ( 'NONE', *, *, #195, .F. ) ;
#83 = VECTOR ( 'NONE', #228, 1000.000000000000000 ) ;
#84 = PERSON_AND_ORGANIZATION ( #649, #162 ) ;
#85 = DIRECTION ( 'NONE',  ( 0.000000000000000000, 1.000000000000000000, 0.000000000000000000 ) ) ;
#86 = ORIENTED_EDGE ( 'NONE', *, *, #624, .F. ) ;
#87 = EDGE_CURVE ( 'NONE', #362, #441, #467, .T. ) ;
#88 = CARTESIAN_POINT ( 'NONE',  ( -940.0000000000000000, -1174.305262667903889, -320.9999999999991473 ) ) ;
#89 = CIRCLE ( 'NONE', #719, 4.000000000000003553 ) ;
#90 = CARTESIAN_POINT ( 'NONE',  ( -1199.999999999999545, -1177.305262667903662, -354.9999999999993179 ) ) ;
#91 = COORDINATED_UNIVERSAL_TIME_OFFSET ( 10, 0, .AHEAD. ) ;
#92 = FACE_OUTER_BOUND ( 'NONE', #7, .T. ) ;
#93 = ORIENTED_EDGE ( 'NONE', *, *, #647, .T. ) ;
#94 = ORIENTED_EDGE ( 'NONE', *, *, #100, .T. ) ;
#95 = PERSON_AND_ORGANIZATION ( #649, #162 ) ;
#96 = CARTESIAN_POINT ( 'NONE',  ( -940.0000000000000000, -1180.305262667903889, -314.9999999999992042 ) ) ;
#97 = CARTESIAN_POINT ( 'NONE',  ( -1199.999999999999545, -1180.305262667903889, -317.9999999999993179 ) ) ;
#98 = CARTESIAN_POINT ( 'NONE',  ( -1075.000000000000000, -1177.305262667903662, -333.9999999999998295 ) ) ;
#99 = CARTESIAN_POINT ( 'NONE',  ( -1196.999999999999545, -1177.305262667903662, -354.9999999999993179 ) ) ;
#100 = EDGE_CURVE ( 'NONE', #558, #532, #150, .T. ) ;
#101 = VERTEX_POINT ( 'NONE', #517 ) ;
#102 = DIRECTION ( 'NONE',  ( 0.000000000000000000, 0.000000000000000000, 1.000000000000000000 ) ) ;
#103 = CARTESIAN_POINT ( 'NONE',  ( -1199.999999999999545, -1211.305262667903889, -314.9999999999993179 ) ) ;
#104 = EDGE_LOOP ( 'NONE', ( #651, #795, #311, #515 ) ) ;
#105 = DIRECTION ( 'NONE',  ( -0.000000000000000000, -1.000000000000000000, -0.000000000000000000 ) ) ;
#106 = CARTESIAN_POINT ( 'NONE',  ( -940.0000000000000000, -1180.305262667903889, -320.9999999999992042 ) ) ;
#107 = ORIENTED_EDGE ( 'NONE', *, *, #340, .F. ) ;
#108 = DIRECTION ( 'NONE',  ( 1.000000000000000000, -0.000000000000000000, 4.690670291524295911E-16 ) ) ;
#109 = CARTESIAN_POINT ( 'NONE',  ( -943.0000000000000000, -1177.305262667903662, -351.9999999999992042 ) ) ;
#110 = ORIENTED_EDGE ( 'NONE', *, *, #3, .T. ) ;
#111 = DIRECTION ( 'NONE',  ( 4.690670291524295911E-16, 0.000000000000000000, -1.000000000000000000 ) ) ;
#112 = DIRECTION ( 'NONE',  ( 4.690670291524295911E-16, 0.000000000000000000, -1.000000000000000000 ) ) ;
#113 = VERTEX_POINT ( 'NONE', #717 ) ;
#114 = CYLINDRICAL_SURFACE ( 'NONE', #721, 4.000000000000003553 ) ;
#115 = DIRECTION ( 'NONE',  ( 0.000000000000000000, 1.000000000000000000, 0.000000000000000000 ) ) ;
#116 = ORIENTED_EDGE ( 'NONE', *, *, #555, .F. ) ;
#117 = DIRECTION ( 'NONE',  ( 0.000000000000000000, 0.000000000000000000, 1.000000000000000000 ) ) ;
#118 = DIRECTION ( 'NONE',  ( 0.000000000000000000, 1.000000000000000000, 0.000000000000000000 ) ) ;
#119 = ORIENTED_EDGE ( 'NONE', *, *, #87, .T. ) ;
#120 = EDGE_CURVE ( 'NONE', #101, #51, #268, .T. ) ;
#121 = CARTESIAN_POINT ( 'NONE',  ( -940.0000000000000000, -1174.305262667903889, -351.9999999999992042 ) ) ;
#122 = CIRCLE ( 'NONE', #637, 4.000000000000003553 ) ;
#123 = CARTESIAN_POINT ( 'NONE',  ( -1196.999999999999545, -1177.305262667903662, -354.9999999999993179 ) ) ;
#124 = ORIENTED_EDGE ( 'NONE', *, *, #340, .T. ) ;
#125 = VECTOR ( 'NONE', #111, 1000.000000000000000 ) ;
#126 = VECTOR ( 'NONE', #118, 1000.000000000000000 ) ;
#127 = LINE ( 'NONE', #310, #779 ) ;
#128 = VECTOR ( 'NONE', #673, 1000.000000000000000 ) ;
#129 = ORIENTED_EDGE ( 'NONE', *, *, #290, .T. ) ;
#130 = DIRECTION ( 'NONE',  ( 0.000000000000000000, 0.000000000000000000, 1.000000000000000000 ) ) ;
#131 = EDGE_CURVE ( 'NONE', #697, #358, #392, .T. ) ;
#132 = DIRECTION ( 'NONE',  ( 1.000000000000000000, 0.000000000000000000, 0.000000000000000000 ) ) ;
#133 = EDGE_LOOP ( 'NONE', ( #69, #204 ) ) ;
#134 = COORDINATED_UNIVERSAL_TIME_OFFSET ( 10, 0, .AHEAD. ) ;
#135 = LINE ( 'NONE', #276, #24 ) ;
#136 = ORIENTED_EDGE ( 'NONE', *, *, #389, .T. ) ;
#137 = APPROVAL_PERSON_ORGANIZATION ( #564, #554, #263 ) ;
#138 = VECTOR ( 'NONE', #577, 1000.000000000000000 ) ;
#139 = CALENDAR_DATE ( 2026, 11, 7 ) ;
#140 = EDGE_CURVE ( 'NONE', #220, #431, #344, .T. ) ;
#141 = DIRECTION ( 'NONE',  ( 0.000000000000000000, 0.000000000000000000, 1.000000000000000000 ) ) ;
#142 = LINE ( 'NONE', #385, #258 ) ;
#143 = AXIS2_PLACEMENT_3D ( 'NONE', #35, #529, #769 ) ;
#144 = CARTESIAN_POINT ( 'NONE',  ( -1196.999999999999545, -1177.305262667903662, -351.9999999999993179 ) ) ;
#145 = VERTEX_POINT ( 'NONE', #775 ) ;
#146 = EDGE_CURVE ( 'NONE', #220, #335, #122, .T. ) ;
#147 = PERSON_AND_ORGANIZATION ( #649, #162 ) ;
#148 = DIRECTION ( 'NONE',  ( 0.000000000000000000, 0.000000000000000000, 1.000000000000000000 ) ) ;
#149 = ORIENTED_EDGE ( 'NONE', *, *, #100, .F. ) ;
#150 = CIRCLE ( 'NONE', #174, 6.000000000000005329 ) ;
#151 = EDGE_CURVE ( 'NONE', #288, #365, #316, .T. ) ;
#152 = PLANE ( 'NONE',  #190 ) ;
#153 = ORIENTED_EDGE ( 'NONE', *, *, #765, .T. ) ;
#154 = AXIS2_PLACEMENT_3D ( 'NONE', #313, #793, #132 ) ;
#155 = LINE ( 'NONE', #470, #247 ) ;
#156 = ORIENTED_EDGE ( 'NONE', *, *, #613, .T. ) ;
#157 = PRODUCT_DEFINITION ( 'UNKNOWN', '', #345, #226 ) ;
#158 = DIRECTION ( 'NONE',  ( 0.000000000000000000, 1.000000000000000000, 0.000000000000000000 ) ) ;
#159 = DIRECTION ( 'NONE',  ( 4.690670291524295911E-16, 0.000000000000000000, -1.000000000000000000 ) ) ;
#160 = ORIENTED_EDGE ( 'NONE', *, *, #323, .F. ) ;
#161 = VECTOR ( 'NONE', #159, 1000.000000000000000 ) ;
#162 = ORGANIZATION ( 'UNSPECIFIED', 'UNSPECIFIED', '' ) ;
#163 = DIRECTION ( 'NONE',  ( 0.000000000000000000, 0.000000000000000000, -1.000000000000000000 ) ) ;
#164 = DIRECTION ( 'NONE',  ( -0.000000000000000000, -1.000000000000000000, -0.000000000000000000 ) ) ;
#165 = VECTOR ( 'NONE', #400, 1000.000000000000000 ) ;
#166 = ORIENTED_EDGE ( 'NONE', *, *, #140, .T. ) ;
#167 = CARTESIAN_POINT ( 'NONE',  ( -1199.999999999999545, -1174.305262667903889, -317.9999999999993179 ) ) ;
#168 = CARTESIAN_POINT ( 'NONE',  ( -940.0000000000000000, -1174.305262667903889, -354.9999999999993179 ) ) ;
#169 = ORIENTED_EDGE ( 'NONE', *, *, #213, .F. ) ;
#170 = CARTESIAN_POINT ( 'NONE',  ( -1199.999999999999545, -1214.305262667903889, -317.9999999999993179 ) ) ;
#171 = DIRECTION ( 'NONE',  ( -4.690670291524295911E-16, -0.000000000000000000, 1.000000000000000000 ) ) ;
#172 = EDGE_LOOP ( 'NONE', ( #216, #494, #505, #576 ) ) ;
#173 = EDGE_CURVE ( 'NONE', #369, #683, #341, .T. ) ;
#174 = AXIS2_PLACEMENT_3D ( 'NONE', #106, #54, #283 ) ;
#175 = DIRECTION ( 'NONE',  ( 1.000000000000000000, -0.000000000000000000, 4.690670291524295911E-16 ) ) ;
#176 = EDGE_CURVE ( 'NONE', #288, #749, #233, .T. ) ;
#177 = DIRECTION ( 'NONE',  ( 0.000000000000000000, 1.000000000000000000, 0.000000000000000000 ) ) ;
#178 = ORIENTED_EDGE ( 'NONE', *, *, #782, .T. ) ;
#179 = CARTESIAN_POINT ( 'NONE',  ( -943.0000000000000000, -1214.305262667903889, -314.9999999999992042 ) ) ;
#180 = EDGE_CURVE ( 'NONE', #38, #661, #356, .T. ) ;
#181 = ORIENTED_EDGE ( 'NONE', *, *, #511, .F. ) ;
#182 = DIRECTION ( 'NONE',  ( 0.000000000000000000, 1.000000000000000000, 0.000000000000000000 ) ) ;
#183 = DIRECTION ( 'NONE',  ( 4.690670291524295911E-16, 0.000000000000000000, -1.000000000000000000 ) ) ;
#184 = MANIFOLD_SOLID_BREP ( 'Convert-Solid1', #65 ) ;
#185 = VERTEX_POINT ( 'NONE', #291 ) ;
#186 = CARTESIAN_POINT ( 'NONE',  ( -1199.999999999999545, -1174.305262667903889, -314.9999999999993179 ) ) ;
#187 = LINE ( 'NONE', #242, #333 ) ;
#188 = ORIENTED_EDGE ( 'NONE', *, *, #146, .F. ) ;
#189 = CARTESIAN_POINT ( 'NONE',  ( -1196.999999999999545, -1214.305262667903889, -314.9999999999993179 ) ) ;
#190 = AXIS2_PLACEMENT_3D ( 'NONE', #384, #615, #754 ) ;
#191 = ORIENTED_EDGE ( 'NONE', *, *, #173, .F. ) ;
#192 = PRODUCT ( 'CV03-TR-26_REV_B_d1075722e63945cb89ba80d04bb2098c.tmp', 'CV03-TR-26_REV_B_d1075722e63945cb89ba80d04bb2098c.tmp', '', ( #735 ) ) ;
#193 = CARTESIAN_POINT ( 'NONE',  ( -1125.000000000000000, -1174.305262667903889, -341.9999999999998863 ) ) ;
#194 = VERTEX_POINT ( 'NONE', #472 ) ;
#195 = EDGE_CURVE ( 'NONE', #737, #532, #418, .T. ) ;
#196 = PERSON_AND_ORGANIZATION ( #649, #162 ) ;
#197 = CARTESIAN_POINT ( 'NONE',  ( -1196.999999999999545, -1177.305262667903662, -351.9999999999993179 ) ) ;
#198 = DIRECTION ( 'NONE',  ( 1.000000000000000000, -0.000000000000000000, 4.690670291524295911E-16 ) ) ;
#199 = APPROVAL_STATUS ( 'not_yet_approved' ) ;
#200 = DIRECTION ( 'NONE',  ( 1.000000000000000000, 0.000000000000000000, 0.000000000000000000 ) ) ;
#201 = CIRCLE ( 'NONE', #359, 3.000000000000002665 ) ;
#202 = ADVANCED_FACE ( 'NONE', ( #463 ), #353, .T. ) ;
#203 = CARTESIAN_POINT ( 'NONE',  ( -940.0000000000000000, -1211.305262667903889, -314.9999999999992042 ) ) ;
#204 = ORIENTED_EDGE ( 'NONE', *, *, #224, .T. ) ;
#205 = PERSON_AND_ORGANIZATION_ROLE ( 'design_supplier' ) ;
#206 = DIRECTION ( 'NONE',  ( 0.000000000000000000, 1.000000000000000000, 0.000000000000000000 ) ) ;
#207 = LINE ( 'NONE', #97, #227 ) ;
#208 = ORIENTED_EDGE ( 'NONE', *, *, #380, .F. ) ;
#209 = DATE_AND_TIME ( #324, #777 ) ;
#210 = LOCAL_TIME ( 16, 48, 5.000000000000000000, #134 ) ;
#211 = CARTESIAN_POINT ( 'NONE',  ( -1125.000000000000000, -1174.305262667903889, -337.9999999999998295 ) ) ;
#212 = ORIENTED_EDGE ( 'NONE', *, *, #692, .T. ) ;
#213 = EDGE_CURVE ( 'NONE', #358, #697, #482, .T. ) ;
#214 = DIRECTION ( 'NONE',  ( 4.690670291524295911E-16, 0.000000000000000000, -1.000000000000000000 ) ) ;
#215 = FACE_BOUND ( 'NONE', #133, .T. ) ;
#216 = ORIENTED_EDGE ( 'NONE', *, *, #595, .F. ) ;
#217 = AXIS2_PLACEMENT_3D ( 'NONE', #460, #465, #708 ) ;
#218 = DIRECTION ( 'NONE',  ( 0.000000000000000000, 1.000000000000000000, 0.000000000000000000 ) ) ;
#219 = DIRECTION ( 'NONE',  ( 4.690670291524295911E-16, 0.000000000000000000, -1.000000000000000000 ) ) ;
#220 = VERTEX_POINT ( 'NONE', #404 ) ;
#221 = APPROVAL ( #678, 'UNSPECIFIED' ) ;
#222 = FACE_OUTER_BOUND ( 'NONE', #43, .T. ) ;
#223 = CARTESIAN_POINT ( 'NONE',  ( -940.0000000000000000, -1174.305262667903889, -314.9999999999992042 ) ) ;
#224 = EDGE_CURVE ( 'NONE', #314, #113, #676, .T. ) ;
#225 = ORIENTED_EDGE ( 'NONE', *, *, #674, .T. ) ;
#226 = DESIGN_CONTEXT ( 'detailed design', #34, 'design' ) ;
#227 = VECTOR ( 'NONE', #16, 1000.000000000000000 ) ;
#228 = DIRECTION ( 'NONE',  ( -0.000000000000000000, -1.000000000000000000, -0.000000000000000000 ) ) ;
#229 = CARTESIAN_POINT ( 'NONE',  ( -1199.999999999999545, -1177.305262667903889, -320.9999999999993179 ) ) ;
#230 = ORIENTED_EDGE ( 'NONE', *, *, #658, .T. ) ;
#231 = AXIS2_PLACEMENT_3D ( 'NONE', #688, #685, #148 ) ;
#232 = DIRECTION ( 'NONE',  ( 0.000000000000000000, -0.000000000000000000, 1.000000000000000000 ) ) ;
#233 = LINE ( 'NONE', #229, #503 ) ;
#234 = CC_DESIGN_PERSON_AND_ORGANIZATION_ASSIGNMENT ( #95, #625, ( #78 ) ) ;
#235 = ORIENTED_EDGE ( 'NONE', *, *, #413, .F. ) ;
#236 = DIRECTION ( 'NONE',  ( -0.000000000000000000, -1.000000000000000000, -0.000000000000000000 ) ) ;
#237 = ORIENTED_EDGE ( 'NONE', *, *, #389, .F. ) ;
#238 = VECTOR ( 'NONE', #236, 1000.000000000000000 ) ;
#239 = EDGE_CURVE ( 'NONE', #661, #326, #428, .T. ) ;
#240 = CC_DESIGN_APPROVAL ( #221, ( #78 ) ) ;
#241 =( NAMED_UNIT ( * ) SI_UNIT ( $, .STERADIAN. ) SOLID_ANGLE_UNIT ( ) );
#242 = CARTESIAN_POINT ( 'NONE',  ( -1199.999999999999545, -1177.305262667903662, -354.9999999999993179 ) ) ;
#243 = AXIS2_PLACEMENT_3D ( 'NONE', #745, #198, #682 ) ;
#244 = EDGE_LOOP ( 'NONE', ( #235, #47 ) ) ;
#245 = CC_DESIGN_APPROVAL ( #554, ( #157 ) ) ;
#246 = DIRECTION ( 'NONE',  ( 0.000000000000000000, 1.000000000000000000, 0.000000000000000000 ) ) ;
#247 = VECTOR ( 'NONE', #108, 1000.000000000000000 ) ;
#248 = CARTESIAN_POINT ( 'NONE',  ( -940.0000000000000000, -1180.305262667903889, -317.9999999999991473 ) ) ;
#249 = VERTEX_POINT ( 'NONE', #103 ) ;
#250 = DIRECTION ( 'NONE',  ( 1.000000000000000000, -0.000000000000000000, 0.000000000000000000 ) ) ;
#251 = CARTESIAN_POINT ( 'NONE',  ( -1075.000000000000000, -1177.305262667903662, -337.9999999999998295 ) ) ;
#252 = EDGE_LOOP ( 'NONE', ( #478, #785 ) ) ;
#253 = AXIS2_PLACEMENT_3D ( 'NONE', #657, #219, #640 ) ;
#254 = VECTOR ( 'NONE', #299, 1000.000000000000000 ) ;
#255 = CARTESIAN_POINT ( 'NONE',  ( -1199.999999999999545, -1174.305262667903889, -354.9999999999993179 ) ) ;
#256 = PRODUCT_DEFINITION_SHAPE ( 'NONE', 'NONE',  #157 ) ;
#257 = ORIENTED_EDGE ( 'NONE', *, *, #262, .F. ) ;
#258 = VECTOR ( 'NONE', #616, 1000.000000000000000 ) ;
#259 = CARTESIAN_POINT ( 'NONE',  ( -1075.000000000000000, -1174.305262667903889, -341.9999999999998863 ) ) ;
#260 = CIRCLE ( 'NONE', #699, 2.999999999999891642 ) ;
#261 = EDGE_LOOP ( 'NONE', ( #750, #346, #473, #781 ) ) ;
#262 = EDGE_CURVE ( 'NONE', #185, #101, #42, .T. ) ;
#263 = APPROVAL_ROLE ( '' ) ;
#264 = DIRECTION ( 'NONE',  ( 0.000000000000000000, 0.000000000000000000, 1.000000000000000000 ) ) ;
#265 = DIRECTION ( 'NONE',  ( 1.000000000000000000, 0.000000000000000000, 4.690670291524295911E-16 ) ) ;
#266 = PERSON_AND_ORGANIZATION ( #649, #162 ) ;
#267 = DIRECTION ( 'NONE',  ( 0.000000000000000000, 1.000000000000000000, 0.000000000000000000 ) ) ;
#268 = CIRCLE ( 'NONE', #18, 3.000000000000002665 ) ;
#269 = EDGE_LOOP ( 'NONE', ( #354, #169 ) ) ;
#270 = ORIENTED_EDGE ( 'NONE', *, *, #79, .F. ) ;
#271 = VECTOR ( 'NONE', #232, 1000.000000000000000 ) ;
#272 = CARTESIAN_POINT ( 'NONE',  ( -1125.000000000000000, -1177.305262667903662, -337.9999999999998295 ) ) ;
#273 = ORIENTED_EDGE ( 'NONE', *, *, #605, .T. ) ;
#274 = AXIS2_PLACEMENT_3D ( 'NONE', #371, #115, #303 ) ;
#275 = APPROVAL_DATE_TIME ( #209, #44 ) ;
#276 = CARTESIAN_POINT ( 'NONE',  ( -1199.999999999999545, -1177.305262667903662, -354.9999999999993179 ) ) ;
#277 = PLANE ( 'NONE',  #575 ) ;
#278 = ORIENTED_EDGE ( 'NONE', *, *, #285, .T. ) ;
#279 = DIRECTION ( 'NONE',  ( -0.000000000000000000, -1.000000000000000000, -0.000000000000000000 ) ) ;
#280 = ORIENTED_EDGE ( 'NONE', *, *, #664, .F. ) ;
#281 = AXIS2_PLACEMENT_3D ( 'NONE', #415, #523, #722 ) ;
#282 = CARTESIAN_POINT ( 'NONE',  ( -1199.999999999999545, -1180.305262667903889, -320.9999999999993179 ) ) ;
#283 = DIRECTION ( 'NONE',  ( 0.000000000000000000, 0.000000000000000000, -1.000000000000000000 ) ) ;
#284 = VERTEX_POINT ( 'NONE', #771 ) ;
#285 = EDGE_CURVE ( 'NONE', #558, #38, #709, .T. ) ;
#286 = PLANE ( 'NONE',  #217 ) ;
#287 = CARTESIAN_POINT ( 'NONE',  ( -943.0000000000000000, -1177.305262667903662, -354.9999999999992042 ) ) ;
#288 = VERTEX_POINT ( 'NONE', #542 ) ;
#289 = CARTESIAN_POINT ( 'NONE',  ( -940.0000000000000000, -1211.305262667903889, -317.9999999999991473 ) ) ;
#290 = EDGE_CURVE ( 'NONE', #80, #358, #437, .T. ) ;
#291 = CARTESIAN_POINT ( 'NONE',  ( -943.0000000000000000, -1174.305262667903889, -354.9999999999992042 ) ) ;
#292 = ORIENTED_EDGE ( 'NONE', *, *, #493, .T. ) ;
#293 = CARTESIAN_POINT ( 'NONE',  ( -1199.999999999999545, -1214.305262667903889, -314.9999999999993179 ) ) ;
#294 = DIRECTION ( 'NONE',  ( 0.000000000000000000, 0.000000000000000000, 1.000000000000000000 ) ) ;
#295 = ORIENTED_EDGE ( 'NONE', *, *, #658, .F. ) ;
#296 = AXIS2_PLACEMENT_3D ( 'NONE', #597, #606, #63 ) ;
#297 = VECTOR ( 'NONE', #627, 1000.000000000000000 ) ;
#298 = DIRECTION ( 'NONE',  ( 1.000000000000000000, -0.000000000000000000, 4.690670291524295911E-16 ) ) ;
#299 = DIRECTION ( 'NONE',  ( 0.000000000000000000, -0.000000000000000000, 1.000000000000000000 ) ) ;
#300 = ORIENTED_EDGE ( 'NONE', *, *, #357, .F. ) ;
#301 = ADVANCED_FACE ( 'NONE', ( #535, #2, #307, #602 ), #77, .T. ) ;
#302 = CARTESIAN_POINT ( 'NONE',  ( -940.0000000000000000, -1177.305262667903662, -320.9999999999991473 ) ) ;
#303 = DIRECTION ( 'NONE',  ( 0.000000000000000000, 0.000000000000000000, 1.000000000000000000 ) ) ;
#304 = VERTEX_POINT ( 'NONE', #179 ) ;
#305 = PRODUCT_RELATED_PRODUCT_CATEGORY ( 'detail', '', ( #192 ) ) ;
#306 = CARTESIAN_POINT ( 'NONE',  ( -1175.000000000000000, -1177.305262667903662, -337.9999999999998295 ) ) ;
#307 = FACE_BOUND ( 'NONE', #269, .T. ) ;
#308 = ORIENTED_EDGE ( 'NONE', *, *, #507, .T. ) ;
#309 = AXIS2_PLACEMENT_3D ( 'NONE', #501, #506, #325 ) ;
#310 = CARTESIAN_POINT ( 'NONE',  ( -1199.999999999999545, -1180.305262667903889, -317.9999999999993179 ) ) ;
#311 = ORIENTED_EDGE ( 'NONE', *, *, #704, .T. ) ;
#312 = PLANE ( 'NONE',  #15 ) ;
#313 = CARTESIAN_POINT ( 'NONE',  ( -943.0000000000000000, -1211.305262667903889, -314.9999999999992042 ) ) ;
#314 = VERTEX_POINT ( 'NONE', #425 ) ;
#315 = DIRECTION ( 'NONE',  ( 4.690670291524295911E-16, 0.000000000000000000, -1.000000000000000000 ) ) ;
#316 = CIRCLE ( 'NONE', #62, 3.000000000000002665 ) ;
#317 = CARTESIAN_POINT ( 'NONE',  ( -943.0000000000000000, -1214.305262667903889, -317.9999999999992042 ) ) ;
#318 = ORIENTED_EDGE ( 'NONE', *, *, #493, .F. ) ;
#319 = DATE_AND_TIME ( #395, #33 ) ;
#320 = CIRCLE ( 'NONE', #590, 4.000000000000003553 ) ;
#321 = DIRECTION ( 'NONE',  ( 1.000000000000000000, -0.000000000000000000, 4.690670291524295911E-16 ) ) ;
#322 = EDGE_LOOP ( 'NONE', ( #755, #156, #603, #94 ) ) ;
#323 = EDGE_CURVE ( 'NONE', #185, #737, #201, .T. ) ;
#324 = CALENDAR_DATE ( 2026, 11, 7 ) ;
#325 = DIRECTION ( 'NONE',  ( 0.000000000000000000, 0.000000000000000000, 1.000000000000000000 ) ) ;
#326 = VERTEX_POINT ( 'NONE', #317 ) ;
#327 = CYLINDRICAL_SURFACE ( 'NONE', #458, 3.000000000000002665 ) ;
#328 = FACE_OUTER_BOUND ( 'NONE', #710, .T. ) ;
#329 = VERTEX_POINT ( 'NONE', #123 ) ;
#330 = PERSON_AND_ORGANIZATION_ROLE ( 'design_owner' ) ;
#331 = LINE ( 'NONE', #565, #739 ) ;
#332 = ADVANCED_FACE ( 'NONE', ( #666 ), #662, .T. ) ;
#333 = VECTOR ( 'NONE', #6, 1000.000000000000000 ) ;
#334 = FACE_BOUND ( 'NONE', #675, .T. ) ;
#335 = VERTEX_POINT ( 'NONE', #545 ) ;
#336 = SECURITY_CLASSIFICATION_LEVEL ( 'unclassified' ) ;
#337 = FACE_OUTER_BOUND ( 'NONE', #546, .T. ) ;
#338 = EDGE_LOOP ( 'NONE', ( #116, #188, #166, #376 ) ) ;
#339 = CARTESIAN_POINT ( 'NONE',  ( -1199.999999999999545, -1174.305262667903889, -320.9999999999993179 ) ) ;
#340 = EDGE_CURVE ( 'NONE', #558, #759, #736, .T. ) ;
#341 = LINE ( 'NONE', #780, #761 ) ;
#342 = VECTOR ( 'NONE', #218, 1000.000000000000000 ) ;
#343 = CARTESIAN_POINT ( 'NONE',  ( -1199.999999999999545, -1180.305262667903889, -314.9999999999993179 ) ) ;
#344 = LINE ( 'NONE', #349, #654 ) ;
#345 = PRODUCT_DEFINITION_FORMATION_WITH_SPECIFIED_SOURCE ( 'ANY', '', #192, .NOT_KNOWN. ) ;
#346 = ORIENTED_EDGE ( 'NONE', *, *, #613, .F. ) ;
#347 = AXIS2_PLACEMENT_3D ( 'NONE', #282, #414, #163 ) ;
#348 = DIRECTION ( 'NONE',  ( -0.000000000000000000, -1.000000000000000000, -1.485867537138009907E-14 ) ) ;
#349 = CARTESIAN_POINT ( 'NONE',  ( -1175.000000000000000, -1177.305262667903662, -333.9999999999998295 ) ) ;
#350 = ORIENTED_EDGE ( 'NONE', *, *, #3, .F. ) ;
#351 = ADVANCED_FACE ( 'NONE', ( #495 ), #361, .F. ) ;
#352 = CYLINDRICAL_SURFACE ( 'NONE', #143, 3.000000000000002665 ) ;
#353 = CYLINDRICAL_SURFACE ( 'NONE', #585, 2.999999999999891642 ) ;
#354 = ORIENTED_EDGE ( 'NONE', *, *, #131, .F. ) ;
#355 = LINE ( 'NONE', #643, #271 ) ;
#356 = LINE ( 'NONE', #714, #161 ) ;
#357 = EDGE_CURVE ( 'NONE', #441, #288, #187, .T. ) ;
#358 = VERTEX_POINT ( 'NONE', #259 ) ;
#359 = AXIS2_PLACEMENT_3D ( 'NONE', #786, #364, #68 ) ;
#360 = DIRECTION ( 'NONE',  ( 1.000000000000000000, 0.000000000000000000, -0.000000000000000000 ) ) ;
#361 = CYLINDRICAL_SURFACE ( 'NONE', #668, 4.000000000000003553 ) ;
#362 = VERTEX_POINT ( 'NONE', #789 ) ;
#363 = CARTESIAN_POINT ( 'NONE',  ( -1075.000000000000000, -1177.305262667903662, -337.9999999999998295 ) ) ;
#364 = DIRECTION ( 'NONE',  ( -0.000000000000000000, -1.000000000000000000, -0.000000000000000000 ) ) ;
#365 = VERTEX_POINT ( 'NONE', #488 ) ;
#366 =( LENGTH_UNIT ( ) NAMED_UNIT ( * ) SI_UNIT ( .MILLI., .METRE. ) );
#367 = CARTESIAN_POINT ( 'NONE',  ( -1075.000000000000000, -1177.305262667903662, -341.9999999999998863 ) ) ;
#368 = VECTOR ( 'NONE', #767, 1000.000000000000000 ) ;
#369 = VERTEX_POINT ( 'NONE', #189 ) ;
#370 = APPLICATION_PROTOCOL_DEFINITION ( 'international standard', 'config_control_design', 1994, #701 ) ;
#371 = CARTESIAN_POINT ( 'NONE',  ( -1175.000000000000000, -1174.305262667903889, -337.9999999999998295 ) ) ;
#372 = ORIENTED_EDGE ( 'NONE', *, *, #664, .T. ) ;
#373 = CC_DESIGN_PERSON_AND_ORGANIZATION_ASSIGNMENT ( #84, #498, ( #157 ) ) ;
#374 = CARTESIAN_POINT ( 'NONE',  ( -1199.999999999999545, -1174.305262667903889, -317.9999999999993179 ) ) ;
#375 = DIRECTION ( 'NONE',  ( 0.000000000000000000, 1.000000000000000000, 0.000000000000000000 ) ) ;
#376 = ORIENTED_EDGE ( 'NONE', *, *, #413, .T. ) ;
#377 = CALENDAR_DATE ( 2026, 11, 7 ) ;
#378 = CC_DESIGN_APPROVAL ( #44, ( #345 ) ) ;
#379 = LINE ( 'NONE', #444, #128 ) ;
#380 = EDGE_CURVE ( 'NONE', #365, #759, #127, .T. ) ;
#381 = ORIENTED_EDGE ( 'NONE', *, *, #357, .T. ) ;
#382 = COORDINATED_UNIVERSAL_TIME_OFFSET ( 10, 0, .AHEAD. ) ;
#383 = LOCAL_TIME ( 16, 48, 5.000000000000000000, #746 ) ;
#384 = CARTESIAN_POINT ( 'NONE',  ( -1199.999999999999545, -1174.305262667903889, -314.9999999999993179 ) ) ;
#385 = CARTESIAN_POINT ( 'NONE',  ( -1199.999999999999545, -1177.305262667903889, -320.9999999999993179 ) ) ;
#386 = CARTESIAN_POINT ( 'NONE',  ( -1125.000000000000000, -1174.305262667903889, -337.9999999999998295 ) ) ;
#387 = CARTESIAN_POINT ( 'NONE',  ( -1125.000000000000000, -1177.305262667903662, -333.9999999999998295 ) ) ;
#388 = EDGE_LOOP ( 'NONE', ( #663, #129, #572, #449 ) ) ;
#389 = EDGE_CURVE ( 'NONE', #38, #304, #497, .T. ) ;
#390 = PERSON_AND_ORGANIZATION_ROLE ( 'creator' ) ;
#391 = CARTESIAN_POINT ( 'NONE',  ( -940.0000000000000000, -1174.305262667903889, -317.9999999999991473 ) ) ;
#392 = CIRCLE ( 'NONE', #547, 4.000000000000003553 ) ;
#393 = PLANE ( 'NONE',  #469 ) ;
#394 = VECTOR ( 'NONE', #158, 1000.000000000000000 ) ;
#395 = CALENDAR_DATE ( 2026, 11, 7 ) ;
#396 = FACE_OUTER_BOUND ( 'NONE', #401, .T. ) ;
#397 = DIRECTION ( 'NONE',  ( 0.000000000000000000, 1.000000000000000000, 0.000000000000000000 ) ) ;
#398 = AXIS2_PLACEMENT_3D ( 'NONE', #569, #28, #298 ) ;
#399 = EDGE_CURVE ( 'NONE', #284, #80, #320, .T. ) ;
#400 = DIRECTION ( 'NONE',  ( 1.000000000000000000, 0.000000000000000000, 4.690670291524295911E-16 ) ) ;
#401 = EDGE_LOOP ( 'NONE', ( #4, #237, #459, #641, #153, #318 ) ) ;
#402 = CARTESIAN_POINT ( 'NONE',  ( -1075.000000000000000, -1177.305262667903662, -337.9999999999998295 ) ) ;
#403 = AXIS2_PLACEMENT_3D ( 'NONE', #306, #720, #130 ) ;
#404 = CARTESIAN_POINT ( 'NONE',  ( -1175.000000000000000, -1177.305262667903662, -333.9999999999998295 ) ) ;
#405 = ADVANCED_FACE ( 'NONE', ( #733 ), #609, .T. ) ;
#406 = EDGE_LOOP ( 'NONE', ( #537, #621, #525, #513 ) ) ;
#407 = LINE ( 'NONE', #526, #342 ) ;
#408 = CARTESIAN_POINT ( 'NONE',  ( -1196.999999999999545, -1211.305262667903889, -317.9999999999993179 ) ) ;
#409 = VERTEX_POINT ( 'NONE', #193 ) ;
#410 = CARTESIAN_POINT ( 'NONE',  ( -943.0000000000000000, -1214.305262667903889, -317.9999999999992042 ) ) ;
#411 = DIRECTION ( 'NONE',  ( 0.000000000000000000, 0.000000000000000000, 1.000000000000000000 ) ) ;
#412 = VERTEX_POINT ( 'NONE', #430 ) ;
#413 = EDGE_CURVE ( 'NONE', #431, #194, #70, .T. ) ;
#414 = DIRECTION ( 'NONE',  ( 1.000000000000000000, -0.000000000000000000, 4.690670291524295911E-16 ) ) ;
#415 = CARTESIAN_POINT ( 'NONE',  ( -1075.000000000000000, -1174.305262667903889, -337.9999999999998295 ) ) ;
#416 = EDGE_LOOP ( 'NONE', ( #181, #468, #599, #230 ) ) ;
#417 = CARTESIAN_POINT ( 'NONE',  ( -1199.999999999999545, -1180.305262667903889, -314.9999999999993179 ) ) ;
#418 = LINE ( 'NONE', #168, #254 ) ;
#419 = ORIENTED_EDGE ( 'NONE', *, *, #176, .F. ) ;
#420 = AXIS2_PLACEMENT_3D ( 'NONE', #211, #267, #748 ) ;
#421 = FACE_OUTER_BOUND ( 'NONE', #172, .T. ) ;
#422 = CARTESIAN_POINT ( 'NONE',  ( -940.0000000000000000, -1174.305262667903889, -317.9999999999991473 ) ) ;
#423 = ORIENTED_EDGE ( 'NONE', *, *, #794, .T. ) ;
#424 = DIRECTION ( 'NONE',  ( 0.000000000000000000, -0.000000000000000000, -1.000000000000000000 ) ) ;
#425 = CARTESIAN_POINT ( 'NONE',  ( -1125.000000000000000, -1177.305262667903662, -341.9999999999998863 ) ) ;
#426 = ORIENTED_EDGE ( 'NONE', *, *, #323, .T. ) ;
#427 = ADVANCED_FACE ( 'NONE', ( #484 ), #726, .F. ) ;
#428 = CIRCLE ( 'NONE', #253, 3.000000000000002665 ) ;
#429 = LINE ( 'NONE', #67, #536 ) ;
#430 = CARTESIAN_POINT ( 'NONE',  ( -1125.000000000000000, -1174.305262667903889, -333.9999999999998295 ) ) ;
#431 = VERTEX_POINT ( 'NONE', #10 ) ;
#432 = EDGE_CURVE ( 'NONE', #113, #314, #790, .T. ) ;
#433 = LOCAL_TIME ( 16, 48, 5.000000000000000000, #382 ) ;
#434 = AXIS2_PLACEMENT_3D ( 'NONE', #255, #670, #440 ) ;
#435 = DIRECTION ( 'NONE',  ( 1.000000000000000000, 8.322854658612156659E-35, -2.230748992776279396E-16 ) ) ;
#436 = CIRCLE ( 'NONE', #53, 3.000000000000002665 ) ;
#437 = LINE ( 'NONE', #367, #126 ) ;
#438 = ORIENTED_EDGE ( 'NONE', *, *, #507, .F. ) ;
#439 = EDGE_CURVE ( 'NONE', #194, #431, #8, .T. ) ;
#440 = DIRECTION ( 'NONE',  ( 0.000000000000000000, -0.000000000000000000, 1.000000000000000000 ) ) ;
#441 = VERTEX_POINT ( 'NONE', #744 ) ;
#442 = DATE_AND_TIME ( #139, #383 ) ;
#443 = ADVANCED_FACE ( 'NONE', ( #92 ), #557, .F. ) ;
#444 = CARTESIAN_POINT ( 'NONE',  ( -1199.999999999999545, -1211.305262667903889, -317.9999999999993179 ) ) ;
#445 = DIRECTION ( 'NONE',  ( -4.690670291524295911E-16, -0.000000000000000000, 1.000000000000000000 ) ) ;
#446 = CC_DESIGN_SECURITY_CLASSIFICATION ( #78, ( #345 ) ) ;
#447 = VECTOR ( 'NONE', #348, 1000.000000000000000 ) ;
#448 = DIRECTION ( 'NONE',  ( 0.000000000000000000, 0.000000000000000000, 1.000000000000000000 ) ) ;
#449 = ORIENTED_EDGE ( 'NONE', *, *, #704, .F. ) ;
#450 = DIRECTION ( 'NONE',  ( 0.000000000000000000, 1.000000000000000000, 0.000000000000000000 ) ) ;
#451 = DIRECTION ( 'NONE',  ( -0.000000000000000000, -1.000000000000000000, -0.000000000000000000 ) ) ;
#452 = ORIENTED_EDGE ( 'NONE', *, *, #146, .T. ) ;
#453 = SHAPE_DEFINITION_REPRESENTATION ( #256, #1 ) ;
#454 = CARTESIAN_POINT ( 'NONE',  ( -1196.999999999999545, -1211.305262667903889, -314.9999999999993179 ) ) ;
#455 = ORIENTED_EDGE ( 'NONE', *, *, #511, .T. ) ;
#456 = CARTESIAN_POINT ( 'NONE',  ( -940.0000000000000000, -1177.305262667903662, -351.9999999999992042 ) ) ;
#457 = DIRECTION ( 'NONE',  ( -1.000000000000000000, -8.322854658612156659E-35, 2.230748992776279396E-16 ) ) ;
#458 = AXIS2_PLACEMENT_3D ( 'NONE', #762, #20, #510 ) ;
#459 = ORIENTED_EDGE ( 'NONE', *, *, #285, .F. ) ;
#460 = CARTESIAN_POINT ( 'NONE',  ( -1199.999999999999545, -1177.305262667903662, -354.9999999999993179 ) ) ;
#461 = ADVANCED_FACE ( 'NONE', ( #396 ), #152, .T. ) ;
#462 = ADVANCED_FACE ( 'NONE', ( #561 ), #630, .T. ) ;
#463 = FACE_OUTER_BOUND ( 'NONE', #586, .T. ) ;
#464 = ORIENTED_EDGE ( 'NONE', *, *, #475, .T. ) ;
#465 = DIRECTION ( 'NONE',  ( -1.000000000000000000, 0.000000000000000000, -4.690670291524295911E-16 ) ) ;
#466 = AXIS2_PLACEMENT_3D ( 'NONE', #374, #175, #788 ) ;
#467 = LINE ( 'NONE', #645, #238 ) ;
#468 = ORIENTED_EDGE ( 'NONE', *, *, #765, .F. ) ;
#469 = AXIS2_PLACEMENT_3D ( 'NONE', #90, #11, #567 ) ;
#470 = CARTESIAN_POINT ( 'NONE',  ( -1199.999999999999545, -1174.305262667903889, -320.9999999999993179 ) ) ;
#471 = APPROVAL_PERSON_ORGANIZATION ( #687, #44, #25 ) ;
#472 = CARTESIAN_POINT ( 'NONE',  ( -1175.000000000000000, -1174.305262667903889, -341.9999999999998863 ) ) ;
#473 = ORIENTED_EDGE ( 'NONE', *, *, #73, .T. ) ;
#474 = CIRCLE ( 'NONE', #486, 4.000000000000003553 ) ;
#475 = EDGE_CURVE ( 'NONE', #409, #412, #766, .T. ) ;
#476 = LINE ( 'NONE', #45, #21 ) ;
#477 = DIRECTION ( 'NONE',  ( 0.000000000000000000, 1.000000000000000000, 0.000000000000000000 ) ) ;
#478 = ORIENTED_EDGE ( 'NONE', *, *, #399, .T. ) ;
#479 = CARTESIAN_POINT ( 'NONE',  ( 0.000000000000000000, 0.000000000000000000, 0.000000000000000000 ) ) ;
#480 = DIRECTION ( 'NONE',  ( 0.000000000000000000, 0.000000000000000000, 1.000000000000000000 ) ) ;
#481 = ORIENTED_EDGE ( 'NONE', *, *, #58, .F. ) ;
#482 = CIRCLE ( 'NONE', #281, 4.000000000000003553 ) ;
#483 = VECTOR ( 'NONE', #562, 1000.000000000000000 ) ;
#484 = FACE_OUTER_BOUND ( 'NONE', #612, .T. ) ;
#485 = EDGE_LOOP ( 'NONE', ( #734, #518, #464, #787 ) ) ;
#486 = AXIS2_PLACEMENT_3D ( 'NONE', #386, #450, #448 ) ;
#487 = CARTESIAN_POINT ( 'NONE',  ( -1075.000000000000000, -1177.305262667903662, -337.9999999999998295 ) ) ;
#488 = CARTESIAN_POINT ( 'NONE',  ( -1199.999999999999545, -1180.305262667903889, -317.9999999999993179 ) ) ;
#489 = EDGE_CURVE ( 'NONE', #329, #101, #135, .T. ) ;
#490 = ORIENTED_EDGE ( 'NONE', *, *, #73, .F. ) ;
#491 = DIRECTION ( 'NONE',  ( 0.000000000000000000, 0.000000000000000000, 1.000000000000000000 ) ) ;
#492 = DIRECTION ( 'NONE',  ( 0.000000000000000000, 0.000000000000000000, 1.000000000000000000 ) ) ;
#493 = EDGE_CURVE ( 'NONE', #369, #249, #260, .T. ) ;
#494 = ORIENTED_EDGE ( 'NONE', *, *, #195, .T. ) ;
#495 = FACE_OUTER_BOUND ( 'NONE', #485, .T. ) ;
#496 = ORIENTED_EDGE ( 'NONE', *, *, #180, .F. ) ;
#497 = CIRCLE ( 'NONE', #154, 3.000000000000002665 ) ;
#498 = PERSON_AND_ORGANIZATION_ROLE ( 'creator' ) ;
#499 = CARTESIAN_POINT ( 'NONE',  ( -1199.999999999999545, -1214.305262667903889, -317.9999999999993179 ) ) ;
#500 = ORIENTED_EDGE ( 'NONE', *, *, #475, .F. ) ;
#501 = CARTESIAN_POINT ( 'NONE',  ( -1175.000000000000000, -1174.305262667903889, -337.9999999999998295 ) ) ;
#502 = ORIENTED_EDGE ( 'NONE', *, *, #180, .T. ) ;
#503 = VECTOR ( 'NONE', #527, 1000.000000000000000 ) ;
#504 = DIRECTION ( 'NONE',  ( 8.322854658612156659E-35, -1.000000000000000000, 3.903976708782663029E-50 ) ) ;
#505 = ORIENTED_EDGE ( 'NONE', *, *, #631, .T. ) ;
#506 = DIRECTION ( 'NONE',  ( 0.000000000000000000, 1.000000000000000000, 0.000000000000000000 ) ) ;
#507 = EDGE_CURVE ( 'NONE', #412, #409, #474, .T. ) ;
#508 = ORIENTED_EDGE ( 'NONE', *, *, #50, .F. ) ;
#509 = APPLICATION_PROTOCOL_DEFINITION ( 'international standard', 'config_control_design', 1994, #34 ) ;
#510 = DIRECTION ( 'NONE',  ( 1.000000000000000000, 0.000000000000000000, 0.000000000000000000 ) ) ;
#511 = EDGE_CURVE ( 'NONE', #249, #145, #379, .T. ) ;
#512 = PLANE ( 'NONE',  #243 ) ;
#513 = ORIENTED_EDGE ( 'NONE', *, *, #531, .F. ) ;
#514 = FACE_OUTER_BOUND ( 'NONE', #59, .T. ) ;
#515 = ORIENTED_EDGE ( 'NONE', *, *, #131, .T. ) ;
#516 = CYLINDRICAL_SURFACE ( 'NONE', #598, 4.000000000000003553 ) ;
#517 = CARTESIAN_POINT ( 'NONE',  ( -943.0000000000000000, -1177.305262667903662, -354.9999999999992042 ) ) ;
#518 = ORIENTED_EDGE ( 'NONE', *, *, #624, .T. ) ;
#519 = LINE ( 'NONE', #293, #165 ) ;
#520 = DIRECTION ( 'NONE',  ( -0.000000000000000000, -1.000000000000000000, -0.000000000000000000 ) ) ;
#521 = ORIENTED_EDGE ( 'NONE', *, *, #239, .F. ) ;
#522 = FACE_OUTER_BOUND ( 'NONE', #322, .T. ) ;
#523 = DIRECTION ( 'NONE',  ( 0.000000000000000000, 1.000000000000000000, 0.000000000000000000 ) ) ;
#524 = ADVANCED_FACE ( 'NONE', ( #611 ), #620, .F. ) ;
#525 = ORIENTED_EDGE ( 'NONE', *, *, #58, .T. ) ;
#526 = CARTESIAN_POINT ( 'NONE',  ( -1125.000000000000000, -1177.305262667903662, -341.9999999999998863 ) ) ;
#527 = DIRECTION ( 'NONE',  ( 1.000000000000000000, -0.000000000000000000, 4.690670291524295911E-16 ) ) ;
#528 = EDGE_LOOP ( 'NONE', ( #541, #508, #208, #607 ) ) ;
#529 = DIRECTION ( 'NONE',  ( 1.000000000000000000, -0.000000000000000000, 4.690670291524295911E-16 ) ) ;
#530 = DIRECTION ( 'NONE',  ( 1.000000000000000000, 0.000000000000000000, 0.000000000000000000 ) ) ;
#531 = EDGE_CURVE ( 'NONE', #441, #329, #436, .T. ) ;
#532 = VERTEX_POINT ( 'NONE', #88 ) ;
#533 = ADVANCED_FACE ( 'NONE', ( #514 ), #327, .T. ) ;
#534 = FACE_OUTER_BOUND ( 'NONE', #416, .T. ) ;
#535 = FACE_BOUND ( 'NONE', #244, .T. ) ;
#536 = VECTOR ( 'NONE', #360, 1000.000000000000000 ) ;
#537 = ORIENTED_EDGE ( 'NONE', *, *, #87, .F. ) ;
#538 = EDGE_CURVE ( 'NONE', #759, #661, #81, .T. ) ;
#539 = DIRECTION ( 'NONE',  ( 1.000000000000000000, 0.000000000000000000, 0.000000000000000000 ) ) ;
#540 = DIRECTION ( 'NONE',  ( 0.000000000000000000, 0.000000000000000000, 1.000000000000000000 ) ) ;
#541 = ORIENTED_EDGE ( 'NONE', *, *, #176, .T. ) ;
#542 = CARTESIAN_POINT ( 'NONE',  ( -1199.999999999999545, -1177.305262667903889, -320.9999999999993179 ) ) ;
#543 = ORIENTED_EDGE ( 'NONE', *, *, #439, .T. ) ;
#544 = PLANE ( 'NONE',  #466 ) ;
#545 = CARTESIAN_POINT ( 'NONE',  ( -1175.000000000000000, -1177.305262667903662, -341.9999999999998863 ) ) ;
#546 = EDGE_LOOP ( 'NONE', ( #481, #423, #23, #582 ) ) ;
#547 = AXIS2_PLACEMENT_3D ( 'NONE', #574, #784, #294 ) ;
#548 =( NAMED_UNIT ( * ) PLANE_ANGLE_UNIT ( ) SI_UNIT ( $, .RADIAN. ) );
#549 = CIRCLE ( 'NONE', #36, 3.000000000000002665 ) ;
#550 = CARTESIAN_POINT ( 'NONE',  ( -1125.000000000000000, -1177.305262667903662, -337.9999999999998295 ) ) ;
#551 = ORIENTED_EDGE ( 'NONE', *, *, #432, .F. ) ;
#552 = PLANE ( 'NONE',  #398 ) ;
#553 = CARTESIAN_POINT ( 'NONE',  ( -1199.999999999999545, -1174.305262667903889, -317.9999999999993179 ) ) ;
#554 = APPROVAL ( #672, 'UNSPECIFIED' ) ;
#555 = EDGE_CURVE ( 'NONE', #335, #194, #331, .T. ) ;
#556 = CALENDAR_DATE ( 2026, 11, 7 ) ;
#557 = CYLINDRICAL_SURFACE ( 'NONE', #592, 4.000000000000003553 ) ;
#558 = VERTEX_POINT ( 'NONE', #96 ) ;
#559 = DATE_TIME_ROLE ( 'classification_date' ) ;
#560 = ADVANCED_FACE ( 'NONE', ( #337 ), #552, .F. ) ;
#561 = FACE_OUTER_BOUND ( 'NONE', #406, .T. ) ;
#562 = DIRECTION ( 'NONE',  ( 0.000000000000000000, 1.000000000000000000, 0.000000000000000000 ) ) ;
#563 = ORIENTED_EDGE ( 'NONE', *, *, #538, .F. ) ;
#564 = PERSON_AND_ORGANIZATION ( #649, #162 ) ;
#565 = CARTESIAN_POINT ( 'NONE',  ( -1175.000000000000000, -1177.305262667903662, -341.9999999999998863 ) ) ;
#566 = ADVANCED_FACE ( 'NONE', ( #222 ), #286, .T. ) ;
#567 = DIRECTION ( 'NONE',  ( 0.000000000000000000, -0.000000000000000000, 1.000000000000000000 ) ) ;
#568 = EDGE_LOOP ( 'NONE', ( #659, #75, #635, #372 ) ) ;
#569 = CARTESIAN_POINT ( 'NONE',  ( -1199.999999999999545, -1177.305262667903662, -354.9999999999993179 ) ) ;
#570 = CARTESIAN_POINT ( 'NONE',  ( -940.0000000000000000, -1180.305262667903889, -320.9999999999991473 ) ) ;
#571 = ADVANCED_FACE ( 'NONE', ( #588 ), #352, .F. ) ;
#572 = ORIENTED_EDGE ( 'NONE', *, *, #213, .T. ) ;
#573 = FACE_OUTER_BOUND ( 'NONE', #104, .T. ) ;
#574 = CARTESIAN_POINT ( 'NONE',  ( -1075.000000000000000, -1174.305262667903889, -337.9999999999998295 ) ) ;
#575 = AXIS2_PLACEMENT_3D ( 'NONE', #553, #445, #265 ) ;
#576 = ORIENTED_EDGE ( 'NONE', *, *, #674, .F. ) ;
#577 = DIRECTION ( 'NONE',  ( 1.000000000000000000, 0.000000000000000000, 4.690670291524295911E-16 ) ) ;
#578 = DIRECTION ( 'NONE',  ( 0.000000000000000000, 0.000000000000000000, 1.000000000000000000 ) ) ;
#579 = EDGE_LOOP ( 'NONE', ( #257, #426, #707, #622 ) ) ;
#580 = LINE ( 'NONE', #170, #368 ) ;
#581 = CARTESIAN_POINT ( 'NONE',  ( -1175.000000000000000, -1177.305262667903662, -337.9999999999998295 ) ) ;
#582 = ORIENTED_EDGE ( 'NONE', *, *, #489, .F. ) ;
#583 = LINE ( 'NONE', #343, #138 ) ;
#584 = DIRECTION ( 'NONE',  ( 0.000000000000000000, 1.000000000000000000, 0.000000000000000000 ) ) ;
#585 = AXIS2_PLACEMENT_3D ( 'NONE', #408, #171, #530 ) ;
#586 = EDGE_LOOP ( 'NONE', ( #191, #292, #455, #715 ) ) ;
#587 =( GEOMETRIC_REPRESENTATION_CONTEXT ( 3 ) GLOBAL_UNCERTAINTY_ASSIGNED_CONTEXT ( ( #751 ) ) GLOBAL_UNIT_ASSIGNED_CONTEXT ( ( #366, #548, #241 ) ) REPRESENTATION_CONTEXT ( 'NONE', 'WORKASPACE' ) );
#588 = FACE_OUTER_BOUND ( 'NONE', #528, .T. ) ;
#589 = CARTESIAN_POINT ( 'NONE',  ( -1125.000000000000000, -1177.305262667903662, -337.9999999999998295 ) ) ;
#590 = AXIS2_PLACEMENT_3D ( 'NONE', #251, #375, #492 ) ;
#591 = ORIENTED_EDGE ( 'NONE', *, *, #60, .T. ) ;
#592 = AXIS2_PLACEMENT_3D ( 'NONE', #694, #85, #680 ) ;
#593 = DIRECTION ( 'NONE',  ( 0.000000000000000000, -1.000000000000000000, -0.000000000000000000 ) ) ;
#594 = EDGE_LOOP ( 'NONE', ( #438, #500 ) ) ;
#595 = EDGE_CURVE ( 'NONE', #737, #51, #41, .T. ) ;
#596 = FACE_OUTER_BOUND ( 'NONE', #338, .T. ) ;
#597 = CARTESIAN_POINT ( 'NONE',  ( -943.0000000000000000, -1177.305262667903662, -351.9999999999992042 ) ) ;
#598 = AXIS2_PLACEMENT_3D ( 'NONE', #402, #636, #102 ) ;
#599 = ORIENTED_EDGE ( 'NONE', *, *, #39, .T. ) ;
#600 = CC_DESIGN_PERSON_AND_ORGANIZATION_ASSIGNMENT ( #693, #330, ( #192 ) ) ;
#601 = CARTESIAN_POINT ( 'NONE',  ( -940.0000000000000000, -1180.305262667903889, -317.9999999999991473 ) ) ;
#602 = FACE_OUTER_BOUND ( 'NONE', #30, .T. ) ;
#603 = ORIENTED_EDGE ( 'NONE', *, *, #618, .T. ) ;
#604 = VECTOR ( 'NONE', #593, 1000.000000000000000 ) ;
#605 = EDGE_CURVE ( 'NONE', #727, #532, #155, .T. ) ;
#606 = DIRECTION ( 'NONE',  ( 0.000000000000000000, 1.000000000000000000, 0.000000000000000000 ) ) ;
#607 = ORIENTED_EDGE ( 'NONE', *, *, #151, .F. ) ;
#608 = DIRECTION ( 'NONE',  ( 0.000000000000000000, 0.000000000000000000, 1.000000000000000000 ) ) ;
#609 = PLANE ( 'NONE',  #764 ) ;
#610 = EDGE_LOOP ( 'NONE', ( #55, #149, #124, #667 ) ) ;
#611 = FACE_OUTER_BOUND ( 'NONE', #791, .T. ) ;
#612 = EDGE_LOOP ( 'NONE', ( #278, #502, #563, #107 ) ) ;
#613 = EDGE_CURVE ( 'NONE', #727, #772, #684, .T. ) ;
#614 = DATE_AND_TIME ( #377, #433 ) ;
#615 = DIRECTION ( 'NONE',  ( -4.690670291524295911E-16, -0.000000000000000000, 1.000000000000000000 ) ) ;
#616 = DIRECTION ( 'NONE',  ( -0.000000000000000000, -1.000000000000000000, -0.000000000000000000 ) ) ;
#617 = ORIENTED_EDGE ( 'NONE', *, *, #120, .T. ) ;
#618 = EDGE_CURVE ( 'NONE', #772, #558, #583, .T. ) ;
#619 = APPROVAL_DATE_TIME ( #442, #554 ) ;
#620 = CYLINDRICAL_SURFACE ( 'NONE', #231, 4.000000000000003553 ) ;
#621 = ORIENTED_EDGE ( 'NONE', *, *, #79, .T. ) ;
#622 = ORIENTED_EDGE ( 'NONE', *, *, #120, .F. ) ;
#623 = AXIS2_PLACEMENT_3D ( 'NONE', #725, #315, #539 ) ;
#624 = EDGE_CURVE ( 'NONE', #314, #409, #407, .T. ) ;
#625 = PERSON_AND_ORGANIZATION_ROLE ( 'classification_officer' ) ;
#626 = AXIS2_PLACEMENT_3D ( 'NONE', #589, #177, #578 ) ;
#627 = DIRECTION ( 'NONE',  ( 8.322854658612156659E-35, -1.000000000000000000, 3.903976708782663029E-50 ) ) ;
#628 = FACE_OUTER_BOUND ( 'NONE', #718, .T. ) ;
#629 = COORDINATED_UNIVERSAL_TIME_OFFSET ( 10, 0, .AHEAD. ) ;
#630 = CYLINDRICAL_SURFACE ( 'NONE', #752, 3.000000000000002665 ) ;
#631 = EDGE_CURVE ( 'NONE', #532, #749, #778, .T. ) ;
#632 = DIRECTION ( 'NONE',  ( 0.000000000000000000, 0.000000000000000000, 1.000000000000000000 ) ) ;
#633 = LINE ( 'NONE', #98, #394 ) ;
#634 = FACE_BOUND ( 'NONE', #252, .T. ) ;
#635 = ORIENTED_EDGE ( 'NONE', *, *, #173, .T. ) ;
#636 = DIRECTION ( 'NONE',  ( 0.000000000000000000, 1.000000000000000000, 0.000000000000000000 ) ) ;
#637 = AXIS2_PLACEMENT_3D ( 'NONE', #581, #584, #480 ) ;
#638 = APPROVAL_PERSON_ORGANIZATION ( #266, #221, #9 ) ;
#639 = CC_DESIGN_PERSON_AND_ORGANIZATION_ASSIGNMENT ( #147, #390, ( #345 ) ) ;
#640 = DIRECTION ( 'NONE',  ( 1.000000000000000000, 0.000000000000000000, 0.000000000000000000 ) ) ;
#641 = ORIENTED_EDGE ( 'NONE', *, *, #618, .F. ) ;
#642 = EDGE_CURVE ( 'NONE', #369, #304, #519, .T. ) ;
#643 = CARTESIAN_POINT ( 'NONE',  ( -1199.999999999999545, -1174.305262667903889, -354.9999999999993179 ) ) ;
#644 = VECTOR ( 'NONE', #183, 1000.000000000000000 ) ;
#645 = CARTESIAN_POINT ( 'NONE',  ( -1199.999999999999545, -1177.305262667903662, -351.9999999999993179 ) ) ;
#646 = ORIENTED_EDGE ( 'NONE', *, *, #555, .T. ) ;
#647 = EDGE_CURVE ( 'NONE', #362, #727, #355, .T. ) ;
#648 = DIRECTION ( 'NONE',  ( -0.000000000000000000, 0.000000000000000000, 1.000000000000000000 ) ) ;
#649 = PERSON ( 'UNSPECIFIED', 'UNSPECIFIED', 'UNSPECIFIED', ('UNSPECIFIED'), ('UNSPECIFIED'), ('UNSPECIFIED') ) ;
#650 = DIRECTION ( 'NONE',  ( 1.000000000000000000, -0.000000000000000000, 4.690670291524295911E-16 ) ) ;
#651 = ORIENTED_EDGE ( 'NONE', *, *, #290, .F. ) ;
#652 = DIRECTION ( 'NONE',  ( 0.000000000000000000, 0.000000000000000000, -1.000000000000000000 ) ) ;
#653 = DIRECTION ( 'NONE',  ( -0.000000000000000000, -1.000000000000000000, -0.000000000000000000 ) ) ;
#654 = VECTOR ( 'NONE', #477, 1000.000000000000000 ) ;
#655 = ORIENTED_EDGE ( 'NONE', *, *, #794, .F. ) ;
#656 = PLANE ( 'NONE',  #760 ) ;
#657 = CARTESIAN_POINT ( 'NONE',  ( -943.0000000000000000, -1211.305262667903889, -317.9999999999992042 ) ) ;
#658 = EDGE_CURVE ( 'NONE', #365, #145, #712, .T. ) ;
#659 = ORIENTED_EDGE ( 'NONE', *, *, #692, .F. ) ;
#660 = DIRECTION ( 'NONE',  ( -1.000000000000000000, -8.322854658612156659E-35, -4.690670291524295911E-16 ) ) ;
#661 = VERTEX_POINT ( 'NONE', #289 ) ;
#662 = CYLINDRICAL_SURFACE ( 'NONE', #296, 3.000000000000002665 ) ;
#663 = ORIENTED_EDGE ( 'NONE', *, *, #747, .F. ) ;
#664 = EDGE_CURVE ( 'NONE', #683, #326, #580, .T. ) ;
#665 = DIRECTION ( 'NONE',  ( 0.000000000000000000, -1.000000000000000000, -0.000000000000000000 ) ) ;
#666 = FACE_OUTER_BOUND ( 'NONE', #579, .T. ) ;
#667 = ORIENTED_EDGE ( 'NONE', *, *, #50, .T. ) ;
#668 = AXIS2_PLACEMENT_3D ( 'NONE', #550, #74, #540 ) ;
#669 = DIRECTION ( 'NONE',  ( -2.230748992776279396E-16, 0.000000000000000000, -1.000000000000000000 ) ) ;
#670 = DIRECTION ( 'NONE',  ( 0.000000000000000000, 1.000000000000000000, 0.000000000000000000 ) ) ;
#671 = ORIENTED_EDGE ( 'NONE', *, *, #239, .T. ) ;
#672 = APPROVAL_STATUS ( 'not_yet_approved' ) ;
#673 = DIRECTION ( 'NONE',  ( 4.690670291524295911E-16, 0.000000000000000000, -1.000000000000000000 ) ) ;
#674 = EDGE_CURVE ( 'NONE', #51, #749, #476, .T. ) ;
#675 = EDGE_LOOP ( 'NONE', ( #452, #110 ) ) ;
#676 = CIRCLE ( 'NONE', #626, 4.000000000000003553 ) ;
#677 = AXIS2_PLACEMENT_3D ( 'NONE', #479, #117, #72 ) ;
#678 = APPROVAL_STATUS ( 'not_yet_approved' ) ;
#679 = CIRCLE ( 'NONE', #19, 4.000000000000003553 ) ;
#680 = DIRECTION ( 'NONE',  ( 0.000000000000000000, 0.000000000000000000, 1.000000000000000000 ) ) ;
#681 = ADVANCED_FACE ( 'NONE', ( #522 ), #783, .T. ) ;
#682 = DIRECTION ( 'NONE',  ( 4.690670291524295911E-16, 0.000000000000000000, -1.000000000000000000 ) ) ;
#683 = VERTEX_POINT ( 'NONE', #716 ) ;
#684 = CIRCLE ( 'NONE', #347, 6.000000000000005329 ) ;
#685 = DIRECTION ( 'NONE',  ( 0.000000000000000000, 1.000000000000000000, 0.000000000000000000 ) ) ;
#686 = LINE ( 'NONE', #387, #483 ) ;
#687 = PERSON_AND_ORGANIZATION ( #649, #162 ) ;
#688 = CARTESIAN_POINT ( 'NONE',  ( -1175.000000000000000, -1177.305262667903662, -337.9999999999998295 ) ) ;
#689 = CARTESIAN_POINT ( 'NONE',  ( -1175.000000000000000, -1177.305262667903662, -337.9999999999998295 ) ) ;
#690 = ORIENTED_EDGE ( 'NONE', *, *, #647, .F. ) ;
#691 = CIRCLE ( 'NONE', #623, 2.999999999999891642 ) ;
#692 = EDGE_CURVE ( 'NONE', #304, #326, #705, .T. ) ;
#693 = PERSON_AND_ORGANIZATION ( #649, #162 ) ;
#694 = CARTESIAN_POINT ( 'NONE',  ( -1125.000000000000000, -1177.305262667903662, -337.9999999999998295 ) ) ;
#695 = VECTOR ( 'NONE', #451, 1000.000000000000000 ) ;
#696 = FACE_OUTER_BOUND ( 'NONE', #261, .T. ) ;
#697 = VERTEX_POINT ( 'NONE', #52 ) ;
#698 = VECTOR ( 'NONE', #520, 1000.000000000000000 ) ;
#699 = AXIS2_PLACEMENT_3D ( 'NONE', #454, #214, #200 ) ;
#700 = CARTESIAN_POINT ( 'NONE',  ( -1199.999999999999545, -1180.305262667903889, -320.9999999999993179 ) ) ;
#701 = APPLICATION_CONTEXT ( 'configuration controlled 3d designs of mechanical parts and assemblies' ) ;
#702 = LINE ( 'NONE', #99, #695 ) ;
#703 = ORIENTED_EDGE ( 'NONE', *, *, #538, .T. ) ;
#704 = EDGE_CURVE ( 'NONE', #284, #697, #633, .T. ) ;
#705 = LINE ( 'NONE', #410, #125 ) ;
#706 = CARTESIAN_POINT ( 'NONE',  ( -1196.999999999999545, -1174.305262667903889, -351.9999999999993179 ) ) ;
#707 = ORIENTED_EDGE ( 'NONE', *, *, #595, .T. ) ;
#708 = DIRECTION ( 'NONE',  ( -4.690670291524295911E-16, 0.000000000000000000, 1.000000000000000000 ) ) ;
#709 = LINE ( 'NONE', #223, #604 ) ;
#710 = EDGE_LOOP ( 'NONE', ( #300, #723, #742, #617, #225, #419 ) ) ;
#711 = VECTOR ( 'NONE', #105, 1000.000000000000000 ) ;
#712 = LINE ( 'NONE', #167, #711 ) ;
#713 = AXIS2_PLACEMENT_3D ( 'NONE', #272, #26, #141 ) ;
#714 = CARTESIAN_POINT ( 'NONE',  ( -940.0000000000000000, -1211.305262667903889, -317.9999999999991473 ) ) ;
#715 = ORIENTED_EDGE ( 'NONE', *, *, #782, .F. ) ;
#716 = CARTESIAN_POINT ( 'NONE',  ( -1196.999999999999545, -1214.305262667903889, -317.9999999999993179 ) ) ;
#717 = CARTESIAN_POINT ( 'NONE',  ( -1125.000000000000000, -1177.305262667903662, -333.9999999999998295 ) ) ;
#718 = EDGE_LOOP ( 'NONE', ( #280, #178, #295, #731, #703, #671 ) ) ;
#719 = AXIS2_PLACEMENT_3D ( 'NONE', #363, #246, #491 ) ;
#720 = DIRECTION ( 'NONE',  ( 0.000000000000000000, 1.000000000000000000, 0.000000000000000000 ) ) ;
#721 = AXIS2_PLACEMENT_3D ( 'NONE', #487, #182, #608 ) ;
#722 = DIRECTION ( 'NONE',  ( 0.000000000000000000, 0.000000000000000000, 1.000000000000000000 ) ) ;
#723 = ORIENTED_EDGE ( 'NONE', *, *, #531, .T. ) ;
#724 = AXIS2_PLACEMENT_3D ( 'NONE', #700, #774, #652 ) ;
#725 = CARTESIAN_POINT ( 'NONE',  ( -1196.999999999999545, -1211.305262667903889, -317.9999999999993179 ) ) ;
#726 = PLANE ( 'NONE',  #40 ) ;
#727 = VERTEX_POINT ( 'NONE', #339 ) ;
#728 = FACE_OUTER_BOUND ( 'NONE', #388, .T. ) ;
#729 = DIRECTION ( 'NONE',  ( 1.000000000000000000, -0.000000000000000000, 4.690670291524295911E-16 ) ) ;
#730 = ADVANCED_FACE ( 'NONE', ( #573 ), #516, .F. ) ;
#731 = ORIENTED_EDGE ( 'NONE', *, *, #380, .T. ) ;
#732 = CYLINDRICAL_SURFACE ( 'NONE', #403, 4.000000000000003553 ) ;
#733 = FACE_OUTER_BOUND ( 'NONE', #568, .T. ) ;
#734 = ORIENTED_EDGE ( 'NONE', *, *, #224, .F. ) ;
#735 = MECHANICAL_CONTEXT ( 'NONE', #701, 'mechanical' ) ;
#736 = LINE ( 'NONE', #248, #644 ) ;
#737 = VERTEX_POINT ( 'NONE', #121 ) ;
#738 = CC_DESIGN_DATE_AND_TIME_ASSIGNMENT ( #319, #559, ( #78 ) ) ;
#739 = VECTOR ( 'NONE', #758, 1000.000000000000000 ) ;
#740 = ADVANCED_FACE ( 'NONE', ( #792 ), #312, .T. ) ;
#741 = DIRECTION ( 'NONE',  ( 0.000000000000000000, -1.000000000000000000, -0.000000000000000000 ) ) ;
#742 = ORIENTED_EDGE ( 'NONE', *, *, #489, .T. ) ;
#743 = ADVANCED_FACE ( 'NONE', ( #421 ), #656, .T. ) ;
#744 = CARTESIAN_POINT ( 'NONE',  ( -1199.999999999999545, -1177.305262667903662, -351.9999999999993179 ) ) ;
#745 = CARTESIAN_POINT ( 'NONE',  ( -1199.999999999999545, -1180.305262667903889, -320.9999999999993179 ) ) ;
#746 = COORDINATED_UNIVERSAL_TIME_OFFSET ( 10, 0, .AHEAD. ) ;
#747 = EDGE_CURVE ( 'NONE', #80, #284, #89, .T. ) ;
#748 = DIRECTION ( 'NONE',  ( 0.000000000000000000, 0.000000000000000000, 1.000000000000000000 ) ) ;
#749 = VERTEX_POINT ( 'NONE', #302 ) ;
#750 = ORIENTED_EDGE ( 'NONE', *, *, #39, .F. ) ;
#751 = UNCERTAINTY_MEASURE_WITH_UNIT (LENGTH_MEASURE( 1.000000000000000082E-05 ), #366, 'distance_accuracy_value', 'NONE');
#752 = AXIS2_PLACEMENT_3D ( 'NONE', #197, #206, #14 ) ;
#753 = DATE_TIME_ROLE ( 'creation_date' ) ;
#754 = DIRECTION ( 'NONE',  ( 1.000000000000000000, 0.000000000000000000, 4.690670291524295911E-16 ) ) ;
#755 = ORIENTED_EDGE ( 'NONE', *, *, #605, .F. ) ;
#756 = ADVANCED_FACE ( 'NONE', ( #596 ), #732, .F. ) ;
#757 = DATE_AND_TIME ( #556, #210 ) ;
#758 = DIRECTION ( 'NONE',  ( 0.000000000000000000, 1.000000000000000000, 0.000000000000000000 ) ) ;
#759 = VERTEX_POINT ( 'NONE', #601 ) ;
#760 = AXIS2_PLACEMENT_3D ( 'NONE', #56, #250, #424 ) ;
#761 = VECTOR ( 'NONE', #112, 1000.000000000000000 ) ;
#762 = CARTESIAN_POINT ( 'NONE',  ( -943.0000000000000000, -1211.305262667903889, -317.9999999999992042 ) ) ;
#763 = CARTESIAN_POINT ( 'NONE',  ( -940.0000000000000000, -1177.305262667903662, -351.9999999999992042 ) ) ;
#764 = AXIS2_PLACEMENT_3D ( 'NONE', #499, #741, #57 ) ;
#765 = EDGE_CURVE ( 'NONE', #772, #249, #76, .T. ) ;
#766 = CIRCLE ( 'NONE', #420, 4.000000000000003553 ) ;
#767 = DIRECTION ( 'NONE',  ( 1.000000000000000000, -0.000000000000000000, 4.690670291524295911E-16 ) ) ;
#768 = CARTESIAN_POINT ( 'NONE',  ( -1075.000000000000000, -1177.305262667903662, -341.9999999999998863 ) ) ;
#769 = DIRECTION ( 'NONE',  ( 0.000000000000000000, 0.000000000000000000, -1.000000000000000000 ) ) ;
#770 = ADVANCED_FACE ( 'NONE', ( #534 ), #544, .F. ) ;
#771 = CARTESIAN_POINT ( 'NONE',  ( -1075.000000000000000, -1177.305262667903662, -333.9999999999998295 ) ) ;
#772 = VERTEX_POINT ( 'NONE', #417 ) ;
#773 = ADVANCED_FACE ( 'NONE', ( #728 ), #114, .F. ) ;
#774 = DIRECTION ( 'NONE',  ( 1.000000000000000000, -0.000000000000000000, 4.690670291524295911E-16 ) ) ;
#775 = CARTESIAN_POINT ( 'NONE',  ( -1199.999999999999545, -1211.305262667903889, -317.9999999999993179 ) ) ;
#776 = ORIENTED_EDGE ( 'NONE', *, *, #140, .F. ) ;
#777 = LOCAL_TIME ( 16, 48, 5.000000000000000000, #629 ) ;
#778 = LINE ( 'NONE', #48, #447 ) ;
#779 = VECTOR ( 'NONE', #729, 1000.000000000000000 ) ;
#780 = CARTESIAN_POINT ( 'NONE',  ( -1196.999999999999545, -1214.305262667903889, -317.9999999999993179 ) ) ;
#781 = ORIENTED_EDGE ( 'NONE', *, *, #151, .T. ) ;
#782 = EDGE_CURVE ( 'NONE', #683, #145, #691, .T. ) ;
#783 = CYLINDRICAL_SURFACE ( 'NONE', #724, 6.000000000000005329 ) ;
#784 = DIRECTION ( 'NONE',  ( 0.000000000000000000, 1.000000000000000000, 0.000000000000000000 ) ) ;
#785 = ORIENTED_EDGE ( 'NONE', *, *, #747, .T. ) ;
#786 = CARTESIAN_POINT ( 'NONE',  ( -943.0000000000000000, -1174.305262667903889, -351.9999999999992042 ) ) ;
#787 = ORIENTED_EDGE ( 'NONE', *, *, #60, .F. ) ;
#788 = DIRECTION ( 'NONE',  ( 0.000000000000000000, 1.000000000000000000, 0.000000000000000000 ) ) ;
#789 = CARTESIAN_POINT ( 'NONE',  ( -1199.999999999999545, -1174.305262667903889, -351.9999999999993179 ) ) ;
#790 = CIRCLE ( 'NONE', #713, 4.000000000000003553 ) ;
#791 = EDGE_LOOP ( 'NONE', ( #350, #646, #543, #776 ) ) ;
#792 = FACE_OUTER_BOUND ( 'NONE', #610, .T. ) ;
#793 = DIRECTION ( 'NONE',  ( 4.690670291524295911E-16, 0.000000000000000000, -1.000000000000000000 ) ) ;
#794 = EDGE_CURVE ( 'NONE', #64, #185, #429, .T. ) ;
#795 = ORIENTED_EDGE ( 'NONE', *, *, #399, .F. ) ;
ENDSEC;
END-ISO-10303-21;
