ISO-10303-21;
HEADER;
FILE_DESCRIPTION (( 'STEP AP203' ),
    '1' );
FILE_NAME ('CV03-TR-16_REV_B_97e82c7609d94fedbc745673a58ef5bf.tmp.step',
    '2026-07-11T06:45:03',
    ( '' ),
    ( '' ),
    'SwSTEP 2.0',
    'SolidWorks 2025',
    '' );
FILE_SCHEMA (( 'CONFIG_CONTROL_DESIGN' ));
ENDSEC;

DATA;
#1 = CARTESIAN_POINT ( 'NONE',  ( -343.9999999999996589, -1160.305262667904117, -624.9999999999997726 ) ) ;
#2 = FACE_OUTER_BOUND ( 'NONE', #1250, .T. ) ;
#3 = CARTESIAN_POINT ( 'NONE',  ( -309.9999999999996021, -1100.305262667903662, 25.00000000000046541 ) ) ;
#4 = LINE ( 'NONE', #209, #615 ) ;
#5 = LINE ( 'NONE', #907, #164 ) ;
#6 = CARTESIAN_POINT ( 'NONE',  ( -346.9999999999996589, -1155.305262667904117, -630.9999999999995453 ) ) ;
#7 = DIRECTION ( 'NONE',  ( -0.000000000000000000, -0.000000000000000000, 1.000000000000000000 ) ) ;
#8 = ADVANCED_FACE ( 'NONE', ( #413 ), #613, .T. ) ;
#9 = EDGE_CURVE ( 'NONE', #1242, #185, #1113, .T. ) ;
#10 = DIRECTION ( 'NONE',  ( 0.000000000000000000, 0.000000000000000000, 1.000000000000000000 ) ) ;
#11 = CARTESIAN_POINT ( 'NONE',  ( -346.9999999999996589, -1108.305262667903889, -630.9999999999995453 ) ) ;
#12 = ORIENTED_EDGE ( 'NONE', *, *, #672, .T. ) ;
#13 = ORIENTED_EDGE ( 'NONE', *, *, #343, .F. ) ;
#14 = ORIENTED_EDGE ( 'NONE', *, *, #502, .F. ) ;
#15 = ORIENTED_EDGE ( 'NONE', *, *, #204, .T. ) ;
#16 = LINE ( 'NONE', #825, #572 ) ;
#17 = AXIS2_PLACEMENT_3D ( 'NONE', #441, #644, #1040 ) ;
#18 = CIRCLE ( 'NONE', #595, 1.000000000000000888 ) ;
#19 = DIRECTION ( 'NONE',  ( -1.000000000000000000, 0.000000000000000000, 0.000000000000000000 ) ) ;
#20 = DIRECTION ( 'NONE',  ( 1.000000000000000000, 0.000000000000000000, 0.000000000000000000 ) ) ;
#21 = LOCAL_TIME ( 16, 45, 3.000000000000000000, #67 ) ;
#22 = DIRECTION ( 'NONE',  ( -1.000000000000000000, 0.000000000000000000, 0.000000000000000000 ) ) ;
#23 = FACE_OUTER_BOUND ( 'NONE', #1184, .T. ) ;
#24 = DIRECTION ( 'NONE',  ( 1.000000000000000000, -0.000000000000000000, -0.000000000000000000 ) ) ;
#25 = DIRECTION ( 'NONE',  ( 1.000000000000000000, -0.000000000000000000, -0.000000000000000000 ) ) ;
#26 = EDGE_CURVE ( 'NONE', #485, #915, #1210, .T. ) ;
#27 = ORIENTED_EDGE ( 'NONE', *, *, #400, .T. ) ;
#28 = ORIENTED_EDGE ( 'NONE', *, *, #217, .T. ) ;
#29 = DIRECTION ( 'NONE',  ( 0.000000000000000000, 0.000000000000000000, 1.000000000000000000 ) ) ;
#30 = PLANE ( 'NONE',  #59 ) ;
#31 = CARTESIAN_POINT ( 'NONE',  ( -343.9999999999996589, -1163.305262667903889, -624.9999999999997726 ) ) ;
#32 = DIRECTION ( 'NONE',  ( 0.000000000000000000, 0.000000000000000000, 1.000000000000000000 ) ) ;
#33 = VERTEX_POINT ( 'NONE', #1094 ) ;
#35 = EDGE_CURVE ( 'NONE', #321, #522, #184, .T. ) ;
#34 = CARTESIAN_POINT ( 'NONE',  ( -343.9999999999996589, -1160.305262667904117, 25.00000000000045119 ) ) ;
#36 = ORIENTED_EDGE ( 'NONE', *, *, #717, .F. ) ;
#37 =( NAMED_UNIT ( * ) PLANE_ANGLE_UNIT ( ) SI_UNIT ( $, .RADIAN. ) );
#38 = CIRCLE ( 'NONE', #183, 1.000000000000000888 ) ;
#39 = CARTESIAN_POINT ( 'NONE',  ( 1090.972523324353915, -1100.305262667903662, 25.00000000000046541 ) ) ;
#40 = AXIS2_PLACEMENT_3D ( 'NONE', #1120, #895, #212 ) ;
#41 = VECTOR ( 'NONE', #419, 1000.000000000000000 ) ;
#42 = EDGE_LOOP ( 'NONE', ( #647, #547, #101, #422 ) ) ;
#43 = AXIS2_PLACEMENT_3D ( 'NONE', #581, #602, #380 ) ;
#44 = EDGE_LOOP ( 'NONE', ( #1299, #944, #375, #666 ) ) ;
#45 = ADVANCED_FACE ( 'NONE', ( #1219 ), #313, .F. ) ;
#46 = CARTESIAN_POINT ( 'NONE',  ( -309.9999999999996021, -1100.305262667903662, 104.7558775263622834 ) ) ;
#47 = LINE ( 'NONE', #344, #772 ) ;
#48 = LINE ( 'NONE', #297, #1194 ) ;
#49 = CYLINDRICAL_SURFACE ( 'NONE', #226, 1.000000000000000888 ) ;
#50 = ORIENTED_EDGE ( 'NONE', *, *, #1270, .F. ) ;
#51 = EDGE_CURVE ( 'NONE', #1245, #1048, #287, .T. ) ;
#52 = EDGE_CURVE ( 'NONE', #675, #1032, #626, .T. ) ;
#53 = PRODUCT ( 'CV03-TR-16_REV_B_97e82c7609d94fedbc745673a58ef5bf.tmp', 'CV03-TR-16_REV_B_97e82c7609d94fedbc745673a58ef5bf.tmp', '', ( #668 ) ) ;
#54 = LINE ( 'NONE', #1264, #987 ) ;
#55 = VERTEX_POINT ( 'NONE', #889 ) ;
#56 = ORIENTED_EDGE ( 'NONE', *, *, #1123, .T. ) ;
#57 = CYLINDRICAL_SURFACE ( 'NONE', #963, 1.000000000000000888 ) ;
#58 = CARTESIAN_POINT ( 'NONE',  ( -346.9999999999996589, -1155.305262667904117, -626.9999999999997726 ) ) ;
#59 = AXIS2_PLACEMENT_3D ( 'NONE', #639, #1142, #333 ) ;
#60 = CARTESIAN_POINT ( 'NONE',  ( -349.9999999999996589, -1160.305262667904117, -624.9999999999997726 ) ) ;
#61 = ORIENTED_EDGE ( 'NONE', *, *, #1270, .T. ) ;
#62 = AXIS2_PLACEMENT_3D ( 'NONE', #1243, #340, #632 ) ;
#63 = DIRECTION ( 'NONE',  ( 0.000000000000000000, 0.000000000000000000, 1.000000000000000000 ) ) ;
#64 = CARTESIAN_POINT ( 'NONE',  ( -349.9999999999996589, -1104.305262667903889, 28.00000000000046896 ) ) ;
#65 = VERTEX_POINT ( 'NONE', #699 ) ;
#66 = ADVANCED_FACE ( 'NONE', ( #790 ), #1187, .T. ) ;
#67 = COORDINATED_UNIVERSAL_TIME_OFFSET ( 10, 0, .AHEAD. ) ;
#68 = CARTESIAN_POINT ( 'NONE',  ( -343.9999999999996589, -1100.305262667903889, 25.00000000000046541 ) ) ;
#69 = ORIENTED_EDGE ( 'NONE', *, *, #107, .F. ) ;
#70 = DATE_AND_TIME ( #1096, #383 ) ;
#71 = LINE ( 'NONE', #1074, #988 ) ;
#72 = DIRECTION ( 'NONE',  ( 0.000000000000000000, 0.000000000000000000, -1.000000000000000000 ) ) ;
#73 = FACE_OUTER_BOUND ( 'NONE', #628, .T. ) ;
#74 = DIRECTION ( 'NONE',  ( -1.000000000000000000, 0.000000000000000000, 0.000000000000000000 ) ) ;
#75 = LINE ( 'NONE', #763, #553 ) ;
#76 = EDGE_LOOP ( 'NONE', ( #594, #1058, #684, #931 ) ) ;
#77 = AXIS2_PLACEMENT_3D ( 'NONE', #1289, #517, #1013 ) ;
#78 = AXIS2_PLACEMENT_3D ( 'NONE', #1176, #273, #887 ) ;
#79 = DIRECTION ( 'NONE',  ( 0.000000000000000000, 0.000000000000000000, 1.000000000000000000 ) ) ;
#80 = VECTOR ( 'NONE', #389, 1000.000000000000000 ) ;
#81 = DIRECTION ( 'NONE',  ( 0.000000000000000000, -1.000000000000000000, 0.000000000000000000 ) ) ;
#82 = ADVANCED_FACE ( 'NONE', ( #504 ), #896, .T. ) ;
#83 = ADVANCED_FACE ( 'NONE', ( #2 ), #410, .F. ) ;
#84 = DIRECTION ( 'NONE',  ( 0.000000000000000000, 0.000000000000000000, 1.000000000000000000 ) ) ;
#85 = DIRECTION ( 'NONE',  ( 1.000000000000000000, -0.000000000000000000, -0.000000000000000000 ) ) ;
#86 = CARTESIAN_POINT ( 'NONE',  ( -343.9999999999996589, -1160.305262667904117, 104.7558775263622834 ) ) ;
#87 = DIRECTION ( 'NONE',  ( 1.000000000000000000, 0.000000000000000000, 0.000000000000000000 ) ) ;
#88 = ORIENTED_EDGE ( 'NONE', *, *, #1160, .F. ) ;
#89 = ORIENTED_EDGE ( 'NONE', *, *, #384, .T. ) ;
#90 = EDGE_CURVE ( 'NONE', #1009, #1032, #715, .T. ) ;
#91 = ADVANCED_FACE ( 'NONE', ( #636 ), #246, .T. ) ;
#92 = DIRECTION ( 'NONE',  ( 1.000000000000000000, -0.000000000000000000, -0.000000000000000000 ) ) ;
#93 = ORIENTED_EDGE ( 'NONE', *, *, #1216, .T. ) ;
#94 = DATE_AND_TIME ( #493, #21 ) ;
#95 = FACE_OUTER_BOUND ( 'NONE', #1211, .T. ) ;
#96 = DIRECTION ( 'NONE',  ( -1.000000000000000000, 0.000000000000000000, 0.000000000000000000 ) ) ;
#97 = LINE ( 'NONE', #608, #399 ) ;
#98 = VERTEX_POINT ( 'NONE', #728 ) ;
#99 = VERTEX_POINT ( 'NONE', #749 ) ;
#100 = VECTOR ( 'NONE', #1249, 1000.000000000000000 ) ;
#101 = ORIENTED_EDGE ( 'NONE', *, *, #1175, .T. ) ;
#102 = AXIS2_PLACEMENT_3D ( 'NONE', #629, #1030, #705 ) ;
#103 = FACE_OUTER_BOUND ( 'NONE', #213, .T. ) ;
#104 = AXIS2_PLACEMENT_3D ( 'NONE', #34, #722, #1133 ) ;
#105 = DIRECTION ( 'NONE',  ( 0.000000000000000000, 1.369518533665899079E-16, -1.000000000000000000 ) ) ;
#106 = CARTESIAN_POINT ( 'NONE',  ( -346.9999999999996589, -1108.305262667903889, 25.00000000000045119 ) ) ;
#107 = EDGE_CURVE ( 'NONE', #1224, #1245, #641, .T. ) ;
#108 = EDGE_CURVE ( 'NONE', #522, #33, #228, .T. ) ;
#109 = PLANE ( 'NONE',  #1278 ) ;
#110 = CARTESIAN_POINT ( 'NONE',  ( -309.9999999999996021, -1163.305262667903889, 25.00000000000045119 ) ) ;
#111 = LINE ( 'NONE', #521, #41 ) ;
#112 = ORIENTED_EDGE ( 'NONE', *, *, #9, .F. ) ;
#113 = CARTESIAN_POINT ( 'NONE',  ( -346.9999999999996589, -1104.305262667903889, 28.00000000000046896 ) ) ;
#114 = LINE ( 'NONE', #724, #1300 ) ;
#115 = LINE ( 'NONE', #433, #100 ) ;
#116 = CARTESIAN_POINT ( 'NONE',  ( -346.9999999999996589, -1107.305262667904117, 27.00000000000046896 ) ) ;
#117 = DIRECTION ( 'NONE',  ( 0.000000000000000000, -0.000000000000000000, 1.000000000000000000 ) ) ;
#118 = CIRCLE ( 'NONE', #288, 1.000000000000000888 ) ;
#119 = EDGE_CURVE ( 'NONE', #404, #485, #115, .T. ) ;
#120 = CIRCLE ( 'NONE', #102, 1.000000000000000888 ) ;
#121 = EDGE_CURVE ( 'NONE', #976, #1242, #1035, .T. ) ;
#122 = EDGE_CURVE ( 'NONE', #321, #806, #436, .T. ) ;
#123 = VECTOR ( 'NONE', #611, 1000.000000000000000 ) ;
#124 = VECTOR ( 'NONE', #395, 1000.000000000000000 ) ;
#125 = CARTESIAN_POINT ( 'NONE',  ( -346.9999999999996589, -1155.305262667904117, 31.00000000000047251 ) ) ;
#126 = EDGE_LOOP ( 'NONE', ( #203, #274, #842, #13, #1274, #871, #512, #620, #609, #847, #1183, #926, #867, #1201, #575, #467, #1146, #1083, #138, #1185, #746, #770, #235, #562 ) ) ;
#127 = ORIENTED_EDGE ( 'NONE', *, *, #187, .T. ) ;
#128 = LINE ( 'NONE', #533, #1238 ) ;
#129 = DIRECTION ( 'NONE',  ( 1.000000000000000000, -0.000000000000000000, -0.000000000000000000 ) ) ;
#130 = CARTESIAN_POINT ( 'NONE',  ( -349.9999999999996589, -1160.305262667904117, 27.00000000000046896 ) ) ;
#131 = EDGE_CURVE ( 'NONE', #712, #242, #320, .T. ) ;
#132 = CC_DESIGN_PERSON_AND_ORGANIZATION_ASSIGNMENT ( #598, #1072, ( #403 ) ) ;
#133 = CARTESIAN_POINT ( 'NONE',  ( -346.9999999999996589, -1093.805262667903889, 25.00000000000045119 ) ) ;
#134 = ORIENTED_EDGE ( 'NONE', *, *, #26, .F. ) ;
#135 = EDGE_LOOP ( 'NONE', ( #700, #1121, #1177, #1290 ) ) ;
#136 = LINE ( 'NONE', #1232, #487 ) ;
#137 = ORIENTED_EDGE ( 'NONE', *, *, #751, .F. ) ;
#138 = ORIENTED_EDGE ( 'NONE', *, *, #1152, .F. ) ;
#139 = LINE ( 'NONE', #548, #511 ) ;
#140 = ORIENTED_EDGE ( 'NONE', *, *, #1216, .F. ) ;
#141 = DIRECTION ( 'NONE',  ( -0.000000000000000000, -0.000000000000000000, -1.000000000000000000 ) ) ;
#142 = LINE ( 'NONE', #46, #442 ) ;
#143 = CLOSED_SHELL ( 'NONE', ( #703, #903, #1217, #843, #91, #66, #1007, #902, #1189, #558, #8, #928, #822, #240, #929, #1159, #83, #216, #322, #942, #427, #1137, #1055, #45, #1235, #82, #1248, #621, #523, #692, #1254, #455, #655, #541, #218, #884, #1023, #654, #280, #363, #844, #943 ) ) ;
#144 = DIRECTION ( 'NONE',  ( 0.000000000000000000, 0.000000000000000000, 1.000000000000000000 ) ) ;
#145 = AXIS2_PLACEMENT_3D ( 'NONE', #1061, #1157, #966 ) ;
#146 = AXIS2_PLACEMENT_3D ( 'NONE', #802, #1203, #495 ) ;
#147 = VERTEX_POINT ( 'NONE', #934 ) ;
#148 = EDGE_CURVE ( 'NONE', #828, #415, #741, .T. ) ;
#149 = EDGE_CURVE ( 'NONE', #242, #1284, #219, .T. ) ;
#150 = DIRECTION ( 'NONE',  ( 1.000000000000000000, -0.000000000000000000, -0.000000000000000000 ) ) ;
#151 = DIRECTION ( 'NONE',  ( 0.000000000000000000, 0.000000000000000000, 1.000000000000000000 ) ) ;
#152 = LINE ( 'NONE', #561, #1010 ) ;
#153 = ORIENTED_EDGE ( 'NONE', *, *, #808, .F. ) ;
#154 = ORIENTED_EDGE ( 'NONE', *, *, #600, .T. ) ;
#155 = LINE ( 'NONE', #252, #793 ) ;
#156 = CARTESIAN_POINT ( 'NONE',  ( -309.9999999999996021, -1100.305262667903662, -624.9999999999997726 ) ) ;
#157 = EDGE_LOOP ( 'NONE', ( #339, #348, #1086, #786 ) ) ;
#158 = DIRECTION ( 'NONE',  ( 0.000000000000000000, 0.000000000000000000, 1.000000000000000000 ) ) ;
#159 = EDGE_CURVE ( 'NONE', #806, #915, #329, .T. ) ;
#160 = DIRECTION ( 'NONE',  ( 1.000000000000000000, -0.000000000000000000, -0.000000000000000000 ) ) ;
#161 = CARTESIAN_POINT ( 'NONE',  ( -349.9999999999996589, -1103.305262667904117, 27.00000000000046896 ) ) ;
#162 = DIRECTION ( 'NONE',  ( 0.000000000000000000, 0.000000000000000000, 1.000000000000000000 ) ) ;
#163 = ORIENTED_EDGE ( 'NONE', *, *, #502, .T. ) ;
#164 = VECTOR ( 'NONE', #1092, 1000.000000000000000 ) ;
#165 = AXIS2_PLACEMENT_3D ( 'NONE', #1273, #490, #170 ) ;
#166 = APPROVAL_DATE_TIME ( #1292, #640 ) ;
#167 = DIRECTION ( 'NONE',  ( 1.000000000000000000, -0.000000000000000000, -0.000000000000000000 ) ) ;
#168 = ORIENTED_EDGE ( 'NONE', *, *, #1287, .F. ) ;
#169 = DIRECTION ( 'NONE',  ( -0.000000000000000000, 0.000000000000000000, -1.000000000000000000 ) ) ;
#170 = DIRECTION ( 'NONE',  ( 0.000000000000000000, 1.000000000000000000, -0.000000000000000000 ) ) ;
#171 = ORIENTED_EDGE ( 'NONE', *, *, #524, .T. ) ;
#172 = VERTEX_POINT ( 'NONE', #832 ) ;
#173 = APPLICATION_PROTOCOL_DEFINITION ( 'international standard', 'config_control_design', 1994, #1051 ) ;
#174 = CARTESIAN_POINT ( 'NONE',  ( -343.9999999999996589, -1160.305262667904117, 104.7558775263622834 ) ) ;
#175 = ORIENTED_EDGE ( 'NONE', *, *, #524, .F. ) ;
#176 = CARTESIAN_POINT ( 'NONE',  ( 1090.972523324354370, -1163.305262667896159, 25.00000000000045119 ) ) ;
#177 = ORIENTED_EDGE ( 'NONE', *, *, #817, .F. ) ;
#178 = APPLICATION_PROTOCOL_DEFINITION ( 'international standard', 'config_control_design', 1994, #197 ) ;
#179 = CARTESIAN_POINT ( 'NONE',  ( 1090.972523324353915, -1100.305262667903662, 104.7558775263622834 ) ) ;
#180 = ORIENTED_EDGE ( 'NONE', *, *, #90, .F. ) ;
#181 = DIRECTION ( 'NONE',  ( 0.000000000000000000, -1.000000000000000000, 0.000000000000000000 ) ) ;
#182 = ORIENTED_EDGE ( 'NONE', *, *, #439, .T. ) ;
#183 = AXIS2_PLACEMENT_3D ( 'NONE', #1237, #20, #546 ) ;
#184 = CIRCLE ( 'NONE', #77, 1.000000000000000888 ) ;
#185 = VERTEX_POINT ( 'NONE', #1226 ) ;
#186 = VECTOR ( 'NONE', #476, 1000.000000000000000 ) ;
#187 = EDGE_CURVE ( 'NONE', #404, #1107, #535, .T. ) ;
#188 = PERSON_AND_ORGANIZATION_ROLE ( 'creator' ) ;
#189 = AXIS2_PLACEMENT_3D ( 'NONE', #347, #953, #1078 ) ;
#190 = CARTESIAN_POINT ( 'NONE',  ( -343.9999999999996589, -1163.305262667904117, 25.00000000000045119 ) ) ;
#191 = UNCERTAINTY_MEASURE_WITH_UNIT (LENGTH_MEASURE( 1.000000000000000082E-05 ), #515, 'distance_accuracy_value', 'NONE');
#192 = FACE_OUTER_BOUND ( 'NONE', #1145, .T. ) ;
#193 = DIRECTION ( 'NONE',  ( 0.000000000000000000, 1.369518533665899079E-16, -1.000000000000000000 ) ) ;
#194 = CARTESIAN_POINT ( 'NONE',  ( -346.9999999999996589, -1155.305262667904117, -627.9999999999997726 ) ) ;
#195 = ORIENTED_EDGE ( 'NONE', *, *, #342, .T. ) ;
#196 = APPROVAL_ROLE ( '' ) ;
#197 = APPLICATION_CONTEXT ( 'configuration controlled 3d designs of mechanical parts and assemblies' ) ;
#198 = DIRECTION ( 'NONE',  ( 0.000000000000000000, -1.000000000000000000, -1.369518533665899079E-16 ) ) ;
#199 = FACE_OUTER_BOUND ( 'NONE', #721, .T. ) ;
#200 = DIRECTION ( 'NONE',  ( 0.000000000000000000, -1.000000000000000000, 0.000000000000000000 ) ) ;
#201 = EDGE_LOOP ( 'NONE', ( #220, #345, #1192, #14 ) ) ;
#202 = ORIENTED_EDGE ( 'NONE', *, *, #465, .F. ) ;
#203 = ORIENTED_EDGE ( 'NONE', *, *, #9, .T. ) ;
#204 = EDGE_CURVE ( 'NONE', #505, #407, #136, .T. ) ;
#205 = EDGE_CURVE ( 'NONE', #555, #807, #38, .T. ) ;
#206 = VECTOR ( 'NONE', #508, 1000.000000000000000 ) ;
#207 = CARTESIAN_POINT ( 'NONE',  ( 1090.972523324354370, -1163.305262667896159, -624.9999999999997726 ) ) ;
#208 = VECTOR ( 'NONE', #1005, 1000.000000000000000 ) ;
#209 = CARTESIAN_POINT ( 'NONE',  ( -349.9999999999996589, -1103.305262667904117, 104.7558775263622834 ) ) ;
#210 = CARTESIAN_POINT ( 'NONE',  ( -346.9999999999996589, -1160.305262667904117, 27.00000000000046185 ) ) ;
#211 = DIRECTION ( 'NONE',  ( 1.000000000000000000, -0.000000000000000000, -0.000000000000000000 ) ) ;
#212 = DIRECTION ( 'NONE',  ( 0.000000000000000000, 0.000000000000000000, -1.000000000000000000 ) ) ;
#213 = EDGE_LOOP ( 'NONE', ( #351, #752, #12, #473 ) ) ;
#214 = CYLINDRICAL_SURFACE ( 'NONE', #696, 1.000000000000000888 ) ;
#215 = FACE_OUTER_BOUND ( 'NONE', #761, .T. ) ;
#216 = ADVANCED_FACE ( 'NONE', ( #939 ), #430, .F. ) ;
#217 = EDGE_CURVE ( 'NONE', #55, #665, #47, .T. ) ;
#218 = ADVANCED_FACE ( 'NONE', ( #238 ), #646, .F. ) ;
#219 = LINE ( 'NONE', #1031, #265 ) ;
#220 = ORIENTED_EDGE ( 'NONE', *, *, #187, .F. ) ;
#221 = ORIENTED_EDGE ( 'NONE', *, *, #883, .T. ) ;
#222 = CARTESIAN_POINT ( 'NONE',  ( -346.9999999999996589, -1160.305262667904117, 27.00000000000046185 ) ) ;
#223 = EDGE_CURVE ( 'NONE', #1001, #1048, #846, .T. ) ;
#224 = EDGE_CURVE ( 'NONE', #543, #1001, #1280, .T. ) ;
#225 = LINE ( 'NONE', #1196, #382 ) ;
#226 = AXIS2_PLACEMENT_3D ( 'NONE', #452, #948, #84 ) ;
#227 = VECTOR ( 'NONE', #908, 1000.000000000000000 ) ;
#228 = LINE ( 'NONE', #734, #985 ) ;
#229 = DIRECTION ( 'NONE',  ( -0.000000000000000000, -1.000000000000000000, 0.000000000000000000 ) ) ;
#230 = ORIENTED_EDGE ( 'NONE', *, *, #314, .F. ) ;
#231 = ORIENTED_EDGE ( 'NONE', *, *, #821, .T. ) ;
#232 = DIRECTION ( 'NONE',  ( -0.000000000000000000, -0.000000000000000000, -1.000000000000000000 ) ) ;
#233 = DIRECTION ( 'NONE',  ( 0.000000000000000000, 0.000000000000000000, -1.000000000000000000 ) ) ;
#234 = CARTESIAN_POINT ( 'NONE',  ( -346.9999999999996589, -1159.305262667904117, -627.9999999999997726 ) ) ;
#235 = ORIENTED_EDGE ( 'NONE', *, *, #648, .F. ) ;
#236 = EDGE_LOOP ( 'NONE', ( #1234, #745, #605, #836 ) ) ;
#237 = CARTESIAN_POINT ( 'NONE',  ( -346.9999999999996589, -1160.305262667904117, -626.9999999999997726 ) ) ;
#238 = FACE_OUTER_BOUND ( 'NONE', #952, .T. ) ;
#239 = EDGE_CURVE ( 'NONE', #352, #977, #365, .T. ) ;
#240 = ADVANCED_FACE ( 'NONE', ( #862 ), #571, .F. ) ;
#241 = ORIENTED_EDGE ( 'NONE', *, *, #131, .F. ) ;
#242 = VERTEX_POINT ( 'NONE', #658 ) ;
#243 = CARTESIAN_POINT ( 'NONE',  ( -346.9999999999996589, -1108.305262667903889, -630.9999999999995453 ) ) ;
#244 = AXIS2_PLACEMENT_3D ( 'NONE', #652, #554, #32 ) ;
#245 = APPROVAL_STATUS ( 'not_yet_approved' ) ;
#246 = CYLINDRICAL_SURFACE ( 'NONE', #244, 1.000000000000000888 ) ;
#247 = CIRCLE ( 'NONE', #1088, 1.000000000000000888 ) ;
#248 = VECTOR ( 'NONE', #1022, 1000.000000000000000 ) ;
#249 = ORIENTED_EDGE ( 'NONE', *, *, #1297, .T. ) ;
#250 = VECTOR ( 'NONE', #181, 1000.000000000000000 ) ;
#251 = ORIENTED_EDGE ( 'NONE', *, *, #1174, .T. ) ;
#252 = CARTESIAN_POINT ( 'NONE',  ( -346.9999999999996589, -1108.305262667903889, 31.00000000000048672 ) ) ;
#253 = CARTESIAN_POINT ( 'NONE',  ( -346.9999999999996589, -1159.305262667904117, 28.00000000000046185 ) ) ;
#254 = VERTEX_POINT ( 'NONE', #156 ) ;
#255 = ORIENTED_EDGE ( 'NONE', *, *, #224, .F. ) ;
#256 = ORIENTED_EDGE ( 'NONE', *, *, #830, .F. ) ;
#257 = EDGE_CURVE ( 'NONE', #290, #1229, #762, .T. ) ;
#258 = CARTESIAN_POINT ( 'NONE',  ( -346.9999999999996589, -1159.305262667904117, -627.9999999999997726 ) ) ;
#259 = DIRECTION ( 'NONE',  ( 1.000000000000000000, 5.551115123125788224E-15, 0.000000000000000000 ) ) ;
#260 = PLANE ( 'NONE',  #165 ) ;
#261 = EDGE_LOOP ( 'NONE', ( #1132, #1045, #754, #643 ) ) ;
#262 = ORIENTED_EDGE ( 'NONE', *, *, #730, .T. ) ;
#263 = EDGE_CURVE ( 'NONE', #374, #567, #118, .T. ) ;
#264 = FACE_OUTER_BOUND ( 'NONE', #851, .T. ) ;
#265 = VECTOR ( 'NONE', #921, 1000.000000000000000 ) ;
#266 = VECTOR ( 'NONE', #718, 1000.000000000000000 ) ;
#267 = FACE_OUTER_BOUND ( 'NONE', #236, .T. ) ;
#268 = ORIENTED_EDGE ( 'NONE', *, *, #782, .T. ) ;
#269 = VECTOR ( 'NONE', #707, 1000.000000000000000 ) ;
#270 = VECTOR ( 'NONE', #981, 1000.000000000000000 ) ;
#271 = CALENDAR_DATE ( 2026, 11, 7 ) ;
#272 = CARTESIAN_POINT ( 'NONE',  ( -346.9999999999996589, -1103.305262667904117, -626.9999999999997726 ) ) ;
#273 = DIRECTION ( 'NONE',  ( -0.000000000000000000, -0.000000000000000000, -1.000000000000000000 ) ) ;
#274 = ORIENTED_EDGE ( 'NONE', *, *, #400, .F. ) ;
#275 = CARTESIAN_POINT ( 'NONE',  ( -346.9999999999996589, -1103.305262667904117, 28.00000000000046896 ) ) ;
#276 = DIRECTION ( 'NONE',  ( 5.551115123125788224E-15, -1.000000000000000000, 0.000000000000000000 ) ) ;
#277 = LINE ( 'NONE', #573, #1110 ) ;
#278 = FACE_OUTER_BOUND ( 'NONE', #1102, .T. ) ;
#279 = EDGE_LOOP ( 'NONE', ( #1033, #195, #367, #458 ) ) ;
#280 = ADVANCED_FACE ( 'NONE', ( #1162 ), #385, .T. ) ;
#281 = EDGE_CURVE ( 'NONE', #970, #1233, #1165, .T. ) ;
#282 = ORIENTED_EDGE ( 'NONE', *, *, #342, .F. ) ;
#283 = APPROVAL_ROLE ( '' ) ;
#284 = DIRECTION ( 'NONE',  ( 0.000000000000000000, 0.000000000000000000, -1.000000000000000000 ) ) ;
#285 = LINE ( 'NONE', #697, #901 ) ;
#286 = FACE_OUTER_BOUND ( 'NONE', #735, .T. ) ;
#287 = LINE ( 'NONE', #1101, #873 ) ;
#288 = AXIS2_PLACEMENT_3D ( 'NONE', #1057, #1179, #72 ) ;
#289 = CIRCLE ( 'NONE', #309, 1.000000000000000888 ) ;
#290 = VERTEX_POINT ( 'NONE', #1069 ) ;
#291 = VECTOR ( 'NONE', #933, 1000.000000000000000 ) ;
#292 = DATE_AND_TIME ( #686, #426 ) ;
#293 = FACE_OUTER_BOUND ( 'NONE', #779, .T. ) ;
#294 = PLANE ( 'NONE',  #17 ) ;
#295 = LINE ( 'NONE', #1105, #206 ) ;
#296 = DIRECTION ( 'NONE',  ( -0.000000000000000000, 1.369518533665899079E-16, -1.000000000000000000 ) ) ;
#297 = CARTESIAN_POINT ( 'NONE',  ( -349.9999999999996589, -1093.805262667903889, -627.9999999999997726 ) ) ;
#298 = DIRECTION ( 'NONE',  ( 1.000000000000000000, -0.000000000000000000, -0.000000000000000000 ) ) ;
#299 = EDGE_CURVE ( 'NONE', #667, #1223, #898, .T. ) ;
#300 = EDGE_CURVE ( 'NONE', #1223, #736, #54, .T. ) ;
#301 = CARTESIAN_POINT ( 'NONE',  ( -349.9999999999996589, -1159.305262667904117, -627.9999999999997726 ) ) ;
#302 = PLANE ( 'NONE',  #146 ) ;
#303 = LINE ( 'NONE', #989, #424 ) ;
#304 = DIRECTION ( 'NONE',  ( 0.000000000000000000, -0.000000000000000000, -1.000000000000000000 ) ) ;
#305 = CARTESIAN_POINT ( 'NONE',  ( -343.9999999999996589, -1160.305262667904117, -624.9999999999997726 ) ) ;
#306 = CARTESIAN_POINT ( 'NONE',  ( 1090.972523324353915, -1097.305262667903889, 25.00000000000046541 ) ) ;
#307 = EDGE_LOOP ( 'NONE', ( #175, #881, #1240, #971 ) ) ;
#308 = VECTOR ( 'NONE', #445, 1000.000000000000000 ) ;
#309 = AXIS2_PLACEMENT_3D ( 'NONE', #624, #1019, #918 ) ;
#310 = CIRCLE ( 'NONE', #492, 1.000000000000000888 ) ;
#311 = PRODUCT_DEFINITION_FORMATION_WITH_SPECIFIED_SOURCE ( 'ANY', '', #53, .NOT_KNOWN. ) ;
#312 = CARTESIAN_POINT ( 'NONE',  ( -343.9999999999996589, -1100.305262667903662, 104.7558775263622834 ) ) ;
#313 = PLANE ( 'NONE',  #1190 ) ;
#314 = EDGE_CURVE ( 'NONE', #1052, #99, #768, .T. ) ;
#315 = EDGE_CURVE ( 'NONE', #712, #1032, #247, .T. ) ;
#316 = EDGE_LOOP ( 'NONE', ( #1207, #729, #28, #528 ) ) ;
#317 = ORIENTED_EDGE ( 'NONE', *, *, #883, .F. ) ;
#318 = ORIENTED_EDGE ( 'NONE', *, *, #783, .T. ) ;
#319 = LINE ( 'NONE', #1117, #899 ) ;
#320 = LINE ( 'NONE', #1130, #833 ) ;
#321 = VERTEX_POINT ( 'NONE', #486 ) ;
#322 = ADVANCED_FACE ( 'NONE', ( #876 ), #462, .F. ) ;
#323 = EDGE_CURVE ( 'NONE', #55, #505, #152, .T. ) ;
#324 = CARTESIAN_POINT ( 'NONE',  ( -349.9999999999996589, -1104.305262667903889, -627.9999999999997726 ) ) ;
#325 = ORIENTED_EDGE ( 'NONE', *, *, #767, .F. ) ;
#326 = PLANE ( 'NONE',  #463 ) ;
#327 = CARTESIAN_POINT ( 'NONE',  ( -309.9999999999996021, -1163.305262667903889, -624.9999999999997726 ) ) ;
#328 = CARTESIAN_POINT ( 'NONE',  ( -349.9999999999996589, -1155.305262667904117, 27.00000000000046896 ) ) ;
#329 = LINE ( 'NONE', #133, #1169 ) ;
#330 = ORIENTED_EDGE ( 'NONE', *, *, #35, .T. ) ;
#331 = LINE ( 'NONE', #831, #334 ) ;
#332 = VECTOR ( 'NONE', #850, 1000.000000000000000 ) ;
#333 = DIRECTION ( 'NONE',  ( 1.000000000000000000, 5.551115123125788224E-15, 0.000000000000000000 ) ) ;
#334 = VECTOR ( 'NONE', #794, 1000.000000000000000 ) ;
#335 = CIRCLE ( 'NONE', #838, 1.000000000000000888 ) ;
#336 = DIRECTION ( 'NONE',  ( 0.000000000000000000, 0.000000000000000000, -1.000000000000000000 ) ) ;
#337 = EDGE_LOOP ( 'NONE', ( #325, #936, #411, #1303 ) ) ;
#338 = DIRECTION ( 'NONE',  ( 1.000000000000000000, -0.000000000000000000, -0.000000000000000000 ) ) ;
#339 = ORIENTED_EDGE ( 'NONE', *, *, #217, .F. ) ;
#340 = DIRECTION ( 'NONE',  ( -0.000000000000000000, -0.000000000000000000, -1.000000000000000000 ) ) ;
#341 = CARTESIAN_POINT ( 'NONE',  ( -349.9999999999996589, -1107.305262667904117, 27.00000000000046896 ) ) ;
#342 = EDGE_CURVE ( 'NONE', #65, #352, #857, .T. ) ;
#343 = EDGE_CURVE ( 'NONE', #567, #555, #1252, .T. ) ;
#344 = CARTESIAN_POINT ( 'NONE',  ( -346.9999999999996589, -1108.305262667903889, -626.9999999999997726 ) ) ;
#345 = ORIENTED_EDGE ( 'NONE', *, *, #119, .T. ) ;
#346 = DIRECTION ( 'NONE',  ( 0.000000000000000000, -0.000000000000000000, 1.000000000000000000 ) ) ;
#347 = CARTESIAN_POINT ( 'NONE',  ( -346.9999999999995453, -1104.305262667903889, -626.9999999999997726 ) ) ;
#348 = ORIENTED_EDGE ( 'NONE', *, *, #1136, .T. ) ;
#349 = LINE ( 'NONE', #747, #814 ) ;
#350 = CARTESIAN_POINT ( 'NONE',  ( -346.9999999999996589, -1103.305262667904117, -630.9999999999995453 ) ) ;
#351 = ORIENTED_EDGE ( 'NONE', *, *, #257, .F. ) ;
#352 = VERTEX_POINT ( 'NONE', #760 ) ;
#353 = DIRECTION ( 'NONE',  ( 0.000000000000000000, -1.000000000000000000, 0.000000000000000000 ) ) ;
#354 = AXIS2_PLACEMENT_3D ( 'NONE', #774, #681, #1075 ) ;
#355 = DIRECTION ( 'NONE',  ( -1.000000000000000000, 0.000000000000000000, 0.000000000000000000 ) ) ;
#356 = CIRCLE ( 'NONE', #40, 1.000000000000000888 ) ;
#357 = DIRECTION ( 'NONE',  ( -0.000000000000000000, -0.000000000000000000, 1.000000000000000000 ) ) ;
#358 = CARTESIAN_POINT ( 'NONE',  ( -349.9999999999996589, -1093.805262667903889, 28.00000000000046896 ) ) ;
#359 = VECTOR ( 'NONE', #849, 1000.000000000000000 ) ;
#360 = VECTOR ( 'NONE', #129, 1000.000000000000000 ) ;
#361 = ORIENTED_EDGE ( 'NONE', *, *, #108, .T. ) ;
#362 = EDGE_CURVE ( 'NONE', #555, #33, #870, .T. ) ;
#363 = ADVANCED_FACE ( 'NONE', ( #293 ), #1098, .T. ) ;
#364 = ORIENTED_EDGE ( 'NONE', *, *, #1287, .T. ) ;
#365 = LINE ( 'NONE', #68, #1108 ) ;
#366 = LINE ( 'NONE', #494, #1153 ) ;
#367 = ORIENTED_EDGE ( 'NONE', *, *, #599, .F. ) ;
#368 = ORIENTED_EDGE ( 'NONE', *, *, #51, .F. ) ;
#369 = EDGE_CURVE ( 'NONE', #543, #1245, #4, .T. ) ;
#370 = CC_DESIGN_PERSON_AND_ORGANIZATION_ASSIGNMENT ( #882, #1271, ( #311 ) ) ;
#371 = DIRECTION ( 'NONE',  ( -0.000000000000000000, 1.000000000000000000, -0.000000000000000000 ) ) ;
#372 = DIRECTION ( 'NONE',  ( -1.000000000000000000, -0.000000000000000000, -0.000000000000000000 ) ) ;
#373 = PLANE ( 'NONE',  #1014 ) ;
#374 = VERTEX_POINT ( 'NONE', #328 ) ;
#375 = ORIENTED_EDGE ( 'NONE', *, *, #1006, .T. ) ;
#376 = CARTESIAN_POINT ( 'NONE',  ( -346.9999999999996589, -1103.305262667904117, 25.00000000000045119 ) ) ;
#377 = VECTOR ( 'NONE', #160, 1000.000000000000000 ) ;
#378 = CARTESIAN_POINT ( 'NONE',  ( -346.9999999999996589, -1156.305262667904117, -627.9999999999997726 ) ) ;
#379 = AXIS2_PLACEMENT_3D ( 'NONE', #999, #711, #714 ) ;
#380 = DIRECTION ( 'NONE',  ( 1.000000000000000000, 0.000000000000000000, 0.000000000000000000 ) ) ;
#381 = ORIENTED_EDGE ( 'NONE', *, *, #821, .F. ) ;
#382 = VECTOR ( 'NONE', #710, 1000.000000000000000 ) ;
#383 = LOCAL_TIME ( 16, 45, 3.000000000000000000, #586 ) ;
#384 = EDGE_CURVE ( 'NONE', #98, #806, #1119, .T. ) ;
#385 = PLANE ( 'NONE',  #720 ) ;
#386 = CARTESIAN_POINT ( 'NONE',  ( 1090.972523324353915, -1100.305262667903662, -624.9999999999997726 ) ) ;
#387 = ORIENTED_EDGE ( 'NONE', *, *, #791, .T. ) ;
#388 = DATE_AND_TIME ( #748, #574 ) ;
#389 = DIRECTION ( 'NONE',  ( 1.000000000000000000, -0.000000000000000000, -0.000000000000000000 ) ) ;
#390 = DIRECTION ( 'NONE',  ( -1.000000000000000000, 0.000000000000000000, 0.000000000000000000 ) ) ;
#391 = LINE ( 'NONE', #566, #670 ) ;
#392 = CARTESIAN_POINT ( 'NONE',  ( 1090.972523324354370, -1166.305262667895931, -624.9999999999997726 ) ) ;
#393 = DIRECTION ( 'NONE',  ( 0.000000000000000000, 1.000000000000000000, -0.000000000000000000 ) ) ;
#394 = ORIENTED_EDGE ( 'NONE', *, *, #607, .F. ) ;
#395 = DIRECTION ( 'NONE',  ( 0.000000000000000000, -1.000000000000000000, 0.000000000000000000 ) ) ;
#396 = CARTESIAN_POINT ( 'NONE',  ( -349.9999999999995453, -1107.305262667904117, -626.9999999999997726 ) ) ;
#397 = CARTESIAN_POINT ( 'NONE',  ( -346.9999999999996589, -1156.305262667904117, -627.9999999999997726 ) ) ;
#398 = CARTESIAN_POINT ( 'NONE',  ( -346.9999999999996589, -1155.305262667904117, 31.00000000000047251 ) ) ;
#399 = VECTOR ( 'NONE', #503, 1000.000000000000000 ) ;
#400 = EDGE_CURVE ( 'NONE', #807, #185, #139, .T. ) ;
#401 = EDGE_CURVE ( 'NONE', #1015, #407, #128, .T. ) ;
#402 = AXIS2_PLACEMENT_3D ( 'NONE', #661, #141, #353 ) ;
#403 = SECURITY_CLASSIFICATION ( '', '', #1286 ) ;
#404 = VERTEX_POINT ( 'NONE', #617 ) ;
#405 = CARTESIAN_POINT ( 'NONE',  ( -349.9999999999995453, -1159.305262667904117, -626.9999999999997726 ) ) ;
#406 = FACE_OUTER_BOUND ( 'NONE', #765, .T. ) ;
#407 = VERTEX_POINT ( 'NONE', #1230 ) ;
#408 = CARTESIAN_POINT ( 'NONE',  ( -346.9999999999996589, -1103.305262667904117, 28.00000000000046896 ) ) ;
#409 = CARTESIAN_POINT ( 'NONE',  ( -349.9999999999996589, -1159.305262667904117, 28.00000000000046896 ) ) ;
#410 = PLANE ( 'NONE',  #961 ) ;
#411 = ORIENTED_EDGE ( 'NONE', *, *, #300, .T. ) ;
#412 = LINE ( 'NONE', #306, #266 ) ;
#413 = FACE_OUTER_BOUND ( 'NONE', #157, .T. ) ;
#414 = ORIENTED_EDGE ( 'NONE', *, *, #1059, .F. ) ;
#415 = VERTEX_POINT ( 'NONE', #716 ) ;
#416 = CARTESIAN_POINT ( 'NONE',  ( -346.9999999999996589, -1155.305262667904117, -630.9999999999995453 ) ) ;
#417 = DIRECTION ( 'NONE',  ( 0.000000000000000000, -0.000000000000000000, 1.000000000000000000 ) ) ;
#418 = CARTESIAN_POINT ( 'NONE',  ( -349.9999999999996589, -1160.305262667904117, 104.7558775263622834 ) ) ;
#419 = DIRECTION ( 'NONE',  ( -1.000000000000000000, -0.000000000000000000, -0.000000000000000000 ) ) ;
#420 = AXIS2_PLACEMENT_3D ( 'NONE', #39, #336, #1138 ) ;
#421 = EDGE_LOOP ( 'NONE', ( #823, #1008, #127, #660 ) ) ;
#422 = ORIENTED_EDGE ( 'NONE', *, *, #131, .T. ) ;
#423 = VECTOR ( 'NONE', #92, 1000.000000000000000 ) ;
#424 = VECTOR ( 'NONE', #1011, 1000.000000000000000 ) ;
#425 = CARTESIAN_POINT ( 'NONE',  ( -343.9999999999996589, -1103.305262667903889, -624.9999999999997726 ) ) ;
#426 = LOCAL_TIME ( 16, 45, 3.000000000000000000, #604 ) ;
#427 = ADVANCED_FACE ( 'NONE', ( #1212 ), #49, .T. ) ;
#428 = EDGE_CURVE ( 'NONE', #374, #98, #366, .T. ) ;
#429 = CARTESIAN_POINT ( 'NONE',  ( -346.9999999999996589, -1107.305262667904117, 28.00000000000046896 ) ) ;
#430 = PLANE ( 'NONE',  #420 ) ;
#431 = EDGE_LOOP ( 'NONE', ( #171, #1070, #587, #1028 ) ) ;
#432 = DIRECTION ( 'NONE',  ( 0.000000000000000000, 0.000000000000000000, 1.000000000000000000 ) ) ;
#433 = CARTESIAN_POINT ( 'NONE',  ( -349.9999999999996589, -1108.305262667903889, 104.7558775263622834 ) ) ;
#434 = VERTEX_POINT ( 'NONE', #376 ) ;
#435 = ORIENTED_EDGE ( 'NONE', *, *, #691, .T. ) ;
#436 = LINE ( 'NONE', #125, #440 ) ;
#437 = ORIENTED_EDGE ( 'NONE', *, *, #482, .F. ) ;
#438 = EDGE_CURVE ( 'NONE', #491, #415, #391, .T. ) ;
#439 = EDGE_CURVE ( 'NONE', #1038, #543, #289, .T. ) ;
#440 = VECTOR ( 'NONE', #1244, 1000.000000000000000 ) ;
#441 = CARTESIAN_POINT ( 'NONE',  ( -346.9999999999996589, -1160.305262667904117, 31.00000000000047251 ) ) ;
#442 = VECTOR ( 'NONE', #449, 1000.000000000000000 ) ;
#443 = VECTOR ( 'NONE', #372, 1000.000000000000000 ) ;
#444 = AXIS2_PLACEMENT_3D ( 'NONE', #531, #1104, #284 ) ;
#445 = DIRECTION ( 'NONE',  ( 0.000000000000000000, 0.000000000000000000, 1.000000000000000000 ) ) ;
#446 = ORIENTED_EDGE ( 'NONE', *, *, #1114, .T. ) ;
#447 = ORIENTED_EDGE ( 'NONE', *, *, #362, .T. ) ;
#448 = CARTESIAN_POINT ( 'NONE',  ( -346.9999999999995453, -1156.305262667904117, -626.9999999999997726 ) ) ;
#449 = DIRECTION ( 'NONE',  ( 0.000000000000000000, -0.000000000000000000, -1.000000000000000000 ) ) ;
#450 = DIRECTION ( 'NONE',  ( 1.000000000000000000, 0.000000000000000000, 0.000000000000000000 ) ) ;
#451 = ORIENTED_EDGE ( 'NONE', *, *, #474, .F. ) ;
#452 = CARTESIAN_POINT ( 'NONE',  ( -346.9999999999996589, -1104.305262667903889, 27.00000000000046896 ) ) ;
#453 = VERTEX_POINT ( 'NONE', #826 ) ;
#454 = DIRECTION ( 'NONE',  ( -0.000000000000000000, 1.369518533665899079E-16, -1.000000000000000000 ) ) ;
#455 = ADVANCED_FACE ( 'NONE', ( #727 ), #30, .F. ) ;
#456 = EDGE_CURVE ( 'NONE', #65, #1076, #545, .T. ) ;
#457 = CARTESIAN_POINT ( 'NONE',  ( -343.9999999999996589, -1097.305262667903889, 104.7558775263622834 ) ) ;
#458 = ORIENTED_EDGE ( 'NONE', *, *, #1059, .T. ) ;
#459 = VERTEX_POINT ( 'NONE', #1042 ) ;
#460 = DIRECTION ( 'NONE',  ( -0.000000000000000000, 1.369518533665899079E-16, -1.000000000000000000 ) ) ;
#461 = CIRCLE ( 'NONE', #1193, 1.000000000000000888 ) ;
#462 = PLANE ( 'NONE',  #923 ) ;
#463 = AXIS2_PLACEMENT_3D ( 'NONE', #207, #1202, #1129 ) ;
#464 = EDGE_CURVE ( 'NONE', #932, #254, #142, .T. ) ;
#465 = EDGE_CURVE ( 'NONE', #601, #1284, #349, .T. ) ;
#466 = DIRECTION ( 'NONE',  ( -0.000000000000000000, -1.000000000000000000, 0.000000000000000000 ) ) ;
#467 = ORIENTED_EDGE ( 'NONE', *, *, #563, .T. ) ;
#468 = ORIENTED_EDGE ( 'NONE', *, *, #401, .T. ) ;
#469 = FACE_OUTER_BOUND ( 'NONE', #126, .T. ) ;
#470 = DIRECTION ( 'NONE',  ( 0.000000000000000000, 0.000000000000000000, -1.000000000000000000 ) ) ;
#471 = DIRECTION ( 'NONE',  ( 1.000000000000000000, -0.000000000000000000, -0.000000000000000000 ) ) ;
#472 = CARTESIAN_POINT ( 'NONE',  ( -349.9999999999996589, -1103.305262667904117, 25.00000000000045119 ) ) ;
#473 = ORIENTED_EDGE ( 'NONE', *, *, #583, .F. ) ;
#474 = EDGE_CURVE ( 'NONE', #665, #407, #1147, .T. ) ;
#475 = DIRECTION ( 'NONE',  ( 0.000000000000000000, -1.000000000000000000, 0.000000000000000000 ) ) ;
#476 = DIRECTION ( 'NONE',  ( -0.000000000000000000, -1.000000000000000000, 0.000000000000000000 ) ) ;
#477 = CARTESIAN_POINT ( 'NONE',  ( -346.9999999999996589, -1108.305262667903889, -626.9999999999997726 ) ) ;
#478 = ORIENTED_EDGE ( 'NONE', *, *, #122, .T. ) ;
#479 = ORIENTED_EDGE ( 'NONE', *, *, #362, .F. ) ;
#480 = ORIENTED_EDGE ( 'NONE', *, *, #766, .T. ) ;
#481 = PERSON ( 'UNSPECIFIED', 'UNSPECIFIED', 'UNSPECIFIED', ('UNSPECIFIED'), ('UNSPECIFIED'), ('UNSPECIFIED') ) ;
#482 = EDGE_CURVE ( 'NONE', #491, #1001, #922, .T. ) ;
#483 = APPROVAL_STATUS ( 'not_yet_approved' ) ;
#484 = DIRECTION ( 'NONE',  ( 0.000000000000000000, 0.000000000000000000, 1.000000000000000000 ) ) ;
#485 = VERTEX_POINT ( 'NONE', #560 ) ;
#486 = CARTESIAN_POINT ( 'NONE',  ( -346.9999999999996589, -1155.305262667904117, 27.00000000000046185 ) ) ;
#487 = VECTOR ( 'NONE', #840, 1000.000000000000000 ) ;
#488 = FACE_OUTER_BOUND ( 'NONE', #135, .T. ) ;
#489 = AXIS2_PLACEMENT_3D ( 'NONE', #1125, #650, #151 ) ;
#490 = DIRECTION ( 'NONE',  ( 0.000000000000000000, 0.000000000000000000, 1.000000000000000000 ) ) ;
#491 = VERTEX_POINT ( 'NONE', #955 ) ;
#492 = AXIS2_PLACEMENT_3D ( 'NONE', #396, #85, #1195 ) ;
#493 = CALENDAR_DATE ( 2026, 11, 7 ) ;
#494 = CARTESIAN_POINT ( 'NONE',  ( -349.9999999999996589, -1155.305262667904117, 104.7558775263622834 ) ) ;
#495 = DIRECTION ( 'NONE',  ( 0.000000000000000000, 0.000000000000000000, 1.000000000000000000 ) ) ;
#496 = CARTESIAN_POINT ( 'NONE',  ( -343.9999999999996589, -1100.305262667903662, -624.9999999999997726 ) ) ;
#497 = CARTESIAN_POINT ( 'NONE',  ( -346.9999999999996589, -1155.305262667904117, -627.9999999999997726 ) ) ;
#498 = VERTEX_POINT ( 'NONE', #1056 ) ;
#499 = CARTESIAN_POINT ( 'NONE',  ( -346.9999999999996589, -1103.305262667904117, 31.00000000000048672 ) ) ;
#500 = ORIENTED_EDGE ( 'NONE', *, *, #52, .T. ) ;
#501 = DIRECTION ( 'NONE',  ( 1.000000000000000000, -0.000000000000000000, -0.000000000000000000 ) ) ;
#502 = EDGE_CURVE ( 'NONE', #1107, #915, #155, .T. ) ;
#503 = DIRECTION ( 'NONE',  ( -0.000000000000000000, -1.000000000000000000, 0.000000000000000000 ) ) ;
#504 = FACE_OUTER_BOUND ( 'NONE', #506, .T. ) ;
#505 = VERTEX_POINT ( 'NONE', #758 ) ;
#506 = EDGE_LOOP ( 'NONE', ( #858, #1004, #913, #478 ) ) ;
#507 = PLANE ( 'NONE',  #1049 ) ;
#508 = DIRECTION ( 'NONE',  ( -1.000000000000000000, -5.551115123125788224E-15, -0.000000000000000000 ) ) ;
#509 = DIRECTION ( 'NONE',  ( -0.000000000000000000, 1.369518533665899079E-16, -1.000000000000000000 ) ) ;
#510 = AXIS2_PLACEMENT_3D ( 'NONE', #398, #797, #509 ) ;
#511 = VECTOR ( 'NONE', #232, 1000.000000000000000 ) ;
#512 = ORIENTED_EDGE ( 'NONE', *, *, #559, .T. ) ;
#513 = AXIS2_PLACEMENT_3D ( 'NONE', #425, #29, #726 ) ;
#514 =( GEOMETRIC_REPRESENTATION_CONTEXT ( 3 ) GLOBAL_UNCERTAINTY_ASSIGNED_CONTEXT ( ( #191 ) ) GLOBAL_UNIT_ASSIGNED_CONTEXT ( ( #515, #37, #708 ) ) REPRESENTATION_CONTEXT ( 'NONE', 'WORKASPACE' ) );
#515 =( LENGTH_UNIT ( ) NAMED_UNIT ( * ) SI_UNIT ( .MILLI., .METRE. ) );
#516 = FACE_OUTER_BOUND ( 'NONE', #316, .T. ) ;
#517 = DIRECTION ( 'NONE',  ( 1.000000000000000000, 0.000000000000000000, 0.000000000000000000 ) ) ;
#518 = CARTESIAN_POINT ( 'NONE',  ( -346.9999999999996589, -1108.305262667903889, 25.00000000000045119 ) ) ;
#519 = DIRECTION ( 'NONE',  ( -0.000000000000000000, 1.369518533665899079E-16, -1.000000000000000000 ) ) ;
#520 = DIRECTION ( 'NONE',  ( 0.000000000000000000, 0.000000000000000000, 1.000000000000000000 ) ) ;
#521 = CARTESIAN_POINT ( 'NONE',  ( 1090.972523324353915, -1100.305262667903662, -624.9999999999997726 ) ) ;
#522 = VERTEX_POINT ( 'NONE', #657 ) ;
#523 = ADVANCED_FACE ( 'NONE', ( #564 ), #57, .T. ) ;
#524 = EDGE_CURVE ( 'NONE', #172, #1052, #295, .T. ) ;
#525 = CARTESIAN_POINT ( 'NONE',  ( 1090.972523324353915, -1097.305262667903889, -624.9999999999997726 ) ) ;
#526 = DIRECTION ( 'NONE',  ( -0.000000000000000000, 0.000000000000000000, 1.000000000000000000 ) ) ;
#527 = DIRECTION ( 'NONE',  ( 0.000000000000000000, -0.000000000000000000, 1.000000000000000000 ) ) ;
#528 = ORIENTED_EDGE ( 'NONE', *, *, #474, .T. ) ;
#529 = ORIENTED_EDGE ( 'NONE', *, *, #1123, .F. ) ;
#530 = VECTOR ( 'NONE', #338, 1000.000000000000000 ) ;
#531 = CARTESIAN_POINT ( 'NONE',  ( -346.9999999999996589, -1159.305262667904117, 27.00000000000046185 ) ) ;
#532 = VECTOR ( 'NONE', #682, 1000.000000000000000 ) ;
#533 = CARTESIAN_POINT ( 'NONE',  ( -346.9999999999996589, -1093.805262667903889, -624.9999999999997726 ) ) ;
#534 = VECTOR ( 'NONE', #501, 1000.000000000000000 ) ;
#535 = LINE ( 'NONE', #1025, #614 ) ;
#536 = ORIENTED_EDGE ( 'NONE', *, *, #917, .T. ) ;
#537 = ORIENTED_EDGE ( 'NONE', *, *, #983, .T. ) ;
#538 = DIRECTION ( 'NONE',  ( 0.000000000000000000, 1.000000000000000000, -0.000000000000000000 ) ) ;
#539 = LINE ( 'NONE', #525, #291 ) ;
#540 = CARTESIAN_POINT ( 'NONE',  ( -349.9999999999996589, -1103.305262667903889, 104.7558775263622834 ) ) ;
#541 = ADVANCED_FACE ( 'NONE', ( #1197 ), #796, .F. ) ;
#542 = EDGE_CURVE ( 'NONE', #453, #434, #114, .T. ) ;
#543 = VERTEX_POINT ( 'NONE', #911 ) ;
#544 = CARTESIAN_POINT ( 'NONE',  ( -343.9999999999996589, -1166.305262667904117, 25.00000000000045119 ) ) ;
#545 = LINE ( 'NONE', #938, #592 ) ;
#546 = DIRECTION ( 'NONE',  ( 0.000000000000000000, 0.000000000000000000, -1.000000000000000000 ) ) ;
#547 = ORIENTED_EDGE ( 'NONE', *, *, #121, .F. ) ;
#548 = CARTESIAN_POINT ( 'NONE',  ( -349.9999999999996589, -1160.305262667904117, 104.7558775263622834 ) ) ;
#549 = CYLINDRICAL_SURFACE ( 'NONE', #189, 1.000000000000000888 ) ;
#550 = ORIENTED_EDGE ( 'NONE', *, *, #149, .F. ) ;
#551 = AXIS2_PLACEMENT_3D ( 'NONE', #86, #1181, #580 ) ;
#552 = DIRECTION ( 'NONE',  ( 0.000000000000000000, 0.000000000000000000, 1.000000000000000000 ) ) ;
#553 = VECTOR ( 'NONE', #1163, 1000.000000000000000 ) ;
#554 = DIRECTION ( 'NONE',  ( -1.000000000000000000, 0.000000000000000000, 0.000000000000000000 ) ) ;
#555 = VERTEX_POINT ( 'NONE', #409 ) ;
#556 = ORIENTED_EDGE ( 'NONE', *, *, #1122, .T. ) ;
#557 = PLANE ( 'NONE',  #402 ) ;
#558 = ADVANCED_FACE ( 'NONE', ( #516 ), #804, .T. ) ;
#559 = EDGE_CURVE ( 'NONE', #98, #485, #1209, .T. ) ;
#560 = CARTESIAN_POINT ( 'NONE',  ( -349.9999999999996589, -1108.305262667903889, 25.00000000000045119 ) ) ;
#561 = CARTESIAN_POINT ( 'NONE',  ( -349.9999999999996589, -1108.305262667903889, 104.7558775263622834 ) ) ;
#562 = ORIENTED_EDGE ( 'NONE', *, *, #121, .T. ) ;
#563 = EDGE_CURVE ( 'NONE', #1038, #828, #97, .T. ) ;
#564 = FACE_OUTER_BOUND ( 'NONE', #1285, .T. ) ;
#565 = DIRECTION ( 'NONE',  ( 1.000000000000000000, -0.000000000000000000, -0.000000000000000000 ) ) ;
#566 = CARTESIAN_POINT ( 'NONE',  ( -346.9999999999996589, -1103.305262667904117, -627.9999999999997726 ) ) ;
#567 = VERTEX_POINT ( 'NONE', #1205 ) ;
#568 = PLANE ( 'NONE',  #723 ) ;
#569 = DIRECTION ( 'NONE',  ( 1.000000000000000000, 0.000000000000000000, 0.000000000000000000 ) ) ;
#570 = VECTOR ( 'NONE', #371, 1000.000000000000000 ) ;
#571 = PLANE ( 'NONE',  #354 ) ;
#572 = VECTOR ( 'NONE', #894, 1000.000000000000000 ) ;
#573 = CARTESIAN_POINT ( 'NONE',  ( -349.9999999999996589, -1103.305262667904117, 104.7558775263622834 ) ) ;
#574 = LOCAL_TIME ( 16, 45, 3.000000000000000000, #1277 ) ;
#575 = ORIENTED_EDGE ( 'NONE', *, *, #439, .F. ) ;
#576 = DIRECTION ( 'NONE',  ( 1.000000000000000000, 0.000000000000000000, 0.000000000000000000 ) ) ;
#577 = CARTESIAN_POINT ( 'NONE',  ( -346.9999999999996589, -1160.305262667904117, -624.9999999999997726 ) ) ;
#578 = ORIENTED_EDGE ( 'NONE', *, *, #1174, .F. ) ;
#579 = DIRECTION ( 'NONE',  ( -1.000000000000000000, 0.000000000000000000, 0.000000000000000000 ) ) ;
#580 = DIRECTION ( 'NONE',  ( -1.000000000000000000, 0.000000000000000000, 0.000000000000000000 ) ) ;
#581 = CARTESIAN_POINT ( 'NONE',  ( -343.9999999999996589, -1160.305262667904117, -624.9999999999997726 ) ) ;
#582 = ORIENTED_EDGE ( 'NONE', *, *, #1017, .T. ) ;
#583 = EDGE_CURVE ( 'NONE', #1229, #1015, #612, .T. ) ;
#584 = ORIENTED_EDGE ( 'NONE', *, *, #1054, .T. ) ;
#585 = PLANE ( 'NONE',  #1090 ) ;
#586 = COORDINATED_UNIVERSAL_TIME_OFFSET ( 10, 0, .AHEAD. ) ;
#587 = ORIENTED_EDGE ( 'NONE', *, *, #1114, .F. ) ;
#588 = CARTESIAN_POINT ( 'NONE',  ( -346.9999999999995453, -1159.305262667904117, -626.9999999999997726 ) ) ;
#589 = ORIENTED_EDGE ( 'NONE', *, *, #257, .T. ) ;
#590 = PERSON_AND_ORGANIZATION ( #481, #991 ) ;
#591 = CARTESIAN_POINT ( 'NONE',  ( -346.9999999999996589, -1155.305262667904117, 27.00000000000046185 ) ) ;
#592 = VECTOR ( 'NONE', #645, 1000.000000000000000 ) ;
#593 = FACE_OUTER_BOUND ( 'NONE', #764, .T. ) ;
#594 = ORIENTED_EDGE ( 'NONE', *, *, #239, .F. ) ;
#595 = AXIS2_PLACEMENT_3D ( 'NONE', #1231, #24, #432 ) ;
#596 = VERTEX_POINT ( 'NONE', #429 ) ;
#597 = APPROVAL_PERSON_ORGANIZATION ( #590, #1200, #196 ) ;
#598 = PERSON_AND_ORGANIZATION ( #481, #991 ) ;
#599 = EDGE_CURVE ( 'NONE', #610, #352, #412, .T. ) ;
#600 = EDGE_CURVE ( 'NONE', #1076, #977, #1112, .T. ) ;
#601 = VERTEX_POINT ( 'NONE', #210 ) ;
#602 = DIRECTION ( 'NONE',  ( 0.000000000000000000, -0.000000000000000000, 1.000000000000000000 ) ) ;
#603 = DIRECTION ( 'NONE',  ( -0.000000000000000000, -0.000000000000000000, -1.000000000000000000 ) ) ;
#604 = COORDINATED_UNIVERSAL_TIME_OFFSET ( 10, 0, .AHEAD. ) ;
#605 = ORIENTED_EDGE ( 'NONE', *, *, #634, .T. ) ;
#606 = EDGE_CURVE ( 'NONE', #596, #1107, #356, .T. ) ;
#607 = EDGE_CURVE ( 'NONE', #1052, #185, #1026, .T. ) ;
#608 = CARTESIAN_POINT ( 'NONE',  ( -349.9999999999996589, -1093.805262667903889, -627.9999999999997726 ) ) ;
#609 = ORIENTED_EDGE ( 'NONE', *, *, #1036, .F. ) ;
#610 = VERTEX_POINT ( 'NONE', #819 ) ;
#611 = DIRECTION ( 'NONE',  ( 0.000000000000000000, -0.000000000000000000, -1.000000000000000000 ) ) ;
#612 = LINE ( 'NONE', #6, #757 ) ;
#613 = CYLINDRICAL_SURFACE ( 'NONE', #1253, 1.000000000000000888 ) ;
#614 = VECTOR ( 'NONE', #25, 1000.000000000000000 ) ;
#615 = VECTOR ( 'NONE', #552, 1000.000000000000000 ) ;
#616 = CIRCLE ( 'NONE', #1012, 1.000000000000000888 ) ;
#617 = CARTESIAN_POINT ( 'NONE',  ( -349.9999999999996589, -1108.305262667903889, 27.00000000000046896 ) ) ;
#618 = PLANE ( 'NONE',  #837 ) ;
#619 = DIRECTION ( 'NONE',  ( 0.000000000000000000, 1.000000000000000000, -0.000000000000000000 ) ) ;
#620 = ORIENTED_EDGE ( 'NONE', *, *, #119, .F. ) ;
#621 = ADVANCED_FACE ( 'NONE', ( #286 ), #698, .F. ) ;
#622 = EDGE_CURVE ( 'NONE', #99, #1246, #1143, .T. ) ;
#623 = CARTESIAN_POINT ( 'NONE',  ( -346.9999999999996589, -1103.305262667904117, 25.00000000000045119 ) ) ;
#624 = CARTESIAN_POINT ( 'NONE',  ( -349.9999999999995453, -1104.305262667903889, -626.9999999999997726 ) ) ;
#625 = CARTESIAN_POINT ( 'NONE',  ( -343.9999999999996589, -1160.305262667904117, 25.00000000000045119 ) ) ;
#626 = LINE ( 'NONE', #497, #1150 ) ;
#627 = CARTESIAN_POINT ( 'NONE',  ( -349.9999999999996589, -1155.305262667904117, 104.7558775263622834 ) ) ;
#628 = EDGE_LOOP ( 'NONE', ( #1268, #153, #93, #584 ) ) ;
#629 = CARTESIAN_POINT ( 'NONE',  ( -346.9999999999995453, -1107.305262667904117, -626.9999999999997726 ) ) ;
#630 = DIRECTION ( 'NONE',  ( 0.000000000000000000, -1.000000000000000000, -1.369518533665899079E-16 ) ) ;
#631 = ORIENTED_EDGE ( 'NONE', *, *, #859, .F. ) ;
#632 = DIRECTION ( 'NONE',  ( 1.000000000000000000, 0.000000000000000000, 0.000000000000000000 ) ) ;
#633 = CARTESIAN_POINT ( 'NONE',  ( -349.9999999999996589, -1156.305262667904117, -627.9999999999997726 ) ) ;
#634 = EDGE_CURVE ( 'NONE', #1242, #242, #733, .T. ) ;
#635 = EDGE_CURVE ( 'NONE', #665, #415, #120, .T. ) ;
#636 = FACE_OUTER_BOUND ( 'NONE', #941, .T. ) ;
#637 = VERTEX_POINT ( 'NONE', #1301 ) ;
#638 = EDGE_LOOP ( 'NONE', ( #891, #841, #1222, #317 ) ) ;
#639 = CARTESIAN_POINT ( 'NONE',  ( 1090.972523324354370, -1163.305262667896159, 25.00000000000045119 ) ) ;
#640 = APPROVAL ( #771, 'UNSPECIFIED' ) ;
#641 = LINE ( 'NONE', #540, #669 ) ;
#642 = ORIENTED_EDGE ( 'NONE', *, *, #223, .T. ) ;
#643 = ORIENTED_EDGE ( 'NONE', *, *, #1006, .F. ) ;
#644 = DIRECTION ( 'NONE',  ( 0.000000000000000000, 1.000000000000000000, 1.369518533665899079E-16 ) ) ;
#645 = DIRECTION ( 'NONE',  ( 0.000000000000000000, -1.000000000000000000, 0.000000000000000000 ) ) ;
#646 = CYLINDRICAL_SURFACE ( 'NONE', #919, 3.000000000000002665 ) ;
#647 = ORIENTED_EDGE ( 'NONE', *, *, #634, .F. ) ;
#648 = EDGE_CURVE ( 'NONE', #976, #1009, #461, .T. ) ;
#649 = ORIENTED_EDGE ( 'NONE', *, *, #622, .T. ) ;
#650 = DIRECTION ( 'NONE',  ( 1.000000000000000000, -0.000000000000000000, -0.000000000000000000 ) ) ;
#651 = VECTOR ( 'NONE', #1204, 1000.000000000000000 ) ;
#652 = CARTESIAN_POINT ( 'NONE',  ( -346.9999999999995453, -1159.305262667904117, -626.9999999999997726 ) ) ;
#653 = DIRECTION ( 'NONE',  ( 0.000000000000000000, 0.000000000000000000, 1.000000000000000000 ) ) ;
#654 = ADVANCED_FACE ( 'NONE', ( #713 ), #1073, .T. ) ;
#655 = ADVANCED_FACE ( 'NONE', ( #488 ), #1282, .F. ) ;
#656 = EDGE_LOOP ( 'NONE', ( #368, #685, #1021, #231 ) ) ;
#657 = CARTESIAN_POINT ( 'NONE',  ( -346.9999999999996589, -1156.305262667904117, 28.00000000000046185 ) ) ;
#658 = CARTESIAN_POINT ( 'NONE',  ( -346.9999999999996589, -1160.305262667904117, -624.9999999999997726 ) ) ;
#659 = ORIENTED_EDGE ( 'NONE', *, *, #984, .F. ) ;
#660 = ORIENTED_EDGE ( 'NONE', *, *, #606, .F. ) ;
#661 = CARTESIAN_POINT ( 'NONE',  ( -346.9999999999996589, -1103.305262667904117, -627.9999999999997726 ) ) ;
#662 = DIRECTION ( 'NONE',  ( -1.000000000000000000, -5.551115123125788224E-15, -0.000000000000000000 ) ) ;
#663 = CARTESIAN_POINT ( 'NONE',  ( -349.9999999999996589, -1107.305262667904117, -627.9999999999997726 ) ) ;
#664 = PLANE ( 'NONE',  #43 ) ;
#665 = VERTEX_POINT ( 'NONE', #477 ) ;
#666 = ORIENTED_EDGE ( 'NONE', *, *, #600, .F. ) ;
#667 = VERTEX_POINT ( 'NONE', #161 ) ;
#668 = MECHANICAL_CONTEXT ( 'NONE', #1051, 'mechanical' ) ;
#669 = VECTOR ( 'NONE', #1144, 1000.000000000000000 ) ;
#670 = VECTOR ( 'NONE', #769, 1000.000000000000000 ) ;
#671 = EDGE_CURVE ( 'NONE', #667, #1224, #277, .T. ) ;
#672 = EDGE_CURVE ( 'NONE', #459, #1015, #1265, .T. ) ;
#673 = AXIS2_PLACEMENT_3D ( 'NONE', #179, #81, #1124 ) ;
#674 = DIRECTION ( 'NONE',  ( 1.000000000000000000, -0.000000000000000000, -0.000000000000000000 ) ) ;
#675 = VERTEX_POINT ( 'NONE', #378 ) ;
#676 = VERTEX_POINT ( 'NONE', #776 ) ;
#677 = DIRECTION ( 'NONE',  ( -0.000000000000000000, 0.000000000000000000, -1.000000000000000000 ) ) ;
#678 = SHAPE_DEFINITION_REPRESENTATION ( #868, #964 ) ;
#679 = DIRECTION ( 'NONE',  ( 0.000000000000000000, 0.000000000000000000, 1.000000000000000000 ) ) ;
#680 = LINE ( 'NONE', #591, #80 ) ;
#681 = DIRECTION ( 'NONE',  ( -0.000000000000000000, -1.000000000000000000, 0.000000000000000000 ) ) ;
#682 = DIRECTION ( 'NONE',  ( 0.000000000000000000, -0.000000000000000000, -1.000000000000000000 ) ) ;
#683 = CARTESIAN_POINT ( 'NONE',  ( 1090.972523324354370, -1163.305262667896159, -624.9999999999997726 ) ) ;
#684 = ORIENTED_EDGE ( 'NONE', *, *, #817, .T. ) ;
#685 = ORIENTED_EDGE ( 'NONE', *, *, #783, .F. ) ;
#686 = CALENDAR_DATE ( 2026, 11, 7 ) ;
#687 = DIRECTION ( 'NONE',  ( 0.000000000000000000, -1.000000000000000000, -1.369518533665899079E-16 ) ) ;
#688 = CARTESIAN_POINT ( 'NONE',  ( -309.9999999999996021, -1166.305262667903889, 104.7558775263622834 ) ) ;
#689 = CARTESIAN_POINT ( 'NONE',  ( -346.9999999999996589, -1156.305262667904117, 27.00000000000046185 ) ) ;
#690 = ORIENTED_EDGE ( 'NONE', *, *, #1097, .T. ) ;
#691 = EDGE_CURVE ( 'NONE', #1224, #352, #853, .T. ) ;
#692 = ADVANCED_FACE ( 'NONE', ( #199 ), #294, .F. ) ;
#693 = VECTOR ( 'NONE', #827, 1000.000000000000000 ) ;
#694 = VECTOR ( 'NONE', #167, 1000.000000000000000 ) ;
#695 = LINE ( 'NONE', #392, #208 ) ;
#696 = AXIS2_PLACEMENT_3D ( 'NONE', #116, #22, #653 ) ;
#697 = CARTESIAN_POINT ( 'NONE',  ( -349.9999999999996589, -1093.805262667903889, 28.00000000000046896 ) ) ;
#698 = PLANE ( 'NONE',  #1046 ) ;
#699 = CARTESIAN_POINT ( 'NONE',  ( -343.9999999999996589, -1097.305262667903889, -624.9999999999997726 ) ) ;
#700 = ORIENTED_EDGE ( 'NONE', *, *, #983, .F. ) ;
#701 = ORIENTED_EDGE ( 'NONE', *, *, #159, .F. ) ;
#702 = LOCAL_TIME ( 16, 45, 3.000000000000000000, #1247 ) ;
#703 = ADVANCED_FACE ( 'NONE', ( #839 ), #818, .T. ) ;
#704 = CC_DESIGN_DATE_AND_TIME_ASSIGNMENT ( #388, #787, ( #403 ) ) ;
#705 = DIRECTION ( 'NONE',  ( 0.000000000000000000, 0.000000000000000000, 1.000000000000000000 ) ) ;
#706 = CARTESIAN_POINT ( 'NONE',  ( 1090.972523324353915, -1097.305262667903889, 104.7558775263622834 ) ) ;
#707 = DIRECTION ( 'NONE',  ( -5.551115123125788224E-15, 1.000000000000000000, -0.000000000000000000 ) ) ;
#708 =( NAMED_UNIT ( * ) SI_UNIT ( $, .STERADIAN. ) SOLID_ANGLE_UNIT ( ) );
#709 = PLANE ( 'NONE',  #1218 ) ;
#710 = DIRECTION ( 'NONE',  ( 0.000000000000000000, -0.000000000000000000, -1.000000000000000000 ) ) ;
#711 = DIRECTION ( 'NONE',  ( 5.551115123125788224E-15, -1.000000000000000000, 0.000000000000000000 ) ) ;
#712 = VERTEX_POINT ( 'NONE', #237 ) ;
#713 = FACE_OUTER_BOUND ( 'NONE', #962, .T. ) ;
#714 = DIRECTION ( 'NONE',  ( 1.000000000000000000, 5.551115123125788224E-15, 0.000000000000000000 ) ) ;
#715 = LINE ( 'NONE', #234, #693 ) ;
#716 = CARTESIAN_POINT ( 'NONE',  ( -346.9999999999996589, -1107.305262667904117, -627.9999999999997726 ) ) ;
#717 = EDGE_CURVE ( 'NONE', #434, #977, #1154, .T. ) ;
#718 = DIRECTION ( 'NONE',  ( -1.000000000000000000, -0.000000000000000000, -0.000000000000000000 ) ) ;
#719 = DIRECTION ( 'NONE',  ( 0.000000000000000000, 1.000000000000000000, 1.369518533665899079E-16 ) ) ;
#720 = AXIS2_PLACEMENT_3D ( 'NONE', #950, #276, #259 ) ;
#721 = EDGE_LOOP ( 'NONE', ( #1188, #27, #268, #202 ) ) ;
#722 = DIRECTION ( 'NONE',  ( 0.000000000000000000, 0.000000000000000000, -1.000000000000000000 ) ) ;
#723 = AXIS2_PLACEMENT_3D ( 'NONE', #1079, #677, #1065 ) ;
#724 = CARTESIAN_POINT ( 'NONE',  ( -346.9999999999996589, -1103.305262667904117, 31.00000000000048672 ) ) ;
#725 = CARTESIAN_POINT ( 'NONE',  ( -346.9999999999996589, -1108.305262667903889, 31.00000000000048672 ) ) ;
#726 = DIRECTION ( 'NONE',  ( 1.000000000000000000, 0.000000000000000000, 0.000000000000000000 ) ) ;
#727 = FACE_OUTER_BOUND ( 'NONE', #307, .T. ) ;
#728 = CARTESIAN_POINT ( 'NONE',  ( -349.9999999999996589, -1155.305262667904117, 25.00000000000045119 ) ) ;
#729 = ORIENTED_EDGE ( 'NONE', *, *, #323, .F. ) ;
#730 = EDGE_CURVE ( 'NONE', #434, #1048, #331, .T. ) ;
#731 = ORIENTED_EDGE ( 'NONE', *, *, #542, .T. ) ;
#732 = CARTESIAN_POINT ( 'NONE',  ( -346.9999999999996589, -1155.305262667904117, 25.00000000000045119 ) ) ;
#733 = LINE ( 'NONE', #577, #694 ) ;
#734 = CARTESIAN_POINT ( 'NONE',  ( -346.9999999999996589, -1155.305262667904117, 28.00000000000046185 ) ) ;
#735 = EDGE_LOOP ( 'NONE', ( #529, #890, #447, #910 ) ) ;
#736 = VERTEX_POINT ( 'NONE', #113 ) ;
#737 = AXIS2_PLACEMENT_3D ( 'NONE', #448, #390, #484 ) ;
#738 = PRODUCT_RELATED_PRODUCT_CATEGORY ( 'detail', '', ( #53 ) ) ;
#739 = AXIS2_PLACEMENT_3D ( 'NONE', #689, #1062, #162 ) ;
#740 = LINE ( 'NONE', #623, #1111 ) ;
#741 = LINE ( 'NONE', #820, #753 ) ;
#742 = DIRECTION ( 'NONE',  ( 1.000000000000000000, -0.000000000000000000, -0.000000000000000000 ) ) ;
#743 = DIRECTION ( 'NONE',  ( 1.000000000000000000, 0.000000000000000000, 0.000000000000000000 ) ) ;
#744 = DIRECTION ( 'NONE',  ( 1.000000000000000000, -0.000000000000000000, -0.000000000000000000 ) ) ;
#745 = ORIENTED_EDGE ( 'NONE', *, *, #1122, .F. ) ;
#746 = ORIENTED_EDGE ( 'NONE', *, *, #766, .F. ) ;
#747 = CARTESIAN_POINT ( 'NONE',  ( -346.9999999999996589, -1160.305262667904117, 31.00000000000047251 ) ) ;
#748 = CALENDAR_DATE ( 2026, 11, 7 ) ;
#749 = CARTESIAN_POINT ( 'NONE',  ( -343.9999999999996589, -1166.305262667904117, -624.9999999999997726 ) ) ;
#750 = EDGE_CURVE ( 'NONE', #970, #676, #225, .T. ) ;
#751 = EDGE_CURVE ( 'NONE', #975, #675, #1236, .T. ) ;
#752 = ORIENTED_EDGE ( 'NONE', *, *, #1037, .T. ) ;
#753 = VECTOR ( 'NONE', #947, 1000.000000000000000 ) ;
#754 = ORIENTED_EDGE ( 'NONE', *, *, #239, .T. ) ;
#755 = FACE_OUTER_BOUND ( 'NONE', #656, .T. ) ;
#756 = VECTOR ( 'NONE', #7, 1000.000000000000000 ) ;
#757 = VECTOR ( 'NONE', #417, 1000.000000000000000 ) ;
#758 = CARTESIAN_POINT ( 'NONE',  ( -349.9999999999996589, -1108.305262667903889, -624.9999999999997726 ) ) ;
#759 = VECTOR ( 'NONE', #1294, 1000.000000000000000 ) ;
#760 = CARTESIAN_POINT ( 'NONE',  ( -343.9999999999996589, -1097.305262667903889, 25.00000000000046541 ) ) ;
#761 = EDGE_LOOP ( 'NONE', ( #88, #182, #897, #437 ) ) ;
#762 = LINE ( 'NONE', #58, #1087 ) ;
#763 = CARTESIAN_POINT ( 'NONE',  ( -346.9999999999996589, -1160.305262667904117, -626.9999999999997726 ) ) ;
#764 = EDGE_LOOP ( 'NONE', ( #1161, #394, #582, #537 ) ) ;
#765 = EDGE_LOOP ( 'NONE', ( #1128, #1151, #1293, #834 ) ) ;
#766 = EDGE_CURVE ( 'NONE', #975, #290, #18, .T. ) ;
#767 = EDGE_CURVE ( 'NONE', #667, #453, #16, .T. ) ;
#768 = LINE ( 'NONE', #957, #835 ) ;
#769 = DIRECTION ( 'NONE',  ( 0.000000000000000000, -1.000000000000000000, 0.000000000000000000 ) ) ;
#770 = ORIENTED_EDGE ( 'NONE', *, *, #984, .T. ) ;
#771 = APPROVAL_STATUS ( 'not_yet_approved' ) ;
#772 = VECTOR ( 'NONE', #744, 1000.000000000000000 ) ;
#773 = AXIS2_PLACEMENT_3D ( 'NONE', #174, #990, #74 ) ;
#774 = CARTESIAN_POINT ( 'NONE',  ( -346.9999999999996589, -1103.305262667904117, -630.9999999999995453 ) ) ;
#775 = AXIS2_PLACEMENT_3D ( 'NONE', #878, #1305, #1208 ) ;
#776 = CARTESIAN_POINT ( 'NONE',  ( -309.9999999999996021, -1163.305262667903889, -624.9999999999997726 ) ) ;
#777 = AXIS2_PLACEMENT_3D ( 'NONE', #792, #79, #576 ) ;
#778 = CARTESIAN_POINT ( 'NONE',  ( -346.9999999999996589, -1155.305262667904117, -626.9999999999997726 ) ) ;
#779 = EDGE_LOOP ( 'NONE', ( #435, #282, #318, #69 ) ) ;
#780 = FACE_OUTER_BOUND ( 'NONE', #279, .T. ) ;
#781 = CARTESIAN_POINT ( 'NONE',  ( -343.9999999999996589, -1103.305262667903889, 25.00000000000046541 ) ) ;
#782 = EDGE_CURVE ( 'NONE', #185, #1284, #1029, .T. ) ;
#783 = EDGE_CURVE ( 'NONE', #65, #1245, #1068, .T. ) ;
#784 = DIRECTION ( 'NONE',  ( 0.000000000000000000, 0.000000000000000000, 1.000000000000000000 ) ) ;
#785 = ORIENTED_EDGE ( 'NONE', *, *, #482, .T. ) ;
#786 = ORIENTED_EDGE ( 'NONE', *, *, #635, .F. ) ;
#787 = DATE_TIME_ROLE ( 'classification_date' ) ;
#788 = CARTESIAN_POINT ( 'NONE',  ( -346.9999999999996589, -1155.305262667904117, -624.9999999999997726 ) ) ;
#789 = FACE_OUTER_BOUND ( 'NONE', #638, .T. ) ;
#790 = FACE_OUTER_BOUND ( 'NONE', #959, .T. ) ;
#791 = EDGE_CURVE ( 'NONE', #147, #676, #1141, .T. ) ;
#792 = CARTESIAN_POINT ( 'NONE',  ( 0.000000000000000000, 0.000000000000000000, 0.000000000000000000 ) ) ;
#793 = VECTOR ( 'NONE', #460, 1000.000000000000000 ) ;
#794 = DIRECTION ( 'NONE',  ( -0.000000000000000000, -0.000000000000000000, -1.000000000000000000 ) ) ;
#795 = AXIS2_PLACEMENT_3D ( 'NONE', #916, #158, #569 ) ;
#796 = PLANE ( 'NONE',  #379 ) ;
#797 = DIRECTION ( 'NONE',  ( 0.000000000000000000, 1.000000000000000000, 1.369518533665899079E-16 ) ) ;
#798 = DIRECTION ( 'NONE',  ( 1.000000000000000000, -0.000000000000000000, -0.000000000000000000 ) ) ;
#799 = ORIENTED_EDGE ( 'NONE', *, *, #315, .T. ) ;
#800 = LINE ( 'NONE', #222, #360 ) ;
#801 = CARTESIAN_POINT ( 'NONE',  ( -343.9999999999996589, -1103.305262667903889, 104.7558775263622834 ) ) ;
#802 = CARTESIAN_POINT ( 'NONE',  ( -349.9999999999996589, -1093.805262667903889, 104.7558775263622834 ) ) ;
#803 = LINE ( 'NONE', #980, #651 ) ;
#804 = PLANE ( 'NONE',  #1255 ) ;
#805 = CARTESIAN_POINT ( 'NONE',  ( -309.9999999999996021, -1100.305262667903662, 104.7558775263622834 ) ) ;
#806 = VERTEX_POINT ( 'NONE', #732 ) ;
#807 = VERTEX_POINT ( 'NONE', #130 ) ;
#808 = EDGE_CURVE ( 'NONE', #637, #65, #539, .T. ) ;
#809 = CARTESIAN_POINT ( 'NONE',  ( -346.9999999999995453, -1107.305262667904117, -626.9999999999997726 ) ) ;
#810 = EDGE_LOOP ( 'NONE', ( #255, #1106, #815, #1016 ) ) ;
#811 = CARTESIAN_POINT ( 'NONE',  ( -349.9999999999996589, -1160.305262667904117, -626.9999999999997726 ) ) ;
#812 = DIRECTION ( 'NONE',  ( 1.000000000000000000, -0.000000000000000000, -0.000000000000000000 ) ) ;
#813 = AXIS2_PLACEMENT_3D ( 'NONE', #194, #603, #1000 ) ;
#814 = VECTOR ( 'NONE', #454, 1000.000000000000000 ) ;
#815 = ORIENTED_EDGE ( 'NONE', *, *, #51, .T. ) ;
#816 = VECTOR ( 'NONE', #687, 1000.000000000000000 ) ;
#817 = EDGE_CURVE ( 'NONE', #1224, #434, #740, .T. ) ;
#818 = PLANE ( 'NONE',  #1027 ) ;
#819 = CARTESIAN_POINT ( 'NONE',  ( -309.9999999999996021, -1097.305262667903889, 25.00000000000046541 ) ) ;
#820 = CARTESIAN_POINT ( 'NONE',  ( -346.9999999999996589, -1107.305262667904117, -627.9999999999997726 ) ) ;
#821 = EDGE_CURVE ( 'NONE', #1076, #1048, #1089, .T. ) ;
#822 = ADVANCED_FACE ( 'NONE', ( #215 ), #549, .T. ) ;
#823 = ORIENTED_EDGE ( 'NONE', *, *, #874, .F. ) ;
#824 = ORIENTED_EDGE ( 'NONE', *, *, #315, .F. ) ;
#825 = CARTESIAN_POINT ( 'NONE',  ( -346.9999999999996589, -1103.305262667904117, 27.00000000000046896 ) ) ;
#826 = CARTESIAN_POINT ( 'NONE',  ( -346.9999999999996589, -1103.305262667904117, 27.00000000000046896 ) ) ;
#827 = DIRECTION ( 'NONE',  ( 1.000000000000000000, -0.000000000000000000, -0.000000000000000000 ) ) ;
#828 = VERTEX_POINT ( 'NONE', #663 ) ;
#829 = EDGE_CURVE ( 'NONE', #242, #1246, #1172, .T. ) ;
#830 = EDGE_CURVE ( 'NONE', #172, #970, #1116, .T. ) ;
#831 = CARTESIAN_POINT ( 'NONE',  ( -346.9999999999996589, -1103.305262667903889, 104.7558775263622834 ) ) ;
#832 = CARTESIAN_POINT ( 'NONE',  ( -309.9999999999996021, -1166.305262667903889, 25.00000000000045119 ) ) ;
#833 = VECTOR ( 'NONE', #527, 1000.000000000000000 ) ;
#834 = ORIENTED_EDGE ( 'NONE', *, *, #438, .T. ) ;
#835 = VECTOR ( 'NONE', #1259, 1000.000000000000000 ) ;
#836 = ORIENTED_EDGE ( 'NONE', *, *, #829, .T. ) ;
#837 = AXIS2_PLACEMENT_3D ( 'NONE', #416, #904, #117 ) ;
#838 = AXIS2_PLACEMENT_3D ( 'NONE', #972, #150, #892 ) ;
#839 = FACE_OUTER_BOUND ( 'NONE', #1227, .T. ) ;
#840 = DIRECTION ( 'NONE',  ( 1.000000000000000000, -0.000000000000000000, -0.000000000000000000 ) ) ;
#841 = ORIENTED_EDGE ( 'NONE', *, *, #1269, .T. ) ;
#842 = ORIENTED_EDGE ( 'NONE', *, *, #205, .F. ) ;
#843 = ADVANCED_FACE ( 'NONE', ( #861 ), #109, .T. ) ;
#844 = ADVANCED_FACE ( 'NONE', ( #780 ), #997, .F. ) ;
#845 = APPROVAL_ROLE ( '' ) ;
#846 = LINE ( 'NONE', #350, #940 ) ;
#847 = ORIENTED_EDGE ( 'NONE', *, *, #1269, .F. ) ;
#848 = ORIENTED_EDGE ( 'NONE', *, *, #672, .F. ) ;
#849 = DIRECTION ( 'NONE',  ( 0.000000000000000000, -0.000000000000000000, 1.000000000000000000 ) ) ;
#850 = DIRECTION ( 'NONE',  ( 0.000000000000000000, 0.000000000000000000, 1.000000000000000000 ) ) ;
#851 = EDGE_LOOP ( 'NONE', ( #137, #480, #589, #50 ) ) ;
#852 = ORIENTED_EDGE ( 'NONE', *, *, #281, .F. ) ;
#853 = CIRCLE ( 'NONE', #78, 6.000000000000005329 ) ;
#854 = AXIS2_PLACEMENT_3D ( 'NONE', #386, #233, #743 ) ;
#855 = CARTESIAN_POINT ( 'NONE',  ( -346.9999999999996589, -1159.305262667904117, 27.00000000000046185 ) ) ;
#856 = CIRCLE ( 'NONE', #444, 1.000000000000000888 ) ;
#857 = LINE ( 'NONE', #457, #332 ) ;
#858 = ORIENTED_EDGE ( 'NONE', *, *, #384, .F. ) ;
#859 = EDGE_CURVE ( 'NONE', #374, #321, #680, .T. ) ;
#860 = DIRECTION ( 'NONE',  ( -0.000000000000000000, -1.000000000000000000, 0.000000000000000000 ) ) ;
#861 = FACE_OUTER_BOUND ( 'NONE', #42, .T. ) ;
#862 = FACE_OUTER_BOUND ( 'NONE', #810, .T. ) ;
#863 = CARTESIAN_POINT ( 'NONE',  ( 1090.972523324353915, -1100.305262667903662, 25.00000000000046541 ) ) ;
#864 = PLANE ( 'NONE',  #1155 ) ;
#865 = ORIENTED_EDGE ( 'NONE', *, *, #606, .T. ) ;
#866 = CC_DESIGN_PERSON_AND_ORGANIZATION_ASSIGNMENT ( #869, #188, ( #311 ) ) ;
#867 = ORIENTED_EDGE ( 'NONE', *, *, #107, .T. ) ;
#868 = PRODUCT_DEFINITION_SHAPE ( 'NONE', 'NONE',  #1298 ) ;
#869 = PERSON_AND_ORGANIZATION ( #481, #991 ) ;
#870 = LINE ( 'NONE', #253, #423 ) ;
#871 = ORIENTED_EDGE ( 'NONE', *, *, #428, .T. ) ;
#872 = PERSON_AND_ORGANIZATION ( #481, #991 ) ;
#873 = VECTOR ( 'NONE', #211, 1000.000000000000000 ) ;
#874 = EDGE_CURVE ( 'NONE', #498, #596, #71, .T. ) ;
#875 = VECTOR ( 'NONE', #619, 1000.000000000000000 ) ;
#876 = FACE_OUTER_BOUND ( 'NONE', #76, .T. ) ;
#877 = AXIS2_PLACEMENT_3D ( 'NONE', #305, #1084, #96 ) ;
#878 = CARTESIAN_POINT ( 'NONE',  ( -346.9999999999996589, -1104.305262667903889, 27.00000000000046896 ) ) ;
#879 = APPROVAL_PERSON_ORGANIZATION ( #1003, #1024, #283 ) ;
#880 = CARTESIAN_POINT ( 'NONE',  ( -343.9999999999996589, -1163.305262667904117, 25.00000000000045119 ) ) ;
#881 = ORIENTED_EDGE ( 'NONE', *, *, #830, .T. ) ;
#882 = PERSON_AND_ORGANIZATION ( #481, #991 ) ;
#883 = EDGE_CURVE ( 'NONE', #736, #596, #1178, .T. ) ;
#884 = ADVANCED_FACE ( 'NONE', ( #1081 ), #986, .T. ) ;
#885 = DIRECTION ( 'NONE',  ( -0.000000000000000000, -0.000000000000000000, -1.000000000000000000 ) ) ;
#886 = LINE ( 'NONE', #1091, #532 ) ;
#887 = DIRECTION ( 'NONE',  ( 1.000000000000000000, 0.000000000000000000, 0.000000000000000000 ) ) ;
#888 = CARTESIAN_POINT ( 'NONE',  ( -349.9999999999996589, -1103.305262667903889, -624.9999999999997726 ) ) ;
#889 = CARTESIAN_POINT ( 'NONE',  ( -349.9999999999996589, -1108.305262667903889, -626.9999999999997726 ) ) ;
#890 = ORIENTED_EDGE ( 'NONE', *, *, #343, .T. ) ;
#891 = ORIENTED_EDGE ( 'NONE', *, *, #300, .F. ) ;
#892 = DIRECTION ( 'NONE',  ( 0.000000000000000000, 0.000000000000000000, 1.000000000000000000 ) ) ;
#893 = LINE ( 'NONE', #627, #248 ) ;
#894 = DIRECTION ( 'NONE',  ( 1.000000000000000000, -0.000000000000000000, -0.000000000000000000 ) ) ;
#895 = DIRECTION ( 'NONE',  ( 1.000000000000000000, 0.000000000000000000, 0.000000000000000000 ) ) ;
#896 = PLANE ( 'NONE',  #510 ) ;
#897 = ORIENTED_EDGE ( 'NONE', *, *, #224, .T. ) ;
#898 = CIRCLE ( 'NONE', #145, 1.000000000000000888 ) ;
#899 = VECTOR ( 'NONE', #798, 1000.000000000000000 ) ;
#900 = EDGE_LOOP ( 'NONE', ( #852, #1053, #251, #1168 ) ) ;
#901 = VECTOR ( 'NONE', #466, 1000.000000000000000 ) ;
#902 = ADVANCED_FACE ( 'NONE', ( #103 ), #618, .F. ) ;
#903 = ADVANCED_FACE ( 'NONE', ( #23 ), #326, .T. ) ;
#904 = DIRECTION ( 'NONE',  ( -0.000000000000000000, -1.000000000000000000, 0.000000000000000000 ) ) ;
#905 = CARTESIAN_POINT ( 'NONE',  ( -346.9999999999996589, -1093.805262667903889, 104.7558775263622834 ) ) ;
#906 = DIRECTION ( 'NONE',  ( 0.000000000000000000, 0.000000000000000000, 1.000000000000000000 ) ) ;
#907 = CARTESIAN_POINT ( 'NONE',  ( -309.9999999999996021, -1097.305262667903889, 104.7558775263622834 ) ) ;
#908 = DIRECTION ( 'NONE',  ( -5.551115123125788224E-15, 1.000000000000000000, -0.000000000000000000 ) ) ;
#909 = DIRECTION ( 'NONE',  ( 0.000000000000000000, -0.000000000000000000, 1.000000000000000000 ) ) ;
#910 = ORIENTED_EDGE ( 'NONE', *, *, #108, .F. ) ;
#911 = CARTESIAN_POINT ( 'NONE',  ( -349.9999999999996589, -1103.305262667904117, -626.9999999999997726 ) ) ;
#912 = DIRECTION ( 'NONE',  ( -1.000000000000000000, 0.000000000000000000, 0.000000000000000000 ) ) ;
#913 = ORIENTED_EDGE ( 'NONE', *, *, #859, .T. ) ;
#914 = ORIENTED_EDGE ( 'NONE', *, *, #90, .T. ) ;
#915 = VERTEX_POINT ( 'NONE', #518 ) ;
#916 = CARTESIAN_POINT ( 'NONE',  ( -343.9999999999996589, -1103.305262667903889, -624.9999999999997726 ) ) ;
#917 = EDGE_CURVE ( 'NONE', #807, #601, #800, .T. ) ;
#918 = DIRECTION ( 'NONE',  ( 0.000000000000000000, 0.000000000000000000, 1.000000000000000000 ) ) ;
#919 = AXIS2_PLACEMENT_3D ( 'NONE', #1044, #144, #450 ) ;
#920 = DIRECTION ( 'NONE',  ( 0.000000000000000000, 0.000000000000000000, -1.000000000000000000 ) ) ;
#921 = DIRECTION ( 'NONE',  ( 0.000000000000000000, 0.000000000000000000, 1.000000000000000000 ) ) ;
#922 = CIRCLE ( 'NONE', #489, 1.000000000000000888 ) ;
#923 = AXIS2_PLACEMENT_3D ( 'NONE', #781, #169, #579 ) ;
#924 = ORIENTED_EDGE ( 'NONE', *, *, #791, .F. ) ;
#925 = VECTOR ( 'NONE', #742, 1000.000000000000000 ) ;
#926 = ORIENTED_EDGE ( 'NONE', *, *, #671, .T. ) ;
#927 = CARTESIAN_POINT ( 'NONE',  ( -309.9999999999996021, -1163.305262667903889, 104.7558775263622834 ) ) ;
#928 = ADVANCED_FACE ( 'NONE', ( #406 ), #557, .T. ) ;
#929 = ADVANCED_FACE ( 'NONE', ( #755 ), #568, .T. ) ;
#930 = DIRECTION ( 'NONE',  ( 0.000000000000000000, 1.000000000000000000, -0.000000000000000000 ) ) ;
#931 = ORIENTED_EDGE ( 'NONE', *, *, #717, .T. ) ;
#932 = VERTEX_POINT ( 'NONE', #995 ) ;
#933 = DIRECTION ( 'NONE',  ( -1.000000000000000000, -0.000000000000000000, -0.000000000000000000 ) ) ;
#934 = CARTESIAN_POINT ( 'NONE',  ( -309.9999999999996021, -1166.305262667903889, -624.9999999999997726 ) ) ;
#935 = ORIENTED_EDGE ( 'NONE', *, *, #1175, .F. ) ;
#936 = ORIENTED_EDGE ( 'NONE', *, *, #299, .T. ) ;
#937 = DIRECTION ( 'NONE',  ( -1.000000000000000000, 0.000000000000000000, 0.000000000000000000 ) ) ;
#938 = CARTESIAN_POINT ( 'NONE',  ( -343.9999999999996589, -1100.305262667903662, -624.9999999999997726 ) ) ;
#939 = FACE_OUTER_BOUND ( 'NONE', #261, .T. ) ;
#940 = VECTOR ( 'NONE', #1149, 1000.000000000000000 ) ;
#941 = EDGE_LOOP ( 'NONE', ( #935, #994, #914, #824 ) ) ;
#942 = ADVANCED_FACE ( 'NONE', ( #1071 ), #585, .T. ) ;
#943 = ADVANCED_FACE ( 'NONE', ( #469 ), #302, .T. ) ;
#944 = ORIENTED_EDGE ( 'NONE', *, *, #464, .F. ) ;
#945 = CIRCLE ( 'NONE', #877, 6.000000000000005329 ) ;
#946 = CYLINDRICAL_SURFACE ( 'NONE', #737, 1.000000000000000888 ) ;
#947 = DIRECTION ( 'NONE',  ( 1.000000000000000000, -0.000000000000000000, -0.000000000000000000 ) ) ;
#948 = DIRECTION ( 'NONE',  ( -1.000000000000000000, 0.000000000000000000, 0.000000000000000000 ) ) ;
#949 = ORIENTED_EDGE ( 'NONE', *, *, #542, .F. ) ;
#950 = CARTESIAN_POINT ( 'NONE',  ( 1090.972523324354370, -1166.305262667895931, 104.7558775263622834 ) ) ;
#951 = CARTESIAN_POINT ( 'NONE',  ( -346.9999999999996589, -1103.305262667904117, -626.9999999999997726 ) ) ;
#952 = EDGE_LOOP ( 'NONE', ( #36, #262, #381, #154 ) ) ;
#953 = DIRECTION ( 'NONE',  ( -1.000000000000000000, 0.000000000000000000, 0.000000000000000000 ) ) ;
#954 = DIRECTION ( 'NONE',  ( 1.000000000000000000, 0.000000000000000000, 0.000000000000000000 ) ) ;
#955 = CARTESIAN_POINT ( 'NONE',  ( -346.9999999999996589, -1104.305262667903889, -627.9999999999997726 ) ) ;
#956 = EDGE_CURVE ( 'NONE', #1233, #1246, #886, .T. ) ;
#957 = CARTESIAN_POINT ( 'NONE',  ( -343.9999999999996589, -1166.305262667904117, 104.7558775263622834 ) ) ;
#958 = CARTESIAN_POINT ( 'NONE',  ( -309.9999999999996021, -1163.305262667903889, 25.00000000000045119 ) ) ;
#959 = EDGE_LOOP ( 'NONE', ( #180, #659, #1002, #500 ) ) ;
#960 = MANIFOLD_SOLID_BREP ( 'Convert-Solid1', #143 ) ;
#961 = AXIS2_PLACEMENT_3D ( 'NONE', #805, #1206, #304 ) ;
#962 = EDGE_LOOP ( 'NONE', ( #993, #112, #556, #230 ) ) ;
#963 = AXIS2_PLACEMENT_3D ( 'NONE', #855, #355, #1156 ) ;
#964 = ADVANCED_BREP_SHAPE_REPRESENTATION ( 'CV03-TR-16_REV_B_97e82c7609d94fedbc745673a58ef5bf.tmp', ( #960, #777 ), #514 ) ;
#965 = AXIS2_PLACEMENT_3D ( 'NONE', #706, #475, #1272 ) ;
#966 = DIRECTION ( 'NONE',  ( 0.000000000000000000, 0.000000000000000000, -1.000000000000000000 ) ) ;
#967 = CC_DESIGN_DATE_AND_TIME_ASSIGNMENT ( #70, #973, ( #1298 ) ) ;
#968 = DIRECTION ( 'NONE',  ( -0.000000000000000000, -0.000000000000000000, -1.000000000000000000 ) ) ;
#969 = CARTESIAN_POINT ( 'NONE',  ( -309.9999999999996021, -1100.305262667903662, -624.9999999999997726 ) ) ;
#970 = VERTEX_POINT ( 'NONE', #110 ) ;
#971 = ORIENTED_EDGE ( 'NONE', *, *, #1017, .F. ) ;
#972 = CARTESIAN_POINT ( 'NONE',  ( -346.9999999999995453, -1156.305262667904117, -626.9999999999997726 ) ) ;
#973 = DATE_TIME_ROLE ( 'creation_date' ) ;
#974 = DIRECTION ( 'NONE',  ( 0.000000000000000000, 0.000000000000000000, 1.000000000000000000 ) ) ;
#975 = VERTEX_POINT ( 'NONE', #633 ) ;
#976 = VERTEX_POINT ( 'NONE', #811 ) ;
#977 = VERTEX_POINT ( 'NONE', #1214 ) ;
#978 = DIRECTION ( 'NONE',  ( -1.000000000000000000, 0.000000000000000000, 0.000000000000000000 ) ) ;
#979 = DIRECTION ( 'NONE',  ( -0.000000000000000000, -1.000000000000000000, -0.000000000000000000 ) ) ;
#980 = CARTESIAN_POINT ( 'NONE',  ( -349.9999999999996589, -1093.805262667903889, -624.9999999999997726 ) ) ;
#981 = DIRECTION ( 'NONE',  ( -1.000000000000000000, -5.551115123125788224E-15, -0.000000000000000000 ) ) ;
#982 = ORIENTED_EDGE ( 'NONE', *, *, #35, .F. ) ;
#983 = EDGE_CURVE ( 'NONE', #1233, #1284, #1302, .T. ) ;
#984 = EDGE_CURVE ( 'NONE', #975, #1009, #48, .T. ) ;
#985 = VECTOR ( 'NONE', #630, 1000.000000000000000 ) ;
#986 = PLANE ( 'NONE',  #673 ) ;
#987 = VECTOR ( 'NONE', #1050, 1000.000000000000000 ) ;
#988 = VECTOR ( 'NONE', #1279, 1000.000000000000000 ) ;
#989 = CARTESIAN_POINT ( 'NONE',  ( -346.9999999999996589, -1156.305262667904117, 28.00000000000046185 ) ) ;
#990 = DIRECTION ( 'NONE',  ( 0.000000000000000000, 0.000000000000000000, -1.000000000000000000 ) ) ;
#991 = ORGANIZATION ( 'UNSPECIFIED', 'UNSPECIFIED', '' ) ;
#992 = CARTESIAN_POINT ( 'NONE',  ( -346.9999999999996589, -1093.805262667903889, 25.00000000000045119 ) ) ;
#993 = ORIENTED_EDGE ( 'NONE', *, *, #607, .T. ) ;
#994 = ORIENTED_EDGE ( 'NONE', *, *, #648, .T. ) ;
#995 = CARTESIAN_POINT ( 'NONE',  ( -309.9999999999996021, -1100.305262667903662, 25.00000000000046541 ) ) ;
#996 = APPROVAL_DATE_TIME ( #94, #1024 ) ;
#997 = PLANE ( 'NONE',  #965 ) ;
#998 = DESIGN_CONTEXT ( 'detailed design', #197, 'design' ) ;
#999 = CARTESIAN_POINT ( 'NONE',  ( 1090.972523324354370, -1163.305262667896159, 104.7558775263622834 ) ) ;
#1000 = DIRECTION ( 'NONE',  ( 0.000000000000000000, -1.000000000000000000, 0.000000000000000000 ) ) ;
#1001 = VERTEX_POINT ( 'NONE', #951 ) ;
#1002 = ORIENTED_EDGE ( 'NONE', *, *, #751, .T. ) ;
#1003 = PERSON_AND_ORGANIZATION ( #481, #991 ) ;
#1004 = ORIENTED_EDGE ( 'NONE', *, *, #428, .F. ) ;
#1005 = DIRECTION ( 'NONE',  ( -1.000000000000000000, -5.551115123125788224E-15, -0.000000000000000000 ) ) ;
#1006 = EDGE_CURVE ( 'NONE', #932, #977, #1260, .T. ) ;
#1007 = ADVANCED_FACE ( 'NONE', ( #264 ), #946, .T. ) ;
#1008 = ORIENTED_EDGE ( 'NONE', *, *, #1036, .T. ) ;
#1009 = VERTEX_POINT ( 'NONE', #301 ) ;
#1010 = VECTOR ( 'NONE', #974, 1000.000000000000000 ) ;
#1011 = DIRECTION ( 'NONE',  ( 1.000000000000000000, -0.000000000000000000, -0.000000000000000000 ) ) ;
#1012 = AXIS2_PLACEMENT_3D ( 'NONE', #341, #954, #470 ) ;
#1013 = DIRECTION ( 'NONE',  ( 0.000000000000000000, 0.000000000000000000, -1.000000000000000000 ) ) ;
#1014 = AXIS2_PLACEMENT_3D ( 'NONE', #992, #784, #393 ) ;
#1015 = VERTEX_POINT ( 'NONE', #788 ) ;
#1016 = ORIENTED_EDGE ( 'NONE', *, *, #223, .F. ) ;
#1017 = EDGE_CURVE ( 'NONE', #1052, #1233, #1082, .T. ) ;
#1018 = DIRECTION ( 'NONE',  ( 1.000000000000000000, -0.000000000000000000, -0.000000000000000000 ) ) ;
#1019 = DIRECTION ( 'NONE',  ( 1.000000000000000000, -0.000000000000000000, -0.000000000000000000 ) ) ;
#1020 = ORIENTED_EDGE ( 'NONE', *, *, #730, .F. ) ;
#1021 = ORIENTED_EDGE ( 'NONE', *, *, #456, .T. ) ;
#1022 = DIRECTION ( 'NONE',  ( 0.000000000000000000, 0.000000000000000000, 1.000000000000000000 ) ) ;
#1023 = ADVANCED_FACE ( 'NONE', ( #95 ), #507, .F. ) ;
#1024 = APPROVAL ( #483, 'UNSPECIFIED' ) ;
#1025 = CARTESIAN_POINT ( 'NONE',  ( -346.9999999999996589, -1108.305262667903889, 27.00000000000046896 ) ) ;
#1026 = CIRCLE ( 'NONE', #1215, 6.000000000000005329 ) ;
#1027 = AXIS2_PLACEMENT_3D ( 'NONE', #927, #1225, #1034 ) ;
#1028 = ORIENTED_EDGE ( 'NONE', *, *, #1097, .F. ) ;
#1029 = LINE ( 'NONE', #1099, #925 ) ;
#1030 = DIRECTION ( 'NONE',  ( 1.000000000000000000, -0.000000000000000000, -0.000000000000000000 ) ) ;
#1031 = CARTESIAN_POINT ( 'NONE',  ( -346.9999999999996589, -1160.305262667904117, 104.7558775263622834 ) ) ;
#1032 = VERTEX_POINT ( 'NONE', #258 ) ;
#1033 = ORIENTED_EDGE ( 'NONE', *, *, #808, .T. ) ;
#1034 = DIRECTION ( 'NONE',  ( -0.000000000000000000, 0.000000000000000000, 1.000000000000000000 ) ) ;
#1035 = LINE ( 'NONE', #1126, #308 ) ;
#1036 = EDGE_CURVE ( 'NONE', #498, #404, #616, .T. ) ;
#1037 = EDGE_CURVE ( 'NONE', #290, #459, #893, .T. ) ;
#1038 = VERTEX_POINT ( 'NONE', #324 ) ;
#1039 = ORIENTED_EDGE ( 'NONE', *, *, #205, .T. ) ;
#1040 = DIRECTION ( 'NONE',  ( -0.000000000000000000, 1.369518533665899079E-16, -1.000000000000000000 ) ) ;
#1041 = CARTESIAN_POINT ( 'NONE',  ( -346.9999999999996589, -1160.305262667904117, -630.9999999999995453 ) ) ;
#1042 = CARTESIAN_POINT ( 'NONE',  ( -349.9999999999996589, -1155.305262667904117, -624.9999999999997726 ) ) ;
#1043 = DIRECTION ( 'NONE',  ( 0.000000000000000000, -1.000000000000000000, -1.369518533665899079E-16 ) ) ;
#1044 = CARTESIAN_POINT ( 'NONE',  ( -343.9999999999996589, -1103.305262667903889, 104.7558775263622834 ) ) ;
#1045 = ORIENTED_EDGE ( 'NONE', *, *, #599, .T. ) ;
#1046 = AXIS2_PLACEMENT_3D ( 'NONE', #1093, #193, #1043 ) ;
#1047 = CARTESIAN_POINT ( 'NONE',  ( -346.9999999999996589, -1160.305262667904117, 25.00000000000045119 ) ) ;
#1048 = VERTEX_POINT ( 'NONE', #1263 ) ;
#1049 = AXIS2_PLACEMENT_3D ( 'NONE', #905, #978, #10 ) ;
#1050 = DIRECTION ( 'NONE',  ( 1.000000000000000000, -0.000000000000000000, -0.000000000000000000 ) ) ;
#1051 = APPLICATION_CONTEXT ( 'configuration controlled 3d designs of mechanical parts and assemblies' ) ;
#1052 = VERTEX_POINT ( 'NONE', #544 ) ;
#1053 = ORIENTED_EDGE ( 'NONE', *, *, #750, .T. ) ;
#1054 = EDGE_CURVE ( 'NONE', #254, #1076, #111, .T. ) ;
#1055 = ADVANCED_FACE ( 'NONE', ( #1221 ), #214, .T. ) ;
#1056 = CARTESIAN_POINT ( 'NONE',  ( -349.9999999999996589, -1107.305262667904117, 28.00000000000046896 ) ) ;
#1057 = CARTESIAN_POINT ( 'NONE',  ( -349.9999999999996589, -1156.305262667904117, 27.00000000000046185 ) ) ;
#1058 = ORIENTED_EDGE ( 'NONE', *, *, #691, .F. ) ;
#1059 = EDGE_CURVE ( 'NONE', #610, #637, #5, .T. ) ;
#1060 = CC_DESIGN_PERSON_AND_ORGANIZATION_ASSIGNMENT ( #1148, #1080, ( #1298 ) ) ;
#1061 = CARTESIAN_POINT ( 'NONE',  ( -349.9999999999996589, -1104.305262667903889, 27.00000000000046896 ) ) ;
#1062 = DIRECTION ( 'NONE',  ( -1.000000000000000000, 0.000000000000000000, 0.000000000000000000 ) ) ;
#1063 = ORIENTED_EDGE ( 'NONE', *, *, #263, .T. ) ;
#1064 = VECTOR ( 'NONE', #812, 1000.000000000000000 ) ;
#1065 = DIRECTION ( 'NONE',  ( -1.000000000000000000, 0.000000000000000000, 0.000000000000000000 ) ) ;
#1066 = AXIS2_PLACEMENT_3D ( 'NONE', #801, #906, #1109 ) ;
#1067 = PERSON_AND_ORGANIZATION ( #481, #991 ) ;
#1068 = CIRCLE ( 'NONE', #513, 6.000000000000005329 ) ;
#1069 = CARTESIAN_POINT ( 'NONE',  ( -349.9999999999996589, -1155.305262667904117, -626.9999999999997726 ) ) ;
#1070 = ORIENTED_EDGE ( 'NONE', *, *, #314, .T. ) ;
#1071 = FACE_OUTER_BOUND ( 'NONE', #1164, .T. ) ;
#1072 = PERSON_AND_ORGANIZATION_ROLE ( 'classification_officer' ) ;
#1073 = CYLINDRICAL_SURFACE ( 'NONE', #773, 6.000000000000005329 ) ;
#1074 = CARTESIAN_POINT ( 'NONE',  ( -346.9999999999996589, -1107.305262667904117, 28.00000000000046896 ) ) ;
#1075 = DIRECTION ( 'NONE',  ( 0.000000000000000000, -0.000000000000000000, 1.000000000000000000 ) ) ;
#1076 = VERTEX_POINT ( 'NONE', #496 ) ;
#1077 = EDGE_CURVE ( 'NONE', #453, #736, #1257, .T. ) ;
#1078 = DIRECTION ( 'NONE',  ( 0.000000000000000000, 0.000000000000000000, 1.000000000000000000 ) ) ;
#1079 = CARTESIAN_POINT ( 'NONE',  ( -343.9999999999996589, -1103.305262667903889, -624.9999999999997726 ) ) ;
#1080 = PERSON_AND_ORGANIZATION_ROLE ( 'creator' ) ;
#1081 = FACE_OUTER_BOUND ( 'NONE', #44, .T. ) ;
#1082 = LINE ( 'NONE', #190, #269 ) ;
#1083 = ORIENTED_EDGE ( 'NONE', *, *, #323, .T. ) ;
#1084 = DIRECTION ( 'NONE',  ( -0.000000000000000000, -0.000000000000000000, 1.000000000000000000 ) ) ;
#1085 = LINE ( 'NONE', #969, #250 ) ;
#1086 = ORIENTED_EDGE ( 'NONE', *, *, #148, .T. ) ;
#1087 = VECTOR ( 'NONE', #471, 1000.000000000000000 ) ;
#1088 = AXIS2_PLACEMENT_3D ( 'NONE', #588, #565, #63 ) ;
#1089 = CIRCLE ( 'NONE', #795, 3.000000000000002665 ) ;
#1090 = AXIS2_PLACEMENT_3D ( 'NONE', #499, #1291, #1275 ) ;
#1091 = CARTESIAN_POINT ( 'NONE',  ( -343.9999999999996589, -1163.305262667904117, 104.7558775263622834 ) ) ;
#1092 = DIRECTION ( 'NONE',  ( 0.000000000000000000, -0.000000000000000000, -1.000000000000000000 ) ) ;
#1093 = CARTESIAN_POINT ( 'NONE',  ( -346.9999999999996589, -1155.305262667904117, 28.00000000000046185 ) ) ;
#1094 = CARTESIAN_POINT ( 'NONE',  ( -346.9999999999996589, -1159.305262667904117, 28.00000000000046185 ) ) ;
#1095 = ORIENTED_EDGE ( 'NONE', *, *, #583, .T. ) ;
#1096 = CALENDAR_DATE ( 2026, 11, 7 ) ;
#1097 = EDGE_CURVE ( 'NONE', #172, #147, #1180, .T. ) ;
#1098 = CYLINDRICAL_SURFACE ( 'NONE', #1066, 6.000000000000005329 ) ;
#1099 = CARTESIAN_POINT ( 'NONE',  ( -346.9999999999996589, -1160.305262667904117, 25.00000000000045119 ) ) ;
#1100 = CARTESIAN_POINT ( 'NONE',  ( -349.9999999999996589, -1093.805262667903889, 25.00000000000045119 ) ) ;
#1101 = CARTESIAN_POINT ( 'NONE',  ( -346.9999999999996589, -1103.305262667903889, -624.9999999999997726 ) ) ;
#1102 = EDGE_LOOP ( 'NONE', ( #631, #1063, #56, #982 ) ) ;
#1103 = CC_DESIGN_PERSON_AND_ORGANIZATION_ASSIGNMENT ( #872, #1191, ( #53 ) ) ;
#1104 = DIRECTION ( 'NONE',  ( 1.000000000000000000, 0.000000000000000000, 0.000000000000000000 ) ) ;
#1105 = CARTESIAN_POINT ( 'NONE',  ( 1090.972523324354370, -1166.305262667895931, 25.00000000000045119 ) ) ;
#1106 = ORIENTED_EDGE ( 'NONE', *, *, #369, .T. ) ;
#1107 = VERTEX_POINT ( 'NONE', #1186 ) ;
#1108 = VECTOR ( 'NONE', #979, 1000.000000000000000 ) ;
#1109 = DIRECTION ( 'NONE',  ( 1.000000000000000000, 0.000000000000000000, 0.000000000000000000 ) ) ;
#1110 = VECTOR ( 'NONE', #968, 1000.000000000000000 ) ;
#1111 = VECTOR ( 'NONE', #1018, 1000.000000000000000 ) ;
#1112 = LINE ( 'NONE', #312, #1131 ) ;
#1113 = LINE ( 'NONE', #418, #756 ) ;
#1114 = EDGE_CURVE ( 'NONE', #147, #99, #695, .T. ) ;
#1115 = CC_DESIGN_APPROVAL ( #1200, ( #1298 ) ) ;
#1116 = LINE ( 'NONE', #958, #227 ) ;
#1117 = CARTESIAN_POINT ( 'NONE',  ( -346.9999999999996589, -1104.305262667903889, -627.9999999999997726 ) ) ;
#1118 = ORIENTED_EDGE ( 'NONE', *, *, #122, .F. ) ;
#1119 = LINE ( 'NONE', #1134, #530 ) ;
#1120 = CARTESIAN_POINT ( 'NONE',  ( -346.9999999999996589, -1107.305262667904117, 27.00000000000046896 ) ) ;
#1121 = ORIENTED_EDGE ( 'NONE', *, *, #956, .T. ) ;
#1122 = EDGE_CURVE ( 'NONE', #1242, #99, #945, .T. ) ;
#1123 = EDGE_CURVE ( 'NONE', #567, #522, #303, .T. ) ;
#1124 = DIRECTION ( 'NONE',  ( 0.000000000000000000, -0.000000000000000000, -1.000000000000000000 ) ) ;
#1125 = CARTESIAN_POINT ( 'NONE',  ( -346.9999999999995453, -1104.305262667903889, -626.9999999999997726 ) ) ;
#1126 = CARTESIAN_POINT ( 'NONE',  ( -349.9999999999996589, -1160.305262667904117, 104.7558775263622834 ) ) ;
#1127 = ORIENTED_EDGE ( 'NONE', *, *, #464, .T. ) ;
#1128 = ORIENTED_EDGE ( 'NONE', *, *, #148, .F. ) ;
#1129 = DIRECTION ( 'NONE',  ( 1.000000000000000000, 5.551115123125788224E-15, 0.000000000000000000 ) ) ;
#1130 = CARTESIAN_POINT ( 'NONE',  ( -346.9999999999996589, -1160.305262667904117, -630.9999999999995453 ) ) ;
#1131 = VECTOR ( 'NONE', #526, 1000.000000000000000 ) ;
#1132 = ORIENTED_EDGE ( 'NONE', *, *, #1297, .F. ) ;
#1133 = DIRECTION ( 'NONE',  ( -1.000000000000000000, 0.000000000000000000, 0.000000000000000000 ) ) ;
#1134 = CARTESIAN_POINT ( 'NONE',  ( -346.9999999999996589, -1155.305262667904117, 25.00000000000045119 ) ) ;
#1135 = ORIENTED_EDGE ( 'NONE', *, *, #767, .T. ) ;
#1136 = EDGE_CURVE ( 'NONE', #55, #828, #310, .T. ) ;
#1137 = ADVANCED_FACE ( 'NONE', ( #789 ), #709, .F. ) ;
#1138 = DIRECTION ( 'NONE',  ( 1.000000000000000000, 0.000000000000000000, 0.000000000000000000 ) ) ;
#1139 = ORIENTED_EDGE ( 'NONE', *, *, #52, .F. ) ;
#1140 = ORIENTED_EDGE ( 'NONE', *, *, #750, .F. ) ;
#1141 = LINE ( 'NONE', #327, #759 ) ;
#1142 = DIRECTION ( 'NONE',  ( 0.000000000000000000, 0.000000000000000000, -1.000000000000000000 ) ) ;
#1143 = LINE ( 'NONE', #31, #570 ) ;
#1144 = DIRECTION ( 'NONE',  ( -0.000000000000000000, -0.000000000000000000, -1.000000000000000000 ) ) ;
#1145 = EDGE_LOOP ( 'NONE', ( #134, #1198, #89, #1262 ) ) ;
#1146 = ORIENTED_EDGE ( 'NONE', *, *, #1136, .F. ) ;
#1147 = LINE ( 'NONE', #243, #359 ) ;
#1148 = PERSON_AND_ORGANIZATION ( #481, #991 ) ;
#1149 = DIRECTION ( 'NONE',  ( 0.000000000000000000, -0.000000000000000000, 1.000000000000000000 ) ) ;
#1150 = VECTOR ( 'NONE', #200, 1000.000000000000000 ) ;
#1151 = ORIENTED_EDGE ( 'NONE', *, *, #563, .F. ) ;
#1152 = EDGE_CURVE ( 'NONE', #459, #505, #803, .T. ) ;
#1153 = VECTOR ( 'NONE', #885, 1000.000000000000000 ) ;
#1154 = CIRCLE ( 'NONE', #62, 3.000000000000002665 ) ;
#1155 = AXIS2_PLACEMENT_3D ( 'NONE', #1261, #1266, #87 ) ;
#1156 = DIRECTION ( 'NONE',  ( 0.000000000000000000, 0.000000000000000000, 1.000000000000000000 ) ) ;
#1157 = DIRECTION ( 'NONE',  ( 1.000000000000000000, 0.000000000000000000, 0.000000000000000000 ) ) ;
#1158 = EDGE_LOOP ( 'NONE', ( #848, #1256, #15, #1213 ) ) ;
#1159 = ADVANCED_FACE ( 'NONE', ( #73 ), #1281, .T. ) ;
#1160 = EDGE_CURVE ( 'NONE', #1038, #491, #319, .T. ) ;
#1161 = ORIENTED_EDGE ( 'NONE', *, *, #782, .F. ) ;
#1162 = FACE_OUTER_BOUND ( 'NONE', #431, .T. ) ;
#1163 = DIRECTION ( 'NONE',  ( 1.000000000000000000, -0.000000000000000000, -0.000000000000000000 ) ) ;
#1164 = EDGE_LOOP ( 'NONE', ( #177, #1251, #1135, #731 ) ) ;
#1165 = LINE ( 'NONE', #176, #1170 ) ;
#1166 = CARTESIAN_POINT ( 'NONE',  ( -346.9999999999996589, -1155.305262667904117, -624.9999999999997726 ) ) ;
#1167 = LINE ( 'NONE', #683, #270 ) ;
#1168 = ORIENTED_EDGE ( 'NONE', *, *, #956, .F. ) ;
#1169 = VECTOR ( 'NONE', #930, 1000.000000000000000 ) ;
#1170 = VECTOR ( 'NONE', #662, 1000.000000000000000 ) ;
#1171 = APPROVAL_DATE_TIME ( #292, #1200 ) ;
#1172 = CIRCLE ( 'NONE', #1239, 3.000000000000002665 ) ;
#1173 = CC_DESIGN_APPROVAL ( #640, ( #403 ) ) ;
#1174 = EDGE_CURVE ( 'NONE', #676, #1246, #1167, .T. ) ;
#1175 = EDGE_CURVE ( 'NONE', #976, #712, #75, .T. ) ;
#1176 = CARTESIAN_POINT ( 'NONE',  ( -343.9999999999996589, -1103.305262667903889, 25.00000000000045119 ) ) ;
#1177 = ORIENTED_EDGE ( 'NONE', *, *, #829, .F. ) ;
#1178 = LINE ( 'NONE', #275, #816 ) ;
#1179 = DIRECTION ( 'NONE',  ( 1.000000000000000000, 0.000000000000000000, 0.000000000000000000 ) ) ;
#1180 = LINE ( 'NONE', #688, #123 ) ;
#1181 = DIRECTION ( 'NONE',  ( 0.000000000000000000, 0.000000000000000000, -1.000000000000000000 ) ) ;
#1182 = CARTESIAN_POINT ( 'NONE',  ( -343.9999999999996589, -1163.305262667903889, -624.9999999999997726 ) ) ;
#1183 = ORIENTED_EDGE ( 'NONE', *, *, #299, .F. ) ;
#1184 = EDGE_LOOP ( 'NONE', ( #924, #446, #649, #578 ) ) ;
#1185 = ORIENTED_EDGE ( 'NONE', *, *, #1037, .F. ) ;
#1186 = CARTESIAN_POINT ( 'NONE',  ( -346.9999999999996589, -1108.305262667903889, 27.00000000000046896 ) ) ;
#1187 = PLANE ( 'NONE',  #813 ) ;
#1188 = ORIENTED_EDGE ( 'NONE', *, *, #917, .F. ) ;
#1189 = ADVANCED_FACE ( 'NONE', ( #1283 ), #260, .F. ) ;
#1190 = AXIS2_PLACEMENT_3D ( 'NONE', #725, #719, #296 ) ;
#1191 = PERSON_AND_ORGANIZATION_ROLE ( 'design_owner' ) ;
#1192 = ORIENTED_EDGE ( 'NONE', *, *, #26, .T. ) ;
#1193 = AXIS2_PLACEMENT_3D ( 'NONE', #405, #298, #679 ) ;
#1194 = VECTOR ( 'NONE', #229, 1000.000000000000000 ) ;
#1195 = DIRECTION ( 'NONE',  ( 0.000000000000000000, 0.000000000000000000, 1.000000000000000000 ) ) ;
#1196 = CARTESIAN_POINT ( 'NONE',  ( -309.9999999999996021, -1163.305262667903889, 104.7558775263622834 ) ) ;
#1197 = FACE_OUTER_BOUND ( 'NONE', #900, .T. ) ;
#1198 = ORIENTED_EDGE ( 'NONE', *, *, #559, .F. ) ;
#1199 = ORIENTED_EDGE ( 'NONE', *, *, #465, .T. ) ;
#1200 = APPROVAL ( #245, 'UNSPECIFIED' ) ;
#1201 = ORIENTED_EDGE ( 'NONE', *, *, #369, .F. ) ;
#1202 = DIRECTION ( 'NONE',  ( 0.000000000000000000, 0.000000000000000000, -1.000000000000000000 ) ) ;
#1203 = DIRECTION ( 'NONE',  ( -1.000000000000000000, 0.000000000000000000, 0.000000000000000000 ) ) ;
#1204 = DIRECTION ( 'NONE',  ( 0.000000000000000000, 1.000000000000000000, -0.000000000000000000 ) ) ;
#1205 = CARTESIAN_POINT ( 'NONE',  ( -349.9999999999996589, -1156.305262667904117, 28.00000000000046896 ) ) ;
#1206 = DIRECTION ( 'NONE',  ( -1.000000000000000000, -0.000000000000000000, 0.000000000000000000 ) ) ;
#1207 = ORIENTED_EDGE ( 'NONE', *, *, #204, .F. ) ;
#1208 = DIRECTION ( 'NONE',  ( 0.000000000000000000, 0.000000000000000000, -1.000000000000000000 ) ) ;
#1209 = LINE ( 'NONE', #1100, #875 ) ;
#1210 = LINE ( 'NONE', #106, #1064 ) ;
#1211 = EDGE_LOOP ( 'NONE', ( #550, #241, #799, #1139, #61, #1095, #468, #451, #1228, #1267, #785, #642, #1020, #949, #1296, #221, #865, #163, #701, #1118, #330, #361, #364, #1199 ) ) ;
#1212 = FACE_OUTER_BOUND ( 'NONE', #337, .T. ) ;
#1213 = ORIENTED_EDGE ( 'NONE', *, *, #401, .F. ) ;
#1214 = CARTESIAN_POINT ( 'NONE',  ( -343.9999999999996589, -1100.305262667903889, 25.00000000000046541 ) ) ;
#1215 = AXIS2_PLACEMENT_3D ( 'NONE', #625, #920, #19 ) ;
#1216 = EDGE_CURVE ( 'NONE', #637, #254, #1085, .T. ) ;
#1217 = ADVANCED_FACE ( 'NONE', ( #267 ), #664, .F. ) ;
#1218 = AXIS2_PLACEMENT_3D ( 'NONE', #408, #105, #198 ) ;
#1219 = FACE_OUTER_BOUND ( 'NONE', #201, .T. ) ;
#1220 = CC_DESIGN_SECURITY_CLASSIFICATION ( #403, ( #311 ) ) ;
#1221 = FACE_OUTER_BOUND ( 'NONE', #421, .T. ) ;
#1222 = ORIENTED_EDGE ( 'NONE', *, *, #874, .T. ) ;
#1223 = VERTEX_POINT ( 'NONE', #64 ) ;
#1224 = VERTEX_POINT ( 'NONE', #472 ) ;
#1225 = DIRECTION ( 'NONE',  ( 1.000000000000000000, 5.551115123125788224E-15, 0.000000000000000000 ) ) ;
#1226 = CARTESIAN_POINT ( 'NONE',  ( -349.9999999999996589, -1160.305262667904117, 25.00000000000045119 ) ) ;
#1227 = EDGE_LOOP ( 'NONE', ( #256, #690, #387, #1140 ) ) ;
#1228 = ORIENTED_EDGE ( 'NONE', *, *, #635, .T. ) ;
#1229 = VERTEX_POINT ( 'NONE', #778 ) ;
#1230 = CARTESIAN_POINT ( 'NONE',  ( -346.9999999999996589, -1108.305262667903889, -624.9999999999997726 ) ) ;
#1231 = CARTESIAN_POINT ( 'NONE',  ( -349.9999999999995453, -1156.305262667904117, -626.9999999999997726 ) ) ;
#1232 = CARTESIAN_POINT ( 'NONE',  ( -346.9999999999996589, -1108.305262667903889, -624.9999999999997726 ) ) ;
#1233 = VERTEX_POINT ( 'NONE', #880 ) ;
#1234 = ORIENTED_EDGE ( 'NONE', *, *, #622, .F. ) ;
#1235 = ADVANCED_FACE ( 'NONE', ( #192 ), #373, .T. ) ;
#1236 = LINE ( 'NONE', #397, #534 ) ;
#1237 = CARTESIAN_POINT ( 'NONE',  ( -349.9999999999996589, -1159.305262667904117, 27.00000000000046185 ) ) ;
#1238 = VECTOR ( 'NONE', #538, 1000.000000000000000 ) ;
#1239 = AXIS2_PLACEMENT_3D ( 'NONE', #1, #357, #937 ) ;
#1240 = ORIENTED_EDGE ( 'NONE', *, *, #281, .T. ) ;
#1241 = CC_DESIGN_APPROVAL ( #1024, ( #311 ) ) ;
#1242 = VERTEX_POINT ( 'NONE', #60 ) ;
#1243 = CARTESIAN_POINT ( 'NONE',  ( -343.9999999999996589, -1103.305262667903889, 25.00000000000046541 ) ) ;
#1244 = DIRECTION ( 'NONE',  ( -0.000000000000000000, 1.369518533665899079E-16, -1.000000000000000000 ) ) ;
#1245 = VERTEX_POINT ( 'NONE', #888 ) ;
#1246 = VERTEX_POINT ( 'NONE', #1182 ) ;
#1247 = COORDINATED_UNIVERSAL_TIME_OFFSET ( 10, 0, .AHEAD. ) ;
#1248 = ADVANCED_FACE ( 'NONE', ( #278 ), #1288, .T. ) ;
#1249 = DIRECTION ( 'NONE',  ( -0.000000000000000000, -0.000000000000000000, -1.000000000000000000 ) ) ;
#1250 = EDGE_LOOP ( 'NONE', ( #140, #414, #249, #1127 ) ) ;
#1251 = ORIENTED_EDGE ( 'NONE', *, *, #671, .F. ) ;
#1252 = LINE ( 'NONE', #358, #186 ) ;
#1253 = AXIS2_PLACEMENT_3D ( 'NONE', #809, #912, #520 ) ;
#1254 = ADVANCED_FACE ( 'NONE', ( #593 ), #864, .T. ) ;
#1255 = AXIS2_PLACEMENT_3D ( 'NONE', #11, #1295, #909 ) ;
#1256 = ORIENTED_EDGE ( 'NONE', *, *, #1152, .T. ) ;
#1257 = CIRCLE ( 'NONE', #775, 1.000000000000000888 ) ;
#1258 = APPROVAL_PERSON_ORGANIZATION ( #1067, #640, #845 ) ;
#1259 = DIRECTION ( 'NONE',  ( 0.000000000000000000, 0.000000000000000000, -1.000000000000000000 ) ) ;
#1260 = LINE ( 'NONE', #863, #443 ) ;
#1261 = CARTESIAN_POINT ( 'NONE',  ( -343.9999999999996589, -1160.305262667904117, 25.00000000000045119 ) ) ;
#1262 = ORIENTED_EDGE ( 'NONE', *, *, #159, .T. ) ;
#1263 = CARTESIAN_POINT ( 'NONE',  ( -346.9999999999996589, -1103.305262667903889, -624.9999999999997726 ) ) ;
#1264 = CARTESIAN_POINT ( 'NONE',  ( -346.9999999999996589, -1104.305262667903889, 28.00000000000046896 ) ) ;
#1265 = LINE ( 'NONE', #1166, #1276 ) ;
#1266 = DIRECTION ( 'NONE',  ( 0.000000000000000000, -0.000000000000000000, 1.000000000000000000 ) ) ;
#1267 = ORIENTED_EDGE ( 'NONE', *, *, #438, .F. ) ;
#1268 = ORIENTED_EDGE ( 'NONE', *, *, #456, .F. ) ;
#1269 = EDGE_CURVE ( 'NONE', #1223, #498, #285, .T. ) ;
#1270 = EDGE_CURVE ( 'NONE', #675, #1229, #335, .T. ) ;
#1271 = PERSON_AND_ORGANIZATION_ROLE ( 'design_supplier' ) ;
#1272 = DIRECTION ( 'NONE',  ( 0.000000000000000000, -0.000000000000000000, -1.000000000000000000 ) ) ;
#1273 = CARTESIAN_POINT ( 'NONE',  ( -346.9999999999996589, -1093.805262667903889, -624.9999999999997726 ) ) ;
#1274 = ORIENTED_EDGE ( 'NONE', *, *, #263, .F. ) ;
#1275 = DIRECTION ( 'NONE',  ( -0.000000000000000000, 1.369518533665899079E-16, -1.000000000000000000 ) ) ;
#1276 = VECTOR ( 'NONE', #674, 1000.000000000000000 ) ;
#1277 = COORDINATED_UNIVERSAL_TIME_OFFSET ( 10, 0, .AHEAD. ) ;
#1278 = AXIS2_PLACEMENT_3D ( 'NONE', #1041, #860, #346 ) ;
#1279 = DIRECTION ( 'NONE',  ( 1.000000000000000000, -0.000000000000000000, -0.000000000000000000 ) ) ;
#1280 = LINE ( 'NONE', #272, #377 ) ;
#1281 = PLANE ( 'NONE',  #854 ) ;
#1282 = CYLINDRICAL_SURFACE ( 'NONE', #551, 3.000000000000002665 ) ;
#1283 = FACE_OUTER_BOUND ( 'NONE', #1158, .T. ) ;
#1284 = VERTEX_POINT ( 'NONE', #1047 ) ;
#1285 = EDGE_LOOP ( 'NONE', ( #479, #1039, #536, #168 ) ) ;
#1286 = SECURITY_CLASSIFICATION_LEVEL ( 'unclassified' ) ;
#1287 = EDGE_CURVE ( 'NONE', #33, #601, #856, .T. ) ;
#1288 = CYLINDRICAL_SURFACE ( 'NONE', #739, 1.000000000000000888 ) ;
#1289 = CARTESIAN_POINT ( 'NONE',  ( -346.9999999999996589, -1156.305262667904117, 27.00000000000046185 ) ) ;
#1290 = ORIENTED_EDGE ( 'NONE', *, *, #149, .T. ) ;
#1291 = DIRECTION ( 'NONE',  ( 0.000000000000000000, 1.000000000000000000, 1.369518533665899079E-16 ) ) ;
#1292 = DATE_AND_TIME ( #271, #702 ) ;
#1293 = ORIENTED_EDGE ( 'NONE', *, *, #1160, .T. ) ;
#1294 = DIRECTION ( 'NONE',  ( -5.551115123125788224E-15, 1.000000000000000000, -0.000000000000000000 ) ) ;
#1295 = DIRECTION ( 'NONE',  ( -0.000000000000000000, -1.000000000000000000, 0.000000000000000000 ) ) ;
#1296 = ORIENTED_EDGE ( 'NONE', *, *, #1077, .T. ) ;
#1297 = EDGE_CURVE ( 'NONE', #610, #932, #1304, .T. ) ;
#1298 = PRODUCT_DEFINITION ( 'UNKNOWN', '', #311, #998 ) ;
#1299 = ORIENTED_EDGE ( 'NONE', *, *, #1054, .F. ) ;
#1300 = VECTOR ( 'NONE', #519, 1000.000000000000000 ) ;
#1301 = CARTESIAN_POINT ( 'NONE',  ( -309.9999999999996021, -1097.305262667903889, -624.9999999999997726 ) ) ;
#1302 = CIRCLE ( 'NONE', #104, 3.000000000000002665 ) ;
#1303 = ORIENTED_EDGE ( 'NONE', *, *, #1077, .F. ) ;
#1304 = LINE ( 'NONE', #3, #124 ) ;
#1305 = DIRECTION ( 'NONE',  ( 1.000000000000000000, 0.000000000000000000, 0.000000000000000000 ) ) ;
ENDSEC;
END-ISO-10303-21;
