ISO-10303-21;
HEADER;
FILE_DESCRIPTION (( 'STEP AP203' ),
    '1' );
FILE_NAME ('CV03-TR-27_REV_B_dd5e6e9126af47e8b34f98d2fcabd9f0.tmp.step',
    '2026-07-11T06:48:13',
    ( '' ),
    ( '' ),
    'SwSTEP 2.0',
    'SolidWorks 2025',
    '' );
FILE_SCHEMA (( 'CONFIG_CONTROL_DESIGN' ));
ENDSEC;

DATA;
#1 = LINE ( 'NONE', #128, #85 ) ;
#2 = CIRCLE ( 'NONE', #681, 4.000000000000003553 ) ;
#3 = PLANE ( 'NONE',  #320 ) ;
#4 = DIRECTION ( 'NONE',  ( 0.000000000000000000, 1.000000000000000000, 0.000000000000000000 ) ) ;
#5 = FACE_OUTER_BOUND ( 'NONE', #55, .T. ) ;
#6 = DIRECTION ( 'NONE',  ( 0.000000000000000000, 0.000000000000000000, 1.000000000000000000 ) ) ;
#7 = CARTESIAN_POINT ( 'NONE',  ( -1125.000000000000000, -1177.305262667903662, 528.0000000000003411 ) ) ;
#8 = EDGE_CURVE ( 'NONE', #603, #379, #1, .T. ) ;
#9 = CARTESIAN_POINT ( 'NONE',  ( -1175.000000000000000, -1177.305262667903662, 524.0000000000003411 ) ) ;
#10 = CARTESIAN_POINT ( 'NONE',  ( -1175.000000000000000, -1174.305262667903889, 524.0000000000003411 ) ) ;
#11 = ORIENTED_EDGE ( 'NONE', *, *, #332, .T. ) ;
#12 = LINE ( 'NONE', #392, #46 ) ;
#13 = AXIS2_PLACEMENT_3D ( 'NONE', #106, #331, #99 ) ;
#14 = VECTOR ( 'NONE', #502, 1000.000000000000000 ) ;
#15 = CARTESIAN_POINT ( 'NONE',  ( -1175.000000000000000, -1174.305262667903889, 528.0000000000003411 ) ) ;
#16 = DIRECTION ( 'NONE',  ( 1.000000000000000000, 0.000000000000000000, -4.690670291524295911E-16 ) ) ;
#17 = PLANE ( 'NONE',  #639 ) ;
#18 = EDGE_CURVE ( 'NONE', #629, #513, #428, .T. ) ;
#19 = ORIENTED_EDGE ( 'NONE', *, *, #669, .F. ) ;
#20 = VECTOR ( 'NONE', #734, 1000.000000000000000 ) ;
#21 = LINE ( 'NONE', #633, #39 ) ;
#22 = AXIS2_PLACEMENT_3D ( 'NONE', #328, #160, #515 ) ;
#23 = DIRECTION ( 'NONE',  ( -0.000000000000000000, -1.000000000000000000, -0.000000000000000000 ) ) ;
#24 = CC_DESIGN_APPROVAL ( #42, ( #753 ) ) ;
#25 = ORIENTED_EDGE ( 'NONE', *, *, #18, .F. ) ;
#26 = ORIENTED_EDGE ( 'NONE', *, *, #597, .T. ) ;
#27 = LINE ( 'NONE', #590, #108 ) ;
#28 = DIRECTION ( 'NONE',  ( -4.690670291524295911E-16, 0.000000000000000000, -1.000000000000000000 ) ) ;
#29 = EDGE_CURVE ( 'NONE', #662, #770, #233, .T. ) ;
#30 = EDGE_CURVE ( 'NONE', #59, #462, #674, .T. ) ;
#31 = ORIENTED_EDGE ( 'NONE', *, *, #195, .F. ) ;
#32 = VERTEX_POINT ( 'NONE', #432 ) ;
#33 = LINE ( 'NONE', #266, #321 ) ;
#34 = CARTESIAN_POINT ( 'NONE',  ( -1196.999999999999545, -1174.305262667903889, 544.9999999999997726 ) ) ;
#35 = ADVANCED_FACE ( 'NONE', ( #243 ), #746, .F. ) ;
#36 = ORIENTED_EDGE ( 'NONE', *, *, #474, .T. ) ;
#37 = LINE ( 'NONE', #391, #667 ) ;
#38 = CARTESIAN_POINT ( 'NONE',  ( -1199.999999999999545, -1180.305262667903889, 510.9999999999998863 ) ) ;
#39 = VECTOR ( 'NONE', #16, 1000.000000000000000 ) ;
#40 = VECTOR ( 'NONE', #386, 1000.000000000000000 ) ;
#41 = ORIENTED_EDGE ( 'NONE', *, *, #793, .T. ) ;
#42 = APPROVAL ( #287, 'UNSPECIFIED' ) ;
#43 = DIRECTION ( 'NONE',  ( -1.000000000000000000, 0.000000000000000000, 4.690670291524295911E-16 ) ) ;
#44 = CARTESIAN_POINT ( 'NONE',  ( -1196.999999999999545, -1214.305262667903889, 504.9999999999997726 ) ) ;
#45 = EDGE_LOOP ( 'NONE', ( #671, #123 ) ) ;
#46 = VECTOR ( 'NONE', #277, 1000.000000000000000 ) ;
#47 = DIRECTION ( 'NONE',  ( -2.230748992776279396E-16, 0.000000000000000000, 1.000000000000000000 ) ) ;
#48 = EDGE_CURVE ( 'NONE', #265, #520, #361, .T. ) ;
#49 = CARTESIAN_POINT ( 'NONE',  ( -943.0000000000000000, -1177.305262667903662, 541.9999999999996589 ) ) ;
#50 = ORIENTED_EDGE ( 'NONE', *, *, #791, .F. ) ;
#51 = ORIENTED_EDGE ( 'NONE', *, *, #669, .T. ) ;
#52 = DIRECTION ( 'NONE',  ( 0.000000000000000000, 0.000000000000000000, -1.000000000000000000 ) ) ;
#53 = CC_DESIGN_DATE_AND_TIME_ASSIGNMENT ( #231, #174, ( #340 ) ) ;
#54 = VECTOR ( 'NONE', #86, 1000.000000000000000 ) ;
#55 = EDGE_LOOP ( 'NONE', ( #182, #319, #411, #479 ) ) ;
#56 = PERSON_AND_ORGANIZATION ( #685, #585 ) ;
#57 = CARTESIAN_POINT ( 'NONE',  ( -1075.000000000000000, -1177.305262667903662, 528.0000000000003411 ) ) ;
#58 = EDGE_CURVE ( 'NONE', #473, #177, #402, .T. ) ;
#59 = VERTEX_POINT ( 'NONE', #188 ) ;
#60 = APPLICATION_CONTEXT ( 'configuration controlled 3d designs of mechanical parts and assemblies' ) ;
#61 = CYLINDRICAL_SURFACE ( 'NONE', #310, 4.000000000000003553 ) ;
#62 = ORIENTED_EDGE ( 'NONE', *, *, #454, .F. ) ;
#63 = ORIENTED_EDGE ( 'NONE', *, *, #793, .F. ) ;
#64 = EDGE_CURVE ( 'NONE', #379, #650, #250, .T. ) ;
#65 = FACE_OUTER_BOUND ( 'NONE', #235, .T. ) ;
#66 = CARTESIAN_POINT ( 'NONE',  ( -1125.000000000000000, -1177.305262667903662, 532.0000000000003411 ) ) ;
#67 = MANIFOLD_SOLID_BREP ( 'Convert-Solid1', #423 ) ;
#68 = DIRECTION ( 'NONE',  ( 0.000000000000000000, 0.000000000000000000, -1.000000000000000000 ) ) ;
#69 = CIRCLE ( 'NONE', #360, 4.000000000000003553 ) ;
#70 = LINE ( 'NONE', #183, #311 ) ;
#71 = UNCERTAINTY_MEASURE_WITH_UNIT (LENGTH_MEASURE( 1.000000000000000082E-05 ), #239, 'distance_accuracy_value', 'NONE');
#72 = LINE ( 'NONE', #596, #118 ) ;
#73 = CARTESIAN_POINT ( 'NONE',  ( -1075.000000000000000, -1177.305262667903662, 524.0000000000003411 ) ) ;
#74 = CARTESIAN_POINT ( 'NONE',  ( -1125.000000000000000, -1174.305262667903889, 528.0000000000003411 ) ) ;
#75 = EDGE_LOOP ( 'NONE', ( #222, #420 ) ) ;
#76 = APPROVAL_DATE_TIME ( #79, #42 ) ;
#77 = LINE ( 'NONE', #745, #529 ) ;
#78 = VERTEX_POINT ( 'NONE', #486 ) ;
#79 = DATE_AND_TIME ( #369, #273 ) ;
#80 = AXIS2_PLACEMENT_3D ( 'NONE', #117, #4, #484 ) ;
#81 =( GEOMETRIC_REPRESENTATION_CONTEXT ( 3 ) GLOBAL_UNCERTAINTY_ASSIGNED_CONTEXT ( ( #71 ) ) GLOBAL_UNIT_ASSIGNED_CONTEXT ( ( #239, #480, #607 ) ) REPRESENTATION_CONTEXT ( 'NONE', 'WORKASPACE' ) );
#82 = LINE ( 'NONE', #440, #704 ) ;
#83 = EDGE_CURVE ( 'NONE', #662, #347, #205, .T. ) ;
#84 = PERSON_AND_ORGANIZATION_ROLE ( 'classification_officer' ) ;
#85 = VECTOR ( 'NONE', #686, 1000.000000000000000 ) ;
#86 = DIRECTION ( 'NONE',  ( 0.000000000000000000, 1.000000000000000000, 0.000000000000000000 ) ) ;
#87 = ORIENTED_EDGE ( 'NONE', *, *, #558, .T. ) ;
#88 = CARTESIAN_POINT ( 'NONE',  ( -1199.999999999999545, -1177.305262667903662, 541.9999999999997726 ) ) ;
#89 = DIRECTION ( 'NONE',  ( 4.690670291524295911E-16, -0.000000000000000000, 1.000000000000000000 ) ) ;
#90 = ORIENTED_EDGE ( 'NONE', *, *, #189, .T. ) ;
#91 = EDGE_CURVE ( 'NONE', #603, #252, #430, .T. ) ;
#92 = CARTESIAN_POINT ( 'NONE',  ( -943.0000000000000000, -1214.305262667903889, 507.9999999999997726 ) ) ;
#93 = CIRCLE ( 'NONE', #431, 4.000000000000003553 ) ;
#94 = EDGE_CURVE ( 'NONE', #216, #742, #508, .T. ) ;
#95 = ORIENTED_EDGE ( 'NONE', *, *, #206, .F. ) ;
#96 = EDGE_LOOP ( 'NONE', ( #654, #142 ) ) ;
#97 = CIRCLE ( 'NONE', #410, 4.000000000000003553 ) ;
#98 = CARTESIAN_POINT ( 'NONE',  ( -1075.000000000000000, -1177.305262667903662, 524.0000000000003411 ) ) ;
#99 = DIRECTION ( 'NONE',  ( 0.000000000000000000, 0.000000000000000000, 1.000000000000000000 ) ) ;
#100 = EDGE_CURVE ( 'NONE', #790, #520, #301, .T. ) ;
#101 = VERTEX_POINT ( 'NONE', #425 ) ;
#102 = DIRECTION ( 'NONE',  ( -1.000000000000000000, -0.000000000000000000, 4.690670291524295911E-16 ) ) ;
#103 = FACE_OUTER_BOUND ( 'NONE', #389, .T. ) ;
#104 = ORIENTED_EDGE ( 'NONE', *, *, #365, .F. ) ;
#105 = PLANE ( 'NONE',  #151 ) ;
#106 = CARTESIAN_POINT ( 'NONE',  ( -1125.000000000000000, -1177.305262667903662, 528.0000000000003411 ) ) ;
#107 = CIRCLE ( 'NONE', #450, 2.999999999999891642 ) ;
#108 = VECTOR ( 'NONE', #271, 1000.000000000000000 ) ;
#109 = EDGE_LOOP ( 'NONE', ( #407, #575, #293, #540 ) ) ;
#110 = FACE_BOUND ( 'NONE', #292, .T. ) ;
#111 = CARTESIAN_POINT ( 'NONE',  ( -1199.999999999999545, -1177.305262667903662, 544.9999999999997726 ) ) ;
#112 = ORIENTED_EDGE ( 'NONE', *, *, #637, .F. ) ;
#113 = CYLINDRICAL_SURFACE ( 'NONE', #375, 3.000000000000002665 ) ;
#114 = ORIENTED_EDGE ( 'NONE', *, *, #397, .T. ) ;
#115 = CARTESIAN_POINT ( 'NONE',  ( -1199.999999999999545, -1214.305262667903889, 507.9999999999997726 ) ) ;
#116 = ADVANCED_FACE ( 'NONE', ( #697 ), #383, .F. ) ;
#117 = CARTESIAN_POINT ( 'NONE',  ( -1175.000000000000000, -1177.305262667903662, 528.0000000000003411 ) ) ;
#118 = VECTOR ( 'NONE', #190, 1000.000000000000000 ) ;
#119 = VECTOR ( 'NONE', #535, 1000.000000000000000 ) ;
#120 = EDGE_LOOP ( 'NONE', ( #528, #461, #362, #533 ) ) ;
#121 = FACE_OUTER_BOUND ( 'NONE', #229, .T. ) ;
#122 = EDGE_CURVE ( 'NONE', #265, #101, #97, .T. ) ;
#123 = ORIENTED_EDGE ( 'NONE', *, *, #558, .F. ) ;
#124 = DIRECTION ( 'NONE',  ( 1.000000000000000000, 0.000000000000000000, 0.000000000000000000 ) ) ;
#125 = CARTESIAN_POINT ( 'NONE',  ( -1199.999999999999545, -1177.305262667903662, 544.9999999999997726 ) ) ;
#126 = CALENDAR_DATE ( 2026, 11, 7 ) ;
#127 = LINE ( 'NONE', #426, #349 ) ;
#128 = CARTESIAN_POINT ( 'NONE',  ( -1199.999999999999545, -1174.305262667903889, 544.9999999999997726 ) ) ;
#129 = EDGE_CURVE ( 'NONE', #252, #521, #191, .T. ) ;
#130 = CARTESIAN_POINT ( 'NONE',  ( -1196.999999999999545, -1214.305262667903889, 507.9999999999997726 ) ) ;
#131 = ORIENTED_EDGE ( 'NONE', *, *, #83, .T. ) ;
#132 = CARTESIAN_POINT ( 'NONE',  ( -943.0000000000000000, -1177.305262667903662, 544.9999999999996589 ) ) ;
#133 = DIRECTION ( 'NONE',  ( -0.000000000000000000, -1.000000000000000000, -0.000000000000000000 ) ) ;
#134 = PERSON_AND_ORGANIZATION ( #685, #585 ) ;
#135 = CARTESIAN_POINT ( 'NONE',  ( -1075.000000000000000, -1174.305262667903889, 524.0000000000003411 ) ) ;
#136 = ADVANCED_FACE ( 'NONE', ( #5 ), #368, .F. ) ;
#137 = EDGE_CURVE ( 'NONE', #59, #337, #12, .T. ) ;
#138 = COORDINATED_UNIVERSAL_TIME_OFFSET ( 10, 0, .AHEAD. ) ;
#139 = AXIS2_PLACEMENT_3D ( 'NONE', #196, #436, #696 ) ;
#140 = VECTOR ( 'NONE', #514, 1000.000000000000000 ) ;
#141 = DIRECTION ( 'NONE',  ( -0.000000000000000000, -1.000000000000000000, -0.000000000000000000 ) ) ;
#142 = ORIENTED_EDGE ( 'NONE', *, *, #58, .T. ) ;
#143 = ORIENTED_EDGE ( 'NONE', *, *, #94, .T. ) ;
#144 = DIRECTION ( 'NONE',  ( -1.000000000000000000, 0.000000000000000000, 0.000000000000000000 ) ) ;
#145 = DIRECTION ( 'NONE',  ( -0.000000000000000000, -1.000000000000000000, -0.000000000000000000 ) ) ;
#146 = VERTEX_POINT ( 'NONE', #578 ) ;
#147 = CARTESIAN_POINT ( 'NONE',  ( -1175.000000000000000, -1177.305262667903662, 532.0000000000003411 ) ) ;
#148 = CARTESIAN_POINT ( 'NONE',  ( -943.0000000000000000, -1174.305262667903889, 541.9999999999996589 ) ) ;
#149 = ORIENTED_EDGE ( 'NONE', *, *, #624, .F. ) ;
#150 = FACE_OUTER_BOUND ( 'NONE', #470, .T. ) ;
#151 = AXIS2_PLACEMENT_3D ( 'NONE', #115, #726, #731 ) ;
#152 = CYLINDRICAL_SURFACE ( 'NONE', #13, 4.000000000000003553 ) ;
#153 = ORIENTED_EDGE ( 'NONE', *, *, #690, .F. ) ;
#154 = VECTOR ( 'NONE', #634, 1000.000000000000000 ) ;
#155 = DIRECTION ( 'NONE',  ( -0.000000000000000000, -1.000000000000000000, -0.000000000000000000 ) ) ;
#156 = CARTESIAN_POINT ( 'NONE',  ( -1175.000000000000000, -1177.305262667903662, 524.0000000000003411 ) ) ;
#157 = ORIENTED_EDGE ( 'NONE', *, *, #612, .T. ) ;
#158 = ORIENTED_EDGE ( 'NONE', *, *, #354, .F. ) ;
#159 = CARTESIAN_POINT ( 'NONE',  ( -940.0000000000000000, -1180.305262667903889, 504.9999999999996589 ) ) ;
#160 = DIRECTION ( 'NONE',  ( 0.000000000000000000, 1.000000000000000000, 0.000000000000000000 ) ) ;
#161 = ADVANCED_FACE ( 'NONE', ( #647 ), #113, .T. ) ;
#162 = ORIENTED_EDGE ( 'NONE', *, *, #637, .T. ) ;
#163 = DIRECTION ( 'NONE',  ( -0.000000000000000000, -0.000000000000000000, 1.000000000000000000 ) ) ;
#164 = AXIS2_PLACEMENT_3D ( 'NONE', #387, #23, #737 ) ;
#165 = FACE_OUTER_BOUND ( 'NONE', #120, .T. ) ;
#166 = CIRCLE ( 'NONE', #467, 3.000000000000002665 ) ;
#167 = AXIS2_PLACEMENT_3D ( 'NONE', #217, #642, #646 ) ;
#168 = EDGE_LOOP ( 'NONE', ( #718, #786, #219, #303 ) ) ;
#169 = PERSON_AND_ORGANIZATION ( #685, #585 ) ;
#170 = CARTESIAN_POINT ( 'NONE',  ( -940.0000000000000000, -1177.305262667903662, 541.9999999999996589 ) ) ;
#171 = ORIENTED_EDGE ( 'NONE', *, *, #747, .T. ) ;
#172 = AXIS2_PLACEMENT_3D ( 'NONE', #247, #489, #253 ) ;
#173 = ADVANCED_FACE ( 'NONE', ( #338 ), #703, .F. ) ;
#174 = DATE_TIME_ROLE ( 'creation_date' ) ;
#175 = ADVANCED_FACE ( 'NONE', ( #644, #761, #215, #103 ), #661, .F. ) ;
#176 = DIRECTION ( 'NONE',  ( -4.690670291524295911E-16, 0.000000000000000000, -1.000000000000000000 ) ) ;
#177 = VERTEX_POINT ( 'NONE', #581 ) ;
#178 = EDGE_CURVE ( 'NONE', #560, #234, #505, .T. ) ;
#179 = CARTESIAN_POINT ( 'NONE',  ( -1196.999999999999545, -1211.305262667903889, 507.9999999999997726 ) ) ;
#180 = AXIS2_PLACEMENT_3D ( 'NONE', #464, #268, #716 ) ;
#181 = LOCAL_TIME ( 16, 48, 13.00000000000000000, #600 ) ;
#182 = ORIENTED_EDGE ( 'NONE', *, *, #523, .T. ) ;
#183 = CARTESIAN_POINT ( 'NONE',  ( -940.0000000000000000, -1174.305262667903889, 507.9999999999996589 ) ) ;
#184 = CARTESIAN_POINT ( 'NONE',  ( -940.0000000000000000, -1177.305262667903662, 544.9999999999996589 ) ) ;
#185 = CARTESIAN_POINT ( 'NONE',  ( -1175.000000000000000, -1174.305262667903889, 528.0000000000003411 ) ) ;
#186 = DIRECTION ( 'NONE',  ( 1.000000000000000000, 8.322854658612156659E-35, -4.690670291524295911E-16 ) ) ;
#187 = CYLINDRICAL_SURFACE ( 'NONE', #769, 3.000000000000002665 ) ;
#188 = CARTESIAN_POINT ( 'NONE',  ( -1199.999999999999545, -1180.305262667903889, 504.9999999999997726 ) ) ;
#189 = EDGE_CURVE ( 'NONE', #684, #513, #2, .T. ) ;
#190 = DIRECTION ( 'NONE',  ( -0.000000000000000000, -1.000000000000000000, -0.000000000000000000 ) ) ;
#191 = LINE ( 'NONE', #299, #381 ) ;
#192 = VECTOR ( 'NONE', #193, 1000.000000000000000 ) ;
#193 = DIRECTION ( 'NONE',  ( 0.000000000000000000, 1.000000000000000000, 0.000000000000000000 ) ) ;
#194 = DIRECTION ( 'NONE',  ( 0.000000000000000000, 0.000000000000000000, -1.000000000000000000 ) ) ;
#195 = EDGE_CURVE ( 'NONE', #78, #742, #166, .T. ) ;
#196 = CARTESIAN_POINT ( 'NONE',  ( -940.0000000000000000, -1180.305262667903889, 510.9999999999997726 ) ) ;
#197 = CALENDAR_DATE ( 2026, 11, 7 ) ;
#198 = DIRECTION ( 'NONE',  ( -0.000000000000000000, -1.000000000000000000, -0.000000000000000000 ) ) ;
#199 = AXIS2_PLACEMENT_3D ( 'NONE', #38, #588, #274 ) ;
#200 = AXIS2_PLACEMENT_3D ( 'NONE', #702, #43, #636 ) ;
#201 = DIRECTION ( 'NONE',  ( 0.000000000000000000, 0.000000000000000000, -1.000000000000000000 ) ) ;
#202 = APPROVAL ( #660, 'UNSPECIFIED' ) ;
#203 = EDGE_LOOP ( 'NONE', ( #207, #701, #478, #465, #589, #366 ) ) ;
#204 = CARTESIAN_POINT ( 'NONE',  ( -1075.000000000000000, -1174.305262667903889, 528.0000000000003411 ) ) ;
#205 = LINE ( 'NONE', #132, #20 ) ;
#206 = EDGE_CURVE ( 'NONE', #770, #146, #342, .T. ) ;
#207 = ORIENTED_EDGE ( 'NONE', *, *, #623, .F. ) ;
#208 = ORIENTED_EDGE ( 'NONE', *, *, #597, .F. ) ;
#209 = DIRECTION ( 'NONE',  ( -0.000000000000000000, -1.000000000000000000, -0.000000000000000000 ) ) ;
#210 = CARTESIAN_POINT ( 'NONE',  ( -940.0000000000000000, -1177.305262667903662, 510.9999999999996589 ) ) ;
#211 = EDGE_LOOP ( 'NONE', ( #783, #339, #26, #729 ) ) ;
#212 = CARTESIAN_POINT ( 'NONE',  ( -1196.999999999999545, -1177.305262667903662, 541.9999999999997726 ) ) ;
#213 = CIRCLE ( 'NONE', #653, 3.000000000000002665 ) ;
#214 = VECTOR ( 'NONE', #155, 1000.000000000000000 ) ;
#215 = FACE_BOUND ( 'NONE', #262, .T. ) ;
#216 = VERTEX_POINT ( 'NONE', #592 ) ;
#217 = CARTESIAN_POINT ( 'NONE',  ( -1199.999999999999545, -1174.305262667903889, 507.9999999999997726 ) ) ;
#218 = DIRECTION ( 'NONE',  ( 0.000000000000000000, 0.000000000000000000, 1.000000000000000000 ) ) ;
#219 = ORIENTED_EDGE ( 'NONE', *, *, #354, .T. ) ;
#220 = CARTESIAN_POINT ( 'NONE',  ( -1199.999999999999545, -1174.305262667903889, 507.9999999999997726 ) ) ;
#221 = CARTESIAN_POINT ( 'NONE',  ( -1196.999999999999545, -1177.305262667903662, 541.9999999999997726 ) ) ;
#222 = ORIENTED_EDGE ( 'NONE', *, *, #230, .F. ) ;
#223 = CARTESIAN_POINT ( 'NONE',  ( -1196.999999999999545, -1211.305262667903889, 507.9999999999997726 ) ) ;
#224 = CIRCLE ( 'NONE', #743, 4.000000000000003553 ) ;
#225 = DIRECTION ( 'NONE',  ( 0.000000000000000000, 0.000000000000000000, -1.000000000000000000 ) ) ;
#226 = AXIS2_PLACEMENT_3D ( 'NONE', #221, #712, #409 ) ;
#227 = ADVANCED_FACE ( 'NONE', ( #280 ), #780, .T. ) ;
#228 = LOCAL_TIME ( 16, 48, 13.00000000000000000, #691 ) ;
#229 = EDGE_LOOP ( 'NONE', ( #678, #31, #63, #700, #162, #333 ) ) ;
#230 = EDGE_CURVE ( 'NONE', #101, #265, #599, .T. ) ;
#231 = DATE_AND_TIME ( #415, #627 ) ;
#232 = FACE_OUTER_BOUND ( 'NONE', #722, .T. ) ;
#233 = CIRCLE ( 'NONE', #326, 3.000000000000002665 ) ;
#234 = VERTEX_POINT ( 'NONE', #210 ) ;
#235 = EDGE_LOOP ( 'NONE', ( #62, #414, #562, #41 ) ) ;
#236 = APPROVAL_ROLE ( '' ) ;
#237 = LINE ( 'NONE', #673, #666 ) ;
#238 = VERTEX_POINT ( 'NONE', #449 ) ;
#239 =( LENGTH_UNIT ( ) NAMED_UNIT ( * ) SI_UNIT ( .MILLI., .METRE. ) );
#240 = DIRECTION ( 'NONE',  ( 0.000000000000000000, 0.000000000000000000, -1.000000000000000000 ) ) ;
#241 = AXIS2_PLACEMENT_3D ( 'NONE', #74, #693, #201 ) ;
#242 = APPROVAL_PERSON_ORGANIZATION ( #314, #551, #738 ) ;
#243 = FACE_OUTER_BOUND ( 'NONE', #749, .T. ) ;
#244 = PERSON_AND_ORGANIZATION ( #685, #585 ) ;
#245 = DIRECTION ( 'NONE',  ( -1.000000000000000000, 0.000000000000000000, 0.000000000000000000 ) ) ;
#246 = ADVANCED_FACE ( 'NONE', ( #767 ), #152, .F. ) ;
#247 = CARTESIAN_POINT ( 'NONE',  ( -1075.000000000000000, -1177.305262667903662, 528.0000000000003411 ) ) ;
#248 = ORIENTED_EDGE ( 'NONE', *, *, #754, .T. ) ;
#249 = CARTESIAN_POINT ( 'NONE',  ( -943.0000000000000000, -1177.305262667903662, 541.9999999999996589 ) ) ;
#250 = LINE ( 'NONE', #638, #611 ) ;
#251 = CARTESIAN_POINT ( 'NONE',  ( -1125.000000000000000, -1177.305262667903662, 524.0000000000003411 ) ) ;
#252 = VERTEX_POINT ( 'NONE', #34 ) ;
#253 = DIRECTION ( 'NONE',  ( 0.000000000000000000, 0.000000000000000000, 1.000000000000000000 ) ) ;
#254 = CARTESIAN_POINT ( 'NONE',  ( -1199.999999999999545, -1214.305262667903889, 507.9999999999997726 ) ) ;
#255 = FACE_OUTER_BOUND ( 'NONE', #398, .T. ) ;
#256 = CARTESIAN_POINT ( 'NONE',  ( -1075.000000000000000, -1177.305262667903662, 528.0000000000003411 ) ) ;
#257 = ORIENTED_EDGE ( 'NONE', *, *, #178, .T. ) ;
#258 = AXIS2_PLACEMENT_3D ( 'NONE', #288, #418, #668 ) ;
#259 = DIRECTION ( 'NONE',  ( -0.000000000000000000, -1.000000000000000000, -0.000000000000000000 ) ) ;
#260 = DIRECTION ( 'NONE',  ( 0.000000000000000000, 1.000000000000000000, 0.000000000000000000 ) ) ;
#261 = ADVANCED_FACE ( 'NONE', ( #165 ), #406, .F. ) ;
#262 = EDGE_LOOP ( 'NONE', ( #490, #153 ) ) ;
#263 = PLANE ( 'NONE',  #167 ) ;
#264 = DIRECTION ( 'NONE',  ( -0.000000000000000000, -1.000000000000000000, -0.000000000000000000 ) ) ;
#265 = VERTEX_POINT ( 'NONE', #156 ) ;
#266 = CARTESIAN_POINT ( 'NONE',  ( -1199.999999999999545, -1177.305262667903662, 544.9999999999997726 ) ) ;
#267 = PRODUCT_DEFINITION_SHAPE ( 'NONE', 'NONE',  #340 ) ;
#268 = DIRECTION ( 'NONE',  ( 0.000000000000000000, 1.000000000000000000, 0.000000000000000000 ) ) ;
#269 = ADVANCED_FACE ( 'NONE', ( #657 ), #652, .T. ) ;
#270 = ORIENTED_EDGE ( 'NONE', *, *, #791, .T. ) ;
#271 = DIRECTION ( 'NONE',  ( 1.000000000000000000, -0.000000000000000000, -0.000000000000000000 ) ) ;
#272 = AXIS2_PLACEMENT_3D ( 'NONE', #733, #356, #373 ) ;
#273 = LOCAL_TIME ( 16, 48, 13.00000000000000000, #491 ) ;
#274 = DIRECTION ( 'NONE',  ( 0.000000000000000000, 0.000000000000000000, 1.000000000000000000 ) ) ;
#275 = EDGE_LOOP ( 'NONE', ( #90, #157 ) ) ;
#276 = PLANE ( 'NONE',  #732 ) ;
#277 = DIRECTION ( 'NONE',  ( 0.000000000000000000, -1.000000000000000000, -0.000000000000000000 ) ) ;
#278 = VERTEX_POINT ( 'NONE', #773 ) ;
#279 = DIRECTION ( 'NONE',  ( -4.690670291524295911E-16, 0.000000000000000000, -1.000000000000000000 ) ) ;
#280 = FACE_OUTER_BOUND ( 'NONE', #705, .T. ) ;
#281 = EDGE_LOOP ( 'NONE', ( #114, #728, #477, #104 ) ) ;
#282 = MECHANICAL_CONTEXT ( 'NONE', #768, 'mechanical' ) ;
#283 = VECTOR ( 'NONE', #198, 1000.000000000000000 ) ;
#284 = CARTESIAN_POINT ( 'NONE',  ( -1199.999999999999545, -1177.305262667903662, 544.9999999999997726 ) ) ;
#285 = AXIS2_PLACEMENT_3D ( 'NONE', #779, #403, #47 ) ;
#286 = ORIENTED_EDGE ( 'NONE', *, *, #30, .T. ) ;
#287 = APPROVAL_STATUS ( 'not_yet_approved' ) ;
#288 = CARTESIAN_POINT ( 'NONE',  ( -1199.999999999999545, -1180.305262667903889, 510.9999999999998863 ) ) ;
#289 = VERTEX_POINT ( 'NONE', #44 ) ;
#290 = PLANE ( 'NONE',  #719 ) ;
#291 = FACE_OUTER_BOUND ( 'NONE', #759, .T. ) ;
#292 = EDGE_LOOP ( 'NONE', ( #459, #36 ) ) ;
#293 = ORIENTED_EDGE ( 'NONE', *, *, #482, .F. ) ;
#294 = DIRECTION ( 'NONE',  ( 1.000000000000000000, 0.000000000000000000, -4.690670291524295911E-16 ) ) ;
#295 = EDGE_CURVE ( 'NONE', #645, #758, #127, .T. ) ;
#296 = DIRECTION ( 'NONE',  ( -4.690670291524295911E-16, 0.000000000000000000, -1.000000000000000000 ) ) ;
#297 = VECTOR ( 'NONE', #519, 1000.000000000000000 ) ;
#298 = CIRCLE ( 'NONE', #405, 3.000000000000002665 ) ;
#299 = CARTESIAN_POINT ( 'NONE',  ( -1196.999999999999545, -1177.305262667903662, 544.9999999999997726 ) ) ;
#300 = DIRECTION ( 'NONE',  ( 0.000000000000000000, 1.000000000000000000, 0.000000000000000000 ) ) ;
#301 = CIRCLE ( 'NONE', #756, 4.000000000000003553 ) ;
#302 = DIRECTION ( 'NONE',  ( 0.000000000000000000, 0.000000000000000000, -1.000000000000000000 ) ) ;
#303 = ORIENTED_EDGE ( 'NONE', *, *, #178, .F. ) ;
#304 = LINE ( 'NONE', #251, #54 ) ;
#305 = EDGE_CURVE ( 'NONE', #347, #146, #213, .T. ) ;
#306 = CARTESIAN_POINT ( 'NONE',  ( -943.0000000000000000, -1214.305262667903889, 507.9999999999997726 ) ) ;
#307 = PERSON_AND_ORGANIZATION ( #685, #585 ) ;
#308 = LINE ( 'NONE', #254, #744 ) ;
#309 = EDGE_CURVE ( 'NONE', #289, #337, #107, .T. ) ;
#310 = AXIS2_PLACEMENT_3D ( 'NONE', #57, #727, #538 ) ;
#311 = VECTOR ( 'NONE', #355, 1000.000000000000000 ) ;
#312 = PERSON_AND_ORGANIZATION_ROLE ( 'design_supplier' ) ;
#313 = LINE ( 'NONE', #88, #283 ) ;
#314 = PERSON_AND_ORGANIZATION ( #685, #585 ) ;
#315 = DIRECTION ( 'NONE',  ( -0.000000000000000000, -1.000000000000000000, -0.000000000000000000 ) ) ;
#316 = ORIENTED_EDGE ( 'NONE', *, *, #30, .F. ) ;
#317 = DIRECTION ( 'NONE',  ( 4.690670291524295911E-16, -0.000000000000000000, 1.000000000000000000 ) ) ;
#318 = DIRECTION ( 'NONE',  ( -4.690670291524295911E-16, 0.000000000000000000, -1.000000000000000000 ) ) ;
#319 = ORIENTED_EDGE ( 'NONE', *, *, #18, .T. ) ;
#320 = AXIS2_PLACEMENT_3D ( 'NONE', #348, #186, #610 ) ;
#321 = VECTOR ( 'NONE', #707, 1000.000000000000000 ) ;
#322 = LINE ( 'NONE', #220, #214 ) ;
#323 = DIRECTION ( 'NONE',  ( 0.000000000000000000, 1.000000000000000000, 0.000000000000000000 ) ) ;
#324 = AXIS2_PLACEMENT_3D ( 'NONE', #125, #357, #318 ) ;
#325 = ORIENTED_EDGE ( 'NONE', *, *, #332, .F. ) ;
#326 = AXIS2_PLACEMENT_3D ( 'NONE', #148, #260, #302 ) ;
#327 = FACE_OUTER_BOUND ( 'NONE', #168, .T. ) ;
#328 = CARTESIAN_POINT ( 'NONE',  ( -1125.000000000000000, -1177.305262667903662, 528.0000000000003411 ) ) ;
#329 = ORIENTED_EDGE ( 'NONE', *, *, #363, .T. ) ;
#330 = DIRECTION ( 'NONE',  ( 0.000000000000000000, 0.000000000000000000, -1.000000000000000000 ) ) ;
#331 = DIRECTION ( 'NONE',  ( 0.000000000000000000, 1.000000000000000000, 0.000000000000000000 ) ) ;
#332 = EDGE_CURVE ( 'NONE', #146, #234, #476, .T. ) ;
#333 = ORIENTED_EDGE ( 'NONE', *, *, #687, .F. ) ;
#334 = FACE_OUTER_BOUND ( 'NONE', #506, .T. ) ;
#335 = AXIS2_PLACEMENT_3D ( 'NONE', #111, #777, #225 ) ;
#336 = CC_DESIGN_SECURITY_CLASSIFICATION ( #376, ( #753 ) ) ;
#337 = VERTEX_POINT ( 'NONE', #536 ) ;
#338 = FACE_OUTER_BOUND ( 'NONE', #503, .T. ) ;
#339 = ORIENTED_EDGE ( 'NONE', *, *, #8, .T. ) ;
#340 = PRODUCT_DEFINITION ( 'UNKNOWN', '', #753, #591 ) ;
#341 = CARTESIAN_POINT ( 'NONE',  ( -1199.999999999999545, -1174.305262667903889, 544.9999999999997726 ) ) ;
#342 = LINE ( 'NONE', #170, #297 ) ;
#343 = VERTEX_POINT ( 'NONE', #614 ) ;
#344 = APPROVAL_ROLE ( '' ) ;
#345 = ADVANCED_FACE ( 'NONE', ( #492 ), #187, .T. ) ;
#346 = DIRECTION ( 'NONE',  ( -0.000000000000000000, -0.000000000000000000, -1.000000000000000000 ) ) ;
#347 = VERTEX_POINT ( 'NONE', #604 ) ;
#348 = CARTESIAN_POINT ( 'NONE',  ( -940.0000000000000000, -1174.305262667903889, 507.9999999999996589 ) ) ;
#349 = VECTOR ( 'NONE', #352, 1000.000000000000000 ) ;
#350 = CARTESIAN_POINT ( 'NONE',  ( -1196.999999999999545, -1211.305262667903889, 504.9999999999997726 ) ) ;
#351 = ORIENTED_EDGE ( 'NONE', *, *, #557, .F. ) ;
#352 = DIRECTION ( 'NONE',  ( 0.000000000000000000, -1.000000000000000000, -0.000000000000000000 ) ) ;
#353 = ORIENTED_EDGE ( 'NONE', *, *, #129, .T. ) ;
#354 = EDGE_CURVE ( 'NONE', #650, #234, #72, .T. ) ;
#355 = DIRECTION ( 'NONE',  ( 8.322854658612156659E-35, -1.000000000000000000, -3.903976708782663029E-50 ) ) ;
#356 = DIRECTION ( 'NONE',  ( -4.690670291524295911E-16, 0.000000000000000000, -1.000000000000000000 ) ) ;
#357 = DIRECTION ( 'NONE',  ( 1.000000000000000000, 0.000000000000000000, -4.690670291524295911E-16 ) ) ;
#358 = DATE_AND_TIME ( #126, #181 ) ;
#359 = DIRECTION ( 'NONE',  ( -4.690670291524295911E-16, 0.000000000000000000, -1.000000000000000000 ) ) ;
#360 = AXIS2_PLACEMENT_3D ( 'NONE', #550, #141, #382 ) ;
#361 = LINE ( 'NONE', #9, #481 ) ;
#362 = ORIENTED_EDGE ( 'NONE', *, *, #100, .F. ) ;
#363 = EDGE_CURVE ( 'NONE', #770, #650, #237, .T. ) ;
#364 = LINE ( 'NONE', #435, #730 ) ;
#365 = EDGE_CURVE ( 'NONE', #343, #177, #422, .T. ) ;
#366 = ORIENTED_EDGE ( 'NONE', *, *, #390, .T. ) ;
#367 = VECTOR ( 'NONE', #323, 1000.000000000000000 ) ;
#368 = CYLINDRICAL_SURFACE ( 'NONE', #172, 4.000000000000003553 ) ;
#369 = CALENDAR_DATE ( 2026, 11, 7 ) ;
#370 = CARTESIAN_POINT ( 'NONE',  ( -1125.000000000000000, -1174.305262667903889, 524.0000000000003411 ) ) ;
#371 = PRODUCT ( 'CV03-TR-27_REV_B_dd5e6e9126af47e8b34f98d2fcabd9f0.tmp', 'CV03-TR-27_REV_B_dd5e6e9126af47e8b34f98d2fcabd9f0.tmp', '', ( #282 ) ) ;
#372 = CALENDAR_DATE ( 2026, 11, 7 ) ;
#373 = DIRECTION ( 'NONE',  ( 1.000000000000000000, 0.000000000000000000, -4.690670291524295911E-16 ) ) ;
#374 = AXIS2_PLACEMENT_3D ( 'NONE', #15, #567, #444 ) ;
#375 = AXIS2_PLACEMENT_3D ( 'NONE', #49, #460, #218 ) ;
#376 = SECURITY_CLASSIFICATION ( '', '', #495 ) ;
#377 = PERSON_AND_ORGANIZATION ( #685, #585 ) ;
#378 = LINE ( 'NONE', #507, #570 ) ;
#379 = VERTEX_POINT ( 'NONE', #548 ) ;
#380 = DATE_TIME_ROLE ( 'classification_date' ) ;
#381 = VECTOR ( 'NONE', #552, 1000.000000000000000 ) ;
#382 = DIRECTION ( 'NONE',  ( 0.000000000000000000, 0.000000000000000000, -1.000000000000000000 ) ) ;
#383 = PLANE ( 'NONE',  #324 ) ;
#384 = ORIENTED_EDGE ( 'NONE', *, *, #586, .T. ) ;
#385 = ORIENTED_EDGE ( 'NONE', *, *, #557, .T. ) ;
#386 = DIRECTION ( 'NONE',  ( 0.000000000000000000, 1.000000000000000000, 0.000000000000000000 ) ) ;
#387 = CARTESIAN_POINT ( 'NONE',  ( -1125.000000000000000, -1174.305262667903889, 528.0000000000003411 ) ) ;
#388 = CIRCLE ( 'NONE', #452, 4.000000000000003553 ) ;
#389 = EDGE_LOOP ( 'NONE', ( #248, #385, #325, #525, #569, #19 ) ) ;
#390 = EDGE_CURVE ( 'NONE', #758, #216, #680, .T. ) ;
#391 = CARTESIAN_POINT ( 'NONE',  ( -1199.999999999999545, -1177.305262667903662, 544.9999999999997726 ) ) ;
#392 = CARTESIAN_POINT ( 'NONE',  ( -1199.999999999999545, -1174.305262667903889, 504.9999999999997726 ) ) ;
#393 = ORIENTED_EDGE ( 'NONE', *, *, #8, .F. ) ;
#394 = ORIENTED_EDGE ( 'NONE', *, *, #494, .T. ) ;
#395 = CARTESIAN_POINT ( 'NONE',  ( -940.0000000000000000, -1211.305262667903889, 504.9999999999996589 ) ) ;
#396 = DIRECTION ( 'NONE',  ( 1.000000000000000000, 8.322854658612156659E-35, 2.230748992776279396E-16 ) ) ;
#397 = EDGE_CURVE ( 'NONE', #343, #421, #224, .T. ) ;
#398 = EDGE_LOOP ( 'NONE', ( #158, #710, #572, #11 ) ) ;
#399 = DIRECTION ( 'NONE',  ( 1.000000000000000000, 0.000000000000000000, 0.000000000000000000 ) ) ;
#400 = CARTESIAN_POINT ( 'NONE',  ( -1075.000000000000000, -1174.305262667903889, 528.0000000000003411 ) ) ;
#401 = ORIENTED_EDGE ( 'NONE', *, *, #305, .T. ) ;
#402 = CIRCLE ( 'NONE', #164, 4.000000000000003553 ) ;
#403 = DIRECTION ( 'NONE',  ( -1.000000000000000000, -8.322854658612156659E-35, -2.230748992776279396E-16 ) ) ;
#404 = CIRCLE ( 'NONE', #258, 3.000000000000002665 ) ;
#405 = AXIS2_PLACEMENT_3D ( 'NONE', #212, #522, #330 ) ;
#406 = CYLINDRICAL_SURFACE ( 'NONE', #180, 4.000000000000003553 ) ;
#407 = ORIENTED_EDGE ( 'NONE', *, *, #64, .T. ) ;
#408 = ADVANCED_FACE ( 'NONE', ( #232 ), #543, .T. ) ;
#409 = DIRECTION ( 'NONE',  ( 0.000000000000000000, 0.000000000000000000, 1.000000000000000000 ) ) ;
#410 = AXIS2_PLACEMENT_3D ( 'NONE', #546, #609, #68 ) ;
#411 = ORIENTED_EDGE ( 'NONE', *, *, #189, .F. ) ;
#412 = APPLICATION_PROTOCOL_DEFINITION ( 'international standard', 'config_control_design', 1994, #768 ) ;
#413 = CYLINDRICAL_SURFACE ( 'NONE', #80, 4.000000000000003553 ) ;
#414 = ORIENTED_EDGE ( 'NONE', *, *, #295, .F. ) ;
#415 = CALENDAR_DATE ( 2026, 11, 7 ) ;
#416 = ADVANCED_FACE ( 'NONE', ( #736 ), #785, .T. ) ;
#417 = AXIS2_PLACEMENT_3D ( 'NONE', #574, #264, #512 ) ;
#418 = DIRECTION ( 'NONE',  ( -1.000000000000000000, 0.000000000000000000, 4.690670291524295911E-16 ) ) ;
#419 = ADVANCED_FACE ( 'NONE', ( #472 ), #413, .F. ) ;
#420 = ORIENTED_EDGE ( 'NONE', *, *, #122, .F. ) ;
#421 = VERTEX_POINT ( 'NONE', #602 ) ;
#422 = LINE ( 'NONE', #66, #542 ) ;
#423 = CLOSED_SHELL ( 'NONE', ( #136, #246, #261, #416, #765, #345, #781, #675, #532, #161, #408, #227, #116, #740, #419, #173, #433, #723, #35, #446, #175, #269, #772, #708 ) ) ;
#424 = ORIENTED_EDGE ( 'NONE', *, *, #48, .F. ) ;
#425 = CARTESIAN_POINT ( 'NONE',  ( -1175.000000000000000, -1177.305262667903662, 532.0000000000003411 ) ) ;
#426 = CARTESIAN_POINT ( 'NONE',  ( -940.0000000000000000, -1174.305262667903889, 504.9999999999996589 ) ) ;
#427 = CC_DESIGN_PERSON_AND_ORGANIZATION_ASSIGNMENT ( #307, #630, ( #753 ) ) ;
#428 = LINE ( 'NONE', #73, #367 ) ;
#429 = DIRECTION ( 'NONE',  ( 0.000000000000000000, 0.000000000000000000, -1.000000000000000000 ) ) ;
#430 = CIRCLE ( 'NONE', #706, 3.000000000000002665 ) ;
#431 = AXIS2_PLACEMENT_3D ( 'NONE', #256, #259, #504 ) ;
#432 = CARTESIAN_POINT ( 'NONE',  ( -1199.999999999999545, -1177.305262667903889, 510.9999999999998863 ) ) ;
#433 = ADVANCED_FACE ( 'NONE', ( #291 ), #61, .F. ) ;
#434 = LINE ( 'NONE', #689, #14 ) ;
#435 = CARTESIAN_POINT ( 'NONE',  ( -940.0000000000000000, -1211.305262667903889, 507.9999999999996589 ) ) ;
#436 = DIRECTION ( 'NONE',  ( 1.000000000000000000, 0.000000000000000000, -4.690670291524295911E-16 ) ) ;
#437 = EDGE_CURVE ( 'NONE', #32, #462, #404, .T. ) ;
#438 = CIRCLE ( 'NONE', #655, 6.000000000000005329 ) ;
#439 = ORIENTED_EDGE ( 'NONE', *, *, #94, .F. ) ;
#440 = CARTESIAN_POINT ( 'NONE',  ( -1199.999999999999545, -1180.305262667903889, 504.9999999999998863 ) ) ;
#441 = DIRECTION ( 'NONE',  ( 0.000000000000000000, 0.000000000000000000, -1.000000000000000000 ) ) ;
#442 = EDGE_LOOP ( 'NONE', ( #635, #665, #143, #149 ) ) ;
#443 = ORIENTED_EDGE ( 'NONE', *, *, #129, .F. ) ;
#444 = DIRECTION ( 'NONE',  ( 0.000000000000000000, 0.000000000000000000, -1.000000000000000000 ) ) ;
#445 = DIRECTION ( 'NONE',  ( 0.000000000000000000, 0.000000000000000000, 1.000000000000000000 ) ) ;
#446 = ADVANCED_FACE ( 'NONE', ( #121 ), #794, .F. ) ;
#447 = ORIENTED_EDGE ( 'NONE', *, *, #628, .T. ) ;
#448 = PLANE ( 'NONE',  #200 ) ;
#449 = CARTESIAN_POINT ( 'NONE',  ( -1199.999999999999545, -1211.305262667903889, 507.9999999999997726 ) ) ;
#450 = AXIS2_PLACEMENT_3D ( 'NONE', #350, #359, #677 ) ;
#451 = ORIENTED_EDGE ( 'NONE', *, *, #687, .T. ) ;
#452 = AXIS2_PLACEMENT_3D ( 'NONE', #204, #133, #561 ) ;
#453 = FACE_BOUND ( 'NONE', #96, .T. ) ;
#454 = EDGE_CURVE ( 'NONE', #758, #78, #364, .T. ) ;
#455 = DIRECTION ( 'NONE',  ( 1.000000000000000000, 0.000000000000000000, 0.000000000000000000 ) ) ;
#456 = ORIENTED_EDGE ( 'NONE', *, *, #595, .T. ) ;
#457 = DIRECTION ( 'NONE',  ( 1.000000000000000000, 0.000000000000000000, -4.690670291524295911E-16 ) ) ;
#458 = CC_DESIGN_PERSON_AND_ORGANIZATION_ASSIGNMENT ( #244, #471, ( #371 ) ) ;
#459 = ORIENTED_EDGE ( 'NONE', *, *, #100, .T. ) ;
#460 = DIRECTION ( 'NONE',  ( 0.000000000000000000, 1.000000000000000000, 0.000000000000000000 ) ) ;
#461 = ORIENTED_EDGE ( 'NONE', *, *, #48, .T. ) ;
#462 = VERTEX_POINT ( 'NONE', #554 ) ;
#463 = DIRECTION ( 'NONE',  ( 0.000000000000000000, 0.000000000000000000, -1.000000000000000000 ) ) ;
#464 = CARTESIAN_POINT ( 'NONE',  ( -1175.000000000000000, -1177.305262667903662, 528.0000000000003411 ) ) ;
#465 = ORIENTED_EDGE ( 'NONE', *, *, #482, .T. ) ;
#466 = APPLICATION_PROTOCOL_DEFINITION ( 'international standard', 'config_control_design', 1994, #60 ) ;
#467 = AXIS2_PLACEMENT_3D ( 'NONE', #721, #28, #455 ) ;
#468 = APPROVAL_PERSON_ORGANIZATION ( #56, #42, #236 ) ;
#469 = DIRECTION ( 'NONE',  ( 0.000000000000000000, 0.000000000000000000, -1.000000000000000000 ) ) ;
#470 = EDGE_LOOP ( 'NONE', ( #698, #270, #112, #316 ) ) ;
#471 = PERSON_AND_ORGANIZATION_ROLE ( 'design_owner' ) ;
#472 = FACE_OUTER_BOUND ( 'NONE', #774, .T. ) ;
#473 = VERTEX_POINT ( 'NONE', #370 ) ;
#474 = EDGE_CURVE ( 'NONE', #520, #790, #782, .T. ) ;
#475 = CARTESIAN_POINT ( 'NONE',  ( -1175.000000000000000, -1174.305262667903889, 532.0000000000003411 ) ) ;
#476 = LINE ( 'NONE', #184, #613 ) ;
#477 = ORIENTED_EDGE ( 'NONE', *, *, #534, .F. ) ;
#478 = ORIENTED_EDGE ( 'NONE', *, *, #137, .F. ) ;
#479 = ORIENTED_EDGE ( 'NONE', *, *, #586, .F. ) ;
#480 =( NAMED_UNIT ( * ) PLANE_ANGLE_UNIT ( ) SI_UNIT ( $, .RADIAN. ) );
#481 = VECTOR ( 'NONE', #616, 1000.000000000000000 ) ;
#482 = EDGE_CURVE ( 'NONE', #59, #645, #82, .T. ) ;
#483 = CIRCLE ( 'NONE', #139, 6.000000000000005329 ) ;
#484 = DIRECTION ( 'NONE',  ( 0.000000000000000000, 0.000000000000000000, 1.000000000000000000 ) ) ;
#485 = CIRCLE ( 'NONE', #601, 4.000000000000003553 ) ;
#486 = CARTESIAN_POINT ( 'NONE',  ( -940.0000000000000000, -1211.305262667903889, 507.9999999999996589 ) ) ;
#487 = DIRECTION ( 'NONE',  ( 1.000000000000000000, 0.000000000000000000, 0.000000000000000000 ) ) ;
#488 = CARTESIAN_POINT ( 'NONE',  ( -943.0000000000000000, -1211.305262667903889, 504.9999999999997726 ) ) ;
#489 = DIRECTION ( 'NONE',  ( 0.000000000000000000, 1.000000000000000000, 0.000000000000000000 ) ) ;
#490 = ORIENTED_EDGE ( 'NONE', *, *, #523, .F. ) ;
#491 = COORDINATED_UNIVERSAL_TIME_OFFSET ( 10, 0, .AHEAD. ) ;
#492 = FACE_OUTER_BOUND ( 'NONE', #565, .T. ) ;
#493 = CARTESIAN_POINT ( 'NONE',  ( -1196.999999999999545, -1174.305262667903889, 541.9999999999997726 ) ) ;
#494 = EDGE_CURVE ( 'NONE', #462, #560, #21, .T. ) ;
#495 = SECURITY_CLASSIFICATION_LEVEL ( 'unclassified' ) ;
#496 = LINE ( 'NONE', #757, #192 ) ;
#497 = AXIS2_PLACEMENT_3D ( 'NONE', #179, #176, #788 ) ;
#498 = DIRECTION ( 'NONE',  ( 1.000000000000000000, 0.000000000000000000, -4.690670291524295911E-16 ) ) ;
#499 = DIRECTION ( 'NONE',  ( 1.000000000000000000, 0.000000000000000000, -4.690670291524295911E-16 ) ) ;
#500 = APPROVAL_STATUS ( 'not_yet_approved' ) ;
#501 = EDGE_CURVE ( 'NONE', #421, #473, #304, .T. ) ;
#502 = DIRECTION ( 'NONE',  ( 1.000000000000000000, 0.000000000000000000, -4.690670291524295911E-16 ) ) ;
#503 = EDGE_LOOP ( 'NONE', ( #539, #87, #579, #582 ) ) ;
#504 = DIRECTION ( 'NONE',  ( 0.000000000000000000, 0.000000000000000000, -1.000000000000000000 ) ) ;
#505 = CIRCLE ( 'NONE', #717, 3.000000000000002665 ) ;
#506 = EDGE_LOOP ( 'NONE', ( #393, #778, #725, #620, #329, #670 ) ) ;
#507 = CARTESIAN_POINT ( 'NONE',  ( -1199.999999999999545, -1177.305262667903889, 510.9999999999998863 ) ) ;
#508 = LINE ( 'NONE', #306, #688 ) ;
#509 = EDGE_CURVE ( 'NONE', #645, #650, #483, .T. ) ;
#510 = ORIENTED_EDGE ( 'NONE', *, *, #612, .F. ) ;
#511 = CARTESIAN_POINT ( 'NONE',  ( -1075.000000000000000, -1174.305262667903889, 532.0000000000003411 ) ) ;
#512 = DIRECTION ( 'NONE',  ( 0.000000000000000000, 0.000000000000000000, -1.000000000000000000 ) ) ;
#513 = VERTEX_POINT ( 'NONE', #135 ) ;
#514 = DIRECTION ( 'NONE',  ( 4.690670291524295911E-16, -0.000000000000000000, 1.000000000000000000 ) ) ;
#515 = DIRECTION ( 'NONE',  ( 0.000000000000000000, 0.000000000000000000, 1.000000000000000000 ) ) ;
#516 = ORIENTED_EDGE ( 'NONE', *, *, #122, .T. ) ;
#517 = APPROVAL_PERSON_ORGANIZATION ( #169, #202, #344 ) ;
#518 = CARTESIAN_POINT ( 'NONE',  ( -943.0000000000000000, -1174.305262667903889, 544.9999999999996589 ) ) ;
#519 = DIRECTION ( 'NONE',  ( -0.000000000000000000, -1.000000000000000000, -0.000000000000000000 ) ) ;
#520 = VERTEX_POINT ( 'NONE', #10 ) ;
#521 = VERTEX_POINT ( 'NONE', #748 ) ;
#522 = DIRECTION ( 'NONE',  ( 0.000000000000000000, 1.000000000000000000, 0.000000000000000000 ) ) ;
#523 = EDGE_CURVE ( 'NONE', #632, #629, #93, .T. ) ;
#524 = DIRECTION ( 'NONE',  ( -0.000000000000000000, -1.000000000000000000, -0.000000000000000000 ) ) ;
#525 = ORIENTED_EDGE ( 'NONE', *, *, #305, .F. ) ;
#526 = PLANE ( 'NONE',  #285 ) ;
#527 = CARTESIAN_POINT ( 'NONE',  ( -940.0000000000000000, -1180.305262667903889, 510.9999999999996589 ) ) ;
#528 = ORIENTED_EDGE ( 'NONE', *, *, #230, .T. ) ;
#529 = VECTOR ( 'NONE', #631, 1000.000000000000000 ) ;
#530 = PERSON_AND_ORGANIZATION ( #685, #585 ) ;
#531 = DIRECTION ( 'NONE',  ( 4.690670291524295911E-16, -0.000000000000000000, 1.000000000000000000 ) ) ;
#532 = ADVANCED_FACE ( 'NONE', ( #255 ), #17, .F. ) ;
#533 = ORIENTED_EDGE ( 'NONE', *, *, #713, .F. ) ;
#534 = EDGE_CURVE ( 'NONE', #177, #473, #583, .T. ) ;
#535 = DIRECTION ( 'NONE',  ( 4.690670291524295911E-16, -0.000000000000000000, 1.000000000000000000 ) ) ;
#536 = CARTESIAN_POINT ( 'NONE',  ( -1199.999999999999545, -1211.305262667903889, 504.9999999999997726 ) ) ;
#537 = VERTEX_POINT ( 'NONE', #130 ) ;
#538 = DIRECTION ( 'NONE',  ( 0.000000000000000000, 0.000000000000000000, 1.000000000000000000 ) ) ;
#539 = ORIENTED_EDGE ( 'NONE', *, *, #501, .F. ) ;
#540 = ORIENTED_EDGE ( 'NONE', *, *, #763, .F. ) ;
#541 = AXIS2_PLACEMENT_3D ( 'NONE', #621, #498, #445 ) ;
#542 = VECTOR ( 'NONE', #724, 1000.000000000000000 ) ;
#543 = PLANE ( 'NONE',  #752 ) ;
#544 = AXIS2_PLACEMENT_3D ( 'NONE', #223, #279, #399 ) ;
#545 = ORIENTED_EDGE ( 'NONE', *, *, #195, .T. ) ;
#546 = CARTESIAN_POINT ( 'NONE',  ( -1175.000000000000000, -1177.305262667903662, 528.0000000000003411 ) ) ;
#547 = CARTESIAN_POINT ( 'NONE',  ( 0.000000000000000000, 0.000000000000000000, 0.000000000000000000 ) ) ;
#548 = CARTESIAN_POINT ( 'NONE',  ( -1199.999999999999545, -1174.305262667903889, 510.9999999999998863 ) ) ;
#549 = DIRECTION ( 'NONE',  ( 1.000000000000000000, -0.000000000000000000, -0.000000000000000000 ) ) ;
#550 = CARTESIAN_POINT ( 'NONE',  ( -1125.000000000000000, -1177.305262667903662, 528.0000000000003411 ) ) ;
#551 = APPROVAL ( #500, 'UNSPECIFIED' ) ;
#552 = DIRECTION ( 'NONE',  ( -0.000000000000000000, -1.000000000000000000, -0.000000000000000000 ) ) ;
#553 = SHAPE_DEFINITION_REPRESENTATION ( #267, #762 ) ;
#554 = CARTESIAN_POINT ( 'NONE',  ( -1199.999999999999545, -1180.305262667903889, 507.9999999999997726 ) ) ;
#555 = AXIS2_PLACEMENT_3D ( 'NONE', #488, #296, #124 ) ;
#556 = CIRCLE ( 'NONE', #544, 2.999999999999891642 ) ;
#557 = EDGE_CURVE ( 'NONE', #32, #234, #77, .T. ) ;
#558 = EDGE_CURVE ( 'NONE', #421, #343, #69, .T. ) ;
#559 = APPROVAL_DATE_TIME ( #566, #551 ) ;
#560 = VERTEX_POINT ( 'NONE', #618 ) ;
#561 = DIRECTION ( 'NONE',  ( 0.000000000000000000, 0.000000000000000000, -1.000000000000000000 ) ) ;
#562 = ORIENTED_EDGE ( 'NONE', *, *, #649, .T. ) ;
#563 = CARTESIAN_POINT ( 'NONE',  ( -1199.999999999999545, -1174.305262667903889, 541.9999999999997726 ) ) ;
#564 = ORIENTED_EDGE ( 'NONE', *, *, #437, .F. ) ;
#565 = EDGE_LOOP ( 'NONE', ( #439, #755, #598, #545 ) ) ;
#566 = DATE_AND_TIME ( #197, #694 ) ;
#567 = DIRECTION ( 'NONE',  ( -0.000000000000000000, -1.000000000000000000, -0.000000000000000000 ) ) ;
#568 = CARTESIAN_POINT ( 'NONE',  ( -1199.999999999999545, -1180.305262667903889, 507.9999999999997726 ) ) ;
#569 = ORIENTED_EDGE ( 'NONE', *, *, #747, .F. ) ;
#570 = VECTOR ( 'NONE', #315, 1000.000000000000000 ) ;
#571 = VECTOR ( 'NONE', #163, 1000.000000000000000 ) ;
#572 = ORIENTED_EDGE ( 'NONE', *, *, #206, .T. ) ;
#573 = DIRECTION ( 'NONE',  ( 0.000000000000000000, 0.000000000000000000, -1.000000000000000000 ) ) ;
#574 = CARTESIAN_POINT ( 'NONE',  ( -1175.000000000000000, -1177.305262667903662, 528.0000000000003411 ) ) ;
#575 = ORIENTED_EDGE ( 'NONE', *, *, #509, .F. ) ;
#576 = EDGE_LOOP ( 'NONE', ( #95, #764, #131, #401 ) ) ;
#577 = FACE_OUTER_BOUND ( 'NONE', #795, .T. ) ;
#578 = CARTESIAN_POINT ( 'NONE',  ( -940.0000000000000000, -1177.305262667903662, 541.9999999999996589 ) ) ;
#579 = ORIENTED_EDGE ( 'NONE', *, *, #365, .T. ) ;
#580 = LINE ( 'NONE', #147, #40 ) ;
#581 = CARTESIAN_POINT ( 'NONE',  ( -1125.000000000000000, -1174.305262667903889, 532.0000000000003411 ) ) ;
#582 = ORIENTED_EDGE ( 'NONE', *, *, #58, .F. ) ;
#583 = CIRCLE ( 'NONE', #241, 4.000000000000003553 ) ;
#584 = ORIENTED_EDGE ( 'NONE', *, *, #474, .F. ) ;
#585 = ORGANIZATION ( 'UNSPECIFIED', 'UNSPECIFIED', '' ) ;
#586 = EDGE_CURVE ( 'NONE', #632, #684, #496, .T. ) ;
#587 = CARTESIAN_POINT ( 'NONE',  ( -1199.999999999999545, -1180.305262667903889, 510.9999999999998863 ) ) ;
#588 = DIRECTION ( 'NONE',  ( 1.000000000000000000, 0.000000000000000000, -4.690670291524295911E-16 ) ) ;
#589 = ORIENTED_EDGE ( 'NONE', *, *, #295, .T. ) ;
#590 = CARTESIAN_POINT ( 'NONE',  ( -1199.999999999999545, -1174.305262667903889, 544.9999999999997726 ) ) ;
#591 = DESIGN_CONTEXT ( 'detailed design', #60, 'design' ) ;
#592 = CARTESIAN_POINT ( 'NONE',  ( -943.0000000000000000, -1214.305262667903889, 504.9999999999996589 ) ) ;
#593 = ORIENTED_EDGE ( 'NONE', *, *, #437, .T. ) ;
#594 = APPROVAL_DATE_TIME ( #358, #202 ) ;
#595 = EDGE_CURVE ( 'NONE', #603, #278, #313, .T. ) ;
#596 = CARTESIAN_POINT ( 'NONE',  ( -940.0000000000000000, -1177.305262667903662, 510.9999999999996589 ) ) ;
#597 = EDGE_CURVE ( 'NONE', #379, #32, #378, .T. ) ;
#598 = ORIENTED_EDGE ( 'NONE', *, *, #454, .T. ) ;
#599 = CIRCLE ( 'NONE', #417, 4.000000000000003553 ) ;
#600 = COORDINATED_UNIVERSAL_TIME_OFFSET ( 10, 0, .AHEAD. ) ;
#601 = AXIS2_PLACEMENT_3D ( 'NONE', #651, #209, #573 ) ;
#602 = CARTESIAN_POINT ( 'NONE',  ( -1125.000000000000000, -1177.305262667903662, 524.0000000000003411 ) ) ;
#603 = VERTEX_POINT ( 'NONE', #563 ) ;
#604 = CARTESIAN_POINT ( 'NONE',  ( -943.0000000000000000, -1177.305262667903662, 544.9999999999996589 ) ) ;
#605 = ORIENTED_EDGE ( 'NONE', *, *, #648, .F. ) ;
#606 = ORIENTED_EDGE ( 'NONE', *, *, #83, .F. ) ;
#607 =( NAMED_UNIT ( * ) SI_UNIT ( $, .STERADIAN. ) SOLID_ANGLE_UNIT ( ) );
#608 = DIRECTION ( 'NONE',  ( -4.690670291524295911E-16, 0.000000000000000000, -1.000000000000000000 ) ) ;
#609 = DIRECTION ( 'NONE',  ( -0.000000000000000000, -1.000000000000000000, -0.000000000000000000 ) ) ;
#610 = DIRECTION ( 'NONE',  ( 8.322854658612156659E-35, -1.000000000000000000, -3.903976708782663029E-50 ) ) ;
#611 = VECTOR ( 'NONE', #549, 1000.000000000000000 ) ;
#612 = EDGE_CURVE ( 'NONE', #513, #684, #388, .T. ) ;
#613 = VECTOR ( 'NONE', #346, 1000.000000000000000 ) ;
#614 = CARTESIAN_POINT ( 'NONE',  ( -1125.000000000000000, -1177.305262667903662, 532.0000000000003411 ) ) ;
#615 = CC_DESIGN_APPROVAL ( #202, ( #340 ) ) ;
#616 = DIRECTION ( 'NONE',  ( 0.000000000000000000, 1.000000000000000000, 0.000000000000000000 ) ) ;
#617 = CC_DESIGN_DATE_AND_TIME_ASSIGNMENT ( #625, #380, ( #376 ) ) ;
#618 = CARTESIAN_POINT ( 'NONE',  ( -940.0000000000000000, -1180.305262667903889, 507.9999999999996589 ) ) ;
#619 = ORIENTED_EDGE ( 'NONE', *, *, #713, .T. ) ;
#620 = ORIENTED_EDGE ( 'NONE', *, *, #29, .T. ) ;
#621 = CARTESIAN_POINT ( 'NONE',  ( -1199.999999999999545, -1180.305262667903889, 510.9999999999998863 ) ) ;
#622 = DIRECTION ( 'NONE',  ( 0.000000000000000000, 0.000000000000000000, 1.000000000000000000 ) ) ;
#623 = EDGE_CURVE ( 'NONE', #289, #216, #434, .T. ) ;
#624 = EDGE_CURVE ( 'NONE', #537, #742, #308, .T. ) ;
#625 = DATE_AND_TIME ( #372, #228 ) ;
#626 = DIRECTION ( 'NONE',  ( 1.000000000000000000, 0.000000000000000000, -4.690670291524295911E-16 ) ) ;
#627 = LOCAL_TIME ( 16, 48, 13.00000000000000000, #663 ) ;
#628 = EDGE_CURVE ( 'NONE', #289, #537, #692, .T. ) ;
#629 = VERTEX_POINT ( 'NONE', #98 ) ;
#630 = PERSON_AND_ORGANIZATION_ROLE ( 'creator' ) ;
#631 = DIRECTION ( 'NONE',  ( 1.000000000000000000, 0.000000000000000000, -4.690670291524295911E-16 ) ) ;
#632 = VERTEX_POINT ( 'NONE', #656 ) ;
#633 = CARTESIAN_POINT ( 'NONE',  ( -1199.999999999999545, -1180.305262667903889, 507.9999999999997726 ) ) ;
#634 = DIRECTION ( 'NONE',  ( 4.690670291524295911E-16, -0.000000000000000000, 1.000000000000000000 ) ) ;
#635 = ORIENTED_EDGE ( 'NONE', *, *, #628, .F. ) ;
#636 = DIRECTION ( 'NONE',  ( 4.690670291524295911E-16, 0.000000000000000000, 1.000000000000000000 ) ) ;
#637 = EDGE_CURVE ( 'NONE', #462, #238, #322, .T. ) ;
#638 = CARTESIAN_POINT ( 'NONE',  ( -1199.999999999999545, -1174.305262667903889, 510.9999999999998863 ) ) ;
#639 = AXIS2_PLACEMENT_3D ( 'NONE', #751, #144, #622 ) ;
#640 = AXIS2_PLACEMENT_3D ( 'NONE', #547, #6, #487 ) ;
#641 = ORIENTED_EDGE ( 'NONE', *, *, #763, .T. ) ;
#642 = DIRECTION ( 'NONE',  ( -1.000000000000000000, 0.000000000000000000, 4.690670291524295911E-16 ) ) ;
#643 = CC_DESIGN_PERSON_AND_ORGANIZATION_ASSIGNMENT ( #377, #84, ( #376 ) ) ;
#644 = FACE_BOUND ( 'NONE', #75, .T. ) ;
#645 = VERTEX_POINT ( 'NONE', #159 ) ;
#646 = DIRECTION ( 'NONE',  ( 0.000000000000000000, 1.000000000000000000, 0.000000000000000000 ) ) ;
#647 = FACE_OUTER_BOUND ( 'NONE', #576, .T. ) ;
#648 = EDGE_CURVE ( 'NONE', #252, #662, #27, .T. ) ;
#649 = EDGE_CURVE ( 'NONE', #645, #560, #760, .T. ) ;
#650 = VERTEX_POINT ( 'NONE', #766 ) ;
#651 = CARTESIAN_POINT ( 'NONE',  ( -1075.000000000000000, -1177.305262667903662, 528.0000000000003411 ) ) ;
#652 = CYLINDRICAL_SURFACE ( 'NONE', #199, 6.000000000000005329 ) ;
#653 = AXIS2_PLACEMENT_3D ( 'NONE', #249, #300, #240 ) ;
#654 = ORIENTED_EDGE ( 'NONE', *, *, #534, .T. ) ;
#655 = AXIS2_PLACEMENT_3D ( 'NONE', #587, #102, #771 ) ;
#656 = CARTESIAN_POINT ( 'NONE',  ( -1075.000000000000000, -1177.305262667903662, 532.0000000000003411 ) ) ;
#657 = FACE_OUTER_BOUND ( 'NONE', #109, .T. ) ;
#658 = ORIENTED_EDGE ( 'NONE', *, *, #309, .F. ) ;
#659 = CC_DESIGN_PERSON_AND_ORGANIZATION_ASSIGNMENT ( #134, #312, ( #753 ) ) ;
#660 = APPROVAL_STATUS ( 'not_yet_approved' ) ;
#661 = PLANE ( 'NONE',  #335 ) ;
#662 = VERTEX_POINT ( 'NONE', #518 ) ;
#663 = COORDINATED_UNIVERSAL_TIME_OFFSET ( 10, 0, .AHEAD. ) ;
#664 = DIRECTION ( 'NONE',  ( 1.000000000000000000, 0.000000000000000000, -4.690670291524295911E-16 ) ) ;
#665 = ORIENTED_EDGE ( 'NONE', *, *, #623, .T. ) ;
#666 = VECTOR ( 'NONE', #429, 1000.000000000000000 ) ;
#667 = VECTOR ( 'NONE', #457, 1000.000000000000000 ) ;
#668 = DIRECTION ( 'NONE',  ( 0.000000000000000000, 0.000000000000000000, -1.000000000000000000 ) ) ;
#669 = EDGE_CURVE ( 'NONE', #278, #521, #298, .T. ) ;
#670 = ORIENTED_EDGE ( 'NONE', *, *, #64, .F. ) ;
#671 = ORIENTED_EDGE ( 'NONE', *, *, #397, .F. ) ;
#672 = CARTESIAN_POINT ( 'NONE',  ( -1199.999999999999545, -1174.305262667903889, 504.9999999999997726 ) ) ;
#673 = CARTESIAN_POINT ( 'NONE',  ( -940.0000000000000000, -1174.305262667903889, 544.9999999999997726 ) ) ;
#674 = LINE ( 'NONE', #568, #154 ) ;
#675 = ADVANCED_FACE ( 'NONE', ( #327 ), #526, .F. ) ;
#676 = DIRECTION ( 'NONE',  ( -4.690670291524295911E-16, 0.000000000000000000, -1.000000000000000000 ) ) ;
#677 = DIRECTION ( 'NONE',  ( 1.000000000000000000, 0.000000000000000000, 0.000000000000000000 ) ) ;
#678 = ORIENTED_EDGE ( 'NONE', *, *, #624, .T. ) ;
#679 = CC_DESIGN_PERSON_AND_ORGANIZATION_ASSIGNMENT ( #530, #784, ( #340 ) ) ;
#680 = CIRCLE ( 'NONE', #555, 3.000000000000002665 ) ;
#681 = AXIS2_PLACEMENT_3D ( 'NONE', #400, #524, #469 ) ;
#682 = DIRECTION ( 'NONE',  ( -0.000000000000000000, -1.000000000000000000, -0.000000000000000000 ) ) ;
#683 = CC_DESIGN_APPROVAL ( #551, ( #376 ) ) ;
#684 = VERTEX_POINT ( 'NONE', #511 ) ;
#685 = PERSON ( 'UNSPECIFIED', 'UNSPECIFIED', 'UNSPECIFIED', ('UNSPECIFIED'), ('UNSPECIFIED'), ('UNSPECIFIED') ) ;
#686 = DIRECTION ( 'NONE',  ( 0.000000000000000000, 0.000000000000000000, -1.000000000000000000 ) ) ;
#687 = EDGE_CURVE ( 'NONE', #537, #238, #556, .T. ) ;
#688 = VECTOR ( 'NONE', #89, 1000.000000000000000 ) ;
#689 = CARTESIAN_POINT ( 'NONE',  ( -1199.999999999999545, -1214.305262667903889, 504.9999999999997726 ) ) ;
#690 = EDGE_CURVE ( 'NONE', #629, #632, #485, .T. ) ;
#691 = COORDINATED_UNIVERSAL_TIME_OFFSET ( 10, 0, .AHEAD. ) ;
#692 = LINE ( 'NONE', #750, #140 ) ;
#693 = DIRECTION ( 'NONE',  ( -0.000000000000000000, -1.000000000000000000, -0.000000000000000000 ) ) ;
#694 = LOCAL_TIME ( 16, 48, 13.00000000000000000, #138 ) ;
#695 = EDGE_LOOP ( 'NONE', ( #50, #658, #447, #451 ) ) ;
#696 = DIRECTION ( 'NONE',  ( 0.000000000000000000, 0.000000000000000000, -1.000000000000000000 ) ) ;
#697 = FACE_OUTER_BOUND ( 'NONE', #211, .T. ) ;
#698 = ORIENTED_EDGE ( 'NONE', *, *, #137, .T. ) ;
#699 = DIRECTION ( 'NONE',  ( 0.000000000000000000, 1.000000000000000000, 0.000000000000000000 ) ) ;
#700 = ORIENTED_EDGE ( 'NONE', *, *, #494, .F. ) ;
#701 = ORIENTED_EDGE ( 'NONE', *, *, #309, .T. ) ;
#702 = CARTESIAN_POINT ( 'NONE',  ( -1199.999999999999545, -1180.305262667903889, 510.9999999999998863 ) ) ;
#703 = CYLINDRICAL_SURFACE ( 'NONE', #22, 4.000000000000003553 ) ;
#704 = VECTOR ( 'NONE', #626, 1000.000000000000000 ) ;
#705 = EDGE_LOOP ( 'NONE', ( #443, #789, #456, #51 ) ) ;
#706 = AXIS2_PLACEMENT_3D ( 'NONE', #493, #741, #194 ) ;
#707 = DIRECTION ( 'NONE',  ( -4.690670291524295911E-16, 0.000000000000000000, -1.000000000000000000 ) ) ;
#708 = ADVANCED_FACE ( 'NONE', ( #110, #453, #775, #334 ), #276, .T. ) ;
#709 = DIRECTION ( 'NONE',  ( 0.000000000000000000, 0.000000000000000000, -1.000000000000000000 ) ) ;
#710 = ORIENTED_EDGE ( 'NONE', *, *, #363, .F. ) ;
#711 = FACE_OUTER_BOUND ( 'NONE', #442, .T. ) ;
#712 = DIRECTION ( 'NONE',  ( 0.000000000000000000, 1.000000000000000000, 0.000000000000000000 ) ) ;
#713 = EDGE_CURVE ( 'NONE', #101, #790, #580, .T. ) ;
#714 = ORIENTED_EDGE ( 'NONE', *, *, #690, .T. ) ;
#715 = CARTESIAN_POINT ( 'NONE',  ( -940.0000000000000000, -1180.305262667903889, 507.9999999999996589 ) ) ;
#716 = DIRECTION ( 'NONE',  ( 0.000000000000000000, 0.000000000000000000, 1.000000000000000000 ) ) ;
#717 = AXIS2_PLACEMENT_3D ( 'NONE', #527, #396, #709 ) ;
#718 = ORIENTED_EDGE ( 'NONE', *, *, #649, .F. ) ;
#719 = AXIS2_PLACEMENT_3D ( 'NONE', #672, #676, #294 ) ;
#720 = CARTESIAN_POINT ( 'NONE',  ( -1199.999999999999545, -1211.305262667903889, 507.9999999999997726 ) ) ;
#721 = CARTESIAN_POINT ( 'NONE',  ( -943.0000000000000000, -1211.305262667903889, 507.9999999999997726 ) ) ;
#722 = EDGE_LOOP ( 'NONE', ( #606, #605, #353, #171 ) ) ;
#723 = ADVANCED_FACE ( 'NONE', ( #150 ), #263, .T. ) ;
#724 = DIRECTION ( 'NONE',  ( 0.000000000000000000, 1.000000000000000000, 0.000000000000000000 ) ) ;
#725 = ORIENTED_EDGE ( 'NONE', *, *, #648, .T. ) ;
#726 = DIRECTION ( 'NONE',  ( 0.000000000000000000, 1.000000000000000000, 0.000000000000000000 ) ) ;
#727 = DIRECTION ( 'NONE',  ( 0.000000000000000000, 1.000000000000000000, 0.000000000000000000 ) ) ;
#728 = ORIENTED_EDGE ( 'NONE', *, *, #501, .T. ) ;
#729 = ORIENTED_EDGE ( 'NONE', *, *, #754, .F. ) ;
#730 = VECTOR ( 'NONE', #317, 1000.000000000000000 ) ;
#731 = DIRECTION ( 'NONE',  ( 1.000000000000000000, 0.000000000000000000, -4.690670291524295911E-16 ) ) ;
#732 = AXIS2_PLACEMENT_3D ( 'NONE', #341, #699, #463 ) ;
#733 = CARTESIAN_POINT ( 'NONE',  ( -1199.999999999999545, -1174.305262667903889, 507.9999999999997726 ) ) ;
#734 = DIRECTION ( 'NONE',  ( -0.000000000000000000, -1.000000000000000000, -0.000000000000000000 ) ) ;
#735 = LINE ( 'NONE', #720, #119 ) ;
#736 = FACE_OUTER_BOUND ( 'NONE', #695, .T. ) ;
#737 = DIRECTION ( 'NONE',  ( 0.000000000000000000, 0.000000000000000000, -1.000000000000000000 ) ) ;
#738 = APPROVAL_ROLE ( '' ) ;
#739 = CARTESIAN_POINT ( 'NONE',  ( -943.0000000000000000, -1211.305262667903889, 507.9999999999997726 ) ) ;
#740 = ADVANCED_FACE ( 'NONE', ( #577 ), #448, .T. ) ;
#741 = DIRECTION ( 'NONE',  ( 0.000000000000000000, 1.000000000000000000, 0.000000000000000000 ) ) ;
#742 = VERTEX_POINT ( 'NONE', #92 ) ;
#743 = AXIS2_PLACEMENT_3D ( 'NONE', #7, #682, #52 ) ;
#744 = VECTOR ( 'NONE', #499, 1000.000000000000000 ) ;
#745 = CARTESIAN_POINT ( 'NONE',  ( -1199.999999999999545, -1177.305262667903889, 510.9999999999998863 ) ) ;
#746 = CYLINDRICAL_SURFACE ( 'NONE', #541, 3.000000000000002665 ) ;
#747 = EDGE_CURVE ( 'NONE', #521, #347, #37, .T. ) ;
#748 = CARTESIAN_POINT ( 'NONE',  ( -1196.999999999999545, -1177.305262667903662, 544.9999999999997726 ) ) ;
#749 = EDGE_LOOP ( 'NONE', ( #351, #593, #394, #257 ) ) ;
#750 = CARTESIAN_POINT ( 'NONE',  ( -1196.999999999999545, -1214.305262667903889, 507.9999999999997726 ) ) ;
#751 = CARTESIAN_POINT ( 'NONE',  ( -940.0000000000000000, -1177.305262667903662, 544.9999999999996589 ) ) ;
#752 = AXIS2_PLACEMENT_3D ( 'NONE', #284, #531, #664 ) ;
#753 = PRODUCT_DEFINITION_FORMATION_WITH_SPECIFIED_SOURCE ( 'ANY', '', #371, .NOT_KNOWN. ) ;
#754 = EDGE_CURVE ( 'NONE', #278, #32, #33, .T. ) ;
#755 = ORIENTED_EDGE ( 'NONE', *, *, #390, .F. ) ;
#756 = AXIS2_PLACEMENT_3D ( 'NONE', #185, #145, #441 ) ;
#757 = CARTESIAN_POINT ( 'NONE',  ( -1075.000000000000000, -1177.305262667903662, 532.0000000000003411 ) ) ;
#758 = VERTEX_POINT ( 'NONE', #395 ) ;
#759 = EDGE_LOOP ( 'NONE', ( #25, #714, #384, #510 ) ) ;
#760 = LINE ( 'NONE', #715, #571 ) ;
#761 = FACE_BOUND ( 'NONE', #45, .T. ) ;
#762 = ADVANCED_BREP_SHAPE_REPRESENTATION ( 'CV03-TR-27_REV_B_dd5e6e9126af47e8b34f98d2fcabd9f0.tmp', ( #67, #640 ), #81 ) ;
#763 = EDGE_CURVE ( 'NONE', #379, #59, #438, .T. ) ;
#764 = ORIENTED_EDGE ( 'NONE', *, *, #29, .F. ) ;
#765 = ADVANCED_FACE ( 'NONE', ( #711 ), #105, .F. ) ;
#766 = CARTESIAN_POINT ( 'NONE',  ( -940.0000000000000000, -1174.305262667903889, 510.9999999999996589 ) ) ;
#767 = FACE_OUTER_BOUND ( 'NONE', #281, .T. ) ;
#768 = APPLICATION_CONTEXT ( 'configuration controlled 3d designs of mechanical parts and assemblies' ) ;
#769 = AXIS2_PLACEMENT_3D ( 'NONE', #739, #608, #245 ) ;
#770 = VERTEX_POINT ( 'NONE', #792 ) ;
#771 = DIRECTION ( 'NONE',  ( 0.000000000000000000, 0.000000000000000000, -1.000000000000000000 ) ) ;
#772 = ADVANCED_FACE ( 'NONE', ( #787 ), #290, .T. ) ;
#773 = CARTESIAN_POINT ( 'NONE',  ( -1199.999999999999545, -1177.305262667903662, 541.9999999999997726 ) ) ;
#774 = EDGE_LOOP ( 'NONE', ( #424, #516, #619, #584 ) ) ;
#775 = FACE_BOUND ( 'NONE', #275, .T. ) ;
#776 = PRODUCT_RELATED_PRODUCT_CATEGORY ( 'detail', '', ( #371 ) ) ;
#777 = DIRECTION ( 'NONE',  ( 0.000000000000000000, 1.000000000000000000, 0.000000000000000000 ) ) ;
#778 = ORIENTED_EDGE ( 'NONE', *, *, #91, .T. ) ;
#779 = CARTESIAN_POINT ( 'NONE',  ( -940.0000000000000000, -1180.305262667903889, 510.9999999999996589 ) ) ;
#780 = CYLINDRICAL_SURFACE ( 'NONE', #226, 3.000000000000002665 ) ;
#781 = ADVANCED_FACE ( 'NONE', ( #65 ), #3, .T. ) ;
#782 = CIRCLE ( 'NONE', #374, 4.000000000000003553 ) ;
#783 = ORIENTED_EDGE ( 'NONE', *, *, #595, .F. ) ;
#784 = PERSON_AND_ORGANIZATION_ROLE ( 'creator' ) ;
#785 = CYLINDRICAL_SURFACE ( 'NONE', #497, 2.999999999999891642 ) ;
#786 = ORIENTED_EDGE ( 'NONE', *, *, #509, .T. ) ;
#787 = FACE_OUTER_BOUND ( 'NONE', #203, .T. ) ;
#788 = DIRECTION ( 'NONE',  ( -1.000000000000000000, 0.000000000000000000, 0.000000000000000000 ) ) ;
#789 = ORIENTED_EDGE ( 'NONE', *, *, #91, .F. ) ;
#790 = VERTEX_POINT ( 'NONE', #475 ) ;
#791 = EDGE_CURVE ( 'NONE', #337, #238, #735, .T. ) ;
#792 = CARTESIAN_POINT ( 'NONE',  ( -940.0000000000000000, -1174.305262667903889, 541.9999999999996589 ) ) ;
#793 = EDGE_CURVE ( 'NONE', #560, #78, #70, .T. ) ;
#794 = PLANE ( 'NONE',  #272 ) ;
#795 = EDGE_LOOP ( 'NONE', ( #208, #641, #286, #564 ) ) ;
ENDSEC;
END-ISO-10303-21;
