ISO-10303-21;
HEADER;
FILE_DESCRIPTION (( 'STEP AP203' ),
    '1' );
FILE_NAME ('CV03-TR-03_REV_B.step',
    '2025-08-17T04:53:33',
    ( '' ),
    ( '' ),
    'SwSTEP 2.0',
    'SolidWorks 2024',
    '' );
FILE_SCHEMA (( 'CONFIG_CONTROL_DESIGN' ));
ENDSEC;

DATA;
#1 = CC_DESIGN_PERSON_AND_ORGANIZATION_ASSIGNMENT ( #135, #389, ( #358 ) ) ;
#2 = DIRECTION ( 'NONE',  ( 0.000000000000000000, 1.000000000000000000, 0.000000000000000000 ) ) ;
#3 = ORIENTED_EDGE ( 'NONE', *, *, #331, .T. ) ;
#4 = LINE ( 'NONE', #488, #65 ) ;
#5 = AXIS2_PLACEMENT_3D ( 'NONE', #125, #127, #500 ) ;
#6 = LINE ( 'NONE', #434, #141 ) ;
#7 = EDGE_CURVE ( 'NONE', #334, #177, #97, .T. ) ;
#8 = CARTESIAN_POINT ( 'NONE',  ( 2.188320326991013897E-14, -1249.305262667903662, -2262.242495824488287 ) ) ;
#9 = DIRECTION ( 'NONE',  ( -0.4999999999999992784, -0.000000000000000000, -0.8660254037844390407 ) ) ;
#10 = LINE ( 'NONE', #223, #426 ) ;
#11 = EDGE_CURVE ( 'NONE', #515, #296, #203, .T. ) ;
#12 = FACE_OUTER_BOUND ( 'NONE', #370, .T. ) ;
#13 = AXIS2_PLACEMENT_3D ( 'NONE', #169, #271, #421 ) ;
#14 = MANIFOLD_SOLID_BREP ( 'Convert-Solid1', #401 ) ;
#15 = CARTESIAN_POINT ( 'NONE',  ( -26.99999999999997868, -1255.305262667903662, -2268.242495824488287 ) ) ;
#16 = ORIENTED_EDGE ( 'NONE', *, *, #224, .F. ) ;
#17 = CALENDAR_DATE ( 2025, 17, 8 ) ;
#18 = CARTESIAN_POINT ( 'NONE',  ( -26.99999999999997868, -1255.305262667903662, -2281.242495824489197 ) ) ;
#19 = SHAPE_DEFINITION_REPRESENTATION ( #173, #132 ) ;
#20 = CARTESIAN_POINT ( 'NONE',  ( 2.188320326991013897E-14, -1255.305262667903662, -2268.742495824488742 ) ) ;
#21 = VECTOR ( 'NONE', #259, 1000.000000000000000 ) ;
#22 = DATE_AND_TIME ( #17, #204 ) ;
#23 = DIRECTION ( 'NONE',  ( 0.000000000000000000, 0.000000000000000000, 1.000000000000000000 ) ) ;
#24 = APPLICATION_CONTEXT ( 'configuration controlled 3d designs of mechanical parts and assemblies' ) ;
#25 = ORIENTED_EDGE ( 'NONE', *, *, #647, .T. ) ;
#26 = PLANE ( 'NONE',  #251 ) ;
#27 = ORIENTED_EDGE ( 'NONE', *, *, #84, .F. ) ;
#28 = ADVANCED_FACE ( 'NONE', ( #308 ), #510, .F. ) ;
#29 = ORIENTED_EDGE ( 'NONE', *, *, #524, .F. ) ;
#30 = CARTESIAN_POINT ( 'NONE',  ( 27.00000000000002132, -1249.305262667903662, -2268.242495824488287 ) ) ;
#31 = ORIENTED_EDGE ( 'NONE', *, *, #211, .T. ) ;
#32 = ORIENTED_EDGE ( 'NONE', *, *, #652, .F. ) ;
#33 = ORIENTED_EDGE ( 'NONE', *, *, #155, .F. ) ;
#34 = CIRCLE ( 'NONE', #216, 6.500000000000394351 ) ;
#35 = LINE ( 'NONE', #142, #191 ) ;
#36 = VECTOR ( 'NONE', #490, 1000.000000000000000 ) ;
#37 = ORIENTED_EDGE ( 'NONE', *, *, #638, .T. ) ;
#38 = DIRECTION ( 'NONE',  ( 0.000000000000000000, -0.000000000000000000, 1.000000000000000000 ) ) ;
#39 = DIRECTION ( 'NONE',  ( 1.000000000000000000, 0.000000000000000000, 0.000000000000000000 ) ) ;
#40 = DIRECTION ( 'NONE',  ( 0.000000000000000000, 1.000000000000000000, 0.000000000000000000 ) ) ;
#41 = VECTOR ( 'NONE', #105, 1000.000000000000000 ) ;
#42 = AXIS2_PLACEMENT_3D ( 'NONE', #281, #40, #151 ) ;
#43 = EDGE_CURVE ( 'NONE', #573, #147, #613, .T. ) ;
#44 = ORIENTED_EDGE ( 'NONE', *, *, #107, .F. ) ;
#45 = ORIENTED_EDGE ( 'NONE', *, *, #88, .T. ) ;
#46 = CARTESIAN_POINT ( 'NONE',  ( 149.7117235887296260, -1249.305262667903662, -2089.742495824488742 ) ) ;
#47 = DIRECTION ( 'NONE',  ( 0.000000000000000000, 0.000000000000000000, 1.000000000000000000 ) ) ;
#48 = ADVANCED_FACE ( 'NONE', ( #264 ), #554, .F. ) ;
#49 = CARTESIAN_POINT ( 'NONE',  ( -149.7117235887295976, -1249.305262667903662, -2095.742495824488742 ) ) ;
#50 = DIRECTION ( 'NONE',  ( 0.000000000000000000, 1.000000000000000000, 0.000000000000000000 ) ) ;
#51 = EDGE_LOOP ( 'NONE', ( #478, #617, #620, #25 ) ) ;
#52 = DIRECTION ( 'NONE',  ( -0.4999999999999991673, 0.000000000000000000, 0.8660254037844390407 ) ) ;
#53 = ORIENTED_EDGE ( 'NONE', *, *, #346, .T. ) ;
#54 = APPROVAL_PERSON_ORGANIZATION ( #242, #198, #492 ) ;
#55 = LINE ( 'NONE', #269, #36 ) ;
#56 = VECTOR ( 'NONE', #558, 1000.000000000000000 ) ;
#57 = CIRCLE ( 'NONE', #450, 6.500000000000394351 ) ;
#58 = DIRECTION ( 'NONE',  ( 0.000000000000000000, 0.000000000000000000, 1.000000000000000000 ) ) ;
#59 = DIRECTION ( 'NONE',  ( 0.000000000000000000, 0.000000000000000000, 1.000000000000000000 ) ) ;
#60 = ORIENTED_EDGE ( 'NONE', *, *, #297, .F. ) ;
#61 = DIRECTION ( 'NONE',  ( 0.000000000000000000, 0.000000000000000000, -1.000000000000000000 ) ) ;
#62 = CARTESIAN_POINT ( 'NONE',  ( 2.188320326991013897E-14, -1255.305262667903662, -2268.742495824488742 ) ) ;
#63 = CYLINDRICAL_SURFACE ( 'NONE', #42, 5.999999999999783284 ) ;
#64 = CIRCLE ( 'NONE', #205, 6.500000000000394351 ) ;
#65 = VECTOR ( 'NONE', #637, 1000.000000000000000 ) ;
#66 = SECURITY_CLASSIFICATION ( '', '', #237 ) ;
#67 = ORIENTED_EDGE ( 'NONE', *, *, #575, .F. ) ;
#68 = PERSON_AND_ORGANIZATION_ROLE ( 'design_supplier' ) ;
#69 = CIRCLE ( 'NONE', #612, 6.500000000000394351 ) ;
#70 = CARTESIAN_POINT ( 'NONE',  ( 3.461952998104261016E-14, -1255.305262667903662, -2164.742495824488742 ) ) ;
#71 = CYLINDRICAL_SURFACE ( 'NONE', #78, 6.000000000000227374 ) ;
#72 = DATE_AND_TIME ( #557, #414 ) ;
#73 = CARTESIAN_POINT ( 'NONE',  ( -149.7117235887295976, -1255.305262667903662, -2089.742495824488742 ) ) ;
#74 = ORIENTED_EDGE ( 'NONE', *, *, #11, .T. ) ;
#75 = VERTEX_POINT ( 'NONE', #327 ) ;
#76 = PERSON_AND_ORGANIZATION ( #153, #388 ) ;
#77 = CARTESIAN_POINT ( 'NONE',  ( 3.541555040048840124E-14, -1249.305262667903662, -2171.242495824488742 ) ) ;
#78 = AXIS2_PLACEMENT_3D ( 'NONE', #562, #243, #446 ) ;
#79 = EDGE_CURVE ( 'NONE', #351, #177, #460, .T. ) ;
#80 = DIRECTION ( 'NONE',  ( 0.000000000000000000, 0.000000000000000000, -1.000000000000000000 ) ) ;
#81 = ORIENTED_EDGE ( 'NONE', *, *, #631, .T. ) ;
#82 = ORIENTED_EDGE ( 'NONE', *, *, #155, .T. ) ;
#83 = FACE_BOUND ( 'NONE', #607, .T. ) ;
#84 = EDGE_CURVE ( 'NONE', #438, #200, #393, .T. ) ;
#85 = ORIENTED_EDGE ( 'NONE', *, *, #455, .F. ) ;
#86 = DIRECTION ( 'NONE',  ( 0.000000000000000000, 0.000000000000000000, 1.000000000000000000 ) ) ;
#87 = ORIENTED_EDGE ( 'NONE', *, *, #293, .T. ) ;
#88 = EDGE_CURVE ( 'NONE', #340, #624, #57, .T. ) ;
#89 = VERTEX_POINT ( 'NONE', #220 ) ;
#90 = CIRCLE ( 'NONE', #635, 6.500000000000394351 ) ;
#91 = DIRECTION ( 'NONE',  ( 0.000000000000000000, 0.000000000000000000, 1.000000000000000000 ) ) ;
#92 = ORIENTED_EDGE ( 'NONE', *, *, #346, .F. ) ;
#93 = CARTESIAN_POINT ( 'NONE',  ( 43.47927405783849508, -1249.305262667903662, -2291.742495824489197 ) ) ;
#94 = ORIENTED_EDGE ( 'NONE', *, *, #305, .F. ) ;
#95 = ADVANCED_FACE ( 'NONE', ( #278 ), #111, .T. ) ;
#96 = DIRECTION ( 'NONE',  ( 0.000000000000000000, 0.000000000000000000, 1.000000000000000000 ) ) ;
#97 = LINE ( 'NONE', #469, #41 ) ;
#98 = ORIENTED_EDGE ( 'NONE', *, *, #590, .F. ) ;
#99 = CARTESIAN_POINT ( 'NONE',  ( 3.461952998104261016E-14, -1255.305262667903662, -2158.242495824488287 ) ) ;
#100 = ADVANCED_FACE ( 'NONE', ( #119 ), #540, .F. ) ;
#101 = AXIS2_PLACEMENT_3D ( 'NONE', #629, #168, #585 ) ;
#102 = AXIS2_PLACEMENT_3D ( 'NONE', #352, #468, #38 ) ;
#103 = DIRECTION ( 'NONE',  ( 0.000000000000000000, 0.000000000000000000, 1.000000000000000000 ) ) ;
#104 = LINE ( 'NONE', #99, #552 ) ;
#105 = DIRECTION ( 'NONE',  ( -0.000000000000000000, -1.000000000000000000, -0.000000000000000000 ) ) ;
#106 = DIRECTION ( 'NONE',  ( 0.000000000000000000, 0.000000000000000000, 1.000000000000000000 ) ) ;
#107 = EDGE_CURVE ( 'NONE', #147, #410, #276, .T. ) ;
#108 = EDGE_LOOP ( 'NONE', ( #381, #601, #74, #502 ) ) ;
#109 = DIRECTION ( 'NONE',  ( -0.000000000000000000, -1.000000000000000000, -0.000000000000000000 ) ) ;
#110 = ORIENTED_EDGE ( 'NONE', *, *, #224, .T. ) ;
#111 = CYLINDRICAL_SURFACE ( 'NONE', #337, 5.999999999999783284 ) ;
#112 = CARTESIAN_POINT ( 'NONE',  ( 27.00000000000002132, -1249.305262667903662, -2281.242495824489197 ) ) ;
#113 = CC_DESIGN_SECURITY_CLASSIFICATION ( #66, ( #149 ) ) ;
#114 = DIRECTION ( 'NONE',  ( 0.000000000000000000, 1.000000000000000000, 0.000000000000000000 ) ) ;
#115 = ORIENTED_EDGE ( 'NONE', *, *, #670, .T. ) ;
#116 = CIRCLE ( 'NONE', #101, 6.500000000000394351 ) ;
#117 = CARTESIAN_POINT ( 'NONE',  ( 43.47927405783823218, -1249.305262667903662, -2291.742495824489197 ) ) ;
#118 = ORIENTED_EDGE ( 'NONE', *, *, #285, .T. ) ;
#119 = FACE_OUTER_BOUND ( 'NONE', #533, .T. ) ;
#120 = CARTESIAN_POINT ( 'NONE',  ( -26.99999999999997868, -1255.305262667903662, -2274.742495824488742 ) ) ;
#121 = EDGE_LOOP ( 'NONE', ( #412, #16, #87, #407 ) ) ;
#122 = APPROVAL_ROLE ( '' ) ;
#123 = CARTESIAN_POINT ( 'NONE',  ( -38.28312163513160016, -1255.305262667903662, -2288.742495824489197 ) ) ;
#124 = EDGE_CURVE ( 'NONE', #260, #567, #55, .T. ) ;
#125 = CARTESIAN_POINT ( 'NONE',  ( 2.188320326991013897E-14, -1249.305262667903662, -2268.742495824488742 ) ) ;
#126 = DIRECTION ( 'NONE',  ( 1.000000000000000000, 0.000000000000000000, 0.000000000000000000 ) ) ;
#127 = DIRECTION ( 'NONE',  ( 0.000000000000000000, 1.000000000000000000, 0.000000000000000000 ) ) ;
#128 = APPROVAL ( #396, 'UNSPECIFIED' ) ;
#129 = AXIS2_PLACEMENT_3D ( 'NONE', #582, #2, #671 ) ;
#130 = AXIS2_PLACEMENT_3D ( 'NONE', #120, #443, #404 ) ;
#131 = APPROVAL_DATE_TIME ( #72, #198 ) ;
#132 = ADVANCED_BREP_SHAPE_REPRESENTATION ( 'CV03-TR-03_REV_B', ( #14, #456 ), #471 ) ;
#133 = DIRECTION ( 'NONE',  ( 0.000000000000000000, 1.000000000000000000, 0.000000000000000000 ) ) ;
#134 = CARTESIAN_POINT ( 'NONE',  ( 27.00000000000002132, -1255.305262667903662, -2281.242495824489197 ) ) ;
#135 = PERSON_AND_ORGANIZATION ( #153, #388 ) ;
#136 = DIRECTION ( 'NONE',  ( 0.000000000000000000, 0.000000000000000000, 1.000000000000000000 ) ) ;
#137 = DIRECTION ( 'NONE',  ( 0.000000000000000000, 0.000000000000000000, 1.000000000000000000 ) ) ;
#138 = CARTESIAN_POINT ( 'NONE',  ( -26.99999999999997868, -1249.305262667903662, -2281.242495824489197 ) ) ;
#139 = UNCERTAINTY_MEASURE_WITH_UNIT (LENGTH_MEASURE( 1.000000000000000082E-05 ), #277, 'distance_accuracy_value', 'NONE');
#140 = AXIS2_PLACEMENT_3D ( 'NONE', #70, #133, #234 ) ;
#141 = VECTOR ( 'NONE', #9, 1000.000000000000000 ) ;
#142 = CARTESIAN_POINT ( 'NONE',  ( 3.541555040048842018E-14, -1255.305262667903662, -2171.242495824488742 ) ) ;
#143 = ORIENTED_EDGE ( 'NONE', *, *, #618, .T. ) ;
#144 = CARTESIAN_POINT ( 'NONE',  ( -26.99999999999997868, -1255.305262667903662, -2268.242495824488287 ) ) ;
#145 = ADVANCED_FACE ( 'NONE', ( #273 ), #535, .F. ) ;
#146 = ORIENTED_EDGE ( 'NONE', *, *, #43, .T. ) ;
#147 = VERTEX_POINT ( 'NONE', #486 ) ;
#148 = FACE_OUTER_BOUND ( 'NONE', #353, .T. ) ;
#149 = PRODUCT_DEFINITION_FORMATION_WITH_SPECIFIED_SOURCE ( 'ANY', '', #402, .NOT_KNOWN. ) ;
#150 = VECTOR ( 'NONE', #109, 1000.000000000000000 ) ;
#151 = DIRECTION ( 'NONE',  ( 0.000000000000000000, 0.000000000000000000, 1.000000000000000000 ) ) ;
#152 = ADVANCED_FACE ( 'NONE', ( #12 ), #226, .T. ) ;
#153 = PERSON ( 'UNSPECIFIED', 'UNSPECIFIED', 'UNSPECIFIED', ('UNSPECIFIED'), ('UNSPECIFIED'), ('UNSPECIFIED') ) ;
#154 = CYLINDRICAL_SURFACE ( 'NONE', #577, 6.500000000000394351 ) ;
#155 = EDGE_CURVE ( 'NONE', #159, #419, #4, .T. ) ;
#156 = DIRECTION ( 'NONE',  ( 0.000000000000000000, 1.000000000000000000, -0.000000000000000000 ) ) ;
#157 = LINE ( 'NONE', #427, #301 ) ;
#158 = ORIENTED_EDGE ( 'NONE', *, *, #331, .F. ) ;
#159 = VERTEX_POINT ( 'NONE', #320 ) ;
#160 = CC_DESIGN_APPROVAL ( #559, ( #358 ) ) ;
#161 = CARTESIAN_POINT ( 'NONE',  ( 27.00000000000002132, -1255.305262667903662, -2281.242495824489197 ) ) ;
#162 = AXIS2_PLACEMENT_3D ( 'NONE', #274, #222, #263 ) ;
#163 = LOCAL_TIME ( 14, 53, 33.00000000000000000, #289 ) ;
#164 = DIRECTION ( 'NONE',  ( 0.000000000000000000, -0.000000000000000000, 1.000000000000000000 ) ) ;
#165 = DIRECTION ( 'NONE',  ( 0.8660254037844390407, 0.000000000000000000, -0.4999999999999992784 ) ) ;
#166 = DIRECTION ( 'NONE',  ( 0.000000000000000000, 0.000000000000000000, 1.000000000000000000 ) ) ;
#167 = DIRECTION ( 'NONE',  ( 0.000000000000000000, 0.000000000000000000, 1.000000000000000000 ) ) ;
#168 = DIRECTION ( 'NONE',  ( 0.000000000000000000, 1.000000000000000000, 0.000000000000000000 ) ) ;
#169 = CARTESIAN_POINT ( 'NONE',  ( 149.7117235887296260, -1249.305262667903662, -2095.742495824488742 ) ) ;
#170 = VERTEX_POINT ( 'NONE', #8 ) ;
#171 = FACE_BOUND ( 'NONE', #611, .T. ) ;
#172 = VECTOR ( 'NONE', #592, 1000.000000000000000 ) ;
#173 = PRODUCT_DEFINITION_SHAPE ( 'NONE', 'NONE',  #358 ) ;
#174 = EDGE_CURVE ( 'NONE', #75, #170, #10, .T. ) ;
#175 = DATE_AND_TIME ( #593, #551 ) ;
#176 = CARTESIAN_POINT ( 'NONE',  ( 38.28312163513161437, -1255.305262667903662, -2294.742495824488742 ) ) ;
#177 = VERTEX_POINT ( 'NONE', #377 ) ;
#178 = CARTESIAN_POINT ( 'NONE',  ( -26.99999999999997868, -1255.305262667903662, -2274.742495824488742 ) ) ;
#179 = ORIENTED_EDGE ( 'NONE', *, *, #575, .T. ) ;
#180 = COORDINATED_UNIVERSAL_TIME_OFFSET ( 10, 0, .AHEAD. ) ;
#181 = LINE ( 'NONE', #335, #521 ) ;
#182 = ORIENTED_EDGE ( 'NONE', *, *, #233, .F. ) ;
#183 = APPLICATION_PROTOCOL_DEFINITION ( 'international standard', 'config_control_design', 1994, #433 ) ;
#184 = DIRECTION ( 'NONE',  ( 0.000000000000000000, 1.000000000000000000, 0.000000000000000000 ) ) ;
#185 = PERSON_AND_ORGANIZATION ( #153, #388 ) ;
#186 = CARTESIAN_POINT ( 'NONE',  ( -154.9078760114361160, -1249.305262667903662, -2098.742495824488742 ) ) ;
#187 = CARTESIAN_POINT ( 'NONE',  ( 38.28312163513161437, -1255.305262667903662, -2288.742495824489197 ) ) ;
#188 = CYLINDRICAL_SURFACE ( 'NONE', #272, 6.500000000000394351 ) ;
#189 = ORIENTED_EDGE ( 'NONE', *, *, #79, .F. ) ;
#190 = AXIS2_PLACEMENT_3D ( 'NONE', #625, #114, #479 ) ;
#191 = VECTOR ( 'NONE', #199, 1000.000000000000000 ) ;
#192 = AXIS2_PLACEMENT_3D ( 'NONE', #555, #507, #339 ) ;
#193 = CARTESIAN_POINT ( 'NONE',  ( -38.28312163513160016, -1249.305262667903662, -2294.742495824488742 ) ) ;
#194 = ORIENTED_EDGE ( 'NONE', *, *, #371, .T. ) ;
#195 = VERTEX_POINT ( 'NONE', #542 ) ;
#196 = DIRECTION ( 'NONE',  ( 0.000000000000000000, 1.000000000000000000, 0.000000000000000000 ) ) ;
#197 = ORIENTED_EDGE ( 'NONE', *, *, #257, .F. ) ;
#198 = APPROVAL ( #452, 'UNSPECIFIED' ) ;
#199 = DIRECTION ( 'NONE',  ( 0.000000000000000000, 1.000000000000000000, 0.000000000000000000 ) ) ;
#200 = VERTEX_POINT ( 'NONE', #176 ) ;
#201 = ORIENTED_EDGE ( 'NONE', *, *, #257, .T. ) ;
#202 = DIRECTION ( 'NONE',  ( 0.000000000000000000, 1.000000000000000000, 0.000000000000000000 ) ) ;
#203 = LINE ( 'NONE', #413, #417 ) ;
#204 = LOCAL_TIME ( 14, 53, 33.00000000000000000, #506 ) ;
#205 = AXIS2_PLACEMENT_3D ( 'NONE', #543, #477, #619 ) ;
#206 = PLANE ( 'NONE',  #102 ) ;
#207 = EDGE_LOOP ( 'NONE', ( #67, #158, #627, #556 ) ) ;
#208 = EDGE_CURVE ( 'NONE', #567, #89, #621, .T. ) ;
#209 = CARTESIAN_POINT ( 'NONE',  ( -26.99999999999997868, -1249.305262667903662, -2274.742495824488742 ) ) ;
#210 = VERTEX_POINT ( 'NONE', #218 ) ;
#211 = EDGE_CURVE ( 'NONE', #624, #340, #116, .T. ) ;
#212 = CARTESIAN_POINT ( 'NONE',  ( -38.28312163513160016, -1249.305262667903662, -2288.742495824489197 ) ) ;
#213 = LOCAL_TIME ( 14, 53, 33.00000000000000000, #180 ) ;
#214 = CC_DESIGN_PERSON_AND_ORGANIZATION_ASSIGNMENT ( #596, #68, ( #149 ) ) ;
#215 = DIRECTION ( 'NONE',  ( 0.000000000000000000, 1.000000000000000000, 0.000000000000000000 ) ) ;
#216 = AXIS2_PLACEMENT_3D ( 'NONE', #316, #319, #587 ) ;
#217 = CC_DESIGN_APPROVAL ( #128, ( #149 ) ) ;
#218 = CARTESIAN_POINT ( 'NONE',  ( 2.267922368935593006E-14, -1249.305262667903662, -2275.242495824489197 ) ) ;
#219 = DIRECTION ( 'NONE',  ( 0.000000000000000000, 1.000000000000000000, 0.000000000000000000 ) ) ;
#220 = CARTESIAN_POINT ( 'NONE',  ( 149.7117235887296260, -1255.305262667903662, -2089.742495824488742 ) ) ;
#221 = ORIENTED_EDGE ( 'NONE', *, *, #566, .T. ) ;
#222 = DIRECTION ( 'NONE',  ( 0.000000000000000000, 1.000000000000000000, 0.000000000000000000 ) ) ;
#223 = CARTESIAN_POINT ( 'NONE',  ( 2.188320326991013897E-14, -1255.305262667903662, -2262.242495824488287 ) ) ;
#224 = EDGE_CURVE ( 'NONE', #419, #334, #493, .T. ) ;
#225 = APPROVAL_DATE_TIME ( #503, #559 ) ;
#226 = PLANE ( 'NONE',  #324 ) ;
#227 = VECTOR ( 'NONE', #50, 1000.000000000000000 ) ;
#228 = CIRCLE ( 'NONE', #5, 6.500000000000394351 ) ;
#229 = ADVANCED_FACE ( 'NONE', ( #435, #171, #376, #673, #329 ), #545, .T. ) ;
#230 = VERTEX_POINT ( 'NONE', #372 ) ;
#231 = DIRECTION ( 'NONE',  ( -0.000000000000000000, -1.000000000000000000, -0.000000000000000000 ) ) ;
#232 = DATE_TIME_ROLE ( 'classification_date' ) ;
#233 = EDGE_CURVE ( 'NONE', #341, #328, #564, .T. ) ;
#234 = DIRECTION ( 'NONE',  ( 0.000000000000000000, 0.000000000000000000, 1.000000000000000000 ) ) ;
#235 = CARTESIAN_POINT ( 'NONE',  ( -38.28312163513160016, -1255.305262667903662, -2294.742495824488742 ) ) ;
#236 = EDGE_LOOP ( 'NONE', ( #256, #579 ) ) ;
#237 = SECURITY_CLASSIFICATION_LEVEL ( 'unclassified' ) ;
#238 = FACE_OUTER_BOUND ( 'NONE', #605, .T. ) ;
#239 = CIRCLE ( 'NONE', #563, 6.500000000000394351 ) ;
#240 = AXIS2_PLACEMENT_3D ( 'NONE', #634, #480, #103 ) ;
#241 = ORIENTED_EDGE ( 'NONE', *, *, #662, .F. ) ;
#242 = PERSON_AND_ORGANIZATION ( #153, #388 ) ;
#243 = DIRECTION ( 'NONE',  ( 0.000000000000000000, 1.000000000000000000, 0.000000000000000000 ) ) ;
#244 = CARTESIAN_POINT ( 'NONE',  ( -43.47927405783848087, -1249.305262667903662, -2291.742495824489197 ) ) ;
#245 = EDGE_CURVE ( 'NONE', #260, #195, #397, .T. ) ;
#246 = DIRECTION ( 'NONE',  ( 0.000000000000000000, 1.000000000000000000, 0.000000000000000000 ) ) ;
#247 = EDGE_LOOP ( 'NONE', ( #98, #179, #459, #476 ) ) ;
#248 = CIRCLE ( 'NONE', #571, 6.500000000000394351 ) ;
#249 = EDGE_CURVE ( 'NONE', #668, #159, #657, .T. ) ;
#250 = AXIS2_PLACEMENT_3D ( 'NONE', #548, #539, #520 ) ;
#251 = AXIS2_PLACEMENT_3D ( 'NONE', #235, #80, #290 ) ;
#252 = DIRECTION ( 'NONE',  ( 0.000000000000000000, 1.000000000000000000, 0.000000000000000000 ) ) ;
#253 = ADVANCED_FACE ( 'NONE', ( #286 ), #26, .T. ) ;
#254 = DIRECTION ( 'NONE',  ( 0.000000000000000000, 0.000000000000000000, 1.000000000000000000 ) ) ;
#255 = LINE ( 'NONE', #470, #21 ) ;
#256 = ORIENTED_EDGE ( 'NONE', *, *, #378, .F. ) ;
#257 = EDGE_CURVE ( 'NONE', #177, #536, #181, .T. ) ;
#258 = CIRCLE ( 'NONE', #482, 6.500000000000394351 ) ;
#259 = DIRECTION ( 'NONE',  ( 1.000000000000000000, 0.000000000000000000, 0.000000000000000000 ) ) ;
#260 = VERTEX_POINT ( 'NONE', #561 ) ;
#261 = AXIS2_PLACEMENT_3D ( 'NONE', #580, #317, #106 ) ;
#262 = ORIENTED_EDGE ( 'NONE', *, *, #7, .T. ) ;
#263 = DIRECTION ( 'NONE',  ( 0.000000000000000000, 0.000000000000000000, 1.000000000000000000 ) ) ;
#264 = FACE_OUTER_BOUND ( 'NONE', #375, .T. ) ;
#265 = DIRECTION ( 'NONE',  ( -0.8660254037844391517, 0.000000000000000000, -0.4999999999999992228 ) ) ;
#266 = EDGE_LOOP ( 'NONE', ( #294, #385, #648, #44 ) ) ;
#267 = CARTESIAN_POINT ( 'NONE',  ( 43.47927405783823218, -1255.305262667903662, -2291.742495824489197 ) ) ;
#268 = VERTEX_POINT ( 'NONE', #138 ) ;
#269 = CARTESIAN_POINT ( 'NONE',  ( -38.28312163513160016, -1249.305262667903662, -2089.742495824488742 ) ) ;
#270 = VERTEX_POINT ( 'NONE', #186 ) ;
#271 = DIRECTION ( 'NONE',  ( 0.000000000000000000, 1.000000000000000000, 0.000000000000000000 ) ) ;
#272 = AXIS2_PLACEMENT_3D ( 'NONE', #178, #505, #136 ) ;
#273 = FACE_OUTER_BOUND ( 'NONE', #207, .T. ) ;
#274 = CARTESIAN_POINT ( 'NONE',  ( 149.7117235887296260, -1255.305262667903662, -2095.742495824488742 ) ) ;
#275 = ADVANCED_FACE ( 'NONE', ( #238 ), #188, .F. ) ;
#276 = LINE ( 'NONE', #429, #227 ) ;
#277 =( LENGTH_UNIT ( ) NAMED_UNIT ( * ) SI_UNIT ( .MILLI., .METRE. ) );
#278 = FACE_OUTER_BOUND ( 'NONE', #630, .T. ) ;
#279 = CC_DESIGN_DATE_AND_TIME_ASSIGNMENT ( #175, #345, ( #358 ) ) ;
#280 = PERSON_AND_ORGANIZATION ( #153, #388 ) ;
#281 = CARTESIAN_POINT ( 'NONE',  ( 149.7117235887296260, -1255.305262667903662, -2095.742495824488742 ) ) ;
#282 = PERSON_AND_ORGANIZATION_ROLE ( 'classification_officer' ) ;
#283 = DIRECTION ( 'NONE',  ( 0.000000000000000000, 0.000000000000000000, 1.000000000000000000 ) ) ;
#284 = ORIENTED_EDGE ( 'NONE', *, *, #84, .T. ) ;
#285 = EDGE_CURVE ( 'NONE', #328, #341, #69, .T. ) ;
#286 = FACE_OUTER_BOUND ( 'NONE', #667, .T. ) ;
#287 = ORIENTED_EDGE ( 'NONE', *, *, #428, .F. ) ;
#288 = ORIENTED_EDGE ( 'NONE', *, *, #371, .F. ) ;
#289 = COORDINATED_UNIVERSAL_TIME_OFFSET ( 10, 0, .AHEAD. ) ;
#290 = DIRECTION ( 'NONE',  ( -1.000000000000000000, -0.000000000000000000, -0.000000000000000000 ) ) ;
#291 = ORIENTED_EDGE ( 'NONE', *, *, #364, .F. ) ;
#292 = CARTESIAN_POINT ( 'NONE',  ( -38.28312163513160016, -1255.305262667903662, -2294.742495824488742 ) ) ;
#293 = EDGE_CURVE ( 'NONE', #419, #351, #448, .T. ) ;
#294 = ORIENTED_EDGE ( 'NONE', *, *, #43, .F. ) ;
#295 = CARTESIAN_POINT ( 'NONE',  ( 154.9078760114363433, -1249.305262667903662, -2098.742495824488742 ) ) ;
#296 = VERTEX_POINT ( 'NONE', #495 ) ;
#297 = EDGE_CURVE ( 'NONE', #663, #410, #239, .T. ) ;
#298 = DIRECTION ( 'NONE',  ( 0.000000000000000000, 0.000000000000000000, 1.000000000000000000 ) ) ;
#299 = EDGE_LOOP ( 'NONE', ( #118, #465 ) ) ;
#300 = EDGE_LOOP ( 'NONE', ( #31, #45 ) ) ;
#301 = VECTOR ( 'NONE', #365, 1000.000000000000000 ) ;
#302 = CARTESIAN_POINT ( 'NONE',  ( -38.28312163513160016, -1255.305262667903662, -2294.742495824488742 ) ) ;
#303 = EDGE_LOOP ( 'NONE', ( #110, #313, #143, #527, #81, #669, #466, #82 ) ) ;
#304 = ORIENTED_EDGE ( 'NONE', *, *, #249, .F. ) ;
#305 = EDGE_CURVE ( 'NONE', #573, #663, #603, .T. ) ;
#306 = CARTESIAN_POINT ( 'NONE',  ( -26.99999999999997868, -1249.305262667903662, -2274.742495824488742 ) ) ;
#307 = LINE ( 'NONE', #350, #348 ) ;
#308 = FACE_OUTER_BOUND ( 'NONE', #474, .T. ) ;
#309 = ORIENTED_EDGE ( 'NONE', *, *, #420, .F. ) ;
#310 = AXIS2_PLACEMENT_3D ( 'NONE', #62, #315, #47 ) ;
#311 = CIRCLE ( 'NONE', #13, 5.999999999999783284 ) ;
#312 =( NAMED_UNIT ( * ) SI_UNIT ( $, .STERADIAN. ) SOLID_ANGLE_UNIT ( ) );
#313 = ORIENTED_EDGE ( 'NONE', *, *, #581, .T. ) ;
#314 = DIRECTION ( 'NONE',  ( -0.000000000000000000, -1.000000000000000000, -0.000000000000000000 ) ) ;
#315 = DIRECTION ( 'NONE',  ( 0.000000000000000000, 1.000000000000000000, 0.000000000000000000 ) ) ;
#316 = CARTESIAN_POINT ( 'NONE',  ( 3.461952998104261016E-14, -1249.305262667903662, -2164.742495824488742 ) ) ;
#317 = DIRECTION ( 'NONE',  ( 0.000000000000000000, 1.000000000000000000, 0.000000000000000000 ) ) ;
#318 = CC_DESIGN_PERSON_AND_ORGANIZATION_ASSIGNMENT ( #342, #282, ( #66 ) ) ;
#319 = DIRECTION ( 'NONE',  ( 0.000000000000000000, 1.000000000000000000, 0.000000000000000000 ) ) ;
#320 = CARTESIAN_POINT ( 'NONE',  ( 38.28312163513161437, -1249.305262667903662, -2294.742495824488742 ) ) ;
#321 = CARTESIAN_POINT ( 'NONE',  ( 3.461952998104261016E-14, -1255.305262667903662, -2164.742495824488742 ) ) ;
#322 = LINE ( 'NONE', #487, #508 ) ;
#323 = CIRCLE ( 'NONE', #494, 6.500000000000394351 ) ;
#324 = AXIS2_PLACEMENT_3D ( 'NONE', #532, #265, #437 ) ;
#325 = DIRECTION ( 'NONE',  ( 0.000000000000000000, 1.000000000000000000, 0.000000000000000000 ) ) ;
#326 = CYLINDRICAL_SURFACE ( 'NONE', #129, 6.500000000000394351 ) ;
#327 = CARTESIAN_POINT ( 'NONE',  ( 2.188320326991013897E-14, -1255.305262667903662, -2262.242495824488287 ) ) ;
#328 = VERTEX_POINT ( 'NONE', #15 ) ;
#329 = FACE_OUTER_BOUND ( 'NONE', #303, .T. ) ;
#330 = FACE_OUTER_BOUND ( 'NONE', #51, .T. ) ;
#331 = EDGE_CURVE ( 'NONE', #75, #230, #258, .T. ) ;
#332 = ORIENTED_EDGE ( 'NONE', *, *, #658, .T. ) ;
#333 = PERSON_AND_ORGANIZATION_ROLE ( 'creator' ) ;
#334 = VERTEX_POINT ( 'NONE', #244 ) ;
#335 = CARTESIAN_POINT ( 'NONE',  ( -43.47927405783848087, -1255.305262667903662, -2291.742495824489197 ) ) ;
#336 = VECTOR ( 'NONE', #231, 1000.000000000000000 ) ;
#337 = AXIS2_PLACEMENT_3D ( 'NONE', #584, #589, #166 ) ;
#338 = DATE_AND_TIME ( #645, #213 ) ;
#339 = DIRECTION ( 'NONE',  ( 0.000000000000000000, 0.000000000000000000, 1.000000000000000000 ) ) ;
#340 = VERTEX_POINT ( 'NONE', #442 ) ;
#341 = VERTEX_POINT ( 'NONE', #18 ) ;
#342 = PERSON_AND_ORGANIZATION ( #153, #388 ) ;
#343 = ORIENTED_EDGE ( 'NONE', *, *, #566, .F. ) ;
#344 = DIRECTION ( 'NONE',  ( 0.000000000000000000, 0.000000000000000000, 1.000000000000000000 ) ) ;
#345 = DATE_TIME_ROLE ( 'creation_date' ) ;
#346 = EDGE_CURVE ( 'NONE', #341, #268, #594, .T. ) ;
#347 = DIRECTION ( 'NONE',  ( 0.000000000000000000, 1.000000000000000000, 0.000000000000000000 ) ) ;
#348 = VECTOR ( 'NONE', #572, 1000.000000000000000 ) ;
#349 = ADVANCED_FACE ( 'NONE', ( #391 ), #71, .T. ) ;
#350 = CARTESIAN_POINT ( 'NONE',  ( 38.28312163513161437, -1255.305262667903662, -2294.742495824488742 ) ) ;
#351 = VERTEX_POINT ( 'NONE', #454 ) ;
#352 = CARTESIAN_POINT ( 'NONE',  ( -38.28312163513160016, -1255.305262667903662, -2288.742495824489197 ) ) ;
#353 = EDGE_LOOP ( 'NONE', ( #547, #560, #546, #485 ) ) ;
#354 = VERTEX_POINT ( 'NONE', #77 ) ;
#355 = ORIENTED_EDGE ( 'NONE', *, *, #670, .F. ) ;
#356 = LINE ( 'NONE', #144, #436 ) ;
#357 = EDGE_LOOP ( 'NONE', ( #287, #343 ) ) ;
#358 = PRODUCT_DEFINITION ( 'UNKNOWN', '', #149, #632 ) ;
#359 = VECTOR ( 'NONE', #522, 1000.000000000000000 ) ;
#360 = APPROVAL_PERSON_ORGANIZATION ( #591, #128, #122 ) ;
#361 = CARTESIAN_POINT ( 'NONE',  ( -149.7117235887295976, -1255.305262667903662, -2089.742495824488742 ) ) ;
#362 = ORIENTED_EDGE ( 'NONE', *, *, #463, .F. ) ;
#363 = DIRECTION ( 'NONE',  ( 0.000000000000000000, 1.000000000000000000, 0.000000000000000000 ) ) ;
#364 = EDGE_CURVE ( 'NONE', #270, #536, #394, .T. ) ;
#365 = DIRECTION ( 'NONE',  ( 0.000000000000000000, 1.000000000000000000, 0.000000000000000000 ) ) ;
#366 = AXIS2_PLACEMENT_3D ( 'NONE', #306, #202, #298 ) ;
#367 = AXIS2_PLACEMENT_3D ( 'NONE', #187, #156, #609 ) ;
#368 = AXIS2_PLACEMENT_3D ( 'NONE', #361, #96, #39 ) ;
#369 = CARTESIAN_POINT ( 'NONE',  ( 3.461952998104261016E-14, -1249.305262667903662, -2158.242495824488287 ) ) ;
#370 = EDGE_LOOP ( 'NONE', ( #291, #574, #262, #201 ) ) ;
#371 = EDGE_CURVE ( 'NONE', #354, #600, #323, .T. ) ;
#372 = CARTESIAN_POINT ( 'NONE',  ( 2.267922368935593006E-14, -1255.305262667903662, -2275.242495824489197 ) ) ;
#373 = EDGE_LOOP ( 'NONE', ( #241, #288 ) ) ;
#374 = DIRECTION ( 'NONE',  ( 0.000000000000000000, 1.000000000000000000, 0.000000000000000000 ) ) ;
#375 = EDGE_LOOP ( 'NONE', ( #501, #513, #400, #451 ) ) ;
#376 = FACE_BOUND ( 'NONE', #236, .T. ) ;
#377 = CARTESIAN_POINT ( 'NONE',  ( -43.47927405783848087, -1255.305262667903662, -2291.742495824489197 ) ) ;
#378 = EDGE_CURVE ( 'NONE', #170, #210, #228, .T. ) ;
#379 = CARTESIAN_POINT ( 'NONE',  ( -26.99999999999997868, -1249.305262667903662, -2268.242495824488287 ) ) ;
#380 = VECTOR ( 'NONE', #184, 1000.000000000000000 ) ;
#381 = ORIENTED_EDGE ( 'NONE', *, *, #638, .F. ) ;
#382 = DIRECTION ( 'NONE',  ( 0.000000000000000000, 1.000000000000000000, 0.000000000000000000 ) ) ;
#383 = APPROVAL_DATE_TIME ( #338, #128 ) ;
#384 = CARTESIAN_POINT ( 'NONE',  ( 149.7117235887296260, -1255.305262667903662, -2089.742495824488742 ) ) ;
#385 = ORIENTED_EDGE ( 'NONE', *, *, #305, .T. ) ;
#386 = CALENDAR_DATE ( 2025, 17, 8 ) ;
#387 = DIRECTION ( 'NONE',  ( -0.000000000000000000, -1.000000000000000000, -0.000000000000000000 ) ) ;
#388 = ORGANIZATION ( 'UNSPECIFIED', 'UNSPECIFIED', '' ) ;
#389 = PERSON_AND_ORGANIZATION_ROLE ( 'creator' ) ;
#390 = ORIENTED_EDGE ( 'NONE', *, *, #444, .F. ) ;
#391 = FACE_OUTER_BOUND ( 'NONE', #121, .T. ) ;
#392 = CIRCLE ( 'NONE', #643, 5.999999999999783284 ) ;
#393 = CIRCLE ( 'NONE', #367, 6.000000000000227374 ) ;
#394 = LINE ( 'NONE', #649, #172 ) ;
#395 = ADVANCED_FACE ( 'NONE', ( #330 ), #63, .T. ) ;
#396 = APPROVAL_STATUS ( 'not_yet_approved' ) ;
#397 = LINE ( 'NONE', #73, #530 ) ;
#398 = ORIENTED_EDGE ( 'NONE', *, *, #618, .F. ) ;
#399 = CARTESIAN_POINT ( 'NONE',  ( 27.00000000000002132, -1255.305262667903662, -2274.742495824488742 ) ) ;
#400 = ORIENTED_EDGE ( 'NONE', *, *, #652, .T. ) ;
#401 = CLOSED_SHELL ( 'NONE', ( #275, #544, #475, #100, #516, #614, #395, #439, #95, #152, #349, #48, #496, #145, #28, #253, #432, #229 ) ) ;
#402 = PRODUCT ( 'CV03-TR-03_REV_B', 'CV03-TR-03_REV_B', '', ( #636 ) ) ;
#403 = FACE_OUTER_BOUND ( 'NONE', #422, .T. ) ;
#404 = DIRECTION ( 'NONE',  ( 0.000000000000000000, 0.000000000000000000, 1.000000000000000000 ) ) ;
#405 = EDGE_LOOP ( 'NONE', ( #94, #406, #626, #651 ) ) ;
#406 = ORIENTED_EDGE ( 'NONE', *, *, #658, .F. ) ;
#407 = ORIENTED_EDGE ( 'NONE', *, *, #79, .T. ) ;
#408 = DIRECTION ( 'NONE',  ( 0.000000000000000000, 0.000000000000000000, 1.000000000000000000 ) ) ;
#409 = PRODUCT_RELATED_PRODUCT_CATEGORY ( 'detail', '', ( #402 ) ) ;
#410 = VERTEX_POINT ( 'NONE', #30 ) ;
#411 = FACE_OUTER_BOUND ( 'NONE', #247, .T. ) ;
#412 = ORIENTED_EDGE ( 'NONE', *, *, #7, .F. ) ;
#413 = CARTESIAN_POINT ( 'NONE',  ( 154.9078760114363433, -1255.305262667903662, -2098.742495824488742 ) ) ;
#414 = LOCAL_TIME ( 14, 53, 33.00000000000000000, #602 ) ;
#415 = ORIENTED_EDGE ( 'NONE', *, *, #364, .T. ) ;
#416 = AXIS2_PLACEMENT_3D ( 'NONE', #576, #246, #86 ) ;
#417 = VECTOR ( 'NONE', #314, 1000.000000000000000 ) ;
#418 = FACE_BOUND ( 'NONE', #300, .T. ) ;
#419 = VERTEX_POINT ( 'NONE', #193 ) ;
#420 = EDGE_CURVE ( 'NONE', #159, #200, #307, .T. ) ;
#421 = DIRECTION ( 'NONE',  ( 0.000000000000000000, 0.000000000000000000, 1.000000000000000000 ) ) ;
#422 = EDGE_LOOP ( 'NONE', ( #189, #29, #27, #509, #447, #390, #355, #197 ) ) ;
#423 = EDGE_CURVE ( 'NONE', #515, #668, #565, .T. ) ;
#424 = DIRECTION ( 'NONE',  ( 0.000000000000000000, 1.000000000000000000, 0.000000000000000000 ) ) ;
#425 = VECTOR ( 'NONE', #568, 1000.000000000000000 ) ;
#426 = VECTOR ( 'NONE', #382, 1000.000000000000000 ) ;
#427 = CARTESIAN_POINT ( 'NONE',  ( 2.267922368935594899E-14, -1255.305262667903662, -2275.242495824489197 ) ) ;
#428 = EDGE_CURVE ( 'NONE', #661, #268, #595, .T. ) ;
#429 = CARTESIAN_POINT ( 'NONE',  ( 27.00000000000002132, -1255.305262667903662, -2268.242495824488287 ) ) ;
#430 = FACE_OUTER_BOUND ( 'NONE', #108, .T. ) ;
#431 = DIRECTION ( 'NONE',  ( -0.000000000000000000, -1.000000000000000000, -0.000000000000000000 ) ) ;
#432 = ADVANCED_FACE ( 'NONE', ( #418, #604, #83, #464, #403 ), #206, .F. ) ;
#433 = APPLICATION_CONTEXT ( 'configuration controlled 3d designs of mechanical parts and assemblies' ) ;
#434 = CARTESIAN_POINT ( 'NONE',  ( 43.47927405783849508, -1255.305262667903662, -2291.742495824489197 ) ) ;
#435 = FACE_BOUND ( 'NONE', #373, .T. ) ;
#436 = VECTOR ( 'NONE', #615, 1000.000000000000000 ) ;
#437 = DIRECTION ( 'NONE',  ( -0.4999999999999991673, 0.000000000000000000, 0.8660254037844390407 ) ) ;
#438 = VERTEX_POINT ( 'NONE', #525 ) ;
#439 = ADVANCED_FACE ( 'NONE', ( #148 ), #610, .T. ) ;
#440 = CARTESIAN_POINT ( 'NONE',  ( 0.000000000000000000, 0.000000000000000000, 0.000000000000000000 ) ) ;
#441 = EDGE_LOOP ( 'NONE', ( #332, #146 ) ) ;
#442 = CARTESIAN_POINT ( 'NONE',  ( 3.541555040048840124E-14, -1255.305262667903662, -2171.242495824488742 ) ) ;
#443 = DIRECTION ( 'NONE',  ( 0.000000000000000000, 1.000000000000000000, 0.000000000000000000 ) ) ;
#444 = EDGE_CURVE ( 'NONE', #195, #89, #255, .T. ) ;
#445 = APPROVAL_ROLE ( '' ) ;
#446 = DIRECTION ( 'NONE',  ( 0.000000000000000000, 0.000000000000000000, 1.000000000000000000 ) ) ;
#447 = ORIENTED_EDGE ( 'NONE', *, *, #647, .F. ) ;
#448 = LINE ( 'NONE', #292, #336 ) ;
#449 = CIRCLE ( 'NONE', #416, 6.500000000000394351 ) ;
#450 = AXIS2_PLACEMENT_3D ( 'NONE', #321, #325, #59 ) ;
#451 = ORIENTED_EDGE ( 'NONE', *, *, #662, .T. ) ;
#452 = APPROVAL_STATUS ( 'not_yet_approved' ) ;
#453 = DIRECTION ( 'NONE',  ( 0.000000000000000000, 1.000000000000000000, 0.000000000000000000 ) ) ;
#454 = CARTESIAN_POINT ( 'NONE',  ( -38.28312163513160016, -1255.305262667903662, -2294.742495824488742 ) ) ;
#455 = EDGE_CURVE ( 'NONE', #410, #663, #653, .T. ) ;
#456 = AXIS2_PLACEMENT_3D ( 'NONE', #440, #137, #126 ) ;
#457 = CARTESIAN_POINT ( 'NONE',  ( 27.00000000000002132, -1255.305262667903662, -2274.742495824488742 ) ) ;
#458 = CIRCLE ( 'NONE', #162, 5.999999999999783284 ) ;
#459 = ORIENTED_EDGE ( 'NONE', *, *, #483, .T. ) ;
#460 = CIRCLE ( 'NONE', #528, 6.000000000000227374 ) ;
#461 = CC_DESIGN_APPROVAL ( #198, ( #66 ) ) ;
#462 = ORIENTED_EDGE ( 'NONE', *, *, #504, .T. ) ;
#463 = EDGE_CURVE ( 'NONE', #328, #661, #356, .T. ) ;
#464 = FACE_BOUND ( 'NONE', #299, .T. ) ;
#465 = ORIENTED_EDGE ( 'NONE', *, *, #233, .T. ) ;
#466 = ORIENTED_EDGE ( 'NONE', *, *, #249, .T. ) ;
#467 = ORIENTED_EDGE ( 'NONE', *, *, #88, .F. ) ;
#468 = DIRECTION ( 'NONE',  ( 0.000000000000000000, 1.000000000000000000, 0.000000000000000000 ) ) ;
#469 = CARTESIAN_POINT ( 'NONE',  ( -43.47927405783848087, -1255.305262667903662, -2291.742495824489197 ) ) ;
#470 = CARTESIAN_POINT ( 'NONE',  ( -149.7117235887295976, -1255.305262667903662, -2089.742495824488742 ) ) ;
#471 =( GEOMETRIC_REPRESENTATION_CONTEXT ( 3 ) GLOBAL_UNCERTAINTY_ASSIGNED_CONTEXT ( ( #139 ) ) GLOBAL_UNIT_ASSIGNED_CONTEXT ( ( #277, #616, #312 ) ) REPRESENTATION_CONTEXT ( 'NONE', 'WORKASPACE' ) );
#472 = AXIS2_PLACEMENT_3D ( 'NONE', #399, #570, #517 ) ;
#473 = FACE_OUTER_BOUND ( 'NONE', #405, .T. ) ;
#474 = EDGE_LOOP ( 'NONE', ( #92, #650, #499, #665 ) ) ;
#475 = ADVANCED_FACE ( 'NONE', ( #659 ), #154, .F. ) ;
#476 = ORIENTED_EDGE ( 'NONE', *, *, #174, .F. ) ;
#477 = DIRECTION ( 'NONE',  ( 0.000000000000000000, 1.000000000000000000, 0.000000000000000000 ) ) ;
#478 = ORIENTED_EDGE ( 'NONE', *, *, #11, .F. ) ;
#479 = DIRECTION ( 'NONE',  ( 0.000000000000000000, 0.000000000000000000, 1.000000000000000000 ) ) ;
#480 = DIRECTION ( 'NONE',  ( 0.000000000000000000, 1.000000000000000000, 0.000000000000000000 ) ) ;
#481 = APPROVAL_PERSON_ORGANIZATION ( #76, #559, #445 ) ;
#482 = AXIS2_PLACEMENT_3D ( 'NONE', #20, #453, #283 ) ;
#483 = EDGE_CURVE ( 'NONE', #210, #170, #449, .T. ) ;
#484 = DIRECTION ( 'NONE',  ( 0.000000000000000000, 0.000000000000000000, 1.000000000000000000 ) ) ;
#485 = ORIENTED_EDGE ( 'NONE', *, *, #444, .T. ) ;
#486 = CARTESIAN_POINT ( 'NONE',  ( 27.00000000000002132, -1255.305262667903662, -2268.242495824488287 ) ) ;
#487 = CARTESIAN_POINT ( 'NONE',  ( -43.47927405783848087, -1249.305262667903662, -2291.742495824489197 ) ) ;
#488 = CARTESIAN_POINT ( 'NONE',  ( -38.28312163513160016, -1249.305262667903662, -2294.742495824488742 ) ) ;
#489 = LINE ( 'NONE', #267, #150 ) ;
#490 = DIRECTION ( 'NONE',  ( 1.000000000000000000, 0.000000000000000000, -0.000000000000000000 ) ) ;
#491 = EDGE_LOOP ( 'NONE', ( #309, #304, #37, #284 ) ) ;
#492 = APPROVAL_ROLE ( '' ) ;
#493 = CIRCLE ( 'NONE', #190, 6.000000000000227374 ) ;
#494 = AXIS2_PLACEMENT_3D ( 'NONE', #642, #549, #344 ) ;
#495 = CARTESIAN_POINT ( 'NONE',  ( 154.9078760114363433, -1255.305262667903662, -2098.742495824488742 ) ) ;
#496 = ADVANCED_FACE ( 'NONE', ( #473 ), #666, .F. ) ;
#497 = ORIENTED_EDGE ( 'NONE', *, *, #524, .T. ) ;
#498 = COORDINATED_UNIVERSAL_TIME_OFFSET ( 10, 0, .AHEAD. ) ;
#499 = ORIENTED_EDGE ( 'NONE', *, *, #463, .T. ) ;
#500 = DIRECTION ( 'NONE',  ( 0.000000000000000000, 0.000000000000000000, 1.000000000000000000 ) ) ;
#501 = ORIENTED_EDGE ( 'NONE', *, *, #504, .F. ) ;
#502 = ORIENTED_EDGE ( 'NONE', *, *, #569, .T. ) ;
#503 = DATE_AND_TIME ( #386, #163 ) ;
#504 = EDGE_CURVE ( 'NONE', #340, #354, #35, .T. ) ;
#505 = DIRECTION ( 'NONE',  ( 0.000000000000000000, 1.000000000000000000, 0.000000000000000000 ) ) ;
#506 = COORDINATED_UNIVERSAL_TIME_OFFSET ( 10, 0, .AHEAD. ) ;
#507 = DIRECTION ( 'NONE',  ( 0.000000000000000000, 1.000000000000000000, -0.000000000000000000 ) ) ;
#508 = VECTOR ( 'NONE', #52, 1000.000000000000114 ) ;
#509 = ORIENTED_EDGE ( 'NONE', *, *, #569, .F. ) ;
#510 = CYLINDRICAL_SURFACE ( 'NONE', #130, 6.500000000000394351 ) ;
#511 = CARTESIAN_POINT ( 'NONE',  ( 27.00000000000002132, -1249.305262667903662, -2274.742495824488742 ) ) ;
#512 = DIRECTION ( 'NONE',  ( 0.000000000000000000, 0.000000000000000000, 1.000000000000000000 ) ) ;
#513 = ORIENTED_EDGE ( 'NONE', *, *, #211, .F. ) ;
#514 = CYLINDRICAL_SURFACE ( 'NONE', #622, 6.000000000000227374 ) ;
#515 = VERTEX_POINT ( 'NONE', #295 ) ;
#516 = ADVANCED_FACE ( 'NONE', ( #654 ), #514, .T. ) ;
#517 = DIRECTION ( 'NONE',  ( 0.000000000000000000, 0.000000000000000000, 1.000000000000000000 ) ) ;
#518 = AXIS2_PLACEMENT_3D ( 'NONE', #664, #526, #91 ) ;
#519 = VECTOR ( 'NONE', #431, 1000.000000000000000 ) ;
#520 = DIRECTION ( 'NONE',  ( 0.000000000000000000, 0.000000000000000000, 1.000000000000000000 ) ) ;
#521 = VECTOR ( 'NONE', #599, 1000.000000000000114 ) ;
#522 = DIRECTION ( 'NONE',  ( -1.000000000000000000, -0.000000000000000000, -0.000000000000000000 ) ) ;
#523 = ORIENTED_EDGE ( 'NONE', *, *, #420, .T. ) ;
#524 = EDGE_CURVE ( 'NONE', #200, #351, #608, .T. ) ;
#525 = CARTESIAN_POINT ( 'NONE',  ( 43.47927405783823218, -1255.305262667903662, -2291.742495824489197 ) ) ;
#526 = DIRECTION ( 'NONE',  ( 0.000000000000000000, 1.000000000000000000, 0.000000000000000000 ) ) ;
#527 = ORIENTED_EDGE ( 'NONE', *, *, #124, .T. ) ;
#528 = AXIS2_PLACEMENT_3D ( 'NONE', #123, #196, #512 ) ;
#529 = AXIS2_PLACEMENT_3D ( 'NONE', #628, #165, #578 ) ;
#530 = VECTOR ( 'NONE', #387, 1000.000000000000000 ) ;
#531 = DIRECTION ( 'NONE',  ( 0.000000000000000000, 1.000000000000000000, -0.000000000000000000 ) ) ;
#532 = CARTESIAN_POINT ( 'NONE',  ( -43.47927405783848087, -1255.305262667903662, -2291.742495824489197 ) ) ;
#533 = EDGE_LOOP ( 'NONE', ( #467, #462, #194, #32 ) ) ;
#534 = DIRECTION ( 'NONE',  ( 0.000000000000000000, 1.000000000000000000, -0.000000000000000000 ) ) ;
#535 = CYLINDRICAL_SURFACE ( 'NONE', #310, 6.500000000000394351 ) ;
#536 = VERTEX_POINT ( 'NONE', #660 ) ;
#537 = CC_DESIGN_PERSON_AND_ORGANIZATION_ASSIGNMENT ( #280, #333, ( #149 ) ) ;
#538 = CARTESIAN_POINT ( 'NONE',  ( -149.7117235887295976, -1255.305262667903662, -2095.742495824488742 ) ) ;
#539 = DIRECTION ( 'NONE',  ( 0.000000000000000000, 1.000000000000000000, 0.000000000000000000 ) ) ;
#540 = CYLINDRICAL_SURFACE ( 'NONE', #240, 6.500000000000394351 ) ;
#541 = PLANE ( 'NONE',  #529 ) ;
#542 = CARTESIAN_POINT ( 'NONE',  ( -149.7117235887295976, -1255.305262667903662, -2089.742495824488742 ) ) ;
#543 = CARTESIAN_POINT ( 'NONE',  ( 2.188320326991013897E-14, -1255.305262667903662, -2268.742495824488742 ) ) ;
#544 = ADVANCED_FACE ( 'NONE', ( #411 ), #326, .F. ) ;
#545 = PLANE ( 'NONE',  #588 ) ;
#546 = ORIENTED_EDGE ( 'NONE', *, *, #245, .T. ) ;
#547 = ORIENTED_EDGE ( 'NONE', *, *, #208, .F. ) ;
#548 = CARTESIAN_POINT ( 'NONE',  ( 27.00000000000002132, -1255.305262667903662, -2274.742495824488742 ) ) ;
#549 = DIRECTION ( 'NONE',  ( 0.000000000000000000, 1.000000000000000000, 0.000000000000000000 ) ) ;
#550 = CC_DESIGN_DATE_AND_TIME_ASSIGNMENT ( #22, #232, ( #66 ) ) ;
#551 = LOCAL_TIME ( 14, 53, 33.00000000000000000, #498 ) ;
#552 = VECTOR ( 'NONE', #374, 1000.000000000000000 ) ;
#553 = PERSON_AND_ORGANIZATION_ROLE ( 'design_owner' ) ;
#554 = CYLINDRICAL_SURFACE ( 'NONE', #140, 6.500000000000394351 ) ;
#555 = CARTESIAN_POINT ( 'NONE',  ( 38.28312163513161437, -1249.305262667903662, -2288.742495824489197 ) ) ;
#556 = ORIENTED_EDGE ( 'NONE', *, *, #378, .T. ) ;
#557 = CALENDAR_DATE ( 2025, 17, 8 ) ;
#558 = DIRECTION ( 'NONE',  ( 0.000000000000000000, 1.000000000000000000, 0.000000000000000000 ) ) ;
#559 = APPROVAL ( #598, 'UNSPECIFIED' ) ;
#560 = ORIENTED_EDGE ( 'NONE', *, *, #124, .F. ) ;
#561 = CARTESIAN_POINT ( 'NONE',  ( -149.7117235887295976, -1249.305262667903662, -2089.742495824488742 ) ) ;
#562 = CARTESIAN_POINT ( 'NONE',  ( -38.28312163513160016, -1255.305262667903662, -2288.742495824489197 ) ) ;
#563 = AXIS2_PLACEMENT_3D ( 'NONE', #511, #646, #23 ) ;
#564 = CIRCLE ( 'NONE', #261, 6.500000000000394351 ) ;
#565 = LINE ( 'NONE', #93, #425 ) ;
#566 = EDGE_CURVE ( 'NONE', #268, #661, #90, .T. ) ;
#567 = VERTEX_POINT ( 'NONE', #46 ) ;
#568 = DIRECTION ( 'NONE',  ( -0.4999999999999992784, -0.000000000000000000, -0.8660254037844390407 ) ) ;
#569 = EDGE_CURVE ( 'NONE', #296, #438, #6, .T. ) ;
#570 = DIRECTION ( 'NONE',  ( 0.000000000000000000, 1.000000000000000000, 0.000000000000000000 ) ) ;
#571 = AXIS2_PLACEMENT_3D ( 'NONE', #623, #219, #167 ) ;
#572 = DIRECTION ( 'NONE',  ( -0.000000000000000000, -1.000000000000000000, -0.000000000000000000 ) ) ;
#573 = VERTEX_POINT ( 'NONE', #161 ) ;
#574 = ORIENTED_EDGE ( 'NONE', *, *, #581, .F. ) ;
#575 = EDGE_CURVE ( 'NONE', #230, #210, #157, .T. ) ;
#576 = CARTESIAN_POINT ( 'NONE',  ( 2.188320326991013897E-14, -1249.305262667903662, -2268.742495824488742 ) ) ;
#577 = AXIS2_PLACEMENT_3D ( 'NONE', #457, #363, #254 ) ;
#578 = DIRECTION ( 'NONE',  ( -0.4999999999999992784, -0.000000000000000000, -0.8660254037844390407 ) ) ;
#579 = ORIENTED_EDGE ( 'NONE', *, *, #483, .F. ) ;
#580 = CARTESIAN_POINT ( 'NONE',  ( -26.99999999999997868, -1255.305262667903662, -2274.742495824488742 ) ) ;
#581 = EDGE_CURVE ( 'NONE', #334, #270, #322, .T. ) ;
#582 = CARTESIAN_POINT ( 'NONE',  ( 2.188320326991013897E-14, -1255.305262667903662, -2268.742495824488742 ) ) ;
#583 = ORIENTED_EDGE ( 'NONE', *, *, #293, .F. ) ;
#584 = CARTESIAN_POINT ( 'NONE',  ( -149.7117235887295976, -1255.305262667903662, -2095.742495824488742 ) ) ;
#585 = DIRECTION ( 'NONE',  ( 0.000000000000000000, 0.000000000000000000, 1.000000000000000000 ) ) ;
#586 = CIRCLE ( 'NONE', #655, 5.999999999999783284 ) ;
#587 = DIRECTION ( 'NONE',  ( 0.000000000000000000, 0.000000000000000000, 1.000000000000000000 ) ) ;
#588 = AXIS2_PLACEMENT_3D ( 'NONE', #212, #424, #164 ) ;
#589 = DIRECTION ( 'NONE',  ( 0.000000000000000000, 1.000000000000000000, 0.000000000000000000 ) ) ;
#590 = EDGE_CURVE ( 'NONE', #230, #75, #64, .T. ) ;
#591 = PERSON_AND_ORGANIZATION ( #153, #388 ) ;
#592 = DIRECTION ( 'NONE',  ( -0.000000000000000000, -1.000000000000000000, -0.000000000000000000 ) ) ;
#593 = CALENDAR_DATE ( 2025, 17, 8 ) ;
#594 = LINE ( 'NONE', #644, #380 ) ;
#595 = CIRCLE ( 'NONE', #366, 6.500000000000394351 ) ;
#596 = PERSON_AND_ORGANIZATION ( #153, #388 ) ;
#597 = DIRECTION ( 'NONE',  ( 0.000000000000000000, 0.000000000000000000, 1.000000000000000000 ) ) ;
#598 = APPROVAL_STATUS ( 'not_yet_approved' ) ;
#599 = DIRECTION ( 'NONE',  ( -0.4999999999999991673, 0.000000000000000000, 0.8660254037844390407 ) ) ;
#600 = VERTEX_POINT ( 'NONE', #369 ) ;
#601 = ORIENTED_EDGE ( 'NONE', *, *, #423, .F. ) ;
#602 = COORDINATED_UNIVERSAL_TIME_OFFSET ( 10, 0, .AHEAD. ) ;
#603 = LINE ( 'NONE', #134, #56 ) ;
#604 = FACE_BOUND ( 'NONE', #441, .T. ) ;
#605 = EDGE_LOOP ( 'NONE', ( #182, #53, #221, #362 ) ) ;
#606 = CARTESIAN_POINT ( 'NONE',  ( 38.28312163513161437, -1255.305262667903662, -2288.742495824489197 ) ) ;
#607 = EDGE_LOOP ( 'NONE', ( #3, #672 ) ) ;
#608 = LINE ( 'NONE', #302, #359 ) ;
#609 = DIRECTION ( 'NONE',  ( 0.000000000000000000, 0.000000000000000000, -1.000000000000000000 ) ) ;
#610 = PLANE ( 'NONE',  #368 ) ;
#611 = EDGE_LOOP ( 'NONE', ( #85, #60 ) ) ;
#612 = AXIS2_PLACEMENT_3D ( 'NONE', #639, #347, #597 ) ;
#613 = CIRCLE ( 'NONE', #250, 6.500000000000394351 ) ;
#614 = ADVANCED_FACE ( 'NONE', ( #430 ), #541, .T. ) ;
#615 = DIRECTION ( 'NONE',  ( 0.000000000000000000, 1.000000000000000000, 0.000000000000000000 ) ) ;
#616 =( NAMED_UNIT ( * ) PLANE_ANGLE_UNIT ( ) SI_UNIT ( $, .RADIAN. ) );
#617 = ORIENTED_EDGE ( 'NONE', *, *, #631, .F. ) ;
#618 = EDGE_CURVE ( 'NONE', #270, #260, #586, .T. ) ;
#619 = DIRECTION ( 'NONE',  ( 0.000000000000000000, 0.000000000000000000, 1.000000000000000000 ) ) ;
#620 = ORIENTED_EDGE ( 'NONE', *, *, #208, .T. ) ;
#621 = LINE ( 'NONE', #384, #519 ) ;
#622 = AXIS2_PLACEMENT_3D ( 'NONE', #606, #252, #408 ) ;
#623 = CARTESIAN_POINT ( 'NONE',  ( 27.00000000000002132, -1255.305262667903662, -2274.742495824488742 ) ) ;
#624 = VERTEX_POINT ( 'NONE', #633 ) ;
#625 = CARTESIAN_POINT ( 'NONE',  ( -38.28312163513160016, -1249.305262667903662, -2288.742495824489197 ) ) ;
#626 = ORIENTED_EDGE ( 'NONE', *, *, #107, .T. ) ;
#627 = ORIENTED_EDGE ( 'NONE', *, *, #174, .T. ) ;
#628 = CARTESIAN_POINT ( 'NONE',  ( 43.47927405783849508, -1255.305262667903662, -2291.742495824489197 ) ) ;
#629 = CARTESIAN_POINT ( 'NONE',  ( 3.461952998104261016E-14, -1255.305262667903662, -2164.742495824488742 ) ) ;
#630 = EDGE_LOOP ( 'NONE', ( #656, #398, #415, #115 ) ) ;
#631 = EDGE_CURVE ( 'NONE', #567, #515, #311, .T. ) ;
#632 = DESIGN_CONTEXT ( 'detailed design', #24, 'design' ) ;
#633 = CARTESIAN_POINT ( 'NONE',  ( 3.461952998104261016E-14, -1255.305262667903662, -2158.242495824488287 ) ) ;
#634 = CARTESIAN_POINT ( 'NONE',  ( 3.461952998104261016E-14, -1255.305262667903662, -2164.742495824488742 ) ) ;
#635 = AXIS2_PLACEMENT_3D ( 'NONE', #209, #215, #484 ) ;
#636 = MECHANICAL_CONTEXT ( 'NONE', #433, 'mechanical' ) ;
#637 = DIRECTION ( 'NONE',  ( -1.000000000000000000, -0.000000000000000000, 0.000000000000000000 ) ) ;
#638 = EDGE_CURVE ( 'NONE', #668, #438, #489, .T. ) ;
#639 = CARTESIAN_POINT ( 'NONE',  ( -26.99999999999997868, -1255.305262667903662, -2274.742495824488742 ) ) ;
#640 = APPLICATION_PROTOCOL_DEFINITION ( 'international standard', 'config_control_design', 1994, #24 ) ;
#641 = CC_DESIGN_PERSON_AND_ORGANIZATION_ASSIGNMENT ( #185, #553, ( #402 ) ) ;
#642 = CARTESIAN_POINT ( 'NONE',  ( 3.461952998104261016E-14, -1249.305262667903662, -2164.742495824488742 ) ) ;
#643 = AXIS2_PLACEMENT_3D ( 'NONE', #538, #534, #61 ) ;
#644 = CARTESIAN_POINT ( 'NONE',  ( -26.99999999999997868, -1255.305262667903662, -2281.242495824489197 ) ) ;
#645 = CALENDAR_DATE ( 2025, 17, 8 ) ;
#646 = DIRECTION ( 'NONE',  ( 0.000000000000000000, 1.000000000000000000, 0.000000000000000000 ) ) ;
#647 = EDGE_CURVE ( 'NONE', #89, #296, #458, .T. ) ;
#648 = ORIENTED_EDGE ( 'NONE', *, *, #297, .T. ) ;
#649 = CARTESIAN_POINT ( 'NONE',  ( -154.9078760114361160, -1255.305262667903662, -2098.742495824488742 ) ) ;
#650 = ORIENTED_EDGE ( 'NONE', *, *, #285, .F. ) ;
#651 = ORIENTED_EDGE ( 'NONE', *, *, #455, .T. ) ;
#652 = EDGE_CURVE ( 'NONE', #624, #600, #104, .T. ) ;
#653 = CIRCLE ( 'NONE', #518, 6.500000000000394351 ) ;
#654 = FACE_OUTER_BOUND ( 'NONE', #491, .T. ) ;
#655 = AXIS2_PLACEMENT_3D ( 'NONE', #49, #531, #58 ) ;
#656 = ORIENTED_EDGE ( 'NONE', *, *, #245, .F. ) ;
#657 = CIRCLE ( 'NONE', #192, 6.000000000000227374 ) ;
#658 = EDGE_CURVE ( 'NONE', #147, #573, #248, .T. ) ;
#659 = FACE_OUTER_BOUND ( 'NONE', #266, .T. ) ;
#660 = CARTESIAN_POINT ( 'NONE',  ( -154.9078760114361160, -1255.305262667903662, -2098.742495824488742 ) ) ;
#661 = VERTEX_POINT ( 'NONE', #379 ) ;
#662 = EDGE_CURVE ( 'NONE', #600, #354, #34, .T. ) ;
#663 = VERTEX_POINT ( 'NONE', #112 ) ;
#664 = CARTESIAN_POINT ( 'NONE',  ( 27.00000000000002132, -1249.305262667903662, -2274.742495824488742 ) ) ;
#665 = ORIENTED_EDGE ( 'NONE', *, *, #428, .T. ) ;
#666 = CYLINDRICAL_SURFACE ( 'NONE', #472, 6.500000000000394351 ) ;
#667 = EDGE_LOOP ( 'NONE', ( #33, #523, #497, #583 ) ) ;
#668 = VERTEX_POINT ( 'NONE', #117 ) ;
#669 = ORIENTED_EDGE ( 'NONE', *, *, #423, .T. ) ;
#670 = EDGE_CURVE ( 'NONE', #536, #195, #392, .T. ) ;
#671 = DIRECTION ( 'NONE',  ( 0.000000000000000000, 0.000000000000000000, 1.000000000000000000 ) ) ;
#672 = ORIENTED_EDGE ( 'NONE', *, *, #590, .T. ) ;
#673 = FACE_BOUND ( 'NONE', #357, .T. ) ;
ENDSEC;
END-ISO-10303-21;
