ISO-10303-21;
HEADER;
FILE_DESCRIPTION (( 'STEP AP203' ),
    '1' );
FILE_NAME ('CV03-TR-09_REV_B_c943badf6f1e4e8da637d91d8bc9579c.tmp.step',
    '2026-07-11T06:44:11',
    ( '' ),
    ( '' ),
    'SwSTEP 2.0',
    'SolidWorks 2025',
    '' );
FILE_SCHEMA (( 'CONFIG_CONTROL_DESIGN' ));
ENDSEC;

DATA;
#1 = APPROVAL_STATUS ( 'not_yet_approved' ) ;
#2 = LINE ( 'NONE', #235, #275 ) ;
#3 = EDGE_LOOP ( 'NONE', ( #369, #142, #15, #375, #570, #74, #191, #207, #326, #544, #83, #247, #453, #20, #132, #442, #551, #390, #39, #557 ) ) ;
#4 = VERTEX_POINT ( 'NONE', #626 ) ;
#5 = ORIENTED_EDGE ( 'NONE', *, *, #195, .F. ) ;
#6 = DIRECTION ( 'NONE',  ( 0.8660254037844384856, -7.582964277521802125E-17, 0.5000000000000003331 ) ) ;
#7 = ORIENTED_EDGE ( 'NONE', *, *, #155, .F. ) ;
#8 = EDGE_CURVE ( 'NONE', #211, #630, #615, .T. ) ;
#9 = ORIENTED_EDGE ( 'NONE', *, *, #286, .T. ) ;
#10 = ORIENTED_EDGE ( 'NONE', *, *, #187, .T. ) ;
#11 = CARTESIAN_POINT ( 'NONE',  ( -598.4528877786126486, -1174.305262667903889, -1210.499999999999773 ) ) ;
#12 = ORIENTED_EDGE ( 'NONE', *, *, #718, .F. ) ;
#13 = ORIENTED_EDGE ( 'NONE', *, *, #426, .F. ) ;
#14 = EDGE_LOOP ( 'NONE', ( #581, #443, #300, #565 ) ) ;
#15 = ORIENTED_EDGE ( 'NONE', *, *, #710, .T. ) ;
#16 = DATE_AND_TIME ( #234, #668 ) ;
#17 = ORIENTED_EDGE ( 'NONE', *, *, #8, .F. ) ;
#18 = CARTESIAN_POINT ( 'NONE',  ( -615.7733958543011568, -1170.305262667903889, -1200.499999999999773 ) ) ;
#19 = CARTESIAN_POINT ( 'NONE',  ( -675.4366260035415053, -1170.305262667903889, -1213.160254037844425 ) ) ;
#20 = ORIENTED_EDGE ( 'NONE', *, *, #8, .T. ) ;
#21 = CARTESIAN_POINT ( 'NONE',  ( -643.1919801413451978, -1170.305262667903889, -1259.009618943233136 ) ) ;
#22 = EDGE_LOOP ( 'NONE', ( #251, #322, #42, #154 ) ) ;
#23 = DIRECTION ( 'NONE',  ( 0.8660254037844384856, -7.582964277521800892E-17, 0.5000000000000003331 ) ) ;
#24 = AXIS2_PLACEMENT_3D ( 'NONE', #430, #738, #6 ) ;
#25 = VERTEX_POINT ( 'NONE', #739 ) ;
#26 = AXIS2_PLACEMENT_3D ( 'NONE', #651, #221, #491 ) ;
#27 = VECTOR ( 'NONE', #320, 1000.000000000000227 ) ;
#28 = EDGE_CURVE ( 'NONE', #498, #25, #436, .T. ) ;
#29 = CARTESIAN_POINT ( 'NONE',  ( -640.6919801413451978, -1170.305262667903889, -1263.339745962155348 ) ) ;
#30 = ORIENTED_EDGE ( 'NONE', *, *, #252, .F. ) ;
#31 = CARTESIAN_POINT ( 'NONE',  ( -642.6919801413450841, -1170.305262667903889, -1259.875644347017669 ) ) ;
#32 = ORIENTED_EDGE ( 'NONE', *, *, #649, .F. ) ;
#33 = DIRECTION ( 'NONE',  ( -5.551115123125783935E-17, -1.000000000000000000, -5.551115123125783935E-17 ) ) ;
#34 = DIRECTION ( 'NONE',  ( -5.551115123125783935E-17, -1.000000000000000000, -5.551115123125783935E-17 ) ) ;
#35 = CARTESIAN_POINT ( 'NONE',  ( -642.6919801413450841, -1170.305262667903889, -1259.875644347017669 ) ) ;
#36 = LINE ( 'NONE', #510, #43 ) ;
#37 = ADVANCED_FACE ( 'NONE', ( #681 ), #432, .T. ) ;
#38 = ORIENTED_EDGE ( 'NONE', *, *, #395, .F. ) ;
#39 = ORIENTED_EDGE ( 'NONE', *, *, #162, .T. ) ;
#40 = VECTOR ( 'NONE', #701, 1000.000000000000227 ) ;
#41 = CARTESIAN_POINT ( 'NONE',  ( -670.6064989846189519, -1174.305262667903889, -1211.526279441628503 ) ) ;
#42 = ORIENTED_EDGE ( 'NONE', *, *, #445, .T. ) ;
#43 = VECTOR ( 'NONE', #325, 1000.000000000000000 ) ;
#44 = CARTESIAN_POINT ( 'NONE',  ( -633.0939039299913702, -1170.305262667903889, -1270.499999999999545 ) ) ;
#45 =( LENGTH_UNIT ( ) NAMED_UNIT ( * ) SI_UNIT ( .MILLI., .METRE. ) );
#46 = DIRECTION ( 'NONE',  ( 5.551115123125783935E-17, 1.000000000000000000, 5.551115123125783935E-17 ) ) ;
#47 = ADVANCED_BREP_SHAPE_REPRESENTATION ( 'CV03-TR-09_REV_B_c943badf6f1e4e8da637d91d8bc9579c.tmp', ( #714, #26 ), #595 ) ;
#48 = VERTEX_POINT ( 'NONE', #676 ) ;
#49 = CARTESIAN_POINT ( 'NONE',  ( -641.1919801413451978, -1174.305262667903889, -1262.473720558370815 ) ) ;
#50 = ORIENTED_EDGE ( 'NONE', *, *, #445, .F. ) ;
#51 = CARTESIAN_POINT ( 'NONE',  ( -575.3588770110274027, -1174.305262667903889, -1270.499999999999773 ) ) ;
#52 = VECTOR ( 'NONE', #711, 1000.000000000000000 ) ;
#53 = EDGE_CURVE ( 'NONE', #289, #211, #262, .T. ) ;
#54 = LINE ( 'NONE', #121, #472 ) ;
#55 = VECTOR ( 'NONE', #99, 1000.000000000000000 ) ;
#56 = CARTESIAN_POINT ( 'NONE',  ( -633.0939039299913702, -1174.305262667903889, -1270.499999999999545 ) ) ;
#57 = DIRECTION ( 'NONE',  ( 0.5000000000000034417, 0.000000000000000000, -0.8660254037844367092 ) ) ;
#58 =( NAMED_UNIT ( * ) SI_UNIT ( $, .STERADIAN. ) SOLID_ANGLE_UNIT ( ) );
#59 = FACE_OUTER_BOUND ( 'NONE', #109, .T. ) ;
#60 = ORIENTED_EDGE ( 'NONE', *, *, #28, .T. ) ;
#61 = EDGE_CURVE ( 'NONE', #448, #315, #139, .T. ) ;
#62 = PERSON_AND_ORGANIZATION ( #675, #230 ) ;
#63 = CARTESIAN_POINT ( 'NONE',  ( -671.9725243884034853, -1170.305262667903889, -1211.160254037844197 ) ) ;
#64 = CIRCLE ( 'NONE', #501, 1.000000000000000888 ) ;
#65 = LOCAL_TIME ( 16, 44, 11.00000000000000000, #537 ) ;
#66 = AXIS2_PLACEMENT_3D ( 'NONE', #360, #610, #460 ) ;
#67 = VECTOR ( 'NONE', #384, 1000.000000000000000 ) ;
#68 = SECURITY_CLASSIFICATION_LEVEL ( 'unclassified' ) ;
#69 = DIRECTION ( 'NONE',  ( 1.000000000000000000, 0.000000000000000000, 0.000000000000000000 ) ) ;
#70 = DIRECTION ( 'NONE',  ( 1.000000000000000000, 0.000000000000000000, 0.000000000000000000 ) ) ;
#71 = ADVANCED_FACE ( 'NONE', ( #87 ), #316, .T. ) ;
#72 = CALENDAR_DATE ( 2026, 11, 7 ) ;
#73 = CARTESIAN_POINT ( 'NONE',  ( -643.5580055451295038, -1174.305262667903889, -1260.375644347017442 ) ) ;
#74 = ORIENTED_EDGE ( 'NONE', *, *, #655, .T. ) ;
#75 = SHAPE_DEFINITION_REPRESENTATION ( #265, #47 ) ;
#76 = CARTESIAN_POINT ( 'NONE',  ( -647.5221071602677512, -1174.305262667903889, -1261.509618943233363 ) ) ;
#77 = ORIENTED_EDGE ( 'NONE', *, *, #129, .T. ) ;
#78 = ORIENTED_EDGE ( 'NONE', *, *, #343, .F. ) ;
#79 = LOCAL_TIME ( 16, 44, 11.00000000000000000, #731 ) ;
#80 = VECTOR ( 'NONE', #378, 1000.000000000000114 ) ;
#81 = ORIENTED_EDGE ( 'NONE', *, *, #98, .T. ) ;
#82 = CARTESIAN_POINT ( 'NONE',  ( -673.5084227732650106, -1170.305262667903889, -1200.499999999999773 ) ) ;
#83 = ORIENTED_EDGE ( 'NONE', *, *, #155, .T. ) ;
#84 = ORIENTED_EDGE ( 'NONE', *, *, #625, .F. ) ;
#85 = ADVANCED_FACE ( 'NONE', ( #420 ), #124, .F. ) ;
#86 = CARTESIAN_POINT ( 'NONE',  ( -671.9725243884034853, -1174.305262667903889, -1211.160254037844197 ) ) ;
#87 = FACE_OUTER_BOUND ( 'NONE', #394, .T. ) ;
#88 = ADVANCED_FACE ( 'NONE', ( #274 ), #455, .F. ) ;
#89 = ORIENTED_EDGE ( 'NONE', *, *, #279, .T. ) ;
#90 = ORIENTED_EDGE ( 'NONE', *, *, #291, .F. ) ;
#91 = DIRECTION ( 'NONE',  ( 5.551115123125783935E-17, 1.000000000000000000, 5.551115123125783935E-17 ) ) ;
#92 = ORIENTED_EDGE ( 'NONE', *, *, #585, .T. ) ;
#93 = CARTESIAN_POINT ( 'NONE',  ( -641.1919801413451978, -1170.305262667903889, -1262.473720558370815 ) ) ;
#94 = CYLINDRICAL_SURFACE ( 'NONE', #670, 6.666666666666598573 ) ;
#95 = CARTESIAN_POINT ( 'NONE',  ( -633.0939039299913702, -1170.305262667903889, -1270.499999999999545 ) ) ;
#96 = ORIENTED_EDGE ( 'NONE', *, *, #246, .T. ) ;
#97 = FACE_OUTER_BOUND ( 'NONE', #593, .T. ) ;
#98 = EDGE_CURVE ( 'NONE', #543, #4, #449, .T. ) ;
#99 = DIRECTION ( 'NONE',  ( 5.551115123125783935E-17, 1.000000000000000000, 5.551115123125783935E-17 ) ) ;
#100 = CARTESIAN_POINT ( 'NONE',  ( -641.1919801413451978, -1174.305262667903889, -1262.473720558370815 ) ) ;
#101 = DIRECTION ( 'NONE',  ( 5.551115123125783935E-17, 1.000000000000000000, 5.551115123125783935E-17 ) ) ;
#102 = AXIS2_PLACEMENT_3D ( 'NONE', #568, #755, #257 ) ;
#103 = CARTESIAN_POINT ( 'NONE',  ( -669.1064989846189519, -1174.305262667903889, -1214.124355652982103 ) ) ;
#104 = CLOSED_SHELL ( 'NONE', ( #271, #37, #145, #183, #233, #347, #88, #735, #331, #439, #298, #489, #772, #492, #526, #356, #638, #85, #589, #71, #467, #287 ) ) ;
#105 = AXIS2_PLACEMENT_3D ( 'NONE', #722, #674, #131 ) ;
#106 = CARTESIAN_POINT ( 'NONE',  ( -644.0580055451296175, -1170.305262667903889, -1259.509618943233136 ) ) ;
#107 = PRODUCT ( 'CV03-TR-09_REV_B_c943badf6f1e4e8da637d91d8bc9579c.tmp', 'CV03-TR-09_REV_B_c943badf6f1e4e8da637d91d8bc9579c.tmp', '', ( #737 ) ) ;
#108 = DIRECTION ( 'NONE',  ( 1.000000000000000000, 0.000000000000000000, 0.000000000000000000 ) ) ;
#109 = EDGE_LOOP ( 'NONE', ( #624, #481, #328, #133 ) ) ;
#110 = CARTESIAN_POINT ( 'NONE',  ( -615.7733958543011568, -1174.305262667903889, -1220.499999999999545 ) ) ;
#111 = EDGE_CURVE ( 'NONE', #536, #635, #278, .T. ) ;
#112 = DIRECTION ( 'NONE',  ( 6.567039700323920603E-17, 1.000000000000000000, 3.791482138760680428E-17 ) ) ;
#113 = CARTESIAN_POINT ( 'NONE',  ( -673.5084227732650106, -1170.305262667903889, -1200.499999999999773 ) ) ;
#114 = CARTESIAN_POINT ( 'NONE',  ( -669.1064989846189519, -1170.305262667903889, -1214.124355652982103 ) ) ;
#115 = LINE ( 'NONE', #774, #167 ) ;
#116 = VECTOR ( 'NONE', #696, 1000.000000000000114 ) ;
#117 = LINE ( 'NONE', #765, #52 ) ;
#118 = LINE ( 'NONE', #231, #708 ) ;
#119 = EDGE_CURVE ( 'NONE', #725, #374, #392, .T. ) ;
#120 = PERSON_AND_ORGANIZATION_ROLE ( 'classification_officer' ) ;
#121 = CARTESIAN_POINT ( 'NONE',  ( -575.3588770110274027, -1170.305262667903889, -1270.499999999999773 ) ) ;
#122 = FACE_OUTER_BOUND ( 'NONE', #127, .T. ) ;
#123 = VECTOR ( 'NONE', #578, 1000.000000000000000 ) ;
#124 = PLANE ( 'NONE',  #66 ) ;
#125 = LINE ( 'NONE', #11, #650 ) ;
#126 = ORIENTED_EDGE ( 'NONE', *, *, #678, .F. ) ;
#127 = EDGE_LOOP ( 'NONE', ( #569, #313, #450, #84 ) ) ;
#128 = ORIENTED_EDGE ( 'NONE', *, *, #484, .F. ) ;
#129 = EDGE_CURVE ( 'NONE', #315, #566, #260, .T. ) ;
#130 = CC_DESIGN_PERSON_AND_ORGANIZATION_ASSIGNMENT ( #665, #120, ( #647 ) ) ;
#131 = DIRECTION ( 'NONE',  ( 1.000000000000000000, 0.000000000000000000, 0.000000000000000000 ) ) ;
#132 = ORIENTED_EDGE ( 'NONE', *, *, #277, .T. ) ;
#133 = ORIENTED_EDGE ( 'NONE', *, *, #335, .F. ) ;
#134 = CARTESIAN_POINT ( 'NONE',  ( -644.0580055451296175, -1174.305262667903889, -1259.509618943233136 ) ) ;
#135 = EDGE_LOOP ( 'NONE', ( #297, #342, #77, #355 ) ) ;
#136 = AXIS2_PLACEMENT_3D ( 'NONE', #63, #686, #193 ) ;
#137 = ORIENTED_EDGE ( 'NONE', *, *, #549, .F. ) ;
#138 = VECTOR ( 'NONE', #653, 1000.000000000000227 ) ;
#139 = CIRCLE ( 'NONE', #283, 1.000000000000000888 ) ;
#140 = EDGE_CURVE ( 'NONE', #374, #635, #202, .T. ) ;
#141 = CIRCLE ( 'NONE', #744, 1.000000000000000888 ) ;
#142 = ORIENTED_EDGE ( 'NONE', *, *, #98, .F. ) ;
#143 = CARTESIAN_POINT ( 'NONE',  ( -640.5939039299912565, -1170.305262667903889, -1257.509618943232908 ) ) ;
#144 = ORIENTED_EDGE ( 'NONE', *, *, #205, .F. ) ;
#145 = ADVANCED_FACE ( 'NONE', ( #751 ), #339, .T. ) ;
#146 = ORIENTED_EDGE ( 'NONE', *, *, #246, .F. ) ;
#147 = DIRECTION ( 'NONE',  ( 5.551115123125783935E-17, 1.000000000000000000, 5.551115123125783935E-17 ) ) ;
#148 = ORIENTED_EDGE ( 'NONE', *, *, #612, .T. ) ;
#149 = DIRECTION ( 'NONE',  ( 0.000000000000000000, 0.000000000000000000, 1.000000000000000000 ) ) ;
#150 = ORIENTED_EDGE ( 'NONE', *, *, #418, .F. ) ;
#151 = LINE ( 'NONE', #642, #705 ) ;
#152 = FACE_OUTER_BOUND ( 'NONE', #258, .T. ) ;
#153 = LOCAL_TIME ( 16, 44, 11.00000000000000000, #553 ) ;
#154 = ORIENTED_EDGE ( 'NONE', *, *, #514, .T. ) ;
#155 = EDGE_CURVE ( 'NONE', #312, #186, #222, .T. ) ;
#156 = CARTESIAN_POINT ( 'NONE',  ( -641.1919801413451978, -1174.305262667903889, -1263.473720558370815 ) ) ;
#157 = CARTESIAN_POINT ( 'NONE',  ( -668.5084227732650106, -1170.305262667903889, -1209.160254037843970 ) ) ;
#158 = DIRECTION ( 'NONE',  ( 0.000000000000000000, 0.000000000000000000, -1.000000000000000000 ) ) ;
#159 = CARTESIAN_POINT ( 'NONE',  ( -642.0580055451296175, -1170.305262667903889, -1262.973720558370815 ) ) ;
#160 = LINE ( 'NONE', #658, #373 ) ;
#161 = VERTEX_POINT ( 'NONE', #513 ) ;
#162 = EDGE_CURVE ( 'NONE', #550, #306, #423, .T. ) ;
#163 = CARTESIAN_POINT ( 'NONE',  ( -669.9725243884033716, -1170.305262667903889, -1214.624355652982103 ) ) ;
#164 = CIRCLE ( 'NONE', #604, 1.000000000000000888 ) ;
#165 = VECTOR ( 'NONE', #314, 1000.000000000000114 ) ;
#166 = VECTOR ( 'NONE', #333, 1000.000000000000114 ) ;
#167 = VECTOR ( 'NONE', #57, 999.9999999999998863 ) ;
#168 = DIRECTION ( 'NONE',  ( -1.000000000000000000, 5.551115123125783935E-17, 3.081487911019578733E-33 ) ) ;
#169 = EDGE_CURVE ( 'NONE', #435, #630, #637, .T. ) ;
#170 = ORIENTED_EDGE ( 'NONE', *, *, #111, .F. ) ;
#171 = DIRECTION ( 'NONE',  ( 0.8660254037844385966, -7.582964277521803357E-17, 0.5000000000000003331 ) ) ;
#172 = ORIENTED_EDGE ( 'NONE', *, *, #779, .F. ) ;
#173 = LINE ( 'NONE', #654, #337 ) ;
#174 = DIRECTION ( 'NONE',  ( -1.000000000000000000, 0.000000000000000000, 3.845925372767038294E-15 ) ) ;
#175 = DIRECTION ( 'NONE',  ( 5.551115123125783935E-17, 1.000000000000000000, 5.551115123125783935E-17 ) ) ;
#176 = APPROVAL ( #310, 'UNSPECIFIED' ) ;
#177 = APPROVAL_PERSON_ORGANIZATION ( #726, #640, #429 ) ;
#178 = DIRECTION ( 'NONE',  ( 0.000000000000000000, 0.000000000000000000, -1.000000000000000000 ) ) ;
#179 = PERSON_AND_ORGANIZATION_ROLE ( 'creator' ) ;
#180 = DIRECTION ( 'NONE',  ( -5.551115123125783935E-17, -1.000000000000000000, -5.551115123125783935E-17 ) ) ;
#181 = ORIENTED_EDGE ( 'NONE', *, *, #532, .F. ) ;
#182 = LINE ( 'NONE', #76, #296 ) ;
#183 = ADVANCED_FACE ( 'NONE', ( #152 ), #458, .F. ) ;
#184 = DIRECTION ( 'NONE',  ( 0.8660254037844384856, -7.582964277521802125E-17, 0.5000000000000003331 ) ) ;
#185 = CARTESIAN_POINT ( 'NONE',  ( -642.0580055451296175, -1174.305262667903889, -1262.973720558370815 ) ) ;
#186 = VERTEX_POINT ( 'NONE', #163 ) ;
#187 = EDGE_CURVE ( 'NONE', #522, #4, #761, .T. ) ;
#188 = APPROVAL_DATE_TIME ( #660, #640 ) ;
#189 = CARTESIAN_POINT ( 'NONE',  ( -641.1919801413451978, -1170.305262667903889, -1263.473720558370815 ) ) ;
#190 = ORIENTED_EDGE ( 'NONE', *, *, #662, .F. ) ;
#191 = ORIENTED_EDGE ( 'NONE', *, *, #252, .T. ) ;
#192 = APPROVAL_ROLE ( '' ) ;
#193 = DIRECTION ( 'NONE',  ( -0.5000000000000014433, 2.680894482587031957E-30, 0.8660254037844378194 ) ) ;
#194 = ORIENTED_EDGE ( 'NONE', *, *, #284, .F. ) ;
#195 = EDGE_CURVE ( 'NONE', #468, #211, #36, .T. ) ;
#196 = DIRECTION ( 'NONE',  ( -0.5000000000000014433, 9.984020831703428911E-31, 0.8660254037844378194 ) ) ;
#197 = AXIS2_PLACEMENT_3D ( 'NONE', #661, #46, #465 ) ;
#198 = ORIENTED_EDGE ( 'NONE', *, *, #129, .F. ) ;
#199 = LOCAL_TIME ( 16, 44, 11.00000000000000000, #433 ) ;
#200 = VECTOR ( 'NONE', #196, 1000.000000000000114 ) ;
#201 = CARTESIAN_POINT ( 'NONE',  ( -643.5580055451295038, -1170.305262667903889, -1260.375644347017442 ) ) ;
#202 = LINE ( 'NONE', #330, #463 ) ;
#203 = CYLINDRICAL_SURFACE ( 'NONE', #102, 19.99999999999979394 ) ;
#204 = DIRECTION ( 'NONE',  ( 0.8660254037844385966, -7.582964277521803357E-17, 0.5000000000000003331 ) ) ;
#205 = EDGE_CURVE ( 'NONE', #563, #161, #717, .T. ) ;
#206 = ORIENTED_EDGE ( 'NONE', *, *, #286, .F. ) ;
#207 = ORIENTED_EDGE ( 'NONE', *, *, #111, .T. ) ;
#208 = CARTESIAN_POINT ( 'NONE',  ( -633.0939039299913702, -1170.305262667903889, -1270.499999999999545 ) ) ;
#209 = LINE ( 'NONE', #159, #67 ) ;
#210 = VECTOR ( 'NONE', #305, 1000.000000000000227 ) ;
#211 = VERTEX_POINT ( 'NONE', #633 ) ;
#212 = DIRECTION ( 'NONE',  ( 1.000000000000000000, 0.000000000000000000, 0.000000000000000000 ) ) ;
#213 = CARTESIAN_POINT ( 'NONE',  ( -641.1919801413451978, -1170.305262667903889, -1262.473720558370815 ) ) ;
#214 = DIRECTION ( 'NONE',  ( 0.000000000000000000, 0.000000000000000000, -1.000000000000000000 ) ) ;
#215 = DIRECTION ( 'NONE',  ( 0.8660254037844378194, -7.582964277521807055E-17, 0.5000000000000014433 ) ) ;
#216 = CARTESIAN_POINT ( 'NONE',  ( -575.3588770110274027, -1170.305262667903889, -1270.499999999999773 ) ) ;
#217 = CC_DESIGN_PERSON_AND_ORGANIZATION_ASSIGNMENT ( #62, #721, ( #107 ) ) ;
#218 = ORIENTED_EDGE ( 'NONE', *, *, #366, .F. ) ;
#219 = DIRECTION ( 'NONE',  ( 5.551115123125783935E-17, 1.000000000000000000, 5.551115123125783935E-17 ) ) ;
#220 = VECTOR ( 'NONE', #174, 1000.000000000000000 ) ;
#221 = DIRECTION ( 'NONE',  ( 0.000000000000000000, 0.000000000000000000, 1.000000000000000000 ) ) ;
#222 = CIRCLE ( 'NONE', #769, 1.000000000000000888 ) ;
#223 = CARTESIAN_POINT ( 'NONE',  ( -633.0939039299913702, -1170.305262667903889, -1270.499999999999545 ) ) ;
#224 = LINE ( 'NONE', #402, #410 ) ;
#225 = LINE ( 'NONE', #113, #777 ) ;
#226 = APPROVAL ( #249, 'UNSPECIFIED' ) ;
#227 = CARTESIAN_POINT ( 'NONE',  ( -669.1064989846189519, -1170.305262667903889, -1214.124355652982103 ) ) ;
#228 = AXIS2_PLACEMENT_3D ( 'NONE', #106, #215, #521 ) ;
#229 = CARTESIAN_POINT ( 'NONE',  ( -641.1919801413451978, -1170.305262667903889, -1262.473720558370815 ) ) ;
#230 = ORGANIZATION ( 'UNSPECIFIED', 'UNSPECIFIED', '' ) ;
#231 = CARTESIAN_POINT ( 'NONE',  ( -615.7733958543011568, -1174.305262667903889, -1270.499999999999773 ) ) ;
#232 = VECTOR ( 'NONE', #280, 1000.000000000000114 ) ;
#233 = ADVANCED_FACE ( 'NONE', ( #584 ), #754, .T. ) ;
#234 = CALENDAR_DATE ( 2026, 11, 7 ) ;
#235 = CARTESIAN_POINT ( 'NONE',  ( -668.6064989846189519, -1170.305262667903889, -1214.990381056766637 ) ) ;
#236 = CARTESIAN_POINT ( 'NONE',  ( -645.0221071602677512, -1170.305262667903889, -1265.839745962155575 ) ) ;
#237 = APPROVAL_ROLE ( '' ) ;
#238 = CARTESIAN_POINT ( 'NONE',  ( -669.9725243884033716, -1174.305262667903889, -1214.624355652982103 ) ) ;
#239 = CC_DESIGN_DATE_AND_TIME_ASSIGNMENT ( #370, #478, ( #385 ) ) ;
#240 = DIRECTION ( 'NONE',  ( 6.567039700323920603E-17, 1.000000000000000000, 3.791482138760680428E-17 ) ) ;
#241 = ORIENTED_EDGE ( 'NONE', *, *, #426, .T. ) ;
#242 = COORDINATED_UNIVERSAL_TIME_OFFSET ( 10, 0, .AHEAD. ) ;
#243 = FACE_OUTER_BOUND ( 'NONE', #644, .T. ) ;
#244 = CIRCLE ( 'NONE', #730, 1.000000000000000888 ) ;
#245 = EDGE_LOOP ( 'NONE', ( #128, #663, #667, #741, #13, #352, #485, #32, #267, #190, #261, #546, #437, #126, #616, #683, #218, #702, #90, #9 ) ) ;
#246 = EDGE_CURVE ( 'NONE', #364, #161, #209, .T. ) ;
#247 = ORIENTED_EDGE ( 'NONE', *, *, #625, .T. ) ;
#248 = ORIENTED_EDGE ( 'NONE', *, *, #53, .F. ) ;
#249 = APPROVAL_STATUS ( 'not_yet_approved' ) ;
#250 = CARTESIAN_POINT ( 'NONE',  ( -668.5084227732650106, -1174.305262667903889, -1209.160254037843970 ) ) ;
#251 = ORIENTED_EDGE ( 'NONE', *, *, #140, .F. ) ;
#252 = EDGE_CURVE ( 'NONE', #566, #536, #268, .T. ) ;
#253 = ORIENTED_EDGE ( 'NONE', *, *, #169, .T. ) ;
#254 = DIRECTION ( 'NONE',  ( 5.551115123125783935E-17, 1.000000000000000000, 5.551115123125783935E-17 ) ) ;
#255 = ORIENTED_EDGE ( 'NONE', *, *, #585, .F. ) ;
#256 = DIRECTION ( 'NONE',  ( 0.8660254037844384856, -7.582964277521800892E-17, 0.5000000000000003331 ) ) ;
#257 = DIRECTION ( 'NONE',  ( 0.000000000000000000, 0.000000000000000000, -1.000000000000000000 ) ) ;
#258 = EDGE_LOOP ( 'NONE', ( #146, #694, #327, #736 ) ) ;
#259 = VECTOR ( 'NONE', #147, 1000.000000000000000 ) ;
#260 = LINE ( 'NONE', #396, #55 ) ;
#261 = ORIENTED_EDGE ( 'NONE', *, *, #693, .F. ) ;
#262 = CIRCLE ( 'NONE', #358, 1.000000000000000888 ) ;
#263 = AXIS2_PLACEMENT_3D ( 'NONE', #692, #101, #149 ) ;
#264 = ORIENTED_EDGE ( 'NONE', *, *, #162, .F. ) ;
#265 = PRODUCT_DEFINITION_SHAPE ( 'NONE', 'NONE',  #385 ) ;
#266 = CARTESIAN_POINT ( 'NONE',  ( -569.5853743191311196, -1170.305262667903889, -1260.499999999999773 ) ) ;
#267 = ORIENTED_EDGE ( 'NONE', *, *, #560, .F. ) ;
#268 = LINE ( 'NONE', #388, #682 ) ;
#269 = EDGE_LOOP ( 'NONE', ( #194, #431, #579, #414 ) ) ;
#270 = LINE ( 'NONE', #753, #412 ) ;
#271 = ADVANCED_FACE ( 'NONE', ( #757 ), #285, .T. ) ;
#272 = DIRECTION ( 'NONE',  ( 6.567039700323920603E-17, 1.000000000000000000, 3.791482138760680428E-17 ) ) ;
#273 = CARTESIAN_POINT ( 'NONE',  ( -640.6919801413451978, -1170.305262667903889, -1263.339745962155348 ) ) ;
#274 = FACE_OUTER_BOUND ( 'NONE', #451, .T. ) ;
#275 = VECTOR ( 'NONE', #558, 1000.000000000000000 ) ;
#276 = CARTESIAN_POINT ( 'NONE',  ( -598.4528877786126486, -1174.305262667903889, -1210.499999999999773 ) ) ;
#277 = EDGE_CURVE ( 'NONE', #630, #664, #768, .T. ) ;
#278 = LINE ( 'NONE', #44, #27 ) ;
#279 = EDGE_CURVE ( 'NONE', #561, #690, #508, .T. ) ;
#280 = DIRECTION ( 'NONE',  ( 0.8660254037844384856, -7.582964277521800892E-17, 0.5000000000000003331 ) ) ;
#281 = CARTESIAN_POINT ( 'NONE',  ( -670.6064989846189519, -1170.305262667903889, -1211.526279441628503 ) ) ;
#282 = DIRECTION ( 'NONE',  ( 5.551115123125783935E-17, 1.000000000000000000, 5.551115123125783935E-17 ) ) ;
#283 = AXIS2_PLACEMENT_3D ( 'NONE', #687, #380, #70 ) ;
#284 = EDGE_CURVE ( 'NONE', #690, #306, #54, .T. ) ;
#285 = CYLINDRICAL_SURFACE ( 'NONE', #608, 0.9999999999998898659 ) ;
#286 = EDGE_CURVE ( 'NONE', #425, #522, #591, .T. ) ;
#287 = ADVANCED_FACE ( 'NONE', ( #477 ), #348, .T. ) ;
#288 = DIRECTION ( 'NONE',  ( -5.551115123125783935E-17, -1.000000000000000000, -5.551115123125783935E-17 ) ) ;
#289 = VERTEX_POINT ( 'NONE', #403 ) ;
#290 = CARTESIAN_POINT ( 'NONE',  ( -598.4528877786126486, -1170.305262667903889, -1210.499999999999773 ) ) ;
#291 = EDGE_CURVE ( 'NONE', #425, #571, #476, .T. ) ;
#292 = AXIS2_PLACEMENT_3D ( 'NONE', #281, #180, #178 ) ;
#293 = APPLICATION_PROTOCOL_DEFINITION ( 'international standard', 'config_control_design', 1994, #461 ) ;
#294 = VECTOR ( 'NONE', #775, 1000.000000000000227 ) ;
#295 = LINE ( 'NONE', #781, #210 ) ;
#296 = VECTOR ( 'NONE', #603, 1000.000000000000114 ) ;
#297 = ORIENTED_EDGE ( 'NONE', *, *, #723, .F. ) ;
#298 = ADVANCED_FACE ( 'NONE', ( #598 ), #462, .T. ) ;
#299 = CARTESIAN_POINT ( 'NONE',  ( -671.1064989846190656, -1174.305262667903889, -1210.660254037844197 ) ) ;
#300 = ORIENTED_EDGE ( 'NONE', *, *, #343, .T. ) ;
#301 = ORIENTED_EDGE ( 'NONE', *, *, #649, .T. ) ;
#302 = VERTEX_POINT ( 'NONE', #417 ) ;
#303 = LINE ( 'NONE', #82, #622 ) ;
#304 = CARTESIAN_POINT ( 'NONE',  ( -615.7733958543011568, -1174.305262667903889, -1200.499999999999773 ) ) ;
#305 = DIRECTION ( 'NONE',  ( -0.5000000000000002220, 0.000000000000000000, 0.8660254037844384856 ) ) ;
#306 = VERTEX_POINT ( 'NONE', #707 ) ;
#307 = CC_DESIGN_PERSON_AND_ORGANIZATION_ASSIGNMENT ( #365, #677, ( #766 ) ) ;
#308 = ORIENTED_EDGE ( 'NONE', *, *, #669, .F. ) ;
#309 = CIRCLE ( 'NONE', #756, 19.99999999999979394 ) ;
#310 = APPROVAL_STATUS ( 'not_yet_approved' ) ;
#311 = CARTESIAN_POINT ( 'NONE',  ( -640.6919801413451978, -1174.305262667903889, -1263.339745962155348 ) ) ;
#312 = VERTEX_POINT ( 'NONE', #713 ) ;
#313 = ORIENTED_EDGE ( 'NONE', *, *, #662, .T. ) ;
#314 = DIRECTION ( 'NONE',  ( -0.5000000000000014433, 2.680894482587031957E-30, 0.8660254037844378194 ) ) ;
#315 = VERTEX_POINT ( 'NONE', #413 ) ;
#316 = PLANE ( 'NONE',  #336 ) ;
#317 = EDGE_CURVE ( 'NONE', #161, #559, #709, .T. ) ;
#318 = VERTEX_POINT ( 'NONE', #409 ) ;
#319 = CARTESIAN_POINT ( 'NONE',  ( -638.0939039299913702, -1174.305262667903889, -1261.839745962155121 ) ) ;
#320 = DIRECTION ( 'NONE',  ( -0.5000000000000002220, 0.000000000000000000, 0.8660254037844384856 ) ) ;
#321 = AXIS2_PLACEMENT_3D ( 'NONE', #213, #34, #576 ) ;
#322 = ORIENTED_EDGE ( 'NONE', *, *, #119, .F. ) ;
#323 = EDGE_CURVE ( 'NONE', #25, #377, #173, .T. ) ;
#324 = CARTESIAN_POINT ( 'NONE',  ( -575.3588770110274027, -1170.305262667903889, -1263.833333333333030 ) ) ;
#325 = DIRECTION ( 'NONE',  ( 5.551115123125783935E-17, 1.000000000000000000, 5.551115123125783935E-17 ) ) ;
#326 = ORIENTED_EDGE ( 'NONE', *, *, #514, .F. ) ;
#327 = ORIENTED_EDGE ( 'NONE', *, *, #723, .T. ) ;
#328 = ORIENTED_EDGE ( 'NONE', *, *, #758, .T. ) ;
#329 = LINE ( 'NONE', #636, #80 ) ;
#330 = CARTESIAN_POINT ( 'NONE',  ( -666.0084227732650106, -1170.305262667903889, -1213.490381056766410 ) ) ;
#331 = ADVANCED_FACE ( 'NONE', ( #764 ), #405, .T. ) ;
#332 = LINE ( 'NONE', #273, #259 ) ;
#333 = DIRECTION ( 'NONE',  ( 0.8660254037844384856, -7.582964277521800892E-17, 0.5000000000000003331 ) ) ;
#334 = AXIS2_PLACEMENT_3D ( 'NONE', #31, #748, #446 ) ;
#335 = EDGE_CURVE ( 'NONE', #381, #550, #115, .T. ) ;
#336 = AXIS2_PLACEMENT_3D ( 'NONE', #236, #724, #184 ) ;
#337 = VECTOR ( 'NONE', #175, 1000.000000000000000 ) ;
#338 = CARTESIAN_POINT ( 'NONE',  ( -672.9366260035415053, -1170.305262667903889, -1217.490381056766864 ) ) ;
#339 = CYLINDRICAL_SURFACE ( 'NONE', #321, 0.9999999999998898659 ) ;
#340 = LINE ( 'NONE', #56, #138 ) ;
#341 = DIRECTION ( 'NONE',  ( -0.5000000000000002220, 0.000000000000000000, 0.8660254037844384856 ) ) ;
#342 = ORIENTED_EDGE ( 'NONE', *, *, #61, .T. ) ;
#343 = EDGE_CURVE ( 'NONE', #498, #664, #225, .T. ) ;
#344 = DIRECTION ( 'NONE',  ( 5.551115123125783935E-17, 1.000000000000000000, 5.551115123125783935E-17 ) ) ;
#345 = DIRECTION ( 'NONE',  ( 1.000000000000000000, 0.000000000000000000, 0.000000000000000000 ) ) ;
#346 = DIRECTION ( 'NONE',  ( 0.5000000000000003331, 2.031849154396015725E-17, -0.8660254037844384856 ) ) ;
#347 = ADVANCED_FACE ( 'NONE', ( #471 ), #594, .F. ) ;
#348 = PLANE ( 'NONE',  #554 ) ;
#349 = DIRECTION ( 'NONE',  ( 5.551115123125783935E-17, 1.000000000000000000, 5.551115123125783935E-17 ) ) ;
#350 = DIRECTION ( 'NONE',  ( 0.000000000000000000, 0.000000000000000000, -1.000000000000000000 ) ) ;
#351 = EDGE_CURVE ( 'NONE', #690, #611, #118, .T. ) ;
#352 = ORIENTED_EDGE ( 'NONE', *, *, #28, .F. ) ;
#353 = APPROVAL_DATE_TIME ( #361, #226 ) ;
#354 = FACE_OUTER_BOUND ( 'NONE', #3, .T. ) ;
#355 = ORIENTED_EDGE ( 'NONE', *, *, #655, .F. ) ;
#356 = ADVANCED_FACE ( 'NONE', ( #59 ), #534, .F. ) ;
#357 = VECTOR ( 'NONE', #434, 1000.000000000000000 ) ;
#358 = AXIS2_PLACEMENT_3D ( 'NONE', #742, #240, #441 ) ;
#359 = DIRECTION ( 'NONE',  ( 6.567039700323920603E-17, 1.000000000000000000, 3.791482138760680428E-17 ) ) ;
#360 = CARTESIAN_POINT ( 'NONE',  ( -575.3588770110274027, -1170.305262667903889, -1270.499999999999773 ) ) ;
#361 = DATE_AND_TIME ( #780, #65 ) ;
#362 = DIRECTION ( 'NONE',  ( 0.000000000000000000, 5.551115123125783935E-17, -1.000000000000000000 ) ) ;
#363 = EDGE_LOOP ( 'NONE', ( #7, #728, #628, #148 ) ) ;
#364 = VERTEX_POINT ( 'NONE', #185 ) ;
#365 = PERSON_AND_ORGANIZATION ( #675, #230 ) ;
#366 = EDGE_CURVE ( 'NONE', #364, #448, #372, .T. ) ;
#367 = CARTESIAN_POINT ( 'NONE',  ( -669.1064989846189519, -1174.305262667903889, -1214.124355652982103 ) ) ;
#368 = VERTEX_POINT ( 'NONE', #424 ) ;
#369 = ORIENTED_EDGE ( 'NONE', *, *, #669, .T. ) ;
#370 = DATE_AND_TIME ( #72, #199 ) ;
#371 = VECTOR ( 'NONE', #572, 1000.000000000000000 ) ;
#372 = LINE ( 'NONE', #134, #200 ) ;
#373 = VECTOR ( 'NONE', #349, 1000.000000000000000 ) ;
#374 = VERTEX_POINT ( 'NONE', #679 ) ;
#375 = ORIENTED_EDGE ( 'NONE', *, *, #205, .T. ) ;
#376 = AXIS2_PLACEMENT_3D ( 'NONE', #290, #652, #555 ) ;
#377 = VERTEX_POINT ( 'NONE', #18 ) ;
#378 = DIRECTION ( 'NONE',  ( -0.5000000000000014433, 2.680894482587031957E-30, 0.8660254037844378194 ) ) ;
#379 = ORIENTED_EDGE ( 'NONE', *, *, #284, .T. ) ;
#380 = DIRECTION ( 'NONE',  ( 6.567039700323835554E-17, 1.000000000000000000, 3.791482138760825874E-17 ) ) ;
#381 = VERTEX_POINT ( 'NONE', #623 ) ;
#382 = DIRECTION ( 'NONE',  ( -5.551115123125783935E-17, -1.000000000000000000, -5.551115123125783935E-17 ) ) ;
#383 = ORIENTED_EDGE ( 'NONE', *, *, #195, .T. ) ;
#384 = DIRECTION ( 'NONE',  ( 5.551115123125783935E-17, 1.000000000000000000, 5.551115123125783935E-17 ) ) ;
#385 = PRODUCT_DEFINITION ( 'UNKNOWN', '', #766, #466 ) ;
#386 = DIRECTION ( 'NONE',  ( 5.551115123125783935E-17, 1.000000000000000000, 5.551115123125783935E-17 ) ) ;
#387 = AXIS2_PLACEMENT_3D ( 'NONE', #103, #533, #528 ) ;
#388 = CARTESIAN_POINT ( 'NONE',  ( -647.5221071602677512, -1170.305262667903889, -1261.509618943233363 ) ) ;
#389 = AXIS2_PLACEMENT_3D ( 'NONE', #499, #480, #564 ) ;
#390 = ORIENTED_EDGE ( 'NONE', *, *, #335, .T. ) ;
#391 = CARTESIAN_POINT ( 'NONE',  ( -666.0084227732650106, -1170.305262667903889, -1213.490381056766410 ) ) ;
#392 = LINE ( 'NONE', #704, #606 ) ;
#393 = CARTESIAN_POINT ( 'NONE',  ( -569.5853743191311196, -1174.305262667903889, -1260.499999999999773 ) ) ;
#394 = EDGE_LOOP ( 'NONE', ( #206, #92, #81, #746 ) ) ;
#395 = EDGE_CURVE ( 'NONE', #664, #377, #303, .T. ) ;
#396 = CARTESIAN_POINT ( 'NONE',  ( -643.1919801413451978, -1170.305262667903889, -1259.009618943233136 ) ) ;
#397 = LINE ( 'NONE', #523, #40 ) ;
#398 = CARTESIAN_POINT ( 'NONE',  ( -638.0939039299913702, -1170.305262667903889, -1261.839745962155121 ) ) ;
#399 = CIRCLE ( 'NONE', #778, 19.99999999999979394 ) ;
#400 = CIRCLE ( 'NONE', #387, 1.000000000000000888 ) ;
#401 = AXIS2_PLACEMENT_3D ( 'NONE', #208, #503, #515 ) ;
#402 = CARTESIAN_POINT ( 'NONE',  ( -569.5853743191311196, -1170.305262667903889, -1260.499999999999773 ) ) ;
#403 = CARTESIAN_POINT ( 'NONE',  ( -671.4725243884034853, -1170.305262667903889, -1212.026279441628503 ) ) ;
#404 = DIRECTION ( 'NONE',  ( 1.000000000000000000, 0.000000000000000000, 0.000000000000000000 ) ) ;
#405 = CYLINDRICAL_SURFACE ( 'NONE', #685, 0.9999999999998898659 ) ;
#406 = EDGE_CURVE ( 'NONE', #618, #561, #125, .T. ) ;
#407 = PRODUCT_RELATED_PRODUCT_CATEGORY ( 'detail', '', ( #107 ) ) ;
#408 = FACE_OUTER_BOUND ( 'NONE', #14, .T. ) ;
#409 = CARTESIAN_POINT ( 'NONE',  ( -669.1064989846189519, -1174.305262667903889, -1215.124355652982103 ) ) ;
#410 = VECTOR ( 'NONE', #344, 1000.000000000000000 ) ;
#411 = VECTOR ( 'NONE', #256, 1000.000000000000114 ) ;
#412 = VECTOR ( 'NONE', #386, 1000.000000000000000 ) ;
#413 = CARTESIAN_POINT ( 'NONE',  ( -643.1919801413451978, -1174.305262667903889, -1259.009618943233136 ) ) ;
#414 = ORIENTED_EDGE ( 'NONE', *, *, #750, .F. ) ;
#415 = CALENDAR_DATE ( 2026, 11, 7 ) ;
#416 = ORIENTED_EDGE ( 'NONE', *, *, #678, .T. ) ;
#417 = CARTESIAN_POINT ( 'NONE',  ( -633.0939039299913702, -1170.305262667903889, -1270.499999999999545 ) ) ;
#418 = EDGE_CURVE ( 'NONE', #368, #536, #666, .T. ) ;
#419 = CARTESIAN_POINT ( 'NONE',  ( -673.5084227732650106, -1174.305262667903889, -1200.499999999999773 ) ) ;
#420 = FACE_OUTER_BOUND ( 'NONE', #269, .T. ) ;
#421 = VECTOR ( 'NONE', #577, 1000.000000000000114 ) ;
#422 = PERSON_AND_ORGANIZATION ( #675, #230 ) ;
#423 = CIRCLE ( 'NONE', #263, 6.666666666666598573 ) ;
#424 = CARTESIAN_POINT ( 'NONE',  ( -640.5939039299912565, -1174.305262667903889, -1257.509618943232908 ) ) ;
#425 = VERTEX_POINT ( 'NONE', #311 ) ;
#426 = EDGE_CURVE ( 'NONE', #25, #618, #399, .T. ) ;
#427 = EDGE_CURVE ( 'NONE', #315, #368, #182, .T. ) ;
#428 = ORIENTED_EDGE ( 'NONE', *, *, #575, .T. ) ;
#429 = APPROVAL_ROLE ( '' ) ;
#430 = CARTESIAN_POINT ( 'NONE',  ( -675.4366260035415053, -1170.305262667903889, -1213.160254037844425 ) ) ;
#431 = ORIENTED_EDGE ( 'NONE', *, *, #351, .T. ) ;
#432 = CYLINDRICAL_SURFACE ( 'NONE', #389, 0.9999999999998898659 ) ;
#433 = COORDINATED_UNIVERSAL_TIME_OFFSET ( 10, 0, .AHEAD. ) ;
#434 = DIRECTION ( 'NONE',  ( -5.551115123125783935E-17, -1.000000000000000000, -5.551115123125783935E-17 ) ) ;
#435 = VERTEX_POINT ( 'NONE', #250 ) ;
#436 = LINE ( 'NONE', #304, #518 ) ;
#437 = ORIENTED_EDGE ( 'NONE', *, *, #119, .T. ) ;
#438 = VECTOR ( 'NONE', #601, 1000.000000000000114 ) ;
#439 = ADVANCED_FACE ( 'NONE', ( #122 ), #617, .F. ) ;
#440 = DIRECTION ( 'NONE',  ( 0.5000000000000034417, 0.000000000000000000, -0.8660254037844367092 ) ) ;
#441 = DIRECTION ( 'NONE',  ( 1.000000000000000000, 0.000000000000000000, 0.000000000000000000 ) ) ;
#442 = ORIENTED_EDGE ( 'NONE', *, *, #395, .T. ) ;
#443 = ORIENTED_EDGE ( 'NONE', *, *, #767, .T. ) ;
#444 = FACE_OUTER_BOUND ( 'NONE', #733, .T. ) ;
#445 = EDGE_CURVE ( 'NONE', #725, #48, #2, .T. ) ;
#446 = DIRECTION ( 'NONE',  ( 0.000000000000000000, 0.000000000000000000, -1.000000000000000000 ) ) ;
#447 = CARTESIAN_POINT ( 'NONE',  ( -633.0939039299913702, -1174.305262667903889, -1270.499999999999545 ) ) ;
#448 = VERTEX_POINT ( 'NONE', #73 ) ;
#449 = LINE ( 'NONE', #689, #166 ) ;
#450 = ORIENTED_EDGE ( 'NONE', *, *, #779, .T. ) ;
#451 = EDGE_LOOP ( 'NONE', ( #150, #416, #495, #170 ) ) ;
#452 = LINE ( 'NONE', #639, #535 ) ;
#453 = ORIENTED_EDGE ( 'NONE', *, *, #53, .T. ) ;
#454 = AXIS2_PLACEMENT_3D ( 'NONE', #338, #346, #587 ) ;
#455 = PLANE ( 'NONE',  #506 ) ;
#456 = CC_DESIGN_PERSON_AND_ORGANIZATION_ASSIGNMENT ( #422, #482, ( #766 ) ) ;
#457 = CARTESIAN_POINT ( 'NONE',  ( -641.1919801413451978, -1170.305262667903889, -1263.473720558370815 ) ) ;
#458 = PLANE ( 'NONE',  #228 ) ;
#459 = LINE ( 'NONE', #86, #165 ) ;
#460 = DIRECTION ( 'NONE',  ( -1.000000000000000000, 0.000000000000000000, 3.845925372767037505E-15 ) ) ;
#461 = APPLICATION_CONTEXT ( 'configuration controlled 3d designs of mechanical parts and assemblies' ) ;
#462 = CYLINDRICAL_SURFACE ( 'NONE', #292, 0.9999999999998898659 ) ;
#463 = VECTOR ( 'NONE', #641, 1000.000000000000000 ) ;
#464 = CARTESIAN_POINT ( 'NONE',  ( -668.6064989846189519, -1174.305262667903889, -1214.990381056766637 ) ) ;
#465 = DIRECTION ( 'NONE',  ( 0.000000000000000000, 0.000000000000000000, 1.000000000000000000 ) ) ;
#466 = DESIGN_CONTEXT ( 'detailed design', #759, 'design' ) ;
#467 = ADVANCED_FACE ( 'NONE', ( #354 ), #493, .F. ) ;
#468 = VERTEX_POINT ( 'NONE', #299 ) ;
#469 = LINE ( 'NONE', #525, #294 ) ;
#470 = CARTESIAN_POINT ( 'NONE',  ( -645.0221071602677512, -1174.305262667903889, -1265.839745962155575 ) ) ;
#471 = FACE_OUTER_BOUND ( 'NONE', #494, .T. ) ;
#472 = VECTOR ( 'NONE', #771, 1000.000000000000000 ) ;
#473 = CIRCLE ( 'NONE', #516, 1.000000000000000888 ) ;
#474 = EDGE_CURVE ( 'NONE', #563, #571, #671, .T. ) ;
#475 = APPROVAL_DATE_TIME ( #16, #176 ) ;
#476 = CIRCLE ( 'NONE', #519, 1.000000000000000888 ) ;
#477 = FACE_OUTER_BOUND ( 'NONE', #245, .T. ) ;
#478 = DATE_TIME_ROLE ( 'creation_date' ) ;
#479 = PLANE ( 'NONE',  #24 ) ;
#480 = DIRECTION ( 'NONE',  ( -5.551115123125783935E-17, -1.000000000000000000, -5.551115123125783935E-17 ) ) ;
#481 = ORIENTED_EDGE ( 'NONE', *, *, #406, .T. ) ;
#482 = PERSON_AND_ORGANIZATION_ROLE ( 'creator' ) ;
#483 = LINE ( 'NONE', #727, #116 ) ;
#484 = EDGE_CURVE ( 'NONE', #611, #522, #295, .T. ) ;
#485 = ORIENTED_EDGE ( 'NONE', *, *, #767, .F. ) ;
#486 = VECTOR ( 'NONE', #282, 1000.000000000000000 ) ;
#487 = CARTESIAN_POINT ( 'NONE',  ( -615.7733958543011568, -1174.305262667903889, -1220.499999999999545 ) ) ;
#488 = EDGE_LOOP ( 'NONE', ( #172, #511, #383, #248 ) ) ;
#489 = ADVANCED_FACE ( 'NONE', ( #548 ), #479, .F. ) ;
#490 = EDGE_LOOP ( 'NONE', ( #137, #12, #50, #729 ) ) ;
#491 = DIRECTION ( 'NONE',  ( 1.000000000000000000, 0.000000000000000000, 0.000000000000000000 ) ) ;
#492 = ADVANCED_FACE ( 'NONE', ( #243 ), #609, .F. ) ;
#493 = PLANE ( 'NONE',  #582 ) ;
#494 = EDGE_LOOP ( 'NONE', ( #198, #556, #712, #30 ) ) ;
#495 = ORIENTED_EDGE ( 'NONE', *, *, #140, .T. ) ;
#496 = ORIENTED_EDGE ( 'NONE', *, *, #573, .T. ) ;
#497 = DIRECTION ( 'NONE',  ( -5.551115123125783935E-17, -1.000000000000000000, -5.551115123125783935E-17 ) ) ;
#498 = VERTEX_POINT ( 'NONE', #419 ) ;
#499 = CARTESIAN_POINT ( 'NONE',  ( -641.1919801413451978, -1170.305262667903889, -1262.473720558370815 ) ) ;
#500 = EDGE_LOOP ( 'NONE', ( #672, #241, #496, #181 ) ) ;
#501 = AXIS2_PLACEMENT_3D ( 'NONE', #41, #749, #212 ) ;
#502 = EDGE_CURVE ( 'NONE', #725, #318, #141, .T. ) ;
#503 = DIRECTION ( 'NONE',  ( 0.8660254037844385966, -7.582964277521803357E-17, 0.5000000000000003331 ) ) ;
#504 = AXIS2_PLACEMENT_3D ( 'NONE', #592, #171, #596 ) ;
#505 = VERTEX_POINT ( 'NONE', #238 ) ;
#506 = AXIS2_PLACEMENT_3D ( 'NONE', #95, #204, #643 ) ;
#507 = DIRECTION ( 'NONE',  ( 6.567039700323835554E-17, 1.000000000000000000, 3.791482138760825874E-17 ) ) ;
#508 = CIRCLE ( 'NONE', #197, 6.666666666666598573 ) ;
#509 = CARTESIAN_POINT ( 'NONE',  ( -615.7733958543011568, -1170.305262667903889, -1220.499999999999545 ) ) ;
#510 = CARTESIAN_POINT ( 'NONE',  ( -671.1064989846190656, -1170.305262667903889, -1210.660254037844197 ) ) ;
#511 = ORIENTED_EDGE ( 'NONE', *, *, #560, .T. ) ;
#512 = CARTESIAN_POINT ( 'NONE',  ( -671.4725243884034853, -1174.305262667903889, -1212.026279441628503 ) ) ;
#513 = CARTESIAN_POINT ( 'NONE',  ( -642.0580055451296175, -1170.305262667903889, -1262.973720558370815 ) ) ;
#514 = EDGE_CURVE ( 'NONE', #48, #635, #483, .T. ) ;
#515 = DIRECTION ( 'NONE',  ( -0.5000000000000002220, 0.000000000000000000, 0.8660254037844384856 ) ) ;
#516 = AXIS2_PLACEMENT_3D ( 'NONE', #114, #112, #404 ) ;
#517 = DIRECTION ( 'NONE',  ( 0.8660254037844384856, -7.582964277521800892E-17, 0.5000000000000003331 ) ) ;
#518 = VECTOR ( 'NONE', #734, 1000.000000000000000 ) ;
#519 = AXIS2_PLACEMENT_3D ( 'NONE', #49, #720, #345 ) ;
#520 = CARTESIAN_POINT ( 'NONE',  ( -675.4366260035415053, -1174.305262667903889, -1213.160254037844425 ) ) ;
#521 = DIRECTION ( 'NONE',  ( -0.5000000000000014433, 9.984020831703430662E-31, 0.8660254037844378194 ) ) ;
#522 = VERTEX_POINT ( 'NONE', #319 ) ;
#523 = CARTESIAN_POINT ( 'NONE',  ( -633.0939039299913702, -1170.305262667903889, -1270.499999999999545 ) ) ;
#524 = DIRECTION ( 'NONE',  ( -5.551115123125783935E-17, -1.000000000000000000, -5.551115123125783935E-17 ) ) ;
#525 = CARTESIAN_POINT ( 'NONE',  ( -633.0939039299913702, -1174.305262667903889, -1270.499999999999545 ) ) ;
#526 = ADVANCED_FACE ( 'NONE', ( #745 ), #203, .T. ) ;
#527 = DIRECTION ( 'NONE',  ( 0.000000000000000000, 0.000000000000000000, -1.000000000000000000 ) ) ;
#528 = DIRECTION ( 'NONE',  ( 1.000000000000000000, 0.000000000000000000, 0.000000000000000000 ) ) ;
#529 = DIRECTION ( 'NONE',  ( 0.8660254037844384856, -7.582964277521802125E-17, 0.5000000000000003331 ) ) ;
#530 = ORIENTED_EDGE ( 'NONE', *, *, #710, .F. ) ;
#531 = DIRECTION ( 'NONE',  ( 0.000000000000000000, 5.551115123125783935E-17, -1.000000000000000000 ) ) ;
#532 = EDGE_CURVE ( 'NONE', #377, #381, #309, .T. ) ;
#533 = DIRECTION ( 'NONE',  ( 6.567039700323920603E-17, 1.000000000000000000, 3.791482138760680428E-17 ) ) ;
#534 = PLANE ( 'NONE',  #376 ) ;
#535 = VECTOR ( 'NONE', #33, 1000.000000000000000 ) ;
#536 = VERTEX_POINT ( 'NONE', #143 ) ;
#537 = COORDINATED_UNIVERSAL_TIME_OFFSET ( 10, 0, .AHEAD. ) ;
#538 = VECTOR ( 'NONE', #341, 1000.000000000000227 ) ;
#539 = EDGE_LOOP ( 'NONE', ( #144, #634, #428, #96 ) ) ;
#540 = CARTESIAN_POINT ( 'NONE',  ( -640.5939039299912565, -1170.305262667903889, -1257.509618943232908 ) ) ;
#541 = APPLICATION_PROTOCOL_DEFINITION ( 'international standard', 'config_control_design', 1994, #759 ) ;
#542 = DIRECTION ( 'NONE',  ( 0.000000000000000000, 0.000000000000000000, 1.000000000000000000 ) ) ;
#543 = VERTEX_POINT ( 'NONE', #29 ) ;
#544 = ORIENTED_EDGE ( 'NONE', *, *, #718, .T. ) ;
#545 = VERTEX_POINT ( 'NONE', #512 ) ;
#546 = ORIENTED_EDGE ( 'NONE', *, *, #502, .F. ) ;
#547 = DATE_TIME_ROLE ( 'classification_date' ) ;
#548 = FACE_OUTER_BOUND ( 'NONE', #631, .T. ) ;
#549 = EDGE_CURVE ( 'NONE', #312, #318, #452, .T. ) ;
#550 = VERTEX_POINT ( 'NONE', #266 ) ;
#551 = ORIENTED_EDGE ( 'NONE', *, *, #532, .T. ) ;
#552 = CC_DESIGN_APPROVAL ( #640, ( #647 ) ) ;
#553 = COORDINATED_UNIVERSAL_TIME_OFFSET ( 10, 0, .AHEAD. ) ;
#554 = AXIS2_PLACEMENT_3D ( 'NONE', #110, #524, #531 ) ;
#555 = DIRECTION ( 'NONE',  ( 0.5000000000000034417, 0.000000000000000000, -0.8660254037844367092 ) ) ;
#556 = ORIENTED_EDGE ( 'NONE', *, *, #427, .T. ) ;
#557 = ORIENTED_EDGE ( 'NONE', *, *, #750, .T. ) ;
#558 = DIRECTION ( 'NONE',  ( 5.551115123125783935E-17, 1.000000000000000000, 5.551115123125783935E-17 ) ) ;
#559 = VERTEX_POINT ( 'NONE', #201 ) ;
#560 = EDGE_CURVE ( 'NONE', #545, #468, #64, .T. ) ;
#561 = VERTEX_POINT ( 'NONE', #393 ) ;
#562 = CARTESIAN_POINT ( 'NONE',  ( -673.5084227732650106, -1170.305262667903889, -1200.499999999999773 ) ) ;
#563 = VERTEX_POINT ( 'NONE', #457 ) ;
#564 = DIRECTION ( 'NONE',  ( 0.000000000000000000, 0.000000000000000000, -1.000000000000000000 ) ) ;
#565 = ORIENTED_EDGE ( 'NONE', *, *, #277, .F. ) ;
#566 = VERTEX_POINT ( 'NONE', #21 ) ;
#567 = VECTOR ( 'NONE', #740, 1000.000000000000000 ) ;
#568 = CARTESIAN_POINT ( 'NONE',  ( -615.7733958543011568, -1170.305262667903889, -1220.499999999999545 ) ) ;
#569 = ORIENTED_EDGE ( 'NONE', *, *, #612, .F. ) ;
#570 = ORIENTED_EDGE ( 'NONE', *, *, #317, .T. ) ;
#571 = VERTEX_POINT ( 'NONE', #156 ) ;
#572 = DIRECTION ( 'NONE',  ( 5.551115123125783935E-17, 1.000000000000000000, 5.551115123125783935E-17 ) ) ;
#573 = EDGE_CURVE ( 'NONE', #618, #381, #270, .T. ) ;
#574 = DIRECTION ( 'NONE',  ( 1.000000000000000000, 0.000000000000000000, 0.000000000000000000 ) ) ;
#575 = EDGE_CURVE ( 'NONE', #571, #364, #164, .T. ) ;
#576 = DIRECTION ( 'NONE',  ( 0.000000000000000000, 0.000000000000000000, -1.000000000000000000 ) ) ;
#577 = DIRECTION ( 'NONE',  ( 0.8660254037844384856, -7.582964277521800892E-17, 0.5000000000000003331 ) ) ;
#578 = DIRECTION ( 'NONE',  ( 5.551115123125783935E-17, 1.000000000000000000, 5.551115123125783935E-17 ) ) ;
#579 = ORIENTED_EDGE ( 'NONE', *, *, #703, .T. ) ;
#580 = PLANE ( 'NONE',  #401 ) ;
#581 = ORIENTED_EDGE ( 'NONE', *, *, #169, .F. ) ;
#582 = AXIS2_PLACEMENT_3D ( 'NONE', #732, #497, #362 ) ;
#583 = CC_DESIGN_SECURITY_CLASSIFICATION ( #647, ( #766 ) ) ;
#584 = FACE_OUTER_BOUND ( 'NONE', #135, .T. ) ;
#585 = EDGE_CURVE ( 'NONE', #425, #543, #332, .T. ) ;
#586 = AXIS2_PLACEMENT_3D ( 'NONE', #659, #776, #529 ) ;
#587 = DIRECTION ( 'NONE',  ( 0.8660254037844384856, -7.582964277521802125E-17, 0.5000000000000003331 ) ) ;
#588 = DIRECTION ( 'NONE',  ( -5.551115123125783935E-17, -1.000000000000000000, -5.551115123125783935E-17 ) ) ;
#589 = ADVANCED_FACE ( 'NONE', ( #97 ), #580, .F. ) ;
#590 = CARTESIAN_POINT ( 'NONE',  ( -671.4725243884034853, -1170.305262667903889, -1212.026279441628503 ) ) ;
#591 = LINE ( 'NONE', #470, #232 ) ;
#592 = CARTESIAN_POINT ( 'NONE',  ( -633.0939039299913702, -1170.305262667903889, -1270.499999999999545 ) ) ;
#593 = EDGE_LOOP ( 'NONE', ( #747, #763, #10, #308 ) ) ;
#594 = PLANE ( 'NONE',  #586 ) ;
#595 =( GEOMETRIC_REPRESENTATION_CONTEXT ( 3 ) GLOBAL_UNCERTAINTY_ASSIGNED_CONTEXT ( ( #627 ) ) GLOBAL_UNIT_ASSIGNED_CONTEXT ( ( #45, #600, #58 ) ) REPRESENTATION_CONTEXT ( 'NONE', 'WORKASPACE' ) );
#596 = DIRECTION ( 'NONE',  ( -0.5000000000000002220, 0.000000000000000000, 0.8660254037844384856 ) ) ;
#597 = ORIENTED_EDGE ( 'NONE', *, *, #323, .T. ) ;
#598 = FACE_OUTER_BOUND ( 'NONE', #488, .T. ) ;
#599 = CC_DESIGN_PERSON_AND_ORGANIZATION_ASSIGNMENT ( #607, #179, ( #385 ) ) ;
#600 =( NAMED_UNIT ( * ) PLANE_ANGLE_UNIT ( ) SI_UNIT ( $, .RADIAN. ) );
#601 = DIRECTION ( 'NONE',  ( -0.5000000000000014433, 9.984020831703428911E-31, 0.8660254037844378194 ) ) ;
#602 = PERSON_AND_ORGANIZATION ( #675, #230 ) ;
#603 = DIRECTION ( 'NONE',  ( 0.8660254037844384856, -7.582964277521800892E-17, 0.5000000000000003331 ) ) ;
#604 = AXIS2_PLACEMENT_3D ( 'NONE', #100, #760, #691 ) ;
#605 = CC_DESIGN_APPROVAL ( #226, ( #385 ) ) ;
#606 = VECTOR ( 'NONE', #23, 1000.000000000000114 ) ;
#607 = PERSON_AND_ORGANIZATION ( #675, #230 ) ;
#608 = AXIS2_PLACEMENT_3D ( 'NONE', #227, #588, #527 ) ;
#609 = PLANE ( 'NONE',  #105 ) ;
#610 = DIRECTION ( 'NONE',  ( 3.845925372767037505E-15, -5.551115123125803656E-17, 1.000000000000000000 ) ) ;
#611 = VERTEX_POINT ( 'NONE', #447 ) ;
#612 = EDGE_CURVE ( 'NONE', #505, #186, #151, .T. ) ;
#613 = PERSON_AND_ORGANIZATION ( #675, #230 ) ;
#614 = DIRECTION ( 'NONE',  ( 1.000000000000000000, 0.000000000000000000, 0.000000000000000000 ) ) ;
#615 = LINE ( 'NONE', #19, #411 ) ;
#616 = ORIENTED_EDGE ( 'NONE', *, *, #427, .F. ) ;
#617 = PLANE ( 'NONE',  #136 ) ;
#618 = VERTEX_POINT ( 'NONE', #276 ) ;
#619 = ORIENTED_EDGE ( 'NONE', *, *, #291, .T. ) ;
#620 = CIRCLE ( 'NONE', #743, 1.000000000000000888 ) ;
#621 = DATE_AND_TIME ( #719, #79 ) ;
#622 = VECTOR ( 'NONE', #614, 1000.000000000000000 ) ;
#623 = CARTESIAN_POINT ( 'NONE',  ( -598.4528877786126486, -1170.305262667903889, -1210.499999999999773 ) ) ;
#624 = ORIENTED_EDGE ( 'NONE', *, *, #573, .F. ) ;
#625 = EDGE_CURVE ( 'NONE', #186, #289, #329, .T. ) ;
#626 = CARTESIAN_POINT ( 'NONE',  ( -638.0939039299913702, -1170.305262667903889, -1261.839745962155121 ) ) ;
#627 = UNCERTAINTY_MEASURE_WITH_UNIT (LENGTH_MEASURE( 1.000000000000000082E-05 ), #45, 'distance_accuracy_value', 'NONE');
#628 = ORIENTED_EDGE ( 'NONE', *, *, #693, .T. ) ;
#629 = LINE ( 'NONE', #520, #421 ) ;
#630 = VERTEX_POINT ( 'NONE', #688 ) ;
#631 = EDGE_LOOP ( 'NONE', ( #5, #301, #253, #17 ) ) ;
#632 = DIRECTION ( 'NONE',  ( 6.567039700323835554E-17, 1.000000000000000000, 3.791482138760825874E-17 ) ) ;
#633 = CARTESIAN_POINT ( 'NONE',  ( -671.1064989846190656, -1170.305262667903889, -1210.660254037844197 ) ) ;
#634 = ORIENTED_EDGE ( 'NONE', *, *, #474, .T. ) ;
#635 = VERTEX_POINT ( 'NONE', #391 ) ;
#636 = CARTESIAN_POINT ( 'NONE',  ( -671.9725243884034853, -1170.305262667903889, -1211.160254037844197 ) ) ;
#637 = LINE ( 'NONE', #157, #123 ) ;
#638 = ADVANCED_FACE ( 'NONE', ( #444 ), #94, .T. ) ;
#639 = CARTESIAN_POINT ( 'NONE',  ( -669.1064989846189519, -1170.305262667903889, -1215.124355652982103 ) ) ;
#640 = APPROVAL ( #1, 'UNSPECIFIED' ) ;
#641 = DIRECTION ( 'NONE',  ( 5.551115123125783935E-17, 1.000000000000000000, 5.551115123125783935E-17 ) ) ;
#642 = CARTESIAN_POINT ( 'NONE',  ( -669.9725243884033716, -1170.305262667903889, -1214.624355652982103 ) ) ;
#643 = DIRECTION ( 'NONE',  ( -0.5000000000000002220, 0.000000000000000000, 0.8660254037844384856 ) ) ;
#644 = EDGE_LOOP ( 'NONE', ( #78, #60, #597, #38 ) ) ;
#645 = DIRECTION ( 'NONE',  ( 6.567039700323835554E-17, 1.000000000000000000, 3.791482138760825874E-17 ) ) ;
#646 = AXIS2_PLACEMENT_3D ( 'NONE', #93, #507, #700 ) ;
#647 = SECURITY_CLASSIFICATION ( '', '', #68 ) ;
#648 = CARTESIAN_POINT ( 'NONE',  ( -669.1064989846189519, -1170.305262667903889, -1214.124355652982103 ) ) ;
#649 = EDGE_CURVE ( 'NONE', #468, #435, #629, .T. ) ;
#650 = VECTOR ( 'NONE', #440, 999.9999999999998863 ) ;
#651 = CARTESIAN_POINT ( 'NONE',  ( 0.000000000000000000, 0.000000000000000000, 0.000000000000000000 ) ) ;
#652 = DIRECTION ( 'NONE',  ( -0.8660254037844367092, 7.582964277521810753E-17, -0.5000000000000034417 ) ) ;
#653 = DIRECTION ( 'NONE',  ( -0.5000000000000002220, 0.000000000000000000, 0.8660254037844384856 ) ) ;
#654 = CARTESIAN_POINT ( 'NONE',  ( -615.7733958543011568, -1170.305262667903889, -1200.499999999999773 ) ) ;
#655 = EDGE_CURVE ( 'NONE', #559, #566, #244, .T. ) ;
#656 = PLANE ( 'NONE',  #504 ) ;
#657 = CARTESIAN_POINT ( 'NONE',  ( -669.1064989846189519, -1170.305262667903889, -1214.124355652982103 ) ) ;
#658 = CARTESIAN_POINT ( 'NONE',  ( -633.0939039299913702, -1170.305262667903889, -1270.499999999999545 ) ) ;
#659 = CARTESIAN_POINT ( 'NONE',  ( -647.5221071602677512, -1170.305262667903889, -1261.509618943233363 ) ) ;
#660 = DATE_AND_TIME ( #415, #153 ) ;
#661 = CARTESIAN_POINT ( 'NONE',  ( -575.3588770110274027, -1174.305262667903889, -1263.833333333333030 ) ) ;
#662 = EDGE_CURVE ( 'NONE', #505, #545, #459, .T. ) ;
#663 = ORIENTED_EDGE ( 'NONE', *, *, #351, .F. ) ;
#664 = VERTEX_POINT ( 'NONE', #562 ) ;
#665 = PERSON_AND_ORGANIZATION ( #675, #230 ) ;
#666 = LINE ( 'NONE', #540, #567 ) ;
#667 = ORIENTED_EDGE ( 'NONE', *, *, #279, .F. ) ;
#668 = LOCAL_TIME ( 16, 44, 11.00000000000000000, #242 ) ;
#669 = EDGE_CURVE ( 'NONE', #302, #4, #397, .T. ) ;
#670 = AXIS2_PLACEMENT_3D ( 'NONE', #324, #382, #214 ) ;
#671 = LINE ( 'NONE', #189, #357 ) ;
#672 = ORIENTED_EDGE ( 'NONE', *, *, #323, .F. ) ;
#673 = ORIENTED_EDGE ( 'NONE', *, *, #758, .F. ) ;
#674 = DIRECTION ( 'NONE',  ( 0.000000000000000000, 5.551115123125783935E-17, -1.000000000000000000 ) ) ;
#675 = PERSON ( 'UNSPECIFIED', 'UNSPECIFIED', 'UNSPECIFIED', ('UNSPECIFIED'), ('UNSPECIFIED'), ('UNSPECIFIED') ) ;
#676 = CARTESIAN_POINT ( 'NONE',  ( -668.6064989846189519, -1170.305262667903889, -1214.990381056766637 ) ) ;
#677 = PERSON_AND_ORGANIZATION_ROLE ( 'design_supplier' ) ;
#678 = EDGE_CURVE ( 'NONE', #368, #374, #469, .T. ) ;
#679 = CARTESIAN_POINT ( 'NONE',  ( -666.0084227732650106, -1174.305262667903889, -1213.490381056766410 ) ) ;
#680 = ORIENTED_EDGE ( 'NONE', *, *, #474, .F. ) ;
#681 = FACE_OUTER_BOUND ( 'NONE', #539, .T. ) ;
#682 = VECTOR ( 'NONE', #517, 1000.000000000000114 ) ;
#683 = ORIENTED_EDGE ( 'NONE', *, *, #61, .F. ) ;
#684 = APPROVAL_PERSON_ORGANIZATION ( #602, #176, #192 ) ;
#685 = AXIS2_PLACEMENT_3D ( 'NONE', #657, #288, #350 ) ;
#686 = DIRECTION ( 'NONE',  ( 0.8660254037844378194, -7.582964277521807055E-17, 0.5000000000000014433 ) ) ;
#687 = CARTESIAN_POINT ( 'NONE',  ( -642.6919801413450841, -1174.305262667903889, -1259.875644347017669 ) ) ;
#688 = CARTESIAN_POINT ( 'NONE',  ( -668.5084227732650106, -1170.305262667903889, -1209.160254037843970 ) ) ;
#689 = CARTESIAN_POINT ( 'NONE',  ( -645.0221071602677512, -1170.305262667903889, -1265.839745962155575 ) ) ;
#690 = VERTEX_POINT ( 'NONE', #51 ) ;
#691 = DIRECTION ( 'NONE',  ( 1.000000000000000000, 0.000000000000000000, 0.000000000000000000 ) ) ;
#692 = CARTESIAN_POINT ( 'NONE',  ( -575.3588770110274027, -1170.305262667903889, -1263.833333333333030 ) ) ;
#693 = EDGE_CURVE ( 'NONE', #318, #505, #400, .T. ) ;
#694 = ORIENTED_EDGE ( 'NONE', *, *, #366, .T. ) ;
#695 = APPROVAL_PERSON_ORGANIZATION ( #613, #226, #237 ) ;
#696 = DIRECTION ( 'NONE',  ( 0.8660254037844384856, -7.582964277521800892E-17, 0.5000000000000003331 ) ) ;
#697 = EDGE_LOOP ( 'NONE', ( #680, #530, #255, #619 ) ) ;
#698 = DIRECTION ( 'NONE',  ( 1.000000000000000000, 0.000000000000000000, 0.000000000000000000 ) ) ;
#699 = DIRECTION ( 'NONE',  ( 5.551115123125783935E-17, 1.000000000000000000, 5.551115123125783935E-17 ) ) ;
#700 = DIRECTION ( 'NONE',  ( 1.000000000000000000, 0.000000000000000000, 0.000000000000000000 ) ) ;
#701 = DIRECTION ( 'NONE',  ( -0.5000000000000002220, 0.000000000000000000, 0.8660254037844384856 ) ) ;
#702 = ORIENTED_EDGE ( 'NONE', *, *, #575, .F. ) ;
#703 = EDGE_CURVE ( 'NONE', #611, #302, #160, .T. ) ;
#704 = CARTESIAN_POINT ( 'NONE',  ( -672.9366260035415053, -1174.305262667903889, -1217.490381056766864 ) ) ;
#705 = VECTOR ( 'NONE', #699, 1000.000000000000000 ) ;
#706 = CC_DESIGN_APPROVAL ( #176, ( #766 ) ) ;
#707 = CARTESIAN_POINT ( 'NONE',  ( -575.3588770110274027, -1170.305262667903889, -1270.499999999999773 ) ) ;
#708 = VECTOR ( 'NONE', #168, 1000.000000000000000 ) ;
#709 = LINE ( 'NONE', #716, #438 ) ;
#710 = EDGE_CURVE ( 'NONE', #543, #563, #620, .T. ) ;
#711 = DIRECTION ( 'NONE',  ( 5.551115123125783935E-17, 1.000000000000000000, 5.551115123125783935E-17 ) ) ;
#712 = ORIENTED_EDGE ( 'NONE', *, *, #418, .T. ) ;
#713 = CARTESIAN_POINT ( 'NONE',  ( -669.1064989846189519, -1170.305262667903889, -1215.124355652982103 ) ) ;
#714 = MANIFOLD_SOLID_BREP ( 'Convert-Solid1', #104 ) ;
#715 = LINE ( 'NONE', #590, #486 ) ;
#716 = CARTESIAN_POINT ( 'NONE',  ( -644.0580055451296175, -1170.305262667903889, -1259.509618943233136 ) ) ;
#717 = CIRCLE ( 'NONE', #646, 1.000000000000000888 ) ;
#718 = EDGE_CURVE ( 'NONE', #48, #312, #473, .T. ) ;
#719 = CALENDAR_DATE ( 2026, 11, 7 ) ;
#720 = DIRECTION ( 'NONE',  ( 6.567039700323835554E-17, 1.000000000000000000, 3.791482138760825874E-17 ) ) ;
#721 = PERSON_AND_ORGANIZATION_ROLE ( 'design_owner' ) ;
#722 = CARTESIAN_POINT ( 'NONE',  ( -673.5084227732650106, -1170.305262667903889, -1200.499999999999773 ) ) ;
#723 = EDGE_CURVE ( 'NONE', #448, #559, #117, .T. ) ;
#724 = DIRECTION ( 'NONE',  ( 0.5000000000000003331, 2.031849154396015725E-17, -0.8660254037844384856 ) ) ;
#725 = VERTEX_POINT ( 'NONE', #464 ) ;
#726 = PERSON_AND_ORGANIZATION ( #675, #230 ) ;
#727 = CARTESIAN_POINT ( 'NONE',  ( -672.9366260035415053, -1170.305262667903889, -1217.490381056766864 ) ) ;
#728 = ORIENTED_EDGE ( 'NONE', *, *, #549, .T. ) ;
#729 = ORIENTED_EDGE ( 'NONE', *, *, #502, .T. ) ;
#730 = AXIS2_PLACEMENT_3D ( 'NONE', #35, #632, #574 ) ;
#731 = COORDINATED_UNIVERSAL_TIME_OFFSET ( 10, 0, .AHEAD. ) ;
#732 = CARTESIAN_POINT ( 'NONE',  ( -615.7733958543011568, -1170.305262667903889, -1220.499999999999545 ) ) ;
#733 = EDGE_LOOP ( 'NONE', ( #673, #89, #379, #264 ) ) ;
#734 = DIRECTION ( 'NONE',  ( 1.000000000000000000, -5.551115123125783935E-17, -3.081487911019578733E-33 ) ) ;
#735 = ADVANCED_FACE ( 'NONE', ( #770 ), #762, .T. ) ;
#736 = ORIENTED_EDGE ( 'NONE', *, *, #317, .F. ) ;
#737 = MECHANICAL_CONTEXT ( 'NONE', #461, 'mechanical' ) ;
#738 = DIRECTION ( 'NONE',  ( 0.5000000000000003331, 2.031849154396015725E-17, -0.8660254037844384856 ) ) ;
#739 = CARTESIAN_POINT ( 'NONE',  ( -615.7733958543011568, -1174.305262667903889, -1200.499999999999773 ) ) ;
#740 = DIRECTION ( 'NONE',  ( 5.551115123125783935E-17, 1.000000000000000000, 5.551115123125783935E-17 ) ) ;
#741 = ORIENTED_EDGE ( 'NONE', *, *, #406, .F. ) ;
#742 = CARTESIAN_POINT ( 'NONE',  ( -670.6064989846189519, -1170.305262667903889, -1211.526279441628503 ) ) ;
#743 = AXIS2_PLACEMENT_3D ( 'NONE', #229, #645, #108 ) ;
#744 = AXIS2_PLACEMENT_3D ( 'NONE', #367, #359, #69 ) ;
#745 = FACE_OUTER_BOUND ( 'NONE', #500, .T. ) ;
#746 = ORIENTED_EDGE ( 'NONE', *, *, #187, .F. ) ;
#747 = ORIENTED_EDGE ( 'NONE', *, *, #703, .F. ) ;
#748 = DIRECTION ( 'NONE',  ( -5.551115123125783935E-17, -1.000000000000000000, -5.551115123125783935E-17 ) ) ;
#749 = DIRECTION ( 'NONE',  ( 6.567039700323920603E-17, 1.000000000000000000, 3.791482138760680428E-17 ) ) ;
#750 = EDGE_CURVE ( 'NONE', #306, #302, #773, .T. ) ;
#751 = FACE_OUTER_BOUND ( 'NONE', #697, .T. ) ;
#752 = CC_DESIGN_DATE_AND_TIME_ASSIGNMENT ( #621, #547, ( #647 ) ) ;
#753 = CARTESIAN_POINT ( 'NONE',  ( -598.4528877786126486, -1170.305262667903889, -1210.499999999999773 ) ) ;
#754 = CYLINDRICAL_SURFACE ( 'NONE', #334, 0.9999999999998898659 ) ;
#755 = DIRECTION ( 'NONE',  ( -5.551115123125783935E-17, -1.000000000000000000, -5.551115123125783935E-17 ) ) ;
#756 = AXIS2_PLACEMENT_3D ( 'NONE', #509, #91, #158 ) ;
#757 = FACE_OUTER_BOUND ( 'NONE', #363, .T. ) ;
#758 = EDGE_CURVE ( 'NONE', #561, #550, #224, .T. ) ;
#759 = APPLICATION_CONTEXT ( 'configuration controlled 3d designs of mechanical parts and assemblies' ) ;
#760 = DIRECTION ( 'NONE',  ( 6.567039700323835554E-17, 1.000000000000000000, 3.791482138760825874E-17 ) ) ;
#761 = LINE ( 'NONE', #398, #371 ) ;
#762 = PLANE ( 'NONE',  #454 ) ;
#763 = ORIENTED_EDGE ( 'NONE', *, *, #484, .T. ) ;
#764 = FACE_OUTER_BOUND ( 'NONE', #490, .T. ) ;
#765 = CARTESIAN_POINT ( 'NONE',  ( -643.5580055451295038, -1170.305262667903889, -1260.375644347017442 ) ) ;
#766 = PRODUCT_DEFINITION_FORMATION_WITH_SPECIFIED_SOURCE ( 'ANY', '', #107, .NOT_KNOWN. ) ;
#767 = EDGE_CURVE ( 'NONE', #435, #498, #340, .T. ) ;
#768 = LINE ( 'NONE', #223, #538 ) ;
#769 = AXIS2_PLACEMENT_3D ( 'NONE', #648, #272, #698 ) ;
#770 = FACE_OUTER_BOUND ( 'NONE', #22, .T. ) ;
#771 = DIRECTION ( 'NONE',  ( 5.551115123125783935E-17, 1.000000000000000000, 5.551115123125783935E-17 ) ) ;
#772 = ADVANCED_FACE ( 'NONE', ( #408 ), #656, .F. ) ;
#773 = LINE ( 'NONE', #216, #220 ) ;
#774 = CARTESIAN_POINT ( 'NONE',  ( -598.4528877786126486, -1170.305262667903889, -1210.499999999999773 ) ) ;
#775 = DIRECTION ( 'NONE',  ( -0.5000000000000002220, 0.000000000000000000, 0.8660254037844384856 ) ) ;
#776 = DIRECTION ( 'NONE',  ( 0.5000000000000003331, 2.031849154396015725E-17, -0.8660254037844384856 ) ) ;
#777 = VECTOR ( 'NONE', #219, 1000.000000000000000 ) ;
#778 = AXIS2_PLACEMENT_3D ( 'NONE', #487, #254, #542 ) ;
#779 = EDGE_CURVE ( 'NONE', #545, #289, #715, .T. ) ;
#780 = CALENDAR_DATE ( 2026, 11, 7 ) ;
#781 = CARTESIAN_POINT ( 'NONE',  ( -633.0939039299913702, -1174.305262667903889, -1270.499999999999545 ) ) ;
ENDSEC;
END-ISO-10303-21;
