ISO-10303-21;
HEADER;
FILE_DESCRIPTION (( 'STEP AP203' ),
    '1' );
FILE_NAME ('CV03-TR-04_REV_B.step',
    '2025-08-17T04:55:34',
    ( '' ),
    ( '' ),
    'SwSTEP 2.0',
    'SolidWorks 2024',
    '' );
FILE_SCHEMA (( 'CONFIG_CONTROL_DESIGN' ));
ENDSEC;

DATA;
#1 = DIRECTION ( 'NONE',  ( 1.000000000000000000, 0.000000000000000000, -0.000000000000000000 ) ) ;
#2 = EDGE_CURVE ( 'NONE', #334, #71, #226, .T. ) ;
#3 = PERSON_AND_ORGANIZATION ( #343, #270 ) ;
#4 = EDGE_CURVE ( 'NONE', #239, #272, #367, .T. ) ;
#5 = DIRECTION ( 'NONE',  ( 0.000000000000000000, 0.000000000000000000, 1.000000000000000000 ) ) ;
#6 = ORIENTED_EDGE ( 'NONE', *, *, #4, .T. ) ;
#7 = CARTESIAN_POINT ( 'NONE',  ( -190.0115057222530197, -1170.305262667903889, -2019.941225635265710 ) ) ;
#8 = VECTOR ( 'NONE', #228, 1000.000000000000000 ) ;
#9 = ORIENTED_EDGE ( 'NONE', *, *, #330, .T. ) ;
#10 = CALENDAR_DATE ( 2025, 17, 8 ) ;
#11 = ORIENTED_EDGE ( 'NONE', *, *, #237, .T. ) ;
#12 = ORIENTED_EDGE ( 'NONE', *, *, #157, .T. ) ;
#13 = DATE_AND_TIME ( #10, #153 ) ;
#14 = DIRECTION ( 'NONE',  ( 0.000000000000000000, 0.000000000000000000, 1.000000000000000000 ) ) ;
#15 = VECTOR ( 'NONE', #148, 1000.000000000000000 ) ;
#16 = AXIS2_PLACEMENT_3D ( 'NONE', #245, #271, #181 ) ;
#17 = ADVANCED_FACE ( 'NONE', ( #19 ), #336, .F. ) ;
#18 = ORIENTED_EDGE ( 'NONE', *, *, #79, .T. ) ;
#19 = FACE_OUTER_BOUND ( 'NONE', #275, .T. ) ;
#20 = CARTESIAN_POINT ( 'NONE',  ( 195.2076581449620107, -1174.305262667903889, -2028.941225635265710 ) ) ;
#21 = EDGE_CURVE ( 'NONE', #104, #357, #281, .T. ) ;
#22 = CARTESIAN_POINT ( 'NONE',  ( 115.5333209967932504, -1174.305262667903889, -2166.941225635266164 ) ) ;
#23 = ADVANCED_FACE ( 'NONE', ( #340 ), #193, .T. ) ;
#24 = CARTESIAN_POINT ( 'NONE',  ( 195.2076581449620107, -1174.305262667903889, -2028.941225635265710 ) ) ;
#25 = DIRECTION ( 'NONE',  ( 0.000000000000000000, 0.000000000000000000, 1.000000000000000000 ) ) ;
#26 = CLOSED_SHELL ( 'NONE', ( #41, #93, #161, #290, #23, #227, #232, #186, #17, #252 ) ) ;
#27 = EDGE_CURVE ( 'NONE', #95, #176, #307, .T. ) ;
#28 = DIRECTION ( 'NONE',  ( 0.000000000000000000, -1.000000000000000000, 0.000000000000000000 ) ) ;
#29 = CARTESIAN_POINT ( 'NONE',  ( 110.3371685740867463, -1174.305262667903889, -2169.941225635265710 ) ) ;
#30 = CARTESIAN_POINT ( 'NONE',  ( 110.3371685740867463, -1174.305262667903889, -2169.941225635265710 ) ) ;
#31 = CC_DESIGN_DATE_AND_TIME_ASSIGNMENT ( #220, #177, ( #363 ) ) ;
#32 = CIRCLE ( 'NONE', #293, 5.999999999999783284 ) ;
#33 = CARTESIAN_POINT ( 'NONE',  ( 110.3371685740867463, -1170.305262667903889, -2169.941225635265710 ) ) ;
#34 = APPROVAL_ROLE ( '' ) ;
#35 = EDGE_CURVE ( 'NONE', #135, #95, #80, .T. ) ;
#36 = DIRECTION ( 'NONE',  ( -1.000000000000000000, -0.000000000000000000, -0.000000000000000000 ) ) ;
#37 = EDGE_LOOP ( 'NONE', ( #305, #124, #130, #82 ) ) ;
#38 = CARTESIAN_POINT ( 'NONE',  ( 115.5333209967932362, -1170.305262667903889, -2166.941225635266164 ) ) ;
#39 = APPROVAL_STATUS ( 'not_yet_approved' ) ;
#40 =( LENGTH_UNIT ( ) NAMED_UNIT ( * ) SI_UNIT ( .MILLI., .METRE. ) );
#41 = ADVANCED_FACE ( 'NONE', ( #137 ), #190, .T. ) ;
#42 = ORIENTED_EDGE ( 'NONE', *, *, #48, .F. ) ;
#43 = LOCAL_TIME ( 14, 55, 34.00000000000000000, #44 ) ;
#44 = COORDINATED_UNIVERSAL_TIME_OFFSET ( 10, 0, .AHEAD. ) ;
#45 = ORIENTED_EDGE ( 'NONE', *, *, #259, .T. ) ;
#46 = PERSON_AND_ORGANIZATION_ROLE ( 'creator' ) ;
#47 = CARTESIAN_POINT ( 'NONE',  ( -190.0115057222530197, -1174.305262667903889, -2019.941225635265710 ) ) ;
#48 = EDGE_CURVE ( 'NONE', #251, #302, #81, .T. ) ;
#49 = DIRECTION ( 'NONE',  ( 0.000000000000000000, 0.000000000000000000, -1.000000000000000000 ) ) ;
#50 = AXIS2_PLACEMENT_3D ( 'NONE', #53, #133, #248 ) ;
#51 = EDGE_LOOP ( 'NONE', ( #353, #213, #249, #77 ) ) ;
#52 = DIRECTION ( 'NONE',  ( 0.000000000000000000, 0.000000000000000000, -1.000000000000000000 ) ) ;
#53 = CARTESIAN_POINT ( 'NONE',  ( -110.3371685740844441, -1174.305262667903889, -2163.941225635265710 ) ) ;
#54 = EDGE_CURVE ( 'NONE', #251, #156, #160, .T. ) ;
#55 = AXIS2_PLACEMENT_3D ( 'NONE', #139, #138, #117 ) ;
#56 = CARTESIAN_POINT ( 'NONE',  ( -115.5333209967911472, -1174.305262667903889, -2166.941225635266164 ) ) ;
#57 = FACE_OUTER_BOUND ( 'NONE', #192, .T. ) ;
#58 = DIRECTION ( 'NONE',  ( 1.000000000000000000, -0.000000000000000000, -0.000000000000000000 ) ) ;
#59 = AXIS2_PLACEMENT_3D ( 'NONE', #167, #314, #286 ) ;
#60 = CARTESIAN_POINT ( 'NONE',  ( 190.0115057222553503, -1174.305262667903889, -2025.941225635265482 ) ) ;
#61 = DIRECTION ( 'NONE',  ( 0.000000000000000000, 0.000000000000000000, 1.000000000000000000 ) ) ;
#62 = PLANE ( 'NONE',  #197 ) ;
#63 = ORIENTED_EDGE ( 'NONE', *, *, #48, .T. ) ;
#64 = CARTESIAN_POINT ( 'NONE',  ( 115.5333209967932504, -1174.305262667903889, -2166.941225635266164 ) ) ;
#65 = ORIENTED_EDGE ( 'NONE', *, *, #4, .F. ) ;
#66 = APPROVAL_DATE_TIME ( #326, #347 ) ;
#67 = LINE ( 'NONE', #358, #212 ) ;
#68 = EDGE_LOOP ( 'NONE', ( #219, #128, #105, #300 ) ) ;
#69 = COORDINATED_UNIVERSAL_TIME_OFFSET ( 10, 0, .AHEAD. ) ;
#70 =( NAMED_UNIT ( * ) PLANE_ANGLE_UNIT ( ) SI_UNIT ( $, .RADIAN. ) );
#71 = VERTEX_POINT ( 'NONE', #234 ) ;
#72 = DATE_TIME_ROLE ( 'creation_date' ) ;
#73 = APPLICATION_PROTOCOL_DEFINITION ( 'international standard', 'config_control_design', 1994, #122 ) ;
#74 = AXIS2_PLACEMENT_3D ( 'NONE', #230, #143, #376 ) ;
#75 = EDGE_LOOP ( 'NONE', ( #65, #83, #331, #223, #282, #328, #42, #189 ) ) ;
#76 = SECURITY_CLASSIFICATION_LEVEL ( 'unclassified' ) ;
#77 = ORIENTED_EDGE ( 'NONE', *, *, #35, .F. ) ;
#78 = CARTESIAN_POINT ( 'NONE',  ( -115.5333209967911472, -1174.305262667903889, -2166.941225635266164 ) ) ;
#79 = EDGE_CURVE ( 'NONE', #156, #104, #125, .T. ) ;
#80 = LINE ( 'NONE', #78, #141 ) ;
#81 = CIRCLE ( 'NONE', #191, 5.999999999999783284 ) ;
#82 = ORIENTED_EDGE ( 'NONE', *, *, #2, .F. ) ;
#83 = ORIENTED_EDGE ( 'NONE', *, *, #118, .F. ) ;
#84 = DIRECTION ( 'NONE',  ( 0.5000000000000001110, -0.000000000000000000, -0.8660254037844385966 ) ) ;
#85 = AXIS2_PLACEMENT_3D ( 'NONE', #316, #113, #25 ) ;
#86 = LOCAL_TIME ( 14, 55, 34.00000000000000000, #240 ) ;
#87 = CARTESIAN_POINT ( 'NONE',  ( 190.0115057222553787, -1170.305262667903889, -2019.941225635265710 ) ) ;
#88 = EDGE_CURVE ( 'NONE', #100, #135, #312, .T. ) ;
#89 = CYLINDRICAL_SURFACE ( 'NONE', #85, 5.999999999999783284 ) ;
#90 = CARTESIAN_POINT ( 'NONE',  ( -115.5333209967911472, -1174.305262667903889, -2166.941225635266164 ) ) ;
#91 = DESIGN_CONTEXT ( 'detailed design', #122, 'design' ) ;
#92 = DIRECTION ( 'NONE',  ( 0.000000000000000000, -1.000000000000000000, 0.000000000000000000 ) ) ;
#93 = ADVANCED_FACE ( 'NONE', ( #284 ), #255, .F. ) ;
#94 = LINE ( 'NONE', #214, #261 ) ;
#95 = VERTEX_POINT ( 'NONE', #56 ) ;
#96 = CALENDAR_DATE ( 2025, 17, 8 ) ;
#97 = LOCAL_TIME ( 14, 55, 34.00000000000000000, #183 ) ;
#98 = ORIENTED_EDGE ( 'NONE', *, *, #237, .F. ) ;
#99 = PERSON_AND_ORGANIZATION_ROLE ( 'design_owner' ) ;
#100 = VERTEX_POINT ( 'NONE', #349 ) ;
#101 = DATE_AND_TIME ( #96, #317 ) ;
#102 = AXIS2_PLACEMENT_3D ( 'NONE', #60, #257, #375 ) ;
#103 = CC_DESIGN_APPROVAL ( #202, ( #373 ) ) ;
#104 = VERTEX_POINT ( 'NONE', #22 ) ;
#105 = ORIENTED_EDGE ( 'NONE', *, *, #199, .T. ) ;
#106 = ADVANCED_BREP_SHAPE_REPRESENTATION ( 'CV03-TR-04_REV_B', ( #351, #16 ), #279 ) ;
#107 = ORIENTED_EDGE ( 'NONE', *, *, #54, .T. ) ;
#108 = DIRECTION ( 'NONE',  ( -0.000000000000000000, 1.000000000000000000, -0.000000000000000000 ) ) ;
#109 = APPROVAL_PERSON_ORGANIZATION ( #263, #202, #34 ) ;
#110 = CARTESIAN_POINT ( 'NONE',  ( 110.3371685740867463, -1170.305262667903889, -2163.941225635265710 ) ) ;
#111 = LINE ( 'NONE', #374, #184 ) ;
#112 = CC_DESIGN_DATE_AND_TIME_ASSIGNMENT ( #216, #72, ( #303 ) ) ;
#113 = DIRECTION ( 'NONE',  ( -0.000000000000000000, 1.000000000000000000, -0.000000000000000000 ) ) ;
#114 = VECTOR ( 'NONE', #355, 1000.000000000000000 ) ;
#115 = LINE ( 'NONE', #24, #8 ) ;
#116 = UNCERTAINTY_MEASURE_WITH_UNIT (LENGTH_MEASURE( 1.000000000000000082E-05 ), #40, 'distance_accuracy_value', 'NONE');
#117 = DIRECTION ( 'NONE',  ( 0.000000000000000000, 0.000000000000000000, -1.000000000000000000 ) ) ;
#118 = EDGE_CURVE ( 'NONE', #100, #239, #111, .T. ) ;
#119 = DIRECTION ( 'NONE',  ( 0.5000000000000001110, -0.000000000000000000, -0.8660254037844385966 ) ) ;
#120 = MECHANICAL_CONTEXT ( 'NONE', #194, 'mechanical' ) ;
#121 = APPROVAL_DATE_TIME ( #13, #266 ) ;
#122 = APPLICATION_CONTEXT ( 'configuration controlled 3d designs of mechanical parts and assemblies' ) ;
#123 = FACE_OUTER_BOUND ( 'NONE', #37, .T. ) ;
#124 = ORIENTED_EDGE ( 'NONE', *, *, #360, .T. ) ;
#125 = CIRCLE ( 'NONE', #59, 5.999999999999783284 ) ;
#126 = CARTESIAN_POINT ( 'NONE',  ( 195.2076581449620392, -1170.305262667903889, -2028.941225635265710 ) ) ;
#127 = CARTESIAN_POINT ( 'NONE',  ( -110.3371685740844441, -1170.305262667903889, -2169.941225635265710 ) ) ;
#128 = ORIENTED_EDGE ( 'NONE', *, *, #370, .T. ) ;
#129 = EDGE_CURVE ( 'NONE', #267, #215, #204, .T. ) ;
#130 = ORIENTED_EDGE ( 'NONE', *, *, #292, .T. ) ;
#131 = SHAPE_DEFINITION_REPRESENTATION ( #294, #106 ) ;
#132 = AXIS2_PLACEMENT_3D ( 'NONE', #320, #324, #36 ) ;
#133 = DIRECTION ( 'NONE',  ( 0.000000000000000000, -1.000000000000000000, 0.000000000000000000 ) ) ;
#134 = ORIENTED_EDGE ( 'NONE', *, *, #21, .T. ) ;
#135 = VERTEX_POINT ( 'NONE', #318 ) ;
#136 = EDGE_CURVE ( 'NONE', #215, #334, #313, .T. ) ;
#137 = FACE_OUTER_BOUND ( 'NONE', #225, .T. ) ;
#138 = DIRECTION ( 'NONE',  ( 0.000000000000000000, -1.000000000000000000, 0.000000000000000000 ) ) ;
#139 = CARTESIAN_POINT ( 'NONE',  ( -190.0115057222530197, -1170.305262667903889, -2025.941225635265482 ) ) ;
#140 = FACE_OUTER_BOUND ( 'NONE', #51, .T. ) ;
#141 = VECTOR ( 'NONE', #165, 1000.000000000000000 ) ;
#142 = DIRECTION ( 'NONE',  ( 0.8660254037844385966, 0.000000000000000000, 0.5000000000000001110 ) ) ;
#143 = DIRECTION ( 'NONE',  ( -0.8660254037844385966, 0.000000000000000000, 0.5000000000000003331 ) ) ;
#144 = VECTOR ( 'NONE', #285, 1000.000000000000000 ) ;
#145 = DIRECTION ( 'NONE',  ( -0.000000000000000000, 1.000000000000000000, 0.000000000000000000 ) ) ;
#146 = PERSON_AND_ORGANIZATION ( #343, #270 ) ;
#147 = CC_DESIGN_PERSON_AND_ORGANIZATION_ASSIGNMENT ( #3, #298, ( #363 ) ) ;
#148 = DIRECTION ( 'NONE',  ( 0.000000000000000000, -1.000000000000000000, 0.000000000000000000 ) ) ;
#149 = EDGE_LOOP ( 'NONE', ( #173, #6, #12, #182 ) ) ;
#150 = DIRECTION ( 'NONE',  ( -1.000000000000000000, -0.000000000000000000, 0.000000000000000000 ) ) ;
#151 = ORIENTED_EDGE ( 'NONE', *, *, #27, .T. ) ;
#152 = AXIS2_PLACEMENT_3D ( 'NONE', #311, #335, #14 ) ;
#153 = LOCAL_TIME ( 14, 55, 34.00000000000000000, #69 ) ;
#154 = ORIENTED_EDGE ( 'NONE', *, *, #292, .F. ) ;
#155 = PERSON_AND_ORGANIZATION_ROLE ( 'creator' ) ;
#156 = VERTEX_POINT ( 'NONE', #200 ) ;
#157 = EDGE_CURVE ( 'NONE', #272, #176, #169, .T. ) ;
#158 = DIRECTION ( 'NONE',  ( -0.000000000000000000, 1.000000000000000000, 0.000000000000000000 ) ) ;
#159 = VECTOR ( 'NONE', #28, 1000.000000000000000 ) ;
#160 = LINE ( 'NONE', #163, #287 ) ;
#161 = ADVANCED_FACE ( 'NONE', ( #57 ), #89, .T. ) ;
#162 = ORIENTED_EDGE ( 'NONE', *, *, #88, .T. ) ;
#163 = CARTESIAN_POINT ( 'NONE',  ( 110.3371685740867463, -1174.305262667903889, -2169.941225635265710 ) ) ;
#164 = AXIS2_PLACEMENT_3D ( 'NONE', #368, #108, #306 ) ;
#165 = DIRECTION ( 'NONE',  ( 0.5000000000000001110, -0.000000000000000000, -0.8660254037844385966 ) ) ;
#166 = PRODUCT_RELATED_PRODUCT_CATEGORY ( 'detail', '', ( #377 ) ) ;
#167 = CARTESIAN_POINT ( 'NONE',  ( 110.3371685740867463, -1174.305262667903889, -2163.941225635265710 ) ) ;
#168 = CARTESIAN_POINT ( 'NONE',  ( 190.0115057222553503, -1170.305262667903889, -2025.941225635265482 ) ) ;
#169 = LINE ( 'NONE', #346, #159 ) ;
#170 = CC_DESIGN_APPROVAL ( #266, ( #363 ) ) ;
#171 = LINE ( 'NONE', #289, #114 ) ;
#172 = DIRECTION ( 'NONE',  ( 0.000000000000000000, -1.000000000000000000, 0.000000000000000000 ) ) ;
#173 = ORIENTED_EDGE ( 'NONE', *, *, #244, .F. ) ;
#174 = VECTOR ( 'NONE', #178, 1000.000000000000000 ) ;
#175 = CARTESIAN_POINT ( 'NONE',  ( 190.0115057222553503, -1174.305262667903889, -2019.941225635265710 ) ) ;
#176 = VERTEX_POINT ( 'NONE', #258 ) ;
#177 = DATE_TIME_ROLE ( 'classification_date' ) ;
#178 = DIRECTION ( 'NONE',  ( 0.000000000000000000, -1.000000000000000000, 0.000000000000000000 ) ) ;
#179 = ORIENTED_EDGE ( 'NONE', *, *, #35, .T. ) ;
#180 = CALENDAR_DATE ( 2025, 17, 8 ) ;
#181 = DIRECTION ( 'NONE',  ( 1.000000000000000000, 0.000000000000000000, 0.000000000000000000 ) ) ;
#182 = ORIENTED_EDGE ( 'NONE', *, *, #27, .F. ) ;
#183 = COORDINATED_UNIVERSAL_TIME_OFFSET ( 10, 0, .AHEAD. ) ;
#184 = VECTOR ( 'NONE', #119, 1000.000000000000000 ) ;
#185 = APPROVAL_STATUS ( 'not_yet_approved' ) ;
#186 = ADVANCED_FACE ( 'NONE', ( #369 ), #344, .F. ) ;
#187 = ORIENTED_EDGE ( 'NONE', *, *, #199, .F. ) ;
#188 = APPROVAL_ROLE ( '' ) ;
#189 = ORIENTED_EDGE ( 'NONE', *, *, #330, .F. ) ;
#190 = CYLINDRICAL_SURFACE ( 'NONE', #164, 5.999999999999783284 ) ;
#191 = AXIS2_PLACEMENT_3D ( 'NONE', #110, #310, #52 ) ;
#192 = EDGE_LOOP ( 'NONE', ( #187, #295, #277, #98 ) ) ;
#193 = CYLINDRICAL_SURFACE ( 'NONE', #152, 5.999999999999783284 ) ;
#194 = APPLICATION_CONTEXT ( 'configuration controlled 3d designs of mechanical parts and assemblies' ) ;
#195 = EDGE_CURVE ( 'NONE', #319, #100, #372, .T. ) ;
#196 = ORIENTED_EDGE ( 'NONE', *, *, #2, .T. ) ;
#197 = AXIS2_PLACEMENT_3D ( 'NONE', #238, #145, #327 ) ;
#198 = CARTESIAN_POINT ( 'NONE',  ( -110.3371685740844441, -1174.305262667903889, -2163.941225635265710 ) ) ;
#199 = EDGE_CURVE ( 'NONE', #267, #357, #115, .T. ) ;
#200 = CARTESIAN_POINT ( 'NONE',  ( 110.3371685740867463, -1174.305262667903889, -2169.941225635265710 ) ) ;
#201 = DIRECTION ( 'NONE',  ( 0.000000000000000000, 0.000000000000000000, 1.000000000000000000 ) ) ;
#202 = APPROVAL ( #39, 'UNSPECIFIED' ) ;
#203 = CARTESIAN_POINT ( 'NONE',  ( -115.5333209967911472, -1170.305262667903889, -2166.941225635266164 ) ) ;
#204 = CIRCLE ( 'NONE', #332, 5.999999999999783284 ) ;
#205 = CC_DESIGN_APPROVAL ( #347, ( #303 ) ) ;
#206 = CC_DESIGN_SECURITY_CLASSIFICATION ( #363, ( #373 ) ) ;
#207 = DIRECTION ( 'NONE',  ( 0.000000000000000000, -1.000000000000000000, 0.000000000000000000 ) ) ;
#208 = PERSON_AND_ORGANIZATION ( #343, #270 ) ;
#209 = ORIENTED_EDGE ( 'NONE', *, *, #54, .F. ) ;
#210 = APPROVAL_DATE_TIME ( #101, #202 ) ;
#211 = VECTOR ( 'NONE', #339, 1000.000000000000227 ) ;
#212 = VECTOR ( 'NONE', #150, 1000.000000000000000 ) ;
#213 = ORIENTED_EDGE ( 'NONE', *, *, #118, .T. ) ;
#214 = CARTESIAN_POINT ( 'NONE',  ( 195.2076581449620107, -1170.305262667903889, -2028.941225635265710 ) ) ;
#215 = VERTEX_POINT ( 'NONE', #87 ) ;
#216 = DATE_AND_TIME ( #304, #86 ) ;
#217 = CC_DESIGN_PERSON_AND_ORGANIZATION_ASSIGNMENT ( #146, #46, ( #373 ) ) ;
#218 = PLANE ( 'NONE',  #132 ) ;
#219 = ORIENTED_EDGE ( 'NONE', *, *, #333, .F. ) ;
#220 = DATE_AND_TIME ( #180, #97 ) ;
#221 = AXIS2_PLACEMENT_3D ( 'NONE', #29, #61, #58 ) ;
#222 = DIRECTION ( 'NONE',  ( 0.000000000000000000, -1.000000000000000000, 0.000000000000000000 ) ) ;
#223 = ORIENTED_EDGE ( 'NONE', *, *, #360, .F. ) ;
#224 = ORIENTED_EDGE ( 'NONE', *, *, #79, .F. ) ;
#225 = EDGE_LOOP ( 'NONE', ( #209, #63, #359, #224 ) ) ;
#226 = LINE ( 'NONE', #47, #278 ) ;
#227 = ADVANCED_FACE ( 'NONE', ( #140 ), #342, .F. ) ;
#228 = DIRECTION ( 'NONE',  ( 0.000000000000000000, -1.000000000000000000, 0.000000000000000000 ) ) ;
#229 = VECTOR ( 'NONE', #236, 1000.000000000000000 ) ;
#230 = CARTESIAN_POINT ( 'NONE',  ( 195.2076581449620107, -1174.305262667903889, -2028.941225635265710 ) ) ;
#231 = FACE_OUTER_BOUND ( 'NONE', #149, .T. ) ;
#232 = ADVANCED_FACE ( 'NONE', ( #231 ), #345, .T. ) ;
#233 = CARTESIAN_POINT ( 'NONE',  ( 190.0115057222553503, -1174.305262667903889, -2019.941225635265710 ) ) ;
#234 = CARTESIAN_POINT ( 'NONE',  ( -190.0115057222530197, -1174.305262667903889, -2019.941225635265710 ) ) ;
#235 = CC_DESIGN_PERSON_AND_ORGANIZATION_ASSIGNMENT ( #208, #99, ( #377 ) ) ;
#236 = DIRECTION ( 'NONE',  ( 1.000000000000000000, -0.000000000000000000, -0.000000000000000000 ) ) ;
#237 = EDGE_CURVE ( 'NONE', #357, #334, #260, .T. ) ;
#238 = CARTESIAN_POINT ( 'NONE',  ( -110.3371685740844441, -1170.305262667903889, -2163.941225635265710 ) ) ;
#239 = VERTEX_POINT ( 'NONE', #203 ) ;
#240 = COORDINATED_UNIVERSAL_TIME_OFFSET ( 10, 0, .AHEAD. ) ;
#241 = LINE ( 'NONE', #299, #174 ) ;
#242 = LINE ( 'NONE', #30, #229 ) ;
#243 = ORIENTED_EDGE ( 'NONE', *, *, #341, .T. ) ;
#244 = EDGE_CURVE ( 'NONE', #239, #95, #171, .T. ) ;
#245 = CARTESIAN_POINT ( 'NONE',  ( 0.000000000000000000, 0.000000000000000000, 0.000000000000000000 ) ) ;
#246 = CALENDAR_DATE ( 2025, 17, 8 ) ;
#247 = ORIENTED_EDGE ( 'NONE', *, *, #341, .F. ) ;
#248 = DIRECTION ( 'NONE',  ( 0.000000000000000000, 0.000000000000000000, 1.000000000000000000 ) ) ;
#249 = ORIENTED_EDGE ( 'NONE', *, *, #244, .T. ) ;
#250 = ORIENTED_EDGE ( 'NONE', *, *, #157, .F. ) ;
#251 = VERTEX_POINT ( 'NONE', #33 ) ;
#252 = ADVANCED_FACE ( 'NONE', ( #350 ), #62, .T. ) ;
#253 = DIRECTION ( 'NONE',  ( 0.000000000000000000, 0.000000000000000000, -1.000000000000000000 ) ) ;
#254 = CARTESIAN_POINT ( 'NONE',  ( -195.2076581449595380, -1174.305262667903889, -2028.941225635265710 ) ) ;
#255 = PLANE ( 'NONE',  #74 ) ;
#256 = APPROVAL_PERSON_ORGANIZATION ( #274, #347, #301 ) ;
#257 = DIRECTION ( 'NONE',  ( 0.000000000000000000, -1.000000000000000000, 0.000000000000000000 ) ) ;
#258 = CARTESIAN_POINT ( 'NONE',  ( -110.3371685740844441, -1174.305262667903889, -2169.941225635265710 ) ) ;
#259 = EDGE_CURVE ( 'NONE', #71, #135, #32, .T. ) ;
#260 = CIRCLE ( 'NONE', #102, 5.999999999999783284 ) ;
#261 = VECTOR ( 'NONE', #264, 1000.000000000000227 ) ;
#262 = CARTESIAN_POINT ( 'NONE',  ( 195.2076581449620107, -1174.305262667903889, -2028.941225635265710 ) ) ;
#263 = PERSON_AND_ORGANIZATION ( #343, #270 ) ;
#264 = DIRECTION ( 'NONE',  ( 0.5000000000000002220, -0.000000000000000000, 0.8660254037844384856 ) ) ;
#265 = APPLICATION_PROTOCOL_DEFINITION ( 'international standard', 'config_control_design', 1994, #194 ) ;
#266 = APPROVAL ( #273, 'UNSPECIFIED' ) ;
#267 = VERTEX_POINT ( 'NONE', #126 ) ;
#268 = PERSON_AND_ORGANIZATION_ROLE ( 'design_supplier' ) ;
#269 = AXIS2_PLACEMENT_3D ( 'NONE', #90, #142, #84 ) ;
#270 = ORGANIZATION ( 'UNSPECIFIED', 'UNSPECIFIED', '' ) ;
#271 = DIRECTION ( 'NONE',  ( 0.000000000000000000, 0.000000000000000000, 1.000000000000000000 ) ) ;
#272 = VERTEX_POINT ( 'NONE', #361 ) ;
#273 = APPROVAL_STATUS ( 'not_yet_approved' ) ;
#274 = PERSON_AND_ORGANIZATION ( #343, #270 ) ;
#275 = EDGE_LOOP ( 'NONE', ( #151, #243, #18, #134, #11, #196, #45, #179 ) ) ;
#276 = PERSON_AND_ORGANIZATION ( #343, #270 ) ;
#277 = ORIENTED_EDGE ( 'NONE', *, *, #136, .T. ) ;
#278 = VECTOR ( 'NONE', #309, 1000.000000000000000 ) ;
#279 =( GEOMETRIC_REPRESENTATION_CONTEXT ( 3 ) GLOBAL_UNCERTAINTY_ASSIGNED_CONTEXT ( ( #116 ) ) GLOBAL_UNIT_ASSIGNED_CONTEXT ( ( #40, #70, #352 ) ) REPRESENTATION_CONTEXT ( 'NONE', 'WORKASPACE' ) );
#280 = CARTESIAN_POINT ( 'NONE',  ( -110.3371685740844441, -1170.305262667903889, -2163.941225635265710 ) ) ;
#281 = LINE ( 'NONE', #20, #211 ) ;
#282 = ORIENTED_EDGE ( 'NONE', *, *, #129, .F. ) ;
#283 = CC_DESIGN_PERSON_AND_ORGANIZATION_ASSIGNMENT ( #276, #155, ( #303 ) ) ;
#284 = FACE_OUTER_BOUND ( 'NONE', #68, .T. ) ;
#285 = DIRECTION ( 'NONE',  ( 0.000000000000000000, -1.000000000000000000, 0.000000000000000000 ) ) ;
#286 = DIRECTION ( 'NONE',  ( 0.000000000000000000, 0.000000000000000000, -1.000000000000000000 ) ) ;
#287 = VECTOR ( 'NONE', #92, 1000.000000000000000 ) ;
#288 = DIRECTION ( 'NONE',  ( -0.000000000000000000, 1.000000000000000000, -0.000000000000000000 ) ) ;
#289 = CARTESIAN_POINT ( 'NONE',  ( -115.5333209967911472, -1174.305262667903889, -2166.941225635266164 ) ) ;
#290 = ADVANCED_FACE ( 'NONE', ( #123 ), #218, .F. ) ;
#291 = LINE ( 'NONE', #127, #321 ) ;
#292 = EDGE_CURVE ( 'NONE', #319, #71, #241, .T. ) ;
#293 = AXIS2_PLACEMENT_3D ( 'NONE', #297, #172, #5 ) ;
#294 = PRODUCT_DEFINITION_SHAPE ( 'NONE', 'NONE',  #303 ) ;
#295 = ORIENTED_EDGE ( 'NONE', *, *, #129, .T. ) ;
#296 = PERSON_AND_ORGANIZATION ( #343, #270 ) ;
#297 = CARTESIAN_POINT ( 'NONE',  ( -190.0115057222530197, -1174.305262667903889, -2025.941225635265482 ) ) ;
#298 = PERSON_AND_ORGANIZATION_ROLE ( 'classification_officer' ) ;
#299 = CARTESIAN_POINT ( 'NONE',  ( -190.0115057222530197, -1174.305262667903889, -2019.941225635265710 ) ) ;
#300 = ORIENTED_EDGE ( 'NONE', *, *, #21, .F. ) ;
#301 = APPROVAL_ROLE ( '' ) ;
#302 = VERTEX_POINT ( 'NONE', #38 ) ;
#303 = PRODUCT_DEFINITION ( 'UNKNOWN', '', #373, #91 ) ;
#304 = CALENDAR_DATE ( 2025, 17, 8 ) ;
#305 = ORIENTED_EDGE ( 'NONE', *, *, #136, .F. ) ;
#306 = DIRECTION ( 'NONE',  ( 0.000000000000000000, 0.000000000000000000, 1.000000000000000000 ) ) ;
#307 = CIRCLE ( 'NONE', #50, 5.999999999999783284 ) ;
#308 = APPROVAL_PERSON_ORGANIZATION ( #296, #266, #188 ) ;
#309 = DIRECTION ( 'NONE',  ( -1.000000000000000000, -0.000000000000000000, -0.000000000000000000 ) ) ;
#310 = DIRECTION ( 'NONE',  ( 0.000000000000000000, -1.000000000000000000, 0.000000000000000000 ) ) ;
#311 = CARTESIAN_POINT ( 'NONE',  ( -190.0115057222530197, -1174.305262667903889, -2025.941225635265482 ) ) ;
#312 = LINE ( 'NONE', #254, #337 ) ;
#313 = LINE ( 'NONE', #233, #144 ) ;
#314 = DIRECTION ( 'NONE',  ( 0.000000000000000000, -1.000000000000000000, 0.000000000000000000 ) ) ;
#315 = AXIS2_PLACEMENT_3D ( 'NONE', #198, #288, #201 ) ;
#316 = CARTESIAN_POINT ( 'NONE',  ( 190.0115057222553503, -1174.305262667903889, -2025.941225635265482 ) ) ;
#317 = LOCAL_TIME ( 14, 55, 34.00000000000000000, #354 ) ;
#318 = CARTESIAN_POINT ( 'NONE',  ( -195.2076581449595380, -1174.305262667903889, -2028.941225635265710 ) ) ;
#319 = VERTEX_POINT ( 'NONE', #7 ) ;
#320 = CARTESIAN_POINT ( 'NONE',  ( -190.0115057222530197, -1174.305262667903889, -2019.941225635265710 ) ) ;
#321 = VECTOR ( 'NONE', #1, 1000.000000000000000 ) ;
#322 = EDGE_LOOP ( 'NONE', ( #154, #325, #162, #365 ) ) ;
#323 = PERSON_AND_ORGANIZATION ( #343, #270 ) ;
#324 = DIRECTION ( 'NONE',  ( 0.000000000000000000, 0.000000000000000000, -1.000000000000000000 ) ) ;
#325 = ORIENTED_EDGE ( 'NONE', *, *, #195, .T. ) ;
#326 = DATE_AND_TIME ( #246, #43 ) ;
#327 = DIRECTION ( 'NONE',  ( 0.000000000000000000, 0.000000000000000000, 1.000000000000000000 ) ) ;
#328 = ORIENTED_EDGE ( 'NONE', *, *, #370, .F. ) ;
#329 = LINE ( 'NONE', #64, #15 ) ;
#330 = EDGE_CURVE ( 'NONE', #272, #251, #291, .T. ) ;
#331 = ORIENTED_EDGE ( 'NONE', *, *, #195, .F. ) ;
#332 = AXIS2_PLACEMENT_3D ( 'NONE', #168, #371, #253 ) ;
#333 = EDGE_CURVE ( 'NONE', #302, #104, #329, .T. ) ;
#334 = VERTEX_POINT ( 'NONE', #175 ) ;
#335 = DIRECTION ( 'NONE',  ( -0.000000000000000000, 1.000000000000000000, -0.000000000000000000 ) ) ;
#336 = PLANE ( 'NONE',  #348 ) ;
#337 = VECTOR ( 'NONE', #207, 1000.000000000000000 ) ;
#338 = CC_DESIGN_PERSON_AND_ORGANIZATION_ASSIGNMENT ( #323, #268, ( #373 ) ) ;
#339 = DIRECTION ( 'NONE',  ( 0.5000000000000002220, -0.000000000000000000, 0.8660254037844384856 ) ) ;
#340 = FACE_OUTER_BOUND ( 'NONE', #322, .T. ) ;
#341 = EDGE_CURVE ( 'NONE', #176, #156, #242, .T. ) ;
#342 = PLANE ( 'NONE',  #269 ) ;
#343 = PERSON ( 'UNSPECIFIED', 'UNSPECIFIED', 'UNSPECIFIED', ('UNSPECIFIED'), ('UNSPECIFIED'), ('UNSPECIFIED') ) ;
#344 = PLANE ( 'NONE',  #221 ) ;
#345 = CYLINDRICAL_SURFACE ( 'NONE', #315, 5.999999999999783284 ) ;
#346 = CARTESIAN_POINT ( 'NONE',  ( -110.3371685740844441, -1174.305262667903889, -2169.941225635265710 ) ) ;
#347 = APPROVAL ( #185, 'UNSPECIFIED' ) ;
#348 = AXIS2_PLACEMENT_3D ( 'NONE', #364, #158, #366 ) ;
#349 = CARTESIAN_POINT ( 'NONE',  ( -195.2076581449595380, -1170.305262667903889, -2028.941225635265710 ) ) ;
#350 = FACE_OUTER_BOUND ( 'NONE', #75, .T. ) ;
#351 = MANIFOLD_SOLID_BREP ( 'Convert-Solid1', #26 ) ;
#352 =( NAMED_UNIT ( * ) SI_UNIT ( $, .STERADIAN. ) SOLID_ANGLE_UNIT ( ) );
#353 = ORIENTED_EDGE ( 'NONE', *, *, #88, .F. ) ;
#354 = COORDINATED_UNIVERSAL_TIME_OFFSET ( 10, 0, .AHEAD. ) ;
#355 = DIRECTION ( 'NONE',  ( 0.000000000000000000, -1.000000000000000000, 0.000000000000000000 ) ) ;
#356 = AXIS2_PLACEMENT_3D ( 'NONE', #280, #222, #49 ) ;
#357 = VERTEX_POINT ( 'NONE', #262 ) ;
#358 = CARTESIAN_POINT ( 'NONE',  ( -110.3371685740844441, -1170.305262667903889, -2019.941225635265710 ) ) ;
#359 = ORIENTED_EDGE ( 'NONE', *, *, #333, .T. ) ;
#360 = EDGE_CURVE ( 'NONE', #215, #319, #67, .T. ) ;
#361 = CARTESIAN_POINT ( 'NONE',  ( -110.3371685740844441, -1170.305262667903889, -2169.941225635265710 ) ) ;
#362 = EDGE_LOOP ( 'NONE', ( #9, #107, #247, #250 ) ) ;
#363 = SECURITY_CLASSIFICATION ( '', '', #76 ) ;
#364 = CARTESIAN_POINT ( 'NONE',  ( -110.3371685740844441, -1174.305262667903889, -2163.941225635265710 ) ) ;
#365 = ORIENTED_EDGE ( 'NONE', *, *, #259, .F. ) ;
#366 = DIRECTION ( 'NONE',  ( 0.000000000000000000, 0.000000000000000000, 1.000000000000000000 ) ) ;
#367 = CIRCLE ( 'NONE', #356, 5.999999999999783284 ) ;
#368 = CARTESIAN_POINT ( 'NONE',  ( 110.3371685740867463, -1174.305262667903889, -2163.941225635265710 ) ) ;
#369 = FACE_OUTER_BOUND ( 'NONE', #362, .T. ) ;
#370 = EDGE_CURVE ( 'NONE', #302, #267, #94, .T. ) ;
#371 = DIRECTION ( 'NONE',  ( 0.000000000000000000, -1.000000000000000000, 0.000000000000000000 ) ) ;
#372 = CIRCLE ( 'NONE', #55, 5.999999999999783284 ) ;
#373 = PRODUCT_DEFINITION_FORMATION_WITH_SPECIFIED_SOURCE ( 'ANY', '', #377, .NOT_KNOWN. ) ;
#374 = CARTESIAN_POINT ( 'NONE',  ( -115.5333209967911472, -1170.305262667903889, -2166.941225635266164 ) ) ;
#375 = DIRECTION ( 'NONE',  ( 0.000000000000000000, 0.000000000000000000, 1.000000000000000000 ) ) ;
#376 = DIRECTION ( 'NONE',  ( 0.5000000000000002220, -0.000000000000000000, 0.8660254037844384856 ) ) ;
#377 = PRODUCT ( 'CV03-TR-04_REV_B', 'CV03-TR-04_REV_B', '', ( #120 ) ) ;
ENDSEC;
END-ISO-10303-21;
