ISO-10303-21;
HEADER;
FILE_DESCRIPTION (( 'STEP AP203' ),
    '1' );
FILE_NAME ('CV03-TR-17_REV_B_d8fffed3d2904a7aa0042a2a36827e3d.tmp.step',
    '2026-07-11T06:45:13',
    ( '' ),
    ( '' ),
    'SwSTEP 2.0',
    'SolidWorks 2025',
    '' );
FILE_SCHEMA (( 'CONFIG_CONTROL_DESIGN' ));
ENDSEC;

DATA;
#1 = FACE_OUTER_BOUND ( 'NONE', #527, .T. ) ;
#2 = VERTEX_POINT ( 'NONE', #459 ) ;
#3 = DIRECTION ( 'NONE',  ( 1.000000000000000000, -5.551115123125788224E-15, -0.000000000000000000 ) ) ;
#4 = ORIENTED_EDGE ( 'NONE', *, *, #368, .T. ) ;
#5 = CARTESIAN_POINT ( 'NONE',  ( 349.9999999999996589, -1103.305262667904117, 25.00000000000045119 ) ) ;
#6 = ADVANCED_FACE ( 'NONE', ( #549 ), #452, .T. ) ;
#7 = CARTESIAN_POINT ( 'NONE',  ( 346.9999999999996589, -1156.305262667904117, -627.9999999999997726 ) ) ;
#8 = DATE_AND_TIME ( #923, #1028 ) ;
#9 = ORIENTED_EDGE ( 'NONE', *, *, #1100, .T. ) ;
#10 = CARTESIAN_POINT ( 'NONE',  ( 346.9999999999996589, -1107.305262667904117, -627.9999999999997726 ) ) ;
#11 = CARTESIAN_POINT ( 'NONE',  ( 346.9999999999996589, -1160.305262667904117, -626.9999999999997726 ) ) ;
#12 = VECTOR ( 'NONE', #110, 1000.000000000000000 ) ;
#13 = CIRCLE ( 'NONE', #965, 1.000000000000000888 ) ;
#14 = EDGE_CURVE ( 'NONE', #590, #325, #781, .T. ) ;
#15 = AXIS2_PLACEMENT_3D ( 'NONE', #1305, #119, #521 ) ;
#16 = AXIS2_PLACEMENT_3D ( 'NONE', #688, #964, #872 ) ;
#17 = CARTESIAN_POINT ( 'NONE',  ( 346.9999999999996589, -1108.305262667903889, -624.9999999999997726 ) ) ;
#18 = VECTOR ( 'NONE', #653, 1000.000000000000000 ) ;
#19 = ORIENTED_EDGE ( 'NONE', *, *, #515, .F. ) ;
#20 = DIRECTION ( 'NONE',  ( -1.000000000000000000, -0.000000000000000000, -0.000000000000000000 ) ) ;
#21 = CARTESIAN_POINT ( 'NONE',  ( 346.9999999999995453, -1156.305262667904117, -626.9999999999997726 ) ) ;
#22 = EDGE_CURVE ( 'NONE', #414, #512, #970, .T. ) ;
#23 = ORIENTED_EDGE ( 'NONE', *, *, #46, .F. ) ;
#24 = LINE ( 'NONE', #150, #166 ) ;
#25 = ORIENTED_EDGE ( 'NONE', *, *, #727, .T. ) ;
#26 = FACE_OUTER_BOUND ( 'NONE', #777, .T. ) ;
#27 = VERTEX_POINT ( 'NONE', #1260 ) ;
#28 = DIRECTION ( 'NONE',  ( 1.000000000000000000, 0.000000000000000000, 0.000000000000000000 ) ) ;
#29 = EDGE_CURVE ( 'NONE', #884, #71, #406, .T. ) ;
#30 = ORIENTED_EDGE ( 'NONE', *, *, #491, .T. ) ;
#31 = CARTESIAN_POINT ( 'NONE',  ( 346.9999999999996589, -1160.305262667904117, 25.00000000000045119 ) ) ;
#32 = AXIS2_PLACEMENT_3D ( 'NONE', #768, #261, #281 ) ;
#33 = ORIENTED_EDGE ( 'NONE', *, *, #996, .F. ) ;
#34 = PLANE ( 'NONE',  #1136 ) ;
#35 = VECTOR ( 'NONE', #596, 1000.000000000000000 ) ;
#36 = EDGE_LOOP ( 'NONE', ( #700, #882, #640, #771 ) ) ;
#37 = EDGE_CURVE ( 'NONE', #890, #1047, #1065, .T. ) ;
#38 = DIRECTION ( 'NONE',  ( 1.000000000000000000, 0.000000000000000000, -0.000000000000000000 ) ) ;
#39 = CC_DESIGN_APPROVAL ( #724, ( #1141 ) ) ;
#40 = FACE_OUTER_BOUND ( 'NONE', #948, .T. ) ;
#41 = ORIENTED_EDGE ( 'NONE', *, *, #1270, .T. ) ;
#42 = CARTESIAN_POINT ( 'NONE',  ( 346.9999999999996589, -1160.305262667904117, 31.00000000000047251 ) ) ;
#43 = ORIENTED_EDGE ( 'NONE', *, *, #569, .F. ) ;
#44 = CARTESIAN_POINT ( 'NONE',  ( 343.9999999999996589, -1160.305262667904117, -624.9999999999997726 ) ) ;
#45 = CARTESIAN_POINT ( 'NONE',  ( 346.9999999999996589, -1156.305262667904117, 28.00000000000046185 ) ) ;
#46 = EDGE_CURVE ( 'NONE', #440, #328, #875, .T. ) ;
#47 = CARTESIAN_POINT ( 'NONE',  ( 346.9999999999996589, -1108.305262667903889, 31.00000000000048672 ) ) ;
#48 = CARTESIAN_POINT ( 'NONE',  ( 343.9999999999996589, -1160.305262667904117, 104.7558775263622834 ) ) ;
#49 = ORIENTED_EDGE ( 'NONE', *, *, #262, .T. ) ;
#50 = DIRECTION ( 'NONE',  ( 1.000000000000000000, 0.000000000000000000, 0.000000000000000000 ) ) ;
#51 = CARTESIAN_POINT ( 'NONE',  ( 349.9999999999996589, -1103.305262667904117, 27.00000000000046896 ) ) ;
#52 = EDGE_CURVE ( 'NONE', #1047, #71, #1266, .T. ) ;
#53 = AXIS2_PLACEMENT_3D ( 'NONE', #392, #1010, #985 ) ;
#54 = EDGE_LOOP ( 'NONE', ( #999, #277, #811, #1033 ) ) ;
#55 = CARTESIAN_POINT ( 'NONE',  ( 346.9999999999996589, -1155.305262667904117, -627.9999999999997726 ) ) ;
#56 = AXIS2_PLACEMENT_3D ( 'NONE', #1014, #1205, #109 ) ;
#57 = ORIENTED_EDGE ( 'NONE', *, *, #554, .T. ) ;
#58 = AXIS2_PLACEMENT_3D ( 'NONE', #343, #545, #1127 ) ;
#59 = DIRECTION ( 'NONE',  ( -1.000000000000000000, 0.000000000000000000, -0.000000000000000000 ) ) ;
#60 = VECTOR ( 'NONE', #759, 1000.000000000000000 ) ;
#61 = DIRECTION ( 'NONE',  ( 0.000000000000000000, 0.000000000000000000, -1.000000000000000000 ) ) ;
#62 = AXIS2_PLACEMENT_3D ( 'NONE', #47, #1060, #855 ) ;
#63 = CARTESIAN_POINT ( 'NONE',  ( 309.9999999999996021, -1166.305262667903889, 104.7558775263622834 ) ) ;
#64 = DIRECTION ( 'NONE',  ( -0.000000000000000000, -0.000000000000000000, -1.000000000000000000 ) ) ;
#65 = EDGE_CURVE ( 'NONE', #1281, #1167, #894, .T. ) ;
#66 = VERTEX_POINT ( 'NONE', #412 ) ;
#67 = LINE ( 'NONE', #668, #1237 ) ;
#68 = CARTESIAN_POINT ( 'NONE',  ( 349.9999999999996589, -1155.305262667904117, -624.9999999999997726 ) ) ;
#69 = ORIENTED_EDGE ( 'NONE', *, *, #848, .T. ) ;
#70 = DIRECTION ( 'NONE',  ( 0.000000000000000000, -1.000000000000000000, -0.000000000000000000 ) ) ;
#71 = VERTEX_POINT ( 'NONE', #788 ) ;
#72 = DIRECTION ( 'NONE',  ( -1.000000000000000000, -0.000000000000000000, -0.000000000000000000 ) ) ;
#73 = ADVANCED_FACE ( 'NONE', ( #1085 ), #578, .T. ) ;
#74 = CARTESIAN_POINT ( 'NONE',  ( 346.9999999999996589, -1103.305262667904117, 28.00000000000046896 ) ) ;
#75 = VERTEX_POINT ( 'NONE', #1217 ) ;
#76 = CARTESIAN_POINT ( 'NONE',  ( 343.9999999999996589, -1097.305262667903889, 25.00000000000046541 ) ) ;
#77 = AXIS2_PLACEMENT_3D ( 'NONE', #1192, #315, #704 ) ;
#78 = AXIS2_PLACEMENT_3D ( 'NONE', #133, #936, #1240 ) ;
#79 = VERTEX_POINT ( 'NONE', #1286 ) ;
#80 = CARTESIAN_POINT ( 'NONE',  ( 309.9999999999996021, -1100.305262667903662, -624.9999999999997726 ) ) ;
#81 = ADVANCED_FACE ( 'NONE', ( #1 ), #91, .F. ) ;
#82 = CARTESIAN_POINT ( 'NONE',  ( 346.9999999999996589, -1155.305262667904117, 25.00000000000045119 ) ) ;
#83 = VECTOR ( 'NONE', #827, 1000.000000000000000 ) ;
#84 = CARTESIAN_POINT ( 'NONE',  ( -1090.972523324354370, -1166.305262667895931, -624.9999999999997726 ) ) ;
#85 = LINE ( 'NONE', #379, #968 ) ;
#86 = ORIENTED_EDGE ( 'NONE', *, *, #489, .F. ) ;
#87 = DIRECTION ( 'NONE',  ( 0.000000000000000000, 0.000000000000000000, 1.000000000000000000 ) ) ;
#88 = AXIS2_PLACEMENT_3D ( 'NONE', #443, #361, #434 ) ;
#89 = CARTESIAN_POINT ( 'NONE',  ( 309.9999999999996021, -1097.305262667903889, 104.7558775263622834 ) ) ;
#90 = ADVANCED_FACE ( 'NONE', ( #698 ), #404, .T. ) ;
#91 = PLANE ( 'NONE',  #1042 ) ;
#92 = APPROVAL_STATUS ( 'not_yet_approved' ) ;
#93 = ORIENTED_EDGE ( 'NONE', *, *, #600, .T. ) ;
#94 = FACE_OUTER_BOUND ( 'NONE', #54, .T. ) ;
#95 = FACE_OUTER_BOUND ( 'NONE', #388, .T. ) ;
#96 = ADVANCED_FACE ( 'NONE', ( #198 ), #1101, .F. ) ;
#97 = CARTESIAN_POINT ( 'NONE',  ( 349.9999999999996589, -1103.305262667904117, 104.7558775263622834 ) ) ;
#98 = ORIENTED_EDGE ( 'NONE', *, *, #1278, .F. ) ;
#99 = DIRECTION ( 'NONE',  ( 1.000000000000000000, 0.000000000000000000, 0.000000000000000000 ) ) ;
#100 = ORIENTED_EDGE ( 'NONE', *, *, #29, .T. ) ;
#101 = PLANE ( 'NONE',  #15 ) ;
#102 = VECTOR ( 'NONE', #956, 1000.000000000000000 ) ;
#103 = LINE ( 'NONE', #1094, #12 ) ;
#104 = MECHANICAL_CONTEXT ( 'NONE', #1058, 'mechanical' ) ;
#105 = ORIENTED_EDGE ( 'NONE', *, *, #913, .T. ) ;
#106 = CARTESIAN_POINT ( 'NONE',  ( 346.9999999999996589, -1160.305262667904117, 104.7558775263622834 ) ) ;
#107 = EDGE_CURVE ( 'NONE', #79, #253, #809, .T. ) ;
#108 = EDGE_LOOP ( 'NONE', ( #708, #546, #929, #30 ) ) ;
#109 = DIRECTION ( 'NONE',  ( 0.000000000000000000, 0.000000000000000000, -1.000000000000000000 ) ) ;
#110 = DIRECTION ( 'NONE',  ( 1.000000000000000000, -0.000000000000000000, -0.000000000000000000 ) ) ;
#111 = DATE_AND_TIME ( #1292, #588 ) ;
#112 = ORIENTED_EDGE ( 'NONE', *, *, #347, .T. ) ;
#113 = DIRECTION ( 'NONE',  ( -1.000000000000000000, -0.000000000000000000, -0.000000000000000000 ) ) ;
#114 = EDGE_CURVE ( 'NONE', #819, #573, #510, .T. ) ;
#115 = DIRECTION ( 'NONE',  ( -5.551115123125788224E-15, -1.000000000000000000, 0.000000000000000000 ) ) ;
#116 = FACE_OUTER_BOUND ( 'NONE', #738, .T. ) ;
#117 = ORIENTED_EDGE ( 'NONE', *, *, #969, .F. ) ;
#118 = PLANE ( 'NONE',  #144 ) ;
#119 = DIRECTION ( 'NONE',  ( 0.000000000000000000, 1.000000000000000000, 0.000000000000000000 ) ) ;
#120 = VECTOR ( 'NONE', #352, 1000.000000000000000 ) ;
#121 = EDGE_CURVE ( 'NONE', #1167, #350, #103, .T. ) ;
#122 = EDGE_CURVE ( 'NONE', #1279, #142, #422, .T. ) ;
#123 = VECTOR ( 'NONE', #1162, 1000.000000000000000 ) ;
#124 = AXIS2_PLACEMENT_3D ( 'NONE', #48, #436, #622 ) ;
#125 = ORIENTED_EDGE ( 'NONE', *, *, #237, .T. ) ;
#126 = LINE ( 'NONE', #748, #1071 ) ;
#127 = EDGE_LOOP ( 'NONE', ( #1052, #145, #1235, #471 ) ) ;
#128 = FACE_OUTER_BOUND ( 'NONE', #610, .T. ) ;
#129 = ADVANCED_FACE ( 'NONE', ( #589 ), #907, .F. ) ;
#130 = ORIENTED_EDGE ( 'NONE', *, *, #1123, .T. ) ;
#131 = LINE ( 'NONE', #526, #841 ) ;
#132 = ORIENTED_EDGE ( 'NONE', *, *, #360, .T. ) ;
#133 = CARTESIAN_POINT ( 'NONE',  ( 346.9999999999996589, -1103.305262667904117, 31.00000000000048672 ) ) ;
#134 = CC_DESIGN_PERSON_AND_ORGANIZATION_ASSIGNMENT ( #207, #214, ( #909 ) ) ;
#135 = EDGE_LOOP ( 'NONE', ( #764, #1044, #41, #924 ) ) ;
#136 = CARTESIAN_POINT ( 'NONE',  ( 346.9999999999996589, -1155.305262667904117, 31.00000000000047251 ) ) ;
#137 = ORIENTED_EDGE ( 'NONE', *, *, #893, .F. ) ;
#138 = PLANE ( 'NONE',  #340 ) ;
#139 = CARTESIAN_POINT ( 'NONE',  ( 346.9999999999996589, -1108.305262667903889, 27.00000000000046896 ) ) ;
#140 = AXIS2_PLACEMENT_3D ( 'NONE', #1059, #61, #753 ) ;
#141 = AXIS2_PLACEMENT_3D ( 'NONE', #697, #1210, #197 ) ;
#142 = VERTEX_POINT ( 'NONE', #1291 ) ;
#143 = DIRECTION ( 'NONE',  ( 1.000000000000000000, 0.000000000000000000, 0.000000000000000000 ) ) ;
#144 = AXIS2_PLACEMENT_3D ( 'NONE', #701, #1295, #415 ) ;
#145 = ORIENTED_EDGE ( 'NONE', *, *, #928, .T. ) ;
#146 = FACE_OUTER_BOUND ( 'NONE', #718, .T. ) ;
#147 = ADVANCED_FACE ( 'NONE', ( #995 ), #290, .T. ) ;
#148 = FACE_OUTER_BOUND ( 'NONE', #896, .T. ) ;
#149 = ORIENTED_EDGE ( 'NONE', *, *, #831, .T. ) ;
#150 = CARTESIAN_POINT ( 'NONE',  ( -1090.972523324353915, -1097.305262667903889, -624.9999999999997726 ) ) ;
#151 = ORIENTED_EDGE ( 'NONE', *, *, #489, .T. ) ;
#152 = DIRECTION ( 'NONE',  ( 0.000000000000000000, 0.000000000000000000, 1.000000000000000000 ) ) ;
#153 = EDGE_CURVE ( 'NONE', #1167, #493, #1200, .T. ) ;
#154 = DIRECTION ( 'NONE',  ( 0.000000000000000000, 0.000000000000000000, -1.000000000000000000 ) ) ;
#155 = ORIENTED_EDGE ( 'NONE', *, *, #1142, .T. ) ;
#156 = ORIENTED_EDGE ( 'NONE', *, *, #893, .T. ) ;
#157 = CARTESIAN_POINT ( 'NONE',  ( 346.9999999999996589, -1160.305262667904117, -630.9999999999995453 ) ) ;
#158 = DIRECTION ( 'NONE',  ( 0.000000000000000000, -1.000000000000000000, 0.000000000000000000 ) ) ;
#159 = EDGE_CURVE ( 'NONE', #228, #567, #608, .T. ) ;
#160 = AXIS2_PLACEMENT_3D ( 'NONE', #1159, #868, #847 ) ;
#161 = VERTEX_POINT ( 'NONE', #899 ) ;
#162 = DIRECTION ( 'NONE',  ( -1.000000000000000000, -0.000000000000000000, -0.000000000000000000 ) ) ;
#163 = AXIS2_PLACEMENT_3D ( 'NONE', #74, #782, #1185 ) ;
#164 = VECTOR ( 'NONE', #833, 1000.000000000000000 ) ;
#165 = VERTEX_POINT ( 'NONE', #7 ) ;
#166 = VECTOR ( 'NONE', #550, 1000.000000000000000 ) ;
#167 = DIRECTION ( 'NONE',  ( -0.000000000000000000, -1.000000000000000000, -0.000000000000000000 ) ) ;
#168 = DIRECTION ( 'NONE',  ( 0.000000000000000000, -0.000000000000000000, 1.000000000000000000 ) ) ;
#169 = VECTOR ( 'NONE', #770, 1000.000000000000000 ) ;
#170 = EDGE_CURVE ( 'NONE', #161, #1039, #749, .T. ) ;
#171 = ORIENTED_EDGE ( 'NONE', *, *, #384, .F. ) ;
#172 = CARTESIAN_POINT ( 'NONE',  ( 346.9999999999996589, -1108.305262667903889, -626.9999999999997726 ) ) ;
#173 = ORIENTED_EDGE ( 'NONE', *, *, #689, .F. ) ;
#174 = DIRECTION ( 'NONE',  ( -0.000000000000000000, 0.000000000000000000, -1.000000000000000000 ) ) ;
#175 = FACE_OUTER_BOUND ( 'NONE', #987, .T. ) ;
#176 = VERTEX_POINT ( 'NONE', #503 ) ;
#177 = ORIENTED_EDGE ( 'NONE', *, *, #122, .F. ) ;
#178 = CARTESIAN_POINT ( 'NONE',  ( 346.9999999999996589, -1159.305262667904117, -627.9999999999997726 ) ) ;
#179 = FACE_OUTER_BOUND ( 'NONE', #1304, .T. ) ;
#180 = DIRECTION ( 'NONE',  ( 0.000000000000000000, 0.000000000000000000, -1.000000000000000000 ) ) ;
#181 = VERTEX_POINT ( 'NONE', #45 ) ;
#182 = LINE ( 'NONE', #80, #643 ) ;
#183 = VECTOR ( 'NONE', #113, 1000.000000000000000 ) ;
#184 = EDGE_CURVE ( 'NONE', #1047, #1156, #559, .T. ) ;
#185 = DIRECTION ( 'NONE',  ( 0.000000000000000000, 0.000000000000000000, -1.000000000000000000 ) ) ;
#186 = DIRECTION ( 'NONE',  ( -0.000000000000000000, -0.000000000000000000, -1.000000000000000000 ) ) ;
#187 = CARTESIAN_POINT ( 'NONE',  ( 0.000000000000000000, 0.000000000000000000, 0.000000000000000000 ) ) ;
#188 = ORIENTED_EDGE ( 'NONE', *, *, #1225, .T. ) ;
#189 = CARTESIAN_POINT ( 'NONE',  ( 346.9999999999996589, -1159.305262667904117, 27.00000000000046185 ) ) ;
#190 = CARTESIAN_POINT ( 'NONE',  ( 343.9999999999996589, -1160.305262667904117, 25.00000000000045119 ) ) ;
#191 = ADVANCED_FACE ( 'NONE', ( #40 ), #745, .T. ) ;
#192 = DIRECTION ( 'NONE',  ( 0.000000000000000000, 1.000000000000000000, 0.000000000000000000 ) ) ;
#193 = SECURITY_CLASSIFICATION_LEVEL ( 'unclassified' ) ;
#194 = ORIENTED_EDGE ( 'NONE', *, *, #153, .T. ) ;
#195 = DIRECTION ( 'NONE',  ( 0.000000000000000000, -1.000000000000000000, 0.000000000000000000 ) ) ;
#196 = ORIENTED_EDGE ( 'NONE', *, *, #170, .T. ) ;
#197 = DIRECTION ( 'NONE',  ( -1.000000000000000000, 5.551115123125788224E-15, 0.000000000000000000 ) ) ;
#198 = FACE_OUTER_BOUND ( 'NONE', #942, .T. ) ;
#199 = ADVANCED_FACE ( 'NONE', ( #1152 ), #636, .T. ) ;
#200 = APPROVAL_ROLE ( '' ) ;
#201 = ORIENTED_EDGE ( 'NONE', *, *, #303, .F. ) ;
#202 = FACE_OUTER_BOUND ( 'NONE', #135, .T. ) ;
#203 = EDGE_LOOP ( 'NONE', ( #1175, #1189, #1239, #603 ) ) ;
#204 = CARTESIAN_POINT ( 'NONE',  ( 349.9999999999996589, -1160.305262667904117, 104.7558775263622834 ) ) ;
#205 = VECTOR ( 'NONE', #20, 1000.000000000000000 ) ;
#206 = CARTESIAN_POINT ( 'NONE',  ( 346.9999999999996589, -1103.305262667904117, -630.9999999999995453 ) ) ;
#207 = PERSON_AND_ORGANIZATION ( #954, #524 ) ;
#208 = EDGE_CURVE ( 'NONE', #2, #253, #1090, .T. ) ;
#209 = ORIENTED_EDGE ( 'NONE', *, *, #1218, .F. ) ;
#210 = LINE ( 'NONE', #820, #35 ) ;
#211 = ORIENTED_EDGE ( 'NONE', *, *, #1129, .T. ) ;
#212 = DIRECTION ( 'NONE',  ( 0.000000000000000000, 0.000000000000000000, 1.000000000000000000 ) ) ;
#213 = DIRECTION ( 'NONE',  ( -1.000000000000000000, -0.000000000000000000, -0.000000000000000000 ) ) ;
#214 = PERSON_AND_ORGANIZATION_ROLE ( 'design_owner' ) ;
#215 = ORIENTED_EDGE ( 'NONE', *, *, #990, .T. ) ;
#216 = CARTESIAN_POINT ( 'NONE',  ( 346.9999999999996589, -1155.305262667904117, 27.00000000000046185 ) ) ;
#217 = CC_DESIGN_PERSON_AND_ORGANIZATION_ASSIGNMENT ( #393, #817, ( #1141 ) ) ;
#218 = LINE ( 'NONE', #1027, #476 ) ;
#219 = LINE ( 'NONE', #542, #794 ) ;
#220 = VERTEX_POINT ( 'NONE', #17 ) ;
#221 = CARTESIAN_POINT ( 'NONE',  ( 346.9999999999996589, -1093.805262667903889, -624.9999999999997726 ) ) ;
#222 = ORIENTED_EDGE ( 'NONE', *, *, #1285, .T. ) ;
#223 = LINE ( 'NONE', #295, #1174 ) ;
#224 = VECTOR ( 'NONE', #966, 1000.000000000000000 ) ;
#225 = EDGE_CURVE ( 'NONE', #75, #1061, #1131, .T. ) ;
#226 = ORIENTED_EDGE ( 'NONE', *, *, #255, .T. ) ;
#227 = CARTESIAN_POINT ( 'NONE',  ( 346.9999999999996589, -1103.305262667904117, -626.9999999999997726 ) ) ;
#228 = VERTEX_POINT ( 'NONE', #51 ) ;
#229 = CARTESIAN_POINT ( 'NONE',  ( 346.9999999999995453, -1104.305262667903889, -626.9999999999997726 ) ) ;
#230 = VECTOR ( 'NONE', #961, 1000.000000000000000 ) ;
#231 = AXIS2_PLACEMENT_3D ( 'NONE', #44, #641, #50 ) ;
#232 = ADVANCED_FACE ( 'NONE', ( #649 ), #721, .T. ) ;
#233 = ORIENTED_EDGE ( 'NONE', *, *, #1046, .T. ) ;
#234 = CARTESIAN_POINT ( 'NONE',  ( 309.9999999999996021, -1100.305262667903662, 25.00000000000046541 ) ) ;
#235 = ORIENTED_EDGE ( 'NONE', *, *, #673, .T. ) ;
#236 = CARTESIAN_POINT ( 'NONE',  ( 346.9999999999996589, -1103.305262667904117, 28.00000000000046896 ) ) ;
#237 = EDGE_CURVE ( 'NONE', #426, #27, #1063, .T. ) ;
#238 = ORIENTED_EDGE ( 'NONE', *, *, #586, .F. ) ;
#239 = CARTESIAN_POINT ( 'NONE',  ( 309.9999999999996021, -1163.305262667903889, 104.7558775263622834 ) ) ;
#240 = ORIENTED_EDGE ( 'NONE', *, *, #107, .F. ) ;
#241 = CARTESIAN_POINT ( 'NONE',  ( 346.9999999999996589, -1103.305262667904117, -627.9999999999997726 ) ) ;
#242 = LINE ( 'NONE', #1125, #773 ) ;
#243 = ORIENTED_EDGE ( 'NONE', *, *, #1262, .T. ) ;
#244 = LINE ( 'NONE', #221, #457 ) ;
#245 = AXIS2_PLACEMENT_3D ( 'NONE', #978, #1184, #59 ) ;
#246 = AXIS2_PLACEMENT_3D ( 'NONE', #1261, #568, #258 ) ;
#247 = ADVANCED_FACE ( 'NONE', ( #148 ), #922, .F. ) ;
#248 = ORIENTED_EDGE ( 'NONE', *, *, #1036, .T. ) ;
#249 = LINE ( 'NONE', #1232, #60 ) ;
#250 = DIRECTION ( 'NONE',  ( 0.000000000000000000, 0.000000000000000000, -1.000000000000000000 ) ) ;
#251 = ORIENTED_EDGE ( 'NONE', *, *, #1163, .T. ) ;
#252 = CARTESIAN_POINT ( 'NONE',  ( 349.9999999999996589, -1108.305262667903889, 104.7558775263622834 ) ) ;
#253 = VERTEX_POINT ( 'NONE', #714 ) ;
#254 = CARTESIAN_POINT ( 'NONE',  ( -1090.972523324354370, -1166.305262667895931, 25.00000000000045119 ) ) ;
#255 = EDGE_CURVE ( 'NONE', #338, #75, #242, .T. ) ;
#256 = CARTESIAN_POINT ( 'NONE',  ( 346.9999999999996589, -1104.305262667903889, 27.00000000000046896 ) ) ;
#257 = DIRECTION ( 'NONE',  ( -1.000000000000000000, 0.000000000000000000, 0.000000000000000000 ) ) ;
#258 = DIRECTION ( 'NONE',  ( -1.000000000000000000, 0.000000000000000000, 0.000000000000000000 ) ) ;
#259 = ORIENTED_EDGE ( 'NONE', *, *, #848, .F. ) ;
#260 = DIRECTION ( 'NONE',  ( 0.000000000000000000, -1.000000000000000000, 0.000000000000000000 ) ) ;
#261 = DIRECTION ( 'NONE',  ( 1.000000000000000000, 0.000000000000000000, 0.000000000000000000 ) ) ;
#262 = EDGE_CURVE ( 'NONE', #1039, #803, #219, .T. ) ;
#263 = VECTOR ( 'NONE', #1276, 1000.000000000000000 ) ;
#264 = AXIS2_PLACEMENT_3D ( 'NONE', #984, #115, #1223 ) ;
#265 = ORIENTED_EDGE ( 'NONE', *, *, #515, .T. ) ;
#266 = FACE_OUTER_BOUND ( 'NONE', #877, .T. ) ;
#267 = VECTOR ( 'NONE', #1110, 1000.000000000000000 ) ;
#268 = CARTESIAN_POINT ( 'NONE',  ( -1090.972523324353915, -1100.305262667903662, -624.9999999999997726 ) ) ;
#269 = VECTOR ( 'NONE', #152, 1000.000000000000000 ) ;
#270 = LINE ( 'NONE', #1099, #263 ) ;
#271 = LOCAL_TIME ( 16, 45, 13.00000000000000000, #398 ) ;
#272 = EDGE_CURVE ( 'NONE', #440, #1082, #761, .T. ) ;
#273 = ORIENTED_EDGE ( 'NONE', *, *, #1055, .F. ) ;
#274 = DIRECTION ( 'NONE',  ( 1.000000000000000000, 0.000000000000000000, 0.000000000000000000 ) ) ;
#275 = LINE ( 'NONE', #178, #1115 ) ;
#276 = CARTESIAN_POINT ( 'NONE',  ( 349.9999999999996589, -1159.305262667904117, -627.9999999999997726 ) ) ;
#277 = ORIENTED_EDGE ( 'NONE', *, *, #451, .F. ) ;
#278 = LINE ( 'NONE', #172, #1095 ) ;
#279 = ADVANCED_FACE ( 'NONE', ( #116 ), #445, .T. ) ;
#280 = PLANE ( 'NONE',  #480 ) ;
#281 = DIRECTION ( 'NONE',  ( 0.000000000000000000, 0.000000000000000000, -1.000000000000000000 ) ) ;
#282 = CARTESIAN_POINT ( 'NONE',  ( 346.9999999999996589, -1093.805262667903889, 25.00000000000045119 ) ) ;
#283 = PERSON_AND_ORGANIZATION ( #954, #524 ) ;
#284 = VECTOR ( 'NONE', #289, 1000.000000000000000 ) ;
#285 = ORIENTED_EDGE ( 'NONE', *, *, #114, .F. ) ;
#286 = DIRECTION ( 'NONE',  ( -1.000000000000000000, 5.551115123125788224E-15, 0.000000000000000000 ) ) ;
#287 = ADVANCED_FACE ( 'NONE', ( #861 ), #959, .F. ) ;
#288 = AXIS2_PLACEMENT_3D ( 'NONE', #1176, #373, #481 ) ;
#289 = DIRECTION ( 'NONE',  ( -0.000000000000000000, 0.000000000000000000, -1.000000000000000000 ) ) ;
#290 = PLANE ( 'NONE',  #599 ) ;
#291 = PERSON_AND_ORGANIZATION_ROLE ( 'classification_officer' ) ;
#292 = ORIENTED_EDGE ( 'NONE', *, *, #65, .T. ) ;
#293 = DIRECTION ( 'NONE',  ( 1.000000000000000000, 0.000000000000000000, 0.000000000000000000 ) ) ;
#294 = CC_DESIGN_PERSON_AND_ORGANIZATION_ASSIGNMENT ( #602, #796, ( #1141 ) ) ;
#295 = CARTESIAN_POINT ( 'NONE',  ( 346.9999999999996589, -1108.305262667903889, 25.00000000000045119 ) ) ;
#296 = EDGE_CURVE ( 'NONE', #2, #461, #1246, .T. ) ;
#297 = DIRECTION ( 'NONE',  ( 0.000000000000000000, -1.000000000000000000, 0.000000000000000000 ) ) ;
#298 = DATE_AND_TIME ( #895, #1009 ) ;
#299 = ORIENTED_EDGE ( 'NONE', *, *, #1241, .T. ) ;
#300 = DIRECTION ( 'NONE',  ( 0.000000000000000000, -1.000000000000000000, 0.000000000000000000 ) ) ;
#301 = VERTEX_POINT ( 'NONE', #1259 ) ;
#302 = CARTESIAN_POINT ( 'NONE',  ( 346.9999999999996589, -1103.305262667904117, 25.00000000000045119 ) ) ;
#303 = EDGE_CURVE ( 'NONE', #1156, #512, #362, .T. ) ;
#304 = DIRECTION ( 'NONE',  ( -1.000000000000000000, 0.000000000000000000, 0.000000000000000000 ) ) ;
#305 = COORDINATED_UNIVERSAL_TIME_OFFSET ( 10, 0, .AHEAD. ) ;
#306 = VECTOR ( 'NONE', #297, 1000.000000000000000 ) ;
#307 = VERTEX_POINT ( 'NONE', #463 ) ;
#308 = CARTESIAN_POINT ( 'NONE',  ( 346.9999999999996589, -1155.305262667904117, 27.00000000000046185 ) ) ;
#309 = VECTOR ( 'NONE', #496, 1000.000000000000000 ) ;
#310 = ORIENTED_EDGE ( 'NONE', *, *, #52, .T. ) ;
#311 = DIRECTION ( 'NONE',  ( 0.000000000000000000, 0.000000000000000000, 1.000000000000000000 ) ) ;
#312 = VECTOR ( 'NONE', #702, 1000.000000000000000 ) ;
#313 = AXIS2_PLACEMENT_3D ( 'NONE', #462, #1077, #174 ) ;
#314 = EDGE_CURVE ( 'NONE', #301, #1154, #1120, .T. ) ;
#315 = DIRECTION ( 'NONE',  ( 0.000000000000000000, -1.369518533665899079E-16, 1.000000000000000000 ) ) ;
#316 = DIRECTION ( 'NONE',  ( 1.000000000000000000, 0.000000000000000000, 0.000000000000000000 ) ) ;
#317 = APPLICATION_CONTEXT ( 'configuration controlled 3d designs of mechanical parts and assemblies' ) ;
#318 = ORIENTED_EDGE ( 'NONE', *, *, #507, .T. ) ;
#319 = CARTESIAN_POINT ( 'NONE',  ( -1090.972523324353915, -1097.305262667903889, 104.7558775263622834 ) ) ;
#320 = CARTESIAN_POINT ( 'NONE',  ( 349.9999999999996589, -1103.305262667903889, -624.9999999999997726 ) ) ;
#321 = DIRECTION ( 'NONE',  ( 0.000000000000000000, 1.369518533665899079E-16, -1.000000000000000000 ) ) ;
#322 = EDGE_LOOP ( 'NONE', ( #498, #1183, #407, #466 ) ) ;
#323 = CARTESIAN_POINT ( 'NONE',  ( 346.9999999999996589, -1103.305262667904117, 27.00000000000046896 ) ) ;
#324 = EDGE_CURVE ( 'NONE', #394, #1111, #659, .T. ) ;
#325 = VERTEX_POINT ( 'NONE', #1084 ) ;
#326 = CARTESIAN_POINT ( 'NONE',  ( 346.9999999999996589, -1103.305262667904117, 25.00000000000045119 ) ) ;
#327 = MANIFOLD_SOLID_BREP ( 'Convert-Solid1', #1118 ) ;
#328 = VERTEX_POINT ( 'NONE', #82 ) ;
#329 = LINE ( 'NONE', #1135, #402 ) ;
#330 = ORIENTED_EDGE ( 'NONE', *, *, #1046, .F. ) ;
#331 = EDGE_CURVE ( 'NONE', #1061, #1111, #660, .T. ) ;
#332 = LINE ( 'NONE', #951, #842 ) ;
#333 = CIRCLE ( 'NONE', #56, 1.000000000000000888 ) ;
#334 = AXIS2_PLACEMENT_3D ( 'NONE', #229, #1139, #1034 ) ;
#335 = VECTOR ( 'NONE', #195, 1000.000000000000000 ) ;
#336 = ORIENTED_EDGE ( 'NONE', *, *, #444, .F. ) ;
#337 = DIRECTION ( 'NONE',  ( 0.000000000000000000, -1.000000000000000000, -1.369518533665899079E-16 ) ) ;
#338 = VERTEX_POINT ( 'NONE', #879 ) ;
#339 = LINE ( 'NONE', #1258, #739 ) ;
#340 = AXIS2_PLACEMENT_3D ( 'NONE', #552, #455, #38 ) ;
#341 = EDGE_CURVE ( 'NONE', #1281, #904, #1170, .T. ) ;
#342 = ORIENTED_EDGE ( 'NONE', *, *, #1064, .T. ) ;
#343 = CARTESIAN_POINT ( 'NONE',  ( 349.9999999999995453, -1159.305262667904117, -626.9999999999997726 ) ) ;
#344 = EDGE_LOOP ( 'NONE', ( #240, #1026, #992, #518 ) ) ;
#345 = CARTESIAN_POINT ( 'NONE',  ( 346.9999999999996589, -1093.805262667903889, 25.00000000000045119 ) ) ;
#346 = DIRECTION ( 'NONE',  ( 0.000000000000000000, 1.369518533665899079E-16, -1.000000000000000000 ) ) ;
#347 = EDGE_CURVE ( 'NONE', #161, #165, #270, .T. ) ;
#348 = ORIENTED_EDGE ( 'NONE', *, *, #928, .F. ) ;
#349 = DIRECTION ( 'NONE',  ( 0.000000000000000000, 1.369518533665899079E-16, -1.000000000000000000 ) ) ;
#350 = VERTEX_POINT ( 'NONE', #898 ) ;
#351 = LINE ( 'NONE', #345, #381 ) ;
#352 = DIRECTION ( 'NONE',  ( 1.000000000000000000, -5.551115123125788224E-15, -0.000000000000000000 ) ) ;
#353 = AXIS2_PLACEMENT_3D ( 'NONE', #1284, #979, #892 ) ;
#354 = VECTOR ( 'NONE', #300, 1000.000000000000000 ) ;
#355 = CC_DESIGN_PERSON_AND_ORGANIZATION_ASSIGNMENT ( #716, #291, ( #670 ) ) ;
#356 = ORIENTED_EDGE ( 'NONE', *, *, #483, .F. ) ;
#357 = DIRECTION ( 'NONE',  ( -0.000000000000000000, -1.000000000000000000, -1.369518533665899079E-16 ) ) ;
#358 = CIRCLE ( 'NONE', #1299, 1.000000000000000888 ) ;
#359 = VECTOR ( 'NONE', #1056, 1000.000000000000000 ) ;
#360 = EDGE_CURVE ( 'NONE', #228, #79, #834, .T. ) ;
#361 = DIRECTION ( 'NONE',  ( 1.000000000000000000, -0.000000000000000000, -0.000000000000000000 ) ) ;
#362 = LINE ( 'NONE', #642, #120 ) ;
#363 = AXIS2_PLACEMENT_3D ( 'NONE', #187, #609, #316 ) ;
#364 = CARTESIAN_POINT ( 'NONE',  ( 343.9999999999996589, -1160.305262667904117, -624.9999999999997726 ) ) ;
#365 = CARTESIAN_POINT ( 'NONE',  ( 343.9999999999996589, -1100.305262667903662, -624.9999999999997726 ) ) ;
#366 = ORIENTED_EDGE ( 'NONE', *, *, #458, .F. ) ;
#367 = DIRECTION ( 'NONE',  ( 0.000000000000000000, -1.000000000000000000, 0.000000000000000000 ) ) ;
#368 = EDGE_CURVE ( 'NONE', #1279, #350, #690, .T. ) ;
#369 = DIRECTION ( 'NONE',  ( 0.000000000000000000, 0.000000000000000000, -1.000000000000000000 ) ) ;
#370 = ORIENTED_EDGE ( 'NONE', *, *, #952, .F. ) ;
#371 = LINE ( 'NONE', #55, #1137 ) ;
#372 = EDGE_LOOP ( 'NONE', ( #533, #1150, #531, #851 ) ) ;
#373 = DIRECTION ( 'NONE',  ( 1.000000000000000000, 0.000000000000000000, 0.000000000000000000 ) ) ;
#374 = ADVANCED_FACE ( 'NONE', ( #95 ), #994, .T. ) ;
#375 = PLANE ( 'NONE',  #941 ) ;
#376 = VECTOR ( 'NONE', #869, 1000.000000000000000 ) ;
#377 = VECTOR ( 'NONE', #594, 1000.000000000000000 ) ;
#378 = ORIENTED_EDGE ( 'NONE', *, *, #37, .T. ) ;
#379 = CARTESIAN_POINT ( 'NONE',  ( 346.9999999999996589, -1160.305262667904117, -626.9999999999997726 ) ) ;
#380 = ORIENTED_EDGE ( 'NONE', *, *, #1218, .T. ) ;
#381 = VECTOR ( 'NONE', #1157, 1000.000000000000000 ) ;
#382 = DIRECTION ( 'NONE',  ( -1.000000000000000000, -0.000000000000000000, -0.000000000000000000 ) ) ;
#383 = CARTESIAN_POINT ( 'NONE',  ( 349.9999999999996589, -1108.305262667903889, 27.00000000000046896 ) ) ;
#384 = EDGE_CURVE ( 'NONE', #1039, #399, #482, .T. ) ;
#385 = APPROVAL_PERSON_ORGANIZATION ( #1016, #1153, #1011 ) ;
#386 = ORIENTED_EDGE ( 'NONE', *, *, #497, .T. ) ;
#387 = LINE ( 'NONE', #252, #734 ) ;
#388 = EDGE_LOOP ( 'NONE', ( #238, #435, #105, #981 ) ) ;
#389 = CARTESIAN_POINT ( 'NONE',  ( 349.9999999999995453, -1107.305262667904117, -626.9999999999997726 ) ) ;
#390 = CARTESIAN_POINT ( 'NONE',  ( 346.9999999999996589, -1103.305262667904117, -626.9999999999997726 ) ) ;
#391 = ADVANCED_FACE ( 'NONE', ( #671 ), #1078, .T. ) ;
#392 = CARTESIAN_POINT ( 'NONE',  ( 346.9999999999996589, -1104.305262667903889, 27.00000000000046896 ) ) ;
#393 = PERSON_AND_ORGANIZATION ( #954, #524 ) ;
#394 = VERTEX_POINT ( 'NONE', #974 ) ;
#395 = FACE_OUTER_BOUND ( 'NONE', #955, .T. ) ;
#396 = FACE_OUTER_BOUND ( 'NONE', #539, .T. ) ;
#397 = CARTESIAN_POINT ( 'NONE',  ( 349.9999999999996589, -1108.305262667903889, 104.7558775263622834 ) ) ;
#398 = COORDINATED_UNIVERSAL_TIME_OFFSET ( 10, 0, .AHEAD. ) ;
#399 = VERTEX_POINT ( 'NONE', #68 ) ;
#400 = CARTESIAN_POINT ( 'NONE',  ( 346.9999999999996589, -1107.305262667904117, 27.00000000000046896 ) ) ;
#401 = ADVANCED_FACE ( 'NONE', ( #488 ), #874, .T. ) ;
#402 = VECTOR ( 'NONE', #628, 1000.000000000000000 ) ;
#403 = FACE_OUTER_BOUND ( 'NONE', #1073, .T. ) ;
#404 = PLANE ( 'NONE',  #77 ) ;
#405 = APPROVAL_DATE_TIME ( #298, #724 ) ;
#406 = CIRCLE ( 'NONE', #937, 6.000000000000005329 ) ;
#407 = ORIENTED_EDGE ( 'NONE', *, *, #775, .T. ) ;
#408 = CARTESIAN_POINT ( 'NONE',  ( 346.9999999999996589, -1159.305262667904117, 28.00000000000046185 ) ) ;
#409 = ORIENTED_EDGE ( 'NONE', *, *, #497, .F. ) ;
#410 = EDGE_CURVE ( 'NONE', #957, #884, #682, .T. ) ;
#411 = DIRECTION ( 'NONE',  ( 0.000000000000000000, -1.000000000000000000, 0.000000000000000000 ) ) ;
#412 = CARTESIAN_POINT ( 'NONE',  ( 346.9999999999996589, -1160.305262667904117, -624.9999999999997726 ) ) ;
#413 = PERSON_AND_ORGANIZATION_ROLE ( 'creator' ) ;
#414 = VERTEX_POINT ( 'NONE', #1271 ) ;
#415 = DIRECTION ( 'NONE',  ( 0.000000000000000000, 0.000000000000000000, 1.000000000000000000 ) ) ;
#416 = ORIENTED_EDGE ( 'NONE', *, *, #1147, .F. ) ;
#417 = CARTESIAN_POINT ( 'NONE',  ( 309.9999999999996021, -1100.305262667903662, -624.9999999999997726 ) ) ;
#418 = DIRECTION ( 'NONE',  ( 1.000000000000000000, -5.551115123125788224E-15, -0.000000000000000000 ) ) ;
#419 = DATE_TIME_ROLE ( 'creation_date' ) ;
#420 = ORIENTED_EDGE ( 'NONE', *, *, #887, .T. ) ;
#421 = LINE ( 'NONE', #1222, #543 ) ;
#422 = CIRCLE ( 'NONE', #661, 3.000000000000002665 ) ;
#423 = DIRECTION ( 'NONE',  ( 0.000000000000000000, 0.000000000000000000, -1.000000000000000000 ) ) ;
#424 = CARTESIAN_POINT ( 'NONE',  ( 349.9999999999996589, -1159.305262667904117, 27.00000000000046185 ) ) ;
#425 = ADVANCED_FACE ( 'NONE', ( #396 ), #375, .T. ) ;
#426 = VERTEX_POINT ( 'NONE', #383 ) ;
#427 = LINE ( 'NONE', #323, #83 ) ;
#428 = FACE_OUTER_BOUND ( 'NONE', #1098, .T. ) ;
#429 = CIRCLE ( 'NONE', #88, 1.000000000000000888 ) ;
#430 = ADVANCED_FACE ( 'NONE', ( #175 ), #572, .T. ) ;
#431 = VERTEX_POINT ( 'NONE', #276 ) ;
#432 = DIRECTION ( 'NONE',  ( 0.000000000000000000, 1.000000000000000000, 0.000000000000000000 ) ) ;
#433 = ORIENTED_EDGE ( 'NONE', *, *, #1180, .T. ) ;
#434 = DIRECTION ( 'NONE',  ( 0.000000000000000000, 0.000000000000000000, -1.000000000000000000 ) ) ;
#435 = ORIENTED_EDGE ( 'NONE', *, *, #864, .F. ) ;
#436 = DIRECTION ( 'NONE',  ( 0.000000000000000000, 0.000000000000000000, -1.000000000000000000 ) ) ;
#437 = VERTEX_POINT ( 'NONE', #678 ) ;
#438 = DIRECTION ( 'NONE',  ( -1.000000000000000000, 0.000000000000000000, 0.000000000000000000 ) ) ;
#439 = ADVANCED_FACE ( 'NONE', ( #179 ), #576, .T. ) ;
#440 = VERTEX_POINT ( 'NONE', #1105 ) ;
#441 = FACE_OUTER_BOUND ( 'NONE', #446, .T. ) ;
#442 = ORIENTED_EDGE ( 'NONE', *, *, #839, .T. ) ;
#443 = CARTESIAN_POINT ( 'NONE',  ( 346.9999999999996589, -1107.305262667904117, 27.00000000000046896 ) ) ;
#444 = EDGE_CURVE ( 'NONE', #1007, #181, #333, .T. ) ;
#445 = PLANE ( 'NONE',  #140 ) ;
#446 = EDGE_LOOP ( 'NONE', ( #725, #1254, #736, #137 ) ) ;
#447 = DIRECTION ( 'NONE',  ( -0.000000000000000000, -0.000000000000000000, -1.000000000000000000 ) ) ;
#448 = ORIENTED_EDGE ( 'NONE', *, *, #648, .F. ) ;
#449 = DIRECTION ( 'NONE',  ( 0.000000000000000000, -1.000000000000000000, 0.000000000000000000 ) ) ;
#450 = DIRECTION ( 'NONE',  ( 0.000000000000000000, 0.000000000000000000, 1.000000000000000000 ) ) ;
#451 = EDGE_CURVE ( 'NONE', #307, #426, #541, .T. ) ;
#452 = PLANE ( 'NONE',  #62 ) ;
#453 = CARTESIAN_POINT ( 'NONE',  ( 346.9999999999996589, -1155.305262667904117, -624.9999999999997726 ) ) ;
#454 = VERTEX_POINT ( 'NONE', #320 ) ;
#455 = DIRECTION ( 'NONE',  ( 0.000000000000000000, 0.000000000000000000, 1.000000000000000000 ) ) ;
#456 = CARTESIAN_POINT ( 'NONE',  ( 346.9999999999996589, -1155.305262667904117, 31.00000000000047251 ) ) ;
#457 = VECTOR ( 'NONE', #432, 1000.000000000000000 ) ;
#458 = EDGE_CURVE ( 'NONE', #165, #803, #13, .T. ) ;
#459 = CARTESIAN_POINT ( 'NONE',  ( 346.9999999999996589, -1103.305262667904117, 27.00000000000046896 ) ) ;
#460 = DIRECTION ( 'NONE',  ( -0.000000000000000000, -0.000000000000000000, 1.000000000000000000 ) ) ;
#461 = VERTEX_POINT ( 'NONE', #326 ) ;
#462 = CARTESIAN_POINT ( 'NONE',  ( 309.9999999999996021, -1100.305262667903662, 104.7558775263622834 ) ) ;
#463 = CARTESIAN_POINT ( 'NONE',  ( 349.9999999999996589, -1107.305262667904117, 28.00000000000046896 ) ) ;
#464 = CARTESIAN_POINT ( 'NONE',  ( 346.9999999999996589, -1155.305262667904117, 25.00000000000045119 ) ) ;
#465 = DIRECTION ( 'NONE',  ( -1.000000000000000000, -0.000000000000000000, -0.000000000000000000 ) ) ;
#466 = ORIENTED_EDGE ( 'NONE', *, *, #1195, .F. ) ;
#467 = DIRECTION ( 'NONE',  ( -1.000000000000000000, 0.000000000000000000, 0.000000000000000000 ) ) ;
#468 = CARTESIAN_POINT ( 'NONE',  ( 343.9999999999996589, -1100.305262667903662, 104.7558775263622834 ) ) ;
#469 = DIRECTION ( 'NONE',  ( 1.000000000000000000, 0.000000000000000000, 0.000000000000000000 ) ) ;
#470 = CARTESIAN_POINT ( 'NONE',  ( 309.9999999999996021, -1097.305262667903889, 25.00000000000046541 ) ) ;
#471 = ORIENTED_EDGE ( 'NONE', *, *, #1241, .F. ) ;
#472 = CARTESIAN_POINT ( 'NONE',  ( 349.9999999999996589, -1108.305262667903889, -626.9999999999997726 ) ) ;
#473 = ADVANCED_FACE ( 'NONE', ( #428 ), #720, .T. ) ;
#474 = DIRECTION ( 'NONE',  ( 0.000000000000000000, 0.000000000000000000, 1.000000000000000000 ) ) ;
#475 = VECTOR ( 'NONE', #346, 1000.000000000000000 ) ;
#476 = VECTOR ( 'NONE', #607, 1000.000000000000000 ) ;
#477 = ORIENTED_EDGE ( 'NONE', *, *, #483, .T. ) ;
#478 = CARTESIAN_POINT ( 'NONE',  ( -1090.972523324353915, -1097.305262667903889, 25.00000000000046541 ) ) ;
#479 = ORIENTED_EDGE ( 'NONE', *, *, #451, .T. ) ;
#480 = AXIS2_PLACEMENT_3D ( 'NONE', #766, #87, #286 ) ;
#481 = DIRECTION ( 'NONE',  ( 0.000000000000000000, 0.000000000000000000, -1.000000000000000000 ) ) ;
#482 = LINE ( 'NONE', #793, #837 ) ;
#483 = EDGE_CURVE ( 'NONE', #884, #66, #927, .T. ) ;
#484 = DIRECTION ( 'NONE',  ( 0.000000000000000000, 0.000000000000000000, 1.000000000000000000 ) ) ;
#485 = CARTESIAN_POINT ( 'NONE',  ( 346.9999999999996589, -1159.305262667904117, 27.00000000000046185 ) ) ;
#486 = EDGE_LOOP ( 'NONE', ( #1005, #1160, #9, #235 ) ) ;
#487 = FACE_OUTER_BOUND ( 'NONE', #762, .T. ) ;
#488 = FACE_OUTER_BOUND ( 'NONE', #564, .T. ) ;
#489 = EDGE_CURVE ( 'NONE', #803, #1037, #598, .T. ) ;
#490 = DIRECTION ( 'NONE',  ( 0.000000000000000000, -1.000000000000000000, 0.000000000000000000 ) ) ;
#491 = EDGE_CURVE ( 'NONE', #1154, #142, #1124, .T. ) ;
#492 = CALENDAR_DATE ( 2026, 11, 7 ) ;
#493 = VERTEX_POINT ( 'NONE', #417 ) ;
#494 = CARTESIAN_POINT ( 'NONE',  ( 349.9999999999996589, -1093.805262667903889, -627.9999999999997726 ) ) ;
#495 = DIRECTION ( 'NONE',  ( 1.000000000000000000, 0.000000000000000000, 0.000000000000000000 ) ) ;
#496 = DIRECTION ( 'NONE',  ( -0.000000000000000000, -0.000000000000000000, -1.000000000000000000 ) ) ;
#497 = EDGE_CURVE ( 'NONE', #79, #307, #615, .T. ) ;
#498 = ORIENTED_EDGE ( 'NONE', *, *, #765, .F. ) ;
#499 = LINE ( 'NONE', #804, #710 ) ;
#500 = AXIS2_PLACEMENT_3D ( 'NONE', #973, #676, #780 ) ;
#501 = ORIENTED_EDGE ( 'NONE', *, *, #184, .F. ) ;
#502 = DIRECTION ( 'NONE',  ( 0.000000000000000000, 0.000000000000000000, -1.000000000000000000 ) ) ;
#503 = CARTESIAN_POINT ( 'NONE',  ( 346.9999999999996589, -1108.305262667903889, 25.00000000000045119 ) ) ;
#504 = DATE_TIME_ROLE ( 'classification_date' ) ;
#505 = VERTEX_POINT ( 'NONE', #11 ) ;
#506 = LINE ( 'NONE', #911, #1158 ) ;
#507 = EDGE_CURVE ( 'NONE', #1082, #176, #223, .T. ) ;
#508 = ORIENTED_EDGE ( 'NONE', *, *, #1147, .T. ) ;
#509 = DIRECTION ( 'NONE',  ( 1.000000000000000000, 0.000000000000000000, 0.000000000000000000 ) ) ;
#510 = LINE ( 'NONE', #397, #815 ) ;
#511 = PERSON_AND_ORGANIZATION ( #954, #524 ) ;
#512 = VERTEX_POINT ( 'NONE', #905 ) ;
#513 = LINE ( 'NONE', #618, #354 ) ;
#514 = DIRECTION ( 'NONE',  ( -1.000000000000000000, -0.000000000000000000, -0.000000000000000000 ) ) ;
#515 = EDGE_CURVE ( 'NONE', #1221, #350, #218, .T. ) ;
#516 = CARTESIAN_POINT ( 'NONE',  ( 346.9999999999995453, -1159.305262667904117, -626.9999999999997726 ) ) ;
#517 = APPROVAL_STATUS ( 'not_yet_approved' ) ;
#518 = ORIENTED_EDGE ( 'NONE', *, *, #208, .T. ) ;
#519 = CARTESIAN_POINT ( 'NONE',  ( 343.9999999999996589, -1103.305262667903889, 25.00000000000045119 ) ) ;
#520 = VECTOR ( 'NONE', #514, 1000.000000000000000 ) ;
#521 = DIRECTION ( 'NONE',  ( 0.000000000000000000, 0.000000000000000000, 1.000000000000000000 ) ) ;
#522 = VECTOR ( 'NONE', #1243, 1000.000000000000000 ) ;
#523 = ADVANCED_FACE ( 'NONE', ( #128 ), #620, .T. ) ;
#524 = ORGANIZATION ( 'UNSPECIFIED', 'UNSPECIFIED', '' ) ;
#525 = ORIENTED_EDGE ( 'NONE', *, *, #717, .F. ) ;
#526 = CARTESIAN_POINT ( 'NONE',  ( 346.9999999999996589, -1104.305262667903889, -627.9999999999997726 ) ) ;
#527 = EDGE_LOOP ( 'NONE', ( #209, #1202, #477, #758 ) ) ;
#528 = CC_DESIGN_SECURITY_CLASSIFICATION ( #670, ( #1141 ) ) ;
#529 = CARTESIAN_POINT ( 'NONE',  ( 346.9999999999995453, -1156.305262667904117, -626.9999999999997726 ) ) ;
#530 = ADVANCED_FACE ( 'NONE', ( #403 ), #1215, .F. ) ;
#531 = ORIENTED_EDGE ( 'NONE', *, *, #765, .T. ) ;
#532 = CARTESIAN_POINT ( 'NONE',  ( 309.9999999999996021, -1163.305262667903889, -624.9999999999997726 ) ) ;
#533 = ORIENTED_EDGE ( 'NONE', *, *, #1225, .F. ) ;
#534 = CARTESIAN_POINT ( 'NONE',  ( 349.9999999999996589, -1108.305262667903889, -624.9999999999997726 ) ) ;
#535 = ORIENTED_EDGE ( 'NONE', *, *, #153, .F. ) ;
#536 = DIRECTION ( 'NONE',  ( 0.000000000000000000, 1.369518533665899079E-16, -1.000000000000000000 ) ) ;
#537 = ADVANCED_FACE ( 'NONE', ( #1000 ), #101, .F. ) ;
#538 = AXIS2_PLACEMENT_3D ( 'NONE', #802, #1206, #1001 ) ;
#539 = EDGE_LOOP ( 'NONE', ( #544, #845, #265, #1242 ) ) ;
#540 = DIRECTION ( 'NONE',  ( 0.000000000000000000, -0.000000000000000000, 1.000000000000000000 ) ) ;
#541 = CIRCLE ( 'NONE', #577, 1.000000000000000888 ) ;
#542 = CARTESIAN_POINT ( 'NONE',  ( 346.9999999999996589, -1155.305262667904117, -626.9999999999997726 ) ) ;
#543 = VECTOR ( 'NONE', #1302, 1000.000000000000000 ) ;
#544 = ORIENTED_EDGE ( 'NONE', *, *, #554, .F. ) ;
#545 = DIRECTION ( 'NONE',  ( 1.000000000000000000, 0.000000000000000000, 0.000000000000000000 ) ) ;
#546 = ORIENTED_EDGE ( 'NONE', *, *, #727, .F. ) ;
#547 = FACE_OUTER_BOUND ( 'NONE', #36, .T. ) ;
#548 = CARTESIAN_POINT ( 'NONE',  ( 349.9999999999996589, -1093.805262667903889, 25.00000000000045119 ) ) ;
#549 = FACE_OUTER_BOUND ( 'NONE', #826, .T. ) ;
#550 = DIRECTION ( 'NONE',  ( 1.000000000000000000, 0.000000000000000000, 0.000000000000000000 ) ) ;
#551 = ORIENTED_EDGE ( 'NONE', *, *, #1262, .F. ) ;
#552 = CARTESIAN_POINT ( 'NONE',  ( 343.9999999999996589, -1103.305262667903889, -624.9999999999997726 ) ) ;
#553 = DIRECTION ( 'NONE',  ( -1.000000000000000000, -0.000000000000000000, -0.000000000000000000 ) ) ;
#554 = EDGE_CURVE ( 'NONE', #567, #461, #807, .T. ) ;
#555 = CARTESIAN_POINT ( 'NONE',  ( 343.9999999999996589, -1163.305262667904117, 104.7558775263622834 ) ) ;
#556 = DIRECTION ( 'NONE',  ( -1.000000000000000000, -0.000000000000000000, -0.000000000000000000 ) ) ;
#557 = ORIENTED_EDGE ( 'NONE', *, *, #458, .T. ) ;
#558 = PLANE ( 'NONE',  #245 ) ;
#559 = LINE ( 'NONE', #824, #224 ) ;
#560 = VECTOR ( 'NONE', #566, 1000.000000000000000 ) ;
#561 = EDGE_CURVE ( 'NONE', #884, #1111, #1112, .T. ) ;
#562 = DIRECTION ( 'NONE',  ( 0.000000000000000000, 0.000000000000000000, 1.000000000000000000 ) ) ;
#563 = LINE ( 'NONE', #870, #169 ) ;
#564 = EDGE_LOOP ( 'NONE', ( #756, #1294, #1017, #342 ) ) ;
#565 = PLANE ( 'NONE',  #1298 ) ;
#566 = DIRECTION ( 'NONE',  ( -1.000000000000000000, -0.000000000000000000, -0.000000000000000000 ) ) ;
#567 = VERTEX_POINT ( 'NONE', #5 ) ;
#568 = DIRECTION ( 'NONE',  ( 0.000000000000000000, 0.000000000000000000, 1.000000000000000000 ) ) ;
#569 = EDGE_CURVE ( 'NONE', #493, #1279, #813, .T. ) ;
#570 = ORIENTED_EDGE ( 'NONE', *, *, #1081, .T. ) ;
#571 = FACE_OUTER_BOUND ( 'NONE', #1116, .T. ) ;
#572 = PLANE ( 'NONE',  #163 ) ;
#573 = VERTEX_POINT ( 'NONE', #534 ) ;
#574 = CARTESIAN_POINT ( 'NONE',  ( 346.9999999999996589, -1155.305262667904117, -626.9999999999997726 ) ) ;
#575 = EDGE_CURVE ( 'NONE', #1068, #1154, #1133, .T. ) ;
#576 = PLANE ( 'NONE',  #264 ) ;
#577 = AXIS2_PLACEMENT_3D ( 'NONE', #1228, #801, #502 ) ;
#578 = CYLINDRICAL_SURFACE ( 'NONE', #53, 1.000000000000000888 ) ;
#579 = LINE ( 'NONE', #1188, #1199 ) ;
#580 = ORIENTED_EDGE ( 'NONE', *, *, #208, .F. ) ;
#581 = AXIS2_PLACEMENT_3D ( 'NONE', #189, #591, #993 ) ;
#582 = PLANE ( 'NONE',  #500 ) ;
#583 = CIRCLE ( 'NONE', #1025, 3.000000000000002665 ) ;
#584 = APPROVAL ( #1212, 'UNSPECIFIED' ) ;
#585 = CARTESIAN_POINT ( 'NONE',  ( 349.9999999999996589, -1160.305262667904117, 104.7558775263622834 ) ) ;
#586 = EDGE_CURVE ( 'NONE', #338, #181, #249, .T. ) ;
#587 = AXIS2_PLACEMENT_3D ( 'NONE', #485, #274, #986 ) ;
#588 = LOCAL_TIME ( 16, 45, 13.00000000000000000, #789 ) ;
#589 = FACE_OUTER_BOUND ( 'NONE', #1126, .T. ) ;
#590 = VERTEX_POINT ( 'NONE', #751 ) ;
#591 = DIRECTION ( 'NONE',  ( 1.000000000000000000, -0.000000000000000000, -0.000000000000000000 ) ) ;
#592 = DIRECTION ( 'NONE',  ( -1.000000000000000000, 0.000000000000000000, 0.000000000000000000 ) ) ;
#593 = EDGE_CURVE ( 'NONE', #629, #1221, #332, .T. ) ;
#594 = DIRECTION ( 'NONE',  ( -0.000000000000000000, 0.000000000000000000, -1.000000000000000000 ) ) ;
#595 = EDGE_LOOP ( 'NONE', ( #843, #637, #963, #935, #336, #433, #1301, #330, #525, #173, #580, #1213, #156, #975, #933, #917, #859, #211, #646, #86, #366, #299, #1273, #93 ) ) ;
#596 = DIRECTION ( 'NONE',  ( -0.000000000000000000, -0.000000000000000000, -1.000000000000000000 ) ) ;
#597 = ORIENTED_EDGE ( 'NONE', *, *, #184, .T. ) ;
#598 = LINE ( 'NONE', #822, #706 ) ;
#599 = AXIS2_PLACEMENT_3D ( 'NONE', #206, #192, #795 ) ;
#600 = EDGE_CURVE ( 'NONE', #505, #66, #1048, .T. ) ;
#601 = DIRECTION ( 'NONE',  ( 0.000000000000000000, 1.000000000000000000, 0.000000000000000000 ) ) ;
#602 = PERSON_AND_ORGANIZATION ( #954, #524 ) ;
#603 = ORIENTED_EDGE ( 'NONE', *, *, #14, .T. ) ;
#604 = CARTESIAN_POINT ( 'NONE',  ( 309.9999999999996021, -1166.305262667903889, 25.00000000000045119 ) ) ;
#605 = VECTOR ( 'NONE', #1166, 1000.000000000000000 ) ;
#606 = ORIENTED_EDGE ( 'NONE', *, *, #1195, .T. ) ;
#607 = DIRECTION ( 'NONE',  ( 0.000000000000000000, -1.000000000000000000, 0.000000000000000000 ) ) ;
#608 = LINE ( 'NONE', #97, #309 ) ;
#609 = DIRECTION ( 'NONE',  ( 0.000000000000000000, 0.000000000000000000, 1.000000000000000000 ) ) ;
#610 = EDGE_LOOP ( 'NONE', ( #632, #1268, #112, #557 ) ) ;
#611 = CARTESIAN_POINT ( 'NONE',  ( 349.9999999999996589, -1155.305262667904117, 104.7558775263622834 ) ) ;
#612 = EDGE_CURVE ( 'NONE', #394, #71, #1250, .T. ) ;
#613 = UNCERTAINTY_MEASURE_WITH_UNIT (LENGTH_MEASURE( 1.000000000000000082E-05 ), #675, 'distance_accuracy_value', 'NONE');
#614 = ORIENTED_EDGE ( 'NONE', *, *, #384, .T. ) ;
#615 = LINE ( 'NONE', #920, #1132 ) ;
#616 = DIRECTION ( 'NONE',  ( 1.000000000000000000, -0.000000000000000000, -0.000000000000000000 ) ) ;
#617 = ORIENTED_EDGE ( 'NONE', *, *, #983, .F. ) ;
#618 = CARTESIAN_POINT ( 'NONE',  ( 349.9999999999996589, -1093.805262667903889, -627.9999999999997726 ) ) ;
#619 = EDGE_CURVE ( 'NONE', #1068, #325, #647, .T. ) ;
#620 = CYLINDRICAL_SURFACE ( 'NONE', #707, 1.000000000000000888 ) ;
#621 = ORIENTED_EDGE ( 'NONE', *, *, #887, .F. ) ;
#622 = DIRECTION ( 'NONE',  ( 1.000000000000000000, 0.000000000000000000, 0.000000000000000000 ) ) ;
#623 = ORIENTED_EDGE ( 'NONE', *, *, #272, .T. ) ;
#624 = CARTESIAN_POINT ( 'NONE',  ( 343.9999999999996589, -1160.305262667904117, 104.7558775263622834 ) ) ;
#625 = AXIS2_PLACEMENT_3D ( 'NONE', #239, #1038, #645 ) ;
#626 = ADVANCED_FACE ( 'NONE', ( #146 ), #630, .F. ) ;
#627 = VERTEX_POINT ( 'NONE', #31 ) ;
#628 = DIRECTION ( 'NONE',  ( -1.000000000000000000, -0.000000000000000000, -0.000000000000000000 ) ) ;
#629 = VERTEX_POINT ( 'NONE', #1151 ) ;
#630 = PLANE ( 'NONE',  #78 ) ;
#631 = EDGE_CURVE ( 'NONE', #399, #573, #1062, .T. ) ;
#632 = ORIENTED_EDGE ( 'NONE', *, *, #262, .F. ) ;
#633 = LINE ( 'NONE', #136, #1030 ) ;
#634 = ORIENTED_EDGE ( 'NONE', *, *, #272, .F. ) ;
#635 = FACE_OUTER_BOUND ( 'NONE', #652, .T. ) ;
#636 = CYLINDRICAL_SURFACE ( 'NONE', #1043, 1.000000000000000888 ) ;
#637 = ORIENTED_EDGE ( 'NONE', *, *, #673, .F. ) ;
#638 = CARTESIAN_POINT ( 'NONE',  ( 346.9999999999996589, -1104.305262667903889, -627.9999999999997726 ) ) ;
#639 = VECTOR ( 'NONE', #946, 1000.000000000000000 ) ;
#640 = ORIENTED_EDGE ( 'NONE', *, *, #1081, .F. ) ;
#641 = DIRECTION ( 'NONE',  ( 0.000000000000000000, 0.000000000000000000, -1.000000000000000000 ) ) ;
#642 = CARTESIAN_POINT ( 'NONE',  ( -1090.972523324354370, -1163.305262667896159, -624.9999999999997726 ) ) ;
#643 = VECTOR ( 'NONE', #260, 1000.000000000000000 ) ;
#644 = ORIENTED_EDGE ( 'NONE', *, *, #37, .F. ) ;
#645 = DIRECTION ( 'NONE',  ( 0.000000000000000000, 0.000000000000000000, 1.000000000000000000 ) ) ;
#646 = ORIENTED_EDGE ( 'NONE', *, *, #1064, .F. ) ;
#647 = LINE ( 'NONE', #241, #1050 ) ;
#648 = EDGE_CURVE ( 'NONE', #890, #394, #731, .T. ) ;
#649 = FACE_OUTER_BOUND ( 'NONE', #1181, .T. ) ;
#650 = EDGE_LOOP ( 'NONE', ( #621, #750, #1138, #155 ) ) ;
#651 = DIRECTION ( 'NONE',  ( 1.000000000000000000, 0.000000000000000000, 0.000000000000000000 ) ) ;
#652 = EDGE_LOOP ( 'NONE', ( #259, #570, #442, #177 ) ) ;
#653 = DIRECTION ( 'NONE',  ( 0.000000000000000000, 0.000000000000000000, 1.000000000000000000 ) ) ;
#654 = ADVANCED_FACE ( 'NONE', ( #547 ), #943, .T. ) ;
#655 = DIRECTION ( 'NONE',  ( 1.000000000000000000, -0.000000000000000000, -0.000000000000000000 ) ) ;
#656 = VERTEX_POINT ( 'NONE', #840 ) ;
#657 = DIRECTION ( 'NONE',  ( 1.000000000000000000, 0.000000000000000000, 0.000000000000000000 ) ) ;
#658 = CARTESIAN_POINT ( 'NONE',  ( 346.9999999999996589, -1155.305262667904117, -627.9999999999997726 ) ) ;
#659 = CIRCLE ( 'NONE', #1196, 6.000000000000005329 ) ;
#660 = LINE ( 'NONE', #1070, #858 ) ;
#661 = AXIS2_PLACEMENT_3D ( 'NONE', #1300, #186, #304 ) ;
#662 = EDGE_CURVE ( 'NONE', #66, #512, #672, .T. ) ;
#663 = VECTOR ( 'NONE', #891, 1000.000000000000000 ) ;
#664 = ORIENTED_EDGE ( 'NONE', *, *, #159, .F. ) ;
#665 = PLANE ( 'NONE',  #1075 ) ;
#666 = CIRCLE ( 'NONE', #691, 1.000000000000000888 ) ;
#667 = ORIENTED_EDGE ( 'NONE', *, *, #662, .T. ) ;
#668 = CARTESIAN_POINT ( 'NONE',  ( 346.9999999999996589, -1103.305262667903889, -624.9999999999997726 ) ) ;
#669 = APPROVAL_PERSON_ORGANIZATION ( #1201, #724, #200 ) ;
#670 = SECURITY_CLASSIFICATION ( '', '', #193 ) ;
#671 = FACE_OUTER_BOUND ( 'NONE', #203, .T. ) ;
#672 = CIRCLE ( 'NONE', #231, 3.000000000000002665 ) ;
#673 = EDGE_CURVE ( 'NONE', #997, #627, #339, .T. ) ;
#674 = ORIENTED_EDGE ( 'NONE', *, *, #331, .T. ) ;
#675 =( LENGTH_UNIT ( ) NAMED_UNIT ( * ) SI_UNIT ( .MILLI., .METRE. ) );
#676 = DIRECTION ( 'NONE',  ( 1.000000000000000000, 0.000000000000000000, -0.000000000000000000 ) ) ;
#677 = DESIGN_CONTEXT ( 'detailed design', #317, 'design' ) ;
#678 = CARTESIAN_POINT ( 'NONE',  ( 346.9999999999996589, -1107.305262667904117, 28.00000000000046896 ) ) ;
#679 = ORIENTED_EDGE ( 'NONE', *, *, #107, .T. ) ;
#680 = ORIENTED_EDGE ( 'NONE', *, *, #969, .T. ) ;
#681 = FACE_OUTER_BOUND ( 'NONE', #372, .T. ) ;
#682 = LINE ( 'NONE', #585, #1092 ) ;
#683 = VECTOR ( 'NONE', #726, 1000.000000000000000 ) ;
#684 = CARTESIAN_POINT ( 'NONE',  ( 346.9999999999996589, -1104.305262667903889, 28.00000000000046896 ) ) ;
#685 = APPLICATION_PROTOCOL_DEFINITION ( 'international standard', 'config_control_design', 1994, #317 ) ;
#686 = CIRCLE ( 'NONE', #1024, 6.000000000000005329 ) ;
#687 = EDGE_LOOP ( 'NONE', ( #1249, #791, #420, #1226 ) ) ;
#688 = CARTESIAN_POINT ( 'NONE',  ( 349.9999999999996589, -1156.305262667904117, 27.00000000000046185 ) ) ;
#689 = EDGE_CURVE ( 'NONE', #253, #437, #1146, .T. ) ;
#690 = LINE ( 'NONE', #468, #880 ) ;
#691 = AXIS2_PLACEMENT_3D ( 'NONE', #934, #28, #1144 ) ;
#692 = CARTESIAN_POINT ( 'NONE',  ( 309.9999999999996021, -1100.305262667903662, 104.7558775263622834 ) ) ;
#693 = APPROVAL_ROLE ( '' ) ;
#694 = ORIENTED_EDGE ( 'NONE', *, *, #121, .T. ) ;
#695 = LINE ( 'NONE', #106, #754 ) ;
#696 = ORIENTED_EDGE ( 'NONE', *, *, #800, .F. ) ;
#697 = CARTESIAN_POINT ( 'NONE',  ( -1090.972523324354370, -1163.305262667896159, -624.9999999999997726 ) ) ;
#698 = FACE_OUTER_BOUND ( 'NONE', #650, .T. ) ;
#699 = DATE_AND_TIME ( #492, #271 ) ;
#700 = ORIENTED_EDGE ( 'NONE', *, *, #960, .F. ) ;
#701 = CARTESIAN_POINT ( 'NONE',  ( 346.9999999999996589, -1093.805262667903889, 104.7558775263622834 ) ) ;
#702 = DIRECTION ( 'NONE',  ( -1.000000000000000000, 7.401486830834370205E-14, -0.000000000000000000 ) ) ;
#703 = PRODUCT_DEFINITION_SHAPE ( 'NONE', 'NONE',  #1169 ) ;
#704 = DIRECTION ( 'NONE',  ( -0.000000000000000000, -1.000000000000000000, -1.369518533665899079E-16 ) ) ;
#705 = ADVANCED_FACE ( 'NONE', ( #635 ), #138, .F. ) ;
#706 = VECTOR ( 'NONE', #212, 1000.000000000000000 ) ;
#707 = AXIS2_PLACEMENT_3D ( 'NONE', #529, #1297, #1019 ) ;
#708 = ORIENTED_EDGE ( 'NONE', *, *, #839, .F. ) ;
#709 = CARTESIAN_POINT ( 'NONE',  ( 349.9999999999996589, -1107.305262667904117, -627.9999999999997726 ) ) ;
#710 = VECTOR ( 'NONE', #812, 1000.000000000000000 ) ;
#711 = ORIENTED_EDGE ( 'NONE', *, *, #1129, .F. ) ;
#712 = CARTESIAN_POINT ( 'NONE',  ( -1090.972523324353915, -1100.305262667903662, -624.9999999999997726 ) ) ;
#713 = AXIS2_PLACEMENT_3D ( 'NONE', #862, #469, #562 ) ;
#714 = CARTESIAN_POINT ( 'NONE',  ( 346.9999999999996589, -1104.305262667903889, 28.00000000000046896 ) ) ;
#715 = CC_DESIGN_APPROVAL ( #584, ( #670 ) ) ;
#716 = PERSON_AND_ORGANIZATION ( #954, #524 ) ;
#717 = EDGE_CURVE ( 'NONE', #437, #27, #429, .T. ) ;
#718 = EDGE_LOOP ( 'NONE', ( #1128, #784, #57, #1231 ) ) ;
#719 = DIRECTION ( 'NONE',  ( 0.000000000000000000, -1.000000000000000000, -0.000000000000000000 ) ) ;
#720 = CYLINDRICAL_SURFACE ( 'NONE', #752, 6.000000000000005329 ) ;
#721 = PLANE ( 'NONE',  #1216 ) ;
#722 = EDGE_LOOP ( 'NONE', ( #606, #370, #667, #741 ) ) ;
#723 = CARTESIAN_POINT ( 'NONE',  ( 349.9999999999996589, -1160.305262667904117, -624.9999999999997726 ) ) ;
#724 = APPROVAL ( #517, 'UNSPECIFIED' ) ;
#725 = ORIENTED_EDGE ( 'NONE', *, *, #805, .T. ) ;
#726 = DIRECTION ( 'NONE',  ( 0.000000000000000000, 0.000000000000000000, 1.000000000000000000 ) ) ;
#727 = EDGE_CURVE ( 'NONE', #301, #454, #846, .T. ) ;
#728 = ORIENTED_EDGE ( 'NONE', *, *, #114, .T. ) ;
#729 = CARTESIAN_POINT ( 'NONE',  ( 343.9999999999996589, -1103.305262667903889, -624.9999999999997726 ) ) ;
#730 = ORIENTED_EDGE ( 'NONE', *, *, #612, .F. ) ;
#731 = LINE ( 'NONE', #254, #359 ) ;
#732 = AXIS2_PLACEMENT_3D ( 'NONE', #1168, #1088, #1069 ) ;
#733 = EDGE_CURVE ( 'NONE', #328, #176, #351, .T. ) ;
#734 = VECTOR ( 'NONE', #64, 1000.000000000000000 ) ;
#735 =( GEOMETRIC_REPRESENTATION_CONTEXT ( 3 ) GLOBAL_UNCERTAINTY_ASSIGNED_CONTEXT ( ( #613 ) ) GLOBAL_UNIT_ASSIGNED_CONTEXT ( ( #675, #1161, #1086 ) ) REPRESENTATION_CONTEXT ( 'NONE', 'WORKASPACE' ) );
#736 = ORIENTED_EDGE ( 'NONE', *, *, #122, .T. ) ;
#737 = DIRECTION ( 'NONE',  ( -1.000000000000000000, -0.000000000000000000, -0.000000000000000000 ) ) ;
#738 = EDGE_LOOP ( 'NONE', ( #356, #100, #222, #1263 ) ) ;
#739 = VECTOR ( 'NONE', #740, 1000.000000000000000 ) ;
#740 = DIRECTION ( 'NONE',  ( 0.000000000000000000, 1.369518533665899079E-16, -1.000000000000000000 ) ) ;
#741 = ORIENTED_EDGE ( 'NONE', *, *, #22, .F. ) ;
#742 = FACE_OUTER_BOUND ( 'NONE', #722, .T. ) ;
#743 = ORIENTED_EDGE ( 'NONE', *, *, #1204, .T. ) ;
#744 = CARTESIAN_POINT ( 'NONE',  ( 343.9999999999996589, -1166.305262667904117, 104.7558775263622834 ) ) ;
#745 = PLANE ( 'NONE',  #1234 ) ;
#746 = ADVANCED_FACE ( 'NONE', ( #26 ), #582, .T. ) ;
#747 = ORIENTED_EDGE ( 'NONE', *, *, #410, .F. ) ;
#748 = CARTESIAN_POINT ( 'NONE',  ( 346.9999999999996589, -1155.305262667904117, 28.00000000000046185 ) ) ;
#749 = CIRCLE ( 'NONE', #538, 1.000000000000000888 ) ;
#750 = ORIENTED_EDGE ( 'NONE', *, *, #255, .F. ) ;
#751 = CARTESIAN_POINT ( 'NONE',  ( 346.9999999999996589, -1108.305262667903889, -626.9999999999997726 ) ) ;
#752 = AXIS2_PLACEMENT_3D ( 'NONE', #624, #423, #1130 ) ;
#753 = DIRECTION ( 'NONE',  ( -1.000000000000000000, 0.000000000000000000, -0.000000000000000000 ) ) ;
#754 = VECTOR ( 'NONE', #925, 1000.000000000000000 ) ;
#755 = CIRCLE ( 'NONE', #732, 3.000000000000002665 ) ;
#756 = ORIENTED_EDGE ( 'NONE', *, *, #1233, .F. ) ;
#757 = ADVANCED_FACE ( 'NONE', ( #1083 ), #558, .F. ) ;
#758 = ORIENTED_EDGE ( 'NONE', *, *, #600, .F. ) ;
#759 = DIRECTION ( 'NONE',  ( -1.000000000000000000, -0.000000000000000000, -0.000000000000000000 ) ) ;
#760 = LOCAL_TIME ( 16, 45, 13.00000000000000000, #305 ) ;
#761 = LINE ( 'NONE', #548, #639 ) ;
#762 = EDGE_LOOP ( 'NONE', ( #835, #1134, #508, #871 ) ) ;
#763 = CARTESIAN_POINT ( 'NONE',  ( 309.9999999999996021, -1163.305262667903889, 25.00000000000045119 ) ) ;
#764 = ORIENTED_EDGE ( 'NONE', *, *, #1123, .F. ) ;
#765 = EDGE_CURVE ( 'NONE', #394, #414, #982, .T. ) ;
#766 = CARTESIAN_POINT ( 'NONE',  ( -1090.972523324354370, -1163.305262667896159, 25.00000000000045119 ) ) ;
#767 = ADVANCED_FACE ( 'NONE', ( #571 ), #988, .T. ) ;
#768 = CARTESIAN_POINT ( 'NONE',  ( 346.9999999999995453, -1107.305262667904117, -626.9999999999997726 ) ) ;
#769 = ORIENTED_EDGE ( 'NONE', *, *, #619, .F. ) ;
#770 = DIRECTION ( 'NONE',  ( 5.551115123125788224E-15, 1.000000000000000000, -0.000000000000000000 ) ) ;
#771 = ORIENTED_EDGE ( 'NONE', *, *, #593, .T. ) ;
#772 = FACE_OUTER_BOUND ( 'NONE', #595, .T. ) ;
#773 = VECTOR ( 'NONE', #158, 1000.000000000000000 ) ;
#774 = DIRECTION ( 'NONE',  ( 0.000000000000000000, 0.000000000000000000, 1.000000000000000000 ) ) ;
#775 = EDGE_CURVE ( 'NONE', #1111, #627, #885, .T. ) ;
#776 = AXIS2_PLACEMENT_3D ( 'NONE', #519, #1117, #99 ) ;
#777 = EDGE_LOOP ( 'NONE', ( #866, #747, #248, #348, #196, #614, #1288, #285, #149, #617, #1103, #25, #1121, #664, #132, #386, #479, #243, #634, #117, #798, #226, #1076, #674 ) ) ;
#778 = DIRECTION ( 'NONE',  ( -0.000000000000000000, -0.000000000000000000, -1.000000000000000000 ) ) ;
#779 = ORIENTED_EDGE ( 'NONE', *, *, #29, .F. ) ;
#780 = DIRECTION ( 'NONE',  ( 0.000000000000000000, 0.000000000000000000, 1.000000000000000000 ) ) ;
#781 = CIRCLE ( 'NONE', #713, 1.000000000000000888 ) ;
#782 = DIRECTION ( 'NONE',  ( 0.000000000000000000, -1.369518533665899079E-16, 1.000000000000000000 ) ) ;
#783 = CC_DESIGN_PERSON_AND_ORGANIZATION_ASSIGNMENT ( #283, #413, ( #1169 ) ) ;
#784 = ORIENTED_EDGE ( 'NONE', *, *, #159, .T. ) ;
#785 = CARTESIAN_POINT ( 'NONE',  ( 343.9999999999996589, -1160.305262667904117, 25.00000000000045119 ) ) ;
#786 = LINE ( 'NONE', #1289, #881 ) ;
#787 = CARTESIAN_POINT ( 'NONE',  ( 346.9999999999996589, -1156.305262667904117, 27.00000000000046185 ) ) ;
#788 = CARTESIAN_POINT ( 'NONE',  ( 343.9999999999996589, -1166.305262667904117, -624.9999999999997726 ) ) ;
#789 = COORDINATED_UNIVERSAL_TIME_OFFSET ( 10, 0, .AHEAD. ) ;
#790 = ADVANCED_FACE ( 'NONE', ( #681 ), #280, .T. ) ;
#791 = ORIENTED_EDGE ( 'NONE', *, *, #225, .F. ) ;
#792 = PLANE ( 'NONE',  #797 ) ;
#793 = CARTESIAN_POINT ( 'NONE',  ( 349.9999999999996589, -1155.305262667904117, 104.7558775263622834 ) ) ;
#794 = VECTOR ( 'NONE', #213, 1000.000000000000000 ) ;
#795 = DIRECTION ( 'NONE',  ( 0.000000000000000000, 0.000000000000000000, 1.000000000000000000 ) ) ;
#796 = PERSON_AND_ORGANIZATION_ROLE ( 'creator' ) ;
#797 = AXIS2_PLACEMENT_3D ( 'NONE', #268, #1194, #467 ) ;
#798 = ORIENTED_EDGE ( 'NONE', *, *, #864, .T. ) ;
#799 = CYLINDRICAL_SURFACE ( 'NONE', #1198, 1.000000000000000888 ) ;
#800 = EDGE_CURVE ( 'NONE', #431, #910, #275, .T. ) ;
#801 = DIRECTION ( 'NONE',  ( 1.000000000000000000, -0.000000000000000000, -0.000000000000000000 ) ) ;
#802 = CARTESIAN_POINT ( 'NONE',  ( 349.9999999999995453, -1156.305262667904117, -626.9999999999997726 ) ) ;
#803 = VERTEX_POINT ( 'NONE', #574 ) ;
#804 = CARTESIAN_POINT ( 'NONE',  ( 346.9999999999996589, -1103.305262667903889, 104.7558775263622834 ) ) ;
#805 = EDGE_CURVE ( 'NONE', #461, #350, #755, .T. ) ;
#806 = ORIENTED_EDGE ( 'NONE', *, *, #121, .F. ) ;
#807 = LINE ( 'NONE', #302, #312 ) ;
#808 = ADVANCED_FACE ( 'NONE', ( #487 ), #1097, .T. ) ;
#809 = LINE ( 'NONE', #684, #1296 ) ;
#810 = COORDINATED_UNIVERSAL_TIME_OFFSET ( 10, 0, .AHEAD. ) ;
#811 = ORIENTED_EDGE ( 'NONE', *, *, #1055, .T. ) ;
#812 = DIRECTION ( 'NONE',  ( -0.000000000000000000, -0.000000000000000000, -1.000000000000000000 ) ) ;
#813 = LINE ( 'NONE', #712, #164 ) ;
#814 = ADVANCED_FACE ( 'NONE', ( #1282 ), #565, .F. ) ;
#815 = VECTOR ( 'NONE', #484, 1000.000000000000000 ) ;
#816 = DIRECTION ( 'NONE',  ( 0.000000000000000000, 1.000000000000000000, 0.000000000000000000 ) ) ;
#817 = PERSON_AND_ORGANIZATION_ROLE ( 'design_supplier' ) ;
#818 = VECTOR ( 'NONE', #1008, 1000.000000000000000 ) ;
#819 = VERTEX_POINT ( 'NONE', #472 ) ;
#820 = CARTESIAN_POINT ( 'NONE',  ( 349.9999999999996589, -1103.305262667904117, 104.7558775263622834 ) ) ;
#821 = CIRCLE ( 'NONE', #581, 1.000000000000000888 ) ;
#822 = CARTESIAN_POINT ( 'NONE',  ( 346.9999999999996589, -1155.305262667904117, -630.9999999999995453 ) ) ;
#823 = PRODUCT_RELATED_PRODUCT_CATEGORY ( 'detail', '', ( #909 ) ) ;
#824 = CARTESIAN_POINT ( 'NONE',  ( 309.9999999999996021, -1163.305262667903889, -624.9999999999997726 ) ) ;
#825 = EDGE_CURVE ( 'NONE', #904, #493, #182, .T. ) ;
#826 = EDGE_LOOP ( 'NONE', ( #1079, #551, #125, #233 ) ) ;
#827 = DIRECTION ( 'NONE',  ( -1.000000000000000000, -0.000000000000000000, -0.000000000000000000 ) ) ;
#828 = CARTESIAN_POINT ( 'NONE',  ( 346.9999999999996589, -1160.305262667904117, -624.9999999999997726 ) ) ;
#829 = ORIENTED_EDGE ( 'NONE', *, *, #913, .F. ) ;
#830 = PLANE ( 'NONE',  #625 ) ;
#831 = EDGE_CURVE ( 'NONE', #819, #939, #967, .T. ) ;
#832 = ORIENTED_EDGE ( 'NONE', *, *, #983, .T. ) ;
#833 = DIRECTION ( 'NONE',  ( 1.000000000000000000, -0.000000000000000000, -0.000000000000000000 ) ) ;
#834 = CIRCLE ( 'NONE', #1021, 1.000000000000000888 ) ;
#835 = ORIENTED_EDGE ( 'NONE', *, *, #314, .F. ) ;
#836 = FACE_OUTER_BOUND ( 'NONE', #838, .T. ) ;
#837 = VECTOR ( 'NONE', #474, 1000.000000000000000 ) ;
#838 = EDGE_LOOP ( 'NONE', ( #501, #644, #188, #743 ) ) ;
#839 = EDGE_CURVE ( 'NONE', #454, #142, #67, .T. ) ;
#840 = CARTESIAN_POINT ( 'NONE',  ( 309.9999999999996021, -1163.305262667903889, 25.00000000000045119 ) ) ;
#841 = VECTOR ( 'NONE', #737, 1000.000000000000000 ) ;
#842 = VECTOR ( 'NONE', #540, 1000.000000000000000 ) ;
#843 = ORIENTED_EDGE ( 'NONE', *, *, #952, .T. ) ;
#844 = CYLINDRICAL_SURFACE ( 'NONE', #246, 3.000000000000002665 ) ;
#845 = ORIENTED_EDGE ( 'NONE', *, *, #960, .T. ) ;
#846 = LINE ( 'NONE', #1245, #18 ) ;
#847 = DIRECTION ( 'NONE',  ( -1.000000000000000000, 5.551115123125788224E-15, 0.000000000000000000 ) ) ;
#848 = EDGE_CURVE ( 'NONE', #629, #1279, #786, .T. ) ;
#849 = ORIENTED_EDGE ( 'NONE', *, *, #825, .F. ) ;
#850 = CARTESIAN_POINT ( 'NONE',  ( 349.9999999999996589, -1160.305262667904117, 25.00000000000045119 ) ) ;
#851 = ORIENTED_EDGE ( 'NONE', *, *, #1020, .F. ) ;
#852 = DIRECTION ( 'NONE',  ( -0.000000000000000000, -1.000000000000000000, -1.369518533665899079E-16 ) ) ;
#853 = DIRECTION ( 'NONE',  ( 0.000000000000000000, 0.000000000000000000, -1.000000000000000000 ) ) ;
#854 = ADVANCED_FACE ( 'NONE', ( #395 ), #792, .F. ) ;
#855 = DIRECTION ( 'NONE',  ( 0.000000000000000000, 1.369518533665899079E-16, -1.000000000000000000 ) ) ;
#856 = CARTESIAN_POINT ( 'NONE',  ( 349.9999999999996589, -1160.305262667904117, 27.00000000000046896 ) ) ;
#857 = VECTOR ( 'NONE', #1171, 1000.000000000000000 ) ;
#858 = VECTOR ( 'NONE', #989, 1000.000000000000000 ) ;
#859 = ORIENTED_EDGE ( 'NONE', *, *, #14, .F. ) ;
#860 = DIRECTION ( 'NONE',  ( -0.000000000000000000, 0.000000000000000000, -1.000000000000000000 ) ) ;
#861 = FACE_OUTER_BOUND ( 'NONE', #1022, .T. ) ;
#862 = CARTESIAN_POINT ( 'NONE',  ( 346.9999999999995453, -1107.305262667904117, -626.9999999999997726 ) ) ;
#863 = DIRECTION ( 'NONE',  ( 1.000000000000000000, 0.000000000000000000, 0.000000000000000000 ) ) ;
#864 = EDGE_CURVE ( 'NONE', #1209, #338, #1179, .T. ) ;
#865 = CC_DESIGN_APPROVAL ( #1153, ( #1169 ) ) ;
#866 = ORIENTED_EDGE ( 'NONE', *, *, #561, .F. ) ;
#867 = CARTESIAN_POINT ( 'NONE',  ( 346.9999999999996589, -1160.305262667904117, 25.00000000000045119 ) ) ;
#868 = DIRECTION ( 'NONE',  ( -5.551115123125788224E-15, -1.000000000000000000, 0.000000000000000000 ) ) ;
#869 = DIRECTION ( 'NONE',  ( -1.000000000000000000, -0.000000000000000000, -0.000000000000000000 ) ) ;
#870 = CARTESIAN_POINT ( 'NONE',  ( 343.9999999999996589, -1163.305262667903889, -624.9999999999997726 ) ) ;
#871 = ORIENTED_EDGE ( 'NONE', *, *, #575, .T. ) ;
#872 = DIRECTION ( 'NONE',  ( 0.000000000000000000, 0.000000000000000000, -1.000000000000000000 ) ) ;
#873 = ADVANCED_FACE ( 'NONE', ( #772 ), #118, .F. ) ;
#874 = PLANE ( 'NONE',  #353 ) ;
#875 = LINE ( 'NONE', #464, #376 ) ;
#876 = LINE ( 'NONE', #763, #605 ) ;
#877 = EDGE_LOOP ( 'NONE', ( #972, #4, #806, #194 ) ) ;
#878 = DIRECTION ( 'NONE',  ( -0.000000000000000000, 0.000000000000000000, 1.000000000000000000 ) ) ;
#879 = CARTESIAN_POINT ( 'NONE',  ( 349.9999999999996589, -1156.305262667904117, 28.00000000000046896 ) ) ;
#880 = VECTOR ( 'NONE', #168, 1000.000000000000000 ) ;
#881 = VECTOR ( 'NONE', #167, 1000.000000000000000 ) ;
#882 = ORIENTED_EDGE ( 'NONE', *, *, #944, .T. ) ;
#883 = LINE ( 'NONE', #1267, #926 ) ;
#884 = VERTEX_POINT ( 'NONE', #723 ) ;
#885 = LINE ( 'NONE', #867, #663 ) ;
#886 = CARTESIAN_POINT ( 'NONE',  ( 349.9999999999996589, -1104.305262667903889, 27.00000000000046896 ) ) ;
#887 = EDGE_CURVE ( 'NONE', #75, #1229, #1104, .T. ) ;
#888 = CARTESIAN_POINT ( 'NONE',  ( 309.9999999999996021, -1100.305262667903662, 25.00000000000046541 ) ) ;
#889 = DIRECTION ( 'NONE',  ( -0.000000000000000000, 0.000000000000000000, -1.000000000000000000 ) ) ;
#890 = VERTEX_POINT ( 'NONE', #604 ) ;
#891 = DIRECTION ( 'NONE',  ( -1.000000000000000000, -0.000000000000000000, -0.000000000000000000 ) ) ;
#892 = DIRECTION ( 'NONE',  ( 0.000000000000000000, 1.000000000000000000, 0.000000000000000000 ) ) ;
#893 = EDGE_CURVE ( 'NONE', #461, #142, #499, .T. ) ;
#894 = LINE ( 'NONE', #888, #306 ) ;
#895 = CALENDAR_DATE ( 2026, 11, 7 ) ;
#896 = EDGE_LOOP ( 'NONE', ( #829, #680, #1274, #1257 ) ) ;
#897 = LINE ( 'NONE', #611, #267 ) ;
#898 = CARTESIAN_POINT ( 'NONE',  ( 343.9999999999996589, -1100.305262667903889, 25.00000000000046541 ) ) ;
#899 = CARTESIAN_POINT ( 'NONE',  ( 349.9999999999996589, -1156.305262667904117, -627.9999999999997726 ) ) ;
#900 = VECTOR ( 'NONE', #1255, 1000.000000000000000 ) ;
#901 = ORIENTED_EDGE ( 'NONE', *, *, #733, .F. ) ;
#902 = DIRECTION ( 'NONE',  ( 0.000000000000000000, 0.000000000000000000, -1.000000000000000000 ) ) ;
#903 = ADVANCED_FACE ( 'NONE', ( #94 ), #799, .T. ) ;
#904 = VERTEX_POINT ( 'NONE', #1203 ) ;
#905 = CARTESIAN_POINT ( 'NONE',  ( 343.9999999999996589, -1163.305262667903889, -624.9999999999997726 ) ) ;
#906 = AXIS2_PLACEMENT_3D ( 'NONE', #932, #958, #438 ) ;
#907 = PLANE ( 'NONE',  #1067 ) ;
#908 = COORDINATED_UNIVERSAL_TIME_OFFSET ( 10, 0, .AHEAD. ) ;
#909 = PRODUCT ( 'CV03-TR-17_REV_B_d8fffed3d2904a7aa0042a2a36827e3d.tmp', 'CV03-TR-17_REV_B_d8fffed3d2904a7aa0042a2a36827e3d.tmp', '', ( #104 ) ) ;
#910 = VERTEX_POINT ( 'NONE', #1018 ) ;
#911 = CARTESIAN_POINT ( 'NONE',  ( -1090.972523324354370, -1163.305262667896159, 25.00000000000045119 ) ) ;
#912 = ADVANCED_BREP_SHAPE_REPRESENTATION ( 'CV03-TR-17_REV_B_d8fffed3d2904a7aa0042a2a36827e3d.tmp', ( #327, #363 ), #735 ) ;
#913 = EDGE_CURVE ( 'NONE', #1209, #1007, #1227, .T. ) ;
#914 = DIRECTION ( 'NONE',  ( -1.000000000000000000, -0.000000000000000000, -0.000000000000000000 ) ) ;
#915 = CARTESIAN_POINT ( 'NONE',  ( 346.9999999999996589, -1160.305262667904117, -630.9999999999995453 ) ) ;
#916 = APPROVAL_DATE_TIME ( #1114, #584 ) ;
#917 = ORIENTED_EDGE ( 'NONE', *, *, #619, .T. ) ;
#918 = LINE ( 'NONE', #10, #205 ) ;
#919 = EDGE_LOOP ( 'NONE', ( #98, #728, #1145, #711 ) ) ;
#920 = CARTESIAN_POINT ( 'NONE',  ( 349.9999999999996589, -1093.805262667903889, 28.00000000000046896 ) ) ;
#921 = AXIS2_PLACEMENT_3D ( 'NONE', #456, #1265, #321 ) ;
#922 = PLANE ( 'NONE',  #921 ) ;
#923 = CALENDAR_DATE ( 2026, 11, 7 ) ;
#924 = ORIENTED_EDGE ( 'NONE', *, *, #593, .F. ) ;
#925 = DIRECTION ( 'NONE',  ( 0.000000000000000000, 0.000000000000000000, 1.000000000000000000 ) ) ;
#926 = VECTOR ( 'NONE', #556, 1000.000000000000000 ) ;
#927 = LINE ( 'NONE', #828, #520 ) ;
#928 = EDGE_CURVE ( 'NONE', #161, #431, #998, .T. ) ;
#929 = ORIENTED_EDGE ( 'NONE', *, *, #314, .T. ) ;
#930 = CARTESIAN_POINT ( 'NONE',  ( 346.9999999999996589, -1107.305262667904117, 28.00000000000046896 ) ) ;
#931 = ORIENTED_EDGE ( 'NONE', *, *, #1285, .F. ) ;
#932 = CARTESIAN_POINT ( 'NONE',  ( 343.9999999999996589, -1103.305262667903889, 104.7558775263622834 ) ) ;
#933 = ORIENTED_EDGE ( 'NONE', *, *, #575, .F. ) ;
#934 = CARTESIAN_POINT ( 'NONE',  ( 346.9999999999995453, -1159.305262667904117, -626.9999999999997726 ) ) ;
#935 = ORIENTED_EDGE ( 'NONE', *, *, #1142, .F. ) ;
#936 = DIRECTION ( 'NONE',  ( 0.000000000000000000, -1.000000000000000000, -1.369518533665899079E-16 ) ) ;
#937 = AXIS2_PLACEMENT_3D ( 'NONE', #364, #1165, #257 ) ;
#938 = AXIS2_PLACEMENT_3D ( 'NONE', #282, #180, #601 ) ;
#939 = VERTEX_POINT ( 'NONE', #709 ) ;
#940 = CARTESIAN_POINT ( 'NONE',  ( 349.9999999999996589, -1104.305262667903889, -627.9999999999997726 ) ) ;
#941 = AXIS2_PLACEMENT_3D ( 'NONE', #1197, #774, #1177 ) ;
#942 = EDGE_LOOP ( 'NONE', ( #23, #623, #318, #901 ) ) ;
#943 = CYLINDRICAL_SURFACE ( 'NONE', #906, 6.000000000000005329 ) ;
#944 = EDGE_CURVE ( 'NONE', #567, #454, #210, .T. ) ;
#945 = VECTOR ( 'NONE', #1264, 1000.000000000000000 ) ;
#946 = DIRECTION ( 'NONE',  ( -0.000000000000000000, 1.000000000000000000, -0.000000000000000000 ) ) ;
#947 = APPROVAL_PERSON_ORGANIZATION ( #511, #584, #693 ) ;
#948 = EDGE_LOOP ( 'NONE', ( #1054, #292, #694, #19 ) ) ;
#949 = FACE_OUTER_BOUND ( 'NONE', #486, .T. ) ;
#950 = ORIENTED_EDGE ( 'NONE', *, *, #303, .T. ) ;
#951 = CARTESIAN_POINT ( 'NONE',  ( 343.9999999999996589, -1097.305262667903889, 104.7558775263622834 ) ) ;
#952 = EDGE_CURVE ( 'NONE', #66, #627, #695, .T. ) ;
#953 = CARTESIAN_POINT ( 'NONE',  ( 346.9999999999996589, -1103.305262667904117, 31.00000000000048672 ) ) ;
#954 = PERSON ( 'UNSPECIFIED', 'UNSPECIFIED', 'UNSPECIFIED', ('UNSPECIFIED'), ('UNSPECIFIED'), ('UNSPECIFIED') ) ;
#955 = EDGE_LOOP ( 'NONE', ( #849, #130, #69, #43 ) ) ;
#956 = DIRECTION ( 'NONE',  ( 0.000000000000000000, 1.369518533665899079E-16, -1.000000000000000000 ) ) ;
#957 = VERTEX_POINT ( 'NONE', #1013 ) ;
#958 = DIRECTION ( 'NONE',  ( 0.000000000000000000, 0.000000000000000000, 1.000000000000000000 ) ) ;
#959 = PLANE ( 'NONE',  #160 ) ;
#960 = EDGE_CURVE ( 'NONE', #567, #1221, #1220, .T. ) ;
#961 = DIRECTION ( 'NONE',  ( -0.000000000000000000, -0.000000000000000000, -1.000000000000000000 ) ) ;
#962 = AXIS2_PLACEMENT_3D ( 'NONE', #256, #655, #154 ) ;
#963 = ORIENTED_EDGE ( 'NONE', *, *, #1035, .F. ) ;
#964 = DIRECTION ( 'NONE',  ( 1.000000000000000000, -0.000000000000000000, -0.000000000000000000 ) ) ;
#965 = AXIS2_PLACEMENT_3D ( 'NONE', #21, #509, #311 ) ;
#966 = DIRECTION ( 'NONE',  ( 5.551115123125788224E-15, 1.000000000000000000, -0.000000000000000000 ) ) ;
#967 = CIRCLE ( 'NONE', #1003, 1.000000000000000888 ) ;
#968 = VECTOR ( 'NONE', #465, 1000.000000000000000 ) ;
#969 = EDGE_CURVE ( 'NONE', #1209, #440, #897, .T. ) ;
#970 = LINE ( 'NONE', #555, #230 ) ;
#971 = CARTESIAN_POINT ( 'NONE',  ( 349.9999999999995453, -1104.305262667903889, -626.9999999999997726 ) ) ;
#972 = ORIENTED_EDGE ( 'NONE', *, *, #569, .T. ) ;
#973 = CARTESIAN_POINT ( 'NONE',  ( 349.9999999999996589, -1093.805262667903889, 104.7558775263622834 ) ) ;
#974 = CARTESIAN_POINT ( 'NONE',  ( 343.9999999999996589, -1166.305262667904117, 25.00000000000045119 ) ) ;
#975 = ORIENTED_EDGE ( 'NONE', *, *, #491, .F. ) ;
#976 = CARTESIAN_POINT ( 'NONE',  ( 346.9999999999996589, -1159.305262667904117, 28.00000000000046185 ) ) ;
#977 = ORIENTED_EDGE ( 'NONE', *, *, #561, .T. ) ;
#978 = CARTESIAN_POINT ( 'NONE',  ( 343.9999999999996589, -1160.305262667904117, 25.00000000000045119 ) ) ;
#979 = DIRECTION ( 'NONE',  ( 0.000000000000000000, 0.000000000000000000, -1.000000000000000000 ) ) ;
#980 = ORIENTED_EDGE ( 'NONE', *, *, #825, .T. ) ;
#981 = ORIENTED_EDGE ( 'NONE', *, *, #444, .T. ) ;
#982 = LINE ( 'NONE', #1269, #945 ) ;
#983 = EDGE_CURVE ( 'NONE', #1143, #939, #513, .T. ) ;
#984 = CARTESIAN_POINT ( 'NONE',  ( -1090.972523324354370, -1166.305262667895931, 104.7558775263622834 ) ) ;
#985 = DIRECTION ( 'NONE',  ( 0.000000000000000000, 0.000000000000000000, -1.000000000000000000 ) ) ;
#986 = DIRECTION ( 'NONE',  ( 0.000000000000000000, 0.000000000000000000, -1.000000000000000000 ) ) ;
#987 = EDGE_LOOP ( 'NONE', ( #273, #409, #679, #1207 ) ) ;
#988 = PLANE ( 'NONE',  #313 ) ;
#989 = DIRECTION ( 'NONE',  ( -0.000000000000000000, -0.000000000000000000, -1.000000000000000000 ) ) ;
#990 = EDGE_CURVE ( 'NONE', #939, #325, #918, .T. ) ;
#991 = CARTESIAN_POINT ( 'NONE',  ( 346.9999999999996589, -1103.305262667904117, -627.9999999999997726 ) ) ;
#992 = ORIENTED_EDGE ( 'NONE', *, *, #1029, .T. ) ;
#993 = DIRECTION ( 'NONE',  ( 0.000000000000000000, 0.000000000000000000, -1.000000000000000000 ) ) ;
#994 = CYLINDRICAL_SURFACE ( 'NONE', #1256, 1.000000000000000888 ) ;
#995 = FACE_OUTER_BOUND ( 'NONE', #108, .T. ) ;
#996 = EDGE_CURVE ( 'NONE', #399, #1037, #421, .T. ) ;
#997 = VERTEX_POINT ( 'NONE', #1208 ) ;
#998 = LINE ( 'NONE', #494, #335 ) ;
#999 = ORIENTED_EDGE ( 'NONE', *, *, #237, .F. ) ;
#1000 = FACE_OUTER_BOUND ( 'NONE', #919, .T. ) ;
#1001 = DIRECTION ( 'NONE',  ( 0.000000000000000000, 0.000000000000000000, 1.000000000000000000 ) ) ;
#1002 = APPLICATION_PROTOCOL_DEFINITION ( 'international standard', 'config_control_design', 1994, #1058 ) ;
#1003 = AXIS2_PLACEMENT_3D ( 'NONE', #389, #1275, #1190 ) ;
#1004 = ADVANCED_FACE ( 'NONE', ( #202 ), #1006, .F. ) ;
#1005 = ORIENTED_EDGE ( 'NONE', *, *, #775, .F. ) ;
#1006 = PLANE ( 'NONE',  #1277 ) ;
#1007 = VERTEX_POINT ( 'NONE', #216 ) ;
#1008 = DIRECTION ( 'NONE',  ( 0.000000000000000000, 0.000000000000000000, 1.000000000000000000 ) ) ;
#1009 = LOCAL_TIME ( 16, 45, 13.00000000000000000, #810 ) ;
#1010 = DIRECTION ( 'NONE',  ( 1.000000000000000000, 0.000000000000000000, 0.000000000000000000 ) ) ;
#1011 = APPROVAL_ROLE ( '' ) ;
#1012 = ORIENTED_EDGE ( 'NONE', *, *, #65, .F. ) ;
#1013 = CARTESIAN_POINT ( 'NONE',  ( 349.9999999999996589, -1160.305262667904117, -626.9999999999997726 ) ) ;
#1014 = CARTESIAN_POINT ( 'NONE',  ( 346.9999999999996589, -1156.305262667904117, 27.00000000000046185 ) ) ;
#1015 = DIRECTION ( 'NONE',  ( 0.000000000000000000, 0.000000000000000000, 1.000000000000000000 ) ) ;
#1016 = PERSON_AND_ORGANIZATION ( #954, #524 ) ;
#1017 = ORIENTED_EDGE ( 'NONE', *, *, #996, .T. ) ;
#1018 = CARTESIAN_POINT ( 'NONE',  ( 346.9999999999996589, -1159.305262667904117, -627.9999999999997726 ) ) ;
#1019 = DIRECTION ( 'NONE',  ( 0.000000000000000000, 0.000000000000000000, -1.000000000000000000 ) ) ;
#1020 = EDGE_CURVE ( 'NONE', #656, #414, #506, .T. ) ;
#1021 = AXIS2_PLACEMENT_3D ( 'NONE', #886, #1091, #369 ) ;
#1022 = EDGE_LOOP ( 'NONE', ( #1187, #1096, #201, #1244 ) ) ;
#1023 = CARTESIAN_POINT ( 'NONE',  ( 346.9999999999996589, -1108.305262667903889, -630.9999999999995453 ) ) ;
#1024 = AXIS2_PLACEMENT_3D ( 'NONE', #729, #447, #143 ) ;
#1025 = AXIS2_PLACEMENT_3D ( 'NONE', #785, #460, #651 ) ;
#1026 = ORIENTED_EDGE ( 'NONE', *, *, #360, .F. ) ;
#1027 = CARTESIAN_POINT ( 'NONE',  ( 343.9999999999996589, -1100.305262667903889, 25.00000000000046541 ) ) ;
#1028 = LOCAL_TIME ( 16, 45, 13.00000000000000000, #908 ) ;
#1029 = EDGE_CURVE ( 'NONE', #228, #2, #427, .T. ) ;
#1030 = VECTOR ( 'NONE', #536, 1000.000000000000000 ) ;
#1031 = ORIENTED_EDGE ( 'NONE', *, *, #612, .T. ) ;
#1032 = CARTESIAN_POINT ( 'NONE',  ( 349.9999999999996589, -1108.305262667903889, 25.00000000000045119 ) ) ;
#1033 = ORIENTED_EDGE ( 'NONE', *, *, #717, .T. ) ;
#1034 = DIRECTION ( 'NONE',  ( 0.000000000000000000, 0.000000000000000000, 1.000000000000000000 ) ) ;
#1035 = EDGE_CURVE ( 'NONE', #1229, #997, #821, .T. ) ;
#1036 = EDGE_CURVE ( 'NONE', #957, #431, #1093, .T. ) ;
#1037 = VERTEX_POINT ( 'NONE', #453 ) ;
#1038 = DIRECTION ( 'NONE',  ( 1.000000000000000000, -5.551115123125788224E-15, 0.000000000000000000 ) ) ;
#1039 = VERTEX_POINT ( 'NONE', #1053 ) ;
#1040 = CARTESIAN_POINT ( 'NONE',  ( 349.9999999999996589, -1093.805262667903889, -624.9999999999997726 ) ) ;
#1041 = DIRECTION ( 'NONE',  ( 1.000000000000000000, 0.000000000000000000, 0.000000000000000000 ) ) ;
#1042 = AXIS2_PLACEMENT_3D ( 'NONE', #915, #816, #1107 ) ;
#1043 = AXIS2_PLACEMENT_3D ( 'NONE', #516, #1041, #853 ) ;
#1044 = ORIENTED_EDGE ( 'NONE', *, *, #341, .F. ) ;
#1045 = LINE ( 'NONE', #930, #522 ) ;
#1046 = EDGE_CURVE ( 'NONE', #27, #176, #1236, .T. ) ;
#1047 = VERTEX_POINT ( 'NONE', #1155 ) ;
#1048 = LINE ( 'NONE', #157, #269 ) ;
#1049 = VECTOR ( 'NONE', #1214, 1000.000000000000000 ) ;
#1050 = VECTOR ( 'NONE', #449, 1000.000000000000000 ) ;
#1051 = DIRECTION ( 'NONE',  ( 0.000000000000000000, 1.000000000000000000, 0.000000000000000000 ) ) ;
#1052 = ORIENTED_EDGE ( 'NONE', *, *, #347, .F. ) ;
#1053 = CARTESIAN_POINT ( 'NONE',  ( 349.9999999999996589, -1155.305262667904117, -626.9999999999997726 ) ) ;
#1054 = ORIENTED_EDGE ( 'NONE', *, *, #1270, .F. ) ;
#1055 = EDGE_CURVE ( 'NONE', #307, #437, #1045, .T. ) ;
#1056 = DIRECTION ( 'NONE',  ( 1.000000000000000000, -5.551115123125788224E-15, -0.000000000000000000 ) ) ;
#1057 = ADVANCED_FACE ( 'NONE', ( #742 ), #1149, .F. ) ;
#1058 = APPLICATION_CONTEXT ( 'configuration controlled 3d designs of mechanical parts and assemblies' ) ;
#1059 = CARTESIAN_POINT ( 'NONE',  ( 343.9999999999996589, -1160.305262667904117, -624.9999999999997726 ) ) ;
#1060 = DIRECTION ( 'NONE',  ( 0.000000000000000000, -1.000000000000000000, -1.369518533665899079E-16 ) ) ;
#1061 = VERTEX_POINT ( 'NONE', #856 ) ;
#1062 = LINE ( 'NONE', #1040, #123 ) ;
#1063 = LINE ( 'NONE', #139, #1252 ) ;
#1064 = EDGE_CURVE ( 'NONE', #1037, #220, #244, .T. ) ;
#1065 = LINE ( 'NONE', #63, #857 ) ;
#1066 = CARTESIAN_POINT ( 'NONE',  ( 349.9999999999996589, -1155.305262667904117, 27.00000000000046896 ) ) ;
#1067 = AXIS2_PLACEMENT_3D ( 'NONE', #991, #1113, #490 ) ;
#1068 = VERTEX_POINT ( 'NONE', #638 ) ;
#1069 = DIRECTION ( 'NONE',  ( -1.000000000000000000, 0.000000000000000000, 0.000000000000000000 ) ) ;
#1070 = CARTESIAN_POINT ( 'NONE',  ( 349.9999999999996589, -1160.305262667904117, 104.7558775263622834 ) ) ;
#1071 = VECTOR ( 'NONE', #357, 1000.000000000000000 ) ;
#1072 = CC_DESIGN_DATE_AND_TIME_ASSIGNMENT ( #8, #419, ( #1169 ) ) ;
#1073 = EDGE_LOOP ( 'NONE', ( #931, #1109, #597, #950 ) ) ;
#1074 = CARTESIAN_POINT ( 'NONE',  ( -1090.972523324353915, -1100.305262667903662, 104.7558775263622834 ) ) ;
#1075 = AXIS2_PLACEMENT_3D ( 'NONE', #1074, #70, #889 ) ;
#1076 = ORIENTED_EDGE ( 'NONE', *, *, #225, .T. ) ;
#1077 = DIRECTION ( 'NONE',  ( -1.000000000000000000, 0.000000000000000000, 0.000000000000000000 ) ) ;
#1078 = CYLINDRICAL_SURFACE ( 'NONE', #32, 1.000000000000000888 ) ;
#1079 = ORIENTED_EDGE ( 'NONE', *, *, #507, .F. ) ;
#1080 = CYLINDRICAL_SURFACE ( 'NONE', #587, 1.000000000000000888 ) ;
#1081 = EDGE_CURVE ( 'NONE', #629, #454, #686, .T. ) ;
#1082 = VERTEX_POINT ( 'NONE', #1032 ) ;
#1083 = FACE_OUTER_BOUND ( 'NONE', #322, .T. ) ;
#1084 = CARTESIAN_POINT ( 'NONE',  ( 346.9999999999996589, -1107.305262667904117, -627.9999999999997726 ) ) ;
#1085 = FACE_OUTER_BOUND ( 'NONE', #344, .T. ) ;
#1086 =( NAMED_UNIT ( * ) SI_UNIT ( $, .STERADIAN. ) SOLID_ANGLE_UNIT ( ) );
#1087 = EDGE_LOOP ( 'NONE', ( #696, #1193, #380, #251 ) ) ;
#1088 = DIRECTION ( 'NONE',  ( 0.000000000000000000, 0.000000000000000000, 1.000000000000000000 ) ) ;
#1089 = ADVANCED_FACE ( 'NONE', ( #836 ), #830, .F. ) ;
#1090 = CIRCLE ( 'NONE', #962, 1.000000000000000888 ) ;
#1091 = DIRECTION ( 'NONE',  ( 1.000000000000000000, -0.000000000000000000, -0.000000000000000000 ) ) ;
#1092 = VECTOR ( 'NONE', #1290, 1000.000000000000000 ) ;
#1093 = CIRCLE ( 'NONE', #58, 1.000000000000000888 ) ;
#1094 = CARTESIAN_POINT ( 'NONE',  ( -1090.972523324353915, -1100.305262667903662, 25.00000000000046541 ) ) ;
#1095 = VECTOR ( 'NONE', #162, 1000.000000000000000 ) ;
#1096 = ORIENTED_EDGE ( 'NONE', *, *, #22, .T. ) ;
#1097 = CYLINDRICAL_SURFACE ( 'NONE', #288, 1.000000000000000888 ) ;
#1098 = EDGE_LOOP ( 'NONE', ( #1148, #1031, #779, #977 ) ) ;
#1099 = CARTESIAN_POINT ( 'NONE',  ( 346.9999999999996589, -1156.305262667904117, -627.9999999999997726 ) ) ;
#1100 = EDGE_CURVE ( 'NONE', #1061, #997, #329, .T. ) ;
#1101 = PLANE ( 'NONE',  #938 ) ;
#1102 = CALENDAR_DATE ( 2026, 11, 7 ) ;
#1103 = ORIENTED_EDGE ( 'NONE', *, *, #1253, .T. ) ;
#1104 = LINE ( 'NONE', #408, #183 ) ;
#1105 = CARTESIAN_POINT ( 'NONE',  ( 349.9999999999996589, -1155.305262667904117, 25.00000000000045119 ) ) ;
#1106 = ADVANCED_FACE ( 'NONE', ( #949 ), #34, .T. ) ;
#1107 = DIRECTION ( 'NONE',  ( 0.000000000000000000, 0.000000000000000000, 1.000000000000000000 ) ) ;
#1108 = APPROVAL_DATE_TIME ( #699, #1153 ) ;
#1109 = ORIENTED_EDGE ( 'NONE', *, *, #52, .F. ) ;
#1110 = DIRECTION ( 'NONE',  ( -0.000000000000000000, -0.000000000000000000, -1.000000000000000000 ) ) ;
#1111 = VERTEX_POINT ( 'NONE', #850 ) ;
#1112 = LINE ( 'NONE', #204, #818 ) ;
#1113 = DIRECTION ( 'NONE',  ( -0.000000000000000000, 0.000000000000000000, 1.000000000000000000 ) ) ;
#1114 = DATE_AND_TIME ( #1102, #760 ) ;
#1115 = VECTOR ( 'NONE', #72, 1000.000000000000000 ) ;
#1116 = EDGE_LOOP ( 'NONE', ( #1012, #1247, #980, #535 ) ) ;
#1117 = DIRECTION ( 'NONE',  ( 0.000000000000000000, 0.000000000000000000, 1.000000000000000000 ) ) ;
#1118 = CLOSED_SHELL ( 'NONE', ( #767, #854, #705, #147, #808, #129, #391, #537, #401, #232, #523, #814, #199, #81, #279, #530, #1089, #790, #757, #1106, #1293, #90, #374, #247, #96, #6, #903, #430, #73, #626, #425, #191, #1186, #1303, #1057, #287, #873, #654, #1004, #473, #439, #746 ) ) ;
#1119 = CARTESIAN_POINT ( 'NONE',  ( 346.9999999999996589, -1103.305262667904117, -630.9999999999995453 ) ) ;
#1120 = LINE ( 'NONE', #390, #560 ) ;
#1121 = ORIENTED_EDGE ( 'NONE', *, *, #944, .F. ) ;
#1122 = DIRECTION ( 'NONE',  ( -0.000000000000000000, 0.000000000000000000, -1.000000000000000000 ) ) ;
#1123 = EDGE_CURVE ( 'NONE', #904, #629, #24, .T. ) ;
#1124 = LINE ( 'NONE', #1119, #683 ) ;
#1125 = CARTESIAN_POINT ( 'NONE',  ( 349.9999999999996589, -1093.805262667903889, 28.00000000000046896 ) ) ;
#1126 = EDGE_LOOP ( 'NONE', ( #416, #832, #215, #769 ) ) ;
#1127 = DIRECTION ( 'NONE',  ( 0.000000000000000000, 0.000000000000000000, 1.000000000000000000 ) ) ;
#1128 = ORIENTED_EDGE ( 'NONE', *, *, #1029, .F. ) ;
#1129 = EDGE_CURVE ( 'NONE', #590, #220, #1248, .T. ) ;
#1130 = DIRECTION ( 'NONE',  ( 1.000000000000000000, 0.000000000000000000, 0.000000000000000000 ) ) ;
#1131 = CIRCLE ( 'NONE', #1173, 1.000000000000000888 ) ;
#1132 = VECTOR ( 'NONE', #411, 1000.000000000000000 ) ;
#1133 = CIRCLE ( 'NONE', #334, 1.000000000000000888 ) ;
#1134 = ORIENTED_EDGE ( 'NONE', *, *, #1253, .F. ) ;
#1135 = CARTESIAN_POINT ( 'NONE',  ( 346.9999999999996589, -1160.305262667904117, 27.00000000000046185 ) ) ;
#1136 = AXIS2_PLACEMENT_3D ( 'NONE', #42, #337, #349 ) ;
#1137 = VECTOR ( 'NONE', #1287, 1000.000000000000000 ) ;
#1138 = ORIENTED_EDGE ( 'NONE', *, *, #586, .T. ) ;
#1139 = DIRECTION ( 'NONE',  ( 1.000000000000000000, 0.000000000000000000, 0.000000000000000000 ) ) ;
#1140 = CC_DESIGN_DATE_AND_TIME_ASSIGNMENT ( #111, #504, ( #670 ) ) ;
#1141 = PRODUCT_DEFINITION_FORMATION_WITH_SPECIFIED_SOURCE ( 'ANY', '', #909, .NOT_KNOWN. ) ;
#1142 = EDGE_CURVE ( 'NONE', #181, #1229, #126, .T. ) ;
#1143 = VERTEX_POINT ( 'NONE', #940 ) ;
#1144 = DIRECTION ( 'NONE',  ( 0.000000000000000000, 0.000000000000000000, 1.000000000000000000 ) ) ;
#1145 = ORIENTED_EDGE ( 'NONE', *, *, #1233, .T. ) ;
#1146 = LINE ( 'NONE', #236, #1283 ) ;
#1147 = EDGE_CURVE ( 'NONE', #1143, #1068, #131, .T. ) ;
#1148 = ORIENTED_EDGE ( 'NONE', *, *, #324, .F. ) ;
#1149 = CYLINDRICAL_SURFACE ( 'NONE', #124, 3.000000000000002665 ) ;
#1150 = ORIENTED_EDGE ( 'NONE', *, *, #648, .T. ) ;
#1151 = CARTESIAN_POINT ( 'NONE',  ( 343.9999999999996589, -1097.305262667903889, -624.9999999999997726 ) ) ;
#1152 = FACE_OUTER_BOUND ( 'NONE', #1087, .T. ) ;
#1153 = APPROVAL ( #92, 'UNSPECIFIED' ) ;
#1154 = VERTEX_POINT ( 'NONE', #227 ) ;
#1155 = CARTESIAN_POINT ( 'NONE',  ( 309.9999999999996021, -1166.305262667903889, -624.9999999999997726 ) ) ;
#1156 = VERTEX_POINT ( 'NONE', #532 ) ;
#1157 = DIRECTION ( 'NONE',  ( 0.000000000000000000, 1.000000000000000000, 0.000000000000000000 ) ) ;
#1158 = VECTOR ( 'NONE', #3, 1000.000000000000000 ) ;
#1159 = CARTESIAN_POINT ( 'NONE',  ( -1090.972523324354370, -1163.305262667896159, 104.7558775263622834 ) ) ;
#1160 = ORIENTED_EDGE ( 'NONE', *, *, #331, .F. ) ;
#1161 =( NAMED_UNIT ( * ) PLANE_ANGLE_UNIT ( ) SI_UNIT ( $, .RADIAN. ) );
#1162 = DIRECTION ( 'NONE',  ( -0.000000000000000000, 1.000000000000000000, -0.000000000000000000 ) ) ;
#1163 = EDGE_CURVE ( 'NONE', #505, #910, #666, .T. ) ;
#1164 = DIRECTION ( 'NONE',  ( -1.000000000000000000, 0.000000000000000000, 0.000000000000000000 ) ) ;
#1165 = DIRECTION ( 'NONE',  ( 0.000000000000000000, 0.000000000000000000, -1.000000000000000000 ) ) ;
#1166 = DIRECTION ( 'NONE',  ( 5.551115123125788224E-15, 1.000000000000000000, -0.000000000000000000 ) ) ;
#1167 = VERTEX_POINT ( 'NONE', #234 ) ;
#1168 = CARTESIAN_POINT ( 'NONE',  ( 343.9999999999996589, -1103.305262667903889, 25.00000000000046541 ) ) ;
#1169 = PRODUCT_DEFINITION ( 'UNKNOWN', '', #1141, #677 ) ;
#1170 = LINE ( 'NONE', #89, #284 ) ;
#1171 = DIRECTION ( 'NONE',  ( -0.000000000000000000, 0.000000000000000000, -1.000000000000000000 ) ) ;
#1172 = FACE_OUTER_BOUND ( 'NONE', #687, .T. ) ;
#1173 = AXIS2_PLACEMENT_3D ( 'NONE', #424, #616, #250 ) ;
#1174 = VECTOR ( 'NONE', #914, 1000.000000000000000 ) ;
#1175 = ORIENTED_EDGE ( 'NONE', *, *, #990, .F. ) ;
#1176 = CARTESIAN_POINT ( 'NONE',  ( 346.9999999999995453, -1104.305262667903889, -626.9999999999997726 ) ) ;
#1177 = DIRECTION ( 'NONE',  ( 1.000000000000000000, 0.000000000000000000, -0.000000000000000000 ) ) ;
#1178 = VECTOR ( 'NONE', #860, 1000.000000000000000 ) ;
#1179 = CIRCLE ( 'NONE', #16, 1.000000000000000888 ) ;
#1180 = EDGE_CURVE ( 'NONE', #1007, #328, #633, .T. ) ;
#1181 = EDGE_LOOP ( 'NONE', ( #33, #171, #49, #151 ) ) ;
#1182 = LINE ( 'NONE', #478, #1238 ) ;
#1183 = ORIENTED_EDGE ( 'NONE', *, *, #324, .T. ) ;
#1184 = DIRECTION ( 'NONE',  ( 0.000000000000000000, 0.000000000000000000, -1.000000000000000000 ) ) ;
#1185 = DIRECTION ( 'NONE',  ( -0.000000000000000000, -1.000000000000000000, -1.369518533665899079E-16 ) ) ;
#1186 = ADVANCED_FACE ( 'NONE', ( #441 ), #844, .F. ) ;
#1187 = ORIENTED_EDGE ( 'NONE', *, *, #1020, .T. ) ;
#1188 = CARTESIAN_POINT ( 'NONE',  ( 309.9999999999996021, -1163.305262667903889, 104.7558775263622834 ) ) ;
#1189 = ORIENTED_EDGE ( 'NONE', *, *, #831, .F. ) ;
#1190 = DIRECTION ( 'NONE',  ( 0.000000000000000000, 0.000000000000000000, 1.000000000000000000 ) ) ;
#1191 = DIRECTION ( 'NONE',  ( -0.000000000000000000, -0.000000000000000000, 1.000000000000000000 ) ) ;
#1192 = CARTESIAN_POINT ( 'NONE',  ( 346.9999999999996589, -1155.305262667904117, 28.00000000000046185 ) ) ;
#1193 = ORIENTED_EDGE ( 'NONE', *, *, #1036, .F. ) ;
#1194 = DIRECTION ( 'NONE',  ( 0.000000000000000000, 0.000000000000000000, 1.000000000000000000 ) ) ;
#1195 = EDGE_CURVE ( 'NONE', #414, #627, #583, .T. ) ;
#1196 = AXIS2_PLACEMENT_3D ( 'NONE', #190, #1191, #592 ) ;
#1197 = CARTESIAN_POINT ( 'NONE',  ( 343.9999999999996589, -1103.305262667903889, 25.00000000000046541 ) ) ;
#1198 = AXIS2_PLACEMENT_3D ( 'NONE', #400, #293, #902 ) ;
#1199 = VECTOR ( 'NONE', #778, 1000.000000000000000 ) ;
#1200 = LINE ( 'NONE', #692, #377 ) ;
#1201 = PERSON_AND_ORGANIZATION ( #954, #524 ) ;
#1202 = ORIENTED_EDGE ( 'NONE', *, *, #410, .T. ) ;
#1203 = CARTESIAN_POINT ( 'NONE',  ( 309.9999999999996021, -1097.305262667903889, -624.9999999999997726 ) ) ;
#1204 = EDGE_CURVE ( 'NONE', #656, #1156, #579, .T. ) ;
#1205 = DIRECTION ( 'NONE',  ( 1.000000000000000000, -0.000000000000000000, -0.000000000000000000 ) ) ;
#1206 = DIRECTION ( 'NONE',  ( 1.000000000000000000, 0.000000000000000000, 0.000000000000000000 ) ) ;
#1207 = ORIENTED_EDGE ( 'NONE', *, *, #689, .T. ) ;
#1208 = CARTESIAN_POINT ( 'NONE',  ( 346.9999999999996589, -1160.305262667904117, 27.00000000000046185 ) ) ;
#1209 = VERTEX_POINT ( 'NONE', #1066 ) ;
#1210 = DIRECTION ( 'NONE',  ( 0.000000000000000000, 0.000000000000000000, 1.000000000000000000 ) ) ;
#1211 = DIRECTION ( 'NONE',  ( -1.000000000000000000, -0.000000000000000000, -0.000000000000000000 ) ) ;
#1212 = APPROVAL_STATUS ( 'not_yet_approved' ) ;
#1213 = ORIENTED_EDGE ( 'NONE', *, *, #296, .T. ) ;
#1214 = DIRECTION ( 'NONE',  ( -1.000000000000000000, -0.000000000000000000, -0.000000000000000000 ) ) ;
#1215 = PLANE ( 'NONE',  #141 ) ;
#1216 = AXIS2_PLACEMENT_3D ( 'NONE', #1224, #1051, #1015 ) ;
#1217 = CARTESIAN_POINT ( 'NONE',  ( 349.9999999999996589, -1159.305262667904117, 28.00000000000046896 ) ) ;
#1218 = EDGE_CURVE ( 'NONE', #957, #505, #85, .T. ) ;
#1219 = SHAPE_DEFINITION_REPRESENTATION ( #703, #912 ) ;
#1220 = CIRCLE ( 'NONE', #776, 6.000000000000005329 ) ;
#1221 = VERTEX_POINT ( 'NONE', #76 ) ;
#1222 = CARTESIAN_POINT ( 'NONE',  ( 346.9999999999996589, -1155.305262667904117, -624.9999999999997726 ) ) ;
#1223 = DIRECTION ( 'NONE',  ( -1.000000000000000000, 5.551115123125788224E-15, 0.000000000000000000 ) ) ;
#1224 = CARTESIAN_POINT ( 'NONE',  ( 346.9999999999996589, -1155.305262667904117, -630.9999999999995453 ) ) ;
#1225 = EDGE_CURVE ( 'NONE', #890, #656, #876, .T. ) ;
#1226 = ORIENTED_EDGE ( 'NONE', *, *, #1035, .T. ) ;
#1227 = LINE ( 'NONE', #308, #1049 ) ;
#1228 = CARTESIAN_POINT ( 'NONE',  ( 349.9999999999996589, -1107.305262667904117, 27.00000000000046896 ) ) ;
#1229 = VERTEX_POINT ( 'NONE', #976 ) ;
#1230 = CARTESIAN_POINT ( 'NONE',  ( 346.9999999999996589, -1108.305262667903889, 31.00000000000048672 ) ) ;
#1231 = ORIENTED_EDGE ( 'NONE', *, *, #296, .F. ) ;
#1232 = CARTESIAN_POINT ( 'NONE',  ( 346.9999999999996589, -1156.305262667904117, 28.00000000000046185 ) ) ;
#1233 = EDGE_CURVE ( 'NONE', #573, #220, #883, .T. ) ;
#1234 = AXIS2_PLACEMENT_3D ( 'NONE', #1251, #450, #1164 ) ;
#1235 = ORIENTED_EDGE ( 'NONE', *, *, #800, .T. ) ;
#1236 = LINE ( 'NONE', #1230, #102 ) ;
#1237 = VECTOR ( 'NONE', #382, 1000.000000000000000 ) ;
#1238 = VECTOR ( 'NONE', #657, 1000.000000000000000 ) ;
#1239 = ORIENTED_EDGE ( 'NONE', *, *, #1278, .T. ) ;
#1240 = DIRECTION ( 'NONE',  ( 0.000000000000000000, 1.369518533665899079E-16, -1.000000000000000000 ) ) ;
#1241 = EDGE_CURVE ( 'NONE', #165, #910, #371, .T. ) ;
#1242 = ORIENTED_EDGE ( 'NONE', *, *, #805, .F. ) ;
#1243 = DIRECTION ( 'NONE',  ( -1.000000000000000000, -0.000000000000000000, -0.000000000000000000 ) ) ;
#1244 = ORIENTED_EDGE ( 'NONE', *, *, #1204, .F. ) ;
#1245 = CARTESIAN_POINT ( 'NONE',  ( 349.9999999999996589, -1103.305262667904117, 104.7558775263622834 ) ) ;
#1246 = LINE ( 'NONE', #953, #475 ) ;
#1247 = ORIENTED_EDGE ( 'NONE', *, *, #341, .T. ) ;
#1248 = LINE ( 'NONE', #1023, #900 ) ;
#1249 = ORIENTED_EDGE ( 'NONE', *, *, #1100, .F. ) ;
#1250 = LINE ( 'NONE', #744, #1178 ) ;
#1251 = CARTESIAN_POINT ( 'NONE',  ( -1090.972523324353915, -1100.305262667903662, 25.00000000000046541 ) ) ;
#1252 = VECTOR ( 'NONE', #553, 1000.000000000000000 ) ;
#1253 = EDGE_CURVE ( 'NONE', #1143, #301, #358, .T. ) ;
#1254 = ORIENTED_EDGE ( 'NONE', *, *, #368, .F. ) ;
#1255 = DIRECTION ( 'NONE',  ( 0.000000000000000000, 0.000000000000000000, 1.000000000000000000 ) ) ;
#1256 = AXIS2_PLACEMENT_3D ( 'NONE', #787, #495, #185 ) ;
#1257 = ORIENTED_EDGE ( 'NONE', *, *, #1180, .F. ) ;
#1258 = CARTESIAN_POINT ( 'NONE',  ( 346.9999999999996589, -1160.305262667904117, 31.00000000000047251 ) ) ;
#1259 = CARTESIAN_POINT ( 'NONE',  ( 349.9999999999996589, -1103.305262667904117, -626.9999999999997726 ) ) ;
#1260 = CARTESIAN_POINT ( 'NONE',  ( 346.9999999999996589, -1108.305262667903889, 27.00000000000046896 ) ) ;
#1261 = CARTESIAN_POINT ( 'NONE',  ( 343.9999999999996589, -1103.305262667903889, 104.7558775263622834 ) ) ;
#1262 = EDGE_CURVE ( 'NONE', #426, #1082, #387, .T. ) ;
#1263 = ORIENTED_EDGE ( 'NONE', *, *, #662, .F. ) ;
#1264 = DIRECTION ( 'NONE',  ( -0.000000000000000000, 1.000000000000000000, -0.000000000000000000 ) ) ;
#1265 = DIRECTION ( 'NONE',  ( 0.000000000000000000, -1.000000000000000000, -1.369518533665899079E-16 ) ) ;
#1266 = LINE ( 'NONE', #84, #1272 ) ;
#1267 = CARTESIAN_POINT ( 'NONE',  ( 346.9999999999996589, -1108.305262667903889, -624.9999999999997726 ) ) ;
#1268 = ORIENTED_EDGE ( 'NONE', *, *, #170, .F. ) ;
#1269 = CARTESIAN_POINT ( 'NONE',  ( 343.9999999999996589, -1163.305262667904117, 25.00000000000045119 ) ) ;
#1270 = EDGE_CURVE ( 'NONE', #1281, #1221, #1182, .T. ) ;
#1271 = CARTESIAN_POINT ( 'NONE',  ( 343.9999999999996589, -1163.305262667904117, 25.00000000000045119 ) ) ;
#1272 = VECTOR ( 'NONE', #418, 1000.000000000000000 ) ;
#1273 = ORIENTED_EDGE ( 'NONE', *, *, #1163, .F. ) ;
#1274 = ORIENTED_EDGE ( 'NONE', *, *, #46, .T. ) ;
#1275 = DIRECTION ( 'NONE',  ( 1.000000000000000000, 0.000000000000000000, 0.000000000000000000 ) ) ;
#1276 = DIRECTION ( 'NONE',  ( -1.000000000000000000, -0.000000000000000000, -0.000000000000000000 ) ) ;
#1277 = AXIS2_PLACEMENT_3D ( 'NONE', #319, #719, #1122 ) ;
#1278 = EDGE_CURVE ( 'NONE', #819, #590, #278, .T. ) ;
#1279 = VERTEX_POINT ( 'NONE', #365 ) ;
#1280 = DIRECTION ( 'NONE',  ( 0.000000000000000000, 0.000000000000000000, 1.000000000000000000 ) ) ;
#1281 = VERTEX_POINT ( 'NONE', #470 ) ;
#1282 = FACE_OUTER_BOUND ( 'NONE', #127, .T. ) ;
#1283 = VECTOR ( 'NONE', #852, 1000.000000000000000 ) ;
#1284 = CARTESIAN_POINT ( 'NONE',  ( 346.9999999999996589, -1093.805262667903889, -624.9999999999997726 ) ) ;
#1285 = EDGE_CURVE ( 'NONE', #71, #512, #563, .T. ) ;
#1286 = CARTESIAN_POINT ( 'NONE',  ( 349.9999999999996589, -1104.305262667903889, 28.00000000000046896 ) ) ;
#1287 = DIRECTION ( 'NONE',  ( 0.000000000000000000, -1.000000000000000000, 0.000000000000000000 ) ) ;
#1288 = ORIENTED_EDGE ( 'NONE', *, *, #631, .T. ) ;
#1289 = CARTESIAN_POINT ( 'NONE',  ( 343.9999999999996589, -1100.305262667903662, -624.9999999999997726 ) ) ;
#1290 = DIRECTION ( 'NONE',  ( 0.000000000000000000, 0.000000000000000000, 1.000000000000000000 ) ) ;
#1291 = CARTESIAN_POINT ( 'NONE',  ( 346.9999999999996589, -1103.305262667903889, -624.9999999999997726 ) ) ;
#1292 = CALENDAR_DATE ( 2026, 11, 7 ) ;
#1293 = ADVANCED_FACE ( 'NONE', ( #1172 ), #1080, .T. ) ;
#1294 = ORIENTED_EDGE ( 'NONE', *, *, #631, .F. ) ;
#1295 = DIRECTION ( 'NONE',  ( 1.000000000000000000, 0.000000000000000000, -0.000000000000000000 ) ) ;
#1296 = VECTOR ( 'NONE', #1211, 1000.000000000000000 ) ;
#1297 = DIRECTION ( 'NONE',  ( 1.000000000000000000, 0.000000000000000000, 0.000000000000000000 ) ) ;
#1298 = AXIS2_PLACEMENT_3D ( 'NONE', #658, #878, #367 ) ;
#1299 = AXIS2_PLACEMENT_3D ( 'NONE', #971, #863, #1280 ) ;
#1300 = CARTESIAN_POINT ( 'NONE',  ( 343.9999999999996589, -1103.305262667903889, -624.9999999999997726 ) ) ;
#1301 = ORIENTED_EDGE ( 'NONE', *, *, #733, .T. ) ;
#1302 = DIRECTION ( 'NONE',  ( -1.000000000000000000, -0.000000000000000000, -0.000000000000000000 ) ) ;
#1303 = ADVANCED_FACE ( 'NONE', ( #266 ), #665, .T. ) ;
#1304 = EDGE_LOOP ( 'NONE', ( #448, #378, #310, #730 ) ) ;
#1305 = CARTESIAN_POINT ( 'NONE',  ( 346.9999999999996589, -1108.305262667903889, -630.9999999999995453 ) ) ;
ENDSEC;
END-ISO-10303-21;
