ISO-10303-21;
HEADER;
FILE_DESCRIPTION (( 'STEP AP203' ),
    '1' );
FILE_NAME ('CV03-TR-06_REV_B.step',
    '2025-08-17T04:53:57',
    ( '' ),
    ( '' ),
    'SwSTEP 2.0',
    'SolidWorks 2024',
    '' );
FILE_SCHEMA (( 'CONFIG_CONTROL_DESIGN' ));
ENDSEC;

DATA;
#1 = FACE_OUTER_BOUND ( 'NONE', #256, .T. ) ;
#2 = ORIENTED_EDGE ( 'NONE', *, *, #755, .T. ) ;
#3 = EDGE_CURVE ( 'NONE', #654, #395, #891, .T. ) ;
#4 = FACE_OUTER_BOUND ( 'NONE', #640, .T. ) ;
#5 = UNCERTAINTY_MEASURE_WITH_UNIT (LENGTH_MEASURE( 1.000000000000000082E-05 ), #364, 'distance_accuracy_value', 'NONE');
#6 = VERTEX_POINT ( 'NONE', #657 ) ;
#7 = ORIENTED_EDGE ( 'NONE', *, *, #80, .F. ) ;
#8 = EDGE_CURVE ( 'NONE', #1039, #842, #720, .T. ) ;
#9 = CARTESIAN_POINT ( 'NONE',  ( -640.6439039299917795, -1170.205262667903753, -1257.423016402854728 ) ) ;
#10 = DIRECTION ( 'NONE',  ( -0.5000000000000014433, -9.490982765940296532E-31, 0.8660254037844378194 ) ) ;
#11 = CARTESIAN_POINT ( 'NONE',  ( -672.0225243884034398, -1174.405262667903799, -1211.073651497465562 ) ) ;
#12 = ADVANCED_FACE ( 'NONE', ( #83 ), #413, .T. ) ;
#13 = DIRECTION ( 'NONE',  ( 0.000000000000000000, -1.000000000000000000, 0.000000000000000000 ) ) ;
#14 = VERTEX_POINT ( 'NONE', #976 ) ;
#15 = CARTESIAN_POINT ( 'NONE',  ( -588.6205321103212782, -1249.305262667903662, -1347.530139575570047 ) ) ;
#16 = PERSON_AND_ORGANIZATION_ROLE ( 'creator' ) ;
#17 = VECTOR ( 'NONE', #758, 1000.000000000000000 ) ;
#18 = VECTOR ( 'NONE', #609, 1000.000000000000114 ) ;
#19 = LINE ( 'NONE', #277, #136 ) ;
#20 = EDGE_CURVE ( 'NONE', #191, #333, #207, .T. ) ;
#21 = ADVANCED_FACE ( 'NONE', ( #4 ), #895, .T. ) ;
#22 = LINE ( 'NONE', #176, #398 ) ;
#23 = ORIENTED_EDGE ( 'NONE', *, *, #462, .T. ) ;
#24 = PLANE ( 'NONE',  #430 ) ;
#25 =( NAMED_UNIT ( * ) PLANE_ANGLE_UNIT ( ) SI_UNIT ( $, .RADIAN. ) );
#26 = ORIENTED_EDGE ( 'NONE', *, *, #1041, .T. ) ;
#27 = CARTESIAN_POINT ( 'NONE',  ( -1024.963065701558435, -1170.205262667903753, -591.7627018922212301 ) ) ;
#28 = DIRECTION ( 'NONE',  ( 0.3535533905932757848, 0.7071067811865477948, -0.6123724356957931381 ) ) ;
#29 = FACE_BOUND ( 'NONE', #674, .T. ) ;
#30 = CARTESIAN_POINT ( 'NONE',  ( -681.3929598281034714, -1101.127593138239490, -1186.843581226860579 ) ) ;
#31 = CARTESIAN_POINT ( 'NONE',  ( -665.1849200813693415, -1093.805262667903435, -1214.916729559299938 ) ) ;
#32 = ORIENTED_EDGE ( 'NONE', *, *, #947, .T. ) ;
#33 = EDGE_LOOP ( 'NONE', ( #664, #460, #751, #320 ) ) ;
#34 = AXIS2_PLACEMENT_3D ( 'NONE', #570, #806, #412 ) ;
#35 = CIRCLE ( 'NONE', #274, 24.99999999999993250 ) ;
#36 = VECTOR ( 'NONE', #301, 1000.000000000000000 ) ;
#37 =( GEOMETRIC_REPRESENTATION_CONTEXT ( 3 ) GLOBAL_UNCERTAINTY_ASSIGNED_CONTEXT ( ( #5 ) ) GLOBAL_UNIT_ASSIGNED_CONTEXT ( ( #364, #25, #116 ) ) REPRESENTATION_CONTEXT ( 'NONE', 'WORKASPACE' ) );
#38 = LINE ( 'NONE', #540, #812 ) ;
#39 = CARTESIAN_POINT ( 'NONE',  ( -708.9458962080738047, -1249.305262667903662, -1147.120495519039878 ) ) ;
#40 = ORIENTED_EDGE ( 'NONE', *, *, #291, .F. ) ;
#41 = CARTESIAN_POINT ( 'NONE',  ( -638.8096715949690179, -1158.905262667903571, -1260.599999999999682 ) ) ;
#42 = CARTESIAN_POINT ( 'NONE',  ( -676.0182266784096328, -1118.805262667903207, -1204.152892119255739 ) ) ;
#43 = ORIENTED_EDGE ( 'NONE', *, *, #331, .T. ) ;
#44 = ORIENTED_EDGE ( 'NONE', *, *, #428, .F. ) ;
#45 = LINE ( 'NONE', #943, #222 ) ;
#46 = EDGE_LOOP ( 'NONE', ( #61, #820, #731, #856 ) ) ;
#47 = FACE_BOUND ( 'NONE', #33, .T. ) ;
#48 = VECTOR ( 'NONE', #753, 999.9999999999998863 ) ;
#49 = DIRECTION ( 'NONE',  ( 0.5000000000000014433, 9.490982765940296532E-31, -0.8660254037844378194 ) ) ;
#50 = VECTOR ( 'NONE', #264, 999.9999999999998863 ) ;
#51 = ORIENTED_EDGE ( 'NONE', *, *, #203, .T. ) ;
#52 = PRODUCT_DEFINITION_SHAPE ( 'NONE', 'NONE',  #999 ) ;
#53 = EDGE_CURVE ( 'NONE', #789, #1004, #231, .T. ) ;
#54 = FACE_BOUND ( 'NONE', #411, .T. ) ;
#55 = DIRECTION ( 'NONE',  ( 0.5000000000000039968, 0.000000000000000000, -0.8660254037844362651 ) ) ;
#56 = EDGE_LOOP ( 'NONE', ( #879, #245, #214, #500 ) ) ;
#57 = CALENDAR_DATE ( 2025, 17, 8 ) ;
#58 = EDGE_LOOP ( 'NONE', ( #350, #217, #916, #94 ) ) ;
#59 = EDGE_CURVE ( 'NONE', #951, #111, #77, .T. ) ;
#60 = DIRECTION ( 'NONE',  ( 0.5000000000000039968, 0.000000000000000000, -0.8660254037844362651 ) ) ;
#61 = ORIENTED_EDGE ( 'NONE', *, *, #947, .F. ) ;
#62 = DATE_AND_TIME ( #57, #118 ) ;
#63 = EDGE_LOOP ( 'NONE', ( #1027, #1011, #679, #318, #579, #572, #608, #305, #285, #870, #473, #805, #726, #464, #991, #491 ) ) ;
#64 = ADVANCED_FACE ( 'NONE', ( #557 ), #878, .T. ) ;
#65 = CARTESIAN_POINT ( 'NONE',  ( -667.7849200813692505, -1093.805262667903435, -1210.413397459620910 ) ) ;
#66 = DIRECTION ( 'NONE',  ( 0.8660254037844377084, -0.000000000000000000, 0.5000000000000014433 ) ) ;
#67 = LINE ( 'NONE', #782, #998 ) ;
#68 = FACE_OUTER_BOUND ( 'NONE', #234, .T. ) ;
#69 = DIRECTION ( 'NONE',  ( 0.5000000000000039968, 0.000000000000000000, -0.8660254037844362651 ) ) ;
#70 = DIRECTION ( 'NONE',  ( 0.8660254037844378194, -0.000000000000000000, 0.5000000000000014433 ) ) ;
#71 = ORIENTED_EDGE ( 'NONE', *, *, #523, .F. ) ;
#72 = DIRECTION ( 'NONE',  ( -0.000000000000000000, -1.000000000000000000, -0.000000000000000000 ) ) ;
#73 = DIRECTION ( 'NONE',  ( 0.000000000000000000, 1.000000000000000000, 0.000000000000000000 ) ) ;
#74 = ORIENTED_EDGE ( 'NONE', *, *, #1041, .F. ) ;
#75 = CARTESIAN_POINT ( 'NONE',  ( -641.8118929947552260, -1156.305262667903662, -1255.399999999999409 ) ) ;
#76 = DIRECTION ( 'NONE',  ( 0.8660254037844378194, -0.000000000000000000, 0.5000000000000014433 ) ) ;
#77 = LINE ( 'NONE', #561, #970 ) ;
#78 = VECTOR ( 'NONE', #892, 1000.000000000000000 ) ;
#79 = FACE_OUTER_BOUND ( 'NONE', #645, .T. ) ;
#80 = EDGE_CURVE ( 'NONE', #182, #589, #508, .T. ) ;
#81 = VECTOR ( 'NONE', #868, 1000.000000000000000 ) ;
#82 = CARTESIAN_POINT ( 'NONE',  ( -644.1080055451295721, -1170.205262667903753, -1259.423016402854500 ) ) ;
#83 = FACE_OUTER_BOUND ( 'NONE', #932, .T. ) ;
#84 = ORIENTED_EDGE ( 'NONE', *, *, #593, .T. ) ;
#85 = CARTESIAN_POINT ( 'NONE',  ( -641.5080055451296630, -1174.405262667903799, -1263.926348502533529 ) ) ;
#86 = LINE ( 'NONE', #257, #650 ) ;
#87 = CARTESIAN_POINT ( 'NONE',  ( -1024.963065701558435, -1174.405262667903799, -591.7627018922212301 ) ) ;
#88 = ORIENTED_EDGE ( 'NONE', *, *, #227, .T. ) ;
#89 = CARTESIAN_POINT ( 'NONE',  ( -634.0482016399856775, -1118.805262667903207, -1268.847107880743806 ) ) ;
#90 = EDGE_CURVE ( 'NONE', #1039, #124, #432, .T. ) ;
#91 = ADVANCED_FACE ( 'NONE', ( #1050 ), #1046, .T. ) ;
#92 = DIRECTION ( 'NONE',  ( 0.8660254037844378194, -0.000000000000000000, 0.5000000000000014433 ) ) ;
#93 = DIRECTION ( 'NONE',  ( 4.745491382970162279E-31, -1.000000000000000000, -8.219432182184587225E-31 ) ) ;
#94 = ORIENTED_EDGE ( 'NONE', *, *, #358, .F. ) ;
#95 = VECTOR ( 'NONE', #351, 1000.000000000000114 ) ;
#96 = DIRECTION ( 'NONE',  ( 0.8660254037844377084, -0.000000000000000000, 0.5000000000000014433 ) ) ;
#97 = EDGE_LOOP ( 'NONE', ( #927, #458, #238, #1017 ) ) ;
#98 = AXIS2_PLACEMENT_3D ( 'NONE', #611, #200, #120 ) ;
#99 = VECTOR ( 'NONE', #10, 1000.000000000000114 ) ;
#100 = CC_DESIGN_APPROVAL ( #1021, ( #325 ) ) ;
#101 = DIRECTION ( 'NONE',  ( 0.8660254037844378194, -0.000000000000000000, 0.5000000000000014433 ) ) ;
#102 = PLANE ( 'NONE',  #704 ) ;
#103 = ORIENTED_EDGE ( 'NONE', *, *, #593, .F. ) ;
#104 = CARTESIAN_POINT ( 'NONE',  ( -708.9458962080738047, -1224.305262667903889, -1147.120495519040105 ) ) ;
#105 = PERSON_AND_ORGANIZATION_ROLE ( 'design_owner' ) ;
#106 = CARTESIAN_POINT ( 'NONE',  ( -717.9817945929357847, -1174.305262667903889, -1123.469860424429044 ) ) ;
#107 = CARTESIAN_POINT ( 'NONE',  ( -668.5584227732657610, -1174.405262667903799, -1209.073651497465789 ) ) ;
#108 = ORIENTED_EDGE ( 'NONE', *, *, #771, .F. ) ;
#109 = EDGE_CURVE ( 'NONE', #279, #434, #254, .T. ) ;
#110 = APPROVAL_ROLE ( '' ) ;
#111 = VERTEX_POINT ( 'NONE', #489 ) ;
#112 = LINE ( 'NONE', #288, #746 ) ;
#113 = CARTESIAN_POINT ( 'NONE',  ( -641.8118929947552260, -1158.905262667903571, -1255.399999999999409 ) ) ;
#114 = ORIENTED_EDGE ( 'NONE', *, *, #552, .F. ) ;
#115 = FACE_OUTER_BOUND ( 'NONE', #754, .T. ) ;
#116 =( NAMED_UNIT ( * ) SI_UNIT ( $, .STERADIAN. ) SOLID_ANGLE_UNIT ( ) );
#117 = ORIENTED_EDGE ( 'NONE', *, *, #840, .T. ) ;
#118 = LOCAL_TIME ( 14, 53, 57.00000000000000000, #790 ) ;
#119 = PLANE ( 'NONE',  #885 ) ;
#120 = DIRECTION ( 'NONE',  ( 0.4999999999999990563, -0.000000000000000000, -0.8660254037844391517 ) ) ;
#121 = ORIENTED_EDGE ( 'NONE', *, *, #869, .T. ) ;
#122 = LINE ( 'NONE', #442, #308 ) ;
#123 = APPROVAL_DATE_TIME ( #766, #554 ) ;
#124 = VERTEX_POINT ( 'NONE', #651 ) ;
#125 = EDGE_CURVE ( 'NONE', #451, #138, #807, .T. ) ;
#126 = CARTESIAN_POINT ( 'NONE',  ( -640.3107822948621788, -1153.705262667903298, -1257.999999999999545 ) ) ;
#127 = ORIENTED_EDGE ( 'NONE', *, *, #250, .F. ) ;
#128 = ORIENTED_EDGE ( 'NONE', *, *, #858, .T. ) ;
#129 = LINE ( 'NONE', #300, #936 ) ;
#130 = DIRECTION ( 'NONE',  ( -0.000000000000000000, -1.000000000000000000, -0.000000000000000000 ) ) ;
#131 = EDGE_CURVE ( 'NONE', #787, #327, #723, .T. ) ;
#132 = ORIENTED_EDGE ( 'NONE', *, *, #823, .T. ) ;
#133 = ORIENTED_EDGE ( 'NONE', *, *, #276, .F. ) ;
#134 = CARTESIAN_POINT ( 'NONE',  ( -717.9817945929357847, -1184.660601727231096, -1123.469860424429044 ) ) ;
#135 = CARTESIAN_POINT ( 'NONE',  ( -665.9584227732656245, -1170.205262667903753, -1213.576983597144817 ) ) ;
#136 = VECTOR ( 'NONE', #682, 1000.000000000000000 ) ;
#137 = ADVANCED_FACE ( 'NONE', ( #644 ), #576, .T. ) ;
#138 = VERTEX_POINT ( 'NONE', #972 ) ;
#139 = COORDINATED_UNIVERSAL_TIME_OFFSET ( 10, 0, .AHEAD. ) ;
#140 = LINE ( 'NONE', #880, #169 ) ;
#141 = ORIENTED_EDGE ( 'NONE', *, *, #462, .F. ) ;
#142 = EDGE_CURVE ( 'NONE', #201, #124, #242, .T. ) ;
#143 = CARTESIAN_POINT ( 'NONE',  ( -667.7849200813695916, 0.000000000000000000, -1210.413397459621137 ) ) ;
#144 = DIRECTION ( 'NONE',  ( 0.5000000000000014433, 0.000000000000000000, -0.8660254037844378194 ) ) ;
#145 = ORIENTED_EDGE ( 'NONE', *, *, #241, .T. ) ;
#146 = DIRECTION ( 'NONE',  ( 0.000000000000000000, 1.000000000000000000, 0.000000000000000000 ) ) ;
#147 = AXIS2_PLACEMENT_3D ( 'NONE', #261, #590, #1005 ) ;
#148 = AXIS2_PLACEMENT_3D ( 'NONE', #735, #835, #171 ) ;
#149 = DIRECTION ( 'NONE',  ( 0.8660254037844377084, -0.000000000000000000, 0.5000000000000014433 ) ) ;
#150 = CIRCLE ( 'NONE', #635, 24.99999999999993250 ) ;
#151 = ORIENTED_EDGE ( 'NONE', *, *, #668, .T. ) ;
#152 = FACE_OUTER_BOUND ( 'NONE', #796, .T. ) ;
#153 = CC_DESIGN_PERSON_AND_ORGANIZATION_ASSIGNMENT ( #184, #105, ( #196 ) ) ;
#154 = PLANE ( 'NONE',  #492 ) ;
#155 = EDGE_CURVE ( 'NONE', #327, #863, #499, .T. ) ;
#156 = DIRECTION ( 'NONE',  ( 0.5000000000000039968, 0.000000000000000000, -0.8660254037844362651 ) ) ;
#157 = DIRECTION ( 'NONE',  ( 0.000000000000000000, 1.000000000000000000, 0.000000000000000000 ) ) ;
#158 = CARTESIAN_POINT ( 'NONE',  ( -676.0182266784097465, -1093.805262667903435, -1204.152892119255512 ) ) ;
#159 = EDGE_CURVE ( 'NONE', #647, #1033, #740, .T. ) ;
#160 = CARTESIAN_POINT ( 'NONE',  ( -640.3107822948621788, -1153.705262667903298, -1257.999999999999545 ) ) ;
#161 = ORIENTED_EDGE ( 'NONE', *, *, #109, .T. ) ;
#162 = ORIENTED_EDGE ( 'NONE', *, *, #523, .T. ) ;
#163 = CARTESIAN_POINT ( 'NONE',  ( -672.5541250632718402, -1118.805262667903207, -1202.152892119255739 ) ) ;
#164 = VECTOR ( 'NONE', #915, 999.9999999999998863 ) ;
#165 = VECTOR ( 'NONE', #515, 1000.000000000000000 ) ;
#166 = VECTOR ( 'NONE', #639, 1000.000000000000000 ) ;
#167 = FACE_OUTER_BOUND ( 'NONE', #702, .T. ) ;
#168 = LOCAL_TIME ( 14, 53, 57.00000000000000000, #139 ) ;
#169 = VECTOR ( 'NONE', #1045, 1000.000000000000000 ) ;
#170 = ORIENTED_EDGE ( 'NONE', *, *, #559, .T. ) ;
#171 = DIRECTION ( 'NONE',  ( 0.3535533905932757848, 0.7071067811865477948, -0.6123724356957931381 ) ) ;
#172 = EDGE_CURVE ( 'NONE', #625, #951, #846, .T. ) ;
#173 = DIRECTION ( 'NONE',  ( 0.5000000000000014433, -1.873544649899903038E-29, -0.8660254037844378194 ) ) ;
#174 = ORIENTED_EDGE ( 'NONE', *, *, #859, .T. ) ;
#175 = FACE_OUTER_BOUND ( 'NONE', #760, .T. ) ;
#176 = CARTESIAN_POINT ( 'NONE',  ( -638.8096715949691315, -1153.705262667903298, -1260.599999999999454 ) ) ;
#177 = ORIENTED_EDGE ( 'NONE', *, *, #155, .F. ) ;
#178 = DIRECTION ( 'NONE',  ( 0.8660254037844378194, -0.000000000000000000, 0.5000000000000014433 ) ) ;
#179 = DATE_TIME_ROLE ( 'creation_date' ) ;
#180 = CARTESIAN_POINT ( 'NONE',  ( -638.0439039299916431, -1170.205262667903753, -1261.926348502533756 ) ) ;
#181 = FACE_OUTER_BOUND ( 'NONE', #1026, .T. ) ;
#182 = VERTEX_POINT ( 'NONE', #672 ) ;
#183 = LINE ( 'NONE', #909, #164 ) ;
#184 = PERSON_AND_ORGANIZATION ( #409, #418 ) ;
#185 = VECTOR ( 'NONE', #913, 999.9999999999998863 ) ;
#186 = ADVANCED_FACE ( 'NONE', ( #984 ), #752, .F. ) ;
#187 = DIRECTION ( 'NONE',  ( -0.5000000000000014433, 0.000000000000000000, 0.8660254037844378194 ) ) ;
#188 = EDGE_CURVE ( 'NONE', #294, #787, #824, .T. ) ;
#189 = DIRECTION ( 'NONE',  ( 0.000000000000000000, 1.000000000000000000, 0.000000000000000000 ) ) ;
#190 = EDGE_LOOP ( 'NONE', ( #775, #243, #595, #474 ) ) ;
#191 = VERTEX_POINT ( 'NONE', #192 ) ;
#192 = CARTESIAN_POINT ( 'NONE',  ( -601.1205321103212782, -1249.305262667903662, -1325.879504480959213 ) ) ;
#193 = EDGE_CURVE ( 'NONE', #1004, #625, #597, .T. ) ;
#194 = PLANE ( 'NONE',  #449 ) ;
#195 = ORIENTED_EDGE ( 'NONE', *, *, #987, .T. ) ;
#196 = PRODUCT ( 'CV03-TR-06_REV_B', 'CV03-TR-06_REV_B', '', ( #1006 ) ) ;
#197 = CARTESIAN_POINT ( 'NONE',  ( -714.3206293577676433, -1166.982932197567607, -1129.811184626645172 ) ) ;
#198 = CARTESIAN_POINT ( 'NONE',  ( -1028.427167316696341, -1170.205262667903753, -593.7627018922212301 ) ) ;
#199 = CARTESIAN_POINT ( 'NONE',  ( -665.1849200813693415, -1093.805262667903435, -1214.916729559299938 ) ) ;
#200 = DIRECTION ( 'NONE',  ( 0.000000000000000000, -1.000000000000000000, 0.000000000000000000 ) ) ;
#201 = VERTEX_POINT ( 'NONE', #989 ) ;
#202 = CARTESIAN_POINT ( 'NONE',  ( -638.0439039299916431, 0.000000000000000000, -1261.926348502533756 ) ) ;
#203 = EDGE_CURVE ( 'NONE', #510, #809, #920, .T. ) ;
#204 = DIRECTION ( 'NONE',  ( 1.000000000000000000, 0.000000000000000000, 0.000000000000000000 ) ) ;
#205 = ORIENTED_EDGE ( 'NONE', *, *, #1029, .F. ) ;
#206 = ADVANCED_FACE ( 'NONE', ( #175 ), #248, .T. ) ;
#207 = CIRCLE ( 'NONE', #533, 24.99999999999993250 ) ;
#208 = LINE ( 'NONE', #448, #81 ) ;
#209 = ORIENTED_EDGE ( 'NONE', *, *, #771, .T. ) ;
#210 = APPROVAL_STATUS ( 'not_yet_approved' ) ;
#211 = EDGE_CURVE ( 'NONE', #838, #434, #660, .T. ) ;
#212 = DIRECTION ( 'NONE',  ( 0.000000000000000000, 1.000000000000000000, 0.000000000000000000 ) ) ;
#213 = VERTEX_POINT ( 'NONE', #30 ) ;
#214 = ORIENTED_EDGE ( 'NONE', *, *, #545, .T. ) ;
#215 = EDGE_CURVE ( 'NONE', #138, #510, #1002, .T. ) ;
#216 = CARTESIAN_POINT ( 'NONE',  ( -641.8118929947552260, -1158.905262667903571, -1255.399999999999409 ) ) ;
#217 = ORIENTED_EDGE ( 'NONE', *, *, #292, .T. ) ;
#218 = PERSON_AND_ORGANIZATION_ROLE ( 'design_supplier' ) ;
#219 = LINE ( 'NONE', #548, #815 ) ;
#220 = DIRECTION ( 'NONE',  ( 0.8660254037844377084, -0.000000000000000000, 0.5000000000000014433 ) ) ;
#221 = APPROVAL_PERSON_ORGANIZATION ( #537, #1021, #311 ) ;
#222 = VECTOR ( 'NONE', #212, 1000.000000000000000 ) ;
#223 = VERTEX_POINT ( 'NONE', #444 ) ;
#224 = ORIENTED_EDGE ( 'NONE', *, *, #292, .F. ) ;
#225 = DIRECTION ( 'NONE',  ( 0.3535533905932757848, -0.7071067811865477948, -0.6123724356957931381 ) ) ;
#226 = DIRECTION ( 'NONE',  ( 0.8660254037844378194, -0.000000000000000000, 0.5000000000000014433 ) ) ;
#227 = EDGE_CURVE ( 'NONE', #829, #654, #979, .T. ) ;
#228 = DATE_AND_TIME ( #293, #168 ) ;
#229 = ORIENTED_EDGE ( 'NONE', *, *, #331, .F. ) ;
#230 = PLANE ( 'NONE',  #419 ) ;
#231 = LINE ( 'NONE', #403, #166 ) ;
#232 = ORIENTED_EDGE ( 'NONE', *, *, #691, .T. ) ;
#233 = FACE_OUTER_BOUND ( 'NONE', #56, .T. ) ;
#234 = EDGE_LOOP ( 'NONE', ( #141, #380, #170, #496 ) ) ;
#235 = CIRCLE ( 'NONE', #898, 24.99999999999993250 ) ;
#236 = VECTOR ( 'NONE', #70, 999.9999999999998863 ) ;
#237 = VECTOR ( 'NONE', #1034, 999.9999999999998863 ) ;
#238 = ORIENTED_EDGE ( 'NONE', *, *, #428, .T. ) ;
#239 = CARTESIAN_POINT ( 'NONE',  ( -665.1849200813696825, 0.000000000000000000, -1214.916729559299938 ) ) ;
#240 = ORIENTED_EDGE ( 'NONE', *, *, #358, .T. ) ;
#241 = EDGE_CURVE ( 'NONE', #996, #814, #19, .T. ) ;
#242 = LINE ( 'NONE', #502, #17 ) ;
#243 = ORIENTED_EDGE ( 'NONE', *, *, #90, .T. ) ;
#244 = CARTESIAN_POINT ( 'NONE',  ( -717.9817945929357847, -1224.305262667903889, -1123.469860424429044 ) ) ;
#245 = ORIENTED_EDGE ( 'NONE', *, *, #621, .F. ) ;
#246 = EDGE_CURVE ( 'NONE', #709, #589, #603, .T. ) ;
#247 = DIRECTION ( 'NONE',  ( 0.8660254037844377084, -0.000000000000000000, 0.5000000000000014433 ) ) ;
#248 = CYLINDRICAL_SURFACE ( 'NONE', #1052, 24.99999999999993250 ) ;
#249 = VECTOR ( 'NONE', #926, 999.9999999999998863 ) ;
#250 = EDGE_CURVE ( 'NONE', #625, #522, #914, .T. ) ;
#251 = ADVANCED_FACE ( 'NONE', ( #506 ), #438, .T. ) ;
#252 = ORIENTED_EDGE ( 'NONE', *, *, #414, .F. ) ;
#253 = LOCAL_TIME ( 14, 53, 57.00000000000000000, #956 ) ;
#254 = CIRCLE ( 'NONE', #648, 24.99999999999993250 ) ;
#255 = CIRCLE ( 'NONE', #689, 24.99999999999993250 ) ;
#256 = EDGE_LOOP ( 'NONE', ( #263, #162, #966, #694 ) ) ;
#257 = CARTESIAN_POINT ( 'NONE',  ( -665.9584227732656245, -1174.405262667903799, -1213.576983597144817 ) ) ;
#258 = CARTESIAN_POINT ( 'NONE',  ( -1028.427167316696341, -1170.205262667903753, -593.7627018922212301 ) ) ;
#259 = DIRECTION ( 'NONE',  ( 0.5000000000000014433, 0.000000000000000000, -0.8660254037844378194 ) ) ;
#260 = ORIENTED_EDGE ( 'NONE', *, *, #142, .F. ) ;
#261 = CARTESIAN_POINT ( 'NONE',  ( -1024.963065701558435, 0.000000000000000000, -591.7627018922212301 ) ) ;
#262 = DATE_AND_TIME ( #671, #852 ) ;
#263 = ORIENTED_EDGE ( 'NONE', *, *, #402, .F. ) ;
#264 = DIRECTION ( 'NONE',  ( 0.8660254037844378194, -0.000000000000000000, 0.5000000000000014433 ) ) ;
#265 = CARTESIAN_POINT ( 'NONE',  ( -667.7849200813695916, 0.000000000000000000, -1210.413397459621137 ) ) ;
#266 = LINE ( 'NONE', #1003, #816 ) ;
#267 = ORIENTED_EDGE ( 'NONE', *, *, #378, .F. ) ;
#268 = CARTESIAN_POINT ( 'NONE',  ( -665.1849200813697962, -1096.905262667903344, -1214.916729559299711 ) ) ;
#269 = CARTESIAN_POINT ( 'NONE',  ( -665.9584227732656245, 0.000000000000000000, -1213.576983597144817 ) ) ;
#270 = LINE ( 'NONE', #837, #1035 ) ;
#271 = ORIENTED_EDGE ( 'NONE', *, *, #8, .T. ) ;
#272 = DIRECTION ( 'NONE',  ( 0.8660254037844378194, -0.000000000000000000, 0.5000000000000014433 ) ) ;
#273 = VECTOR ( 'NONE', #437, 999.9999999999998863 ) ;
#274 = AXIS2_PLACEMENT_3D ( 'NONE', #769, #289, #616 ) ;
#275 = AXIS2_PLACEMENT_3D ( 'NONE', #143, #975, #791 ) ;
#276 = EDGE_CURVE ( 'NONE', #451, #617, #925, .T. ) ;
#277 = CARTESIAN_POINT ( 'NONE',  ( -672.0225243884034398, 0.000000000000000000, -1211.073651497465562 ) ) ;
#278 = CARTESIAN_POINT ( 'NONE',  ( -604.5846337254591845, -1184.660601727231096, -1327.879504480959213 ) ) ;
#279 = VERTEX_POINT ( 'NONE', #544 ) ;
#280 = FACE_OUTER_BOUND ( 'NONE', #765, .T. ) ;
#281 = DIRECTION ( 'NONE',  ( 0.8660254037844378194, -0.000000000000000000, 0.5000000000000014433 ) ) ;
#282 = CC_DESIGN_PERSON_AND_ORGANIZATION_ASSIGNMENT ( #547, #876, ( #325 ) ) ;
#283 = LINE ( 'NONE', #985, #48 ) ;
#284 = EDGE_CURVE ( 'NONE', #138, #612, #208, .T. ) ;
#285 = ORIENTED_EDGE ( 'NONE', *, *, #20, .T. ) ;
#286 = CARTESIAN_POINT ( 'NONE',  ( -705.4817945929357847, -1249.305262667903662, -1145.120495519039878 ) ) ;
#287 = APPLICATION_PROTOCOL_DEFINITION ( 'international standard', 'config_control_design', 1994, #369 ) ;
#288 = CARTESIAN_POINT ( 'NONE',  ( -645.2759946098931323, 0.000000000000000000, -1257.399999999999181 ) ) ;
#289 = DIRECTION ( 'NONE',  ( 0.8660254037844377084, -0.000000000000000000, 0.5000000000000014433 ) ) ;
#290 = ORIENTED_EDGE ( 'NONE', *, *, #329, .T. ) ;
#291 = EDGE_CURVE ( 'NONE', #569, #829, #698, .T. ) ;
#292 = EDGE_CURVE ( 'NONE', #553, #787, #1019, .T. ) ;
#293 = CALENDAR_DATE ( 2025, 17, 8 ) ;
#294 = VERTEX_POINT ( 'NONE', #468 ) ;
#295 = CARTESIAN_POINT ( 'NONE',  ( -625.2093668751535915, -1101.127593138239490, -1284.156418773138739 ) ) ;
#296 = VECTOR ( 'NONE', #310, 1000.000000000000114 ) ;
#297 = LOCAL_TIME ( 14, 53, 57.00000000000000000, #849 ) ;
#298 = PLANE ( 'NONE',  #1001 ) ;
#299 = VERTEX_POINT ( 'NONE', #784 ) ;
#300 = CARTESIAN_POINT ( 'NONE',  ( -588.6205321103212782, -1174.305262667903889, -1347.530139575570047 ) ) ;
#301 = DIRECTION ( 'NONE',  ( 3.437295801910607336E-15, -1.000000000000000000, 1.984523656517489010E-15 ) ) ;
#302 = ORIENTED_EDGE ( 'NONE', *, *, #59, .F. ) ;
#303 = ORIENTED_EDGE ( 'NONE', *, *, #555, .F. ) ;
#304 = DIRECTION ( 'NONE',  ( 0.000000000000000000, -1.000000000000000000, 0.000000000000000000 ) ) ;
#305 = ORIENTED_EDGE ( 'NONE', *, *, #987, .F. ) ;
#306 = APPROVAL_ROLE ( '' ) ;
#307 = ORIENTED_EDGE ( 'NONE', *, *, #276, .T. ) ;
#308 = VECTOR ( 'NONE', #178, 999.9999999999998863 ) ;
#309 = FACE_OUTER_BOUND ( 'NONE', #743, .T. ) ;
#310 = DIRECTION ( 'NONE',  ( -0.5000000000000014433, -0.000000000000000000, 0.8660254037844378194 ) ) ;
#311 = APPROVAL_ROLE ( '' ) ;
#312 = DIRECTION ( 'NONE',  ( 0.8660254037844378194, -0.000000000000000000, 0.5000000000000014433 ) ) ;
#313 = ORIENTED_EDGE ( 'NONE', *, *, #329, .F. ) ;
#314 = ADVANCED_FACE ( 'NONE', ( #937 ), #298, .F. ) ;
#315 = CYLINDRICAL_SURFACE ( 'NONE', #871, 24.99999999999993250 ) ;
#316 = CARTESIAN_POINT ( 'NONE',  ( -628.8705321103217329, -1093.805262667903435, -1277.815094570922611 ) ) ;
#317 = DIRECTION ( 'NONE',  ( 0.000000000000000000, -1.000000000000000000, 0.000000000000000000 ) ) ;
#318 = ORIENTED_EDGE ( 'NONE', *, *, #389, .F. ) ;
#319 = EDGE_CURVE ( 'NONE', #935, #14, #255, .T. ) ;
#320 = ORIENTED_EDGE ( 'NONE', *, *, #1053, .F. ) ;
#321 = LINE ( 'NONE', #394, #620 ) ;
#322 = VECTOR ( 'NONE', #577, 1000.000000000000114 ) ;
#323 = VECTOR ( 'NONE', #421, 1000.000000000000000 ) ;
#324 = CARTESIAN_POINT ( 'NONE',  ( -665.9584227732656245, 0.000000000000000000, -1213.576983597144817 ) ) ;
#325 = SECURITY_CLASSIFICATION ( '', '', #381 ) ;
#326 = CIRCLE ( 'NONE', #34, 24.99999999999993250 ) ;
#327 = VERTEX_POINT ( 'NONE', #391 ) ;
#328 = CARTESIAN_POINT ( 'NONE',  ( -640.6439039299917795, -1170.205262667903753, -1257.423016402854728 ) ) ;
#329 = EDGE_CURVE ( 'NONE', #826, #690, #38, .T. ) ;
#330 = VERTEX_POINT ( 'NONE', #865 ) ;
#331 = EDGE_CURVE ( 'NONE', #395, #569, #763, .T. ) ;
#332 = DIRECTION ( 'NONE',  ( 0.5000000000000039968, 0.000000000000000000, -0.8660254037844362651 ) ) ;
#333 = VERTEX_POINT ( 'NONE', #703 ) ;
#334 = CARTESIAN_POINT ( 'NONE',  ( -717.9817945929357847, -1174.305262667903889, -1123.469860424429044 ) ) ;
#335 = DIRECTION ( 'NONE',  ( 0.8660254037844378194, -0.000000000000000000, 0.5000000000000015543 ) ) ;
#336 = EDGE_LOOP ( 'NONE', ( #627, #541, #774, #504 ) ) ;
#337 = ADVANCED_FACE ( 'NONE', ( #1030 ), #119, .F. ) ;
#338 = EDGE_CURVE ( 'NONE', #951, #789, #551, .T. ) ;
#339 = DIRECTION ( 'NONE',  ( 0.5000000000000014433, 0.000000000000000000, -0.8660254037844378194 ) ) ;
#340 = ORIENTED_EDGE ( 'NONE', *, *, #125, .F. ) ;
#341 = LINE ( 'NONE', #578, #706 ) ;
#342 = CARTESIAN_POINT ( 'NONE',  ( -1028.427167316696341, -1093.805262667903435, -593.7627018922212301 ) ) ;
#343 = AXIS2_PLACEMENT_3D ( 'NONE', #857, #478, #864 ) ;
#344 = LINE ( 'NONE', #354, #165 ) ;
#345 = EDGE_LOOP ( 'NONE', ( #224, #941, #924, #982 ) ) ;
#346 = CARTESIAN_POINT ( 'NONE',  ( -628.8705321103217329, -1093.805262667903435, -1277.815094570922611 ) ) ;
#347 = COORDINATED_UNIVERSAL_TIME_OFFSET ( 10, 0, .AHEAD. ) ;
#348 = DIRECTION ( 'NONE',  ( 0.5000000000000014433, 0.000000000000000000, -0.8660254037844378194 ) ) ;
#349 = CARTESIAN_POINT ( 'NONE',  ( -681.1958962080731226, -1093.805262667903435, -1195.184905429076707 ) ) ;
#350 = ORIENTED_EDGE ( 'NONE', *, *, #1053, .T. ) ;
#351 = DIRECTION ( 'NONE',  ( 0.4999999999999990563, -0.000000000000000000, -0.8660254037844391517 ) ) ;
#352 = ORIENTED_EDGE ( 'NONE', *, *, #188, .T. ) ;
#353 = CARTESIAN_POINT ( 'NONE',  ( -1028.427167316696341, -1158.905262667903571, -593.7627018922212301 ) ) ;
#354 = CARTESIAN_POINT ( 'NONE',  ( -669.4225243884035308, 0.000000000000000000, -1215.576983597144590 ) ) ;
#355 = ORIENTED_EDGE ( 'NONE', *, *, #773, .F. ) ;
#356 = CARTESIAN_POINT ( 'NONE',  ( -668.5584227732656473, 0.000000000000000000, -1209.073651497465789 ) ) ;
#357 = ORIENTED_EDGE ( 'NONE', *, *, #90, .F. ) ;
#358 = EDGE_CURVE ( 'NONE', #814, #294, #383, .T. ) ;
#359 = CARTESIAN_POINT ( 'NONE',  ( -672.5541250632716128, -1093.805262667903435, -1202.152892119255512 ) ) ;
#360 = VECTOR ( 'NONE', #708, 999.9999999999998863 ) ;
#361 = CARTESIAN_POINT ( 'NONE',  ( -668.6490216965074751, -1096.905262667903344, -1216.916729559299483 ) ) ;
#362 = ORIENTED_EDGE ( 'NONE', *, *, #8, .F. ) ;
#363 = AXIS2_PLACEMENT_3D ( 'NONE', #104, #607, #373 ) ;
#364 =( LENGTH_UNIT ( ) NAMED_UNIT ( * ) SI_UNIT ( .MILLI., .METRE. ) );
#365 = ORIENTED_EDGE ( 'NONE', *, *, #823, .F. ) ;
#366 = VECTOR ( 'NONE', #49, 1000.000000000000114 ) ;
#367 = CC_DESIGN_PERSON_AND_ORGANIZATION_ASSIGNMENT ( #950, #218, ( #480 ) ) ;
#368 = ADVANCED_FACE ( 'NONE', ( #629 ), #1008, .T. ) ;
#369 = APPLICATION_CONTEXT ( 'configuration controlled 3d designs of mechanical parts and assemblies' ) ;
#370 = CARTESIAN_POINT ( 'NONE',  ( -628.8705321103217329, -1093.805262667903435, -1277.815094570922611 ) ) ;
#371 = CARTESIAN_POINT ( 'NONE',  ( -642.2737732101070378, -1153.705262667903298, -1262.599999999999454 ) ) ;
#372 = ORIENTED_EDGE ( 'NONE', *, *, #131, .T. ) ;
#373 = DIRECTION ( 'NONE',  ( 0.5000000000000039968, 0.000000000000000000, -0.8660254037844362651 ) ) ;
#374 = DIRECTION ( 'NONE',  ( 0.5000000000000039968, 0.000000000000000000, -0.8660254037844362651 ) ) ;
#375 = ORIENTED_EDGE ( 'NONE', *, *, #159, .F. ) ;
#376 = EDGE_CURVE ( 'NONE', #451, #299, #873, .T. ) ;
#377 = DIRECTION ( 'NONE',  ( -0.5000000000000014433, -0.000000000000000000, 0.8660254037844378194 ) ) ;
#378 = EDGE_CURVE ( 'NONE', #690, #647, #112, .T. ) ;
#379 = DIRECTION ( 'NONE',  ( -0.5000000000000014433, -0.000000000000000000, 0.8660254037844378194 ) ) ;
#380 = ORIENTED_EDGE ( 'NONE', *, *, #53, .T. ) ;
#381 = SECURITY_CLASSIFICATION_LEVEL ( 'unclassified' ) ;
#382 = DIRECTION ( 'NONE',  ( 0.8660254037844378194, -0.000000000000000000, 0.5000000000000014433 ) ) ;
#383 = LINE ( 'NONE', #768, #360 ) ;
#384 = ORIENTED_EDGE ( 'NONE', *, *, #479, .T. ) ;
#385 = VECTOR ( 'NONE', #921, 999.9999999999998863 ) ;
#386 = VECTOR ( 'NONE', #1042, 1000.000000000000000 ) ;
#387 = DIRECTION ( 'NONE',  ( 0.5000000000000055511, 0.000000000000000000, -0.8660254037844353769 ) ) ;
#388 = VERTEX_POINT ( 'NONE', #199 ) ;
#389 = EDGE_CURVE ( 'NONE', #182, #213, #526, .T. ) ;
#390 = DIRECTION ( 'NONE',  ( 0.8660254037844378194, -0.000000000000000000, 0.5000000000000014433 ) ) ;
#391 = CARTESIAN_POINT ( 'NONE',  ( -665.9584227732656245, -1174.405262667903799, -1213.576983597144817 ) ) ;
#392 = ORIENTED_EDGE ( 'NONE', *, *, #376, .T. ) ;
#393 = ORIENTED_EDGE ( 'NONE', *, *, #172, .T. ) ;
#394 = CARTESIAN_POINT ( 'NONE',  ( -588.6205321103212782, -1249.305262667903662, -1347.530139575570047 ) ) ;
#395 = VERTEX_POINT ( 'NONE', #459 ) ;
#396 = PERSON_AND_ORGANIZATION ( #409, #418 ) ;
#397 = ORIENTED_EDGE ( 'NONE', *, *, #142, .T. ) ;
#398 = VECTOR ( 'NONE', #828, 999.9999999999998863 ) ;
#399 = CC_DESIGN_DATE_AND_TIME_ASSIGNMENT ( #262, #179, ( #999 ) ) ;
#400 = LINE ( 'NONE', #887, #436 ) ;
#401 = CC_DESIGN_SECURITY_CLASSIFICATION ( #325, ( #480 ) ) ;
#402 = EDGE_CURVE ( 'NONE', #1033, #826, #45, .T. ) ;
#403 = CARTESIAN_POINT ( 'NONE',  ( -644.1080055451295721, 0.000000000000000000, -1259.423016402854500 ) ) ;
#404 = DIRECTION ( 'NONE',  ( -0.5000000000000014433, -0.000000000000000000, 0.8660254037844378194 ) ) ;
#405 = PLANE ( 'NONE',  #275 ) ;
#406 = EDGE_CURVE ( 'NONE', #944, #522, #461, .T. ) ;
#407 = DIRECTION ( 'NONE',  ( 0.5000000000000014433, 0.000000000000000000, -0.8660254037844378194 ) ) ;
#408 = ORIENTED_EDGE ( 'NONE', *, *, #933, .F. ) ;
#409 = PERSON ( 'UNSPECIFIED', 'UNSPECIFIED', 'UNSPECIFIED', ('UNSPECIFIED'), ('UNSPECIFIED'), ('UNSPECIFIED') ) ;
#410 = CARTESIAN_POINT ( 'NONE',  ( -669.4225243884035308, -1174.405262667903799, -1215.576983597144590 ) ) ;
#411 = EDGE_LOOP ( 'NONE', ( #630, #670, #1048, #705 ) ) ;
#412 = DIRECTION ( 'NONE',  ( 0.5000000000000039968, 0.000000000000000000, -0.8660254037844362651 ) ) ;
#413 = PLANE ( 'NONE',  #685 ) ;
#414 = EDGE_CURVE ( 'NONE', #647, #829, #948, .T. ) ;
#415 = CARTESIAN_POINT ( 'NONE',  ( -588.6205321103212782, -1184.660601727231096, -1347.530139575570047 ) ) ;
#416 = AXIS2_PLACEMENT_3D ( 'NONE', #269, #187, #514 ) ;
#417 = DIRECTION ( 'NONE',  ( 0.8660254037844377084, -0.000000000000000000, 0.5000000000000014433 ) ) ;
#418 = ORGANIZATION ( 'UNSPECIFIED', 'UNSPECIFIED', '' ) ;
#419 = AXIS2_PLACEMENT_3D ( 'NONE', #649, #560, #146 ) ;
#420 = CARTESIAN_POINT ( 'NONE',  ( -638.8096715949690179, -1156.305262667903662, -1260.599999999999682 ) ) ;
#421 = DIRECTION ( 'NONE',  ( -0.000000000000000000, -1.000000000000000000, -0.000000000000000000 ) ) ;
#422 = ORIENTED_EDGE ( 'NONE', *, *, #875, .T. ) ;
#423 = DIRECTION ( 'NONE',  ( -3.437295801910607336E-15, 1.000000000000000000, -1.984523656517489010E-15 ) ) ;
#424 = LINE ( 'NONE', #574, #185 ) ;
#425 = CARTESIAN_POINT ( 'NONE',  ( -705.4817945929360121, -1184.660601727231096, -1145.120495519040105 ) ) ;
#426 = CARTESIAN_POINT ( 'NONE',  ( -640.6439039299917795, 0.000000000000000000, -1257.423016402854728 ) ) ;
#427 = CARTESIAN_POINT ( 'NONE',  ( -717.9817945929357847, -1184.660601727231096, -1123.469860424429044 ) ) ;
#428 = EDGE_CURVE ( 'NONE', #522, #111, #140, .T. ) ;
#429 = CARTESIAN_POINT ( 'NONE',  ( -640.3107822948621788, -1158.905262667903571, -1257.999999999999545 ) ) ;
#430 = AXIS2_PLACEMENT_3D ( 'NONE', #675, #1012, #928 ) ;
#431 = EDGE_CURVE ( 'NONE', #809, #1044, #722, .T. ) ;
#432 = CIRCLE ( 'NONE', #1000, 24.99999999999993250 ) ;
#433 = CARTESIAN_POINT ( 'NONE',  ( -1024.963065701558435, -1170.205262667903753, -591.7627018922212301 ) ) ;
#434 = VERTEX_POINT ( 'NONE', #636 ) ;
#435 = FACE_BOUND ( 'NONE', #97, .T. ) ;
#436 = VECTOR ( 'NONE', #312, 999.9999999999998863 ) ;
#437 = DIRECTION ( 'NONE',  ( 0.8660254037844378194, -0.000000000000000000, 0.5000000000000014433 ) ) ;
#438 = PLANE ( 'NONE',  #416 ) ;
#439 = EDGE_CURVE ( 'NONE', #388, #6, #716, .T. ) ;
#440 = LINE ( 'NONE', #31, #249 ) ;
#441 = EDGE_LOOP ( 'NONE', ( #556, #659, #922, #516, #785, #121, #108, #397, #357, #271, #446, #132, #74, #174, #469, #957 ) ) ;
#442 = CARTESIAN_POINT ( 'NONE',  ( -668.5584227732657610, -1174.405262667903799, -1209.073651497465789 ) ) ;
#443 = PERSON_AND_ORGANIZATION ( #409, #418 ) ;
#444 = CARTESIAN_POINT ( 'NONE',  ( -625.2093668751535915, -1101.127593138239490, -1284.156418773138739 ) ) ;
#445 = CARTESIAN_POINT ( 'NONE',  ( -592.0846337254590708, -1174.305262667903889, -1349.530139575570047 ) ) ;
#446 = ORIENTED_EDGE ( 'NONE', *, *, #681, .F. ) ;
#447 = PRODUCT_RELATED_PRODUCT_CATEGORY ( 'detail', '', ( #196 ) ) ;
#448 = CARTESIAN_POINT ( 'NONE',  ( -671.2490216965072705, 0.000000000000000000, -1212.413397459620910 ) ) ;
#449 = AXIS2_PLACEMENT_3D ( 'NONE', #433, #93, #907 ) ;
#450 = LINE ( 'NONE', #445, #851 ) ;
#451 = VERTEX_POINT ( 'NONE', #158 ) ;
#452 = APPLICATION_PROTOCOL_DEFINITION ( 'international standard', 'config_control_design', 1994, #1014 ) ;
#453 = VECTOR ( 'NONE', #339, 1000.000000000000114 ) ;
#454 = ADVANCED_FACE ( 'NONE', ( #309 ), #154, .F. ) ;
#455 = VECTOR ( 'NONE', #76, 999.9999999999998863 ) ;
#456 = EDGE_CURVE ( 'NONE', #617, #213, #326, .T. ) ;
#457 = DIRECTION ( 'NONE',  ( 0.8660254037844377084, -0.000000000000000000, 0.5000000000000014433 ) ) ;
#458 = ORIENTED_EDGE ( 'NONE', *, *, #406, .T. ) ;
#459 = CARTESIAN_POINT ( 'NONE',  ( -638.8096715949691315, -1153.705262667903298, -1260.599999999999454 ) ) ;
#460 = ORIENTED_EDGE ( 'NONE', *, *, #591, .F. ) ;
#461 = LINE ( 'NONE', #777, #366 ) ;
#462 = EDGE_CURVE ( 'NONE', #789, #477, #564, .T. ) ;
#463 = EDGE_LOOP ( 'NONE', ( #355, #260, #1037, #384 ) ) ;
#464 = ORIENTED_EDGE ( 'NONE', *, *, #439, .F. ) ;
#465 = CARTESIAN_POINT ( 'NONE',  ( -1028.427167316696341, 0.000000000000000000, -593.7627018922212301 ) ) ;
#466 = AXIS2_PLACEMENT_3D ( 'NONE', #420, #804, #573 ) ;
#467 = VECTOR ( 'NONE', #587, 1000.000000000000114 ) ;
#468 = CARTESIAN_POINT ( 'NONE',  ( -668.5584227732656473, -1170.205262667903753, -1209.073651497465789 ) ) ;
#469 = ORIENTED_EDGE ( 'NONE', *, *, #376, .F. ) ;
#470 = ADVANCED_FACE ( 'NONE', ( #724 ), #656, .T. ) ;
#471 = APPROVAL_DATE_TIME ( #228, #1021 ) ;
#472 = CARTESIAN_POINT ( 'NONE',  ( -1024.963065701558435, -1096.905262667903344, -591.7627018922212301 ) ) ;
#473 = ORIENTED_EDGE ( 'NONE', *, *, #319, .T. ) ;
#474 = ORIENTED_EDGE ( 'NONE', *, *, #20, .F. ) ;
#475 = DIRECTION ( 'NONE',  ( 0.5000000000000014433, 0.000000000000000000, -0.8660254037844378194 ) ) ;
#476 = CARTESIAN_POINT ( 'NONE',  ( -637.5123032551234701, -1118.805262667903207, -1270.847107880743806 ) ) ;
#477 = VERTEX_POINT ( 'NONE', #1040 ) ;
#478 = DIRECTION ( 'NONE',  ( 4.745491382970162279E-31, -1.000000000000000000, -8.219432182184587225E-31 ) ) ;
#479 = EDGE_CURVE ( 'NONE', #935, #333, #321, .T. ) ;
#480 = PRODUCT_DEFINITION_FORMATION_WITH_SPECIFIED_SOURCE ( 'ANY', '', #196, .NOT_KNOWN. ) ;
#481 = AXIS2_PLACEMENT_3D ( 'NONE', #730, #144, #73 ) ;
#482 = DIRECTION ( 'NONE',  ( 0.8660254037844378194, -0.000000000000000000, 0.5000000000000015543 ) ) ;
#483 = DIRECTION ( 'NONE',  ( 0.000000000000000000, 1.000000000000000000, 0.000000000000000000 ) ) ;
#484 = PLANE ( 'NONE',  #764 ) ;
#485 = CARTESIAN_POINT ( 'NONE',  ( -638.0439039299916431, -1170.205262667903753, -1261.926348502533756 ) ) ;
#486 = DIRECTION ( 'NONE',  ( 0.5000000000000055511, 0.000000000000000000, -0.8660254037844353769 ) ) ;
#487 = DIRECTION ( 'NONE',  ( 0.8660254037844378194, -0.000000000000000000, 0.5000000000000014433 ) ) ;
#488 = EDGE_LOOP ( 'NONE', ( #205, #632, #687, #498 ) ) ;
#489 = CARTESIAN_POINT ( 'NONE',  ( -638.0439039299916431, -1174.405262667903799, -1261.926348502533756 ) ) ;
#490 = APPROVAL ( #910, 'UNSPECIFIED' ) ;
#491 = ORIENTED_EDGE ( 'NONE', *, *, #431, .F. ) ;
#492 = AXIS2_PLACEMENT_3D ( 'NONE', #959, #890, #225 ) ;
#493 = VECTOR ( 'NONE', #272, 999.9999999999998863 ) ;
#494 = VECTOR ( 'NONE', #281, 999.9999999999998863 ) ;
#495 = DIRECTION ( 'NONE',  ( 0.8660254037844378194, -0.000000000000000000, 0.5000000000000015543 ) ) ;
#496 = ORIENTED_EDGE ( 'NONE', *, *, #637, .F. ) ;
#497 = PLANE ( 'NONE',  #1051 ) ;
#498 = ORIENTED_EDGE ( 'NONE', *, *, #896, .F. ) ;
#499 = LINE ( 'NONE', #87, #99 ) ;
#500 = ORIENTED_EDGE ( 'NONE', *, *, #993, .T. ) ;
#501 = DIRECTION ( 'NONE',  ( 0.000000000000000000, 1.000000000000000000, 0.000000000000000000 ) ) ;
#502 = CARTESIAN_POINT ( 'NONE',  ( -592.0846337254592981, 0.000000000000000000, -1349.530139575570047 ) ) ;
#503 = LINE ( 'NONE', #349, #507 ) ;
#504 = ORIENTED_EDGE ( 'NONE', *, *, #439, .T. ) ;
#505 = ADVANCED_FACE ( 'NONE', ( #877 ), #405, .F. ) ;
#506 = FACE_OUTER_BOUND ( 'NONE', #345, .T. ) ;
#507 = VECTOR ( 'NONE', #28, 999.9999999999998863 ) ;
#508 = CIRCLE ( 'NONE', #634, 24.99999999999993250 ) ;
#509 = DIRECTION ( 'NONE',  ( 0.5000000000000039968, 0.000000000000000000, -0.8660254037844362651 ) ) ;
#510 = VERTEX_POINT ( 'NONE', #65 ) ;
#511 = DIRECTION ( 'NONE',  ( -0.000000000000000000, 1.000000000000000000, -0.000000000000000000 ) ) ;
#512 = VECTOR ( 'NONE', #906, 999.9999999999998863 ) ;
#513 = VERTEX_POINT ( 'NONE', #1049 ) ;
#514 = DIRECTION ( 'NONE',  ( 0.000000000000000000, -1.000000000000000000, 0.000000000000000000 ) ) ;
#515 = DIRECTION ( 'NONE',  ( -0.000000000000000000, -1.000000000000000000, -0.000000000000000000 ) ) ;
#516 = ORIENTED_EDGE ( 'NONE', *, *, #211, .T. ) ;
#517 = DIRECTION ( 'NONE',  ( -0.5000000000000014433, 0.000000000000000000, 0.8660254037844378194 ) ) ;
#518 = APPROVAL_STATUS ( 'not_yet_approved' ) ;
#519 = ORIENTED_EDGE ( 'NONE', *, *, #378, .T. ) ;
#520 = DIRECTION ( 'NONE',  ( 0.8660254037844378194, -0.000000000000000000, 0.5000000000000014433 ) ) ;
#521 = CARTESIAN_POINT ( 'NONE',  ( -667.7849200813697053, -1096.905262667903344, -1210.413397459620683 ) ) ;
#522 = VERTEX_POINT ( 'NONE', #485 ) ;
#523 = EDGE_CURVE ( 'NONE', #1033, #654, #400, .T. ) ;
#524 = LINE ( 'NONE', #197, #493 ) ;
#525 = ADVANCED_FACE ( 'NONE', ( #68 ), #230, .T. ) ;
#526 = LINE ( 'NONE', #850, #958 ) ;
#527 = LINE ( 'NONE', #1010, #968 ) ;
#528 = ORIENTED_EDGE ( 'NONE', *, *, #858, .F. ) ;
#529 = DIRECTION ( 'NONE',  ( -0.5000000000000014433, 0.000000000000000000, 0.8660254037844378194 ) ) ;
#530 = CALENDAR_DATE ( 2025, 17, 8 ) ;
#531 = AXIS2_PLACEMENT_3D ( 'NONE', #844, #988, #204 ) ;
#532 = PLANE ( 'NONE',  #343 ) ;
#533 = AXIS2_PLACEMENT_3D ( 'NONE', #962, #149, #571 ) ;
#534 = CARTESIAN_POINT ( 'NONE',  ( -641.8118929947552260, -1156.305262667903662, -1255.399999999999409 ) ) ;
#535 = PLANE ( 'NONE',  #779 ) ;
#536 = EDGE_LOOP ( 'NONE', ( #1020, #145, #240, #894 ) ) ;
#537 = PERSON_AND_ORGANIZATION ( #409, #418 ) ;
#538 = ORIENTED_EDGE ( 'NONE', *, *, #559, .F. ) ;
#539 = CC_DESIGN_PERSON_AND_ORGANIZATION_ASSIGNMENT ( #742, #16, ( #999 ) ) ;
#540 = CARTESIAN_POINT ( 'NONE',  ( -1028.427167316696341, -1153.705262667903298, -593.7627018922212301 ) ) ;
#541 = ORIENTED_EDGE ( 'NONE', *, *, #211, .F. ) ;
#542 = ORIENTED_EDGE ( 'NONE', *, *, #215, .F. ) ;
#543 = FACE_BOUND ( 'NONE', #661, .T. ) ;
#544 = CARTESIAN_POINT ( 'NONE',  ( -628.6734684902914978, -1101.127593138239490, -1286.156418773138512 ) ) ;
#545 = EDGE_CURVE ( 'NONE', #848, #1044, #794, .T. ) ;
#546 = ORIENTED_EDGE ( 'NONE', *, *, #1029, .T. ) ;
#547 = PERSON_AND_ORGANIZATION ( #409, #418 ) ;
#548 = CARTESIAN_POINT ( 'NONE',  ( -668.6490216965074751, 0.000000000000000000, -1216.916729559299483 ) ) ;
#549 = VECTOR ( 'NONE', #1023, 999.9999999999998863 ) ;
#550 = VECTOR ( 'NONE', #520, 999.9999999999998863 ) ;
#551 = LINE ( 'NONE', #1015, #18 ) ;
#552 = EDGE_CURVE ( 'NONE', #513, #589, #614, .T. ) ;
#553 = VERTEX_POINT ( 'NONE', #738 ) ;
#554 = APPROVAL ( #518, 'UNSPECIFIED' ) ;
#555 = EDGE_CURVE ( 'NONE', #973, #327, #86, .T. ) ;
#556 = ORIENTED_EDGE ( 'NONE', *, *, #284, .T. ) ;
#557 = FACE_OUTER_BOUND ( 'NONE', #488, .T. ) ;
#558 = EDGE_CURVE ( 'NONE', #201, #935, #424, .T. ) ;
#559 = EDGE_CURVE ( 'NONE', #1004, #944, #697, .T. ) ;
#560 = DIRECTION ( 'NONE',  ( 0.5000000000000014433, 0.000000000000000000, -0.8660254037844378194 ) ) ;
#561 = CARTESIAN_POINT ( 'NONE',  ( -638.0439039299916431, -1174.405262667903799, -1261.926348502533756 ) ) ;
#562 = AXIS2_PLACEMENT_3D ( 'NONE', #15, #517, #843 ) ;
#563 = VECTOR ( 'NONE', #317, 1000.000000000000000 ) ;
#564 = LINE ( 'NONE', #788, #455 ) ;
#565 = DIRECTION ( 'NONE',  ( 0.5000000000000039968, 0.000000000000000000, -0.8660254037844362651 ) ) ;
#566 = ORIENTED_EDGE ( 'NONE', *, *, #638, .F. ) ;
#567 = ADVANCED_BREP_SHAPE_REPRESENTATION ( 'CV03-TR-06_REV_B', ( #964, #531 ), #37 ) ;
#568 = DIRECTION ( 'NONE',  ( -0.5000000000000014433, -0.000000000000000000, 0.8660254037844378194 ) ) ;
#569 = VERTEX_POINT ( 'NONE', #586 ) ;
#570 = CARTESIAN_POINT ( 'NONE',  ( -672.5541250632718402, -1118.805262667903207, -1202.152892119255739 ) ) ;
#571 = DIRECTION ( 'NONE',  ( 0.5000000000000039968, 0.000000000000000000, -0.8660254037844362651 ) ) ;
#572 = ORIENTED_EDGE ( 'NONE', *, *, #246, .F. ) ;
#573 = DIRECTION ( 'NONE',  ( -3.437295801910607336E-15, 1.000000000000000000, -1.984523656517489010E-15 ) ) ;
#574 = CARTESIAN_POINT ( 'NONE',  ( -588.6205321103212782, -1184.660601727231096, -1347.530139575570047 ) ) ;
#575 = ADVANCED_FACE ( 'NONE', ( #744 ), #532, .T. ) ;
#576 = CYLINDRICAL_SURFACE ( 'NONE', #955, 24.99999999999993250 ) ;
#577 = DIRECTION ( 'NONE',  ( -0.5000000000000014433, -9.490982765940296532E-31, 0.8660254037844378194 ) ) ;
#578 = CARTESIAN_POINT ( 'NONE',  ( -681.3929598281034714, -1101.127593138239490, -1186.843581226860579 ) ) ;
#579 = ORIENTED_EDGE ( 'NONE', *, *, #80, .T. ) ;
#580 = CARTESIAN_POINT ( 'NONE',  ( -665.1849200813697962, -1096.905262667903344, -1214.916729559299711 ) ) ;
#581 = APPROVAL_PERSON_ORGANIZATION ( #443, #554, #110 ) ;
#582 = ORIENTED_EDGE ( 'NONE', *, *, #291, .T. ) ;
#583 = PLANE ( 'NONE',  #683 ) ;
#584 = DIRECTION ( 'NONE',  ( 0.8660254037844378194, -0.000000000000000000, 0.5000000000000014433 ) ) ;
#585 = ORIENTED_EDGE ( 'NONE', *, *, #250, .T. ) ;
#586 = CARTESIAN_POINT ( 'NONE',  ( -641.8118929947552260, -1153.705262667903298, -1255.399999999999409 ) ) ;
#587 = DIRECTION ( 'NONE',  ( 0.5000000000000014433, 0.000000000000000000, -0.8660254037844378194 ) ) ;
#588 = DIRECTION ( 'NONE',  ( 0.8660254037844377084, -0.000000000000000000, 0.5000000000000014433 ) ) ;
#589 = VERTEX_POINT ( 'NONE', #134 ) ;
#590 = DIRECTION ( 'NONE',  ( 0.8660254037844378194, -0.000000000000000000, 0.5000000000000014433 ) ) ;
#591 = EDGE_CURVE ( 'NONE', #973, #996, #67, .T. ) ;
#592 = PERSON_AND_ORGANIZATION ( #409, #418 ) ;
#593 = EDGE_CURVE ( 'NONE', #279, #223, #721, .T. ) ;
#594 = DIRECTION ( 'NONE',  ( 0.5000000000000039968, 0.000000000000000000, -0.8660254037844362651 ) ) ;
#595 = ORIENTED_EDGE ( 'NONE', *, *, #773, .T. ) ;
#596 = CARTESIAN_POINT ( 'NONE',  ( -645.2759946098931323, -1158.905262667903571, -1257.399999999999181 ) ) ;
#597 = LINE ( 'NONE', #258, #453 ) ;
#598 = AXIS2_PLACEMENT_3D ( 'NONE', #89, #981, #974 ) ;
#599 = VECTOR ( 'NONE', #92, 999.9999999999998863 ) ;
#600 = FACE_OUTER_BOUND ( 'NONE', #713, .T. ) ;
#601 = VERTEX_POINT ( 'NONE', #619 ) ;
#602 = LINE ( 'NONE', #346, #95 ) ;
#603 = LINE ( 'NONE', #106, #729 ) ;
#604 = EDGE_CURVE ( 'NONE', #223, #14, #129, .T. ) ;
#605 = DIRECTION ( 'NONE',  ( 0.8660254037844378194, -0.000000000000000000, 0.5000000000000014433 ) ) ;
#606 = ORIENTED_EDGE ( 'NONE', *, *, #3, .F. ) ;
#607 = DIRECTION ( 'NONE',  ( 0.8660254037844377084, -0.000000000000000000, 0.5000000000000014433 ) ) ;
#608 = ORIENTED_EDGE ( 'NONE', *, *, #896, .T. ) ;
#609 = DIRECTION ( 'NONE',  ( -0.5000000000000014433, -0.000000000000000000, 0.8660254037844378194 ) ) ;
#610 = ADVANCED_FACE ( 'NONE', ( #946, #54, #47, #543 ), #867, .F. ) ;
#611 = CARTESIAN_POINT ( 'NONE',  ( -628.8705321103217329, -1093.805262667903435, -1277.815094570922611 ) ) ;
#612 = VERTEX_POINT ( 'NONE', #1028 ) ;
#613 = FACE_OUTER_BOUND ( 'NONE', #463, .T. ) ;
#614 = LINE ( 'NONE', #427, #50 ) ;
#615 = DIRECTION ( 'NONE',  ( 0.3535533905932757848, 0.7071067811865477948, -0.6123724356957931381 ) ) ;
#616 = DIRECTION ( 'NONE',  ( 0.5000000000000039968, 0.000000000000000000, -0.8660254037844362651 ) ) ;
#617 = VERTEX_POINT ( 'NONE', #628 ) ;
#618 = VECTOR ( 'NONE', #827, 1000.000000000000114 ) ;
#619 = CARTESIAN_POINT ( 'NONE',  ( -705.4817945929357847, -1249.305262667903662, -1145.120495519039878 ) ) ;
#620 = VECTOR ( 'NONE', #72, 1000.000000000000000 ) ;
#621 = EDGE_CURVE ( 'NONE', #848, #838, #219, .T. ) ;
#622 = DIRECTION ( 'NONE',  ( 0.8660254037844378194, -0.000000000000000000, 0.5000000000000015543 ) ) ;
#623 = ORIENTED_EDGE ( 'NONE', *, *, #719, .F. ) ;
#624 = CARTESIAN_POINT ( 'NONE',  ( -640.3107822948621788, -1158.905262667903571, -1257.999999999999545 ) ) ;
#625 = VERTEX_POINT ( 'NONE', #797 ) ;
#626 = APPROVAL_DATE_TIME ( #62, #490 ) ;
#627 = ORIENTED_EDGE ( 'NONE', *, *, #755, .F. ) ;
#628 = CARTESIAN_POINT ( 'NONE',  ( -672.5541250632716128, -1093.805262667903435, -1202.152892119255512 ) ) ;
#629 = FACE_OUTER_BOUND ( 'NONE', #190, .T. ) ;
#630 = ORIENTED_EDGE ( 'NONE', *, *, #53, .F. ) ;
#631 = AXIS2_PLACEMENT_3D ( 'NONE', #718, #800, #60 ) ;
#632 = ORIENTED_EDGE ( 'NONE', *, *, #681, .T. ) ;
#633 = AXIS2_PLACEMENT_3D ( 'NONE', #202, #529, #686 ) ;
#634 = AXIS2_PLACEMENT_3D ( 'NONE', #819, #417, #69 ) ;
#635 = AXIS2_PLACEMENT_3D ( 'NONE', #904, #96, #374 ) ;
#636 = CARTESIAN_POINT ( 'NONE',  ( -637.5123032551234701, -1093.805262667903435, -1270.847107880743806 ) ) ;
#637 = EDGE_CURVE ( 'NONE', #477, #944, #803, .T. ) ;
#638 = EDGE_CURVE ( 'NONE', #111, #477, #811, .T. ) ;
#639 = DIRECTION ( 'NONE',  ( 0.000000000000000000, 1.000000000000000000, 0.000000000000000000 ) ) ;
#640 = EDGE_LOOP ( 'NONE', ( #528, #313, #117, #43 ) ) ;
#641 = DIRECTION ( 'NONE',  ( 0.4999999999999990563, -0.000000000000000000, -0.8660254037844391517 ) ) ;
#642 = DIRECTION ( 'NONE',  ( -0.5000000000000014433, -9.490982765940298284E-31, 0.8660254037844378194 ) ) ;
#643 = ADVANCED_FACE ( 'NONE', ( #79 ), #583, .F. ) ;
#644 = FACE_OUTER_BOUND ( 'NONE', #862, .T. ) ;
#645 = EDGE_LOOP ( 'NONE', ( #114, #365, #546, #676 ) ) ;
#646 = CARTESIAN_POINT ( 'NONE',  ( -717.9817945929357847, -1249.305262667903662, -1123.469860424429044 ) ) ;
#647 = VERTEX_POINT ( 'NONE', #596 ) ;
#648 = AXIS2_PLACEMENT_3D ( 'NONE', #476, #66, #332 ) ;
#649 = CARTESIAN_POINT ( 'NONE',  ( -640.6439039299917795, 0.000000000000000000, -1257.423016402854728 ) ) ;
#650 = VECTOR ( 'NONE', #382, 999.9999999999998863 ) ;
#651 = CARTESIAN_POINT ( 'NONE',  ( -592.0846337254592981, -1224.305262667903889, -1349.530139575570047 ) ) ;
#652 = ORIENTED_EDGE ( 'NONE', *, *, #414, .T. ) ;
#653 = PLANE ( 'NONE',  #466 ) ;
#654 = VERTEX_POINT ( 'NONE', #41 ) ;
#655 = ADVANCED_FACE ( 'NONE', ( #830, #435, #750, #29 ), #688, .T. ) ;
#656 = CYLINDRICAL_SURFACE ( 'NONE', #631, 24.99999999999993250 ) ;
#657 = CARTESIAN_POINT ( 'NONE',  ( -634.0482016399854501, -1093.805262667903435, -1268.847107880743806 ) ) ;
#658 = CARTESIAN_POINT ( 'NONE',  ( -604.5846337254592981, -1249.305262667903662, -1327.879504480959213 ) ) ;
#659 = ORIENTED_EDGE ( 'NONE', *, *, #933, .T. ) ;
#660 = LINE ( 'NONE', #342, #467 ) ;
#661 = EDGE_LOOP ( 'NONE', ( #290, #519, #942, #905 ) ) ;
#662 = CARTESIAN_POINT ( 'NONE',  ( -1024.963065701558435, -1174.405262667903799, -591.7627018922212301 ) ) ;
#663 = LINE ( 'NONE', #889, #969 ) ;
#664 = ORIENTED_EDGE ( 'NONE', *, *, #241, .F. ) ;
#665 = CC_DESIGN_APPROVAL ( #554, ( #999 ) ) ;
#666 = CARTESIAN_POINT ( 'NONE',  ( -641.5080055451296630, 0.000000000000000000, -1263.926348502533529 ) ) ;
#667 = EDGE_CURVE ( 'NONE', #929, #14, #183, .T. ) ;
#668 = EDGE_CURVE ( 'NONE', #617, #510, #602, .T. ) ;
#669 = CARTESIAN_POINT ( 'NONE',  ( -644.1080055451295721, -1174.405262667903799, -1259.423016402854500 ) ) ;
#670 = ORIENTED_EDGE ( 'NONE', *, *, #338, .F. ) ;
#671 = CALENDAR_DATE ( 2025, 17, 8 ) ;
#672 = CARTESIAN_POINT ( 'NONE',  ( -714.3206293577676433, -1166.982932197567607, -1129.811184626645172 ) ) ;
#673 = DIRECTION ( 'NONE',  ( 0.000000000000000000, -1.000000000000000000, 0.000000000000000000 ) ) ;
#674 = EDGE_LOOP ( 'NONE', ( #229, #606, #902, #40 ) ) ;
#675 = CARTESIAN_POINT ( 'NONE',  ( -1024.963065701558435, -1174.405262667903799, -591.7627018922212301 ) ) ;
#676 = ORIENTED_EDGE ( 'NONE', *, *, #246, .T. ) ;
#677 = CARTESIAN_POINT ( 'NONE',  ( -667.7849200813692505, -1093.805262667903435, -1210.413397459620910 ) ) ;
#678 = CARTESIAN_POINT ( 'NONE',  ( -668.6490216965073614, -1093.805262667903435, -1216.916729559299938 ) ) ;
#679 = ORIENTED_EDGE ( 'NONE', *, *, #456, .T. ) ;
#680 = DIRECTION ( 'NONE',  ( 0.000000000000000000, 1.000000000000000000, 0.000000000000000000 ) ) ;
#681 = EDGE_CURVE ( 'NONE', #330, #842, #882, .T. ) ;
#682 = DIRECTION ( 'NONE',  ( 0.000000000000000000, 1.000000000000000000, 0.000000000000000000 ) ) ;
#683 = AXIS2_PLACEMENT_3D ( 'NONE', #334, #980, #511 ) ;
#684 = VECTOR ( 'NONE', #798, 1000.000000000000114 ) ;
#685 = AXIS2_PLACEMENT_3D ( 'NONE', #792, #725, #642 ) ;
#686 = DIRECTION ( 'NONE',  ( 0.000000000000000000, -1.000000000000000000, 0.000000000000000000 ) ) ;
#687 = ORIENTED_EDGE ( 'NONE', *, *, #715, .T. ) ;
#688 = PLANE ( 'NONE',  #147 ) ;
#689 = AXIS2_PLACEMENT_3D ( 'NONE', #772, #457, #55 ) ;
#690 = VERTEX_POINT ( 'NONE', #695 ) ;
#691 = EDGE_CURVE ( 'NONE', #996, #863, #122, .T. ) ;
#692 = DIRECTION ( 'NONE',  ( 0.000000000000000000, -1.000000000000000000, 0.000000000000000000 ) ) ;
#693 = PLANE ( 'NONE',  #98 ) ;
#694 = ORIENTED_EDGE ( 'NONE', *, *, #840, .F. ) ;
#695 = CARTESIAN_POINT ( 'NONE',  ( -645.2759946098931323, -1153.705262667903298, -1257.399999999999181 ) ) ;
#696 = DIRECTION ( 'NONE',  ( 0.5000000000000014433, 0.000000000000000000, -0.8660254037844378194 ) ) ;
#697 = LINE ( 'NONE', #9, #273 ) ;
#698 = LINE ( 'NONE', #534, #36 ) ;
#699 = CARTESIAN_POINT ( 'NONE',  ( -717.9817945929357847, -1249.305262667903662, -1123.469860424429044 ) ) ;
#700 = ORIENTED_EDGE ( 'NONE', *, *, #604, .T. ) ;
#701 = CALENDAR_DATE ( 2025, 17, 8 ) ;
#702 = EDGE_LOOP ( 'NONE', ( #252, #267, #128, #582 ) ) ;
#703 = CARTESIAN_POINT ( 'NONE',  ( -588.6205321103212782, -1224.305262667903889, -1347.530139575570047 ) ) ;
#704 = AXIS2_PLACEMENT_3D ( 'NONE', #748, #673, #259 ) ;
#705 = ORIENTED_EDGE ( 'NONE', *, *, #193, .F. ) ;
#706 = VECTOR ( 'NONE', #487, 999.9999999999998863 ) ;
#707 = ADVANCED_FACE ( 'NONE', ( #280 ), #24, .T. ) ;
#708 = DIRECTION ( 'NONE',  ( 0.8660254037844378194, -0.000000000000000000, 0.5000000000000014433 ) ) ;
#709 = VERTEX_POINT ( 'NONE', #741 ) ;
#710 = DIRECTION ( 'NONE',  ( 0.5000000000000014433, 0.000000000000000000, -0.8660254037844378194 ) ) ;
#711 = EDGE_CURVE ( 'NONE', #863, #294, #756, .T. ) ;
#712 = DIRECTION ( 'NONE',  ( -0.5000000000000055511, -0.000000000000000000, 0.8660254037844353769 ) ) ;
#713 = EDGE_LOOP ( 'NONE', ( #1031, #585, #734, #538 ) ) ;
#714 = DATE_AND_TIME ( #701, #253 ) ;
#715 = EDGE_CURVE ( 'NONE', #842, #601, #855, .T. ) ;
#716 = LINE ( 'NONE', #316, #834 ) ;
#717 = CARTESIAN_POINT ( 'NONE',  ( -1028.427167316696341, -1093.805262667903435, -593.7627018922212301 ) ) ;
#718 = CARTESIAN_POINT ( 'NONE',  ( -634.0482016399856775, -1118.805262667903207, -1268.847107880743806 ) ) ;
#719 = EDGE_CURVE ( 'NONE', #1016, #182, #524, .T. ) ;
#720 = LINE ( 'NONE', #960, #296 ) ;
#721 = LINE ( 'NONE', #295, #549 ) ;
#722 = LINE ( 'NONE', #472, #901 ) ;
#723 = LINE ( 'NONE', #324, #563 ) ;
#724 = FACE_OUTER_BOUND ( 'NONE', #900, .T. ) ;
#725 = DIRECTION ( 'NONE',  ( -4.745491382970162279E-31, 1.000000000000000000, 8.219432182184587225E-31 ) ) ;
#726 = ORIENTED_EDGE ( 'NONE', *, *, #1024, .T. ) ;
#727 = CARTESIAN_POINT ( 'NONE',  ( -717.7847309729056633, -1166.982932197567607, -1131.811184626645172 ) ) ;
#728 = ORIENTED_EDGE ( 'NONE', *, *, #869, .F. ) ;
#729 = VECTOR ( 'NONE', #994, 1000.000000000000000 ) ;
#730 = CARTESIAN_POINT ( 'NONE',  ( -668.5584227732656473, 0.000000000000000000, -1209.073651497465789 ) ) ;
#731 = ORIENTED_EDGE ( 'NONE', *, *, #719, .T. ) ;
#732 = CARTESIAN_POINT ( 'NONE',  ( -642.2737732101069241, -1158.905262667903571, -1262.599999999999454 ) ) ;
#733 = ADVANCED_FACE ( 'NONE', ( #613 ), #923, .F. ) ;
#734 = ORIENTED_EDGE ( 'NONE', *, *, #406, .F. ) ;
#735 = CARTESIAN_POINT ( 'NONE',  ( -677.7317945929353300, -1093.805262667903435, -1193.184905429076707 ) ) ;
#736 = CARTESIAN_POINT ( 'NONE',  ( -1028.427167316696341, -1096.905262667903344, -593.7627018922212301 ) ) ;
#737 = ADVANCED_FACE ( 'NONE', ( #115 ), #934, .T. ) ;
#738 = CARTESIAN_POINT ( 'NONE',  ( -669.4225243884035308, -1170.205262667903753, -1215.576983597144590 ) ) ;
#739 = ADVANCED_FACE ( 'NONE', ( #181 ), #102, .F. ) ;
#740 = LINE ( 'NONE', #353, #817 ) ;
#741 = CARTESIAN_POINT ( 'NONE',  ( -717.9817945929357847, -1224.305262667903889, -1123.469860424429044 ) ) ;
#742 = PERSON_AND_ORGANIZATION ( #409, #418 ) ;
#743 = EDGE_LOOP ( 'NONE', ( #908, #728, #84, #700 ) ) ;
#744 = FACE_OUTER_BOUND ( 'NONE', #58, .T. ) ;
#745 = CLOSED_SHELL ( 'NONE', ( #337, #1009, #21, #251, #12, #91, #737, #707, #525, #137, #186, #206, #643, #64, #897, #368, #733, #903, #454, #470, #886, #912, #739, #505, #314, #821, #575, #1007, #655, #610 ) ) ;
#746 = VECTOR ( 'NONE', #130, 1000.000000000000000 ) ;
#747 = DIRECTION ( 'NONE',  ( 0.5000000000000055511, 0.000000000000000000, -0.8660254037844353769 ) ) ;
#748 = CARTESIAN_POINT ( 'NONE',  ( -1024.963065701558435, -1096.905262667903344, -591.7627018922212301 ) ) ;
#749 = EDGE_LOOP ( 'NONE', ( #340, #307, #151, #542 ) ) ;
#750 = FACE_BOUND ( 'NONE', #866, .T. ) ;
#751 = ORIENTED_EDGE ( 'NONE', *, *, #767, .F. ) ;
#752 = PLANE ( 'NONE',  #148 ) ;
#753 = DIRECTION ( 'NONE',  ( 0.8660254037844378194, -0.000000000000000000, 0.5000000000000014433 ) ) ;
#754 = EDGE_LOOP ( 'NONE', ( #127, #393, #854, #44 ) ) ;
#755 = EDGE_CURVE ( 'NONE', #434, #6, #283, .T. ) ;
#756 = LINE ( 'NONE', #356, #953 ) ;
#757 = EDGE_LOOP ( 'NONE', ( #945, #362, #954, #195 ) ) ;
#758 = DIRECTION ( 'NONE',  ( -0.000000000000000000, -1.000000000000000000, -0.000000000000000000 ) ) ;
#759 = CARTESIAN_POINT ( 'NONE',  ( -588.6205321103212782, -1224.305262667903889, -1347.530139575570047 ) ) ;
#760 = EDGE_LOOP ( 'NONE', ( #623, #26, #845, #7 ) ) ;
#761 = LINE ( 'NONE', #198, #919 ) ;
#762 = ORIENTED_EDGE ( 'NONE', *, *, #875, .F. ) ;
#763 = LINE ( 'NONE', #126, #818 ) ;
#764 = AXIS2_PLACEMENT_3D ( 'NONE', #239, #822, #501 ) ;
#765 = EDGE_LOOP ( 'NONE', ( #302, #793, #23, #566 ) ) ;
#766 = DATE_AND_TIME ( #530, #297 ) ;
#767 = EDGE_CURVE ( 'NONE', #553, #973, #344, .T. ) ;
#768 = CARTESIAN_POINT ( 'NONE',  ( -668.5584227732656473, -1170.205262667903753, -1209.073651497465789 ) ) ;
#769 = CARTESIAN_POINT ( 'NONE',  ( -705.4817945929360121, -1224.305262667903889, -1145.120495519040105 ) ) ;
#770 = ORIENTED_EDGE ( 'NONE', *, *, #667, .T. ) ;
#771 = EDGE_CURVE ( 'NONE', #201, #929, #235, .T. ) ;
#772 = CARTESIAN_POINT ( 'NONE',  ( -601.1205321103215056, -1184.660601727231096, -1325.879504480959213 ) ) ;
#773 = EDGE_CURVE ( 'NONE', #124, #333, #841, .T. ) ;
#774 = ORIENTED_EDGE ( 'NONE', *, *, #836, .T. ) ;
#775 = ORIENTED_EDGE ( 'NONE', *, *, #963, .F. ) ;
#776 = DIRECTION ( 'NONE',  ( 0.3535533905932757848, -0.7071067811865477948, -0.6123724356957931381 ) ) ;
#777 = CARTESIAN_POINT ( 'NONE',  ( -1024.963065701558435, -1170.205262667903753, -591.7627018922212301 ) ) ;
#778 = ORIENTED_EDGE ( 'NONE', *, *, #711, .T. ) ;
#779 = AXIS2_PLACEMENT_3D ( 'NONE', #699, #861, #379 ) ;
#780 = ORIENTED_EDGE ( 'NONE', *, *, #1024, .F. ) ;
#781 = APPROVAL_PERSON_ORGANIZATION ( #592, #490, #306 ) ;
#782 = CARTESIAN_POINT ( 'NONE',  ( -1028.427167316696341, -1174.405262667903799, -593.7627018922212301 ) ) ;
#783 = AXIS2_PLACEMENT_3D ( 'NONE', #952, #622, #930 ) ;
#784 = CARTESIAN_POINT ( 'NONE',  ( -684.8570614432416050, -1101.127593138239490, -1188.843581226860806 ) ) ;
#785 = ORIENTED_EDGE ( 'NONE', *, *, #109, .F. ) ;
#786 = SHAPE_DEFINITION_REPRESENTATION ( #52, #567 ) ;
#787 = VERTEX_POINT ( 'NONE', #990 ) ;
#788 = CARTESIAN_POINT ( 'NONE',  ( -640.6439039299917795, -1174.405262667903799, -1257.423016402854728 ) ) ;
#789 = VERTEX_POINT ( 'NONE', #669 ) ;
#790 = COORDINATED_UNIVERSAL_TIME_OFFSET ( 10, 0, .AHEAD. ) ;
#791 = DIRECTION ( 'NONE',  ( 0.000000000000000000, -1.000000000000000000, 0.000000000000000000 ) ) ;
#792 = CARTESIAN_POINT ( 'NONE',  ( -1024.963065701558435, -1174.405262667903799, -591.7627018922212301 ) ) ;
#793 = ORIENTED_EDGE ( 'NONE', *, *, #338, .T. ) ;
#794 = LINE ( 'NONE', #580, #512 ) ;
#795 = DIRECTION ( 'NONE',  ( 0.000000000000000000, -1.000000000000000000, 0.000000000000000000 ) ) ;
#796 = EDGE_LOOP ( 'NONE', ( #986, #209, #770, #1013 ) ) ;
#797 = CARTESIAN_POINT ( 'NONE',  ( -641.5080055451296630, -1170.205262667903753, -1263.926348502533529 ) ) ;
#798 = DIRECTION ( 'NONE',  ( 0.5000000000000014433, 0.000000000000000000, -0.8660254037844378194 ) ) ;
#799 = ORIENTED_EDGE ( 'NONE', *, *, #215, .T. ) ;
#800 = DIRECTION ( 'NONE',  ( 0.8660254037844378194, -0.000000000000000000, 0.5000000000000015543 ) ) ;
#801 = DIRECTION ( 'NONE',  ( 0.5000000000000039968, 0.000000000000000000, -0.8660254037844362651 ) ) ;
#802 = EDGE_LOOP ( 'NONE', ( #762, #977, #799, #51 ) ) ;
#803 = LINE ( 'NONE', #426, #78 ) ;
#804 = DIRECTION ( 'NONE',  ( 0.5000000000000014433, -1.873544649899903038E-29, -0.8660254037844378194 ) ) ;
#805 = ORIENTED_EDGE ( 'NONE', *, *, #604, .F. ) ;
#806 = DIRECTION ( 'NONE',  ( 0.8660254037844377084, -0.000000000000000000, 0.5000000000000014433 ) ) ;
#807 = LINE ( 'NONE', #717, #938 ) ;
#808 = DESIGN_CONTEXT ( 'detailed design', #369, 'design' ) ;
#809 = VERTEX_POINT ( 'NONE', #521 ) ;
#810 = CC_DESIGN_PERSON_AND_ORGANIZATION_ASSIGNMENT ( #396, #1022, ( #480 ) ) ;
#811 = LINE ( 'NONE', #662, #322 ) ;
#812 = VECTOR ( 'NONE', #377, 1000.000000000000114 ) ;
#813 = CARTESIAN_POINT ( 'NONE',  ( -595.7457989606275532, -1166.982932197567607, -1343.188815373353918 ) ) ;
#814 = VERTEX_POINT ( 'NONE', #853 ) ;
#815 = VECTOR ( 'NONE', #483, 1000.000000000000000 ) ;
#816 = VECTOR ( 'NONE', #605, 999.9999999999998863 ) ;
#817 = VECTOR ( 'NONE', #348, 1000.000000000000114 ) ;
#818 = VECTOR ( 'NONE', #712, 1000.000000000000114 ) ;
#819 = CARTESIAN_POINT ( 'NONE',  ( -705.4817945929360121, -1184.660601727231096, -1145.120495519040105 ) ) ;
#820 = ORIENTED_EDGE ( 'NONE', *, *, #859, .F. ) ;
#821 = ADVANCED_FACE ( 'NONE', ( #600 ), #194, .T. ) ;
#822 = DIRECTION ( 'NONE',  ( 0.5000000000000014433, 0.000000000000000000, -0.8660254037844378194 ) ) ;
#823 = EDGE_CURVE ( 'NONE', #330, #513, #270, .T. ) ;
#824 = LINE ( 'NONE', #27, #618 ) ;
#825 = ORIENTED_EDGE ( 'NONE', *, *, #431, .T. ) ;
#826 = VERTEX_POINT ( 'NONE', #371 ) ;
#827 = DIRECTION ( 'NONE',  ( 0.5000000000000014433, 9.490982765940296532E-31, -0.8660254037844378194 ) ) ;
#828 = DIRECTION ( 'NONE',  ( 0.8660254037844378194, -0.000000000000000000, 0.5000000000000014433 ) ) ;
#829 = VERTEX_POINT ( 'NONE', #113 ) ;
#830 = FACE_OUTER_BOUND ( 'NONE', #63, .T. ) ;
#831 = ORIENTED_EDGE ( 'NONE', *, *, #155, .T. ) ;
#832 = AXIS2_PLACEMENT_3D ( 'NONE', #465, #390, #710 ) ;
#833 = VECTOR ( 'NONE', #584, 999.9999999999998863 ) ;
#834 = VECTOR ( 'NONE', #641, 1000.000000000000114 ) ;
#835 = DIRECTION ( 'NONE',  ( 0.3535533905932748966, -0.7071067811865473507, -0.6123724356957941373 ) ) ;
#836 = EDGE_CURVE ( 'NONE', #838, #388, #440, .T. ) ;
#837 = CARTESIAN_POINT ( 'NONE',  ( -721.4458962080739184, 0.000000000000000000, -1125.469860424429044 ) ) ;
#838 = VERTEX_POINT ( 'NONE', #678 ) ;
#839 = DIRECTION ( 'NONE',  ( 0.8660254037844378194, -0.000000000000000000, 0.5000000000000015543 ) ) ;
#840 = EDGE_CURVE ( 'NONE', #826, #395, #22, .T. ) ;
#841 = LINE ( 'NONE', #759, #385 ) ;
#842 = VERTEX_POINT ( 'NONE', #39 ) ;
#843 = DIRECTION ( 'NONE',  ( -0.000000000000000000, -1.000000000000000000, -0.000000000000000000 ) ) ;
#844 = CARTESIAN_POINT ( 'NONE',  ( 0.000000000000000000, 0.000000000000000000, 0.000000000000000000 ) ) ;
#845 = ORIENTED_EDGE ( 'NONE', *, *, #552, .T. ) ;
#846 = LINE ( 'NONE', #666, #323 ) ;
#847 = FACE_OUTER_BOUND ( 'NONE', #336, .T. ) ;
#848 = VERTEX_POINT ( 'NONE', #361 ) ;
#849 = COORDINATED_UNIVERSAL_TIME_OFFSET ( 10, 0, .AHEAD. ) ;
#850 = CARTESIAN_POINT ( 'NONE',  ( -677.7317945929353300, -1093.805262667903435, -1193.184905429076707 ) ) ;
#851 = VECTOR ( 'NONE', #995, 999.9999999999998863 ) ;
#852 = LOCAL_TIME ( 14, 53, 57.00000000000000000, #347 ) ;
#853 = CARTESIAN_POINT ( 'NONE',  ( -672.0225243884034398, -1170.205262667903753, -1211.073651497465562 ) ) ;
#854 = ORIENTED_EDGE ( 'NONE', *, *, #59, .T. ) ;
#855 = LINE ( 'NONE', #286, #1018 ) ;
#856 = ORIENTED_EDGE ( 'NONE', *, *, #389, .T. ) ;
#857 = CARTESIAN_POINT ( 'NONE',  ( -1024.963065701558435, -1170.205262667903753, -591.7627018922212301 ) ) ;
#858 = EDGE_CURVE ( 'NONE', #690, #569, #527, .T. ) ;
#859 = EDGE_CURVE ( 'NONE', #1016, #299, #503, .T. ) ;
#860 = DIRECTION ( 'NONE',  ( 0.4999999999999990563, -0.000000000000000000, -0.8660254037844391517 ) ) ;
#861 = DIRECTION ( 'NONE',  ( 0.000000000000000000, 1.000000000000000000, 0.000000000000000000 ) ) ;
#862 = EDGE_LOOP ( 'NONE', ( #133, #392, #32, #911 ) ) ;
#863 = VERTEX_POINT ( 'NONE', #107 ) ;
#864 = DIRECTION ( 'NONE',  ( 0.5000000000000014433, 9.490982765940298284E-31, -0.8660254037844378194 ) ) ;
#865 = CARTESIAN_POINT ( 'NONE',  ( -721.4458962080739184, -1224.305262667903889, -1125.469860424429044 ) ) ;
#866 = EDGE_LOOP ( 'NONE', ( #778, #352, #372, #831 ) ) ;
#867 = PLANE ( 'NONE',  #832 ) ;
#868 = DIRECTION ( 'NONE',  ( -0.000000000000000000, -1.000000000000000000, -0.000000000000000000 ) ) ;
#869 = EDGE_CURVE ( 'NONE', #279, #929, #450, .T. ) ;
#870 = ORIENTED_EDGE ( 'NONE', *, *, #479, .F. ) ;
#871 = AXIS2_PLACEMENT_3D ( 'NONE', #1043, #335, #965 ) ;
#872 = VECTOR ( 'NONE', #101, 999.9999999999998863 ) ;
#873 = CIRCLE ( 'NONE', #971, 24.99999999999993250 ) ;
#874 = ORIENTED_EDGE ( 'NONE', *, *, #545, .F. ) ;
#875 = EDGE_CURVE ( 'NONE', #612, #809, #266, .T. ) ;
#876 = PERSON_AND_ORGANIZATION_ROLE ( 'classification_officer' ) ;
#877 = FACE_OUTER_BOUND ( 'NONE', #802, .T. ) ;
#878 = CYLINDRICAL_SURFACE ( 'NONE', #939, 24.99999999999993250 ) ;
#879 = ORIENTED_EDGE ( 'NONE', *, *, #836, .F. ) ;
#880 = CARTESIAN_POINT ( 'NONE',  ( -638.0439039299916431, 0.000000000000000000, -1261.926348502533756 ) ) ;
#881 = CARTESIAN_POINT ( 'NONE',  ( -705.4817945929360121, -1224.305262667903889, -1145.120495519040105 ) ) ;
#882 = CIRCLE ( 'NONE', #363, 24.99999999999993250 ) ;
#883 = CARTESIAN_POINT ( 'NONE',  ( -601.1205321103212782, -1249.305262667903662, -1325.879504480959213 ) ) ;
#884 = CC_DESIGN_APPROVAL ( #490, ( #480 ) ) ;
#885 = AXIS2_PLACEMENT_3D ( 'NONE', #624, #692, #387 ) ;
#886 = ADVANCED_FACE ( 'NONE', ( #847 ), #693, .F. ) ;
#887 = CARTESIAN_POINT ( 'NONE',  ( -638.8096715949690179, -1158.905262667903571, -1260.599999999999682 ) ) ;
#888 = CARTESIAN_POINT ( 'NONE',  ( -604.5846337254591845, -1224.305262667903889, -1327.879504480959440 ) ) ;
#889 = CARTESIAN_POINT ( 'NONE',  ( -665.1849200813696825, 0.000000000000000000, -1214.916729559299938 ) ) ;
#890 = DIRECTION ( 'NONE',  ( -0.3535533905932748966, -0.7071067811865473507, 0.6123724356957941373 ) ) ;
#891 = LINE ( 'NONE', #967, #386 ) ;
#892 = DIRECTION ( 'NONE',  ( 0.000000000000000000, 1.000000000000000000, 0.000000000000000000 ) ) ;
#893 = LINE ( 'NONE', #736, #684 ) ;
#894 = ORIENTED_EDGE ( 'NONE', *, *, #711, .F. ) ;
#895 = PLANE ( 'NONE',  #983 ) ;
#896 = EDGE_CURVE ( 'NONE', #709, #601, #35, .T. ) ;
#897 = ADVANCED_FACE ( 'NONE', ( #940 ), #535, .F. ) ;
#898 = AXIS2_PLACEMENT_3D ( 'NONE', #278, #588, #509 ) ;
#899 = LINE ( 'NONE', #883, #236 ) ;
#900 = EDGE_LOOP ( 'NONE', ( #103, #161, #2, #780 ) ) ;
#901 = VECTOR ( 'NONE', #475, 1000.000000000000114 ) ;
#902 = ORIENTED_EDGE ( 'NONE', *, *, #227, .F. ) ;
#903 = ADVANCED_FACE ( 'NONE', ( #152 ), #315, .T. ) ;
#904 = CARTESIAN_POINT ( 'NONE',  ( -708.9458962080738047, -1184.660601727231096, -1147.120495519040105 ) ) ;
#905 = ORIENTED_EDGE ( 'NONE', *, *, #402, .T. ) ;
#906 = DIRECTION ( 'NONE',  ( 0.8660254037844378194, -0.000000000000000000, 0.5000000000000014433 ) ) ;
#907 = DIRECTION ( 'NONE',  ( 0.5000000000000014433, 9.490982765940298284E-31, -0.8660254037844378194 ) ) ;
#908 = ORIENTED_EDGE ( 'NONE', *, *, #667, .F. ) ;
#909 = CARTESIAN_POINT ( 'NONE',  ( -592.2816973454894196, -1166.982932197567607, -1341.188815373353918 ) ) ;
#910 = APPROVAL_STATUS ( 'not_yet_approved' ) ;
#911 = ORIENTED_EDGE ( 'NONE', *, *, #456, .F. ) ;
#912 = ADVANCED_FACE ( 'NONE', ( #233 ), #484, .F. ) ;
#913 = DIRECTION ( 'NONE',  ( 0.8660254037844378194, -0.000000000000000000, 0.5000000000000014433 ) ) ;
#914 = LINE ( 'NONE', #180, #872 ) ;
#915 = DIRECTION ( 'NONE',  ( 0.8660254037844378194, -0.000000000000000000, 0.5000000000000014433 ) ) ;
#916 = ORIENTED_EDGE ( 'NONE', *, *, #188, .F. ) ;
#917 = VECTOR ( 'NONE', #568, 1000.000000000000114 ) ;
#918 = VECTOR ( 'NONE', #13, 1000.000000000000000 ) ;
#919 = VECTOR ( 'NONE', #696, 1000.000000000000114 ) ;
#920 = LINE ( 'NONE', #265, #918 ) ;
#921 = DIRECTION ( 'NONE',  ( 0.8660254037844378194, -0.000000000000000000, 0.5000000000000014433 ) ) ;
#922 = ORIENTED_EDGE ( 'NONE', *, *, #621, .T. ) ;
#923 = PLANE ( 'NONE',  #562 ) ;
#924 = ORIENTED_EDGE ( 'NONE', *, *, #555, .T. ) ;
#925 = LINE ( 'NONE', #359, #550 ) ;
#926 = DIRECTION ( 'NONE',  ( 0.8660254037844378194, -0.000000000000000000, 0.5000000000000014433 ) ) ;
#927 = ORIENTED_EDGE ( 'NONE', *, *, #637, .T. ) ;
#928 = DIRECTION ( 'NONE',  ( -0.5000000000000014433, -9.490982765940298284E-31, 0.8660254037844378194 ) ) ;
#929 = VERTEX_POINT ( 'NONE', #813 ) ;
#930 = DIRECTION ( 'NONE',  ( 0.5000000000000039968, 0.000000000000000000, -0.8660254037844362651 ) ) ;
#931 = DIRECTION ( 'NONE',  ( 0.8660254037844378194, -0.000000000000000000, 0.5000000000000014433 ) ) ;
#932 = EDGE_LOOP ( 'NONE', ( #303, #992, #232, #177 ) ) ;
#933 = EDGE_CURVE ( 'NONE', #612, #848, #893, .T. ) ;
#934 = PLANE ( 'NONE',  #633 ) ;
#935 = VERTEX_POINT ( 'NONE', #415 ) ;
#936 = VECTOR ( 'NONE', #776, 999.9999999999998863 ) ;
#937 = FACE_OUTER_BOUND ( 'NONE', #749, .T. ) ;
#938 = VECTOR ( 'NONE', #407, 1000.000000000000114 ) ;
#939 = AXIS2_PLACEMENT_3D ( 'NONE', #881, #482, #565 ) ;
#940 = FACE_OUTER_BOUND ( 'NONE', #757, .T. ) ;
#941 = ORIENTED_EDGE ( 'NONE', *, *, #767, .T. ) ;
#942 = ORIENTED_EDGE ( 'NONE', *, *, #159, .T. ) ;
#943 = CARTESIAN_POINT ( 'NONE',  ( -642.2737732101069241, 0.000000000000000000, -1262.599999999999454 ) ) ;
#944 = VERTEX_POINT ( 'NONE', #328 ) ;
#945 = ORIENTED_EDGE ( 'NONE', *, *, #715, .F. ) ;
#946 = FACE_OUTER_BOUND ( 'NONE', #441, .T. ) ;
#947 = EDGE_CURVE ( 'NONE', #299, #213, #341, .T. ) ;
#948 = LINE ( 'NONE', #216, #237 ) ;
#949 = EDGE_LOOP ( 'NONE', ( #71, #375, #652, #88 ) ) ;
#950 = PERSON_AND_ORGANIZATION ( #409, #418 ) ;
#951 = VERTEX_POINT ( 'NONE', #85 ) ;
#952 = CARTESIAN_POINT ( 'NONE',  ( -601.1205321103215056, -1224.305262667903889, -1325.879504480959440 ) ) ;
#953 = VECTOR ( 'NONE', #680, 1000.000000000000000 ) ;
#954 = ORIENTED_EDGE ( 'NONE', *, *, #963, .T. ) ;
#955 = AXIS2_PLACEMENT_3D ( 'NONE', #163, #495, #801 ) ;
#956 = COORDINATED_UNIVERSAL_TIME_OFFSET ( 10, 0, .AHEAD. ) ;
#957 = ORIENTED_EDGE ( 'NONE', *, *, #125, .T. ) ;
#958 = VECTOR ( 'NONE', #615, 999.9999999999998863 ) ;
#959 = CARTESIAN_POINT ( 'NONE',  ( -588.6205321103212782, -1174.305262667903889, -1347.530139575570047 ) ) ;
#960 = CARTESIAN_POINT ( 'NONE',  ( -1028.427167316696341, -1249.305262667903662, -593.7627018922212301 ) ) ;
#961 = CC_DESIGN_DATE_AND_TIME_ASSIGNMENT ( #714, #1032, ( #325 ) ) ;
#962 = CARTESIAN_POINT ( 'NONE',  ( -601.1205321103215056, -1224.305262667903889, -1325.879504480959440 ) ) ;
#963 = EDGE_CURVE ( 'NONE', #1039, #191, #899, .T. ) ;
#964 = MANIFOLD_SOLID_BREP ( 'Convert-Solid1', #745 ) ;
#965 = DIRECTION ( 'NONE',  ( 0.5000000000000039968, 0.000000000000000000, -0.8660254037844362651 ) ) ;
#966 = ORIENTED_EDGE ( 'NONE', *, *, #3, .T. ) ;
#967 = CARTESIAN_POINT ( 'NONE',  ( -638.8096715949690179, -1156.305262667903662, -1260.599999999999682 ) ) ;
#968 = VECTOR ( 'NONE', #931, 999.9999999999998863 ) ;
#969 = VECTOR ( 'NONE', #157, 1000.000000000000000 ) ;
#970 = VECTOR ( 'NONE', #226, 999.9999999999998863 ) ;
#971 = AXIS2_PLACEMENT_3D ( 'NONE', #42, #220, #1025 ) ;
#972 = CARTESIAN_POINT ( 'NONE',  ( -671.2490216965072705, -1093.805262667903435, -1212.413397459620910 ) ) ;
#973 = VERTEX_POINT ( 'NONE', #410 ) ;
#974 = DIRECTION ( 'NONE',  ( 0.5000000000000039968, 0.000000000000000000, -0.8660254037844362651 ) ) ;
#975 = DIRECTION ( 'NONE',  ( -0.5000000000000014433, 0.000000000000000000, 0.8660254037844378194 ) ) ;
#976 = CARTESIAN_POINT ( 'NONE',  ( -592.2816973454894196, -1166.982932197567607, -1341.188815373353918 ) ) ;
#977 = ORIENTED_EDGE ( 'NONE', *, *, #284, .F. ) ;
#978 = LINE ( 'NONE', #244, #833 ) ;
#979 = LINE ( 'NONE', #429, #1038 ) ;
#980 = DIRECTION ( 'NONE',  ( 0.5000000000000014433, 0.000000000000000000, -0.8660254037844378194 ) ) ;
#981 = DIRECTION ( 'NONE',  ( 0.8660254037844377084, -0.000000000000000000, 0.5000000000000014433 ) ) ;
#982 = ORIENTED_EDGE ( 'NONE', *, *, #131, .F. ) ;
#983 = AXIS2_PLACEMENT_3D ( 'NONE', #160, #795, #486 ) ;
#984 = FACE_OUTER_BOUND ( 'NONE', #46, .T. ) ;
#985 = CARTESIAN_POINT ( 'NONE',  ( -634.0482016399854501, -1093.805262667903435, -1268.847107880743806 ) ) ;
#986 = ORIENTED_EDGE ( 'NONE', *, *, #558, .F. ) ;
#987 = EDGE_CURVE ( 'NONE', #191, #601, #1047, .T. ) ;
#988 = DIRECTION ( 'NONE',  ( 0.000000000000000000, 0.000000000000000000, 1.000000000000000000 ) ) ;
#989 = CARTESIAN_POINT ( 'NONE',  ( -592.0846337254592981, -1184.660601727231096, -1349.530139575570047 ) ) ;
#990 = CARTESIAN_POINT ( 'NONE',  ( -665.9584227732656245, -1170.205262667903753, -1213.576983597144817 ) ) ;
#991 = ORIENTED_EDGE ( 'NONE', *, *, #993, .F. ) ;
#992 = ORIENTED_EDGE ( 'NONE', *, *, #591, .T. ) ;
#993 = EDGE_CURVE ( 'NONE', #1044, #388, #663, .T. ) ;
#994 = DIRECTION ( 'NONE',  ( -0.000000000000000000, 1.000000000000000000, -0.000000000000000000 ) ) ;
#995 = DIRECTION ( 'NONE',  ( 0.3535533905932757848, -0.7071067811865477948, -0.6123724356957931381 ) ) ;
#996 = VERTEX_POINT ( 'NONE', #11 ) ;
#997 = DIRECTION ( 'NONE',  ( 0.8660254037844378194, -0.000000000000000000, 0.5000000000000014433 ) ) ;
#998 = VECTOR ( 'NONE', #404, 1000.000000000000114 ) ;
#999 = PRODUCT_DEFINITION ( 'UNKNOWN', '', #480, #808 ) ;
#1000 = AXIS2_PLACEMENT_3D ( 'NONE', #888, #247, #156 ) ;
#1001 = AXIS2_PLACEMENT_3D ( 'NONE', #370, #304, #860 ) ;
#1002 = LINE ( 'NONE', #677, #599 ) ;
#1003 = CARTESIAN_POINT ( 'NONE',  ( -667.7849200813697053, -1096.905262667903344, -1210.413397459620683 ) ) ;
#1004 = VERTEX_POINT ( 'NONE', #82 ) ;
#1005 = DIRECTION ( 'NONE',  ( 0.5000000000000014433, 0.000000000000000000, -0.8660254037844378194 ) ) ;
#1006 = MECHANICAL_CONTEXT ( 'NONE', #1014, 'mechanical' ) ;
#1007 = ADVANCED_FACE ( 'NONE', ( #1 ), #653, .F. ) ;
#1008 = CYLINDRICAL_SURFACE ( 'NONE', #783, 24.99999999999993250 ) ;
#1009 = ADVANCED_FACE ( 'NONE', ( #167 ), #497, .T. ) ;
#1010 = CARTESIAN_POINT ( 'NONE',  ( -641.8118929947552260, -1153.705262667903298, -1255.399999999999409 ) ) ;
#1011 = ORIENTED_EDGE ( 'NONE', *, *, #668, .F. ) ;
#1012 = DIRECTION ( 'NONE',  ( -4.745491382970162279E-31, 1.000000000000000000, 8.219432182184587225E-31 ) ) ;
#1013 = ORIENTED_EDGE ( 'NONE', *, *, #319, .F. ) ;
#1014 = APPLICATION_CONTEXT ( 'configuration controlled 3d designs of mechanical parts and assemblies' ) ;
#1015 = CARTESIAN_POINT ( 'NONE',  ( -1028.427167316696341, -1174.405262667903799, -593.7627018922212301 ) ) ;
#1016 = VERTEX_POINT ( 'NONE', #727 ) ;
#1017 = ORIENTED_EDGE ( 'NONE', *, *, #638, .T. ) ;
#1018 = VECTOR ( 'NONE', #997, 999.9999999999998863 ) ;
#1019 = LINE ( 'NONE', #135, #494 ) ;
#1020 = ORIENTED_EDGE ( 'NONE', *, *, #691, .F. ) ;
#1021 = APPROVAL ( #210, 'UNSPECIFIED' ) ;
#1022 = PERSON_AND_ORGANIZATION_ROLE ( 'creator' ) ;
#1023 = DIRECTION ( 'NONE',  ( 0.8660254037844378194, -0.000000000000000000, 0.5000000000000014433 ) ) ;
#1024 = EDGE_CURVE ( 'NONE', #223, #6, #1036, .T. ) ;
#1025 = DIRECTION ( 'NONE',  ( 0.5000000000000039968, 0.000000000000000000, -0.8660254037844362651 ) ) ;
#1026 = EDGE_LOOP ( 'NONE', ( #874, #408, #422, #825 ) ) ;
#1027 = ORIENTED_EDGE ( 'NONE', *, *, #203, .F. ) ;
#1028 = CARTESIAN_POINT ( 'NONE',  ( -671.2490216965074978, -1096.905262667903344, -1212.413397459620683 ) ) ;
#1029 = EDGE_CURVE ( 'NONE', #330, #709, #978, .T. ) ;
#1030 = FACE_OUTER_BOUND ( 'NONE', #949, .T. ) ;
#1031 = ORIENTED_EDGE ( 'NONE', *, *, #193, .T. ) ;
#1032 = DATE_TIME_ROLE ( 'classification_date' ) ;
#1033 = VERTEX_POINT ( 'NONE', #732 ) ;
#1034 = DIRECTION ( 'NONE',  ( 0.8660254037844378194, -0.000000000000000000, 0.5000000000000014433 ) ) ;
#1035 = VECTOR ( 'NONE', #189, 1000.000000000000000 ) ;
#1036 = CIRCLE ( 'NONE', #598, 24.99999999999993250 ) ;
#1037 = ORIENTED_EDGE ( 'NONE', *, *, #558, .T. ) ;
#1038 = VECTOR ( 'NONE', #747, 1000.000000000000114 ) ;
#1039 = VERTEX_POINT ( 'NONE', #658 ) ;
#1040 = CARTESIAN_POINT ( 'NONE',  ( -640.6439039299917795, -1174.405262667903799, -1257.423016402854728 ) ) ;
#1041 = EDGE_CURVE ( 'NONE', #1016, #513, #150, .T. ) ;
#1042 = DIRECTION ( 'NONE',  ( -3.437295801910607336E-15, 1.000000000000000000, -1.984523656517489010E-15 ) ) ;
#1043 = CARTESIAN_POINT ( 'NONE',  ( -601.1205321103215056, -1184.660601727231096, -1325.879504480959213 ) ) ;
#1044 = VERTEX_POINT ( 'NONE', #268 ) ;
#1045 = DIRECTION ( 'NONE',  ( 0.000000000000000000, -1.000000000000000000, 0.000000000000000000 ) ) ;
#1046 = PLANE ( 'NONE',  #481 ) ;
#1047 = LINE ( 'NONE', #646, #917 ) ;
#1048 = ORIENTED_EDGE ( 'NONE', *, *, #172, .F. ) ;
#1049 = CARTESIAN_POINT ( 'NONE',  ( -721.4458962080739184, -1184.660601727231096, -1125.469860424429044 ) ) ;
#1050 = FACE_OUTER_BOUND ( 'NONE', #536, .T. ) ;
#1051 = AXIS2_PLACEMENT_3D ( 'NONE', #75, #173, #423 ) ;
#1052 = AXIS2_PLACEMENT_3D ( 'NONE', #425, #839, #594 ) ;
#1053 = EDGE_CURVE ( 'NONE', #814, #553, #761, .T. ) ;
ENDSEC;
END-ISO-10303-21;
