ISO-10303-21;
HEADER;
FILE_DESCRIPTION (( 'STEP AP203' ),
    '1' );
FILE_NAME ('HANGER-F_REV_A.step',
    '2025-08-17T05:04:23',
    ( '' ),
    ( '' ),
    'SwSTEP 2.0',
    'SolidWorks 2024',
    '' );
FILE_SCHEMA (( 'CONFIG_CONTROL_DESIGN' ));
ENDSEC;

DATA;
#1 = EDGE_CURVE ( 'NONE', #675, #145, #637, .T. ) ;
#2 = FACE_OUTER_BOUND ( 'NONE', #248, .T. ) ;
#3 = FACE_OUTER_BOUND ( 'NONE', #489, .T. ) ;
#4 = ORIENTED_EDGE ( 'NONE', *, *, #94, .T. ) ;
#5 = CARTESIAN_POINT ( 'NONE',  ( 38.00000000000000000, 9.999999999999991118, -19.50000000000000000 ) ) ;
#6 = DIRECTION ( 'NONE',  ( 0.000000000000000000, 0.000000000000000000, 1.000000000000000000 ) ) ;
#7 = AXIS2_PLACEMENT_3D ( 'NONE', #695, #685, #263 ) ;
#8 = ORIENTED_EDGE ( 'NONE', *, *, #406, .T. ) ;
#9 = EDGE_CURVE ( 'NONE', #23, #625, #691, .T. ) ;
#10 = APPLICATION_PROTOCOL_DEFINITION ( 'international standard', 'config_control_design', 1994, #119 ) ;
#11 = APPROVAL_PERSON_ORGANIZATION ( #393, #486, #738 ) ;
#12 = CARTESIAN_POINT ( 'NONE',  ( 28.00000000000000355, 0.000000000000000000, 19.50000000000000000 ) ) ;
#13 = DATE_AND_TIME ( #127, #215 ) ;
#14 = CARTESIAN_POINT ( 'NONE',  ( -38.00000000000000000, 61.00000000000000000, -19.50000000000000000 ) ) ;
#15 = ORIENTED_EDGE ( 'NONE', *, *, #310, .F. ) ;
#16 = APPROVAL_DATE_TIME ( #80, #486 ) ;
#17 = CARTESIAN_POINT ( 'NONE',  ( -38.00000000000000000, 0.000000000000000000, 19.50000000000000000 ) ) ;
#18 = ORIENTED_EDGE ( 'NONE', *, *, #532, .T. ) ;
#19 = DATE_AND_TIME ( #390, #612 ) ;
#20 = ORIENTED_EDGE ( 'NONE', *, *, #342, .F. ) ;
#21 = CARTESIAN_POINT ( 'NONE',  ( 28.00000000000000000, 9.999999999999998224, 19.50000000000000000 ) ) ;
#22 = AXIS2_PLACEMENT_3D ( 'NONE', #707, #402, #521 ) ;
#23 = VERTEX_POINT ( 'NONE', #337 ) ;
#24 = EDGE_CURVE ( 'NONE', #313, #449, #28, .T. ) ;
#25 = PERSON_AND_ORGANIZATION ( #387, #434 ) ;
#26 = CARTESIAN_POINT ( 'NONE',  ( -38.00000000000000000, 26.31249999999999645, 0.000000000000000000 ) ) ;
#27 = ORIENTED_EDGE ( 'NONE', *, *, #722, .T. ) ;
#28 = LINE ( 'NONE', #519, #478 ) ;
#29 = ADVANCED_FACE ( 'NONE', ( #401 ), #84, .F. ) ;
#30 = VERTEX_POINT ( 'NONE', #333 ) ;
#31 = CARTESIAN_POINT ( 'NONE',  ( 38.00000000000000000, 9.999999999999991118, 19.50000000000000000 ) ) ;
#32 = APPROVAL_PERSON_ORGANIZATION ( #202, #59, #139 ) ;
#33 = DIRECTION ( 'NONE',  ( 0.000000000000000000, 0.000000000000000000, -1.000000000000000000 ) ) ;
#34 = AXIS2_PLACEMENT_3D ( 'NONE', #223, #464, #413 ) ;
#35 = ADVANCED_FACE ( 'NONE', ( #754 ), #708, .F. ) ;
#36 = LINE ( 'NONE', #95, #182 ) ;
#37 = EDGE_LOOP ( 'NONE', ( #741, #61, #8, #18 ) ) ;
#38 = FACE_OUTER_BOUND ( 'NONE', #668, .T. ) ;
#39 = DIRECTION ( 'NONE',  ( -0.000000000000000000, 1.000000000000000000, 0.000000000000000000 ) ) ;
#40 = FACE_OUTER_BOUND ( 'NONE', #141, .T. ) ;
#41 = DIRECTION ( 'NONE',  ( 1.000000000000000000, 0.000000000000000000, 0.000000000000000000 ) ) ;
#42 = DIRECTION ( 'NONE',  ( 1.000000000000000000, 0.000000000000000000, -0.000000000000000000 ) ) ;
#43 = ORIENTED_EDGE ( 'NONE', *, *, #465, .T. ) ;
#44 = DIRECTION ( 'NONE',  ( 0.000000000000000000, 0.000000000000000000, -1.000000000000000000 ) ) ;
#45 = CARTESIAN_POINT ( 'NONE',  ( 28.00000000000000000, 9.999999999999998224, 19.50000000000000000 ) ) ;
#46 = VECTOR ( 'NONE', #628, 1000.000000000000000 ) ;
#47 = ORIENTED_EDGE ( 'NONE', *, *, #638, .F. ) ;
#48 = VECTOR ( 'NONE', #230, 1000.000000000000000 ) ;
#49 = LINE ( 'NONE', #53, #446 ) ;
#50 = DIRECTION ( 'NONE',  ( -1.000000000000000000, 0.000000000000000000, 0.000000000000000000 ) ) ;
#51 = DIRECTION ( 'NONE',  ( -1.000000000000000000, 0.000000000000000000, 0.000000000000000000 ) ) ;
#52 = DIRECTION ( 'NONE',  ( -0.000000000000000000, -1.000000000000000000, 0.000000000000000000 ) ) ;
#53 = CARTESIAN_POINT ( 'NONE',  ( -38.00000000000000000, 41.34999999999999432, -8.250000000000000000 ) ) ;
#54 = ADVANCED_FACE ( 'NONE', ( #40 ), #359, .T. ) ;
#55 = DIRECTION ( 'NONE',  ( -1.000000000000000000, -0.000000000000000000, 0.000000000000000000 ) ) ;
#56 = VECTOR ( 'NONE', #237, 1000.000000000000000 ) ;
#57 = CIRCLE ( 'NONE', #634, 34.68750000000000000 ) ;
#58 = DIRECTION ( 'NONE',  ( -1.000000000000000000, 8.673617379884037444E-16, 0.000000000000000000 ) ) ;
#59 = APPROVAL ( #447, 'UNSPECIFIED' ) ;
#60 = CARTESIAN_POINT ( 'NONE',  ( 30.00000000000000711, 41.34999999999999432, 0.000000000000000000 ) ) ;
#61 = ORIENTED_EDGE ( 'NONE', *, *, #325, .F. ) ;
#62 = CARTESIAN_POINT ( 'NONE',  ( 28.00000000000000355, 0.000000000000000000, 19.50000000000000000 ) ) ;
#63 = CARTESIAN_POINT ( 'NONE',  ( -38.00000000000000000, 55.00000000000000000, -19.50000000000000000 ) ) ;
#64 = VERTEX_POINT ( 'NONE', #470 ) ;
#65 = ORIENTED_EDGE ( 'NONE', *, *, #638, .T. ) ;
#66 = PRODUCT ( 'HANGER-F_REV_A', 'HANGER-F_REV_A', '', ( #565 ) ) ;
#67 = DIRECTION ( 'NONE',  ( 0.000000000000000000, 0.000000000000000000, 1.000000000000000000 ) ) ;
#68 = LINE ( 'NONE', #480, #506 ) ;
#69 = EDGE_LOOP ( 'NONE', ( #689, #206, #20, #309 ) ) ;
#70 = AXIS2_PLACEMENT_3D ( 'NONE', #588, #99, #710 ) ;
#71 = AXIS2_PLACEMENT_3D ( 'NONE', #222, #466, #41 ) ;
#72 = CARTESIAN_POINT ( 'NONE',  ( 38.00000000000000000, 9.999999999999991118, 19.50000000000000000 ) ) ;
#73 = EDGE_LOOP ( 'NONE', ( #694, #457, #582, #742 ) ) ;
#74 = ORIENTED_EDGE ( 'NONE', *, *, #475, .F. ) ;
#75 = PERSON_AND_ORGANIZATION ( #387, #434 ) ;
#76 = PLANE ( 'NONE',  #269 ) ;
#77 = ORIENTED_EDGE ( 'NONE', *, *, #115, .F. ) ;
#78 = VERTEX_POINT ( 'NONE', #296 ) ;
#79 = EDGE_LOOP ( 'NONE', ( #663, #247, #732, #495 ) ) ;
#80 = DATE_AND_TIME ( #85, #459 ) ;
#81 = FACE_OUTER_BOUND ( 'NONE', #559, .T. ) ;
#82 = EDGE_CURVE ( 'NONE', #145, #664, #298, .T. ) ;
#83 = ORIENTED_EDGE ( 'NONE', *, *, #82, .F. ) ;
#84 = CYLINDRICAL_SURFACE ( 'NONE', #211, 8.250000000000000000 ) ;
#85 = CALENDAR_DATE ( 2025, 17, 8 ) ;
#86 = VECTOR ( 'NONE', #499, 1000.000000000000000 ) ;
#87 = FACE_OUTER_BOUND ( 'NONE', #163, .T. ) ;
#88 = CIRCLE ( 'NONE', #71, 2.000000000000001776 ) ;
#89 = CC_DESIGN_PERSON_AND_ORGANIZATION_ASSIGNMENT ( #733, #682, ( #360 ) ) ;
#90 = DIRECTION ( 'NONE',  ( 1.000000000000000000, -2.818925648462311528E-15, 0.000000000000000000 ) ) ;
#91 = LINE ( 'NONE', #618, #46 ) ;
#92 = ORIENTED_EDGE ( 'NONE', *, *, #143, .F. ) ;
#93 = ORIENTED_EDGE ( 'NONE', *, *, #520, .F. ) ;
#94 = EDGE_CURVE ( 'NONE', #636, #382, #714, .T. ) ;
#95 = CARTESIAN_POINT ( 'NONE',  ( -30.00000000000000000, 10.00000000000001421, -19.50000000000000000 ) ) ;
#96 = DIRECTION ( 'NONE',  ( -0.000000000000000000, -0.000000000000000000, -1.000000000000000000 ) ) ;
#97 = CARTESIAN_POINT ( 'NONE',  ( -27.99999999999999645, 10.00000000000000888, 19.50000000000000000 ) ) ;
#98 = AXIS2_PLACEMENT_3D ( 'NONE', #448, #336, #517 ) ;
#99 = DIRECTION ( 'NONE',  ( 0.000000000000000000, 1.000000000000000000, 0.000000000000000000 ) ) ;
#100 = VECTOR ( 'NONE', #423, 1000.000000000000000 ) ;
#101 = CARTESIAN_POINT ( 'NONE',  ( -27.99999999999999645, 0.000000000000000000, 19.50000000000000000 ) ) ;
#102 = CARTESIAN_POINT ( 'NONE',  ( 30.00000000000000711, 41.34999999999999432, 0.000000000000000000 ) ) ;
#103 = PLANE ( 'NONE',  #295 ) ;
#104 = EDGE_CURVE ( 'NONE', #625, #23, #133, .T. ) ;
#105 = PLANE ( 'NONE',  #357 ) ;
#106 = ORIENTED_EDGE ( 'NONE', *, *, #417, .F. ) ;
#107 = DIRECTION ( 'NONE',  ( -1.000000000000000000, 0.000000000000000000, 0.000000000000000000 ) ) ;
#108 = CARTESIAN_POINT ( 'NONE',  ( -27.99999999999999645, 8.000000000000000000, 19.50000000000000000 ) ) ;
#109 = EDGE_CURVE ( 'NONE', #78, #243, #217, .T. ) ;
#110 = AXIS2_PLACEMENT_3D ( 'NONE', #649, #412, #44 ) ;
#111 = ORIENTED_EDGE ( 'NONE', *, *, #224, .F. ) ;
#112 = CIRCLE ( 'NONE', #123, 9.999999999999998224 ) ;
#113 = LINE ( 'NONE', #173, #411 ) ;
#114 = CARTESIAN_POINT ( 'NONE',  ( 38.00000000000000000, 55.00000000000000000, 19.50000000000000000 ) ) ;
#115 = EDGE_CURVE ( 'NONE', #187, #243, #442, .T. ) ;
#116 = LINE ( 'NONE', #775, #270 ) ;
#117 = DIRECTION ( 'NONE',  ( -0.000000000000000000, 0.000000000000000000, -1.000000000000000000 ) ) ;
#118 = DIRECTION ( 'NONE',  ( -1.000000000000000000, 0.000000000000000000, 0.000000000000000000 ) ) ;
#119 = APPLICATION_CONTEXT ( 'configuration controlled 3d designs of mechanical parts and assemblies' ) ;
#120 = LINE ( 'NONE', #246, #283 ) ;
#121 = VERTEX_POINT ( 'NONE', #353 ) ;
#122 = AXIS2_PLACEMENT_3D ( 'NONE', #60, #476, #177 ) ;
#123 = AXIS2_PLACEMENT_3D ( 'NONE', #605, #608, #58 ) ;
#124 = ADVANCED_BREP_SHAPE_REPRESENTATION ( 'HANGER-F_REV_A', ( #752, #335 ), #228 ) ;
#125 = CYLINDRICAL_SURFACE ( 'NONE', #746, 10.00000000000000178 ) ;
#126 = CARTESIAN_POINT ( 'NONE',  ( 30.00000000000000711, 55.00000000000000000, -19.50000000000000000 ) ) ;
#127 = CALENDAR_DATE ( 2025, 17, 8 ) ;
#128 = DIRECTION ( 'NONE',  ( -0.000000000000000000, 0.000000000000000000, -1.000000000000000000 ) ) ;
#129 = ADVANCED_FACE ( 'NONE', ( #773, #462 ), #642, .F. ) ;
#130 = LINE ( 'NONE', #394, #86 ) ;
#131 = ORIENTED_EDGE ( 'NONE', *, *, #621, .T. ) ;
#132 = ORIENTED_EDGE ( 'NONE', *, *, #1, .T. ) ;
#133 = CIRCLE ( 'NONE', #155, 8.250000000000000000 ) ;
#134 = VECTOR ( 'NONE', #456, 1000.000000000000000 ) ;
#135 = CARTESIAN_POINT ( 'NONE',  ( 28.00000000000000355, 0.000000000000000000, -19.50000000000000000 ) ) ;
#136 = ORIENTED_EDGE ( 'NONE', *, *, #465, .F. ) ;
#137 = VERTEX_POINT ( 'NONE', #585 ) ;
#138 = ADVANCED_FACE ( 'NONE', ( #162 ), #350, .F. ) ;
#139 = APPROVAL_ROLE ( '' ) ;
#140 = DIRECTION ( 'NONE',  ( 1.000000000000000000, 0.000000000000000000, 0.000000000000000000 ) ) ;
#141 = EDGE_LOOP ( 'NONE', ( #404, #624, #760, #192 ) ) ;
#142 = DIRECTION ( 'NONE',  ( 1.000000000000000000, -0.000000000000000000, -0.000000000000000000 ) ) ;
#143 = EDGE_CURVE ( 'NONE', #502, #563, #700, .T. ) ;
#144 = DIRECTION ( 'NONE',  ( -1.000000000000000000, 0.000000000000000000, 0.000000000000000000 ) ) ;
#145 = VERTEX_POINT ( 'NONE', #591 ) ;
#146 = VECTOR ( 'NONE', #415, 1000.000000000000000 ) ;
#147 = AXIS2_PLACEMENT_3D ( 'NONE', #294, #587, #460 ) ;
#148 = DIRECTION ( 'NONE',  ( -1.000000000000000000, -0.000000000000000000, 0.000000000000000000 ) ) ;
#149 = ORIENTED_EDGE ( 'NONE', *, *, #693, .T. ) ;
#150 = DIRECTION ( 'NONE',  ( 1.000000000000000000, 0.000000000000000000, 0.000000000000000000 ) ) ;
#151 = DIRECTION ( 'NONE',  ( -0.000000000000000000, 0.000000000000000000, -1.000000000000000000 ) ) ;
#152 = ADVANCED_FACE ( 'NONE', ( #38 ), #154, .T. ) ;
#153 = CARTESIAN_POINT ( 'NONE',  ( -27.99999999999999645, 8.000000000000000000, 19.50000000000000000 ) ) ;
#154 = PLANE ( 'NONE',  #595 ) ;
#155 = AXIS2_PLACEMENT_3D ( 'NONE', #289, #535, #467 ) ;
#156 = LINE ( 'NONE', #647, #771 ) ;
#157 = AXIS2_PLACEMENT_3D ( 'NONE', #734, #203, #438 ) ;
#158 = CARTESIAN_POINT ( 'NONE',  ( 30.00000000000000000, 9.999999999999991118, 19.50000000000000000 ) ) ;
#159 = CIRCLE ( 'NONE', #606, 8.250000000000000000 ) ;
#160 = ADVANCED_FACE ( 'NONE', ( #651 ), #105, .T. ) ;
#161 = DIRECTION ( 'NONE',  ( -0.000000000000000000, -0.000000000000000000, 1.000000000000000000 ) ) ;
#162 = FACE_OUTER_BOUND ( 'NONE', #441, .T. ) ;
#163 = EDGE_LOOP ( 'NONE', ( #652, #175, #323, #132 ) ) ;
#164 = CARTESIAN_POINT ( 'NONE',  ( 38.00000000000000000, 0.000000000000000000, 19.50000000000000000 ) ) ;
#165 = ADVANCED_FACE ( 'NONE', ( #645 ), #231, .T. ) ;
#166 = DIRECTION ( 'NONE',  ( -0.000000000000000000, -0.000000000000000000, -1.000000000000000000 ) ) ;
#167 = ORIENTED_EDGE ( 'NONE', *, *, #701, .T. ) ;
#168 = CARTESIAN_POINT ( 'NONE',  ( 28.00000000000000000, 7.999999999999998224, -19.50000000000000000 ) ) ;
#169 = CARTESIAN_POINT ( 'NONE',  ( 30.00000000000000000, 9.999999999999991118, -19.50000000000000000 ) ) ;
#170 = AXIS2_PLACEMENT_3D ( 'NONE', #767, #724, #548 ) ;
#171 = EDGE_CURVE ( 'NONE', #568, #571, #528, .T. ) ;
#172 = CIRCLE ( 'NONE', #122, 8.250000000000000000 ) ;
#173 = CARTESIAN_POINT ( 'NONE',  ( 28.00000000000000000, 7.999999999999998224, 19.50000000000000000 ) ) ;
#174 = DIRECTION ( 'NONE',  ( 0.000000000000000000, 0.000000000000000000, -1.000000000000000000 ) ) ;
#175 = ORIENTED_EDGE ( 'NONE', *, *, #471, .T. ) ;
#176 = LINE ( 'NONE', #364, #305 ) ;
#177 = DIRECTION ( 'NONE',  ( 0.000000000000000000, 0.000000000000000000, 1.000000000000000000 ) ) ;
#178 = ORIENTED_EDGE ( 'NONE', *, *, #9, .F. ) ;
#179 = CARTESIAN_POINT ( 'NONE',  ( -38.00000000000000000, 10.00000000000003730, 19.50000000000000000 ) ) ;
#180 = FACE_OUTER_BOUND ( 'NONE', #388, .T. ) ;
#181 = ORIENTED_EDGE ( 'NONE', *, *, #440, .F. ) ;
#182 = VECTOR ( 'NONE', #290, 1000.000000000000000 ) ;
#183 = AXIS2_PLACEMENT_3D ( 'NONE', #5, #250, #107 ) ;
#184 = DIRECTION ( 'NONE',  ( 0.000000000000000000, -1.000000000000000000, 0.000000000000000000 ) ) ;
#185 = ADVANCED_FACE ( 'NONE', ( #418 ), #598, .F. ) ;
#186 = PLANE ( 'NONE',  #665 ) ;
#187 = VERTEX_POINT ( 'NONE', #374 ) ;
#188 = ORIENTED_EDGE ( 'NONE', *, *, #509, .F. ) ;
#189 = COORDINATED_UNIVERSAL_TIME_OFFSET ( 10, 0, .AHEAD. ) ;
#190 = CC_DESIGN_PERSON_AND_ORGANIZATION_ASSIGNMENT ( #75, #324, ( #560 ) ) ;
#191 = DIRECTION ( 'NONE',  ( 1.000000000000000000, 0.000000000000000000, -0.000000000000000000 ) ) ;
#192 = ORIENTED_EDGE ( 'NONE', *, *, #310, .T. ) ;
#193 = PERSON_AND_ORGANIZATION ( #387, #434 ) ;
#194 = LINE ( 'NONE', #72, #304 ) ;
#195 = ORIENTED_EDGE ( 'NONE', *, *, #425, .T. ) ;
#196 = VERTEX_POINT ( 'NONE', #63 ) ;
#197 = CLOSED_SHELL ( 'NONE', ( #555, #541, #379, #774, #735, #249, #288, #129, #152, #537, #498, #198, #54, #160, #395, #755, #35, #165, #185, #669, #451, #234, #338, #409, #29, #138 ) ) ;
#198 = ADVANCED_FACE ( 'NONE', ( #776 ), #552, .T. ) ;
#199 = EDGE_LOOP ( 'NONE', ( #433, #334, #576, #244 ) ) ;
#200 = VECTOR ( 'NONE', #781, 1000.000000000000000 ) ;
#201 = VECTOR ( 'NONE', #729, 1000.000000000000000 ) ;
#202 = PERSON_AND_ORGANIZATION ( #387, #434 ) ;
#203 = DIRECTION ( 'NONE',  ( 0.000000000000000000, 0.000000000000000000, 1.000000000000000000 ) ) ;
#204 = DIRECTION ( 'NONE',  ( 0.000000000000000000, 1.000000000000000000, 0.000000000000000000 ) ) ;
#205 = DATE_AND_TIME ( #330, #696 ) ;
#206 = ORIENTED_EDGE ( 'NONE', *, *, #361, .T. ) ;
#207 = DIRECTION ( 'NONE',  ( 1.000000000000000000, 0.000000000000000000, 0.000000000000000000 ) ) ;
#208 = EDGE_LOOP ( 'NONE', ( #4, #195, #266, #47 ) ) ;
#209 = LINE ( 'NONE', #577, #239 ) ;
#210 = EDGE_LOOP ( 'NONE', ( #106, #378, #386, #369 ) ) ;
#211 = AXIS2_PLACEMENT_3D ( 'NONE', #444, #142, #33 ) ;
#212 = VECTOR ( 'NONE', #316, 1000.000000000000000 ) ;
#213 = CARTESIAN_POINT ( 'NONE',  ( -30.00000000000000000, 55.00000000000000000, 19.50000000000000000 ) ) ;
#214 = EDGE_CURVE ( 'NONE', #568, #121, #120, .T. ) ;
#215 = LOCAL_TIME ( 15, 4, 23.00000000000000000, #380 ) ;
#216 = ORIENTED_EDGE ( 'NONE', *, *, #314, .F. ) ;
#217 = LINE ( 'NONE', #158, #584 ) ;
#218 = PRODUCT_DEFINITION_SHAPE ( 'NONE', 'NONE',  #758 ) ;
#219 = DIRECTION ( 'NONE',  ( 1.000000000000000000, 0.000000000000000000, -0.000000000000000000 ) ) ;
#220 = CARTESIAN_POINT ( 'NONE',  ( 28.00000000000000355, 0.000000000000000000, 19.50000000000000000 ) ) ;
#222 = CARTESIAN_POINT ( 'NONE',  ( -27.99999999999999645, 10.00000000000000888, -19.50000000000000000 ) ) ;
#221 = CC_DESIGN_APPROVAL ( #59, ( #560 ) ) ;
#223 = CARTESIAN_POINT ( 'NONE',  ( -30.00000000000000000, 10.00000000000001421, -19.50000000000000000 ) ) ;
#224 = EDGE_CURVE ( 'NONE', #749, #664, #68, .T. ) ;
#225 = DIRECTION ( 'NONE',  ( -1.000000000000000000, 0.000000000000000000, 0.000000000000000000 ) ) ;
#226 = CIRCLE ( 'NONE', #770, 34.68750000000000000 ) ;
#227 = CARTESIAN_POINT ( 'NONE',  ( -27.99999999999999645, 0.000000000000000000, 19.50000000000000000 ) ) ;
#228 =( GEOMETRIC_REPRESENTATION_CONTEXT ( 3 ) GLOBAL_UNCERTAINTY_ASSIGNED_CONTEXT ( ( #256 ) ) GLOBAL_UNIT_ASSIGNED_CONTEXT ( ( #479, #677, #687 ) ) REPRESENTATION_CONTEXT ( 'NONE', 'WORKASPACE' ) );
#229 = DESIGN_CONTEXT ( 'detailed design', #119, 'design' ) ;
#230 = DIRECTION ( 'NONE',  ( 1.000000000000000000, 0.000000000000000000, 0.000000000000000000 ) ) ;
#231 = PLANE ( 'NONE',  #70 ) ;
#232 = ORIENTED_EDGE ( 'NONE', *, *, #509, .T. ) ;
#233 = DIRECTION ( 'NONE',  ( 1.000000000000000000, 0.000000000000000000, 0.000000000000000000 ) ) ;
#234 = ADVANCED_FACE ( 'NONE', ( #3 ), #603, .T. ) ;
#235 = CARTESIAN_POINT ( 'NONE',  ( 38.00000000000000000, 9.999999999999991118, -19.50000000000000000 ) ) ;
#236 = AXIS2_PLACEMENT_3D ( 'NONE', #698, #42, #151 ) ;
#237 = DIRECTION ( 'NONE',  ( -1.000000000000000000, 0.000000000000000000, 0.000000000000000000 ) ) ;
#238 = AXIS2_PLACEMENT_3D ( 'NONE', #275, #513, #191 ) ;
#239 = VECTOR ( 'NONE', #381, 1000.000000000000000 ) ;
#240 = DIRECTION ( 'NONE',  ( -0.000000000000000000, -1.000000000000000000, 0.000000000000000000 ) ) ;
#241 = FACE_OUTER_BOUND ( 'NONE', #210, .T. ) ;
#242 = ORIENTED_EDGE ( 'NONE', *, *, #706, .T. ) ;
#243 = VERTEX_POINT ( 'NONE', #169 ) ;
#244 = ORIENTED_EDGE ( 'NONE', *, *, #143, .T. ) ;
#245 = PLANE ( 'NONE',  #705 ) ;
#246 = CARTESIAN_POINT ( 'NONE',  ( -38.00000000000000000, 8.000000000000000000, 19.50000000000000000 ) ) ;
#247 = ORIENTED_EDGE ( 'NONE', *, *, #254, .T. ) ;
#248 = EDGE_LOOP ( 'NONE', ( #252, #188, #614, #725 ) ) ;
#249 = ADVANCED_FACE ( 'NONE', ( #613, #180 ), #488, .T. ) ;
#250 = DIRECTION ( 'NONE',  ( -0.000000000000000000, 0.000000000000000000, -1.000000000000000000 ) ) ;
#251 = CARTESIAN_POINT ( 'NONE',  ( -27.99999999999999645, 0.000000000000000000, -19.50000000000000000 ) ) ;
#252 = ORIENTED_EDGE ( 'NONE', *, *, #567, .T. ) ;
#253 = AXIS2_PLACEMENT_3D ( 'NONE', #168, #599, #51 ) ;
#254 = EDGE_CURVE ( 'NONE', #675, #502, #397, .T. ) ;
#255 = PERSON_AND_ORGANIZATION_ROLE ( 'creator' ) ;
#256 = UNCERTAINTY_MEASURE_WITH_UNIT (LENGTH_MEASURE( 1.000000000000000082E-05 ), #479, 'distance_accuracy_value', 'NONE');
#257 = LINE ( 'NONE', #260, #572 ) ;
#258 = ORIENTED_EDGE ( 'NONE', *, *, #82, .T. ) ;
#259 = APPROVAL_DATE_TIME ( #13, #267 ) ;
#260 = CARTESIAN_POINT ( 'NONE',  ( -38.00000000000000000, 0.000000000000000000, -19.50000000000000000 ) ) ;
#261 = EDGE_CURVE ( 'NONE', #389, #313, #410, .T. ) ;
#262 = ORIENTED_EDGE ( 'NONE', *, *, #261, .T. ) ;
#263 = DIRECTION ( 'NONE',  ( 0.000000000000000000, 0.000000000000000000, -1.000000000000000000 ) ) ;
#264 = DATE_AND_TIME ( #274, #422 ) ;
#265 = DIRECTION ( 'NONE',  ( 0.000000000000000000, 1.000000000000000000, 0.000000000000000000 ) ) ;
#266 = ORIENTED_EDGE ( 'NONE', *, *, #104, .T. ) ;
#267 = APPROVAL ( #569, 'UNSPECIFIED' ) ;
#268 = VERTEX_POINT ( 'NONE', #114 ) ;
#269 = AXIS2_PLACEMENT_3D ( 'NONE', #17, #265, #505 ) ;
#270 = VECTOR ( 'NONE', #780, 1000.000000000000000 ) ;
#271 = COORDINATED_UNIVERSAL_TIME_OFFSET ( 10, 0, .AHEAD. ) ;
#272 = DIRECTION ( 'NONE',  ( 0.000000000000000000, 0.000000000000000000, 1.000000000000000000 ) ) ;
#273 = ORIENTED_EDGE ( 'NONE', *, *, #693, .F. ) ;
#274 = CALENDAR_DATE ( 2025, 17, 8 ) ;
#275 = CARTESIAN_POINT ( 'NONE',  ( 30.00000000000000000, 9.999999999999991118, 19.50000000000000000 ) ) ;
#276 = VERTEX_POINT ( 'NONE', #126 ) ;
#277 = EDGE_LOOP ( 'NONE', ( #558, #329 ) ) ;
#278 = EDGE_CURVE ( 'NONE', #749, #196, #303, .T. ) ;
#279 = FACE_OUTER_BOUND ( 'NONE', #208, .T. ) ;
#280 = ORIENTED_EDGE ( 'NONE', *, *, #115, .T. ) ;
#281 = ORIENTED_EDGE ( 'NONE', *, *, #727, .T. ) ;
#282 = VECTOR ( 'NONE', #539, 1000.000000000000000 ) ;
#283 = VECTOR ( 'NONE', #377, 1000.000000000000000 ) ;
#284 = AXIS2_PLACEMENT_3D ( 'NONE', #713, #717, #174 ) ;
#285 = FACE_OUTER_BOUND ( 'NONE', #564, .T. ) ;
#286 = CARTESIAN_POINT ( 'NONE',  ( -30.00000000000000000, 10.00000000000001421, 19.50000000000000000 ) ) ;
#287 = CARTESIAN_POINT ( 'NONE',  ( -38.00000000000000000, 10.00000000000003730, 19.50000000000000000 ) ) ;
#288 = ADVANCED_FACE ( 'NONE', ( #670, #363 ), #186, .T. ) ;
#289 = CARTESIAN_POINT ( 'NONE',  ( 38.00000000000000000, 41.34999999999999432, 0.000000000000000000 ) ) ;
#290 = DIRECTION ( 'NONE',  ( -1.000000000000000000, 2.818925648462311528E-15, 0.000000000000000000 ) ) ;
#291 = DIRECTION ( 'NONE',  ( 1.000000000000000000, 0.000000000000000000, -0.000000000000000000 ) ) ;
#292 = CC_DESIGN_DATE_AND_TIME_ASSIGNMENT ( #205, #497, ( #758 ) ) ;
#293 = AXIS2_PLACEMENT_3D ( 'NONE', #648, #405, #769 ) ;
#294 = CARTESIAN_POINT ( 'NONE',  ( -30.00000000000000000, 41.34999999999999432, 0.000000000000000000 ) ) ;
#295 = AXIS2_PLACEMENT_3D ( 'NONE', #287, #580, #763 ) ;
#296 = CARTESIAN_POINT ( 'NONE',  ( 30.00000000000000000, 9.999999999999991118, 19.50000000000000000 ) ) ;
#297 = CARTESIAN_POINT ( 'NONE',  ( -38.00000000000000000, 8.000000000000000000, -19.50000000000000000 ) ) ;
#298 = LINE ( 'NONE', #286, #282 ) ;
#299 = CC_DESIGN_PERSON_AND_ORGANIZATION_ASSIGNMENT ( #622, #255, ( #758 ) ) ;
#300 = CARTESIAN_POINT ( 'NONE',  ( -30.00000000000000000, 55.00000000000000000, -19.50000000000000000 ) ) ;
#301 = CARTESIAN_POINT ( 'NONE',  ( -38.00000000000000000, 26.31249999999999645, 0.000000000000000000 ) ) ;
#302 = CARTESIAN_POINT ( 'NONE',  ( -38.00000000000000000, 55.00000000000000000, 19.49999999999999645 ) ) ;
#303 = LINE ( 'NONE', #609, #56 ) ;
#304 = VECTOR ( 'NONE', #745, 1000.000000000000000 ) ;
#305 = VECTOR ( 'NONE', #118, 1000.000000000000000 ) ;
#306 = LINE ( 'NONE', #602, #100 ) ;
#307 = CARTESIAN_POINT ( 'NONE',  ( -38.00000000000000000, 55.00000000000000000, -19.50000000000000000 ) ) ;
#308 = ORIENTED_EDGE ( 'NONE', *, *, #567, .F. ) ;
#309 = ORIENTED_EDGE ( 'NONE', *, *, #740, .F. ) ;
#310 = EDGE_CURVE ( 'NONE', #187, #389, #545, .T. ) ;
#311 = FACE_OUTER_BOUND ( 'NONE', #737, .T. ) ;
#312 = DIRECTION ( 'NONE',  ( -0.000000000000000000, -0.000000000000000000, 1.000000000000000000 ) ) ;
#313 = VERTEX_POINT ( 'NONE', #235 ) ;
#314 = EDGE_CURVE ( 'NONE', #276, #449, #662, .T. ) ;
#315 = DIRECTION ( 'NONE',  ( 1.000000000000000000, 0.000000000000000000, 0.000000000000000000 ) ) ;
#316 = DIRECTION ( 'NONE',  ( 1.000000000000000000, -0.000000000000000000, -0.000000000000000000 ) ) ;
#317 = ORIENTED_EDGE ( 'NONE', *, *, #406, .F. ) ;
#318 = AXIS2_PLACEMENT_3D ( 'NONE', #430, #731, #421 ) ;
#319 = CC_DESIGN_APPROVAL ( #267, ( #758 ) ) ;
#320 = EDGE_CURVE ( 'NONE', #382, #636, #172, .T. ) ;
#321 = DIRECTION ( 'NONE',  ( -0.000000000000000000, -0.000000000000000000, -1.000000000000000000 ) ) ;
#322 = ORIENTED_EDGE ( 'NONE', *, *, #24, .F. ) ;
#323 = ORIENTED_EDGE ( 'NONE', *, *, #740, .T. ) ;
#324 = PERSON_AND_ORGANIZATION_ROLE ( 'classification_officer' ) ;
#325 = EDGE_CURVE ( 'NONE', #431, #64, #619, .T. ) ;
#326 = ORIENTED_EDGE ( 'NONE', *, *, #481, .F. ) ;
#327 = DIRECTION ( 'NONE',  ( 1.000000000000000000, -0.000000000000000000, -0.000000000000000000 ) ) ;
#328 = EDGE_LOOP ( 'NONE', ( #77, #403, #43, #384 ) ) ;
#329 = ORIENTED_EDGE ( 'NONE', *, *, #320, .F. ) ;
#330 = CALENDAR_DATE ( 2025, 17, 8 ) ;
#331 = DIRECTION ( 'NONE',  ( 1.000000000000000000, 0.000000000000000000, 0.000000000000000000 ) ) ;
#332 = ORIENTED_EDGE ( 'NONE', *, *, #590, .T. ) ;
#333 = CARTESIAN_POINT ( 'NONE',  ( -30.00000000000000000, 41.34999999999999432, 8.250000000000000000 ) ) ;
#334 = ORIENTED_EDGE ( 'NONE', *, *, #352, .F. ) ;
#335 = AXIS2_PLACEMENT_3D ( 'NONE', #626, #67, #315 ) ;
#336 = DIRECTION ( 'NONE',  ( 1.000000000000000000, -0.000000000000000000, -0.000000000000000000 ) ) ;
#337 = CARTESIAN_POINT ( 'NONE',  ( 38.00000000000000000, 41.34999999999999432, -8.250000000000000000 ) ) ;
#338 = ADVANCED_FACE ( 'NONE', ( #241 ), #658, .T. ) ;
#339 = DIRECTION ( 'NONE',  ( 1.000000000000000000, -0.000000000000000000, -0.000000000000000000 ) ) ;
#340 = ORIENTED_EDGE ( 'NONE', *, *, #722, .F. ) ;
#341 = ORIENTED_EDGE ( 'NONE', *, *, #437, .T. ) ;
#342 = EDGE_CURVE ( 'NONE', #675, #720, #607, .T. ) ;
#343 = LINE ( 'NONE', #164, #728 ) ;
#344 = CARTESIAN_POINT ( 'NONE',  ( 28.00000000000000000, 9.999999999999998224, -19.50000000000000000 ) ) ;
#345 = AXIS2_PLACEMENT_3D ( 'NONE', #45, #703, #50 ) ;
#346 = AXIS2_PLACEMENT_3D ( 'NONE', #365, #55, #6 ) ;
#347 = EDGE_CURVE ( 'NONE', #514, #313, #194, .T. ) ;
#348 = CIRCLE ( 'NONE', #779, 2.000000000000001776 ) ;
#349 = DIRECTION ( 'NONE',  ( 0.000000000000000000, 0.000000000000000000, 1.000000000000000000 ) ) ;
#350 = CYLINDRICAL_SURFACE ( 'NONE', #293, 8.250000000000000000 ) ;
#351 = CYLINDRICAL_SURFACE ( 'NONE', #22, 8.250000000000000000 ) ;
#352 = EDGE_CURVE ( 'NONE', #736, #389, #557, .T. ) ;
#353 = CARTESIAN_POINT ( 'NONE',  ( 28.00000000000000000, 7.999999999999998224, 19.50000000000000000 ) ) ;
#354 = DIRECTION ( 'NONE',  ( 1.000000000000000000, 0.000000000000000000, 0.000000000000000000 ) ) ;
#355 = DIRECTION ( 'NONE',  ( 1.000000000000000000, 0.000000000000000000, 0.000000000000000000 ) ) ;
#356 = ORIENTED_EDGE ( 'NONE', *, *, #425, .F. ) ;
#357 = AXIS2_PLACEMENT_3D ( 'NONE', #220, #593, #408 ) ;
#358 = DIRECTION ( 'NONE',  ( -0.000000000000000000, 1.000000000000000000, 0.000000000000000000 ) ) ;
#359 = PLANE ( 'NONE',  #34 ) ;
#360 = PRODUCT_DEFINITION_FORMATION_WITH_SPECIFIED_SOURCE ( 'ANY', '', #66, .NOT_KNOWN. ) ;
#361 = EDGE_CURVE ( 'NONE', #196, #720, #399, .T. ) ;
#362 = LINE ( 'NONE', #297, #573 ) ;
#363 = FACE_OUTER_BOUND ( 'NONE', #522, .T. ) ;
#364 = CARTESIAN_POINT ( 'NONE',  ( -38.00000000000000000, 55.00000000000000000, 19.50000000000000000 ) ) ;
#365 = CARTESIAN_POINT ( 'NONE',  ( 30.00000000000000000, 0.000000000000000000, 19.50000000000000000 ) ) ;
#366 = LINE ( 'NONE', #657, #494 ) ;
#367 = EDGE_CURVE ( 'NONE', #736, #121, #209, .T. ) ;
#368 = DIRECTION ( 'NONE',  ( 1.000000000000000000, 0.000000000000000000, -0.000000000000000000 ) ) ;
#369 = ORIENTED_EDGE ( 'NONE', *, *, #471, .F. ) ;
#370 = AXIS2_PLACEMENT_3D ( 'NONE', #756, #331, #570 ) ;
#371 = VECTOR ( 'NONE', #358, 1000.000000000000000 ) ;
#372 = DIRECTION ( 'NONE',  ( -1.000000000000000000, 0.000000000000000000, 0.000000000000000000 ) ) ;
#373 = CC_DESIGN_DATE_AND_TIME_ASSIGNMENT ( #264, #743, ( #560 ) ) ;
#374 = CARTESIAN_POINT ( 'NONE',  ( 28.00000000000000000, 7.999999999999998224, -19.50000000000000000 ) ) ;
#375 = ORIENTED_EDGE ( 'NONE', *, *, #594, .F. ) ;
#376 = APPROVAL_STATUS ( 'not_yet_approved' ) ;
#377 = DIRECTION ( 'NONE',  ( 1.000000000000000000, 0.000000000000000000, 0.000000000000000000 ) ) ;
#378 = ORIENTED_EDGE ( 'NONE', *, *, #278, .T. ) ;
#379 = ADVANCED_FACE ( 'NONE', ( #87 ), #443, .T. ) ;
#380 = COORDINATED_UNIVERSAL_TIME_OFFSET ( 10, 0, .AHEAD. ) ;
#381 = DIRECTION ( 'NONE',  ( -4.336808689942018722E-16, 1.000000000000000000, 0.000000000000000000 ) ) ;
#382 = VERTEX_POINT ( 'NONE', #678 ) ;
#383 = EDGE_LOOP ( 'NONE', ( #753, #680, #74, #672 ) ) ;
#384 = ORIENTED_EDGE ( 'NONE', *, *, #109, .T. ) ;
#385 = CARTESIAN_POINT ( 'NONE',  ( 30.00000000000000711, 26.31249999999999645, 0.000000000000000000 ) ) ;
#386 = ORIENTED_EDGE ( 'NONE', *, *, #428, .T. ) ;
#387 = PERSON ( 'UNSPECIFIED', 'UNSPECIFIED', 'UNSPECIFIED', ('UNSPECIFIED'), ('UNSPECIFIED'), ('UNSPECIFIED') ) ;
#388 = EDGE_LOOP ( 'NONE', ( #131, #455, #326, #671 ) ) ;
#389 = VERTEX_POINT ( 'NONE', #135 ) ;
#390 = CALENDAR_DATE ( 2025, 17, 8 ) ;
#391 = DIRECTION ( 'NONE',  ( 0.000000000000000000, 0.000000000000000000, -1.000000000000000000 ) ) ;
#392 = ORIENTED_EDGE ( 'NONE', *, *, #764, .F. ) ;
#393 = PERSON_AND_ORGANIZATION ( #387, #434 ) ;
#394 = CARTESIAN_POINT ( 'NONE',  ( -38.00000000000000000, 41.34999999999999432, -8.250000000000000000 ) ) ;
#395 = ADVANCED_FACE ( 'NONE', ( #631 ), #674, .T. ) ;
#396 = ORIENTED_EDGE ( 'NONE', *, *, #104, .F. ) ;
#397 = CIRCLE ( 'NONE', #318, 10.00000000000000178 ) ;
#398 = CIRCLE ( 'NONE', #510, 10.00000000000000178 ) ;
#399 = LINE ( 'NONE', #14, #508 ) ;
#400 = EDGE_CURVE ( 'NONE', #563, #389, #257, .T. ) ;
#401 = FACE_OUTER_BOUND ( 'NONE', #37, .T. ) ;
#402 = DIRECTION ( 'NONE',  ( 1.000000000000000000, -0.000000000000000000, -0.000000000000000000 ) ) ;
#403 = ORIENTED_EDGE ( 'NONE', *, *, #706, .F. ) ;
#404 = ORIENTED_EDGE ( 'NONE', *, *, #400, .F. ) ;
#405 = DIRECTION ( 'NONE',  ( 1.000000000000000000, -0.000000000000000000, -0.000000000000000000 ) ) ;
#406 = EDGE_CURVE ( 'NONE', #431, #137, #130, .T. ) ;
#407 = CARTESIAN_POINT ( 'NONE',  ( -27.99999999999999645, 8.000000000000000000, -19.50000000000000000 ) ) ;
#408 = DIRECTION ( 'NONE',  ( 1.000000000000000000, 0.000000000000000000, -0.000000000000000000 ) ) ;
#409 = ADVANCED_FACE ( 'NONE', ( #81 ), #566, .T. ) ;
#410 = CIRCLE ( 'NONE', #420, 9.999999999999998224 ) ;
#411 = VECTOR ( 'NONE', #435, 1000.000000000000000 ) ;
#412 = DIRECTION ( 'NONE',  ( 1.000000000000000000, -0.000000000000000000, -0.000000000000000000 ) ) ;
#413 = DIRECTION ( 'NONE',  ( -1.000000000000000000, 0.000000000000000000, 0.000000000000000000 ) ) ;
#414 = FACE_OUTER_BOUND ( 'NONE', #79, .T. ) ;
#415 = DIRECTION ( 'NONE',  ( -0.000000000000000000, -0.000000000000000000, -1.000000000000000000 ) ) ;
#416 = FACE_OUTER_BOUND ( 'NONE', #515, .T. ) ;
#417 = EDGE_CURVE ( 'NONE', #749, #492, #543, .T. ) ;
#418 = FACE_OUTER_BOUND ( 'NONE', #518, .T. ) ;
#419 = DIRECTION ( 'NONE',  ( 1.000000000000000000, -0.000000000000000000, -0.000000000000000000 ) ) ;
#420 = AXIS2_PLACEMENT_3D ( 'NONE', #491, #312, #667 ) ;
#421 = DIRECTION ( 'NONE',  ( -1.000000000000000000, 0.000000000000000000, 0.000000000000000000 ) ) ;
#422 = LOCAL_TIME ( 15, 4, 23.00000000000000000, #611 ) ;
#423 = DIRECTION ( 'NONE',  ( 1.000000000000000000, -0.000000000000000000, -0.000000000000000000 ) ) ;
#424 = DIRECTION ( 'NONE',  ( 1.000000000000000000, -0.000000000000000000, -0.000000000000000000 ) ) ;
#425 = EDGE_CURVE ( 'NONE', #382, #625, #91, .T. ) ;
#426 = CARTESIAN_POINT ( 'NONE',  ( -30.00000000000000000, 10.00000000000001421, -19.50000000000000000 ) ) ;
#427 = DIRECTION ( 'NONE',  ( -0.000000000000000000, -0.000000000000000000, -1.000000000000000000 ) ) ;
#428 = EDGE_CURVE ( 'NONE', #196, #655, #604, .T. ) ;
#429 = DIRECTION ( 'NONE',  ( 0.000000000000000000, 0.000000000000000000, 1.000000000000000000 ) ) ;
#430 = CARTESIAN_POINT ( 'NONE',  ( -27.99999999999999645, 10.00000000000000888, 19.50000000000000000 ) ) ;
#431 = VERTEX_POINT ( 'NONE', #692 ) ;
#432 = AXIS2_PLACEMENT_3D ( 'NONE', #21, #272, #207 ) ;
#433 = ORIENTED_EDGE ( 'NONE', *, *, #400, .T. ) ;
#434 = ORGANIZATION ( 'UNSPECIFIED', 'UNSPECIFIED', '' ) ;
#435 = DIRECTION ( 'NONE',  ( -0.000000000000000000, -0.000000000000000000, -1.000000000000000000 ) ) ;
#436 = CARTESIAN_POINT ( 'NONE',  ( -30.00000000000000000, 61.00000000000000000, 19.50000000000000000 ) ) ;
#437 = EDGE_CURVE ( 'NONE', #78, #514, #562, .T. ) ;
#438 = DIRECTION ( 'NONE',  ( 1.000000000000000000, 0.000000000000000000, -0.000000000000000000 ) ) ;
#439 = ORIENTED_EDGE ( 'NONE', *, *, #214, .T. ) ;
#440 = EDGE_CURVE ( 'NONE', #629, #276, #226, .T. ) ;
#441 = EDGE_LOOP ( 'NONE', ( #356, #721, #65, #546 ) ) ;
#442 = CIRCLE ( 'NONE', #644, 1.999999999999998224 ) ;
#443 = PLANE ( 'NONE',  #157 ) ;
#444 = CARTESIAN_POINT ( 'NONE',  ( -38.00000000000000000, 41.34999999999999432, 0.000000000000000000 ) ) ;
#445 = EDGE_LOOP ( 'NONE', ( #531, #27, #641, #136 ) ) ;
#446 = VECTOR ( 'NONE', #419, 1000.000000000000000 ) ;
#447 = APPROVAL_STATUS ( 'not_yet_approved' ) ;
#448 = CARTESIAN_POINT ( 'NONE',  ( -30.00000000000000000, 26.31249999999999645, 0.000000000000000000 ) ) ;
#449 = VERTEX_POINT ( 'NONE', #739 ) ;
#450 = ORIENTED_EDGE ( 'NONE', *, *, #261, .F. ) ;
#451 = ADVANCED_FACE ( 'NONE', ( #623 ), #76, .F. ) ;
#452 = PERSON_AND_ORGANIZATION ( #387, #434 ) ;
#453 = LINE ( 'NONE', #688, #533 ) ;
#454 = ORIENTED_EDGE ( 'NONE', *, *, #314, .T. ) ;
#455 = ORIENTED_EDGE ( 'NONE', *, *, #440, .T. ) ;
#456 = DIRECTION ( 'NONE',  ( -0.000000000000000000, -0.000000000000000000, -1.000000000000000000 ) ) ;
#457 = ORIENTED_EDGE ( 'NONE', *, *, #367, .T. ) ;
#458 = CIRCLE ( 'NONE', #110, 8.250000000000000000 ) ;
#459 = LOCAL_TIME ( 15, 4, 23.00000000000000000, #189 ) ;
#460 = DIRECTION ( 'NONE',  ( 0.000000000000000000, 0.000000000000000000, -1.000000000000000000 ) ) ;
#461 = ORIENTED_EDGE ( 'NONE', *, *, #621, .F. ) ;
#462 = FACE_OUTER_BOUND ( 'NONE', #69, .T. ) ;
#463 = CYLINDRICAL_SURFACE ( 'NONE', #730, 8.250000000000000000 ) ;
#464 = DIRECTION ( 'NONE',  ( -0.000000000000000000, 0.000000000000000000, -1.000000000000000000 ) ) ;
#465 = EDGE_CURVE ( 'NONE', #121, #78, #704, .T. ) ;
#466 = DIRECTION ( 'NONE',  ( 0.000000000000000000, 0.000000000000000000, 1.000000000000000000 ) ) ;
#467 = DIRECTION ( 'NONE',  ( 0.000000000000000000, 0.000000000000000000, -1.000000000000000000 ) ) ;
#468 = VECTOR ( 'NONE', #184, 1000.000000000000000 ) ;
#469 = DIRECTION ( 'NONE',  ( 0.000000000000000000, 1.000000000000000000, 0.000000000000000000 ) ) ;
#470 = CARTESIAN_POINT ( 'NONE',  ( -38.00000000000000000, 41.34999999999999432, 8.250000000000000000 ) ) ;
#471 = EDGE_CURVE ( 'NONE', #492, #655, #453, .T. ) ;
#472 = LINE ( 'NONE', #709, #371 ) ;
#473 = DIRECTION ( 'NONE',  ( 0.000000000000000000, 0.000000000000000000, 1.000000000000000000 ) ) ;
#474 = FACE_OUTER_BOUND ( 'NONE', #726, .T. ) ;
#475 = EDGE_CURVE ( 'NONE', #664, #720, #36, .T. ) ;
#476 = DIRECTION ( 'NONE',  ( -1.000000000000000000, -0.000000000000000000, 0.000000000000000000 ) ) ;
#477 = AXIS2_PLACEMENT_3D ( 'NONE', #102, #654, #473 ) ;
#478 = VECTOR ( 'NONE', #204, 1000.000000000000000 ) ;
#479 =( LENGTH_UNIT ( ) NAMED_UNIT ( * ) SI_UNIT ( .MILLI., .METRE. ) );
#480 = CARTESIAN_POINT ( 'NONE',  ( -30.00000000000000000, 61.00000000000000000, -19.50000000000000000 ) ) ;
#481 = EDGE_CURVE ( 'NONE', #243, #276, #524, .T. ) ;
#482 = FACE_OUTER_BOUND ( 'NONE', #757, .T. ) ;
#483 = DIRECTION ( 'NONE',  ( 0.000000000000000000, 0.000000000000000000, -1.000000000000000000 ) ) ;
#484 = ORIENTED_EDGE ( 'NONE', *, *, #325, .T. ) ;
#485 = ORIENTED_EDGE ( 'NONE', *, *, #352, .T. ) ;
#486 = APPROVAL ( #376, 'UNSPECIFIED' ) ;
#487 = CARTESIAN_POINT ( 'NONE',  ( 38.00000000000000000, 0.000000000000000000, 19.50000000000000000 ) ) ;
#488 = PLANE ( 'NONE',  #346 ) ;
#489 = EDGE_LOOP ( 'NONE', ( #262, #690, #340, #485 ) ) ;
#490 = LINE ( 'NONE', #666, #468 ) ;
#491 = CARTESIAN_POINT ( 'NONE',  ( 28.00000000000000000, 9.999999999999998224, -19.50000000000000000 ) ) ;
#492 = VERTEX_POINT ( 'NONE', #213 ) ;
#493 = CIRCLE ( 'NONE', #147, 8.250000000000000000 ) ;
#494 = VECTOR ( 'NONE', #240, 1000.000000000000000 ) ;
#495 = ORIENTED_EDGE ( 'NONE', *, *, #590, .F. ) ;
#496 = ORIENTED_EDGE ( 'NONE', *, *, #601, .T. ) ;
#497 = DATE_TIME_ROLE ( 'creation_date' ) ;
#498 = ADVANCED_FACE ( 'NONE', ( #414 ), #103, .T. ) ;
#499 = DIRECTION ( 'NONE',  ( 1.000000000000000000, -0.000000000000000000, -0.000000000000000000 ) ) ;
#500 = CARTESIAN_POINT ( 'NONE',  ( 30.00000000000000000, 9.999999999999991118, 19.50000000000000000 ) ) ;
#501 = CC_DESIGN_SECURITY_CLASSIFICATION ( #560, ( #360 ) ) ;
#502 = VERTEX_POINT ( 'NONE', #101 ) ;
#503 = APPLICATION_PROTOCOL_DEFINITION ( 'international standard', 'config_control_design', 1994, #762 ) ;
#504 = VECTOR ( 'NONE', #90, 1000.000000000000000 ) ;
#505 = DIRECTION ( 'NONE',  ( 0.000000000000000000, -0.000000000000000000, 1.000000000000000000 ) ) ;
#506 = VECTOR ( 'NONE', #52, 1000.000000000000000 ) ;
#507 = ORIENTED_EDGE ( 'NONE', *, *, #224, .T. ) ;
#508 = VECTOR ( 'NONE', #683, 1000.000000000000000 ) ;
#509 = EDGE_CURVE ( 'NONE', #514, #268, #343, .T. ) ;
#510 = AXIS2_PLACEMENT_3D ( 'NONE', #643, #161, #225 ) ;
#511 = ORIENTED_EDGE ( 'NONE', *, *, #520, .T. ) ;
#512 = APPROVAL_DATE_TIME ( #19, #59 ) ;
#513 = DIRECTION ( 'NONE',  ( 0.000000000000000000, 0.000000000000000000, 1.000000000000000000 ) ) ;
#514 = VERTEX_POINT ( 'NONE', #31 ) ;
#515 = EDGE_LOOP ( 'NONE', ( #550, #507, #686, #523 ) ) ;
#516 = SHAPE_DEFINITION_REPRESENTATION ( #218, #124 ) ;
#517 = DIRECTION ( 'NONE',  ( 0.000000000000000000, 0.000000000000000000, -1.000000000000000000 ) ) ;
#518 = EDGE_LOOP ( 'NONE', ( #375, #83, #332, #615 ) ) ;
#519 = CARTESIAN_POINT ( 'NONE',  ( 38.00000000000000000, 0.000000000000000000, -19.50000000000000000 ) ) ;
#520 = EDGE_CURVE ( 'NONE', #30, #137, #458, .T. ) ;
#521 = DIRECTION ( 'NONE',  ( 0.000000000000000000, 0.000000000000000000, -1.000000000000000000 ) ) ;
#522 = EDGE_LOOP ( 'NONE', ( #111, #747, #639, #258 ) ) ;
#523 = ORIENTED_EDGE ( 'NONE', *, *, #361, .F. ) ;
#524 = LINE ( 'NONE', #592, #633 ) ;
#525 = ORIENTED_EDGE ( 'NONE', *, *, #254, .F. ) ;
#526 = CARTESIAN_POINT ( 'NONE',  ( 28.00000000000000000, 9.999999999999998224, 19.50000000000000000 ) ) ;
#527 = DIRECTION ( 'NONE',  ( 0.000000000000000000, 0.000000000000000000, -1.000000000000000000 ) ) ;
#528 = LINE ( 'NONE', #108, #556 ) ;
#529 = DIRECTION ( 'NONE',  ( 1.000000000000000000, 0.000000000000000000, 0.000000000000000000 ) ) ;
#530 = DIRECTION ( 'NONE',  ( 0.000000000000000000, 0.000000000000000000, 1.000000000000000000 ) ) ;
#531 = ORIENTED_EDGE ( 'NONE', *, *, #367, .F. ) ;
#532 = EDGE_CURVE ( 'NONE', #137, #30, #493, .T. ) ;
#533 = VECTOR ( 'NONE', #144, 1000.000000000000000 ) ;
#534 = LINE ( 'NONE', #772, #48 ) ;
#535 = DIRECTION ( 'NONE',  ( 1.000000000000000000, 0.000000000000000000, 0.000000000000000000 ) ) ;
#536 = EDGE_LOOP ( 'NONE', ( #484, #496 ) ) ;
#537 = ADVANCED_FACE ( 'NONE', ( #416 ), #766, .F. ) ;
#538 = CARTESIAN_POINT ( 'NONE',  ( 30.00000000000000711, 41.34999999999999432, -8.250000000000000000 ) ) ;
#539 = DIRECTION ( 'NONE',  ( -0.000000000000000000, -0.000000000000000000, -1.000000000000000000 ) ) ;
#540 = CARTESIAN_POINT ( 'NONE',  ( -38.00000000000000000, 10.00000000000003730, -19.50000000000000000 ) ) ;
#541 = ADVANCED_FACE ( 'NONE', ( #285 ), #463, .F. ) ;
#542 = CARTESIAN_POINT ( 'NONE',  ( 28.00000000000000000, 9.999999999999998224, 19.50000000000000000 ) ) ;
#543 = CIRCLE ( 'NONE', #98, 34.68750000000000000 ) ;
#544 = DIRECTION ( 'NONE',  ( -1.000000000000000000, 0.000000000000000000, 0.000000000000000000 ) ) ;
#545 = LINE ( 'NONE', #600, #200 ) ;
#546 = ORIENTED_EDGE ( 'NONE', *, *, #9, .T. ) ;
#547 = FACE_BOUND ( 'NONE', #581, .T. ) ;
#548 = DIRECTION ( 'NONE',  ( -1.000000000000000000, 0.000000000000000000, 0.000000000000000000 ) ) ;
#549 = ORIENTED_EDGE ( 'NONE', *, *, #481, .T. ) ;
#550 = ORIENTED_EDGE ( 'NONE', *, *, #278, .F. ) ;
#551 = PLANE ( 'NONE',  #183 ) ;
#552 = PLANE ( 'NONE',  #617 ) ;
#553 = ORIENTED_EDGE ( 'NONE', *, *, #579, .T. ) ;
#554 = ORIENTED_EDGE ( 'NONE', *, *, #171, .F. ) ;
#555 = ADVANCED_FACE ( 'NONE', ( #279 ), #351, .F. ) ;
#556 = VECTOR ( 'NONE', #166, 1000.000000000000000 ) ;
#557 = LINE ( 'NONE', #12, #586 ) ;
#558 = ORIENTED_EDGE ( 'NONE', *, *, #94, .F. ) ;
#559 = EDGE_LOOP ( 'NONE', ( #181, #748, #308, #216 ) ) ;
#560 = SECURITY_CLASSIFICATION ( '', '', #673 ) ;
#561 = PERSON_AND_ORGANIZATION_ROLE ( 'design_owner' ) ;
#562 = LINE ( 'NONE', #500, #679 ) ;
#563 = VERTEX_POINT ( 'NONE', #759 ) ;
#564 = EDGE_LOOP ( 'NONE', ( #711, #281, #511, #317 ) ) ;
#565 = MECHANICAL_CONTEXT ( 'NONE', #762, 'mechanical' ) ;
#566 = CYLINDRICAL_SURFACE ( 'NONE', #778, 34.68750000000000000 ) ;
#567 = EDGE_CURVE ( 'NONE', #449, #268, #57, .T. ) ;
#568 = VERTEX_POINT ( 'NONE', #153 ) ;
#569 = APPROVAL_STATUS ( 'not_yet_approved' ) ;
#570 = DIRECTION ( 'NONE',  ( 0.000000000000000000, 0.000000000000000000, -1.000000000000000000 ) ) ;
#571 = VERTEX_POINT ( 'NONE', #407 ) ;
#572 = VECTOR ( 'NONE', #140, 1000.000000000000000 ) ;
#573 = VECTOR ( 'NONE', #233, 1000.000000000000000 ) ;
#574 = ORIENTED_EDGE ( 'NONE', *, *, #532, .F. ) ;
#575 = COORDINATED_UNIVERSAL_TIME_OFFSET ( 10, 0, .AHEAD. ) ;
#576 = ORIENTED_EDGE ( 'NONE', *, *, #616, .F. ) ;
#577 = CARTESIAN_POINT ( 'NONE',  ( 28.00000000000000355, 0.000000000000000000, 19.50000000000000000 ) ) ;
#578 = ORIENTED_EDGE ( 'NONE', *, *, #342, .T. ) ;
#579 = EDGE_CURVE ( 'NONE', #720, #563, #398, .T. ) ;
#580 = DIRECTION ( 'NONE',  ( 0.000000000000000000, 0.000000000000000000, 1.000000000000000000 ) ) ;
#581 = EDGE_LOOP ( 'NONE', ( #178, #396 ) ) ;
#582 = ORIENTED_EDGE ( 'NONE', *, *, #214, .F. ) ;
#583 = DIRECTION ( 'NONE',  ( 0.000000000000000000, 1.000000000000000000, 0.000000000000000000 ) ) ;
#584 = VECTOR ( 'NONE', #96, 1000.000000000000000 ) ;
#585 = CARTESIAN_POINT ( 'NONE',  ( -30.00000000000000000, 41.34999999999999432, -8.250000000000000000 ) ) ;
#586 = VECTOR ( 'NONE', #321, 1000.000000000000000 ) ;
#587 = DIRECTION ( 'NONE',  ( 1.000000000000000000, -0.000000000000000000, -0.000000000000000000 ) ) ;
#588 = CARTESIAN_POINT ( 'NONE',  ( -38.00000000000000000, 8.000000000000000000, 19.50000000000000000 ) ) ;
#589 = CARTESIAN_POINT ( 'NONE',  ( -38.00000000000000000, 41.34999999999999432, 0.000000000000000000 ) ) ;
#590 = EDGE_CURVE ( 'NONE', #145, #568, #348, .T. ) ;
#591 = CARTESIAN_POINT ( 'NONE',  ( -30.00000000000000000, 10.00000000000001421, 19.50000000000000000 ) ) ;
#592 = CARTESIAN_POINT ( 'NONE',  ( 30.00000000000000000, 0.000000000000000000, -19.50000000000000000 ) ) ;
#593 = DIRECTION ( 'NONE',  ( 0.000000000000000000, 0.000000000000000000, 1.000000000000000000 ) ) ;
#594 = EDGE_CURVE ( 'NONE', #664, #571, #88, .T. ) ;
#595 = AXIS2_PLACEMENT_3D ( 'NONE', #526, #765, #291 ) ;
#596 = AXIS2_PLACEMENT_3D ( 'NONE', #697, #653, #219 ) ;
#597 = CARTESIAN_POINT ( 'NONE',  ( 38.00000000000000000, 41.34999999999999432, 8.250000000000000000 ) ) ;
#598 = CYLINDRICAL_SURFACE ( 'NONE', #170, 2.000000000000001776 ) ;
#599 = DIRECTION ( 'NONE',  ( -0.000000000000000000, 0.000000000000000000, -1.000000000000000000 ) ) ;
#600 = CARTESIAN_POINT ( 'NONE',  ( 28.00000000000000000, 7.999999999999998224, -19.50000000000000000 ) ) ;
#601 = EDGE_CURVE ( 'NONE', #64, #431, #159, .T. ) ;
#602 = CARTESIAN_POINT ( 'NONE',  ( -38.00000000000000000, 41.34999999999999432, 8.250000000000000000 ) ) ;
#603 = CYLINDRICAL_SURFACE ( 'NONE', #744, 9.999999999999998224 ) ;
#604 = CIRCLE ( 'NONE', #370, 34.68750000000000000 ) ;
#605 = CARTESIAN_POINT ( 'NONE',  ( 28.00000000000000000, 9.999999999999998224, 19.50000000000000000 ) ) ;
#606 = AXIS2_PLACEMENT_3D ( 'NONE', #768, #354, #702 ) ;
#607 = LINE ( 'NONE', #660, #134 ) ;
#608 = DIRECTION ( 'NONE',  ( -0.000000000000000000, -0.000000000000000000, 1.000000000000000000 ) ) ;
#609 = CARTESIAN_POINT ( 'NONE',  ( -38.00000000000000000, 55.00000000000000000, -19.50000000000000000 ) ) ;
#610 = EDGE_CURVE ( 'NONE', #563, #571, #156, .T. ) ;
#611 = COORDINATED_UNIVERSAL_TIME_OFFSET ( 10, 0, .AHEAD. ) ;
#612 = LOCAL_TIME ( 15, 4, 23.00000000000000000, #271 ) ;
#613 = FACE_BOUND ( 'NONE', #277, .T. ) ;
#614 = ORIENTED_EDGE ( 'NONE', *, *, #347, .T. ) ;
#615 = ORIENTED_EDGE ( 'NONE', *, *, #171, .T. ) ;
#616 = EDGE_CURVE ( 'NONE', #502, #736, #534, .T. ) ;
#617 = AXIS2_PLACEMENT_3D ( 'NONE', #251, #117, #719 ) ;
#618 = CARTESIAN_POINT ( 'NONE',  ( -38.00000000000000000, 41.34999999999999432, 8.250000000000000000 ) ) ;
#619 = CIRCLE ( 'NONE', #284, 8.250000000000000000 ) ;
#620 = EDGE_LOOP ( 'NONE', ( #574, #93 ) ) ;
#621 = EDGE_CURVE ( 'NONE', #78, #629, #472, .T. ) ;
#622 = PERSON_AND_ORGANIZATION ( #387, #434 ) ;
#623 = FACE_OUTER_BOUND ( 'NONE', #199, .T. ) ;
#624 = ORIENTED_EDGE ( 'NONE', *, *, #610, .T. ) ;
#625 = VERTEX_POINT ( 'NONE', #597 ) ;
#626 = CARTESIAN_POINT ( 'NONE',  ( 0.000000000000000000, 0.000000000000000000, 0.000000000000000000 ) ) ;
#627 = PRODUCT_RELATED_PRODUCT_CATEGORY ( 'detail', '', ( #66 ) ) ;
#628 = DIRECTION ( 'NONE',  ( 1.000000000000000000, -0.000000000000000000, -0.000000000000000000 ) ) ;
#629 = VERTEX_POINT ( 'NONE', #716 ) ;
#630 = PERSON_AND_ORGANIZATION_ROLE ( 'design_supplier' ) ;
#631 = FACE_OUTER_BOUND ( 'NONE', #73, .T. ) ;
#632 = CARTESIAN_POINT ( 'NONE',  ( -38.00000000000000000, 10.00000000000003730, 19.50000000000000000 ) ) ;
#633 = VECTOR ( 'NONE', #39, 1000.000000000000000 ) ;
#634 = AXIS2_PLACEMENT_3D ( 'NONE', #699, #150, #640 ) ;
#635 = DIRECTION ( 'NONE',  ( 0.000000000000000000, 0.000000000000000000, 1.000000000000000000 ) ) ;
#636 = VERTEX_POINT ( 'NONE', #538 ) ;
#637 = LINE ( 'NONE', #632, #504 ) ;
#638 = EDGE_CURVE ( 'NONE', #636, #23, #49, .T. ) ;
#639 = ORIENTED_EDGE ( 'NONE', *, *, #646, .T. ) ;
#640 = DIRECTION ( 'NONE',  ( 0.000000000000000000, 0.000000000000000000, -1.000000000000000000 ) ) ;
#641 = ORIENTED_EDGE ( 'NONE', *, *, #437, .F. ) ;
#642 = PLANE ( 'NONE',  #236 ) ;
#643 = CARTESIAN_POINT ( 'NONE',  ( -27.99999999999999645, 10.00000000000000888, -19.50000000000000000 ) ) ;
#644 = AXIS2_PLACEMENT_3D ( 'NONE', #344, #530, #355 ) ;
#645 = FACE_OUTER_BOUND ( 'NONE', #684, .T. ) ;
#646 = EDGE_CURVE ( 'NONE', #492, #145, #366, .T. ) ;
#647 = CARTESIAN_POINT ( 'NONE',  ( -27.99999999999999645, 0.000000000000000000, -19.50000000000000000 ) ) ;
#648 = CARTESIAN_POINT ( 'NONE',  ( -38.00000000000000000, 41.34999999999999432, 0.000000000000000000 ) ) ;
#649 = CARTESIAN_POINT ( 'NONE',  ( -30.00000000000000000, 41.34999999999999432, 0.000000000000000000 ) ) ;
#650 = CC_DESIGN_PERSON_AND_ORGANIZATION_ASSIGNMENT ( #193, #561, ( #66 ) ) ;
#651 = FACE_OUTER_BOUND ( 'NONE', #445, .T. ) ;
#652 = ORIENTED_EDGE ( 'NONE', *, *, #646, .F. ) ;
#653 = DIRECTION ( 'NONE',  ( 0.000000000000000000, 0.000000000000000000, 1.000000000000000000 ) ) ;
#654 = DIRECTION ( 'NONE',  ( -1.000000000000000000, -0.000000000000000000, 0.000000000000000000 ) ) ;
#655 = VERTEX_POINT ( 'NONE', #302 ) ;
#656 = APPROVAL_PERSON_ORGANIZATION ( #452, #267, #750 ) ;
#657 = CARTESIAN_POINT ( 'NONE',  ( -30.00000000000000000, 61.00000000000000000, 19.50000000000000000 ) ) ;
#658 = CYLINDRICAL_SURFACE ( 'NONE', #715, 34.68750000000000000 ) ;
#659 = CARTESIAN_POINT ( 'NONE',  ( -27.99999999999999645, 10.00000000000000888, 19.50000000000000000 ) ) ;
#660 = CARTESIAN_POINT ( 'NONE',  ( -38.00000000000000000, 10.00000000000003730, 19.50000000000000000 ) ) ;
#661 = CARTESIAN_POINT ( 'NONE',  ( -27.99999999999999645, 8.000000000000000000, 19.50000000000000000 ) ) ;
#662 = LINE ( 'NONE', #307, #212 ) ;
#663 = ORIENTED_EDGE ( 'NONE', *, *, #1, .F. ) ;
#664 = VERTEX_POINT ( 'NONE', #426 ) ;
#665 = AXIS2_PLACEMENT_3D ( 'NONE', #436, #368, #128 ) ;
#666 = CARTESIAN_POINT ( 'NONE',  ( -38.00000000000000000, 61.00000000000000000, 19.50000000000000000 ) ) ;
#667 = DIRECTION ( 'NONE',  ( -1.000000000000000000, 8.673617379884037444E-16, 0.000000000000000000 ) ) ;
#668 = EDGE_LOOP ( 'NONE', ( #232, #167, #461, #341 ) ) ;
#669 = ADVANCED_FACE ( 'NONE', ( #482 ), #125, .T. ) ;
#670 = FACE_BOUND ( 'NONE', #620, .T. ) ;
#671 = ORIENTED_EDGE ( 'NONE', *, *, #109, .F. ) ;
#672 = ORIENTED_EDGE ( 'NONE', *, *, #594, .T. ) ;
#673 = SECURITY_CLASSIFICATION_LEVEL ( 'unclassified' ) ;
#674 = PLANE ( 'NONE',  #238 ) ;
#675 = VERTEX_POINT ( 'NONE', #179 ) ;
#676 = EDGE_CURVE ( 'NONE', #568, #502, #723, .T. ) ;
#677 =( NAMED_UNIT ( * ) PLANE_ANGLE_UNIT ( ) SI_UNIT ( $, .RADIAN. ) );
#678 = CARTESIAN_POINT ( 'NONE',  ( 30.00000000000000711, 41.34999999999999432, 8.250000000000000000 ) ) ;
#679 = VECTOR ( 'NONE', #751, 1000.000000000000000 ) ;
#680 = ORIENTED_EDGE ( 'NONE', *, *, #579, .F. ) ;
#681 = CC_DESIGN_PERSON_AND_ORGANIZATION_ASSIGNMENT ( #25, #630, ( #360 ) ) ;
#682 = PERSON_AND_ORGANIZATION_ROLE ( 'creator' ) ;
#683 = DIRECTION ( 'NONE',  ( 0.000000000000000000, -1.000000000000000000, 0.000000000000000000 ) ) ;
#684 = EDGE_LOOP ( 'NONE', ( #392, #554, #439, #242 ) ) ;
#685 = DIRECTION ( 'NONE',  ( 1.000000000000000000, 0.000000000000000000, 0.000000000000000000 ) ) ;
#686 = ORIENTED_EDGE ( 'NONE', *, *, #475, .T. ) ;
#687 =( NAMED_UNIT ( * ) SI_UNIT ( $, .STERADIAN. ) SOLID_ANGLE_UNIT ( ) );
#688 = CARTESIAN_POINT ( 'NONE',  ( -38.00000000000000000, 55.00000000000000000, 19.50000000000000000 ) ) ;
#689 = ORIENTED_EDGE ( 'NONE', *, *, #428, .F. ) ;
#690 = ORIENTED_EDGE ( 'NONE', *, *, #347, .F. ) ;
#691 = CIRCLE ( 'NONE', #7, 8.250000000000000000 ) ;
#692 = CARTESIAN_POINT ( 'NONE',  ( -38.00000000000000000, 41.34999999999999432, -8.250000000000000000 ) ) ;
#693 = EDGE_CURVE ( 'NONE', #313, #243, #116, .T. ) ;
#694 = ORIENTED_EDGE ( 'NONE', *, *, #616, .T. ) ;
#695 = CARTESIAN_POINT ( 'NONE',  ( 38.00000000000000000, 41.34999999999999432, 0.000000000000000000 ) ) ;
#696 = LOCAL_TIME ( 15, 4, 23.00000000000000000, #575 ) ;
#697 = CARTESIAN_POINT ( 'NONE',  ( 28.00000000000000000, 9.999999999999998224, -19.50000000000000000 ) ) ;
#698 = CARTESIAN_POINT ( 'NONE',  ( -38.00000000000000000, 61.00000000000000000, 19.50000000000000000 ) ) ;
#699 = CARTESIAN_POINT ( 'NONE',  ( 38.00000000000000000, 26.31249999999999645, 0.000000000000000000 ) ) ;
#700 = LINE ( 'NONE', #227, #146 ) ;
#701 = EDGE_CURVE ( 'NONE', #268, #629, #176, .T. ) ;
#702 = DIRECTION ( 'NONE',  ( 0.000000000000000000, 0.000000000000000000, -1.000000000000000000 ) ) ;
#703 = DIRECTION ( 'NONE',  ( -0.000000000000000000, -0.000000000000000000, -1.000000000000000000 ) ) ;
#704 = CIRCLE ( 'NONE', #432, 1.999999999999998224 ) ;
#705 = AXIS2_PLACEMENT_3D ( 'NONE', #487, #372, #429 ) ;
#706 = EDGE_CURVE ( 'NONE', #121, #187, #113, .T. ) ;
#707 = CARTESIAN_POINT ( 'NONE',  ( -38.00000000000000000, 41.34999999999999432, 0.000000000000000000 ) ) ;
#708 = CYLINDRICAL_SURFACE ( 'NONE', #345, 1.999999999999998224 ) ;
#709 = CARTESIAN_POINT ( 'NONE',  ( 30.00000000000000000, 0.000000000000000000, 19.50000000000000000 ) ) ;
#710 = DIRECTION ( 'NONE',  ( 0.000000000000000000, -0.000000000000000000, 1.000000000000000000 ) ) ;
#711 = ORIENTED_EDGE ( 'NONE', *, *, #601, .F. ) ;
#712 = PLANE ( 'NONE',  #253 ) ;
#713 = CARTESIAN_POINT ( 'NONE',  ( -38.00000000000000000, 41.34999999999999432, 0.000000000000000000 ) ) ;
#714 = CIRCLE ( 'NONE', #477, 8.250000000000000000 ) ;
#715 = AXIS2_PLACEMENT_3D ( 'NONE', #301, #424, #483 ) ;
#716 = CARTESIAN_POINT ( 'NONE',  ( 30.00000000000000000, 55.00000000000000000, 19.50000000000000000 ) ) ;
#717 = DIRECTION ( 'NONE',  ( 1.000000000000000000, 0.000000000000000000, 0.000000000000000000 ) ) ;
#718 = DIRECTION ( 'NONE',  ( -0.000000000000000000, -0.000000000000000000, -1.000000000000000000 ) ) ;
#719 = DIRECTION ( 'NONE',  ( -1.000000000000000000, 0.000000000000000000, 0.000000000000000000 ) ) ;
#720 = VERTEX_POINT ( 'NONE', #540 ) ;
#721 = ORIENTED_EDGE ( 'NONE', *, *, #320, .T. ) ;
#722 = EDGE_CURVE ( 'NONE', #736, #514, #112, .T. ) ;
#723 = LINE ( 'NONE', #661, #201 ) ;
#724 = DIRECTION ( 'NONE',  ( -0.000000000000000000, -0.000000000000000000, -1.000000000000000000 ) ) ;
#725 = ORIENTED_EDGE ( 'NONE', *, *, #24, .T. ) ;
#726 = EDGE_LOOP ( 'NONE', ( #549, #454, #322, #149 ) ) ;
#727 = EDGE_CURVE ( 'NONE', #64, #30, #306, .T. ) ;
#728 = VECTOR ( 'NONE', #583, 1000.000000000000000 ) ;
#729 = DIRECTION ( 'NONE',  ( 0.000000000000000000, -1.000000000000000000, 0.000000000000000000 ) ) ;
#730 = AXIS2_PLACEMENT_3D ( 'NONE', #589, #339, #527 ) ;
#731 = DIRECTION ( 'NONE',  ( -0.000000000000000000, -0.000000000000000000, 1.000000000000000000 ) ) ;
#732 = ORIENTED_EDGE ( 'NONE', *, *, #676, .F. ) ;
#733 = PERSON_AND_ORGANIZATION ( #387, #434 ) ;
#734 = CARTESIAN_POINT ( 'NONE',  ( -27.99999999999999645, 8.000000000000000000, 19.50000000000000000 ) ) ;
#735 = ADVANCED_FACE ( 'NONE', ( #547, #2 ), #245, .F. ) ;
#736 = VERTEX_POINT ( 'NONE', #62 ) ;
#737 = EDGE_LOOP ( 'NONE', ( #273, #450, #15, #280 ) ) ;
#738 = APPROVAL_ROLE ( '' ) ;
#739 = CARTESIAN_POINT ( 'NONE',  ( 38.00000000000000000, 55.00000000000000000, -19.49999999999999645 ) ) ;
#740 = EDGE_CURVE ( 'NONE', #655, #675, #490, .T. ) ;
#741 = ORIENTED_EDGE ( 'NONE', *, *, #727, .F. ) ;
#742 = ORIENTED_EDGE ( 'NONE', *, *, #676, .T. ) ;
#743 = DATE_TIME_ROLE ( 'classification_date' ) ;
#744 = AXIS2_PLACEMENT_3D ( 'NONE', #542, #427, #777 ) ;
#745 = DIRECTION ( 'NONE',  ( -0.000000000000000000, -0.000000000000000000, -1.000000000000000000 ) ) ;
#746 = AXIS2_PLACEMENT_3D ( 'NONE', #659, #718, #544 ) ;
#747 = ORIENTED_EDGE ( 'NONE', *, *, #417, .T. ) ;
#748 = ORIENTED_EDGE ( 'NONE', *, *, #701, .F. ) ;
#749 = VERTEX_POINT ( 'NONE', #300 ) ;
#750 = APPROVAL_ROLE ( '' ) ;
#751 = DIRECTION ( 'NONE',  ( 1.000000000000000000, 0.000000000000000000, 0.000000000000000000 ) ) ;
#752 = MANIFOLD_SOLID_BREP ( 'Cut-Extrude1', #197 ) ;
#753 = ORIENTED_EDGE ( 'NONE', *, *, #610, .F. ) ;
#754 = FACE_OUTER_BOUND ( 'NONE', #328, .T. ) ;
#755 = ADVANCED_FACE ( 'NONE', ( #311 ), #551, .T. ) ;
#756 = CARTESIAN_POINT ( 'NONE',  ( -38.00000000000000000, 26.31249999999999645, 0.000000000000000000 ) ) ;
#757 = EDGE_LOOP ( 'NONE', ( #553, #92, #525, #578 ) ) ;
#758 = PRODUCT_DEFINITION ( 'UNKNOWN', '', #360, #229 ) ;
#759 = CARTESIAN_POINT ( 'NONE',  ( -27.99999999999999645, 0.000000000000000000, -19.50000000000000000 ) ) ;
#760 = ORIENTED_EDGE ( 'NONE', *, *, #764, .T. ) ;
#761 = CC_DESIGN_APPROVAL ( #486, ( #360 ) ) ;
#762 = APPLICATION_CONTEXT ( 'configuration controlled 3d designs of mechanical parts and assemblies' ) ;
#763 = DIRECTION ( 'NONE',  ( 1.000000000000000000, 0.000000000000000000, -0.000000000000000000 ) ) ;
#764 = EDGE_CURVE ( 'NONE', #571, #187, #362, .T. ) ;
#765 = DIRECTION ( 'NONE',  ( 0.000000000000000000, 0.000000000000000000, 1.000000000000000000 ) ) ;
#766 = PLANE ( 'NONE',  #596 ) ;
#767 = CARTESIAN_POINT ( 'NONE',  ( -27.99999999999999645, 10.00000000000000888, 19.50000000000000000 ) ) ;
#768 = CARTESIAN_POINT ( 'NONE',  ( -38.00000000000000000, 41.34999999999999432, 0.000000000000000000 ) ) ;
#769 = DIRECTION ( 'NONE',  ( 0.000000000000000000, 0.000000000000000000, -1.000000000000000000 ) ) ;
#770 = AXIS2_PLACEMENT_3D ( 'NONE', #385, #148, #635 ) ;
#771 = VECTOR ( 'NONE', #469, 1000.000000000000000 ) ;
#772 = CARTESIAN_POINT ( 'NONE',  ( -38.00000000000000000, 0.000000000000000000, 19.50000000000000000 ) ) ;
#773 = FACE_BOUND ( 'NONE', #536, .T. ) ;
#774 = ADVANCED_FACE ( 'NONE', ( #474 ), #712, .T. ) ;
#775 = CARTESIAN_POINT ( 'NONE',  ( 38.00000000000000000, 9.999999999999991118, -19.50000000000000000 ) ) ;
#776 = FACE_OUTER_BOUND ( 'NONE', #383, .T. ) ;
#777 = DIRECTION ( 'NONE',  ( -1.000000000000000000, 0.000000000000000000, 0.000000000000000000 ) ) ;
#778 = AXIS2_PLACEMENT_3D ( 'NONE', #26, #327, #391 ) ;
#779 = AXIS2_PLACEMENT_3D ( 'NONE', #97, #349, #529 ) ;
#780 = DIRECTION ( 'NONE',  ( -1.000000000000000000, 0.000000000000000000, 0.000000000000000000 ) ) ;
#781 = DIRECTION ( 'NONE',  ( 4.336808689942018722E-16, -1.000000000000000000, 0.000000000000000000 ) ) ;
ENDSEC;
END-ISO-10303-21;
