ISO-10303-21;
HEADER;
FILE_DESCRIPTION (( 'STEP AP203' ),
    '1' );
FILE_NAME ('HANGER-R_REV_A.step',
    '2025-08-17T04:52:57',
    ( '' ),
    ( '' ),
    'SwSTEP 2.0',
    'SolidWorks 2024',
    '' );
FILE_SCHEMA (( 'CONFIG_CONTROL_DESIGN' ));
ENDSEC;

DATA;
#1 = CC_DESIGN_APPROVAL ( #599, ( #451 ) ) ;
#2 = ORIENTED_EDGE ( 'NONE', *, *, #270, .F. ) ;
#3 = EDGE_CURVE ( 'NONE', #431, #517, #315, .T. ) ;
#4 = DIRECTION ( 'NONE',  ( 0.000000000000000000, 0.000000000000000000, -1.000000000000000000 ) ) ;
#5 = DIRECTION ( 'NONE',  ( -1.000000000000000000, -0.000000000000000000, -0.000000000000000000 ) ) ;
#6 = CLOSED_SHELL ( 'NONE', ( #514, #406, #665, #319, #459, #681 ) ) ;
#7 = VECTOR ( 'NONE', #424, 999.9999999999998863 ) ;
#8 = VERTEX_POINT ( 'NONE', #318 ) ;
#9 = CARTESIAN_POINT ( 'NONE',  ( -30.00000000000000000, 0.000000000000000000, 0.000000000000000000 ) ) ;
#10 = FACE_OUTER_BOUND ( 'NONE', #571, .T. ) ;
#11 = VERTEX_POINT ( 'NONE', #534 ) ;
#12 = LINE ( 'NONE', #438, #592 ) ;
#13 = LINE ( 'NONE', #168, #573 ) ;
#14 = VERTEX_POINT ( 'NONE', #55 ) ;
#15 = CC_DESIGN_SECURITY_CLASSIFICATION ( #451, ( #155 ) ) ;
#16 = LINE ( 'NONE', #212, #468 ) ;
#17 = CARTESIAN_POINT ( 'NONE',  ( -30.00000000000000000, -24.00000000000000355, -5.543254822260995474E-15 ) ) ;
#18 = VECTOR ( 'NONE', #298, 1000.000000000000114 ) ;
#19 = EDGE_LOOP ( 'NONE', ( #618, #376, #323, #394 ) ) ;
#20 = DIRECTION ( 'NONE',  ( 0.000000000000000000, 0.000000000000000000, 1.000000000000000000 ) ) ;
#21 = LINE ( 'NONE', #218, #294 ) ;
#22 = ORIENTED_EDGE ( 'NONE', *, *, #145, .F. ) ;
#23 = APPROVAL_STATUS ( 'not_yet_approved' ) ;
#24 = LINE ( 'NONE', #338, #282 ) ;
#25 = ORIENTED_EDGE ( 'NONE', *, *, #598, .T. ) ;
#26 = EDGE_CURVE ( 'NONE', #8, #607, #268, .T. ) ;
#27 = DATE_AND_TIME ( #81, #405 ) ;
#28 = DIRECTION ( 'NONE',  ( 0.000000000000000000, -0.4129162058655497236, 0.9107690195288807855 ) ) ;
#29 = ORIENTED_EDGE ( 'NONE', *, *, #354, .T. ) ;
#30 = DIRECTION ( 'NONE',  ( 0.000000000000000000, 0.000000000000000000, 1.000000000000000000 ) ) ;
#31 = CARTESIAN_POINT ( 'NONE',  ( 30.00000000000000000, 22.38184869098818197, 49.36762979502137938 ) ) ;
#32 = ORIENTED_EDGE ( 'NONE', *, *, #650, .F. ) ;
#33 = DATE_AND_TIME ( #513, #544 ) ;
#34 = CARTESIAN_POINT ( 'NONE',  ( 30.00000000000000000, -34.48030927886847508, -15.63237020497885332 ) ) ;
#35 = ADVANCED_FACE ( 'NONE', ( #487 ), #644, .F. ) ;
#36 = COORDINATED_UNIVERSAL_TIME_OFFSET ( 10, 0, .AHEAD. ) ;
#37 = DIRECTION ( 'NONE',  ( 0.000000000000000000, 1.000000000000000000, -1.734723475976816166E-15 ) ) ;
#38 = EDGE_CURVE ( 'NONE', #146, #387, #257, .T. ) ;
#39 = VECTOR ( 'NONE', #86, 1000.000000000000000 ) ;
#40 = CARTESIAN_POINT ( 'NONE',  ( 30.00000000000000000, -34.48030927886848218, 15.63237020497884977 ) ) ;
#41 = FACE_BOUND ( 'NONE', #303, .T. ) ;
#42 = DIRECTION ( 'NONE',  ( 0.000000000000000000, -0.9107690195288825619, 0.4129162058655459488 ) ) ;
#43 = LINE ( 'NONE', #638, #536 ) ;
#44 = CC_DESIGN_PERSON_AND_ORGANIZATION_ASSIGNMENT ( #244, #292, ( #155 ) ) ;
#45 = ORIENTED_EDGE ( 'NONE', *, *, #344, .F. ) ;
#46 = PLANE ( 'NONE',  #137 ) ;
#47 = VECTOR ( 'NONE', #28, 1000.000000000000114 ) ;
#48 = DIRECTION ( 'NONE',  ( 0.000000000000000000, 0.4129162058655511669, -0.9107690195288802304 ) ) ;
#49 = VERTEX_POINT ( 'NONE', #433 ) ;
#50 = FACE_OUTER_BOUND ( 'NONE', #415, .T. ) ;
#51 = DIRECTION ( 'NONE',  ( 0.000000000000000000, -1.000000000000000000, 1.734723475976807094E-15 ) ) ;
#52 = EDGE_CURVE ( 'NONE', #551, #661, #97, .T. ) ;
#53 = ORIENTED_EDGE ( 'NONE', *, *, #608, .T. ) ;
#54 = FACE_OUTER_BOUND ( 'NONE', #349, .T. ) ;
#55 = CARTESIAN_POINT ( 'NONE',  ( 30.00000000000000000, -4.163336342344337027E-14, -65.00000000000001421 ) ) ;
#56 = ORIENTED_EDGE ( 'NONE', *, *, #116, .T. ) ;
#57 = LINE ( 'NONE', #272, #501 ) ;
#58 = DIRECTION ( 'NONE',  ( 1.000000000000000000, -0.000000000000000000, 0.000000000000000000 ) ) ;
#59 = VECTOR ( 'NONE', #42, 1000.000000000000000 ) ;
#60 = EDGE_LOOP ( 'NONE', ( #635, #509 ) ) ;
#61 = ADVANCED_FACE ( 'NONE', ( #690 ), #429, .T. ) ;
#62 =( NAMED_UNIT ( * ) SI_UNIT ( $, .STERADIAN. ) SOLID_ANGLE_UNIT ( ) );
#63 = PLANE ( 'NONE',  #535 ) ;
#64 = ORIENTED_EDGE ( 'NONE', *, *, #193, .T. ) ;
#65 = FACE_OUTER_BOUND ( 'NONE', #402, .T. ) ;
#66 = CARTESIAN_POINT ( 'NONE',  ( 30.00000000000000000, -24.00000000000000355, 8.249999999999994671 ) ) ;
#67 = ORIENTED_EDGE ( 'NONE', *, *, #374, .F. ) ;
#68 = DIRECTION ( 'NONE',  ( -1.000000000000000000, -0.000000000000000000, -0.000000000000000000 ) ) ;
#69 = CARTESIAN_POINT ( 'NONE',  ( -30.00000000000000000, -24.00000000000000355, -5.543254822260995474E-15 ) ) ;
#70 = VECTOR ( 'NONE', #5, 1000.000000000000000 ) ;
#71 = AXIS2_PLACEMENT_3D ( 'NONE', #317, #143, #366 ) ;
#72 = ORIENTED_EDGE ( 'NONE', *, *, #250, .F. ) ;
#73 = APPROVAL_DATE_TIME ( #27, #621 ) ;
#74 = CARTESIAN_POINT ( 'NONE',  ( -30.00000000000000000, -12.09846058788017764, 65.00000000000000000 ) ) ;
#75 = ADVANCED_FACE ( 'NONE', ( #529 ), #590, .F. ) ;
#76 = ORIENTED_EDGE ( 'NONE', *, *, #38, .F. ) ;
#77 = EDGE_CURVE ( 'NONE', #661, #576, #480, .T. ) ;
#78 = APPROVAL_ROLE ( '' ) ;
#79 = CARTESIAN_POINT ( 'NONE',  ( 30.00000000000000000, 22.38184869098821750, -49.36762979502132964 ) ) ;
#80 = ORIENTED_EDGE ( 'NONE', *, *, #558, .T. ) ;
#81 = CALENDAR_DATE ( 2025, 17, 8 ) ;
#82 = DIRECTION ( 'NONE',  ( 1.000000000000000000, -0.000000000000000000, 0.000000000000000000 ) ) ;
#83 = ORIENTED_EDGE ( 'NONE', *, *, #3, .T. ) ;
#84 = VECTOR ( 'NONE', #360, 1000.000000000000000 ) ;
#85 = EDGE_CURVE ( 'NONE', #253, #207, #699, .T. ) ;
#86 = DIRECTION ( 'NONE',  ( -1.000000000000000000, -0.000000000000000000, -0.000000000000000000 ) ) ;
#87 = LINE ( 'NONE', #135, #18 ) ;
#88 = PRODUCT_RELATED_PRODUCT_CATEGORY ( 'detail', '', ( #341 ) ) ;
#89 = LINE ( 'NONE', #79, #421 ) ;
#90 = AXIS2_PLACEMENT_3D ( 'NONE', #69, #553, #283 ) ;
#91 = AXIS2_PLACEMENT_3D ( 'NONE', #528, #583, #469 ) ;
#92 = DIRECTION ( 'NONE',  ( 1.000000000000000000, -0.000000000000000000, 0.000000000000000000 ) ) ;
#93 = DIRECTION ( 'NONE',  ( 0.000000000000000000, -1.000000000000000000, 1.734723475976807094E-15 ) ) ;
#94 = EDGE_CURVE ( 'NONE', #559, #176, #369, .T. ) ;
#95 = CC_DESIGN_DATE_AND_TIME_ASSIGNMENT ( #286, #289, ( #107 ) ) ;
#96 = DIRECTION ( 'NONE',  ( 0.000000000000000000, -0.4129162058655495571, -0.9107690195288808965 ) ) ;
#97 = LINE ( 'NONE', #477, #523 ) ;
#98 = DIRECTION ( 'NONE',  ( 0.000000000000000000, -1.067522139062650425E-16, 1.000000000000000000 ) ) ;
#99 = CARTESIAN_POINT ( 'NONE',  ( 30.00000000000000000, -24.00000000000000355, -5.543254822260995474E-15 ) ) ;
#100 = EDGE_LOOP ( 'NONE', ( #285, #620, #140, #566 ) ) ;
#101 = PLANE ( 'NONE',  #362 ) ;
#102 = EDGE_CURVE ( 'NONE', #172, #316, #603, .T. ) ;
#103 = CARTESIAN_POINT ( 'NONE',  ( -30.00000000000000000, 1.127570259384924359E-13, 64.99999999999998579 ) ) ;
#104 = ORIENTED_EDGE ( 'NONE', *, *, #279, .F. ) ;
#105 = DIRECTION ( 'NONE',  ( 0.000000000000000000, 0.000000000000000000, -1.000000000000000000 ) ) ;
#106 = DIRECTION ( 'NONE',  ( -1.000000000000000000, -0.000000000000000000, -0.000000000000000000 ) ) ;
#107 = PRODUCT_DEFINITION ( 'UNKNOWN', '', #155, #475 ) ;
#108 = ORIENTED_EDGE ( 'NONE', *, *, #125, .T. ) ;
#109 = DIRECTION ( 'NONE',  ( 0.000000000000000000, -0.4129162058655459488, -0.9107690195288825619 ) ) ;
#110 = PLANE ( 'NONE',  #624 ) ;
#111 = ADVANCED_FACE ( 'NONE', ( #425 ), #154, .F. ) ;
#112 = ORIENTED_EDGE ( 'NONE', *, *, #306, .F. ) ;
#113 = DIRECTION ( 'NONE',  ( 0.000000000000000000, 0.000000000000000000, -1.000000000000000000 ) ) ;
#114 = AXIS2_PLACEMENT_3D ( 'NONE', #428, #92, #537 ) ;
#115 = ORIENTED_EDGE ( 'NONE', *, *, #243, .T. ) ;
#116 = EDGE_CURVE ( 'NONE', #340, #576, #310, .T. ) ;
#117 = CARTESIAN_POINT ( 'NONE',  ( 30.00000000000000000, -29.88044091272579195, -14.88020210453946213 ) ) ;
#118 = DIRECTION ( 'NONE',  ( 0.000000000000000000, -0.4129162058655497791, 0.9107690195288808965 ) ) ;
#119 = EDGE_LOOP ( 'NONE', ( #64, #400 ) ) ;
#120 = CARTESIAN_POINT ( 'NONE',  ( 30.00000000000000000, -24.00000000000000355, -5.543254822260995474E-15 ) ) ;
#121 = DIRECTION ( 'NONE',  ( -1.000000000000000000, -0.000000000000000000, -0.000000000000000000 ) ) ;
#122 = ORIENTED_EDGE ( 'NONE', *, *, #182, .F. ) ;
#123 = CARTESIAN_POINT ( 'NONE',  ( 30.00000000000000000, -8.000000000000014211, 65.00000000000000000 ) ) ;
#124 = DIRECTION ( 'NONE',  ( 0.000000000000000000, 0.000000000000000000, -1.000000000000000000 ) ) ;
#125 = EDGE_CURVE ( 'NONE', #470, #431, #265, .T. ) ;
#126 = CIRCLE ( 'NONE', #672, 15.99999999999999645 ) ;
#127 = VECTOR ( 'NONE', #666, 1000.000000000000000 ) ;
#128 = EDGE_LOOP ( 'NONE', ( #80, #295, #72, #371 ) ) ;
#129 = CARTESIAN_POINT ( 'NONE',  ( 30.00000000000000000, -8.000000000000007105, -8.540177112501211287E-16 ) ) ;
#130 = EDGE_LOOP ( 'NONE', ( #291, #56, #581, #595 ) ) ;
#131 = APPLICATION_PROTOCOL_DEFINITION ( 'international standard', 'config_control_design', 1994, #260 ) ;
#132 = PLANE ( 'NONE',  #580 ) ;
#133 = EDGE_LOOP ( 'NONE', ( #263, #627 ) ) ;
#134 = EDGE_CURVE ( 'NONE', #211, #686, #515, .T. ) ;
#135 = CARTESIAN_POINT ( 'NONE',  ( 30.00000000000000000, 0.5014077782625026014, -1.105954825955627330 ) ) ;
#136 = AXIS2_PLACEMENT_3D ( 'NONE', #538, #484, #199 ) ;
#137 = AXIS2_PLACEMENT_3D ( 'NONE', #695, #96, #150 ) ;
#138 = APPROVAL ( #188, 'UNSPECIFIED' ) ;
#139 = CARTESIAN_POINT ( 'NONE',  ( -30.00000000000000000, -8.000000000000007105, -8.540177112501211287E-16 ) ) ;
#140 = ORIENTED_EDGE ( 'NONE', *, *, #608, .F. ) ;
#141 = DIRECTION ( 'NONE',  ( 1.000000000000000000, 0.000000000000000000, 0.000000000000000000 ) ) ;
#142 = DIRECTION ( 'NONE',  ( 0.000000000000000000, 0.9107690195288808965, -0.4129162058655496126 ) ) ;
#143 = DIRECTION ( 'NONE',  ( 1.000000000000000000, -0.000000000000000000, 0.000000000000000000 ) ) ;
#144 = APPROVAL_PERSON_ORGANIZATION ( #296, #599, #78 ) ;
#145 = EDGE_CURVE ( 'NONE', #387, #651, #24, .T. ) ;
#146 = VERTEX_POINT ( 'NONE', #503 ) ;
#147 = AXIS2_PLACEMENT_3D ( 'NONE', #639, #206, #151 ) ;
#148 = FACE_OUTER_BOUND ( 'NONE', #100, .T. ) ;
#149 = CARTESIAN_POINT ( 'NONE',  ( 30.00000000000000000, -33.97890150060596426, 16.73832503093451507 ) ) ;
#150 = DIRECTION ( 'NONE',  ( 0.000000000000000000, 0.9107690195288808965, -0.4129162058655495571 ) ) ;
#151 = DIRECTION ( 'NONE',  ( 0.000000000000000000, 0.000000000000000000, 1.000000000000000000 ) ) ;
#152 = EDGE_CURVE ( 'NONE', #470, #169, #13, .T. ) ;
#153 = DIRECTION ( 'NONE',  ( 1.000000000000000000, -0.000000000000000000, 0.000000000000000000 ) ) ;
#154 = CYLINDRICAL_SURFACE ( 'NONE', #147, 8.250000000000000000 ) ;
#155 = PRODUCT_DEFINITION_FORMATION_WITH_SPECIFIED_SOURCE ( 'ANY', '', #341, .NOT_KNOWN. ) ;
#156 = VERTEX_POINT ( 'NONE', #222 ) ;
#157 = AXIS2_PLACEMENT_3D ( 'NONE', #694, #48, #160 ) ;
#158 = CYLINDRICAL_SURFACE ( 'NONE', #441, 15.99999999999999645 ) ;
#159 = CC_DESIGN_DATE_AND_TIME_ASSIGNMENT ( #507, #678, ( #451 ) ) ;
#160 = DIRECTION ( 'NONE',  ( 0.000000000000000000, 0.9107690195288802304, 0.4129162058655511669 ) ) ;
#161 = ORIENTED_EDGE ( 'NONE', *, *, #398, .T. ) ;
#162 = DIRECTION ( 'NONE',  ( -1.000000000000000000, -0.000000000000000000, -0.000000000000000000 ) ) ;
#163 = CARTESIAN_POINT ( 'NONE',  ( -30.00000000000000000, -24.00000000000000355, 15.99999999999998934 ) ) ;
#164 = EDGE_LOOP ( 'NONE', ( #646, #288, #593, #223 ) ) ;
#165 = CARTESIAN_POINT ( 'NONE',  ( -30.00000000000000000, -29.88044091272580971, 14.88020210453945147 ) ) ;
#166 = ORIENTED_EDGE ( 'NONE', *, *, #219, .T. ) ;
#167 = PLANE ( 'NONE',  #302 ) ;
#168 = CARTESIAN_POINT ( 'NONE',  ( 30.00000000000000000, -29.88044091272580971, 14.88020210453945147 ) ) ;
#169 = VERTEX_POINT ( 'NONE', #165 ) ;
#170 = CARTESIAN_POINT ( 'NONE',  ( -30.00000000000000000, -12.09846058788015633, -65.00000000000000000 ) ) ;
#171 = LINE ( 'NONE', #139, #311 ) ;
#172 = VERTEX_POINT ( 'NONE', #66 ) ;
#173 = EDGE_CURVE ( 'NONE', #280, #49, #478, .T. ) ;
#174 = DIRECTION ( 'NONE',  ( 0.000000000000000000, 0.000000000000000000, -1.000000000000000000 ) ) ;
#175 = CARTESIAN_POINT ( 'NONE',  ( 30.00000000000000000, -29.88044091272579195, -14.88020210453946213 ) ) ;
#176 = VERTEX_POINT ( 'NONE', #322 ) ;
#177 = PERSON_AND_ORGANIZATION ( #221, #339 ) ;
#178 = DIRECTION ( 'NONE',  ( 0.000000000000000000, 0.000000000000000000, -1.000000000000000000 ) ) ;
#179 =( GEOMETRIC_REPRESENTATION_CONTEXT ( 3 ) GLOBAL_UNCERTAINTY_ASSIGNED_CONTEXT ( ( #380 ) ) GLOBAL_UNIT_ASSIGNED_CONTEXT ( ( #377, #381, #62 ) ) REPRESENTATION_CONTEXT ( 'NONE', 'WORKASPACE' ) );
#180 = ORIENTED_EDGE ( 'NONE', *, *, #85, .F. ) ;
#181 = CARTESIAN_POINT ( 'NONE',  ( -30.00000000000000000, -1.387778780781445676E-14, 64.99999999999998579 ) ) ;
#182 = EDGE_CURVE ( 'NONE', #156, #470, #491, .T. ) ;
#183 = MANIFOLD_SOLID_BREP ( 'Boss-Extrude1[1]', #6 ) ;
#184 = EDGE_LOOP ( 'NONE', ( #539, #474, #108, #83 ) ) ;
#185 = PERSON_AND_ORGANIZATION ( #221, #339 ) ;
#186 = FACE_OUTER_BOUND ( 'NONE', #604, .T. ) ;
#187 = LOCAL_TIME ( 14, 52, 57.00000000000000000, #237 ) ;
#188 = APPROVAL_STATUS ( 'not_yet_approved' ) ;
#189 = CARTESIAN_POINT ( 'NONE',  ( 30.00000000000000000, -24.00000000000000355, -8.250000000000005329 ) ) ;
#190 = AXIS2_PLACEMENT_3D ( 'NONE', #281, #109, #490 ) ;
#191 = COORDINATED_UNIVERSAL_TIME_OFFSET ( 10, 0, .AHEAD. ) ;
#192 = CARTESIAN_POINT ( 'NONE',  ( -30.00000000000000000, -8.000000000000001776, -63.14187707360493818 ) ) ;
#193 = EDGE_CURVE ( 'NONE', #11, #312, #258, .T. ) ;
#194 = LINE ( 'NONE', #256, #7 ) ;
#195 = EDGE_CURVE ( 'NONE', #686, #211, #693, .T. ) ;
#196 = ORIENTED_EDGE ( 'NONE', *, *, #102, .F. ) ;
#197 = ORIENTED_EDGE ( 'NONE', *, *, #598, .F. ) ;
#198 = CARTESIAN_POINT ( 'NONE',  ( -30.00000000000000000, -4.163336342344337027E-14, -65.00000000000001421 ) ) ;
#199 = DIRECTION ( 'NONE',  ( 0.000000000000000000, 1.000000000000000000, -1.734723475976807292E-15 ) ) ;
#200 = VECTOR ( 'NONE', #641, 1000.000000000000000 ) ;
#201 = PLANE ( 'NONE',  #284 ) ;
#202 = CARTESIAN_POINT ( 'NONE',  ( 30.00000000000000000, -33.97890150060595005, -16.73832503093453283 ) ) ;
#203 = EDGE_CURVE ( 'NONE', #551, #14, #21, .T. ) ;
#204 = ORIENTED_EDGE ( 'NONE', *, *, #383, .F. ) ;
#205 = CARTESIAN_POINT ( 'NONE',  ( 30.00000000000000000, -8.000000000000007105, -8.540177112501211287E-16 ) ) ;
#206 = DIRECTION ( 'NONE',  ( -1.000000000000000000, -0.000000000000000000, -0.000000000000000000 ) ) ;
#207 = VERTEX_POINT ( 'NONE', #74 ) ;
#208 = ADVANCED_FACE ( 'NONE', ( #278, #235 ), #110, .F. ) ;
#209 = CARTESIAN_POINT ( 'NONE',  ( -30.00000000000000000, -8.000000000000014211, 65.00000000000000000 ) ) ;
#210 = CARTESIAN_POINT ( 'NONE',  ( 30.00000000000000000, 0.5014077782625171453, 1.105954825955664633 ) ) ;
#211 = VERTEX_POINT ( 'NONE', #163 ) ;
#212 = CARTESIAN_POINT ( 'NONE',  ( 30.00000000000000000, -24.00000000000000355, -8.250000000000005329 ) ) ;
#213 = VECTOR ( 'NONE', #476, 1000.000000000000000 ) ;
#214 = ORIENTED_EDGE ( 'NONE', *, *, #243, .F. ) ;
#215 = ORIENTED_EDGE ( 'NONE', *, *, #533, .F. ) ;
#216 = DIRECTION ( 'NONE',  ( -1.000000000000000000, -0.000000000000000000, -0.000000000000000000 ) ) ;
#217 = EDGE_CURVE ( 'NONE', #651, #607, #231, .T. ) ;
#218 = CARTESIAN_POINT ( 'NONE',  ( 30.00000000000000000, -2.775557561562891036E-14, 5.925938290422262816E-30 ) ) ;
#219 = EDGE_CURVE ( 'NONE', #49, #686, #273, .T. ) ;
#220 = ORIENTED_EDGE ( 'NONE', *, *, #3, .F. ) ;
#221 = PERSON ( 'UNSPECIFIED', 'UNSPECIFIED', 'UNSPECIFIED', ('UNSPECIFIED'), ('UNSPECIFIED'), ('UNSPECIFIED') ) ;
#222 = CARTESIAN_POINT ( 'NONE',  ( 30.00000000000000000, -8.000000000000000000, 63.14187707360495239 ) ) ;
#223 = ORIENTED_EDGE ( 'NONE', *, *, #134, .T. ) ;
#224 = PLANE ( 'NONE',  #190 ) ;
#225 = AXIS2_PLACEMENT_3D ( 'NONE', #367, #305, #531 ) ;
#226 = CARTESIAN_POINT ( 'NONE',  ( 30.00000000000000000, -1.387778780781445676E-14, 64.99999999999998579 ) ) ;
#227 = AXIS2_PLACEMENT_3D ( 'NONE', #586, #633, #530 ) ;
#228 = ADVANCED_FACE ( 'NONE', ( #435 ), #546, .T. ) ;
#229 = ORIENTED_EDGE ( 'NONE', *, *, #217, .T. ) ;
#230 = DIRECTION ( 'NONE',  ( -1.000000000000000000, -0.000000000000000000, -0.000000000000000000 ) ) ;
#231 = LINE ( 'NONE', #446, #659 ) ;
#232 = VERTEX_POINT ( 'NONE', #550 ) ;
#233 = ADVANCED_FACE ( 'NONE', ( #10 ), #63, .F. ) ;
#234 = APPROVAL_ROLE ( '' ) ;
#235 = FACE_BOUND ( 'NONE', #119, .T. ) ;
#236 = EDGE_LOOP ( 'NONE', ( #29, #512, #180, #664 ) ) ;
#237 = COORDINATED_UNIVERSAL_TIME_OFFSET ( 10, 0, .AHEAD. ) ;
#238 = DIRECTION ( 'NONE',  ( 0.000000000000000000, 1.000000000000000000, -2.135044278125300850E-16 ) ) ;
#239 = VECTOR ( 'NONE', #330, 1000.000000000000000 ) ;
#240 = VECTOR ( 'NONE', #397, 1000.000000000000114 ) ;
#241 = VERTEX_POINT ( 'NONE', #175 ) ;
#242 = CARTESIAN_POINT ( 'NONE',  ( -30.00000000000000000, 0.5014077782625026014, -1.105954825955627330 ) ) ;
#243 = EDGE_CURVE ( 'NONE', #387, #452, #393, .T. ) ;
#244 = PERSON_AND_ORGANIZATION ( #221, #339 ) ;
#245 = CARTESIAN_POINT ( 'NONE',  ( 30.00000000000000000, -33.97890150060596426, 16.73832503093451507 ) ) ;
#246 = ORIENTED_EDGE ( 'NONE', *, *, #374, .T. ) ;
#247 = COORDINATED_UNIVERSAL_TIME_OFFSET ( 10, 0, .AHEAD. ) ;
#248 = DIRECTION ( 'NONE',  ( 0.000000000000000000, -0.9107690195288825619, 0.4129162058655459488 ) ) ;
#249 = VECTOR ( 'NONE', #696, 1000.000000000000000 ) ;
#250 = EDGE_CURVE ( 'NONE', #551, #340, #498, .T. ) ;
#251 = VECTOR ( 'NONE', #688, 1000.000000000000000 ) ;
#252 = FACE_OUTER_BOUND ( 'NONE', #128, .T. ) ;
#253 = VERTEX_POINT ( 'NONE', #663 ) ;
#254 = DIRECTION ( 'NONE',  ( 1.000000000000000000, -0.000000000000000000, 0.000000000000000000 ) ) ;
#255 = CARTESIAN_POINT ( 'NONE',  ( -30.00000000000000000, -1.127570259384930796E-13, -65.00000000000001421 ) ) ;
#256 = CARTESIAN_POINT ( 'NONE',  ( 30.00000000000000000, -30.38184869098831342, -13.77424727858379150 ) ) ;
#257 = LINE ( 'NONE', #364, #70 ) ;
#258 = CIRCLE ( 'NONE', #396, 8.250000000000000000 ) ;
#259 = AXIS2_PLACEMENT_3D ( 'NONE', #654, #326, #333 ) ;
#260 = APPLICATION_CONTEXT ( 'configuration controlled 3d designs of mechanical parts and assemblies' ) ;
#261 = CARTESIAN_POINT ( 'NONE',  ( 30.00000000000000000, -4.163336342344337027E-14, -65.00000000000001421 ) ) ;
#262 = ORIENTED_EDGE ( 'NONE', *, *, #94, .T. ) ;
#263 = ORIENTED_EDGE ( 'NONE', *, *, #134, .F. ) ;
#264 = DIRECTION ( 'NONE',  ( -0.000000000000000000, 1.000000000000000000, 1.067522139062650425E-16 ) ) ;
#265 = LINE ( 'NONE', #210, #239 ) ;
#266 = ORIENTED_EDGE ( 'NONE', *, *, #346, .F. ) ;
#267 = CYLINDRICAL_SURFACE ( 'NONE', #456, 8.250000000000000000 ) ;
#268 = LINE ( 'NONE', #202, #84 ) ;
#269 = EDGE_LOOP ( 'NONE', ( #384, #112, #499, #614 ) ) ;
#270 = EDGE_CURVE ( 'NONE', #576, #176, #171, .T. ) ;
#271 = VECTOR ( 'NONE', #597, 1000.000000000000000 ) ;
#272 = CARTESIAN_POINT ( 'NONE',  ( 30.00000000000000000, -12.09846058788015633, -65.00000000000000000 ) ) ;
#273 = LINE ( 'NONE', #378, #271 ) ;
#274 = ORIENTED_EDGE ( 'NONE', *, *, #689, .F. ) ;
#275 = DIRECTION ( 'NONE',  ( 1.000000000000000000, -0.000000000000000000, 0.000000000000000000 ) ) ;
#276 = ORIENTED_EDGE ( 'NONE', *, *, #558, .F. ) ;
#277 = CARTESIAN_POINT ( 'NONE',  ( 30.00000000000000000, -24.00000000000000355, -5.543254822260995474E-15 ) ) ;
#278 = FACE_OUTER_BOUND ( 'NONE', #133, .T. ) ;
#279 = EDGE_CURVE ( 'NONE', #253, #169, #408, .T. ) ;
#280 = VERTEX_POINT ( 'NONE', #574 ) ;
#281 = CARTESIAN_POINT ( 'NONE',  ( 30.00000000000000000, 22.38184869098818197, 49.36762979502137938 ) ) ;
#282 = VECTOR ( 'NONE', #494, 1000.000000000000000 ) ;
#283 = DIRECTION ( 'NONE',  ( 0.000000000000000000, 0.000000000000000000, -1.000000000000000000 ) ) ;
#284 = AXIS2_PLACEMENT_3D ( 'NONE', #594, #254, #105 ) ;
#285 = ORIENTED_EDGE ( 'NONE', *, *, #77, .T. ) ;
#286 = DATE_AND_TIME ( #518, #570 ) ;
#287 = CARTESIAN_POINT ( 'NONE',  ( -30.00000000000000000, 0.000000000000000000, 0.000000000000000000 ) ) ;
#288 = ORIENTED_EDGE ( 'NONE', *, *, #173, .F. ) ;
#289 = DATE_TIME_ROLE ( 'creation_date' ) ;
#290 = DIRECTION ( 'NONE',  ( 0.000000000000000000, -0.9107690195288821178, -0.4129162058655468370 ) ) ;
#291 = ORIENTED_EDGE ( 'NONE', *, *, #250, .T. ) ;
#292 = PERSON_AND_ORGANIZATION_ROLE ( 'creator' ) ;
#293 = DIRECTION ( 'NONE',  ( 0.000000000000000000, -1.000000000000000000, 1.734723475976816166E-15 ) ) ;
#294 = VECTOR ( 'NONE', #613, 1000.000000000000000 ) ;
#295 = ORIENTED_EDGE ( 'NONE', *, *, #398, .F. ) ;
#296 = PERSON_AND_ORGANIZATION ( #221, #339 ) ;
#297 = CARTESIAN_POINT ( 'NONE',  ( -30.00000000000000000, -2.775557561562891036E-14, 5.925938290422262816E-30 ) ) ;
#298 = DIRECTION ( 'NONE',  ( 0.000000000000000000, -0.9107690195288802304, -0.4129162058655511114 ) ) ;
#299 = ADVANCED_FACE ( 'NONE', ( #252 ), #680, .T. ) ;
#300 = CC_DESIGN_APPROVAL ( #621, ( #107 ) ) ;
#301 = CARTESIAN_POINT ( 'NONE',  ( -30.00000000000000000, -30.38184869098832408, 13.77424727858378972 ) ) ;
#302 = AXIS2_PLACEMENT_3D ( 'NONE', #9, #336, #4 ) ;
#303 = EDGE_LOOP ( 'NONE', ( #196, #457 ) ) ;
#304 = DIRECTION ( 'NONE',  ( 0.000000000000000000, 0.000000000000000000, -1.000000000000000000 ) ) ;
#305 = DIRECTION ( 'NONE',  ( 0.000000000000000000, 0.4129162058655468925, -0.9107690195288821178 ) ) ;
#306 = EDGE_CURVE ( 'NONE', #14, #505, #522, .T. ) ;
#307 = LINE ( 'NONE', #261, #251 ) ;
#308 = DIRECTION ( 'NONE',  ( 1.000000000000000000, -0.000000000000000000, 0.000000000000000000 ) ) ;
#309 = DIRECTION ( 'NONE',  ( -1.000000000000000000, -0.000000000000000000, -0.000000000000000000 ) ) ;
#310 = LINE ( 'NONE', #103, #351 ) ;
#311 = VECTOR ( 'NONE', #466, 1000.000000000000000 ) ;
#312 = VERTEX_POINT ( 'NONE', #355 ) ;
#313 = VECTOR ( 'NONE', #230, 1000.000000000000000 ) ;
#314 = CARTESIAN_POINT ( 'NONE',  ( 30.00000000000000000, -29.88044091272580971, 14.88020210453945147 ) ) ;
#315 = LINE ( 'NONE', #149, #454 ) ;
#316 = VERTEX_POINT ( 'NONE', #189 ) ;
#317 = CARTESIAN_POINT ( 'NONE',  ( -30.00000000000000000, -24.00000000000000355, -5.543254822260995474E-15 ) ) ;
#318 = CARTESIAN_POINT ( 'NONE',  ( 30.00000000000000000, -33.97890150060595005, -16.73832503093453283 ) ) ;
#319 = ADVANCED_FACE ( 'NONE', ( #575 ), #132, .F. ) ;
#320 = ORIENTED_EDGE ( 'NONE', *, *, #193, .F. ) ;
#321 = CARTESIAN_POINT ( 'NONE',  ( -30.00000000000000000, -33.97890150060595005, -16.73832503093453283 ) ) ;
#322 = CARTESIAN_POINT ( 'NONE',  ( -30.00000000000000000, -8.000000000000000000, -65.00000000000000000 ) ) ;
#323 = ORIENTED_EDGE ( 'NONE', *, *, #383, .T. ) ;
#324 = VECTOR ( 'NONE', #557, 1000.000000000000000 ) ;
#325 = VECTOR ( 'NONE', #68, 1000.000000000000000 ) ;
#326 = DIRECTION ( 'NONE',  ( 1.000000000000000000, -0.000000000000000000, 0.000000000000000000 ) ) ;
#327 = ORIENTED_EDGE ( 'NONE', *, *, #427, .T. ) ;
#328 = EDGE_CURVE ( 'NONE', #280, #211, #350, .T. ) ;
#329 = DIRECTION ( 'NONE',  ( -1.000000000000000000, -0.000000000000000000, -0.000000000000000000 ) ) ;
#330 = DIRECTION ( 'NONE',  ( 0.000000000000000000, -0.9107690195288808965, 0.4129162058655495571 ) ) ;
#331 = ORIENTED_EDGE ( 'NONE', *, *, #660, .T. ) ;
#332 = LINE ( 'NONE', #555, #325 ) ;
#333 = DIRECTION ( 'NONE',  ( 0.000000000000000000, 0.000000000000000000, -1.000000000000000000 ) ) ;
#334 = PRODUCT_DEFINITION_SHAPE ( 'NONE', 'NONE',  #107 ) ;
#335 = ORIENTED_EDGE ( 'NONE', *, *, #26, .T. ) ;
#336 = DIRECTION ( 'NONE',  ( 1.000000000000000000, -0.000000000000000000, 0.000000000000000000 ) ) ;
#337 = CLOSED_SHELL ( 'NONE', ( #578, #436, #299, #35, #228, #233 ) ) ;
#338 = CARTESIAN_POINT ( 'NONE',  ( -30.00000000000000000, 22.38184869098821750, -49.36762979502132964 ) ) ;
#339 = ORGANIZATION ( 'UNSPECIFIED', 'UNSPECIFIED', '' ) ;
#340 = VERTEX_POINT ( 'NONE', #181 ) ;
#341 = PRODUCT ( 'HANGER-R_REV_A', 'HANGER-R_REV_A', '', ( #453 ) ) ;
#342 = PERSON_AND_ORGANIZATION ( #221, #339 ) ;
#343 = DIRECTION ( 'NONE',  ( 0.000000000000000000, -0.9107690195288808965, 0.4129162058655495571 ) ) ;
#344 = EDGE_CURVE ( 'NONE', #156, #232, #404, .T. ) ;
#345 = ORIENTED_EDGE ( 'NONE', *, *, #182, .T. ) ;
#346 = EDGE_CURVE ( 'NONE', #49, #280, #126, .T. ) ;
#347 = APPLICATION_PROTOCOL_DEFINITION ( 'international standard', 'config_control_design', 1994, #540 ) ;
#348 = CARTESIAN_POINT ( 'NONE',  ( -30.00000000000000000, 0.5014077782625171453, 1.105954825955664633 ) ) ;
#349 = EDGE_LOOP ( 'NONE', ( #526, #379, #327, #335 ) ) ;
#350 = LINE ( 'NONE', #679, #39 ) ;
#351 = VECTOR ( 'NONE', #51, 1000.000000000000000 ) ;
#352 = VECTOR ( 'NONE', #358, 1000.000000000000000 ) ;
#353 = PERSON_AND_ORGANIZATION ( #221, #339 ) ;
#354 = EDGE_CURVE ( 'NONE', #169, #517, #684, .T. ) ;
#355 = CARTESIAN_POINT ( 'NONE',  ( -30.00000000000000000, -24.00000000000000355, -8.250000000000005329 ) ) ;
#356 = EDGE_LOOP ( 'NONE', ( #489, #122, #444, #482 ) ) ;
#357 = COORDINATED_UNIVERSAL_TIME_OFFSET ( 10, 0, .AHEAD. ) ;
#358 = DIRECTION ( 'NONE',  ( 0.000000000000000000, -2.135044278125300850E-16, -1.000000000000000000 ) ) ;
#359 = FACE_OUTER_BOUND ( 'NONE', #19, .T. ) ;
#360 = DIRECTION ( 'NONE',  ( -1.000000000000000000, -0.000000000000000000, -0.000000000000000000 ) ) ;
#361 = VECTOR ( 'NONE', #343, 1000.000000000000000 ) ;
#362 = AXIS2_PLACEMENT_3D ( 'NONE', #205, #264, #98 ) ;
#363 = CARTESIAN_POINT ( 'NONE',  ( -30.00000000000000000, -33.97890150060596426, 16.73832503093451507 ) ) ;
#364 = CARTESIAN_POINT ( 'NONE',  ( 30.00000000000000000, -8.000000000000001776, -63.14187707360493818 ) ) ;
#365 = CC_DESIGN_PERSON_AND_ORGANIZATION_ASSIGNMENT ( #510, #669, ( #451 ) ) ;
#366 = DIRECTION ( 'NONE',  ( 0.000000000000000000, 0.000000000000000000, -1.000000000000000000 ) ) ;
#367 = CARTESIAN_POINT ( 'NONE',  ( 30.00000000000000000, 22.38184869098821750, -49.36762979502132964 ) ) ;
#368 = CARTESIAN_POINT ( 'NONE',  ( 30.00000000000000000, -1.387778780781445676E-14, 64.99999999999998579 ) ) ;
#369 = LINE ( 'NONE', #255, #200 ) ;
#370 = AXIS2_PLACEMENT_3D ( 'NONE', #413, #238, #519 ) ;
#371 = ORIENTED_EDGE ( 'NONE', *, *, #203, .T. ) ;
#372 = AXIS2_PLACEMENT_3D ( 'NONE', #617, #142, #521 ) ;
#373 = FACE_OUTER_BOUND ( 'NONE', #184, .T. ) ;
#374 = EDGE_CURVE ( 'NONE', #452, #607, #629, .T. ) ;
#375 = CARTESIAN_POINT ( 'NONE',  ( -30.00000000000000000, 22.38184869098818197, 49.36762979502137938 ) ) ;
#376 = ORIENTED_EDGE ( 'NONE', *, *, #448, .T. ) ;
#377 =( LENGTH_UNIT ( ) NAMED_UNIT ( * ) SI_UNIT ( .MILLI., .METRE. ) );
#378 = CARTESIAN_POINT ( 'NONE',  ( 30.00000000000000000, -24.00000000000000000, -16.00000000000000355 ) ) ;
#379 = ORIENTED_EDGE ( 'NONE', *, *, #660, .F. ) ;
#380 = UNCERTAINTY_MEASURE_WITH_UNIT (LENGTH_MEASURE( 1.000000000000000082E-05 ), #377, 'distance_accuracy_value', 'NONE');
#381 =( NAMED_UNIT ( * ) PLANE_ANGLE_UNIT ( ) SI_UNIT ( $, .RADIAN. ) );
#382 = DIRECTION ( 'NONE',  ( 0.000000000000000000, 0.000000000000000000, -1.000000000000000000 ) ) ;
#383 = EDGE_CURVE ( 'NONE', #241, #8, #87, .T. ) ;
#384 = ORIENTED_EDGE ( 'NONE', *, *, #412, .T. ) ;
#385 = DIRECTION ( 'NONE',  ( 0.000000000000000000, -0.9107690195288808965, -0.4129162058655497791 ) ) ;
#386 = DIRECTION ( 'NONE',  ( 1.000000000000000000, -0.000000000000000000, 0.000000000000000000 ) ) ;
#387 = VERTEX_POINT ( 'NONE', #192 ) ;
#388 = CC_DESIGN_PERSON_AND_ORGANIZATION_ASSIGNMENT ( #353, #449, ( #155 ) ) ;
#389 = CARTESIAN_POINT ( 'NONE',  ( 30.00000000000000000, -30.38184869098831342, -13.77424727858379150 ) ) ;
#390 = CARTESIAN_POINT ( 'NONE',  ( -30.00000000000000000, -24.00000000000000355, -5.543254822260995474E-15 ) ) ;
#391 = ORIENTED_EDGE ( 'NONE', *, *, #481, .F. ) ;
#392 = FACE_OUTER_BOUND ( 'NONE', #164, .T. ) ;
#393 = LINE ( 'NONE', #658, #682 ) ;
#394 = ORIENTED_EDGE ( 'NONE', *, *, #427, .F. ) ;
#395 = APPROVAL_STATUS ( 'not_yet_approved' ) ;
#396 = AXIS2_PLACEMENT_3D ( 'NONE', #17, #450, #382 ) ;
#397 = DIRECTION ( 'NONE',  ( 0.000000000000000000, -0.9107690195288802304, -0.4129162058655511114 ) ) ;
#398 = EDGE_CURVE ( 'NONE', #340, #559, #455, .T. ) ;
#399 = CIRCLE ( 'NONE', #227, 8.250000000000000000 ) ;
#400 = ORIENTED_EDGE ( 'NONE', *, *, #481, .T. ) ;
#401 = PLANE ( 'NONE',  #372 ) ;
#402 = EDGE_LOOP ( 'NONE', ( #543, #542, #45, #611 ) ) ;
#403 = APPROVAL_DATE_TIME ( #572, #138 ) ;
#404 = LINE ( 'NONE', #31, #430 ) ;
#405 = LOCAL_TIME ( 14, 52, 57.00000000000000000, #357 ) ;
#406 = ADVANCED_FACE ( 'NONE', ( #186 ), #401, .T. ) ;
#407 = CALENDAR_DATE ( 2025, 17, 8 ) ;
#408 = LINE ( 'NONE', #301, #591 ) ;
#409 = CLOSED_SHELL ( 'NONE', ( #61, #585, #75, #472, #525, #630 ) ) ;
#410 = AXIS2_PLACEMENT_3D ( 'NONE', #643, #153, #304 ) ;
#411 = PERSON_AND_ORGANIZATION_ROLE ( 'design_owner' ) ;
#412 = EDGE_CURVE ( 'NONE', #661, #505, #675, .T. ) ;
#413 = CARTESIAN_POINT ( 'NONE',  ( 30.00000000000000000, -2.775557561562891036E-14, 5.925938290422262816E-30 ) ) ;
#414 = CARTESIAN_POINT ( 'NONE',  ( 30.00000000000000000, -8.000000000000000000, -65.00000000000000000 ) ) ;
#415 = EDGE_LOOP ( 'NONE', ( #115, #197, #547, #447 ) ) ;
#416 = ORIENTED_EDGE ( 'NONE', *, *, #420, .T. ) ;
#417 = CARTESIAN_POINT ( 'NONE',  ( 30.00000000000000000, -24.00000000000000355, -5.543254822260995474E-15 ) ) ;
#418 = MANIFOLD_SOLID_BREP ( 'Boss-Extrude3', #337 ) ;
#419 = EDGE_LOOP ( 'NONE', ( #496, #220, #215, #632 ) ) ;
#420 = EDGE_CURVE ( 'NONE', #146, #554, #89, .T. ) ;
#421 = VECTOR ( 'NONE', #290, 1000.000000000000000 ) ;
#422 = DIRECTION ( 'NONE',  ( 0.000000000000000000, 0.000000000000000000, 1.000000000000000000 ) ) ;
#423 = DIRECTION ( 'NONE',  ( 0.000000000000000000, 0.000000000000000000, -1.000000000000000000 ) ) ;
#424 = DIRECTION ( 'NONE',  ( 0.000000000000000000, -0.4129162058655497791, 0.9107690195288808965 ) ) ;
#425 = FACE_OUTER_BOUND ( 'NONE', #642, .T. ) ;
#426 = EDGE_LOOP ( 'NONE', ( #563, #437, #320, #485 ) ) ;
#427 = EDGE_CURVE ( 'NONE', #554, #8, #623, .T. ) ;
#428 = CARTESIAN_POINT ( 'NONE',  ( 30.00000000000000000, 0.000000000000000000, 0.000000000000000000 ) ) ;
#429 = PLANE ( 'NONE',  #225 ) ;
#430 = VECTOR ( 'NONE', #248, 1000.000000000000000 ) ;
#431 = VERTEX_POINT ( 'NONE', #245 ) ;
#432 = AXIS2_PLACEMENT_3D ( 'NONE', #389, #385, #647 ) ;
#433 = CARTESIAN_POINT ( 'NONE',  ( 30.00000000000000000, -24.00000000000000000, -16.00000000000000355 ) ) ;
#434 = EDGE_LOOP ( 'NONE', ( #471, #229, #67, #214 ) ) ;
#435 = FACE_OUTER_BOUND ( 'NONE', #269, .T. ) ;
#436 = ADVANCED_FACE ( 'NONE', ( #619 ), #461, .T. ) ;
#437 = ORIENTED_EDGE ( 'NONE', *, *, #689, .T. ) ;
#438 = CARTESIAN_POINT ( 'NONE',  ( 30.00000000000000000, -12.09846058788017764, 65.00000000000000000 ) ) ;
#439 = DIRECTION ( 'NONE',  ( 0.000000000000000000, 0.000000000000000000, -1.000000000000000000 ) ) ;
#440 = EDGE_LOOP ( 'NONE', ( #246, #600, #204, #25 ) ) ;
#441 = AXIS2_PLACEMENT_3D ( 'NONE', #417, #309, #422 ) ;
#442 = DIRECTION ( 'NONE',  ( -1.000000000000000000, -0.000000000000000000, -0.000000000000000000 ) ) ;
#443 = DIRECTION ( 'NONE',  ( -1.000000000000000000, -0.000000000000000000, -0.000000000000000000 ) ) ;
#444 = ORIENTED_EDGE ( 'NONE', *, *, #344, .T. ) ;
#445 = FACE_OUTER_BOUND ( 'NONE', #434, .T. ) ;
#446 = CARTESIAN_POINT ( 'NONE',  ( -30.00000000000000000, -34.48030927886847508, -15.63237020497885332 ) ) ;
#447 = ORIENTED_EDGE ( 'NONE', *, *, #38, .T. ) ;
#448 = EDGE_CURVE ( 'NONE', #146, #241, #194, .T. ) ;
#449 = PERSON_AND_ORGANIZATION_ROLE ( 'design_supplier' ) ;
#450 = DIRECTION ( 'NONE',  ( 1.000000000000000000, -0.000000000000000000, 0.000000000000000000 ) ) ;
#451 = SECURITY_CLASSIFICATION ( '', '', #616 ) ;
#452 = VERTEX_POINT ( 'NONE', #631 ) ;
#453 = MECHANICAL_CONTEXT ( 'NONE', #260, 'mechanical' ) ;
#454 = VECTOR ( 'NONE', #106, 1000.000000000000000 ) ;
#455 = LINE ( 'NONE', #297, #352 ) ;
#456 = AXIS2_PLACEMENT_3D ( 'NONE', #277, #442, #552 ) ;
#457 = ORIENTED_EDGE ( 'NONE', *, *, #567, .F. ) ;
#458 = DIRECTION ( 'NONE',  ( 0.000000000000000000, -0.4129162058655496126, -0.9107690195288808965 ) ) ;
#459 = ADVANCED_FACE ( 'NONE', ( #541 ), #640, .T. ) ;
#460 = SHAPE_DEFINITION_REPRESENTATION ( #334, #676 ) ;
#461 = PLANE ( 'NONE',  #524 ) ;
#462 = LOCAL_TIME ( 14, 52, 57.00000000000000000, #191 ) ;
#463 = ADVANCED_FACE ( 'NONE', ( #479 ), #158, .T. ) ;
#464 = ORIENTED_EDGE ( 'NONE', *, *, #648, .T. ) ;
#465 = PERSON_AND_ORGANIZATION_ROLE ( 'creator' ) ;
#466 = DIRECTION ( 'NONE',  ( 0.000000000000000000, 1.067522139062650425E-16, -1.000000000000000000 ) ) ;
#467 = VECTOR ( 'NONE', #293, 1000.000000000000000 ) ;
#468 = VECTOR ( 'NONE', #216, 1000.000000000000000 ) ;
#469 = DIRECTION ( 'NONE',  ( 0.000000000000000000, 0.4129162058655497236, -0.9107690195288807855 ) ) ;
#470 = VERTEX_POINT ( 'NONE', #314 ) ;
#471 = ORIENTED_EDGE ( 'NONE', *, *, #145, .T. ) ;
#472 = ADVANCED_FACE ( 'NONE', ( #54 ), #692, .T. ) ;
#473 = LINE ( 'NONE', #532, #213 ) ;
#474 = ORIENTED_EDGE ( 'NONE', *, *, #152, .F. ) ;
#475 = DESIGN_CONTEXT ( 'detailed design', #540, 'design' ) ;
#476 = DIRECTION ( 'NONE',  ( 0.000000000000000000, -0.4129162058655495571, -0.9107690195288808965 ) ) ;
#477 = CARTESIAN_POINT ( 'NONE',  ( 30.00000000000000000, 1.127570259384924359E-13, 64.99999999999998579 ) ) ;
#478 = CIRCLE ( 'NONE', #259, 15.99999999999999645 ) ;
#479 = FACE_OUTER_BOUND ( 'NONE', #596, .T. ) ;
#480 = LINE ( 'NONE', #587, #249 ) ;
#481 = EDGE_CURVE ( 'NONE', #312, #11, #548, .T. ) ;
#482 = ORIENTED_EDGE ( 'NONE', *, *, #533, .T. ) ;
#483 = PLANE ( 'NONE',  #432 ) ;
#484 = DIRECTION ( 'NONE',  ( 0.000000000000000000, -1.734723475976807292E-15, -1.000000000000000000 ) ) ;
#485 = ORIENTED_EDGE ( 'NONE', *, *, #648, .F. ) ;
#486 = LINE ( 'NONE', #493, #313 ) ;
#487 = FACE_OUTER_BOUND ( 'NONE', #130, .T. ) ;
#488 = VECTOR ( 'NONE', #443, 1000.000000000000000 ) ;
#489 = ORIENTED_EDGE ( 'NONE', *, *, #125, .F. ) ;
#490 = DIRECTION ( 'NONE',  ( 0.000000000000000000, 0.9107690195288825619, -0.4129162058655459488 ) ) ;
#491 = LINE ( 'NONE', #562, #324 ) ;
#492 = ORIENTED_EDGE ( 'NONE', *, *, #94, .F. ) ;
#493 = CARTESIAN_POINT ( 'NONE',  ( 30.00000000000000000, -24.00000000000000355, 8.249999999999994671 ) ) ;
#494 = DIRECTION ( 'NONE',  ( 0.000000000000000000, -0.9107690195288821178, -0.4129162058655468370 ) ) ;
#495 = EDGE_CURVE ( 'NONE', #207, #517, #473, .T. ) ;
#496 = ORIENTED_EDGE ( 'NONE', *, *, #495, .T. ) ;
#497 = CARTESIAN_POINT ( 'NONE',  ( -30.00000000000000000, -24.00000000000000000, -16.00000000000000355 ) ) ;
#498 = LINE ( 'NONE', #226, #488 ) ;
#499 = ORIENTED_EDGE ( 'NONE', *, *, #203, .F. ) ;
#500 = CLOSED_SHELL ( 'NONE', ( #589, #463, #637, #111, #504, #208 ) ) ;
#501 = VECTOR ( 'NONE', #657, 1000.000000000000000 ) ;
#502 = FACE_OUTER_BOUND ( 'NONE', #426, .T. ) ;
#503 = CARTESIAN_POINT ( 'NONE',  ( 30.00000000000000000, -8.000000000000001776, -63.14187707360493818 ) ) ;
#504 = ADVANCED_FACE ( 'NONE', ( #685, #41 ), #698, .T. ) ;
#505 = VERTEX_POINT ( 'NONE', #414 ) ;
#506 = CC_DESIGN_PERSON_AND_ORGANIZATION_ASSIGNMENT ( #177, #465, ( #107 ) ) ;
#507 = DATE_AND_TIME ( #564, #462 ) ;
#508 = DIRECTION ( 'NONE',  ( 1.000000000000000000, -0.000000000000000000, 0.000000000000000000 ) ) ;
#509 = ORIENTED_EDGE ( 'NONE', *, *, #346, .T. ) ;
#510 = PERSON_AND_ORGANIZATION ( #221, #339 ) ;
#511 = CARTESIAN_POINT ( 'NONE',  ( 30.00000000000000000, -24.00000000000000355, -5.543254822260995474E-15 ) ) ;
#512 = ORIENTED_EDGE ( 'NONE', *, *, #495, .F. ) ;
#513 = CALENDAR_DATE ( 2025, 17, 8 ) ;
#514 = ADVANCED_FACE ( 'NONE', ( #373 ), #46, .T. ) ;
#515 = CIRCLE ( 'NONE', #634, 15.99999999999999645 ) ;
#516 = DIRECTION ( 'NONE',  ( 0.000000000000000000, 0.4129162058655495571, 0.9107690195288808965 ) ) ;
#517 = VERTEX_POINT ( 'NONE', #363 ) ;
#518 = CALENDAR_DATE ( 2025, 17, 8 ) ;
#519 = DIRECTION ( 'NONE',  ( 0.000000000000000000, 2.135044278125300850E-16, 1.000000000000000000 ) ) ;
#520 = PERSON_AND_ORGANIZATION ( #221, #339 ) ;
#521 = DIRECTION ( 'NONE',  ( 0.000000000000000000, 0.4129162058655496126, 0.9107690195288808965 ) ) ;
#522 = LINE ( 'NONE', #577, #467 ) ;
#523 = VECTOR ( 'NONE', #93, 1000.000000000000000 ) ;
#524 = AXIS2_PLACEMENT_3D ( 'NONE', #626, #569, #37 ) ;
#525 = ADVANCED_FACE ( 'NONE', ( #359 ), #201, .T. ) ;
#526 = ORIENTED_EDGE ( 'NONE', *, *, #217, .F. ) ;
#527 = CC_DESIGN_PERSON_AND_ORGANIZATION_ASSIGNMENT ( #520, #411, ( #341 ) ) ;
#528 = CARTESIAN_POINT ( 'NONE',  ( 30.00000000000000000, -34.48030927886847508, -15.63237020497885332 ) ) ;
#529 = FACE_OUTER_BOUND ( 'NONE', #440, .T. ) ;
#530 = DIRECTION ( 'NONE',  ( 0.000000000000000000, 0.000000000000000000, -1.000000000000000000 ) ) ;
#531 = DIRECTION ( 'NONE',  ( 0.000000000000000000, 0.9107690195288821178, 0.4129162058655468925 ) ) ;
#532 = CARTESIAN_POINT ( 'NONE',  ( -30.00000000000000000, -34.48030927886848218, 15.63237020497884977 ) ) ;
#533 = EDGE_CURVE ( 'NONE', #232, #431, #43, .T. ) ;
#534 = CARTESIAN_POINT ( 'NONE',  ( -30.00000000000000000, -24.00000000000000355, 8.249999999999994671 ) ) ;
#535 = AXIS2_PLACEMENT_3D ( 'NONE', #667, #275, #439 ) ;
#536 = VECTOR ( 'NONE', #588, 1000.000000000000000 ) ;
#537 = DIRECTION ( 'NONE',  ( 0.000000000000000000, 0.000000000000000000, -1.000000000000000000 ) ) ;
#538 = CARTESIAN_POINT ( 'NONE',  ( 30.00000000000000000, 1.127570259384924359E-13, 64.99999999999998579 ) ) ;
#539 = ORIENTED_EDGE ( 'NONE', *, *, #354, .F. ) ;
#540 = APPLICATION_CONTEXT ( 'configuration controlled 3d designs of mechanical parts and assemblies' ) ;
#541 = FACE_OUTER_BOUND ( 'NONE', #356, .T. ) ;
#542 = ORIENTED_EDGE ( 'NONE', *, *, #628, .F. ) ;
#543 = ORIENTED_EDGE ( 'NONE', *, *, #85, .T. ) ;
#544 = LOCAL_TIME ( 14, 52, 57.00000000000000000, #247 ) ;
#545 = CARTESIAN_POINT ( 'NONE',  ( -30.00000000000000000, 0.000000000000000000, 0.000000000000000000 ) ) ;
#546 = PLANE ( 'NONE',  #645 ) ;
#547 = ORIENTED_EDGE ( 'NONE', *, *, #448, .F. ) ;
#548 = CIRCLE ( 'NONE', #71, 8.250000000000000000 ) ;
#549 = CARTESIAN_POINT ( 'NONE',  ( 30.00000000000000000, -8.000000000000000000, -65.00000000000000000 ) ) ;
#550 = CARTESIAN_POINT ( 'NONE',  ( 30.00000000000000000, -12.09846058788017764, 65.00000000000000000 ) ) ;
#551 = VERTEX_POINT ( 'NONE', #368 ) ;
#552 = DIRECTION ( 'NONE',  ( 0.000000000000000000, 0.000000000000000000, 1.000000000000000000 ) ) ;
#553 = DIRECTION ( 'NONE',  ( 1.000000000000000000, -0.000000000000000000, 0.000000000000000000 ) ) ;
#554 = VERTEX_POINT ( 'NONE', #579 ) ;
#555 = CARTESIAN_POINT ( 'NONE',  ( 30.00000000000000000, -8.000000000000000000, 63.14187707360495239 ) ) ;
#556 = CC_DESIGN_APPROVAL ( #138, ( #155 ) ) ;
#557 = DIRECTION ( 'NONE',  ( 0.000000000000000000, -0.4129162058655496126, -0.9107690195288808965 ) ) ;
#558 = EDGE_CURVE ( 'NONE', #14, #559, #307, .T. ) ;
#559 = VERTEX_POINT ( 'NONE', #198 ) ;
#560 = AXIS2_PLACEMENT_3D ( 'NONE', #99, #308, #423 ) ;
#561 = FACE_OUTER_BOUND ( 'NONE', #236, .T. ) ;
#562 = CARTESIAN_POINT ( 'NONE',  ( 30.00000000000000000, -30.38184869098832408, 13.77424727858378972 ) ) ;
#563 = ORIENTED_EDGE ( 'NONE', *, *, #102, .T. ) ;
#564 = CALENDAR_DATE ( 2025, 17, 8 ) ;
#565 = DIRECTION ( 'NONE',  ( 0.000000000000000000, 1.067522139062650425E-16, -1.000000000000000000 ) ) ;
#566 = ORIENTED_EDGE ( 'NONE', *, *, #412, .F. ) ;
#567 = EDGE_CURVE ( 'NONE', #316, #172, #399, .T. ) ;
#568 = APPROVAL_ROLE ( '' ) ;
#569 = DIRECTION ( 'NONE',  ( 0.000000000000000000, -1.734723475976816166E-15, -1.000000000000000000 ) ) ;
#570 = LOCAL_TIME ( 14, 52, 57.00000000000000000, #36 ) ;
#571 = EDGE_LOOP ( 'NONE', ( #2, #677, #161, #262 ) ) ;
#572 = DATE_AND_TIME ( #407, #187 ) ;
#573 = VECTOR ( 'NONE', #121, 1000.000000000000000 ) ;
#574 = CARTESIAN_POINT ( 'NONE',  ( 30.00000000000000000, -24.00000000000000355, 15.99999999999998934 ) ) ;
#575 = FACE_OUTER_BOUND ( 'NONE', #419, .T. ) ;
#576 = VERTEX_POINT ( 'NONE', #209 ) ;
#577 = CARTESIAN_POINT ( 'NONE',  ( 30.00000000000000000, -1.127570259384930796E-13, -65.00000000000001421 ) ) ;
#578 = ADVANCED_FACE ( 'NONE', ( #148 ), #101, .F. ) ;
#579 = CARTESIAN_POINT ( 'NONE',  ( 30.00000000000000000, -12.09846058788015633, -65.00000000000000000 ) ) ;
#580 = AXIS2_PLACEMENT_3D ( 'NONE', #40, #670, #516 ) ;
#581 = ORIENTED_EDGE ( 'NONE', *, *, #77, .F. ) ;
#582 = AXIS2_PLACEMENT_3D ( 'NONE', #622, #30, #141 ) ;
#583 = DIRECTION ( 'NONE',  ( 0.000000000000000000, -0.9107690195288808965, -0.4129162058655497791 ) ) ;
#584 = ORIENTED_EDGE ( 'NONE', *, *, #152, .T. ) ;
#585 = ADVANCED_FACE ( 'NONE', ( #50 ), #483, .F. ) ;
#586 = CARTESIAN_POINT ( 'NONE',  ( 30.00000000000000000, -24.00000000000000355, -5.543254822260995474E-15 ) ) ;
#587 = CARTESIAN_POINT ( 'NONE',  ( 30.00000000000000000, -8.000000000000014211, 65.00000000000000000 ) ) ;
#588 = DIRECTION ( 'NONE',  ( 0.000000000000000000, -0.4129162058655495571, -0.9107690195288808965 ) ) ;
#589 = ADVANCED_FACE ( 'NONE', ( #502 ), #267, .F. ) ;
#590 = PLANE ( 'NONE',  #157 ) ;
#591 = VECTOR ( 'NONE', #458, 1000.000000000000000 ) ;
#592 = VECTOR ( 'NONE', #162, 1000.000000000000000 ) ;
#593 = ORIENTED_EDGE ( 'NONE', *, *, #328, .T. ) ;
#594 = CARTESIAN_POINT ( 'NONE',  ( 30.00000000000000000, 0.000000000000000000, 0.000000000000000000 ) ) ;
#595 = ORIENTED_EDGE ( 'NONE', *, *, #52, .F. ) ;
#596 = EDGE_LOOP ( 'NONE', ( #266, #166, #697, #687 ) ) ;
#597 = DIRECTION ( 'NONE',  ( -1.000000000000000000, -0.000000000000000000, -0.000000000000000000 ) ) ;
#598 = EDGE_CURVE ( 'NONE', #241, #452, #601, .T. ) ;
#599 = APPROVAL ( #395, 'UNSPECIFIED' ) ;
#600 = ORIENTED_EDGE ( 'NONE', *, *, #26, .F. ) ;
#601 = LINE ( 'NONE', #117, #615 ) ;
#602 = DIRECTION ( 'NONE',  ( 0.000000000000000000, -0.4129162058655497236, 0.9107690195288807855 ) ) ;
#603 = CIRCLE ( 'NONE', #560, 8.250000000000000000 ) ;
#604 = EDGE_LOOP ( 'NONE', ( #104, #32, #345, #584 ) ) ;
#605 = DIRECTION ( 'NONE',  ( 1.000000000000000000, -0.000000000000000000, 0.000000000000000000 ) ) ;
#606 = CARTESIAN_POINT ( 'NONE',  ( 30.00000000000000000, 0.000000000000000000, 0.000000000000000000 ) ) ;
#607 = VERTEX_POINT ( 'NONE', #321 ) ;
#608 = EDGE_CURVE ( 'NONE', #505, #176, #662, .T. ) ;
#609 = PLANE ( 'NONE',  #625 ) ;
#610 = DIRECTION ( 'NONE',  ( 0.000000000000000000, 0.000000000000000000, -1.000000000000000000 ) ) ;
#611 = ORIENTED_EDGE ( 'NONE', *, *, #650, .T. ) ;
#612 = DIRECTION ( 'NONE',  ( -1.000000000000000000, -0.000000000000000000, -0.000000000000000000 ) ) ;
#613 = DIRECTION ( 'NONE',  ( 0.000000000000000000, -2.135044278125300850E-16, -1.000000000000000000 ) ) ;
#614 = ORIENTED_EDGE ( 'NONE', *, *, #52, .T. ) ;
#615 = VECTOR ( 'NONE', #329, 1000.000000000000000 ) ;
#616 = SECURITY_CLASSIFICATION_LEVEL ( 'unclassified' ) ;
#617 = CARTESIAN_POINT ( 'NONE',  ( 30.00000000000000000, -30.38184869098832408, 13.77424727858378972 ) ) ;
#618 = ORIENTED_EDGE ( 'NONE', *, *, #420, .F. ) ;
#619 = FACE_OUTER_BOUND ( 'NONE', #668, .T. ) ;
#620 = ORIENTED_EDGE ( 'NONE', *, *, #270, .T. ) ;
#621 = APPROVAL ( #23, 'UNSPECIFIED' ) ;
#622 = CARTESIAN_POINT ( 'NONE',  ( 0.000000000000000000, 0.000000000000000000, 0.000000000000000000 ) ) ;
#623 = LINE ( 'NONE', #34, #47 ) ;
#624 = AXIS2_PLACEMENT_3D ( 'NONE', #287, #386, #124 ) ;
#625 = AXIS2_PLACEMENT_3D ( 'NONE', #545, #605, #174 ) ;
#626 = CARTESIAN_POINT ( 'NONE',  ( 30.00000000000000000, -1.127570259384930796E-13, -65.00000000000001421 ) ) ;
#627 = ORIENTED_EDGE ( 'NONE', *, *, #195, .F. ) ;
#628 = EDGE_CURVE ( 'NONE', #232, #207, #12, .T. ) ;
#629 = LINE ( 'NONE', #242, #240 ) ;
#630 = ADVANCED_FACE ( 'NONE', ( #445 ), #609, .F. ) ;
#631 = CARTESIAN_POINT ( 'NONE',  ( -30.00000000000000000, -29.88044091272579195, -14.88020210453946213 ) ) ;
#632 = ORIENTED_EDGE ( 'NONE', *, *, #628, .T. ) ;
#633 = DIRECTION ( 'NONE',  ( 1.000000000000000000, -0.000000000000000000, 0.000000000000000000 ) ) ;
#634 = AXIS2_PLACEMENT_3D ( 'NONE', #390, #508, #610 ) ;
#635 = ORIENTED_EDGE ( 'NONE', *, *, #173, .T. ) ;
#636 = VECTOR ( 'NONE', #565, 1000.000000000000000 ) ;
#637 = ADVANCED_FACE ( 'NONE', ( #392 ), #653, .T. ) ;
#638 = CARTESIAN_POINT ( 'NONE',  ( 30.00000000000000000, -34.48030927886848218, 15.63237020497884977 ) ) ;
#639 = CARTESIAN_POINT ( 'NONE',  ( 30.00000000000000000, -24.00000000000000355, -5.543254822260995474E-15 ) ) ;
#640 = PLANE ( 'NONE',  #410 ) ;
#641 = DIRECTION ( 'NONE',  ( 0.000000000000000000, -1.000000000000000000, 1.734723475976816166E-15 ) ) ;
#642 = EDGE_LOOP ( 'NONE', ( #274, #656, #464, #391 ) ) ;
#643 = CARTESIAN_POINT ( 'NONE',  ( 30.00000000000000000, 0.000000000000000000, 0.000000000000000000 ) ) ;
#644 = PLANE ( 'NONE',  #136 ) ;
#645 = AXIS2_PLACEMENT_3D ( 'NONE', #606, #58, #113 ) ;
#646 = ORIENTED_EDGE ( 'NONE', *, *, #219, .F. ) ;
#647 = DIRECTION ( 'NONE',  ( 0.000000000000000000, 0.4129162058655497236, -0.9107690195288807855 ) ) ;
#648 = EDGE_CURVE ( 'NONE', #172, #11, #486, .T. ) ;
#649 = EDGE_LOOP ( 'NONE', ( #22, #76, #416, #331 ) ) ;
#650 = EDGE_CURVE ( 'NONE', #156, #253, #332, .T. ) ;
#651 = VERTEX_POINT ( 'NONE', #170 ) ;
#652 = MANIFOLD_SOLID_BREP ( 'Boss-Extrude2', #500 ) ;
#653 = CYLINDRICAL_SURFACE ( 'NONE', #683, 15.99999999999999645 ) ;
#654 = CARTESIAN_POINT ( 'NONE',  ( 30.00000000000000000, -24.00000000000000355, -5.543254822260995474E-15 ) ) ;
#655 = MANIFOLD_SOLID_BREP ( 'Boss-Extrude1[2]', #409 ) ;
#656 = ORIENTED_EDGE ( 'NONE', *, *, #567, .T. ) ;
#657 = DIRECTION ( 'NONE',  ( -1.000000000000000000, -0.000000000000000000, -0.000000000000000000 ) ) ;
#658 = CARTESIAN_POINT ( 'NONE',  ( -30.00000000000000000, -30.38184869098831342, -13.77424727858379150 ) ) ;
#659 = VECTOR ( 'NONE', #602, 1000.000000000000114 ) ;
#660 = EDGE_CURVE ( 'NONE', #554, #651, #57, .T. ) ;
#661 = VERTEX_POINT ( 'NONE', #123 ) ;
#662 = LINE ( 'NONE', #549, #127 ) ;
#663 = CARTESIAN_POINT ( 'NONE',  ( -30.00000000000000000, -8.000000000000000000, 63.14187707360495239 ) ) ;
#664 = ORIENTED_EDGE ( 'NONE', *, *, #279, .T. ) ;
#665 = ADVANCED_FACE ( 'NONE', ( #65 ), #224, .F. ) ;
#666 = DIRECTION ( 'NONE',  ( -1.000000000000000000, -0.000000000000000000, -0.000000000000000000 ) ) ;
#667 = CARTESIAN_POINT ( 'NONE',  ( -30.00000000000000000, 0.000000000000000000, 0.000000000000000000 ) ) ;
#668 = EDGE_LOOP ( 'NONE', ( #53, #492, #276, #671 ) ) ;
#669 = PERSON_AND_ORGANIZATION_ROLE ( 'classification_officer' ) ;
#670 = DIRECTION ( 'NONE',  ( 0.000000000000000000, 0.9107690195288808965, -0.4129162058655495571 ) ) ;
#671 = ORIENTED_EDGE ( 'NONE', *, *, #306, .T. ) ;
#672 = AXIS2_PLACEMENT_3D ( 'NONE', #511, #82, #178 ) ;
#673 = APPROVAL_PERSON_ORGANIZATION ( #185, #621, #234 ) ;
#674 = APPROVAL_DATE_TIME ( #33, #599 ) ;
#675 = LINE ( 'NONE', #129, #636 ) ;
#676 = ADVANCED_BREP_SHAPE_REPRESENTATION ( 'HANGER-R_REV_A', ( #183, #655, #652, #418, #582 ), #179 ) ;
#677 = ORIENTED_EDGE ( 'NONE', *, *, #116, .F. ) ;
#678 = DATE_TIME_ROLE ( 'classification_date' ) ;
#679 = CARTESIAN_POINT ( 'NONE',  ( 30.00000000000000000, -24.00000000000000355, 15.99999999999998934 ) ) ;
#680 = PLANE ( 'NONE',  #370 ) ;
#681 = ADVANCED_FACE ( 'NONE', ( #561 ), #167, .F. ) ;
#682 = VECTOR ( 'NONE', #118, 999.9999999999998863 ) ;
#683 = AXIS2_PLACEMENT_3D ( 'NONE', #120, #612, #20 ) ;
#684 = LINE ( 'NONE', #348, #361 ) ;
#685 = FACE_OUTER_BOUND ( 'NONE', #60, .T. ) ;
#686 = VERTEX_POINT ( 'NONE', #497 ) ;
#687 = ORIENTED_EDGE ( 'NONE', *, *, #328, .F. ) ;
#688 = DIRECTION ( 'NONE',  ( -1.000000000000000000, -0.000000000000000000, -0.000000000000000000 ) ) ;
#689 = EDGE_CURVE ( 'NONE', #316, #312, #16, .T. ) ;
#690 = FACE_OUTER_BOUND ( 'NONE', #649, .T. ) ;
#691 = APPROVAL_PERSON_ORGANIZATION ( #342, #138, #568 ) ;
#692 = PLANE ( 'NONE',  #91 ) ;
#693 = CIRCLE ( 'NONE', #90, 15.99999999999999645 ) ;
#694 = CARTESIAN_POINT ( 'NONE',  ( 30.00000000000000000, 0.5014077782625026014, -1.105954825955627330 ) ) ;
#695 = CARTESIAN_POINT ( 'NONE',  ( 30.00000000000000000, 0.5014077782625171453, 1.105954825955664633 ) ) ;
#696 = DIRECTION ( 'NONE',  ( -1.000000000000000000, -0.000000000000000000, -0.000000000000000000 ) ) ;
#697 = ORIENTED_EDGE ( 'NONE', *, *, #195, .T. ) ;
#698 = PLANE ( 'NONE',  #114 ) ;
#699 = LINE ( 'NONE', #375, #59 ) ;
ENDSEC;
END-ISO-10303-21;
