ISO-10303-21;
HEADER;
FILE_DESCRIPTION (( 'STEP AP203' ),
    '1' );
FILE_NAME ('SPINDLE WASHER 1 INCH_1_REV_.step',
    '2025-08-17T04:51:57',
    ( '' ),
    ( '' ),
    'SwSTEP 2.0',
    'SolidWorks 2024',
    '' );
FILE_SCHEMA (( 'CONFIG_CONTROL_DESIGN' ));
ENDSEC;

DATA;
#1 = ADVANCED_FACE ( 'NONE', ( #150 ), #52, .T. ) ;
#2 = PLANE ( 'NONE',  #84 ) ;
#3 = CC_DESIGN_APPROVAL ( #222, ( #216 ) ) ;
#4 = LINE ( 'NONE', #236, #140 ) ;
#5 = DATE_AND_TIME ( #97, #51 ) ;
#6 = PERSON_AND_ORGANIZATION ( #24, #192 ) ;
#7 = PERSON_AND_ORGANIZATION_ROLE ( 'design_supplier' ) ;
#8 = APPLICATION_CONTEXT ( 'configuration controlled 3d designs of mechanical parts and assemblies' ) ;
#9 = APPROVAL_STATUS ( 'not_yet_approved' ) ;
#10 = COORDINATED_UNIVERSAL_TIME_OFFSET ( 10, 0, .AHEAD. ) ;
#11 = EDGE_LOOP ( 'NONE', ( #186, #187 ) ) ;
#12 = CC_DESIGN_PERSON_AND_ORGANIZATION_ASSIGNMENT ( #98, #28, ( #216 ) ) ;
#13 = EDGE_LOOP ( 'NONE', ( #86, #226, #164, #72 ) ) ;
#14 = CC_DESIGN_DATE_AND_TIME_ASSIGNMENT ( #241, #63, ( #163 ) ) ;
#15 = VERTEX_POINT ( 'NONE', #130 ) ;
#16 = ORIENTED_EDGE ( 'NONE', *, *, #198, .F. ) ;
#17 = AXIS2_PLACEMENT_3D ( 'NONE', #20, #153, #200 ) ;
#18 = FACE_BOUND ( 'NONE', #244, .T. ) ;
#19 = DIRECTION ( 'NONE',  ( -6.162975822039154730E-33, -9.244463733058732095E-33, 1.000000000000000000 ) ) ;
#20 = CARTESIAN_POINT ( 'NONE',  ( 0.000000000000000000, 0.000000000000000000, 0.1299999999999967015 ) ) ;
#21 = APPROVAL_PERSON_ORGANIZATION ( #102, #99, #25 ) ;
#22 = DIRECTION ( 'NONE',  ( 6.162975822039154730E-33, 9.244463733058732095E-33, -1.000000000000000000 ) ) ;
#23 = LINE ( 'NONE', #156, #177 ) ;
#24 = PERSON ( 'UNSPECIFIED', 'UNSPECIFIED', 'UNSPECIFIED', ('UNSPECIFIED'), ('UNSPECIFIED'), ('UNSPECIFIED') ) ;
#25 = APPROVAL_ROLE ( '' ) ;
#26 = EDGE_CURVE ( 'NONE', #227, #147, #33, .T. ) ;
#27 = MECHANICAL_CONTEXT ( 'NONE', #8, 'mechanical' ) ;
#28 = PERSON_AND_ORGANIZATION_ROLE ( 'creator' ) ;
#29 = AXIS2_PLACEMENT_3D ( 'NONE', #113, #111, #56 ) ;
#30 = DIRECTION ( 'NONE',  ( 0.000000000000000000, 0.000000000000000000, 1.000000000000000000 ) ) ;
#31 =( NAMED_UNIT ( * ) SI_UNIT ( $, .STERADIAN. ) SOLID_ANGLE_UNIT ( ) );
#32 = LINE ( 'NONE', #174, #120 ) ;
#33 = CIRCLE ( 'NONE', #224, 0.5000000000000004441 ) ;
#34 = ORIENTED_EDGE ( 'NONE', *, *, #122, .F. ) ;
#35 = DIRECTION ( 'NONE',  ( 6.162975822039154730E-33, 9.244463733058732095E-33, -1.000000000000000000 ) ) ;
#36 = ORIENTED_EDGE ( 'NONE', *, *, #112, .F. ) ;
#37 = VERTEX_POINT ( 'NONE', #149 ) ;
#38 = DIRECTION ( 'NONE',  ( 6.162975822039154730E-33, 9.244463733058732095E-33, -1.000000000000000000 ) ) ;
#39 =( CONVERSION_BASED_UNIT ( 'INCH', #218 ) LENGTH_UNIT ( ) NAMED_UNIT ( #196 ) );
#40 =( GEOMETRIC_REPRESENTATION_CONTEXT ( 3 ) GLOBAL_UNCERTAINTY_ASSIGNED_CONTEXT ( ( #80 ) ) GLOBAL_UNIT_ASSIGNED_CONTEXT ( ( #39, #92, #31 ) ) REPRESENTATION_CONTEXT ( 'NONE', 'WORKASPACE' ) );
#41 = ADVANCED_FACE ( 'NONE', ( #18, #213 ), #230, .T. ) ;
#42 = CARTESIAN_POINT ( 'NONE',  ( 0.000000000000000000, 0.000000000000000000, 0.000000000000000000 ) ) ;
#43 = DIRECTION ( 'NONE',  ( -6.162975822039154730E-33, -9.244463733058732095E-33, 1.000000000000000000 ) ) ;
#44 = AXIS2_PLACEMENT_3D ( 'NONE', #171, #76, #152 ) ;
#45 = CALENDAR_DATE ( 2025, 17, 8 ) ;
#46 = COORDINATED_UNIVERSAL_TIME_OFFSET ( 10, 0, .AHEAD. ) ;
#47 = APPROVAL_DATE_TIME ( #223, #229 ) ;
#48 = EDGE_CURVE ( 'NONE', #15, #126, #104, .T. ) ;
#49 = CALENDAR_DATE ( 2025, 17, 8 ) ;
#50 = EDGE_LOOP ( 'NONE', ( #189, #132 ) ) ;
#51 = LOCAL_TIME ( 14, 51, 57.00000000000000000, #239 ) ;
#52 = CYLINDRICAL_SURFACE ( 'NONE', #109, 0.8350000000000007416 ) ;
#53 = CARTESIAN_POINT ( 'NONE',  ( -0.8450199999999964406, -0.8450200000000117617, 0.1299999999999967015 ) ) ;
#54 = CARTESIAN_POINT ( 'NONE',  ( 0.000000000000000000, 0.000000000000000000, 0.000000000000000000 ) ) ;
#55 = DIRECTION ( 'NONE',  ( 1.000000000000000000, 9.436895709313824677E-16, -1.232595164407829988E-32 ) ) ;
#56 = DIRECTION ( 'NONE',  ( -1.000000000000000000, -9.436895709313822705E-16, 1.232595164407830125E-32 ) ) ;
#57 = CC_DESIGN_PERSON_AND_ORGANIZATION_ASSIGNMENT ( #6, #160, ( #163 ) ) ;
#58 = DIRECTION ( 'NONE',  ( -1.000000000000000000, -9.436895709313822705E-16, 0.000000000000000000 ) ) ;
#59 = APPLICATION_CONTEXT ( 'configuration controlled 3d designs of mechanical parts and assemblies' ) ;
#60 = CYLINDRICAL_SURFACE ( 'NONE', #205, 0.5000000000000004441 ) ;
#61 = AXIS2_PLACEMENT_3D ( 'NONE', #115, #77, #58 ) ;
#62 = CARTESIAN_POINT ( 'NONE',  ( 0.5000000000000001110, 5.330771254230589065E-16, 0.1299999999999967015 ) ) ;
#63 = DATE_TIME_ROLE ( 'creation_date' ) ;
#64 = CIRCLE ( 'NONE', #114, 0.5000000000000004441 ) ;
#65 = PERSON_AND_ORGANIZATION ( #24, #192 ) ;
#66 = PERSON_AND_ORGANIZATION ( #24, #192 ) ;
#67 = COORDINATED_UNIVERSAL_TIME_OFFSET ( 10, 0, .AHEAD. ) ;
#68 = AXIS2_PLACEMENT_3D ( 'NONE', #54, #133, #249 ) ;
#69 = EDGE_LOOP ( 'NONE', ( #105, #233, #73, #16 ) ) ;
#70 = DIRECTION ( 'NONE',  ( -1.000000000000000000, -9.436895709313826649E-16, 0.000000000000000000 ) ) ;
#71 = DIRECTION ( 'NONE',  ( -1.000000000000000000, -9.436895709313822705E-16, 1.232595164407830125E-32 ) ) ;
#72 = ORIENTED_EDGE ( 'NONE', *, *, #148, .T. ) ;
#73 = ORIENTED_EDGE ( 'NONE', *, *, #26, .T. ) ;
#74 = CARTESIAN_POINT ( 'NONE',  ( 0.000000000000000000, 0.000000000000000000, 0.1299999999999967015 ) ) ;
#75 = AXIS2_PLACEMENT_3D ( 'NONE', #42, #19, #118 ) ;
#76 = DIRECTION ( 'NONE',  ( -6.162975822039154730E-33, -9.244463733058732095E-33, 1.000000000000000000 ) ) ;
#77 = DIRECTION ( 'NONE',  ( -6.162975822039154730E-33, -9.244463733058732095E-33, 1.000000000000000000 ) ) ;
#78 = FACE_BOUND ( 'NONE', #90, .T. ) ;
#79 = CARTESIAN_POINT ( 'NONE',  ( 0.000000000000000000, 0.000000000000000000, 0.1299999999999967015 ) ) ;
#80 = UNCERTAINTY_MEASURE_WITH_UNIT (LENGTH_MEASURE( 1.000000000000000082E-05 ), #39, 'distance_accuracy_value', 'NONE');
#81 = APPROVAL_STATUS ( 'not_yet_approved' ) ;
#82 = EDGE_CURVE ( 'NONE', #91, #246, #64, .T. ) ;
#83 = SECURITY_CLASSIFICATION_LEVEL ( 'unclassified' ) ;
#84 = AXIS2_PLACEMENT_3D ( 'NONE', #201, #238, #55 ) ;
#85 = ORIENTED_EDGE ( 'NONE', *, *, #89, .F. ) ;
#86 = ORIENTED_EDGE ( 'NONE', *, *, #139, .F. ) ;
#87 = ORIENTED_EDGE ( 'NONE', *, *, #139, .T. ) ;
#88 = AXIS2_PLACEMENT_3D ( 'NONE', #94, #195, #251 ) ;
#89 = EDGE_CURVE ( 'NONE', #211, #126, #32, .T. ) ;
#90 = EDGE_LOOP ( 'NONE', ( #208, #209 ) ) ;
#91 = VERTEX_POINT ( 'NONE', #117 ) ;
#92 =( NAMED_UNIT ( * ) PLANE_ANGLE_UNIT ( ) SI_UNIT ( $, .RADIAN. ) );
#93 = AXIS2_PLACEMENT_3D ( 'NONE', #79, #43, #96 ) ;
#94 = CARTESIAN_POINT ( 'NONE',  ( 0.000000000000000000, 0.000000000000000000, 0.1299999999999967015 ) ) ;
#95 = DIRECTION ( 'NONE',  ( 6.162975822039154730E-33, 9.244463733058732095E-33, -1.000000000000000000 ) ) ;
#96 = DIRECTION ( 'NONE',  ( -1.000000000000000000, -9.436895709313826649E-16, 0.000000000000000000 ) ) ;
#97 = CALENDAR_DATE ( 2025, 17, 8 ) ;
#98 = PERSON_AND_ORGANIZATION ( #24, #192 ) ;
#99 = APPROVAL ( #178, 'UNSPECIFIED' ) ;
#100 = CARTESIAN_POINT ( 'NONE',  ( 0.000000000000000000, 0.000000000000000000, 0.000000000000000000 ) ) ;
#101 = LOCAL_TIME ( 14, 51, 57.00000000000000000, #46 ) ;
#102 = PERSON_AND_ORGANIZATION ( #24, #192 ) ;
#103 = ORIENTED_EDGE ( 'NONE', *, *, #158, .T. ) ;
#104 = CIRCLE ( 'NONE', #68, 0.8350000000000007416 ) ;
#105 = ORIENTED_EDGE ( 'NONE', *, *, #82, .T. ) ;
#106 = DIRECTION ( 'NONE',  ( 6.162975822039154730E-33, 9.244463733058732095E-33, -1.000000000000000000 ) ) ;
#107 = PRODUCT_DEFINITION_SHAPE ( 'NONE', 'NONE',  #163 ) ;
#108 = ORIENTED_EDGE ( 'NONE', *, *, #198, .T. ) ;
#109 = AXIS2_PLACEMENT_3D ( 'NONE', #245, #106, #70 ) ;
#110 = DIRECTION ( 'NONE',  ( 1.232595164407830809E-32, -9.244463733058714305E-33, 1.000000000000000000 ) ) ;
#111 = DIRECTION ( 'NONE',  ( 6.162975822039154730E-33, 9.244463733058732095E-33, -1.000000000000000000 ) ) ;
#112 = EDGE_CURVE ( 'NONE', #37, #211, #180, .T. ) ;
#113 = CARTESIAN_POINT ( 'NONE',  ( 0.000000000000000000, 0.000000000000000000, 0.000000000000000000 ) ) ;
#114 = AXIS2_PLACEMENT_3D ( 'NONE', #151, #125, #206 ) ;
#115 = CARTESIAN_POINT ( 'NONE',  ( 0.000000000000000000, 0.000000000000000000, 0.1299999999999967015 ) ) ;
#116 = APPROVAL_PERSON_ORGANIZATION ( #66, #229, #243 ) ;
#117 = CARTESIAN_POINT ( 'NONE',  ( -0.5000000000000004441, -4.718447854656915297E-16, 0.1299999999999967015 ) ) ;
#118 = DIRECTION ( 'NONE',  ( -1.000000000000000000, -9.436895709313826649E-16, 1.232595164407830262E-32 ) ) ;
#119 = APPLICATION_PROTOCOL_DEFINITION ( 'international standard', 'config_control_design', 1994, #59 ) ;
#120 = VECTOR ( 'NONE', #137, 39.37007874015748143 ) ;
#121 = APPROVAL_DATE_TIME ( #203, #222 ) ;
#122 = EDGE_CURVE ( 'NONE', #246, #227, #4, .T. ) ;
#123 = APPLICATION_PROTOCOL_DEFINITION ( 'international standard', 'config_control_design', 1994, #8 ) ;
#124 = APPROVAL_DATE_TIME ( #5, #99 ) ;
#125 = DIRECTION ( 'NONE',  ( -6.162975822039154730E-33, -9.244463733058732095E-33, 1.000000000000000000 ) ) ;
#126 = VERTEX_POINT ( 'NONE', #155 ) ;
#127 = VECTOR ( 'NONE', #252, 39.37007874015748143 ) ;
#128 = AXIS2_PLACEMENT_3D ( 'NONE', #100, #30, #184 ) ;
#129 = CC_DESIGN_PERSON_AND_ORGANIZATION_ASSIGNMENT ( #181, #7, ( #216 ) ) ;
#130 = CARTESIAN_POINT ( 'NONE',  ( 0.8350000000000002975, 8.902387994565086244E-16, 5.146084811402704244E-33 ) ) ;
#131 = EDGE_CURVE ( 'NONE', #211, #37, #207, .T. ) ;
#132 = ORIENTED_EDGE ( 'NONE', *, *, #112, .T. ) ;
#133 = DIRECTION ( 'NONE',  ( -6.162975822039154730E-33, -9.244463733058732095E-33, 1.000000000000000000 ) ) ;
#134 = CARTESIAN_POINT ( 'NONE',  ( 0.5000000000000001110, 5.330771254230589065E-16, 3.081487911019582839E-33 ) ) ;
#135 = DIRECTION ( 'NONE',  ( -1.000000000000000000, -9.436895709313822705E-16, 0.000000000000000000 ) ) ;
#136 = PRODUCT_RELATED_PRODUCT_CATEGORY ( 'detail', '', ( #188 ) ) ;
#137 = DIRECTION ( 'NONE',  ( 6.162975822039154730E-33, 9.244463733058732095E-33, -1.000000000000000000 ) ) ;
#138 = LOCAL_TIME ( 14, 51, 57.00000000000000000, #67 ) ;
#139 = EDGE_CURVE ( 'NONE', #37, #15, #214, .T. ) ;
#140 = VECTOR ( 'NONE', #22, 39.37007874015748143 ) ;
#141 = CALENDAR_DATE ( 2025, 17, 8 ) ;
#142 = CIRCLE ( 'NONE', #61, 0.5000000000000004441 ) ;
#143 = ADVANCED_FACE ( 'NONE', ( #250 ), #237, .T. ) ;
#144 = APPROVAL_ROLE ( '' ) ;
#145 = CALENDAR_DATE ( 2025, 17, 8 ) ;
#146 = LOCAL_TIME ( 14, 51, 57.00000000000000000, #10 ) ;
#147 = VERTEX_POINT ( 'NONE', #157 ) ;
#148 = EDGE_CURVE ( 'NONE', #126, #15, #159, .T. ) ;
#149 = CARTESIAN_POINT ( 'NONE',  ( 0.8350000000000002975, 8.902387994565086244E-16, 0.1299999999999967015 ) ) ;
#150 = FACE_OUTER_BOUND ( 'NONE', #232, .T. ) ;
#151 = CARTESIAN_POINT ( 'NONE',  ( 0.000000000000000000, 0.000000000000000000, 0.1299999999999967015 ) ) ;
#152 = DIRECTION ( 'NONE',  ( -1.000000000000000000, -9.436895709313826649E-16, 0.000000000000000000 ) ) ;
#153 = DIRECTION ( 'NONE',  ( 6.162975822039154730E-33, 9.244463733058732095E-33, -1.000000000000000000 ) ) ;
#154 = EDGE_CURVE ( 'NONE', #246, #91, #142, .T. ) ;
#155 = CARTESIAN_POINT ( 'NONE',  ( -0.8350000000000007416, -7.879807917277051662E-16, 1.029216962280539207E-32 ) ) ;
#156 = CARTESIAN_POINT ( 'NONE',  ( -0.5000000000000004441, -4.718447854656915297E-16, 0.1299999999999967015 ) ) ;
#157 = CARTESIAN_POINT ( 'NONE',  ( -0.5000000000000004441, -4.718447854656915297E-16, 6.162975822039156098E-33 ) ) ;
#158 = EDGE_CURVE ( 'NONE', #147, #227, #172, .T. ) ;
#159 = CIRCLE ( 'NONE', #75, 0.8350000000000007416 ) ;
#160 = PERSON_AND_ORGANIZATION_ROLE ( 'creator' ) ;
#161 = PERSON_AND_ORGANIZATION ( #24, #192 ) ;
#162 = PERSON_AND_ORGANIZATION_ROLE ( 'classification_officer' ) ;
#163 = PRODUCT_DEFINITION ( 'UNKNOWN', '', #216, #235 ) ;
#164 = ORIENTED_EDGE ( 'NONE', *, *, #89, .T. ) ;
#165 = ADVANCED_FACE ( 'NONE', ( #217 ), #199, .F. ) ;
#166 = ORIENTED_EDGE ( 'NONE', *, *, #154, .T. ) ;
#167 = CARTESIAN_POINT ( 'NONE',  ( 0.000000000000000000, 0.000000000000000000, 0.000000000000000000 ) ) ;
#168 = CC_DESIGN_APPROVAL ( #229, ( #247 ) ) ;
#169 = EDGE_LOOP ( 'NONE', ( #34, #166, #108, #103 ) ) ;
#170 = DIRECTION ( 'NONE',  ( 1.000000000000000000, 9.436895709313824677E-16, -1.232595164407829988E-32 ) ) ;
#171 = CARTESIAN_POINT ( 'NONE',  ( 0.000000000000000000, 0.000000000000000000, 0.1299999999999967015 ) ) ;
#172 = CIRCLE ( 'NONE', #29, 0.5000000000000004441 ) ;
#173 = FACE_OUTER_BOUND ( 'NONE', #69, .T. ) ;
#174 = CARTESIAN_POINT ( 'NONE',  ( -0.8350000000000007416, -7.879807917277051662E-16, 0.1299999999999967015 ) ) ;
#175 = CARTESIAN_POINT ( 'NONE',  ( -0.8350000000000007416, -7.879807917277051662E-16, 0.1299999999999967015 ) ) ;
#176 = AXIS2_PLACEMENT_3D ( 'NONE', #53, #110, #170 ) ;
#177 = VECTOR ( 'NONE', #95, 39.37007874015748143 ) ;
#178 = APPROVAL_STATUS ( 'not_yet_approved' ) ;
#179 = MANIFOLD_SOLID_BREP ( 'Imported1', #191 ) ;
#180 = CIRCLE ( 'NONE', #44, 0.8350000000000007416 ) ;
#181 = PERSON_AND_ORGANIZATION ( #24, #192 ) ;
#182 = CC_DESIGN_PERSON_AND_ORGANIZATION_ASSIGNMENT ( #161, #162, ( #247 ) ) ;
#183 = ADVANCED_FACE ( 'NONE', ( #173 ), #60, .F. ) ;
#184 = DIRECTION ( 'NONE',  ( 1.000000000000000000, 0.000000000000000000, 0.000000000000000000 ) ) ;
#185 = DATE_TIME_ROLE ( 'classification_date' ) ;
#186 = ORIENTED_EDGE ( 'NONE', *, *, #148, .F. ) ;
#187 = ORIENTED_EDGE ( 'NONE', *, *, #48, .F. ) ;
#188 = PRODUCT ( 'SPINDLE WASHER 1 INCH_1_REV_', 'SPINDLE WASHER 1 INCH_1_REV_', '', ( #27 ) ) ;
#189 = ORIENTED_EDGE ( 'NONE', *, *, #131, .T. ) ;
#190 = ORIENTED_EDGE ( 'NONE', *, *, #82, .F. ) ;
#191 = CLOSED_SHELL ( 'NONE', ( #183, #1, #165, #231, #41, #143 ) ) ;
#192 = ORGANIZATION ( 'UNSPECIFIED', 'UNSPECIFIED', '' ) ;
#193 = ORIENTED_EDGE ( 'NONE', *, *, #154, .F. ) ;
#194 = CARTESIAN_POINT ( 'NONE',  ( 0.8350000000000007416, 8.902387994565092160E-16, 0.1299999999999967015 ) ) ;
#195 = DIRECTION ( 'NONE',  ( 6.162975822039154730E-33, 9.244463733058732095E-33, -1.000000000000000000 ) ) ;
#196 = DIMENSIONAL_EXPONENTS ( 1.000000000000000000, 0.000000000000000000, 0.000000000000000000, 0.000000000000000000, 0.000000000000000000, 0.000000000000000000, 0.000000000000000000 ) ;
#197 = LOCAL_TIME ( 14, 51, 57.00000000000000000, #221 ) ;
#198 = EDGE_CURVE ( 'NONE', #91, #147, #23, .T. ) ;
#199 = CYLINDRICAL_SURFACE ( 'NONE', #88, 0.5000000000000004441 ) ;
#200 = DIRECTION ( 'NONE',  ( -1.000000000000000000, -9.436895709313826649E-16, 0.000000000000000000 ) ) ;
#201 = CARTESIAN_POINT ( 'NONE',  ( -0.8450199999999964406, -0.8450200000000117617, 0.000000000000000000 ) ) ;
#202 = PERSON_AND_ORGANIZATION ( #24, #192 ) ;
#203 = DATE_AND_TIME ( #141, #101 ) ;
#204 = SHAPE_DEFINITION_REPRESENTATION ( #107, #219 ) ;
#205 = AXIS2_PLACEMENT_3D ( 'NONE', #74, #38, #135 ) ;
#206 = DIRECTION ( 'NONE',  ( -1.000000000000000000, -9.436895709313822705E-16, 0.000000000000000000 ) ) ;
#207 = CIRCLE ( 'NONE', #93, 0.8350000000000007416 ) ;
#208 = ORIENTED_EDGE ( 'NONE', *, *, #158, .F. ) ;
#209 = ORIENTED_EDGE ( 'NONE', *, *, #26, .F. ) ;
#210 = CC_DESIGN_DATE_AND_TIME_ASSIGNMENT ( #242, #185, ( #247 ) ) ;
#211 = VERTEX_POINT ( 'NONE', #175 ) ;
#212 = CC_DESIGN_PERSON_AND_ORGANIZATION_ASSIGNMENT ( #202, #220, ( #188 ) ) ;
#213 = FACE_OUTER_BOUND ( 'NONE', #50, .T. ) ;
#214 = LINE ( 'NONE', #194, #127 ) ;
#215 = FACE_OUTER_BOUND ( 'NONE', #11, .T. ) ;
#216 = PRODUCT_DEFINITION_FORMATION_WITH_SPECIFIED_SOURCE ( 'ANY', '', #188, .NOT_KNOWN. ) ;
#217 = FACE_OUTER_BOUND ( 'NONE', #169, .T. ) ;
#218 = LENGTH_MEASURE_WITH_UNIT ( LENGTH_MEASURE( 0.02539999999999999897 ), #234 );
#219 = ADVANCED_BREP_SHAPE_REPRESENTATION ( 'SPINDLE WASHER 1 INCH_1_REV_', ( #179, #128 ), #40 ) ;
#220 = PERSON_AND_ORGANIZATION_ROLE ( 'design_owner' ) ;
#221 = COORDINATED_UNIVERSAL_TIME_OFFSET ( 10, 0, .AHEAD. ) ;
#222 = APPROVAL ( #81, 'UNSPECIFIED' ) ;
#223 = DATE_AND_TIME ( #145, #138 ) ;
#224 = AXIS2_PLACEMENT_3D ( 'NONE', #167, #35, #71 ) ;
#225 = CC_DESIGN_APPROVAL ( #99, ( #163 ) ) ;
#226 = ORIENTED_EDGE ( 'NONE', *, *, #131, .F. ) ;
#227 = VERTEX_POINT ( 'NONE', #134 ) ;
#228 = APPROVAL_PERSON_ORGANIZATION ( #65, #222, #144 ) ;
#229 = APPROVAL ( #9, 'UNSPECIFIED' ) ;
#230 = PLANE ( 'NONE',  #176 ) ;
#231 = ADVANCED_FACE ( 'NONE', ( #78, #215 ), #2, .F. ) ;
#232 = EDGE_LOOP ( 'NONE', ( #36, #87, #248, #85 ) ) ;
#233 = ORIENTED_EDGE ( 'NONE', *, *, #122, .T. ) ;
#234 =( LENGTH_UNIT ( ) NAMED_UNIT ( * ) SI_UNIT ( $, .METRE. ) );
#235 = DESIGN_CONTEXT ( 'detailed design', #59, 'design' ) ;
#236 = CARTESIAN_POINT ( 'NONE',  ( 0.5000000000000004441, 5.330771254230593010E-16, 0.1299999999999967015 ) ) ;
#237 = CYLINDRICAL_SURFACE ( 'NONE', #17, 0.8350000000000007416 ) ;
#238 = DIRECTION ( 'NONE',  ( 1.232595164407830809E-32, -9.244463733058714305E-33, 1.000000000000000000 ) ) ;
#239 = COORDINATED_UNIVERSAL_TIME_OFFSET ( 10, 0, .AHEAD. ) ;
#240 = CC_DESIGN_SECURITY_CLASSIFICATION ( #247, ( #216 ) ) ;
#241 = DATE_AND_TIME ( #45, #197 ) ;
#242 = DATE_AND_TIME ( #49, #146 ) ;
#243 = APPROVAL_ROLE ( '' ) ;
#244 = EDGE_LOOP ( 'NONE', ( #190, #193 ) ) ;
#245 = CARTESIAN_POINT ( 'NONE',  ( 0.000000000000000000, 0.000000000000000000, 0.1299999999999967015 ) ) ;
#246 = VERTEX_POINT ( 'NONE', #62 ) ;
#247 = SECURITY_CLASSIFICATION ( '', '', #83 ) ;
#248 = ORIENTED_EDGE ( 'NONE', *, *, #48, .T. ) ;
#249 = DIRECTION ( 'NONE',  ( -1.000000000000000000, -9.436895709313826649E-16, 1.232595164407830262E-32 ) ) ;
#250 = FACE_OUTER_BOUND ( 'NONE', #13, .T. ) ;
#251 = DIRECTION ( 'NONE',  ( -1.000000000000000000, -9.436895709313822705E-16, 0.000000000000000000 ) ) ;
#252 = DIRECTION ( 'NONE',  ( 6.162975822039154730E-33, 9.244463733058732095E-33, -1.000000000000000000 ) ) ;
ENDSEC;
END-ISO-10303-21;
